<svg xmlns="http://www.w3.org/2000/svg" xmlns:xlink="http://www.w3.org/1999/xlink" width="71" height="72" viewBox="0 0 71 72">
                                                        <defs>
                                                            <path id="a" d="M.233.357h70.644v70.642H.233z"></path>
                                                        </defs>
                                                        <g fill="none" fill-rule="evenodd">
                                                            <g transform="translate(0 .47)">
                                                                <mask id="b" fill="#fff">
                                                                    <use xlink:href="#a"></use>
                                                                </mask>
                                                                <path fill="#7DCB33" d="M35.555 71c19.508 0 35.322-15.813 35.322-35.322C70.877 16.172 55.063.356 35.555.356 16.047.356.233 16.172.233 35.678.233 55.188 16.047 71 35.555 71" mask="url(#b)"></path>
                                                            </g>
                                                            <path fill="#FFF" d="M18.241 42.94c-.077 0-1.875.024-1.875 1.874v10.264c0 .076.026 1.875 1.875 1.875h2.988c.077 0 1.875-.027 1.875-1.875V44.814c0-.076-.026-1.875-1.875-1.875h-2.988z"></path>
                                                            <path stroke="#7DCB33" stroke-width=".25" d="M18.241 42.94c-.077 0-1.875.024-1.875 1.874v10.264c0 .076.026 1.875 1.875 1.875h2.988c.077 0 1.875-.027 1.875-1.875V44.814c0-.076-.026-1.875-1.875-1.875h-2.988z"></path>
                                                            <path fill="#FFF" d="M28.255 38.07c-.077 0-1.875.026-1.875 1.875v15.133c0 .076.026 1.875 1.875 1.875h2.988c.077-.001 1.875-.027 1.875-1.875V39.945c0-.076-.026-1.875-1.875-1.875h-2.988z"></path>
                                                            <path stroke="#7DCB33" stroke-width=".25" d="M28.255 38.07c-.077 0-1.875.026-1.875 1.875v15.133c0 .076.026 1.875 1.875 1.875h2.988c.077-.001 1.875-.027 1.875-1.875V39.945c0-.076-.026-1.875-1.875-1.875h-2.988z"></path>
                                                            <path fill="#FFF" d="M38.269 33.079c-.077 0-1.875.026-1.875 1.875v20.124c0 .076.026 1.875 1.875 1.875h2.988c.077-.001 1.875-.026 1.875-1.875V34.954c0-.076-.026-1.875-1.875-1.875h-2.988z"></path>
                                                            <path stroke="#7DCB33" stroke-width=".25" d="M38.269 33.079c-.077 0-1.875.026-1.875 1.875v20.124c0 .076.026 1.875 1.875 1.875h2.988c.077-.001 1.875-.026 1.875-1.875V34.954c0-.076-.026-1.875-1.875-1.875h-2.988z"></path>
                                                            <path fill="#FFF" d="M48.282 28.92c-.077 0-1.875.026-1.875 1.875v24.283c0 .076.026 1.875 1.875 1.875h2.988c.077 0 1.875-.026 1.875-1.875V30.795c0-.076-.026-1.875-1.875-1.875h-2.988z"></path>
                                                            <path stroke="#7DCB33" stroke-width=".25" d="M48.282 28.92c-.077 0-1.875.026-1.875 1.875v24.283c0 .076.026 1.875 1.875 1.875h2.988c.077 0 1.875-.026 1.875-1.875V30.795c0-.076-.026-1.875-1.875-1.875h-2.988z"></path>
                                                            <g stroke="#FFF" stroke-linecap="round" stroke-width="2.854">
                                                                <path d="M17.552 34.958l33.427-21.481M51.843 13.8l-4.63 11.427M51.712 13.586l-10.694-2.37"></path>
                                                            </g>
                                                        </g>
                                                    </svg>