<svg xmlns="http://www.w3.org/2000/svg" xmlns:xlink="http://www.w3.org/1999/xlink" width="71" height="71" viewBox="0 0 71 71">
                                                        <defs>
                                                            <path id="a" d="M.001.357h70.643v70.642H0z"></path>
                                                        </defs>
                                                        <g fill="none" fill-rule="evenodd">
                                                            <g transform="translate(0 -.357)">
                                                                <mask id="b" fill="#fff">
                                                                    <use xlink:href="#a"></use>
                                                                </mask>
                                                                <path fill="#FFD900" d="M35.322 71c19.508 0 35.322-15.813 35.322-35.322C70.644 16.172 54.83.356 35.322.356 15.814.356 0 16.172 0 35.678 0 55.188 15.814 71 35.322 71" mask="url(#b)"></path>
                                                            </g>
                                                            <g fill="#FFF">
                                                                <path d="M56.423 30.271a1.5 1.5 0 0 0-1.5 1.5v7.75h-8.125V22.896a1.5 1.5 0 0 0-1.5-1.5H26.673a1.5 1.5 0 0 0-1.5 1.5v18.25a1.5 1.5 0 1 0 3 0v-16.75h15.625v16.625a1.5 1.5 0 0 0 1.5 1.5h11.125a1.5 1.5 0 0 0 1.5-1.5v-9.25a1.5 1.5 0 0 0-1.5-1.5"></path>
                                                                <path d="M40.298 38.896a1.5 1.5 0 0 0-1.5 1.5v18.5h-5.25V40.521a1.5 1.5 0 1 0-3 0v19.875a1.5 1.5 0 0 0 1.5 1.5h8.25a1.5 1.5 0 0 0 1.5-1.5v-20a1.5 1.5 0 0 0-1.5-1.5M61.798 24.271H49.923a1.5 1.5 0 1 0 0 3h10.375v7.875a1.5 1.5 0 1 0 3 0v-9.375a1.5 1.5 0 0 0-1.5-1.5M54.173 14.771a2.377 2.377 0 0 1 2.375 2.375 2.377 2.377 0 0 1-2.375 2.375 2.377 2.377 0 0 1-2.375-2.375 2.377 2.377 0 0 1 2.375-2.375m0 7.75a5.38 5.38 0 0 0 5.375-5.375 5.38 5.38 0 0 0-5.375-5.375 5.38 5.38 0 0 0-5.375 5.375 5.38 5.38 0 0 0 5.375 5.375M18.423 19.646a2.377 2.377 0 0 1-2.375-2.375 2.377 2.377 0 0 1 2.375-2.375 2.377 2.377 0 0 1 2.375 2.375 2.377 2.377 0 0 1-2.375 2.375m0-7.75a5.38 5.38 0 0 0-5.375 5.375 5.38 5.38 0 0 0 5.375 5.375 5.38 5.38 0 0 0 5.375-5.375 5.38 5.38 0 0 0-5.375-5.375M36.298 12.021a2.377 2.377 0 0 1 2.375 2.375 2.377 2.377 0 0 1-2.375 2.375 2.377 2.377 0 0 1-2.375-2.375 2.377 2.377 0 0 1 2.375-2.375m0 7.75a5.38 5.38 0 0 0 5.375-5.375 5.38 5.38 0 0 0-5.375-5.375 5.38 5.38 0 0 0-5.375 5.375 5.38 5.38 0 0 0 5.375 5.375M22.173 24.146h-12a1.5 1.5 0 0 0-1.5 1.5v13.875a1.5 1.5 0 1 0 3 0V27.146h10.5a1.5 1.5 0 1 0 0-3"></path>
                                                            </g>
                                                        </g>
                                                    </svg>