<svg xmlns="http://www.w3.org/2000/svg" width="70.644" height="70.644" viewBox="0 0 70.644 70.644">
  <g id="Group_2057" data-name="Group 2057" transform="translate(-137 -278.001)">
    <g id="whyItWorkImgFour" transform="translate(137 278.002)">
      <g id="Group_2056" data-name="Group 2056" transform="translate(0 -0.357)">
        <path id="Path_3165" data-name="Path 3165" d="M35.322,71A35.322,35.322,0,1,0,0,35.678,35.321,35.321,0,0,0,35.322,71" fill="#f66" fill-rule="evenodd"/>
      </g>
      <path id="Path_3166" data-name="Path 3166" d="M35.322,56.67a5.709,5.709,0,0,1,6.6-1.045,4.755,4.755,0,0,0,5.95-3.035,5.712,5.712,0,0,1,4.721-4.723,4.751,4.751,0,0,0,3.036-5.948,5.712,5.712,0,0,1,1.044-6.6,4.758,4.758,0,0,0-1.044-6.6,5.743,5.743,0,0,1-3.036-5.95,4.752,4.752,0,0,0-4.722-4.721,5.745,5.745,0,0,1-5.949-3.036,4.758,4.758,0,0,0-6.6-1.044,5.711,5.711,0,0,1-6.6,1.044,4.751,4.751,0,0,0-5.949,3.036,5.712,5.712,0,0,1-4.722,4.72,4.755,4.755,0,0,0-3.036,5.95,5.708,5.708,0,0,1-1.044,6.6,4.76,4.76,0,0,0,1.044,6.6,5.74,5.74,0,0,1,3.036,5.948,4.754,4.754,0,0,0,4.722,4.723,5.742,5.742,0,0,1,5.95,3.035,4.757,4.757,0,0,0,6.6,1.045" fill="none" stroke="#fff" stroke-linecap="round" stroke-width="0.887" fill-rule="evenodd"/>
      <path id="Path_3168" data-name="Path 3168" d="M35.322,61.8A26.476,26.476,0,1,0,8.846,35.32,26.477,26.477,0,0,0,35.322,61.8Z" fill="none" stroke="#fff" stroke-linecap="round" stroke-width="3" fill-rule="evenodd"/>
    </g>
    <g id="rupee-indian" transform="translate(93.193 303)">
      <path id="Path_3169" data-name="Path 3169" d="M86.088,4.766a.465.465,0,0,0-.343-.134H83.19a5.171,5.171,0,0,0-.956-2.151h3.481A.459.459,0,0,0,86.192,2V.478A.46.46,0,0,0,85.714,0H73.284a.46.46,0,0,0-.478.478V2.465a.485.485,0,0,0,.478.478H75.45q3.152,0,4,1.688h-6.17a.46.46,0,0,0-.478.478V6.633a.46.46,0,0,0,.478.478h6.38a2.919,2.919,0,0,1-1.532,1.868,6.742,6.742,0,0,1-3.175.643H73.284a.485.485,0,0,0-.478.478V12a.447.447,0,0,0,.134.329q2.868,3.048,7.44,8.531a.441.441,0,0,0,.374.179h2.913a.433.433,0,0,0,.433-.269.408.408,0,0,0-.06-.508q-4.362-5.349-6.858-8.008a7.577,7.577,0,0,0,4.124-1.643,5.586,5.586,0,0,0,1.927-3.5h2.51a.46.46,0,0,0,.478-.478V5.11A.465.465,0,0,0,86.088,4.766Z" fill="#fff"/>
    </g>
  </g>
</svg>
