<svg xmlns="http://www.w3.org/2000/svg" width="24.29" height="27.84" viewBox="0 0 24.29 27.84">
    <defs>
        <style>
            .cls-1{fill:#9b1773}
        </style>
    </defs>
    <g id="traveler-with-a-suitcase" transform="translate(-31.565)">
        <g id="Group_1335" data-name="Group 1335" transform="translate(31.565)">
            <circle id="Ellipse_551" cx="3.121" cy="3.121" r="3.121" class="cls-1" data-name="Ellipse 551" transform="translate(12.289)"/>
            <path id="Path_2103" d="M54.766 118.064c-2.789-.287-5.493-3.3-6.174-3.723a3.273 3.273 0 0 0-1.384-.573 2.475 2.475 0 0 0-.683-.031 2.737 2.737 0 0 0-1.576.605 5.008 5.008 0 0 0-.55.505 23.782 23.782 0 0 0-4.74 6.966 1.211 1.211 0 0 0 .247 1.278l-1.491 2.656-2.1-1.18a.521.521 0 0 0-.71.2l-3.975 7.023a.521.521 0 0 0 .2.71l1.59.894a1.194 1.194 0 1 0 1.981-.152l2.17-3.808 1.52-2.709 1.885-3.267a1.212 1.212 0 0 0 .937-.749 17.016 17.016 0 0 1 2.172-3.736l.379 4.351a2.111 2.111 0 0 0 .572 1.278c-.976 1.77-3.6 6.61-4.551 8.255a1.542 1.542 0 1 0 2.671 1.54c.884-1.532 3.188-6.18 4.2-7.928a70.452 70.452 0 0 1 3.943 7.782 1.542 1.542 0 0 0 2.82-1.251 69.066 69.066 0 0 0-4.429-8.628 2.138 2.138 0 0 0 .481-1.548l-.358-4.121a8.432 8.432 0 0 0 4.705 1.766 1.182 1.182 0 0 0 .127.007 1.211 1.211 0 0 0 .121-2.417zm-20.329 16.385a.435.435 0 1 1 .435-.435.435.435 0 0 1-.435.435z" class="cls-1" data-name="Path 2103" transform="translate(-31.565 -107.33)"/>
        </g>
    </g>
</svg>
