<svg xmlns="http://www.w3.org/2000/svg" width="21.82" height="21.82" viewBox="0 0 21.82 21.82">
  <path id="Icon_material-language" data-name="Icon material-language" d="M13.9,3A10.91,10.91,0,1,0,24.82,13.91,10.9,10.9,0,0,0,13.9,3ZM21.46,9.546H18.241a17.073,17.073,0,0,0-1.506-3.884A8.76,8.76,0,0,1,21.46,9.546Zm-7.55-4.32a15.369,15.369,0,0,1,2.084,4.32H11.826A15.369,15.369,0,0,1,13.91,5.226ZM5.466,16.092a8.534,8.534,0,0,1,0-4.364H9.153A18.018,18.018,0,0,0,9,13.91a18.018,18.018,0,0,0,.153,2.182Zm.895,2.182H9.579a17.073,17.073,0,0,0,1.506,3.884A8.714,8.714,0,0,1,6.36,18.274ZM9.579,9.546H6.36a8.714,8.714,0,0,1,4.724-3.884A17.073,17.073,0,0,0,9.579,9.546ZM13.91,22.594a15.369,15.369,0,0,1-2.084-4.32h4.168A15.369,15.369,0,0,1,13.91,22.594Zm2.553-6.5H11.357a16.052,16.052,0,0,1-.175-2.182,15.912,15.912,0,0,1,.175-2.182h5.106a15.912,15.912,0,0,1,.175,2.182A16.052,16.052,0,0,1,16.463,16.092Zm.273,6.066a17.073,17.073,0,0,0,1.506-3.884H21.46A8.76,8.76,0,0,1,16.736,22.158Zm1.931-6.066a18.018,18.018,0,0,0,.153-2.182,18.018,18.018,0,0,0-.153-2.182h3.688a8.534,8.534,0,0,1,0,4.364Z" transform="translate(-3 -3)" opacity="0.8"/>
</svg>
