<svg xmlns="http://www.w3.org/2000/svg" width="31.044" height="26.525" viewBox="0 0 31.044 26.525">
    <defs>
        <style>
            .cls-1{fill:#009688}
        </style>
    </defs>
    <g id="speaking_1_" data-name="speaking (1)" transform="translate(0 -21.539)">
        <path id="Path_2099" d="M191.029 66.142a1.049 1.049 0 0 0 0 1.483 7.086 7.086 0 0 1 0 10.006 1.049 1.049 0 1 0 1.484 1.483 9.187 9.187 0 0 0 0-12.972 1.049 1.049 0 0 0-1.484 0z" class="cls-1" data-name="Path 2099" transform="translate(-170.71 -39.649)"/>
        <path id="Path_2100" d="M153.675 94.827a1.049 1.049 0 0 0 0 1.483 2.824 2.824 0 0 1 0 3.988 1.049 1.049 0 1 0 1.484 1.483 4.925 4.925 0 0 0 0-6.954 1.048 1.048 0 0 0-1.484 0z" class="cls-1" data-name="Path 2100" transform="translate(-137.279 -65.325)"/>
        <path id="Path_2101" d="M236.768 21.846a1.049 1.049 0 1 0-1.484 1.483 13.666 13.666 0 0 1-.005 19.3 1.049 1.049 0 1 0 1.484 1.483 15.767 15.767 0 0 0 .005-22.266z" class="cls-1" data-name="Path 2101" transform="translate(-210.322)"/>
        <path id="Path_2102" d="M7.632 106.45a5.2 5.2 0 1 0-.72 0 7.329 7.329 0 0 0-5.037 2.076A7.025 7.025 0 0 0 0 113.744a1.049 1.049 0 0 0 1.049 1.025h12.44a1.049 1.049 0 0 0 1.049-1.025 7.026 7.026 0 0 0-1.872-5.219 7.328 7.328 0 0 0-5.034-2.075z" class="cls-1" data-name="Path 2102" transform="translate(0 -66.706)"/>
    </g>
</svg>
