<svg xmlns="http://www.w3.org/2000/svg" width="27.275" height="21.82" viewBox="0 0 27.275 21.82">
  <path id="Icon_awesome-project-diagram" data-name="Icon awesome-project-diagram" d="M16.365,13.638H10.91A1.364,1.364,0,0,0,9.546,15v5.455A1.364,1.364,0,0,0,10.91,21.82h5.455a1.364,1.364,0,0,0,1.364-1.364V15A1.364,1.364,0,0,0,16.365,13.638ZM8.182,1.364A1.364,1.364,0,0,0,6.819,0H1.364A1.364,1.364,0,0,0,0,1.364V6.819A1.364,1.364,0,0,0,1.364,8.182H5.443l3.118,5.457a2.718,2.718,0,0,1,2.349-1.365h.012L8.182,7.48V5.455h9.546V2.727H8.182ZM25.911,0H20.456a1.364,1.364,0,0,0-1.364,1.364V6.819a1.364,1.364,0,0,0,1.364,1.364h5.455a1.364,1.364,0,0,0,1.364-1.364V1.364A1.364,1.364,0,0,0,25.911,0Z" opacity="0.8"/>
</svg>
