<svg xmlns="http://www.w3.org/2000/svg" width="37" height="37" viewBox="0 0 37 37">
    <defs>
        <style>
            .cls-1{fill:#fff}.cls-2{clip-path:url(#clip-path)}
        </style>
        <clipPath id="clip-path">
            <rect id="Rectangle_1954" width="37" height="37" class="cls-1" data-name="Rectangle 1954" rx="4" transform="translate(0 .124)"/>
        </clipPath>
    </defs>
    <g id="Mask_Group_96" class="cls-2" data-name="Mask Group 96" transform="translate(0 -.124)">
        <path id="tik-tok" d="M31.743 8.25a7.158 7.158 0 0 1-7.15-7.15 1.1 1.1 0 0 0-1.1-1.1H17.6a1.1 1.1 0 0 0-1.1 1.1v24.161a4.2 4.2 0 1 1-4.2-4.2 1.1 1.1 0 0 0 1.1-1.1v-5.897a1.1 1.1 0 0 0-1.1-1.1 12.3 12.3 0 1 0 12.3 12.3V14.566a15.136 15.136 0 0 0 7.15 1.777 1.1 1.1 0 0 0 1.1-1.1V9.35a1.1 1.1 0 0 0-1.1-1.1zm0 0" transform="translate(2.357 -.205)"/>
    </g>
</svg>
