<svg xmlns="http://www.w3.org/2000/svg" width="15.761" height="20" viewBox="0 0 15.761 20">
    <defs>
        <style>
            .prefix__cls-1{fill:#444584}
        </style>
    </defs>
    <g id="prefix__XMLID_131_" transform="translate(.02)">
        <path id="prefix__XMLID_134_" d="M208.087 295.528a1.333 1.333 0 0 0-1.333 1.333v4.944a1.334 1.334 0 1 0 2.667 0v-4.944a1.333 1.333 0 0 0-1.335-1.333z" class="prefix__cls-1" transform="translate(-200.234 -283.139)"/>
        <path id="prefix__XMLID_133_" d="M66.656 3.5h-1.2a1.329 1.329 0 0 0-1.154-.667H62.1l1.313-.781H65.6a.344.344 0 0 0 .344-.344V.344A.344.344 0 0 0 65.6 0h-1.426a1.063 1.063 0 0 0-.979.648.587.587 0 0 0-.081.029l-1.923 1.154a2.852 2.852 0 0 1 .844 1.008 2.817 2.817 0 0 1 .315 1.275 2.856 2.856 0 1 1-5.712 0 2.817 2.817 0 0 1 .313-1.275 2.852 2.852 0 0 1 .849-1.008L55.873.677a.639.639 0 0 0-.081-.029A1.062 1.062 0 0 0 54.8 0h-1.429a.344.344 0 0 0-.344.344v1.364a.344.344 0 0 0 .344.344h2.189l1.313.781h-2.207a1.329 1.329 0 0 0-1.154.667h-1.2a.667.667 0 1 0 0 1.333h1.2a1.329 1.329 0 0 0 1.154.667h.652a7.6 7.6 0 0 0-.788 3.417 10.127 10.127 0 0 0 2.631 6.756v-1.951a2.334 2.334 0 0 1 4.668 0v1.95a10.127 10.127 0 0 0 2.631-6.756 7.6 7.6 0 0 0-.79-3.416h.65a1.329 1.329 0 0 0 1.154-.667h1.2a.667.667 0 1 0 0-1.333z" class="prefix__cls-1" transform="translate(-51.632)"/>
        <path id="prefix__XMLID_132_" d="M203.733 64.688a1.523 1.523 0 1 0-1.469-1.522 1.523 1.523 0 0 0 1.469 1.522z" class="prefix__cls-1" transform="translate(-195.878 -59.059)"/>
    </g>
</svg>
