<svg xmlns="http://www.w3.org/2000/svg" width="18.301" height="20" viewBox="0 0 18.301 20">
    <path id="prefix__Path_2107" fill="#444584" d="M19.3 4.89a7.415 7.415 0 0 0-.835-3.328c-1.7-2.008-13.582-2.156-14.932 0a9.573 9.573 0 0 0-.716 3.33 1.007 1.007 0 0 0-.892 1v1.946a1.007 1.007 0 0 0 .66.944c-.091 3.086-.018 6.293.119 7.891 0 1.233.828 1.028.828 1.028h.776v1.332a1.109 1.109 0 0 0 1.215.955 1.109 1.109 0 0 0 1.217-.955v-1.327h9.038v1.332a1.109 1.109 0 0 0 1.215.955 1.109 1.109 0 0 0 1.215-.955v-1.332h.255s.975.133 1.038-.447c0-1.594.1-5.125.018-8.46a1 1 0 0 0 .707-.958V5.892a1 1 0 0 0-.926-1zM6.432 1.849h9.126V3.23H6.432zm.13 14.295a1.3 1.3 0 1 1 1.3-1.3 1.3 1.3 0 0 1-1.3 1.3zm8.947 0a1.3 1.3 0 1 1 1.3-1.3 1.3 1.3 0 0 1-1.3 1.3zm1.649-5.685H4.837V3.995h12.326z" data-name="Path 2107" transform="translate(-1.926)"/>
</svg>
