<svg xmlns="http://www.w3.org/2000/svg" width="60" height="46.346" viewBox="0 0 60 46.346">
    <defs>
        <style>
            .prefix__cls-1{fill:#444584}.prefix__cls-3{fill:#fff}.prefix__cls-4{fill:#ffe21f}.prefix__cls-5{fill:#404f66}.prefix__cls-6{fill:#ffbd49}.prefix__cls-7{fill:#ffdb6f}.prefix__cls-8{fill:#6f6f6f}
        </style>
    </defs>
    <g id="prefix__car_1_" data-name="car (1)" transform="translate(0 -56.49)">
        <path id="prefix__Path_154" d="M65.107 82.248a8.788 8.788 0 0 0-1.838-4.9 15.107 15.107 0 0 1-2.931-5.728 70.038 70.038 0 0 0-4.9-10.541 8.454 8.454 0 0 0-6.2-4.082c-5.192-.671-21.419-.671-26.611 0a8.465 8.465 0 0 0-6.193 4.082 70.234 70.234 0 0 0-4.9 10.541 15.107 15.107 0 0 1-2.931 5.728 8.785 8.785 0 0 0-1.836 4.9c-.186 3.864.934 4.714 1.935 13.459a1.36 1.36 0 0 0 1.354 1.206H61.82a1.362 1.362 0 0 0 1.354-1.206c.281-2.453 1.116-7.427 1.116-7.427a18.214 18.214 0 0 0 .817-6.032z" class="prefix__cls-1" data-name="Path 154" transform="translate(-5.945)"/>
        <path id="prefix__Path_155" d="M101.886 78.256a75.426 75.426 0 0 0-4.609-9.765 7.625 7.625 0 0 0-5.509-3.7c-5.2-.69-21.207-.684-26.372 0a7.626 7.626 0 0 0-5.509 3.7 76.747 76.747 0 0 0-4.628 9.765 297.31 297.31 0 0 0 46.627 0z" data-name="Path 155" transform="translate(-48.581 -6.842)" style="fill:#b6e3ee"/>
        <path id="prefix__Path_156" d="M375.745 215.226a8.565 8.565 0 0 0-1.605.705 19.731 19.731 0 0 1-2.6 1.247c-1.493.566-1.746 1.412-1.746 1.412-.045.058-.088.116-.129.176a2.386 2.386 0 0 0 2.363 3.636 28.821 28.821 0 0 0 6.512-1.74 2.334 2.334 0 0 0 1.417-1.59c.017-.069.032-.139.045-.206a3.278 3.278 0 0 0-4.257-3.64z" class="prefix__cls-3" data-name="Path 156" transform="translate(-324.643 -139.417)"/>
        <path id="prefix__Path_157" d="M421.043 327.857h-3.231a.546.546 0 0 0-.386.932l3.231 3.231a.546.546 0 0 0 .932-.386V328.4a.545.545 0 0 0-.546-.543z" class="prefix__cls-4" data-name="Path 157" transform="translate(-366.839 -238.572)"/>
        <path id="prefix__Path_158" d="M418.468 333.851a1.364 1.364 0 0 1-1.356 1.209H410.9v3.608a2.314 2.314 0 0 0 2.314 2.314h3.9a2.314 2.314 0 0 0 2.314-2.314v-11.293c-.256 1.564-.755 4.69-.96 6.476z" class="prefix__cls-5" data-name="Path 158" transform="translate(-361.24 -238.148)"/>
        <path id="prefix__Path_159" d="M452.213 148.826a1.863 1.863 0 0 0-1.838-1.41h-1.56a1.809 1.809 0 0 0-1.809 1.809v1.112h-.827l.474 1.127h1.819a6.553 6.553 0 0 0 2.728-.594 1.808 1.808 0 0 0 1.013-2.044z" class="prefix__cls-1" data-name="Path 159" transform="translate(-392.258 -79.938)"/>
        <circle id="prefix__Ellipse_30" cx="2.274" cy="2.274" r="2.274" class="prefix__cls-6" data-name="Ellipse 30" transform="translate(49.851 76.448)"/>
        <circle id="prefix__Ellipse_31" cx="1.671" cy="1.671" r="1.671" class="prefix__cls-7" data-name="Ellipse 31" transform="translate(45.879 78.846)"/>
        <path id="prefix__Path_160" d="M165.281 255.324l-2.612 4.549h-21.218l-2.612-4.549z" class="prefix__cls-8" data-name="Path 160" transform="translate(-122.06 -174.805)"/>
        <path id="prefix__Path_161" d="M48.339 218.761c-.039-.06-.083-.118-.129-.176 0 0-.253-.846-1.746-1.412a19.841 19.841 0 0 1-2.6-1.247 8.618 8.618 0 0 0-1.605-.705 3.279 3.279 0 0 0-4.259 3.64c.013.069.028.137.043.206a2.334 2.334 0 0 0 1.417 1.59 28.814 28.814 0 0 0 6.514 1.74 2.386 2.386 0 0 0 2.365-3.636z" class="prefix__cls-3" data-name="Path 161" transform="translate(-33.36 -139.412)"/>
        <path id="prefix__Path_162" d="M47.212 327.857h-3.23a.545.545 0 0 0-.546.546v3.231a.546.546 0 0 0 .932.386l3.231-3.231a.546.546 0 0 0-.387-.932z" class="prefix__cls-4" data-name="Path 162" transform="translate(-38.187 -238.572)"/>
        <path id="prefix__Path_163" d="M70.956 333.491c-3.364-5.82-7.232-5.638-7.232-5.638H35.165s-3.866-.182-7.232 5.638h-5.814l.071.75a1.364 1.364 0 0 0 1.359 1.239h51.793a1.364 1.364 0 0 0 1.359-1.239l.071-.75z" data-name="Path 163" transform="translate(-19.446 -238.568)" style="fill:#444584"/>
        <path id="prefix__Path_164" d="M17.3 335.078a1.365 1.365 0 0 1-1.356-1.209c-.2-1.787-.705-4.914-.96-6.476v11.293A2.314 2.314 0 0 0 17.3 341h3.9a2.314 2.314 0 0 0 2.314-2.314v-3.608H17.3z" class="prefix__cls-5" data-name="Path 164" transform="translate(-13.172 -238.163)"/>
        <path id="prefix__Path_165" d="M5.249 150.337v-1.112a1.809 1.809 0 0 0-1.808-1.809h-1.56a1.863 1.863 0 0 0-1.838 1.41 1.808 1.808 0 0 0 1.012 2.042 6.557 6.557 0 0 0 2.728.594H5.6l.474-1.127h-.825z" class="prefix__cls-1" data-name="Path 165" transform="translate(0 -79.938)"/>
        <circle id="prefix__Ellipse_32" cx="2.274" cy="2.274" r="2.274" class="prefix__cls-6" data-name="Ellipse 32" transform="translate(5.598 76.448)"/>
        <circle id="prefix__Ellipse_33" cx="1.671" cy="1.671" r="1.671" class="prefix__cls-7" data-name="Ellipse 33" transform="translate(10.78 78.846)"/>
        <g id="prefix__Group_81" data-name="Group 81" transform="translate(17.223 90.877)">
            <path id="prefix__Path_166" d="M167.385 341.029H143.2a.684.684 0 1 0 0 1.369h24.182a.684.684 0 0 0 0-1.369z" class="prefix__cls-8" data-name="Path 166" transform="translate(-142.516 -341.029)"/>
            <path id="prefix__Path_167" d="M167.385 363.635H143.2a.684.684 0 1 0 0 1.369h24.182a.684.684 0 0 0 0-1.369z" class="prefix__cls-8" data-name="Path 167" transform="translate(-142.516 -360.903)"/>
        </g>
        <path id="prefix__Path_168" d="M99.338 89.29v.234a1.656 1.656 0 0 1-1.738 1.66 1.732 1.732 0 0 1-1.566-1.755v-3.364a1.388 1.388 0 0 0-1.453-1.376h-.056a1.39 1.39 0 0 0-1.453 1.376v3.043a1.657 1.657 0 0 1-1.755 1.641 1.714 1.714 0 0 1-1.566-1.736v-2.646a1.469 1.469 0 0 0-1.472-1.453h-.113a1.385 1.385 0 0 0-1.378 1.378v3.441a1.673 1.673 0 0 1-1.755 1.659 1.717 1.717 0 0 1-1.547-1.755v-4.613a1.316 1.316 0 0 0-1.4-1.3h-.113a1.388 1.388 0 0 0-1.389 1.376v4.716a1.65 1.65 0 0 1-3.3.056v-3.957a1.734 1.734 0 0 0-1.566-1.755 1.657 1.657 0 0 0-1.736 1.659l-.019 3.656a1.656 1.656 0 0 1-1.736 1.659 1.718 1.718 0 0 1-1.556-1.686v-4.29a1.718 1.718 0 0 0-1.56-1.74 1.66 1.66 0 0 0-1.742 1.656v4.494a1.669 1.669 0 0 1-1.746 1.616 1.717 1.717 0 0 1-1.547-1.755v-3.364a1.4 1.4 0 0 0-1.476-1.376h-.037a1.4 1.4 0 0 0-1.463 1.376v3.043a1.641 1.641 0 0 1-1.736 1.641 1.678 1.678 0 0 1-1.537-1.513c-.872 1.806-1.736 3.761-2.576 5.85a296.84 296.84 0 0 0 46.627 0q-1.261-3.142-2.54-5.796z" data-name="Path 168" transform="translate(-48.569 -23.674)" style="fill:#96d2e0"/>
    </g>
</svg>
