<svg xmlns="http://www.w3.org/2000/svg" width="22.02" height="20" viewBox="0 0 22.02 20">
    <path id="prefix__Path_2109" fill="#444584" d="M20.654 14.849l-.044-.071-.771-1.034a2 2 0 0 0 1.33-1.71c0-.884-.884-1.206-1.648-1.206-.794 0-.884.755-.895 1.287l-1.994-2.658a2.475 2.475 0 0 0-1.745-.994H7.131a2.475 2.475 0 0 0-1.745.994L3.4 12.119c-.011-.53-.1-1.287-.895-1.287-.76 0-1.65.316-1.65 1.206a2 2 0 0 0 1.33 1.71l-.767 1.031a.59.59 0 0 0-.044.071A7.2 7.2 0 0 0 0 18.96v3.916a4.4 4.4 0 0 0 .707 2.456v1.519c0 .884.53 1.612 1.2 1.612h1.44c.659 0 1.193-.723 1.193-1.612v-.389h12.939v.389c0 .884.53 1.612 1.2 1.612h1.444c.659 0 1.193-.725 1.193-1.612v-1.519a4.4 4.4 0 0 0 .707-2.456V18.96a7.192 7.192 0 0 0-1.369-4.111zm-14.536-4.21a1.727 1.727 0 0 1 1.013-.569h7.758a1.727 1.727 0 0 1 1.013.569l2.61 3.511h-15zM.9 18.369c0-.964.545-1.747 1.215-1.747s2.864 1.786 2.864 2.751-2.192.741-2.864.741S.9 19.335.9 18.369zm3.644 6.377H2.705a2.419 2.419 0 0 1-.84-.564 1.533 1.533 0 0 1-.228-.32 1.458 1.458 0 0 1-.127-.324 1.909 1.909 0 0 1 .177-1.285h2.348l1.565 2.49zm9.839 0H7.64c-.707 0-1.273-.792-1.273-1.768h9.284c0 .981-.569 1.77-1.273 1.77zm.3-2.97H7.345c-.764 0-1.384-1.307-1.384-2.919h10.1c0 1.614-.621 2.921-1.384 2.921zm5.835 1.768a1.468 1.468 0 0 1-.127.324 1.5 1.5 0 0 1-.228.32 2.4 2.4 0 0 1-.84.564h-2.901l1.563-2.489h2.348a1.9 1.9 0 0 1 .176 1.281zm-.6-3.43c-.67 0-2.862.223-2.862-.741s2.192-2.751 2.862-2.751 1.215.783 1.215 1.747-.541 1.745-1.213 1.745z" data-name="Path 2109" transform="translate(0 -8.463)"/>
</svg>
