<svg xmlns="http://www.w3.org/2000/svg" id="prefix__instagram" width="28.155" height="28.154" viewBox="0 0 28.155 28.154">
    <defs>
        <linearGradient id="prefix__linear-gradient" x1=".084" x2=".916" y1=".916" y2=".084" gradientUnits="objectBoundingBox">
            <stop offset="0" stop-color="#ffd600"/>
            <stop offset=".5" stop-color="#ff0100"/>
            <stop offset="1" stop-color="#d800b9"/>
        </linearGradient>
        <linearGradient id="prefix__linear-gradient-2" x1=".146" x2=".854" y1=".854" y2=".146" gradientUnits="objectBoundingBox">
            <stop offset="0" stop-color="#ff6400"/>
            <stop offset=".5" stop-color="#ff0100"/>
            <stop offset="1" stop-color="#fd0056"/>
        </linearGradient>
        <linearGradient id="prefix__linear-gradient-3" x1=".146" x2=".854" y1=".854" y2=".146" gradientUnits="objectBoundingBox">
            <stop offset="0" stop-color="#f30072"/>
            <stop offset="1" stop-color="#e50097"/>
        </linearGradient>
    </defs>
    <path id="prefix__Path_129" d="M28.07 8.273a10.335 10.335 0 0 0-.655-3.417 6.9 6.9 0 0 0-1.624-2.493A6.9 6.9 0 0 0 23.3.739a10.333 10.333 0 0 0-3.419-.654C18.38.016 17.9 0 14.077 0s-4.3.016-5.8.085a10.336 10.336 0 0 0-3.421.654 6.9 6.9 0 0 0-2.493 1.624A6.9 6.9 0 0 0 .739 4.856a10.334 10.334 0 0 0-.654 3.417C.016 9.774 0 10.254 0 14.077s.016 4.3.085 5.8A10.332 10.332 0 0 0 .739 23.3a6.9 6.9 0 0 0 1.624 2.493 6.9 6.9 0 0 0 2.493 1.624 10.329 10.329 0 0 0 3.417.655c1.5.069 1.981.085 5.8.085s4.3-.016 5.8-.085a10.331 10.331 0 0 0 3.417-.655 7.2 7.2 0 0 0 4.125-4.117 10.332 10.332 0 0 0 .655-3.417c.068-1.5.085-1.981.085-5.8s-.016-4.3-.085-5.8zm-2.534 11.493a7.789 7.789 0 0 1-.485 2.614 4.662 4.662 0 0 1-2.672 2.672 7.789 7.789 0 0 1-2.614.485c-1.484.068-1.929.082-5.688.082s-4.2-.014-5.689-.082a7.791 7.791 0 0 1-2.614-.485A4.363 4.363 0 0 1 4.156 24 4.361 4.361 0 0 1 3.1 22.38a7.789 7.789 0 0 1-.485-2.614c-.068-1.484-.082-1.93-.082-5.688s.014-4.2.082-5.689A7.794 7.794 0 0 1 3.1 5.775a4.364 4.364 0 0 1 1.056-1.619A4.358 4.358 0 0 1 5.775 3.1a7.787 7.787 0 0 1 2.614-.485c1.484-.068 1.93-.082 5.688-.082 3.759 0 4.2.014 5.689.082a7.79 7.79 0 0 1 2.614.485A4.365 4.365 0 0 1 24 4.156a4.359 4.359 0 0 1 1.053 1.619 7.782 7.782 0 0 1 .485 2.614c.068 1.484.082 1.93.082 5.688s-.014 4.2-.082 5.689zm0 0" data-name="Path 129"/>
    <path id="prefix__Path_130" d="M131.768 124.539a7.229 7.229 0 1 0 7.232 7.229 7.229 7.229 0 0 0-7.232-7.229zm0 11.921a4.692 4.692 0 1 1 4.693-4.693 4.692 4.692 0 0 1-4.693 4.693zm0 0" data-name="Path 130" transform="translate(-117.691 -117.691)"/>
    <path id="prefix__Path_131" d="M365.308 90.315a1.689 1.689 0 1 1-1.689-1.689 1.689 1.689 0 0 1 1.689 1.689zm0 0" data-name="Path 131" transform="translate(-342.027 -83.752)"/>
</svg>
