<svg xmlns="http://www.w3.org/2000/svg" width="26.247" height="21" viewBox="0 0 26.247 21">
    <path id="prefix__Icon_awesome-user-cog" fill="#333e49" d="M25.04 15.311a4.811 4.811 0 0 0 0-1.747l1.058-.611a.3.3 0 0 0 .135-.349 6.155 6.155 0 0 0-1.362-2.354.3.3 0 0 0-.369-.057l-1.058.611a4.815 4.815 0 0 0-1.513-.874V8.708a.3.3 0 0 0-.234-.291 6.188 6.188 0 0 0-2.715 0 .3.3 0 0 0-.234.291V9.93a4.815 4.815 0 0 0-1.513.874l-1.058-.611a.3.3 0 0 0-.369.057 6.155 6.155 0 0 0-1.362 2.35.3.3 0 0 0 .135.349l1.058.611a4.811 4.811 0 0 0 0 1.747l-1.058.611a.3.3 0 0 0-.135.349 6.186 6.186 0 0 0 1.362 2.354.3.3 0 0 0 .369.057l1.058-.611a4.815 4.815 0 0 0 1.513.874v1.222a.3.3 0 0 0 .234.291 6.188 6.188 0 0 0 2.715 0 .3.3 0 0 0 .234-.291v-1.218a4.815 4.815 0 0 0 1.513-.874l1.058.611a.3.3 0 0 0 .369-.057 6.155 6.155 0 0 0 1.362-2.354.3.3 0 0 0-.135-.349zm-4.7 1.116a1.989 1.989 0 1 1 1.989-1.989 1.991 1.991 0 0 1-1.985 1.989zM9.188 10.5a5.25 5.25 0 1 0-5.25-5.25 5.25 5.25 0 0 0 5.25 5.25zm8.252 9.29c-.094-.049-.189-.107-.279-.16l-.324.189a1.609 1.609 0 0 1-1.989-.3 7.479 7.479 0 0 1-1.648-2.854 1.6 1.6 0 0 1 .734-1.874l.324-.189q-.006-.16 0-.32l-.324-.189a1.6 1.6 0 0 1-.734-1.874c.037-.119.09-.238.131-.357-.156-.012-.308-.049-.468-.049h-.685a7.14 7.14 0 0 1-5.98 0h-.686A5.514 5.514 0 0 0 0 17.325v1.706A1.969 1.969 0 0 0 1.969 21h14.437a1.966 1.966 0 0 0 1.116-.349 1.6 1.6 0 0 1-.082-.484z" data-name="Icon awesome-user-cog"/>
</svg>
