<svg xmlns="http://www.w3.org/2000/svg" width="47.994" height="60" viewBox="0 0 47.994 60">
    <defs>
        <style>
            .prefix__cls-1{fill:#444584}.prefix__cls-2{fill:#607d8b}.prefix__cls-3{fill:#37474f}.prefix__cls-4{fill:#7f8e94}.prefix__cls-6{fill:#444584}.prefix__cls-7{fill:#ffd151}
        </style>
    </defs>
    <g id="prefix__Page-1" transform="translate(.013)">
        <g id="prefix___011---Scooter" data-name="011---Scooter" transform="translate(-1)">
            <path id="prefix__Shape" d="M19.35 13H14a1 1 0 0 0-1 1v4a1 1 0 0 0 1 1h22a1 1 0 0 0 1-1v-4a1 1 0 0 0-1-1z" class="prefix__cls-1"/>
            <path id="prefix__Shape-2" d="M6 14h7v4H6a2 2 0 0 1 0-4z" class="prefix__cls-2" data-name="Shape"/>
            <path id="prefix__Shape-3" d="M37 14h7a2 2 0 0 1 0 4h-7z" class="prefix__cls-2" data-name="Shape"/>
            <path id="prefix__Shape-4" d="M44 14h-3a2 2 0 0 1 0 4h3a2 2 0 0 0 0-4z" class="prefix__cls-3" data-name="Shape"/>
            <circle id="prefix__Oval" cx="3" cy="3" r="3" class="prefix__cls-4" transform="translate(2 1)"/>
            <circle id="prefix__Oval-2" cx="3" cy="3" r="3" class="prefix__cls-4" data-name="Oval" transform="translate(42 1)"/>
            <path id="prefix__Shape-5" d="M45 1a2.968 2.968 0 0 0-1.5.416 2.976 2.976 0 0 1 0 5.168A2.968 2.968 0 0 0 45 7a3 3 0 0 0 0-6z" data-name="Shape" style="fill:#545c60"/>
            <path id="prefix__Shape-6" d="M29.46 19H33s7 5 7 16-2 13-2 13-3.1 2.33-10 2.88h-6C15.1 50.33 12 48 12 48s-2-2-2-13 7-16 7-16z" class="prefix__cls-1" data-name="Shape"/>
            <path id="prefix__Shape-7" d="M33 19h-3s7 5 7 16-2 13-2 13-3.1 2.33-10 2.88h3C34.9 50.33 38 48 38 48s2-2 2-13-7-16-7-16z" class="prefix__cls-6" data-name="Shape"/>
            <path id="prefix__Shape-8" d="M28 46.82V56a3 3 0 0 1-6 0v-9.18z" class="prefix__cls-2" data-name="Shape"/>
            <path id="prefix__Shape-9" d="M25 46.82V56a2.982 2.982 0 0 1-1.5 2.585A2.982 2.982 0 0 0 28 56v-9.18z" class="prefix__cls-3" data-name="Shape"/>
            <path id="prefix__Shape-10" d="M25 47a16.529 16.529 0 0 0 7-1.2v-8.4a10.066 10.066 0 0 0-7-2.4 10.066 10.066 0 0 0-7 2.4v8.4a16.529 16.529 0 0 0 7 1.2z" class="prefix__cls-1" data-name="Shape"/>
            <path id="prefix__Shape-11" d="M25 35a12.826 12.826 0 0 0-1.5.094A9.617 9.617 0 0 1 29 37.4v8.4a15.068 15.068 0 0 1-5.5 1.153c.472.028.967.047 1.5.047a16.529 16.529 0 0 0 7-1.2v-8.4a10.066 10.066 0 0 0-7-2.4z" class="prefix__cls-6" data-name="Shape"/>
            <path id="prefix__Oval-3" d="M6 0a6 6 0 1 1-6 6 6 6 0 0 1 6-6z" class="prefix__cls-7" data-name="Oval" transform="translate(19 9)"/>
            <path id="prefix__Shape-12" d="M25 9a5.983 5.983 0 0 0-1.5.2 5.992 5.992 0 0 1 0 11.606A6 6 0 1 0 25 9z" class="prefix__cls-7" data-name="Shape"/>
            <g id="prefix__Group_85" data-name="Group 85">
                <path id="prefix__Shape-13" d="M5 0a4 4 0 1 0 2.889 6.753l4.49 2.494a2.023 2.023 0 0 1 .97 1.253l.379 1.527a1.991 1.991 0 0 0-1.45.973H6a3 3 0 1 0 0 6h6.278A1.993 1.993 0 0 0 14 20h.466A21.8 21.8 0 0 0 9 35c0 10.864 1.91 13.324 2.293 13.707a1.028 1.028 0 0 0 .106.092c.13.1 3.137 2.3 9.6 2.987V56a4 4 0 1 0 8 0v-4.214c6.464-.69 9.471-2.889 9.6-2.987a1.028 1.028 0 0 0 .106-.092C39.09 48.324 41 45.864 41 35a21.8 21.8 0 0 0-5.466-15H36a1.993 1.993 0 0 0 1.722-1H44a3 3 0 0 0 0-6h-6.278a1.991 1.991 0 0 0-1.45-.973l.375-1.513a2.039 2.039 0 0 1 .978-1.27l4.486-2.491A3.99 3.99 0 1 0 41 4a3.95 3.95 0 0 0 .143 1L36.66 7.493a4.047 4.047 0 0 0-1.951 2.526L34.218 12h-2.9a6.985 6.985 0 0 0-12.63 0h-2.9l-.5-1.994A4.032 4.032 0 0 0 13.345 7.5L8.857 5A3.95 3.95 0 0 0 9 4a4 4 0 0 0-4-4zm40 2a2 2 0 1 1-2 2 2 2 0 0 1 2-2zM5 16a1 1 0 0 1 1-1h6v2H6a1 1 0 0 1-1-1zm20 20a9.573 9.573 0 0 1 6 1.851v7.276A18.229 18.229 0 0 1 25 46a18.231 18.231 0 0 1-6-.873v-7.275A9.567 9.567 0 0 1 25 36zm0 22a2 2 0 0 1-2-2v-8.083c.62.048 1.275.083 2 .083s1.38-.035 2-.083V56a2 2 0 0 1-2 2zm14-23c0 9.334-1.476 11.932-1.683 12.256-.5.329-3.164 1.936-8.317 2.522v-2.1a13.28 13.28 0 0 0 3.458-.985A1 1 0 0 0 33 45.8v-8.4a1 1 0 0 0-.283-.7A10.734 10.734 0 0 0 26 34.037V26a1 1 0 1 0-2 0v8.037a10.734 10.734 0 0 0-6.717 2.663 1 1 0 0 0-.283.7v8.4a1 1 0 0 0 .542.889 13.28 13.28 0 0 0 3.458.984v2.1c-5.113-.581-7.777-2.168-8.3-2.511C12.427 46.844 11 44.179 11 35c0-9.3 5.14-14.024 6.341-15h2.769a6.978 6.978 0 0 0 9.78 0h2.769C33.864 20.979 39 25.7 39 35zm6-19a1 1 0 0 1-1 1h-6v-2h6a1 1 0 0 1 1 1zm-9-2v4h-4.685A6.938 6.938 0 0 0 32 15a7.026 7.026 0 0 0-.08-1zm-11-4a5 5 0 1 1-5 5 5 5 0 0 1 5-5zm-6.315 8H14v-4h4.08a7.026 7.026 0 0 0-.08 1 6.938 6.938 0 0 0 .685 3zM5 6a2 2 0 1 1 1.414-.586A2 2 0 0 1 5 6z" data-name="Shape" style="fill:#58565c"/>
                <circle id="prefix__Oval-4" cx="1" cy="1" r="1" data-name="Oval" transform="translate(24 14)"/>
            </g>
        </g>
    </g>
</svg>
