<svg xmlns="http://www.w3.org/2000/svg" id="user" width="30.929" height="30.929" viewBox="0 0 30.929 30.929">
    <defs>
        <style>
            .cls-1{fill:#ffa100}
        </style>
    </defs>
    <g id="Group_1291" data-name="Group 1291">
        <path id="Path_2006" d="M15.464 0a15.464 15.464 0 1 0 15.465 15.464A15.482 15.482 0 0 0 15.464 0zM7.732 27.647v-1.005A2.468 2.468 0 0 1 9 24.478l3.536-1.741a1.536 1.536 0 0 0 .863-1.387v-.415a1.031 1.031 0 0 0-.584-.925 5.546 5.546 0 0 1-2.9-3.614.515.515 0 0 0-.345-.359 1.2 1.2 0 0 1-.808-1.242v-.911a1.249 1.249 0 0 1 .584-1.149.514.514 0 0 0 .27-.4 8.79 8.79 0 0 1 .651-2.586 5.31 5.31 0 0 0 .417-2.978c.132.107.274.21.422.309a6.026 6.026 0 0 0 3.867.914q.22-.018.449-.018c3.608 0 5.451 1.386 5.8 4.361a.516.516 0 0 0 .271.4 1.27 1.27 0 0 1 .673 1.151v.911a1.283 1.283 0 0 1-.892 1.242.514.514 0 0 0-.345.359 5.436 5.436 0 0 1-2.82 3.614 1.03 1.03 0 0 0-.583.924v.458a1.54 1.54 0 0 0 .841 1.376l3.377 1.728a2.543 2.543 0 0 1 1.456 2.215v.932a14.4 14.4 0 0 1-15.464 0zm16.5-.722v-.21a3.577 3.577 0 0 0-2.018-3.135l-3.372-1.73a.513.513 0 0 1-.28-.459l.01-.458a6.386 6.386 0 0 0 3.284-4.016 2.315 2.315 0 0 0 1.344-2.122v-.911a2.328 2.328 0 0 0-.984-1.918c-.489-3.332-2.772-5.021-6.79-5.021-.18 0-.357.007-.529.021a5.064 5.064 0 0 1-3.211-.741 4.5 4.5 0 0 1-.934-.819.709.709 0 0 0-.82-.191.685.685 0 0 0-.414.711c.033.282.077.6.142.954a4.255 4.255 0 0 1-.336 2.459 9.686 9.686 0 0 0-.7 2.638 2.277 2.277 0 0 0-.889 1.908v.911a2.273 2.273 0 0 0 1.261 2.121 6.526 6.526 0 0 0 3.378 4.018v.415a.512.512 0 0 1-.288.462l-3.557 1.75A3.5 3.5 0 0 0 6.7 26.641v.283a14.433 14.433 0 1 1 17.526 0z" class="cls-1" data-name="Path 2006"/>
    </g>
</svg>
