<svg xmlns="http://www.w3.org/2000/svg" id="remove" width="31.379" height="31.379" viewBox="0 0 31.379 31.379">
    <defs>
        <style>
            .cls-1{fill:#f44336}.cls-2{fill:#fafafa}
        </style>
    </defs>
    <path id="Path_2674" d="M15.689 0a15.689 15.689 0 1 0 15.69 15.689A15.707 15.707 0 0 0 15.689 0zm0 0" class="cls-1" data-name="Path 2674"/>
    <path id="Path_2675" d="M167.41 165.561a1.307 1.307 0 1 1-1.849 1.849l-3.929-3.929-3.932 3.929a1.307 1.307 0 1 1-1.849-1.849l3.929-3.929-3.929-3.929a1.307 1.307 0 1 1 1.849-1.849l3.929 3.929 3.929-3.929a1.307 1.307 0 0 1 1.849 1.849l-3.929 3.929zm0 0" class="cls-2" data-name="Path 2675" transform="translate(-145.943 -145.943)"/>
</svg>
