<svg id="Layer_2" viewBox="0 0 128 128" width="18" xmlns="http://www.w3.org/2000/svg" fill="#fff" data-name="Layer 2">
    <path d="m64 0a64 64 0 1 0 64 64 64.073 64.073 0 0 0 -64-64zm0 124.5a60.5 60.5 0 1 1 60.5-60.5 60.568 60.568 0 0 1 -60.5 60.5z"/>
    <path d="m64 15a49 49 0 1 0 49 49 49.056 49.056 0 0 0 -49-49zm0 94.5a45.5 45.5 0 1 1 45.5-45.5 45.551 45.551 0 0 1 -45.5 45.5z"/>
    <path d="m64 22a42 42 0 1 0 42 42 42.048 42.048 0 0 0 -42-42zm38.456 40.25h-3.7a6.51 6.51 0 0 0 -5.188-4.65 30.139 30.139 0 0 0 -27.818-23.795v-8.261a38.546 38.546 0 0 1 36.706 36.706zm-60.517 17a3 3 0 1 1 -3 3 3 3 0 0 1 2.999-3zm0-3.5a6.472 6.472 0 0 0 -1.827.266 26.691 26.691 0 0 1 -2.8-10.266h11.546a15.269 15.269 0 0 0 13.392 13.392v11.53a26.691 26.691 0 0 1 -14.521-5.484 6.488 6.488 0 0 0 -5.791-9.437zm44.308-13.5h-7.1a15.269 15.269 0 0 0 -13.397-13.392v-11.53a26.621 26.621 0 0 1 24.294 20.657 6.523 6.523 0 0 0 -3.798 4.265zm-24 0h-9.847a11.757 11.757 0 0 1 9.85-9.85zm0 3.5v9.85a11.757 11.757 0 0 1 -9.847-9.85zm3.5 0h9.853a11.757 11.757 0 0 1 -9.85 9.85zm0-3.5v-9.85a11.757 11.757 0 0 1 9.853 9.85zm-3.5-13.392a15.269 15.269 0 0 0 -13.389 13.392h-11.545a26.782 26.782 0 0 1 24.937-24.937zm3.5 30.283a15.269 15.269 0 0 0 13.395-13.391h7.1a6.523 6.523 0 0 0 3.8 4.265 26.617 26.617 0 0 1 -24.292 20.657zm26.753-12.141a3 3 0 1 1 3-3 3 3 0 0 1 -3 3zm-30.25-41.456v8.256a30.289 30.289 0 0 0 -28.45 28.45h-8.26a38.546 38.546 0 0 1 36.71-36.706zm-36.706 40.206h8.263a30.187 30.187 0 0 0 3.333 12.13 6.488 6.488 0 0 0 8.189 9.9 30.224 30.224 0 0 0 16.92 6.409v8.263a38.546 38.546 0 0 1 -36.705-36.702zm40.206 36.706v-8.261a30.136 30.136 0 0 0 27.818-23.795 6.51 6.51 0 0 0 5.186-4.654h3.7a38.546 38.546 0 0 1 -36.704 36.71z"/>
</svg>
