<svg xmlns="http://www.w3.org/2000/svg" id="prefix__profile" width="102.859" height="121.549" viewBox="0 0 102.859 121.549">
    <defs>
        <style>
            .prefix__cls-5{fill:#ffcbbe}.prefix__cls-6{fill:#eaac9d}.prefix__cls-8{fill:#5e54ac}
        </style>
    </defs>
    <g id="prefix__Group_577" data-name="Group 577" transform="translate(0 76.205)">
        <g id="prefix__Group_575" data-name="Group 575">
            <path id="prefix__Path_3286" d="M163.667 361.434a35.577 35.577 0 0 0-32.69-21.531H93.5a35.577 35.577 0 0 0-32.69 21.531 67.442 67.442 0 0 0 102.859 0z" data-name="Path 3286" transform="translate(-60.808 -339.903)" style="fill:#524798"/>
        </g>
        <g id="prefix__Group_576" data-name="Group 576" transform="translate(0 6.276)">
            <path id="prefix__Path_3287" d="M163.667 378.976a35.7 35.7 0 0 0-12.519-15.255 67.462 67.462 0 0 1-89.842 14.151c-.172.365-.339.732-.5 1.1a67.442 67.442 0 0 0 102.859 0z" data-name="Path 3287" transform="translate(-60.808 -363.721)" style="fill:#453d81"/>
        </g>
    </g>
    <g id="prefix__Group_578" data-name="Group 578" transform="translate(26.965)">
        <path id="prefix__Path_3288" d="M211.127 59.4l-5.96-5.667a11.081 11.081 0 0 0-11.2-2.461l-21.413 7.278a13.869 13.869 0 0 0-9.405 13.131V81.6l1.054 3.081h48.34L213.6 81.6V65.155a7.942 7.942 0 0 0-2.473-5.755z" data-name="Path 3288" transform="translate(-163.149 -50.682)" style="fill:#333e49"/>
    </g>
    <g id="prefix__Group_579" data-name="Group 579" transform="translate(49.651)">
        <path id="prefix__Path_3289" d="M274.542 59.4l-5.96-5.667a11.081 11.081 0 0 0-11.2-2.461l-8.131 2.764a11.078 11.078 0 0 1 6.705 3.011l5.96 5.667a7.941 7.941 0 0 1 2.469 5.755v16.217h11.573l1.054-3.081v-16.45a7.941 7.941 0 0 0-2.47-5.755z" data-name="Path 3289" transform="translate(-249.249 -50.682)" style="fill:#1d2023"/>
    </g>
    <g id="prefix__Group_580" data-name="Group 580" transform="translate(73.836 34.537)">
        <path id="prefix__Path_3290" d="M343.009 187.2c-2.585 5.489-2.807 12.786.438 14.314s8.729-3.291 11.314-8.78.915-8.767-2.331-10.295-6.836-.723-9.421 4.761z" class="prefix__cls-5" data-name="Path 3290" transform="translate(-341.041 -181.76)"/>
    </g>
    <g id="prefix__Group_581" data-name="Group 581" transform="translate(34.493 60.785)">
        <path id="prefix__Path_3291" d="M212.5 312.085h-6.171a14.61 14.61 0 0 1-14.61-14.61V281.38h35.392v16.095a14.61 14.61 0 0 1-14.611 14.61z" class="prefix__cls-6" data-name="Path 3291" transform="translate(-191.719 -281.38)"/>
    </g>
    <path id="prefix__Path_3292" d="M250.635 281.38v16.095a14.613 14.613 0 0 1-12.286 14.425 14.734 14.734 0 0 0 2.324.186h6.171a14.61 14.61 0 0 0 14.61-14.61V281.38z" data-name="Path 3292" transform="translate(-191.57 -220.595)" style="fill:#df9380"/>
    <g id="prefix__Group_582" data-name="Group 582" transform="translate(26.965 26.341)">
        <path id="prefix__Path_3293" d="M209.014 150.653h-41.286a4.581 4.581 0 0 0-4.581 4.581v16.31a26.656 26.656 0 0 0 11.786 22.123l7.33 4.927a10.952 10.952 0 0 0 2.356 1.2 35.973 35.973 0 0 0 5.145-.083 26.3 26.3 0 0 0 5.482-1.634l6.561-4.41a26.656 26.656 0 0 0 11.786-22.123v-16.31a4.581 4.581 0 0 0-4.581-4.581z" class="prefix__cls-5" data-name="Path 3293" transform="translate(-163.147 -150.653)"/>
    </g>
    <g id="prefix__Group_583" data-name="Group 583" transform="translate(48.438 26.34)">
        <path id="prefix__Path_3294" d="M266.121 150.652v20.891a26.656 26.656 0 0 1-11.786 22.123L247 198.593a10.962 10.962 0 0 1-2.36 1.2 10.95 10.95 0 0 0 9.858-1.2l7.33-4.927a26.656 26.656 0 0 0 11.786-22.123v-16.31a4.581 4.581 0 0 0-4.582-4.581h-2.917z" class="prefix__cls-6" data-name="Path 3294" transform="translate(-244.645 -150.652)"/>
    </g>
    <g id="prefix__Group_584" data-name="Group 584" transform="translate(73.836 34.537)">
        <path id="prefix__Path_3295" d="M343.009 187.2c-2.585 5.489-2.807 12.786.438 14.314s8.729-3.291 11.314-8.78.915-8.767-2.331-10.295-6.836-.723-9.421 4.761z" class="prefix__cls-6" data-name="Path 3295" transform="translate(-341.041 -181.76)"/>
    </g>
    <g id="prefix__Group_585" data-name="Group 585" transform="translate(15.555 34.537)">
        <path id="prefix__Path_3296" d="M132.863 187.2c2.585 5.489 2.807 12.786-.438 14.314s-8.729-3.291-11.314-8.78-.915-8.766 2.33-10.295 6.837-.723 9.422 4.761z" class="prefix__cls-5" data-name="Path 3296" transform="translate(-119.845 -181.76)"/>
    </g>
    <g id="prefix__Group_586" data-name="Group 586" transform="translate(37.093 39.084)">
        <circle id="prefix__Ellipse_659" cx="3.05" cy="3.05" r="3.05" class="prefix__cls-8" data-name="Ellipse 659"/>
    </g>
    <g id="prefix__Group_587" data-name="Group 587" transform="translate(60.882 39.084)">
        <circle id="prefix__Ellipse_660" cx="3.05" cy="3.05" r="3.05" class="prefix__cls-8" data-name="Ellipse 660"/>
    </g>
    <g id="prefix__Group_588" data-name="Group 588" transform="translate(42.972 54.456)">
        <path id="prefix__Path_3297" d="M232.986 265.073a10.612 10.612 0 0 1-8.734-4.591 1.992 1.992 0 1 1 3.279-2.261 6.62 6.62 0 0 0 10.909 0 1.992 1.992 0 1 1 3.28 2.261 10.612 10.612 0 0 1-8.734 4.591z" data-name="Path 3297" transform="translate(-223.9 -257.359)" style="fill:#e28086"/>
    </g>
</svg>
