<svg xmlns="http://www.w3.org/2000/svg" width="293.725" height="229.828" viewBox="0 0 293.725 229.828">
    <defs>
        <linearGradient id="prefix__linear-gradient" x2="1" y1=".5" y2=".5" gradientUnits="objectBoundingBox">
            <stop offset="0" stop-color="gray" stop-opacity=".251"/>
            <stop offset=".54" stop-color="gray" stop-opacity=".122"/>
            <stop offset="1" stop-color="gray" stop-opacity=".102"/>
        </linearGradient>
        <style>
            .prefix__cls-1,.prefix__cls-10{fill:#6c63ff}.prefix__cls-1,.prefix__cls-12,.prefix__cls-4,.prefix__cls-7{opacity:.1}.prefix__cls-3{fill:#efb7b9}.prefix__cls-5{fill:#dce6f2}.prefix__cls-6{fill:#965d7b}.prefix__cls-8{fill:#444053}.prefix__cls-9{fill:#a36468}.prefix__cls-11{opacity:.05}.prefix__cls-12{fill:#fff}
        </style>
    </defs>
    <g id="prefix__Group_828" data-name="Group 828" transform="translate(.004 -.003)">
        <ellipse id="prefix__Ellipse_1118" cx="51.236" cy="9.706" class="prefix__cls-1" data-name="Ellipse 1118" rx="51.236" ry="9.706" transform="translate(51.795 205.968)"/>
        <path id="prefix__Path_4799" d="M265.883 87.444c-18.83-.652-36.764-6.733-53.889-13.384s-34.087-14.018-52.467-17.541c-11.821-2.266-25.342-2.589-34.864 3.742-9.168 6.11-12.13 16.628-13.721 26.395-1.2 7.349-1.9 15.086 1.379 21.967 2.281 4.777 6.325 8.792 9.124 13.369 9.738 15.921 2.854 35.554-7.7 51.1-4.946 7.291-10.692 14.256-14.512 22.01s-5.586 16.668-2.243 24.6c3.311 7.856 11.2 13.744 19.755 17.89 17.367 8.423 37.823 10.832 57.785 12.2 44.175 3.02 88.582 1.714 132.873.4 16.392-.483 32.854-.975 48.978-3.509 8.955-1.408 18.2-3.643 24.7-9.037 8.251-6.846 10.3-18.437 4.766-27.02-9.275-14.4-34.914-17.978-41.4-33.43-3.567-8.507.1-17.981 5.284-25.868 11.126-16.924 29.773-31.772 30.753-51.114.675-13.285-8.289-26.59-22.15-32.877-14.527-6.59-34.675-5.761-45.388 5.147-11.041 11.216-30.435 15.539-47.063 14.96z" class="prefix__cls-1" data-name="Path 4799" transform="translate(-95.23 -55.03)"/>
        <path id="prefix__Path_4800" fill="url(#prefix__linear-gradient)" d="M408.941 228.428l-8.912-6.008 4.5-6.692-23.538-1.877-8.458 6.54-10.588-5.935-8.83 1.062-.1-2.328a65.689 65.689 0 0 0-.73-7.245c.038-.727.064-1.562.061-2.47 0-3.826-.518-8.9-2.793-12.278l.524-4.708-4.248-5.019a32.1 32.1 0 0 1 2.328-3.916c.145-.209.291-.413.448-.611a10.564 10.564 0 0 0 9.863-10.474 6.7 6.7 0 0 0-.029-.765 2.773 2.773 0 0 0-.032-.308c.538.291 1.082.582 1.626.873.1.145.218.291.346.463l.026.032.163.2.052.061c.058.07.119.137.18.207l.041.047c.154.172.317.346.492.518a.521.521 0 0 1 .058.055l.218.2.061.055c.186.166.384.326.582.477l.064.047.25.172.081.052c.1.058.195.119.291.175l.035.02c.113.061.23.119.346.175l.058.023q.148.064.291.122l.09.032c.1.035.2.067.306.1l.064.017c.128.032.256.058.387.079h.015a3.166 3.166 0 0 0 .372.038h.084a3.187 3.187 0 0 0 .335 0h.073a3.446 3.446 0 0 0 .416-.049 4.591 4.591 0 0 0 1.833-.658 1.6 1.6 0 0 0 .372-.346 1.372 1.372 0 0 0-.058-1.6c-.227-.541-1.7-.922-1.7-.922s-4.655-1.944-4.655-3.491-1.164-9.578-13.177-11.414c0 0-7.815-.439-10.012 3.745l-.047.489c-.646.4-1.181 1.216-1.818 1.455a2.97 2.97 0 0 0-.788.291v-.055a.75.75 0 0 0-.177.23 2.327 2.327 0 0 0-.241.873 3.288 3.288 0 0 1-.381 1.056 2.351 2.351 0 0 1-.175.268l-.049.079a2.124 2.124 0 0 0 .989-.16 4.926 4.926 0 0 1-.291 1.164.966.966 0 0 0 .9-.535v-.023l.038-.052a2.456 2.456 0 0 0 .18-.422l-.032.035c.058-.189.111-.381.175-.567a.89.89 0 0 1 .143-.291.7.7 0 0 1 .6-.2l-.119 2.523h.052a3.447 3.447 0 0 1-.256.53c-.413.669-1.164 1.126-1.44 1.859a2.735 2.735 0 0 0-.134 1.1c0 .218.026.439.044.658v-.017a2.454 2.454 0 0 1-.262 1.6c-.215.32-.562.562-.681.925a.9.9 0 0 0-.044.314 3.531 3.531 0 0 0 .2.934.041.041 0 0 0 0-.017 1.42 1.42 0 0 1 .049.687c-.131.582-.838 1.068-.8 1.623a.624.624 0 0 0 .032.215 1.178 1.178 0 0 0 .658.582 2.56 2.56 0 0 0 1.478.326 1.944 1.944 0 0 0 .553-.189c-.2.468-.413.931-.626 1.37-.032.07-.067.14-.1.209 0 0-1.8-1.2-2.819 1.248a5.435 5.435 0 0 0-.631 1.641 3.907 3.907 0 0 1-.215.675 4.344 4.344 0 0 1-1.944 1.746c-2.083.954-10.5 11.449-10.646 14.166a15.856 15.856 0 0 1-.535 3.136 18.664 18.664 0 0 0-.5 7.416 14.19 14.19 0 0 0 .515 2.365 53 53 0 0 1 1.49 7.78l.966 8.792a25.016 25.016 0 0 0 .157 3.634c-.986 1.126-4.946 5.819-3.433 7.1 1.164 1.007 3.2.841 4.344.634-.963 2.383-2.479 6.526-2.68 9.371-.291 4.21.5 9.788 1.746 11.929s5.409 7.634 5.409 7.634-.195 7.536 1.292 10.273 2.086 8.417 2.086 8.417 1.388 4.795.692 6.558 1.289 3.23-.794 4.4-4.748 27.6-4.748 27.6-1.074 17.32 0 18.2a1.093 1.093 0 0 0 .183.108v5.819s-.745 1.222 2.284 1.469c2.074.166 7.955.541 11.443.759l2.7.169s6.4 1.274 9.229 0 7.841-1.245 7.1-4.612a9.581 9.581 0 0 0-.4-1.347c-.818-2.089-2.205-2.328-4.763-2.909-.148-.032-.291-.061-.422-.084-2.694-.468-3.579.786-5.089-.847-1.312-1.411-5.49-2.991-6.913-3.491.035-.1.079-.207.113-.314a2.129 2.129 0 0 1-1.079-.527l3.855.244 2.3.143s5.441 1.085 7.856 0 6.663-1.056 6.028-3.916a8.209 8.209 0 0 0-.335-1.146c-.7-1.775-1.877-1.97-4.05-2.461-.125-.026-.241-.052-.358-.073-2.29-.4-3.04.666-4.323-.719-1.1-1.181-4.571-2.505-5.819-2.956 0-.646-.873-1.565-1.423-2.488-.646-1.077.547-4.844.547-4.844l.681-15.633a3.019 3.019 0 0 1 .815-.233s3.078-2.939 2.383-6.069a20.117 20.117 0 0 1-.221-2.86 14.694 14.694 0 0 0 2.8-3.183c.646-1.394 0-8.147 0-8.147v-25.82l5.15.521 4.673.48 1.423.145 4.673.471 10.739 1.085 9.677-1.833 4.187-.791 8.609-1.629V229.9zm-70.878-69.8l-.6-.064c.199.007.408.045.6.062z" data-name="Path 4800" transform="translate(-253.252 -123.178)"/>
        <path id="prefix__Path_4801" d="M503.566 438.091c-2.909 4.163-13.369 1.958-13.369 1.958l-8.106-7.585-1.091-1.027 1.83-3.887s.582.16 1.58.445c5.24 1.522 21.612 6.596 19.156 10.096z" class="prefix__cls-3" data-name="Path 4801" transform="translate(-368.764 -319.164)"/>
        <path id="prefix__Path_4802" d="M484.4 428a17.068 17.068 0 0 1-2.313 4.469L481 431.437l1.83-3.887s.588.16 1.57.45z" class="prefix__cls-4" data-name="Path 4802" transform="translate(-368.764 -319.164)"/>
        <path id="prefix__Path_4803" d="M379.8 278.122s-7.472 3.314-7.1 11.452a134.169 134.169 0 0 0 1.711 15.641s-1.527 12.246 4.833 15.4 12.246 5.752 12.246 5.752 9.95 1.071 11.187 1.513 5.1-6.319 4.387-7.373-9.846-3.262-11.009-5.019a9.715 9.715 0 0 0-3.855-2.843s-2.779-1.682-2.968-3.2a6.908 6.908 0 0 1 .73-3.317c.186-.666.658-7.1.658-7.1s3.134-22.893-10.82-20.906z" class="prefix__cls-5" data-name="Path 4803" transform="translate(-291.963 -213.125)"/>
        <path id="prefix__Path_4804" d="M391.373 370.39s-10.25 1.717-9.258 5.3a21.731 21.731 0 0 1 9.258-5.3z" class="prefix__cls-4" data-name="Path 4804" transform="translate(-298.601 -278.634)"/>
        <path id="prefix__Path_4805" d="M402.974 375.38s-5.636 4.6-4.533 4.836 4.533-4.836 4.533-4.836z" class="prefix__cls-4" data-name="Path 4805" transform="translate(-310.124 -282.172)"/>
        <path id="prefix__Path_4806" d="M421.527 380.89s-1.51 3.093-.582 2.883.582-2.883.582-2.883z" class="prefix__cls-4" data-name="Path 4806" transform="translate(-325.968 -286.079)"/>
        <path id="prefix__Path_4807" d="M408.9 323.079l-.623-.177a1.779 1.779 0 0 0 .081-1.271c-.713-1.053-9.84-3.259-11-5.019a9.664 9.664 0 0 0-3.855-2.843s-2.779-1.682-2.968-3.2a6.908 6.908 0 0 1 .73-3.317c.186-.666.658-7.1.658-7.1s3.128-22.895-10.823-20.908c0 0-7.472 3.317-7.108 11.455a133.793 133.793 0 0 0 1.714 15.641s-1.528 12.246 4.833 15.4 12.246 5.752 12.246 5.752 9.948 1.068 11.187 1.513c.468.169 1.315-.7 2.144-1.9l.471.439 8.106 7.582s10.46 2.208 13.369-1.955c2.455-3.499-13.914-8.571-19.162-10.092z" class="prefix__cls-4" data-name="Path 4807" transform="translate(-292.878 -213.919)"/>
        <path id="prefix__Path_4808" d="M378.1 169.362a2.473 2.473 0 0 0-.806.311c-.291.241-.291.655-.364 1.015a3.34 3.34 0 0 1-.582 1.391 2.092 2.092 0 0 0 .969-.16 4.988 4.988 0 0 1-.291 1.164.943.943 0 0 0 .873-.532 5.6 5.6 0 0 0 .364-1.021.841.841 0 0 1 .14-.291c.268-.317.765-.175 1.178-.134a1.935 1.935 0 0 0 1.769-.85c.439-.666.466-2.371-.582-2.552-1.092-.18-1.773 1.327-2.668 1.659z" class="prefix__cls-6" data-name="Path 4808" transform="translate(-294.562 -134.908)"/>
        <g id="prefix__Group_826" class="prefix__cls-7" data-name="Group 826" transform="translate(81.832 34.689)">
            <path id="prefix__Path_4809" d="M378.38 174.684c.026-.143.044-.291.076-.434a1.707 1.707 0 0 0-.364 1.015 3.2 3.2 0 0 1-.172.614 3.335 3.335 0 0 0 .46-1.2z" data-name="Path 4809" transform="translate(-377.507 -174.25)"/>
            <path id="prefix__Path_4810" d="M377.466 181.164a4.838 4.838 0 0 0 .291-1.164 2.083 2.083 0 0 1-.922.16 3.365 3.365 0 0 1-.335.582 2.072 2.072 0 0 0 .966-.157 4.838 4.838 0 0 1-.291 1.164.946.946 0 0 0 .873-.532 2.171 2.171 0 0 0 .175-.416.873.873 0 0 1-.756.364z" data-name="Path 4810" transform="translate(-376.5 -178.327)"/>
            <path id="prefix__Path_4811" d="M385.211 175.463c-.413-.041-.914-.183-1.181.134a.9.9 0 0 0-.14.291c-.026.076-.049.154-.07.233.276-.218.724-.1 1.1-.064a1.944 1.944 0 0 0 1.769-.85 1.612 1.612 0 0 0 .195-.457 1.938 1.938 0 0 1-1.673.713z" data-name="Path 4811" transform="translate(-381.69 -174.605)"/>
        </g>
        <path id="prefix__Path_4812" d="M313.574 201l4.437 5.336-.579 5.385-5.362-8.394z" class="prefix__cls-5" data-name="Path 4812" transform="translate(-221.277 -142.517)"/>
        <path id="prefix__Path_4813" d="M318.008 206.336l-.544 5.065-.035.32-4.838-7.576-.521-.818.151-.236 1.35-2.092.3.361z" class="prefix__cls-4" data-name="Path 4813" transform="translate(-221.277 -142.517)"/>
        <path id="prefix__Path_4814" d="M390.839 212.091c-1.5.431-2.936 1.909-4.184 3.7a31.613 31.613 0 0 0-2.258 3.881c-.41.82-.771 1.609-1.071 2.3l-.21.489c-.506 1.2-.788 2-.788 2s-11.492-8.641-9.674-9.223c.611-.195 1.414-1.5 2.208-3.154l.1-.209c.5-1.059 1-2.24 1.437-3.352.9-2.284 1.565-4.268 1.565-4.268s17.457 6.527 12.875 7.836z" class="prefix__cls-3" data-name="Path 4814" transform="translate(-291.803 -160.832)"/>
        <path id="prefix__Path_4815" d="M459.26 202.58s2.653 4.8 6.218 4.146 2.1-2.578 2.1-2.578z" class="prefix__cls-8" data-name="Path 4815" transform="translate(-353.349 -159.648)"/>
        <path id="prefix__Path_4816" d="M389.5 746.12c-2.351 1.074-7.666 0-7.666 0l-2.24-.14c-2.909-.186-7.78-.5-9.5-.64-2.514-.207-1.9-1.237-1.9-1.237v-6.223l12.2-3.09s4.821 1.65 6.142 3.09c1.254 1.373 1.987.317 4.225.713.111.02.227.044.349.073 2.124.486 3.276.678 3.957 2.438a8.172 8.172 0 0 1 .329 1.135c.627 2.833-3.545 2.813-5.896 3.881z" class="prefix__cls-9" data-name="Path 4816" transform="translate(-288.733 -537.013)"/>
        <path id="prefix__Path_4817" d="M395.066 750.371a9.11 9.11 0 0 1-1.373.7c-1.6.73-3.122 1.621-4.74 2.31a11.085 11.085 0 0 1-5.112 1.05 7.622 7.622 0 0 0-2.729-.029 6.3 6.3 0 0 0-1.516.841c-2.909-.186-7.78-.5-9.5-.64-2.514-.207-1.9-1.237-1.9-1.237v-.727c.09 0 .192-.026.308-.035a5.492 5.492 0 0 1 1.775.265c1.263.343 2.52.681 3.782 1.018a2.988 2.988 0 0 1 1.455-1.856 4.638 4.638 0 0 1 2.345-.538c1.958.026 3.811.954 5.767 1.047a3.178 3.178 0 0 0 1.6-.268c.268-.134.5-.329.765-.477a5.585 5.585 0 0 1 1.318-.445 29.026 29.026 0 0 0 3.768-1.216c.349-.137.756-.384.71-.756-.061-.495-.838-.553-1.042-1.007a.582.582 0 0 1 .023-.515c.111.02.227.044.349.073 2.114.49 3.266.682 3.947 2.442z" class="prefix__cls-4" data-name="Path 4817" transform="translate(-288.733 -546.28)"/>
        <path id="prefix__Path_4818" d="M371.773 788.034c-2.764 1.263-9.019 0-9.019 0l-2.633-.154c-3.41-.218-9.153-.582-11.181-.754-2.959-.244-2.232-1.455-2.232-1.455v-7.335l14.352-3.636s5.673 1.941 7.227 3.637c1.475 1.615 2.328.372 4.972.838.131.023.268.052.41.084 2.5.582 3.855.8 4.655 2.872a9.338 9.338 0 0 1 .387 1.335c.722 3.334-4.174 3.308-6.938 4.568z" class="prefix__cls-9" data-name="Path 4818" transform="translate(-273.487 -565.311)"/>
        <path id="prefix__Path_4819" d="M378.319 793.071a10.835 10.835 0 0 1-1.615.829c-1.882.858-3.675 1.906-5.578 2.717a13.074 13.074 0 0 1-6.017 1.237 8.78 8.78 0 0 0-3.2-.035 7.42 7.42 0 0 0-1.789 1c-3.41-.218-9.153-.582-11.181-.754-2.959-.244-2.232-1.455-2.232-1.455v-.855a3.635 3.635 0 0 1 .364-.041 6.385 6.385 0 0 1 2.089.311l4.449 1.2a3.52 3.52 0 0 1 1.725-2.185 5.429 5.429 0 0 1 2.761-.634c2.3.032 4.484 1.123 6.785 1.234a3.756 3.756 0 0 0 1.874-.311c.317-.16.582-.39.9-.562a6.328 6.328 0 0 1 1.551-.524 34.819 34.819 0 0 0 4.411-1.432c.41-.163.89-.454.835-.89-.073-.582-.986-.652-1.228-1.187a.7.7 0 0 1 .029-.605c.131.023.268.052.41.084 2.501.56 3.857.787 4.657 2.858z" class="prefix__cls-4" data-name="Path 4819" transform="translate(-273.487 -576.252)"/>
        <path id="prefix__Path_4820" d="M388.314 647.54l-.777 18.28s-1.164 3.733-.532 4.8 1.7 2.133 1.309 2.764-5.042 7.457-6.546 4.839-2.988-13.965-2.988-13.965l1.388-14.015z" class="prefix__cls-8" data-name="Path 4820" transform="translate(-296.285 -475.148)"/>
        <path id="prefix__Path_4821" d="M412.494 491l2.159 2.886v25.1s.631 6.692 0 8.074-3.832 4.146-3.832 4.146l-2.691-13.82.582-14.62z" class="prefix__cls-8" data-name="Path 4821" transform="translate(-317.095 -364.153)"/>
        <path id="prefix__Path_4822" d="M388.314 647.54l-.777 18.28s-1.164 3.733-.532 4.8 1.7 2.133 1.309 2.764-5.042 7.457-6.546 4.839-2.988-13.965-2.988-13.965l1.388-14.015z" class="prefix__cls-4" data-name="Path 4822" transform="translate(-296.285 -475.148)"/>
        <path id="prefix__Path_4823" d="M412.494 491l2.159 2.886v25.1s.631 6.692 0 8.074-3.832 4.146-3.832 4.146l-2.691-13.82.582-14.62z" class="prefix__cls-4" data-name="Path 4823" transform="translate(-317.095 -364.153)"/>
        <path id="prefix__Path_4824" d="M357.128 437.183v13.579l-2.424 10.57s-.777 25.507-.1 28.609-2.328 6.014-2.328 6.014-1.746.195-1.746 1.551-2.909 5.237-2.909 5.237l.1 7.565s1.263 14.16-.678 16.875.678 3.1.678 3.1c-2.424 7.952-14.062 6.11-15.112 5.237s0-18.039 0-18.039 2.6-26.185 4.638-27.349.1-2.619.777-4.364-.678-6.5-.678-6.5-.582-5.627-2.037-8.341-1.263-10.183-1.263-10.183-4.073-5.432-5.284-7.565-1.99-7.661-1.7-11.833c.2-2.819 1.679-6.925 2.619-9.287.451-1.132.777-1.865.777-1.865l.276.073 15.892 4.161z" class="prefix__cls-8" data-name="Path 4824" transform="translate(-259.57 -321.043)"/>
        <path id="prefix__Path_4825" d="M400.433 212.041c-1.5.431-2.936 1.909-4.184 3.7h-.326a10.393 10.393 0 0 1-9.019-5.217 10.235 10.235 0 0 1-.914-2.08c.9-2.284 1.565-4.268 1.565-4.268s17.46 6.556 12.878 7.865z" class="prefix__cls-4" data-name="Path 4825" transform="translate(-301.397 -160.783)"/>
        <path id="prefix__Path_4826" d="M405.183 180.832a10.4 10.4 0 1 1-19.459-5.1 10.162 10.162 0 0 1 1.1-1.589 10.527 10.527 0 0 1 2.392-2.1 10.4 10.4 0 0 1 15.953 8.024c.005.259.014.512.014.765z" class="prefix__cls-3" data-name="Path 4826" transform="translate(-300.255 -136.847)"/>
        <path id="prefix__Path_4827" d="M387.99 248.287l-.035.32-4.839-7.565c-.506 1.2-.788 2-.788 2s-11.492-8.653-9.674-9.235c.611-.195 1.414-1.5 2.208-3.154l.1-.209c.844 2.514 5.746 7.538 7.786 9.552.236.233.431.425.582.564l.311.291.163.163c.742.761 3.872 4.136 4.186 7.273z" class="prefix__cls-4" data-name="Path 4827" transform="translate(-291.803 -179.402)"/>
        <path id="prefix__Path_4828" d="M354.756 273.748l-.53 17.041-.093 3.035s-6.273-.582-12.127-1.222c-4.713-.515-9.156-1.071-9.84-1.4a18.519 18.519 0 0 0-4.219-.928c-1.141-.154-2.037-.236-2.037-.236s-.335.1-.85.192c-1.123.2-3.1.37-4.245-.628-1.469-1.277 2.392-5.918 3.355-7.032l.212-.241-.364-3.36-.946-8.714a53.17 53.17 0 0 0-1.455-7.71 14.218 14.218 0 0 1-.5-2.342 18.76 18.76 0 0 1 .489-7.349 16.025 16.025 0 0 0 .524-3.11c.145-2.691 8.365-13.093 10.4-14.038a4.318 4.318 0 0 0 2.083-2.077 3.968 3.968 0 0 0 .317-.9c.873-3.782 3.081-2.281 3.081-2.281.532 2.959 8.775 10.791 8.775 10.791l.163.163c.818.838 4.46 4.772 4.2 8.129a9.854 9.854 0 0 0 .55 3.678 62.192 62.192 0 0 1 2.866 16.293z" class="prefix__cls-5" data-name="Path 4828" transform="translate(-254.952 -179.196)"/>
        <path id="prefix__Path_4829" d="M388.819 310.45s-2.037 4.946-3.564 5.746 4.291 1.688 3.564-5.746z" class="prefix__cls-4" data-name="Path 4829" transform="translate(-300.693 -236.134)"/>
        <path id="prefix__Path_4830" d="M392.035 342.2s-4.655.582-4.655 1.455 4.655-1.455 4.655-1.455z" class="prefix__cls-4" data-name="Path 4830" transform="translate(-302.382 -258.646)"/>
        <path id="prefix__Path_4831" d="M398.483 361.7s-6.765 14.4-8.656 14.838 8.656-14.838 8.656-14.838z" class="prefix__cls-4" data-name="Path 4831" transform="translate(-303.956 -272.473)"/>
        <path id="prefix__Path_4832" d="M380.348 243.348l-5.595 2.432L368 235.579a3.967 3.967 0 0 0 .317-.9c.873-3.782 3.081-2.281 3.081-2.281.532 2.959 8.775 10.791 8.775 10.791z" class="prefix__cls-4" data-name="Path 4832" transform="translate(-288.641 -180.579)"/>
        <path id="prefix__Path_4833" d="M381.348 241.348l-5.595 2.432L369 233.579a3.968 3.968 0 0 0 .317-.9c.873-3.782 3.081-2.281 3.081-2.281.532 2.959 8.775 10.791 8.775 10.791z" class="prefix__cls-5" data-name="Path 4833" transform="translate(-289.35 -179.161)"/>
        <path id="prefix__Path_4834" d="M361.5 337.56s-6.273-.582-12.127-1.222l10.5 2.749v3.2c-.46.416-.858.631-1.117.521-1.21-.509-11.088-2.109-11.088-2.109s-5.738-2.909-11.929-6.4a4.779 4.779 0 0 1-.436-.273 6.878 6.878 0 0 1-1.833-1.836 13.03 13.03 0 0 1-1.944-5.868 25.382 25.382 0 0 1-.151-3.6 29.536 29.536 0 0 1 .372-4.07 133.855 133.855 0 0 1-.873-15.711c.073-8.147 7.71-11.056 7.71-11.056 14.038-1.237 9.686 21.457 9.686 21.457s-.812 6.4-1.033 7.055a6.907 6.907 0 0 0-.908 3.273c.108 1.527 2.79 3.355 2.79 3.355a9.8 9.8 0 0 1 3.7 3.046c.786 1.341 5.889 3.16 8.772 4.457z" class="prefix__cls-4" data-name="Path 4834" transform="translate(-262.319 -222.933)"/>
        <path id="prefix__Path_4835" d="M404.088 171.074a3.293 3.293 0 0 1-.291 1.391 8.6 8.6 0 0 1-.518 1.036 4.772 4.772 0 0 1-1.279 1.582 6.519 6.519 0 0 1-2.328.809 3.368 3.368 0 0 0-2.1 1.193 4.172 4.172 0 0 0-.492 1.426 3.066 3.066 0 0 1-.582 1.379 1.143 1.143 0 0 1-1.362.326 1.376 1.376 0 0 1-.527-.678 9.723 9.723 0 0 1-.55-2.383 5.07 5.07 0 0 0-.818-2.284 2.045 2.045 0 0 0-2.147-.823 2.069 2.069 0 0 0-1.164 1.129 6.47 6.47 0 0 0-.439 1.606q-.541 2.962-1.277 5.889a.541.541 0 0 1-.1.221.419.419 0 0 1-.291.122c-.652.087-1.277-.37-1.935-.32a1.111 1.111 0 0 0-.2.032 10.4 10.4 0 0 1 1.05-11.871l.052-.015a3.137 3.137 0 0 0 1.164-.733 12.288 12.288 0 0 0 1.164-1.347l.233-.291a13.27 13.27 0 0 1 2.269-2.156 2.327 2.327 0 0 1 .774-.419 2.293 2.293 0 0 1 .733-.023 18.5 18.5 0 0 0 3.029.113 19.433 19.433 0 0 1 2.127-.215c1.842.052 3.413 1.353 4.577 2.779a4.3 4.3 0 0 1 1.228 2.525z" class="prefix__cls-4" data-name="Path 4835" transform="translate(-300.205 -133.548)"/>
        <path id="prefix__Path_4836" d="M377.014 172.024c-.4.663-1.135 1.114-1.408 1.842-.4 1.056.276 2.371-.346 3.314-.207.317-.547.553-.663.916-.2.614.343 1.269.2 1.9s-.972 1.164-.751 1.781a1.164 1.164 0 0 0 .64.582 2.5 2.5 0 0 0 1.455.323c.794-.131 1.385-.911 2.191-.969.655-.047 1.28.407 1.932.323a.436.436 0 0 0 .291-.125.5.5 0 0 0 .1-.221q.733-2.924 1.28-5.889a6.344 6.344 0 0 1 .436-1.606 2.086 2.086 0 0 1 1.164-1.129 2.052 2.052 0 0 1 2.147.823 5.039 5.039 0 0 1 .82 2.284 9.853 9.853 0 0 0 .547 2.383 1.391 1.391 0 0 0 .53.681 1.14 1.14 0 0 0 1.359-.326 3.034 3.034 0 0 0 .582-1.382 4.155 4.155 0 0 1 .492-1.423 3.376 3.376 0 0 1 2.1-1.193 6.583 6.583 0 0 0 2.328-.812 4.789 4.789 0 0 0 1.274-1.58 4.651 4.651 0 0 0 .8-2.429 4.46 4.46 0 0 0-1.193-2.517c-1.164-1.426-2.738-2.726-4.58-2.776a18.1 18.1 0 0 0-2.127.215 18.2 18.2 0 0 1-3.029-.116 2.38 2.38 0 0 0-.733.026 2.193 2.193 0 0 0-.771.419 13.276 13.276 0 0 0-2.272 2.153 16.677 16.677 0 0 1-1.4 1.629 3.157 3.157 0 0 1-1.164.736c-.291.081-.582.023-.858.113-.861.273-.974 1.393-1.373 2.05z" class="prefix__cls-6" data-name="Path 4836" transform="translate(-292.904 -132.86)"/>
        <path id="prefix__Path_4837" d="M465.478 206.723c-2.328.428-4.257-1.455-5.324-2.828a11.418 11.418 0 0 1-.893-1.315l7.989 1.507.323.061s1.469 1.923-2.095 2.575z" class="prefix__cls-4" data-name="Path 4837" transform="translate(-353.349 -159.648)"/>
        <g id="prefix__Group_827" class="prefix__cls-7" data-name="Group 827" transform="translate(81.094 36.944)">
            <path id="prefix__Path_4838" d="M376.116 211.447a2.424 2.424 0 0 0-.169-1.117c0 .029-.026.058-.035.087a2.165 2.165 0 0 0 .151 1.2.87.87 0 0 0 .053-.17z" data-name="Path 4838" transform="translate(-375.314 -202.087)"/>
            <path id="prefix__Path_4839" d="M379.057 197.8a6.468 6.468 0 0 0 .023 1.207 6.483 6.483 0 0 0-.023-1.207z" data-name="Path 4839" transform="translate(-377.562 -193.203)"/>
            <path id="prefix__Path_4840" d="M395.664 183.877a4.772 4.772 0 0 1-1.274 1.583 6.5 6.5 0 0 1-2.328.809 3.361 3.361 0 0 0-2.1 1.193 4.191 4.191 0 0 0-.492 1.426 3.046 3.046 0 0 1-.582 1.382 1.136 1.136 0 0 1-1.359.326 1.391 1.391 0 0 1-.53-.681 9.686 9.686 0 0 1-.547-2.383 5.027 5.027 0 0 0-.82-2.284 2.045 2.045 0 0 0-2.147-.823 2.077 2.077 0 0 0-1.164 1.129 6.341 6.341 0 0 0-.436 1.606q-.544 2.965-1.28 5.889a.5.5 0 0 1-.1.221.436.436 0 0 1-.291.125c-.652.084-1.277-.37-1.932-.323-.806.058-1.4.838-2.191.966a2.459 2.459 0 0 1-1.455-.323 1.556 1.556 0 0 1-.532-.378.786.786 0 0 0-.108.678 1.135 1.135 0 0 0 .64.582 2.458 2.458 0 0 0 1.455.323c.794-.128 1.385-.908 2.191-.966.655-.047 1.28.407 1.932.323a.436.436 0 0 0 .291-.125.5.5 0 0 0 .1-.221q.733-2.909 1.28-5.889a6.341 6.341 0 0 1 .436-1.606 2.077 2.077 0 0 1 1.164-1.129 2.047 2.047 0 0 1 2.147.823 5.039 5.039 0 0 1 .82 2.284A9.852 9.852 0 0 0 387 190.8a1.391 1.391 0 0 0 .53.681 1.14 1.14 0 0 0 1.359-.326 3.046 3.046 0 0 0 .582-1.382 4.193 4.193 0 0 1 .492-1.426 3.389 3.389 0 0 1 2.1-1.193 6.636 6.636 0 0 0 2.328-.809 4.771 4.771 0 0 0 1.274-1.583 4.633 4.633 0 0 0 .8-2.427 3.108 3.108 0 0 0-.035-.332 5.717 5.717 0 0 1-.766 1.874z" data-name="Path 4840" transform="translate(-373.964 -182)"/>
        </g>
        <path id="prefix__Path_4841" d="M407.114 175.761a10.279 10.279 0 0 1 1.295 4.321c-2.592-1.455-5.03-3.052-6.261-3.608-2.144-.969-10.163-.823-13.177-.733a10.162 10.162 0 0 1 1.1-1.589 10.526 10.526 0 0 1 2.4-2.1 10.407 10.407 0 0 1 14.658 3.7z" class="prefix__cls-4" data-name="Path 4841" transform="translate(-303.51 -136.853)"/>
        <path id="prefix__Path_4842" d="M466.2 205.49c-1.4.431-3.683-.4-6.052-1.594a11.418 11.418 0 0 1-.893-1.315l7.989 1.507c.535.36.669.875-1.044 1.402z" class="prefix__cls-4" data-name="Path 4842" transform="translate(-353.349 -159.648)"/>
        <path id="prefix__Path_4843" d="M395.869 154.048s-7.637-.436-9.785 3.71l-.346 3.675-.582-.064-.116 2.5s11.673-.509 14.329.69 10.911 7.239 14.219 6.22-.291-1.964-.291-1.964-4.553-1.929-4.553-3.442-1.129-9.507-12.875-11.325z" class="prefix__cls-8" data-name="Path 4843" transform="translate(-300.723 -125.227)"/>
        <path id="prefix__Path_4844" d="M371.63 622.28s4.873 4.728 6.983 4.364c0 0-5.965-.509-6.983-4.364z" class="prefix__cls-4" data-name="Path 4844" transform="translate(-291.215 -457.237)"/>
        <path id="prefix__Path_4845" d="M368.13 629.81s.436 2.432 1.6 2.194-1.6-2.194-1.6-2.194z" class="prefix__cls-4" data-name="Path 4845" transform="translate(-288.733 -462.576)"/>
        <path id="prefix__Path_4846" d="M380.039 769.53s-6.919 5.383-5.752 5.528 5.752-5.528 5.752-5.528z" class="prefix__cls-4" data-name="Path 4846" transform="translate(-293.005 -561.645)"/>
        <path id="prefix__Path_4847" d="M330.96 338.446l22.4-3.646v21.21l-21.283-1.11z" class="prefix__cls-10" data-name="Path 4847" transform="translate(-234.671 -237.388)"/>
        <path id="prefix__Path_4848" d="M330.96 338.446l22.4-3.646v21.21l-21.283-1.11z" class="prefix__cls-11" data-name="Path 4848" transform="translate(-234.671 -237.388)"/>
        <path id="prefix__Path_4849" d="M407.96 334.8l26.866 2.01-1.487 18.458-25.379.742z" class="prefix__cls-10" data-name="Path 4849" transform="translate(-289.268 -237.388)"/>
        <path id="prefix__Path_4850" d="M407.96 334.8l26.866 2.01-1.487 18.458-25.379.742z" class="prefix__cls-4" data-name="Path 4850" transform="translate(-289.268 -237.388)"/>
        <path id="prefix__Path_4851" d="M416.22 312.55l-8.26 6.474 26.866 2.01 4.39-6.625z" class="prefix__cls-10" data-name="Path 4851" transform="translate(-289.268 -221.612)"/>
        <path id="prefix__Path_4852" d="M303.08 317.046l20.169-2.456 10.346 5.88-22.4 3.646z" class="prefix__cls-10" data-name="Path 4852" transform="translate(-214.902 -223.058)"/>
        <path id="prefix__Path_4853" d="M358.274 349.192v29l-10.495-1.077-4.565-.466-1.391-.145-4.562-.468-6.3-.646v-28.06l22.4 1.525z" class="prefix__cls-10" data-name="Path 4853" transform="translate(-234.671 -246.273)"/>
        <path id="prefix__Path_4854" d="M446.795 341.71v28.28l-8.411 1.615-4.091.786-9.453 1.815v-29z" class="prefix__cls-10" data-name="Path 4854" transform="translate(-301.236 -242.288)"/>
        <path id="prefix__Path_4855" d="M446.795 341.71v28.28l-8.411 1.615-4.091.786-9.453 1.815v-29z" class="prefix__cls-11" data-name="Path 4855" transform="translate(-301.236 -242.288)"/>
        <path id="prefix__Path_4856" d="M303.08 353.434l8.112-6.1 27.314 1.862-4.021 6.773z" class="prefix__cls-10" data-name="Path 4856" transform="translate(-214.902 -246.273)"/>
        <path id="prefix__Path_4857" d="M303.08 353.434l8.112-6.1 27.314 1.862-4.021 6.773z" class="prefix__cls-12" data-name="Path 4857" transform="translate(-214.902 -246.273)"/>
        <path id="prefix__Path_4858" d="M446.795 341.71l-21.955 3.5 7.146 6.4 23.517-3.945z" class="prefix__cls-10" data-name="Path 4858" transform="translate(-301.236 -242.288)"/>
        <path id="prefix__Path_4859" d="M446.795 341.71l-21.955 3.5 7.146 6.4 23.517-3.945z" class="prefix__cls-12" data-name="Path 4859" transform="translate(-301.236 -242.288)"/>
        <path id="prefix__Path_4860" d="M461.421 429.293l-4.091.786v-6.043l3.832-.966z" class="prefix__cls-12" data-name="Path 4860" transform="translate(-324.274 -299.976)"/>
        <path id="prefix__Path_4861" d="M377.645 435.96v4l-4.565-.466v-3.534z" class="prefix__cls-12" data-name="Path 4861" transform="translate(-264.536 -309.116)"/>
        <path id="prefix__Path_4862" d="M357.182 440.29v2.127l-4.562-.468v-1.659z" class="prefix__cls-12" data-name="Path 4862" transform="translate(-250.029 -312.186)"/>
        <path id="prefix__Path_4863" d="M456.593 455.338c-3.128 4-13.456 1.237-13.456 1.237l-7.675-8.007-1.042-1.085 2.037-3.782s.582.192 1.554.53c5.143 1.797 21.215 7.741 18.582 11.107z" class="prefix__cls-4" data-name="Path 4863" transform="translate(-335.736 -330.615)"/>
        <path id="prefix__Path_4864" d="M455.593 453.338c-3.128 4-13.456 1.237-13.456 1.237l-7.675-8.007-1.042-1.085 2.037-3.782s.582.192 1.554.53c5.143 1.797 21.215 7.741 18.582 11.107z" class="prefix__cls-3" data-name="Path 4864" transform="translate(-335.027 -329.197)"/>
        <path id="prefix__Path_4865" d="M436.97 442.23a17.2 17.2 0 0 1-2.549 4.338l-1.042-1.085 2.037-3.782s.584.191 1.554.529z" class="prefix__cls-4" data-name="Path 4865" transform="translate(-334.999 -329.197)"/>
        <path id="prefix__Path_4866" d="M339.588 287.878s-7.637 2.909-7.71 11.056a133.856 133.856 0 0 0 .873 15.711s-2.182 12.147 4 15.638 11.929 6.4 11.929 6.4 9.878 1.6 11.091 2.109 5.429-6.037 4.774-7.128-9.648-3.782-10.716-5.6a9.689 9.689 0 0 0-3.7-3.043s-2.683-1.83-2.79-3.358a6.874 6.874 0 0 1 .908-3.273c.224-.655 1.036-7.055 1.036-7.055s4.344-22.708-9.695-21.457z" class="prefix__cls-5" data-name="Path 4866" transform="translate(-263.028 -220.094)"/>
        <path id="prefix__Path_4867" d="M347.051 380.7s-10.329 1.164-9.529 4.8a21.729 21.729 0 0 1 9.529-4.8z" class="prefix__cls-4" data-name="Path 4867" transform="translate(-266.999 -285.944)"/>
        <path id="prefix__Path_4868" d="M358.394 385.7s-5.863 4.292-4.786 4.582 4.786-4.582 4.786-4.582z" class="prefix__cls-4" data-name="Path 4868" transform="translate(-278.343 -289.49)"/>
        <path id="prefix__Path_4869" d="M376.9 391.7s-1.673 3.008-.727 2.851.727-2.851.727-2.851z" class="prefix__cls-4" data-name="Path 4869" transform="translate(-294.232 -293.744)"/>
        <path id="prefix__Path_4870" d="M724.948 167.385s-11.056-.666-9.764 7.09a1.892 1.892 0 0 0 .983 1.993s.02-.582 1.135-.381a5.1 5.1 0 0 0 1.2.058 2.493 2.493 0 0 0 1.472-.608s3.11-1.283 4.321-6.369c0 0 .9-1.111.873-1.4l-1.868.8a3.347 3.347 0 0 1 .134 2.467s-.058-2.418-.419-2.363c-.073 0-.969.468-.969.468s1.1 2.345.268 4.053c0 0 .314-2.892-.611-3.884l-1.315.768s1.283 2.424.413 4.4c0 0 .224-3.035-.69-4.216l-1.193.928s1.208 2.392.471 4.033c0 0-.1-3.532-.73-3.8a7.2 7.2 0 0 0-1.2 1.3s.823 1.746.311 2.651c0 0-.314-2.354-.582-2.365a7.832 7.832 0 0 0-1.146 2.619 5.662 5.662 0 0 1 .893-2.776 3.116 3.116 0 0 0-1.589.823s.16-1.1 1.845-1.2a7.961 7.961 0 0 1 1.088-1.257 6.822 6.822 0 0 0-2.691.311s.893-1.039 3-.582l1.164-.96a10.039 10.039 0 0 0-3.142.032s1.076-.919 3.459-.25l1.28-.765a11.493 11.493 0 0 0-3-.259 4.6 4.6 0 0 1 3.375.052l.916-.41s-1.379-.271-1.781-.314-.425-.154-.425-.154a4.76 4.76 0 0 1 2.587.291 11.413 11.413 0 0 0 1.927-.824z" class="prefix__cls-10" data-name="Path 4870" transform="translate(-534.738 -134.683)"/>
        <path id="prefix__Path_4871" d="M840.408 300.725s-11.056-.666-9.764 7.09a1.892 1.892 0 0 0 .983 1.993s.02-.582 1.138-.381a5.093 5.093 0 0 0 1.2.058 2.491 2.491 0 0 0 1.455-.605s3.113-1.286 4.323-6.372c0 0 .893-1.109.858-1.394l-1.868.8a3.357 3.357 0 0 1 .137 2.467s-.061-2.418-.419-2.362c-.073 0-.972.468-.972.468s1.1 2.348.271 4.053c0 0 .314-2.892-.614-3.884l-1.3.759s1.283 2.424.413 4.4c0 0 .224-3.035-.69-4.216l-1.19.931s1.2 2.389.471 4.03c0 0-.1-3.532-.73-3.8a7.3 7.3 0 0 0-1.2 1.3s.826 1.746.314 2.651c0 0-.314-2.354-.582-2.365a7.831 7.831 0 0 0-1.146 2.619 5.679 5.679 0 0 1 .9-2.776 3.131 3.131 0 0 0-1.592.823s.163-1.1 1.848-1.2a7.266 7.266 0 0 1 1.088-1.257 6.822 6.822 0 0 0-2.691.311s.893-1.039 3-.567l1.164-.96a10.042 10.042 0 0 0-3.142.032s1.076-.919 3.459-.25l1.28-.765a11.66 11.66 0 0 0-3-.259 4.612 4.612 0 0 1 3.378.052l.916-.41s-1.379-.271-1.784-.314-.425-.154-.425-.154a4.769 4.769 0 0 1 2.589.291 11.74 11.74 0 0 0 1.924-.837z" class="prefix__cls-1" data-name="Path 4871" transform="translate(-616.605 -229.228)"/>
        <path id="prefix__Path_4872" d="M615.22 250.44s2.546-10.791-5.321-10.829a1.89 1.89 0 0 0-2.13.628s.562.119.18 1.184a5.175 5.175 0 0 0-.262 1.164 2.5 2.5 0 0 0 .346 1.551s.736 3.288 5.528 5.348c0 0 .943 1.071 1.228 1.082l-.466-1.976a3.343 3.343 0 0 1-2.456-.291s2.394.352 2.4 0c0-.073-.291-1.036-.291-1.036s-2.5.681-4.041-.428c0 0 2.8.8 3.934.061l-.524-1.431s-2.619.852-4.411-.343c0 0 2.953.739 4.274.041l-.713-1.333s-2.56.78-4.053-.224c0 0 3.491.506 3.87-.07a7.231 7.231 0 0 0-1.074-1.405s-1.85.518-2.665-.143c0 0 2.371.09 2.427-.16a7.844 7.844 0 0 0-2.394-1.58 5.7 5.7 0 0 1 2.587 1.356 3.14 3.14 0 0 0-.541-1.708s1.059.349.873 2.037a7.247 7.247 0 0 1 1.05 1.286 6.842 6.842 0 0 0 .151-2.706s.873 1.059.049 3.052l.745 1.324a9.654 9.654 0 0 0 .5-3.1s.724 1.216-.343 3.451l.538 1.394a11.651 11.651 0 0 0 .765-2.909 4.6 4.6 0 0 1-.628 3.32l.25.972s.5-1.312.611-1.7.224-.393.224-.393a4.766 4.766 0 0 1-.724 2.5 11.556 11.556 0 0 0 .507 2.014z" class="prefix__cls-1" data-name="Path 4872" transform="translate(-458.582 -185.829)"/>
        <path id="prefix__Path_4873" d="M519.735 282.919s-8.88-6.642-12.054.553a1.894 1.894 0 0 0-.273 2.205s.332-.468 1.164.308a5.094 5.094 0 0 0 .972.71 2.5 2.5 0 0 0 1.562.291s3.305.637 7.111-2.944c0 0 1.359-.436 1.487-.692l-2-.352a3.361 3.361 0 0 1-1.242 2.136s1.277-2.054.946-2.2c-.067-.032-1.068-.145-1.068-.145s-.372 2.566-2 3.535c0 0 1.853-2.243 1.624-3.582l-1.522-.081s-.259 2.732-2.074 3.907c0 0 1.853-2.412 1.746-3.9l-1.507.122s-.306 2.656-1.821 3.622c0 0 1.859-3 1.478-3.573a7.315 7.315 0 0 0-1.717.422s-.265 1.9-1.2 2.386c0 0 1.033-2.138.823-2.287a7.821 7.821 0 0 0-2.4 1.562 5.682 5.682 0 0 1 2.275-1.827 3.134 3.134 0 0 0-1.781-.186s.739-.832 2.2.015a7.345 7.345 0 0 1 1.6-.451 6.808 6.808 0 0 0-2.421-1.219 3.029 3.029 0 0 1 2.819 1.164l1.51-.154a9.965 9.965 0 0 0-2.642-1.7s1.405-.177 3.026 1.69l1.49.067a11.614 11.614 0 0 0-2.362-1.868 4.6 4.6 0 0 1 2.79 1.9l.992.16s-1-.983-1.318-1.239-.271-.364-.271-.364a4.78 4.78 0 0 1 2 1.664 11.76 11.76 0 0 0 2.058.345z" class="prefix__cls-1" data-name="Path 4873" transform="translate(-387.31 -214.631)"/>
        <path id="prefix__Path_4874" d="M621.345 70.805s-8.88-6.645-12.054.553a1.894 1.894 0 0 0-.273 2.205s.332-.468 1.164.308a5.176 5.176 0 0 0 .975.707 2.494 2.494 0 0 0 1.562.291s3.305.637 7.111-2.947c0 0 1.359-.434 1.484-.692l-2-.346a3.347 3.347 0 0 1-1.242 2.136s1.28-2.054.948-2.2c-.067-.032-1.068-.145-1.068-.145s-.384 2.572-2.013 3.535c0 0 1.85-2.243 1.623-3.582l-1.522-.081s-.262 2.732-2.074 3.9c0 0 1.853-2.412 1.746-3.9l-1.5.122s-.308 2.659-1.824 3.625c0 0 1.862-3 1.481-3.573a7.313 7.313 0 0 0-1.717.422s-.265 1.9-1.2 2.386c0 0 1.033-2.138.823-2.29a7.851 7.851 0 0 0-2.4 1.565 5.657 5.657 0 0 1 2.275-1.827 3.113 3.113 0 0 0-1.784-.186s.742-.832 2.2.015a7.185 7.185 0 0 1 1.6-.451 6.847 6.847 0 0 0-2.421-1.222 3.033 3.033 0 0 1 2.816 1.164l1.51-.154a9.976 9.976 0 0 0-2.642-1.7s1.405-.175 3.029 1.693l1.49.064a11.493 11.493 0 0 0-2.365-1.865 4.6 4.6 0 0 1 2.793 1.9l.989.16s-1.007-.972-1.321-1.222-.271-.361-.271-.361a4.772 4.772 0 0 1 2 1.664 12.561 12.561 0 0 0 2.072.329z" class="prefix__cls-1" data-name="Path 4874" transform="translate(-459.357 -64.231)"/>
        <path id="prefix__Path_4875" d="M740.059 88.665s-3.55-10.506-10.244-6.378a1.912 1.912 0 0 0-1.475 1.661s.538-.2.777.908a5.239 5.239 0 0 0 .4 1.138 2.52 2.52 0 0 0 1.117 1.132s2.362 2.4 7.53 1.606c0 0 1.365.413 1.615.271l-1.455-1.429a3.347 3.347 0 0 1-2.234 1.053s2.22-.966 2.037-1.277c-.038-.061-.8-.722-.8-.722s-1.763 1.9-3.654 1.775c0 0 2.8-.8 3.366-2.037l-1.2-.928s-1.763 2.1-3.925 2.037c0 0 2.909-.934 3.646-2.226l-1.309-.754s-1.746 2.016-3.555 1.952c0 0 3.235-1.417 3.244-2.1a7.273 7.273 0 0 0-1.653-.626s-1.3 1.417-2.328 1.289c0 0 2.06-1.178 1.973-1.42a7.806 7.806 0 0 0-2.866-.073 5.671 5.671 0 0 1 2.909-.218 3.139 3.139 0 0 0-1.365-1.164s1.082-.265 1.807 1.26a7.326 7.326 0 0 1 1.571.535 6.838 6.838 0 0 0-1.3-2.377s1.3.439 1.656 2.566l1.333.727a9.821 9.821 0 0 0-1.213-2.909s1.26.652 1.533 3.11l1.193.9a11.566 11.566 0 0 0-.89-2.88 4.606 4.606 0 0 1 1.222 3.151l.724.692s-.268-1.379-.378-1.769-.02-.416-.02-.416a4.8 4.8 0 0 1 .707 2.508 11.594 11.594 0 0 0 1.504 1.432z" class="prefix__cls-1" data-name="Path 4875" transform="translate(-544.141 -73.673)"/>
        <path id="prefix__Path_4876" d="M664.216 108.159s-11.027-1.228-10.116 6.6a1.888 1.888 0 0 0 .873 2.037s.049-.582 1.164-.32a5.353 5.353 0 0 0 1.2.119 2.5 2.5 0 0 0 1.5-.532s3.174-1.126 4.655-6.145c0 0 .948-1.062.928-1.35l-1.906.7a3.245 3.245 0 0 1 0 2.47s.061-2.418-.291-2.38c-.073 0-.992.419-.992.419s.978 2.4.064 4.073c0 0 .46-2.875-.416-3.91l-1.353.7s1.164 2.488.189 4.42c0 0 .378-3.02-.474-4.245l-1.237.873s1.082 2.447.265 4.05c0 0 .084-3.532-.535-3.832a7.568 7.568 0 0 0-1.266 1.234s.736 1.775.18 2.662c0 0-.195-2.365-.451-2.389a7.824 7.824 0 0 0-1.28 2.566 5.665 5.665 0 0 1 1.036-2.729 3.131 3.131 0 0 0-1.629.742s.215-1.091 1.9-1.1c0 0 .917-1.138 1.164-1.2a6.84 6.84 0 0 0-2.706.175s.946-1 3.023-.416l1.225-.9a9.435 9.435 0 0 0-3.151-.157s1.123-.873 3.468-.073l1.318-.7a11.584 11.584 0 0 0-2.985-.41 4.569 4.569 0 0 1 3.369.224l.937-.364s-1.365-.34-1.766-.4-.416-.175-.416-.175a4.786 4.786 0 0 1 2.572.419 11.9 11.9 0 0 0 1.94-.756z" class="prefix__cls-1" data-name="Path 4876" transform="translate(-491.463 -92.649)"/>
        <path id="prefix__Path_4877" d="M995.83 402.329s-11.021-1.228-10.11 6.587a1.889 1.889 0 0 0 .873 2.037s.049-.582 1.164-.323a5.035 5.035 0 0 0 1.2.119 2.481 2.481 0 0 0 1.5-.532s3.174-1.126 4.641-6.142c0 0 .948-1.065.928-1.35l-1.906.7a3.253 3.253 0 0 1 0 2.473s.061-2.421-.291-2.38c-.073 0-.992.416-.992.416s.978 2.4.064 4.073c0 0 .46-2.872-.416-3.91l-1.353.7s1.164 2.488.192 4.419c0 0 .375-3.02-.477-4.248l-1.237.873s1.082 2.447.265 4.047c0 0 .084-3.532-.535-3.829a7.681 7.681 0 0 0-1.266 1.234s.739 1.775.18 2.662c0 0-.195-2.365-.451-2.389a7.823 7.823 0 0 0-1.28 2.566 5.665 5.665 0 0 1 1.036-2.729 3.1 3.1 0 0 0-1.629.742s.215-1.094 1.9-1.106c0 0 .919-1.138 1.164-1.2a6.817 6.817 0 0 0-2.706.172s.946-.992 3.026-.413l1.222-.9a9.724 9.724 0 0 0-3.139-.128s1.123-.873 3.468-.076l1.318-.7a11.584 11.584 0 0 0-2.985-.41 4.57 4.57 0 0 1 3.369.224l.937-.367s-1.365-.34-1.766-.4-.416-.175-.416-.175a4.768 4.768 0 0 1 2.572.416 11.4 11.4 0 0 0 1.936-.753z" class="prefix__cls-1" data-name="Path 4877" transform="translate(-726.598 -301.231)"/>
        <path id="prefix__Path_4878" d="M1053.74 437.71s-11.021-1.225-10.11 6.587a1.894 1.894 0 0 0 .873 2.037s.049-.582 1.164-.32a5.137 5.137 0 0 0 1.2.116 2.514 2.514 0 0 0 1.493-.53s3.171-1.126 4.638-6.145c0 0 .951-1.062.928-1.35l-1.906.7a3.253 3.253 0 0 1 0 2.473s.061-2.418-.291-2.38c-.073 0-.992.416-.992.416s.978 2.4.064 4.073c0 0 .46-2.872-.416-3.907l-1.353.7s1.164 2.488.192 4.419c0 0 .375-3.02-.477-4.245l-1.237.873s1.082 2.447.268 4.05c0 0 .082-3.535-.538-3.832a7.678 7.678 0 0 0-1.266 1.234s.739 1.775.18 2.662c0 0-.195-2.365-.451-2.389a7.779 7.779 0 0 0-1.277 2.566 5.68 5.68 0 0 1 1.033-2.729 3.131 3.131 0 0 0-1.629.742s.218-1.094 1.906-1.1c0 0 .916-1.138 1.164-1.2a6.841 6.841 0 0 0-2.706.175s.946-1 3.026-.416l1.222-.9a9.722 9.722 0 0 0-3.139-.128s1.123-.873 3.468-.073l1.318-.7a11.586 11.586 0 0 0-2.985-.41 4.57 4.57 0 0 1 3.369.224l.937-.364s-1.365-.34-1.763-.4-.419-.175-.419-.175a4.786 4.786 0 0 1 2.572.419 11.51 11.51 0 0 0 1.94-.773z" class="prefix__cls-1" data-name="Path 4878" transform="translate(-767.659 -326.318)"/>
        <path id="prefix__Path_4879" d="M919.285 133.059s-8.88-6.642-12.054.553a1.893 1.893 0 0 0-.273 2.205s.332-.468 1.164.308a5.1 5.1 0 0 0 .972.71 2.5 2.5 0 0 0 1.562.291s3.305.637 7.114-2.944c0 0 1.356-.436 1.484-.692l-2-.361a3.361 3.361 0 0 1-1.242 2.136s1.277-2.054.946-2.2c-.067-.032-1.065-.145-1.065-.145s-.375 2.566-2 3.535c0 0 1.853-2.243 1.624-3.582l-1.522-.081s-.259 2.732-2.074 3.907c0 0 1.856-2.412 1.746-3.9l-1.507.122s-.291 2.656-1.821 3.622c0 0 1.862-3 1.478-3.573a7.314 7.314 0 0 0-1.717.422s-.262 1.9-1.193 2.386c0 0 1.03-2.138.82-2.287a7.821 7.821 0 0 0-2.4 1.562 5.682 5.682 0 0 1 2.275-1.827 3.134 3.134 0 0 0-1.781-.186s.742-.832 2.2.015a7.314 7.314 0 0 1 1.6-.451 6.809 6.809 0 0 0-2.421-1.219 3.029 3.029 0 0 1 2.819 1.164l1.51-.154a9.914 9.914 0 0 0-2.642-1.7s1.405-.177 3.026 1.69l1.493.067a11.664 11.664 0 0 0-2.365-1.868 4.593 4.593 0 0 1 2.79 1.9l.992.16s-1-.983-1.318-1.239-.268-.34-.268-.34a4.784 4.784 0 0 1 2 1.664 11.684 11.684 0 0 0 2.048.33z" class="prefix__cls-1" data-name="Path 4879" transform="translate(-670.612 -108.372)"/>
        <path id="prefix__Path_4880" d="M945.505 286.021s-3.061-10.657-9.945-6.831a1.89 1.89 0 0 0-1.551 1.591s.547-.172.736.943a5.157 5.157 0 0 0 .349 1.164 2.5 2.5 0 0 0 1.065 1.187s2.252 2.5 7.448 1.944c0 0 1.344.471 1.6.343l-1.376-1.5a3.346 3.346 0 0 1-2.278.954s2.258-.873 2.083-1.184c-.035-.064-.762-.759-.762-.759s-1.845 1.821-3.73 1.609c0 0 2.831-.669 3.454-1.874l-1.164-.983s-1.856 2.019-4.012 1.862c0 0 2.933-.806 3.742-2.06l-1.274-.812s-1.847 1.935-3.64 1.789c0 0 3.3-1.271 3.337-1.955a7.265 7.265 0 0 0-1.626-.7s-1.359 1.356-2.392 1.181c0 0 2.112-1.085 2.037-1.33a7.857 7.857 0 0 0-2.86-.2 5.676 5.676 0 0 1 2.91-.084 3.122 3.122 0 0 0-1.309-1.222s1.094-.218 1.746 1.338a7.259 7.259 0 0 1 1.545.605 6.805 6.805 0 0 0-1.193-2.432s1.28.495 1.539 2.636l1.3.788a9.675 9.675 0 0 0-1.082-2.95s1.228.707 1.394 3.174l1.164.951a11.538 11.538 0 0 0-.76-2.904 4.6 4.6 0 0 1 1.079 3.2l.692.727s-.2-1.391-.291-1.786 0-.451 0-.451a4.768 4.768 0 0 1 .6 2.537 11.544 11.544 0 0 0 1.425 1.494z" class="prefix__cls-1" data-name="Path 4880" transform="translate(-689.971 -213.38)"/>
        <path id="prefix__Path_4881" d="M708.562 373.713s-5.944-9.363-11.463-3.759a1.882 1.882 0 0 0-1.042 1.964s.48-.32.975.7a4.977 4.977 0 0 0 .658 1.007 2.484 2.484 0 0 0 1.353.838s2.866 1.769 7.7-.233c0 0 1.423.076 1.632-.119l-1.746-1.047a3.345 3.345 0 0 1-1.92 1.557s1.926-1.455 1.667-1.722c-.049-.052-.946-.512-.946-.512s-1.26 2.264-3.128 2.592c0 0 2.528-1.44 2.79-2.773l-1.394-.614s-1.213 2.458-3.326 2.909c0 0 2.589-1.6 3.011-3.029l-1.455-.419s-1.228 2.377-2.988 2.741c0 0 2.8-2.147 2.651-2.816a7.226 7.226 0 0 0-1.746-.212s-.922 1.685-1.964 1.807c0 0 1.722-1.635 1.58-1.85a7.839 7.839 0 0 0-2.8.611 5.662 5.662 0 0 1 2.776-.9 3.122 3.122 0 0 0-1.6-.806s.986-.515 2.037.794a7.187 7.187 0 0 1 1.656.145 6.7 6.7 0 0 0-1.83-2s1.367.116 2.217 2.1l1.469.39a9.727 9.727 0 0 0-1.868-2.525s1.376.332 2.229 2.656l1.373.582a11.6 11.6 0 0 0-1.551-2.584 4.584 4.584 0 0 1 1.935 2.767l.873.5s-.582-1.277-.788-1.629-.125-.433-.125-.433a4.771 4.771 0 0 1 1.283 2.266 11.831 11.831 0 0 0 1.815 1.056z" class="prefix__cls-1" data-name="Path 4881" transform="translate(-521.232 -277.058)"/>
        <path id="prefix__Path_4882" d="M842.994 208.72s-5.653-9.54-11.347-4.111a1.892 1.892 0 0 0-1.1 1.932s.486-.308.951.724a5.03 5.03 0 0 0 .626 1.03 2.47 2.47 0 0 0 1.327.873s2.808 1.856 7.7 0c0 0 1.42.119 1.635-.07l-1.708-1.1a3.345 3.345 0 0 1-1.967 1.5s1.97-1.405 1.722-1.67c-.052-.055-.931-.544-.931-.544s-1.33 2.226-3.2 2.5c0 0 2.572-1.362 2.872-2.683l-1.373-.646s-1.289 2.424-3.416 2.811c0 0 2.639-1.516 3.1-2.933l-1.437-.466s-1.3 2.328-3.072 2.648c0 0 2.869-2.06 2.735-2.732a7.185 7.185 0 0 0-1.746-.268s-.975 1.656-2.019 1.746c0 0 1.772-1.577 1.638-1.8a7.831 7.831 0 0 0-2.819.524 5.679 5.679 0 0 1 2.8-.815 3.128 3.128 0 0 0-1.574-.855s1-.486 2.037.855a7.371 7.371 0 0 1 1.65.2 6.959 6.959 0 0 0-1.766-2.054s1.362.157 2.15 2.165l1.455.436a9.672 9.672 0 0 0-1.789-2.584s1.367.375 2.147 2.723l1.353.631a11.69 11.69 0 0 0-1.455-2.619 4.6 4.6 0 0 1 1.85 2.825l.852.53s-.547-1.295-.739-1.653-.111-.436-.111-.436a4.781 4.781 0 0 1 1.213 2.3 11.261 11.261 0 0 0 1.756 1.086z" class="prefix__cls-10" data-name="Path 4882" transform="translate(-616.599 -159.902)"/>
        <path id="prefix__Path_4883" d="M727.6 268.185s.291-11.085-7.41-9.523a1.9 1.9 0 0 0-1.961 1.05s.582 0 .419 1.12a5.111 5.111 0 0 0-.017 1.2 2.488 2.488 0 0 0 .655 1.455s1.388 3.067 6.511 4.108c0 0 1.138.858 1.423.812l-.873-1.839a3.358 3.358 0 0 1-2.461.218s2.415-.143 2.348-.5c0-.073-.5-.957-.5-.957s-2.31 1.178-4.041.4c0 0 2.91.218 3.861-.739l-.812-1.289s-2.38 1.362-4.388.559c0 0 3.04.122 4.193-.829l-.969-1.164s-2.348 1.286-4.012.605c0 0 3.526-.212 3.782-.855a7.547 7.547 0 0 0-1.338-1.164s-1.7.873-2.636.4c0 0 2.328-.39 2.342-.649a7.808 7.808 0 0 0-2.665-1.059 5.664 5.664 0 0 1 2.808.8 3.128 3.128 0 0 0-.873-1.562s1.108.125 1.26 1.8a7.231 7.231 0 0 1 1.292 1.047 6.8 6.8 0 0 0-.4-2.68s1.071.858.669 2.976l1 1.146a9.742 9.742 0 0 0-.137-3.139s.954 1.044.367 3.448l.806 1.254a11.6 11.6 0 0 0 .16-3.008 4.617 4.617 0 0 1 .058 3.378l.442.9s.224-1.388.253-1.792.14-.431.14-.431a4.778 4.778 0 0 1-.2 2.6 11.088 11.088 0 0 0 .904 1.903z" class="prefix__cls-10" data-name="Path 4883" transform="translate(-536.972 -199.306)"/>
        <ellipse id="prefix__Ellipse_1119" cx="7.835" cy="1.324" class="prefix__cls-1" data-name="Ellipse 1119" rx="7.835" ry="1.324" transform="translate(195.526 207.085)"/>
        <ellipse id="prefix__Ellipse_1120" cx="7.835" cy="1.324" class="prefix__cls-1" data-name="Ellipse 1120" rx="7.835" ry="1.324" transform="translate(166.964 227.184)"/>
        <ellipse id="prefix__Ellipse_1121" cx="7.835" cy="1.324" class="prefix__cls-1" data-name="Ellipse 1121" rx="7.835" ry="1.324" transform="translate(19.261 216.887)"/>
        <ellipse id="prefix__Ellipse_1122" cx="7.835" cy="1.324" class="prefix__cls-1" data-name="Ellipse 1122" rx="7.835" ry="1.324" transform="translate(226.393 225.86)"/>
        <ellipse id="prefix__Ellipse_1123" cx="11.699" cy="1.978" class="prefix__cls-10" data-name="Ellipse 1123" rx="11.699" ry="1.978" transform="translate(230.687 208.409)"/>
        <path id="prefix__Path_4884" d="M918.627 753.868a3.378 3.378 0 0 0 1.114-1.682 1.494 1.494 0 0 0-.777-1.714 2.2 2.2 0 0 0-2.063.722 2.764 2.764 0 0 1-2 .969 3.055 3.055 0 0 0 .943-2.854 1.2 1.2 0 0 0-.262-.582c-.4-.425-1.117-.242-1.594.093-1.513 1.065-1.935 3.119-1.943 4.969a9.338 9.338 0 0 1-.026-2.037 2.09 2.09 0 0 0-.771-1.81 2.3 2.3 0 0 0-1.164-.291 2.431 2.431 0 0 0-1.9.541 1.875 1.875 0 0 0 .073 2.328 7.524 7.524 0 0 0 1.97 1.577 4.4 4.4 0 0 1 1.408 1.341 1.365 1.365 0 0 1 .1.239H916a11.764 11.764 0 0 0 2.627-1.809z" class="prefix__cls-10" data-name="Path 4884" transform="translate(-671.391 -546.719)"/>
        <path id="prefix__Path_4885" fill="#a8a8a8" d="M170.29 777.986s4.466-.137 5.819-1.1 6.875-2.1 7.21-.564 6.715 7.649 1.67 7.69-11.722-.786-13.066-1.606-1.633-4.42-1.633-4.42z" data-name="Path 4885" transform="translate(-148.454 -565.929)"/>
        <path id="prefix__Path_4886" d="M185.073 789.349c-5.045.041-11.722-.786-13.066-1.606-1.024-.623-1.431-2.86-1.568-3.893h-.148s.291 3.6 1.626 4.422 8.021 1.647 13.066 1.606c1.455 0 1.958-.529 1.932-1.3-.204.471-.76.762-1.842.771z" data-name="Path 4886" opacity="0.2" transform="translate(-148.454 -571.799)"/>
    </g>
</svg>
