<svg xmlns="http://www.w3.org/2000/svg" id="prefix__woman" width="28.537" height="36.035" viewBox="0 0 28.537 36.035">
    <defs>
        <style>
            .prefix__cls-2{fill:#23201e}.prefix__cls-5{fill:#ffbd86}.prefix__cls-6{fill:#ffa664}.prefix__cls-8{fill:#433f43}
        </style>
    </defs>
    <path id="prefix__Path_3298" fill="#333e49" d="M96.818 19.524v-2.587c-2.892-2.356-2.513-8.1-2.513-8.1a14.084 14.084 0 0 0 6.728-3.923 8.161 8.161 0 0 0 4.229 3.959s.336 5.66-2.5 8.028l.014.011v2.608s2.69 1.41 5.243 2.842c.97-5.97 2.65-22.362-8.254-22.362-10.924 0-9.219 16.45-8.245 22.4 2.569-1.443 5.3-2.873 5.3-2.873zm0 0" data-name="Path 3298" transform="translate(-85.506 -.001)"/>
    <path id="prefix__Path_3299" d="M304.086 318.657c-2.606-1.467-5.43-2.947-5.43-2.947v1.335s2.69 1.41 5.243 2.842c.06-.372.124-.787.187-1.23zm0 0" class="prefix__cls-2" data-name="Path 3299" transform="translate(-281.39 -297.522)"/>
    <path id="prefix__Path_3300" d="M100.274 319.919c2.569-1.443 5.3-2.873 5.3-2.873v-1.335s-2.865 1.5-5.486 2.978c.061.447.125.859.186 1.23zm0 0" class="prefix__cls-2" data-name="Path 3300" transform="translate(-94.26 -297.523)"/>
    <path id="prefix__Path_3301" fill="#ff94d4" d="M17.207 338.883s7.8 4.087 9.437 5.411c1.318 1.065 1.71 3.371 1.813 4.231.021.177-7.59 6.856-14.556 6.856S-.018 348.7 0 348.525c.1-.859.5-3.166 1.813-4.231 1.637-1.324 9.437-5.411 9.437-5.411l2.129 4.145a.953.953 0 0 0 1.7 0zm0 0" data-name="Path 3301" transform="translate(.058 -319.36)"/>
    <path id="prefix__Path_3302" fill="#ff73c6" d="M.116 493.363c-.057.3-.155.894-.177 1.081s4.783 6.3 13.864 6.525a19.188 19.188 0 0 0 14.673-6.377c-.023-.188-.08-.932-.137-1.23zm0 0" data-name="Path 3302" transform="translate(.061 -464.94)"/>
    <path id="prefix__Path_3303" d="M199.144 300.362l2.129-4.145v-2.608a4.884 4.884 0 0 1-5.953 0v2.608l2.129 4.145a.953.953 0 0 0 1.695 0zm0 0" class="prefix__cls-5" data-name="Path 3303" transform="translate(-184.008 -276.694)"/>
    <path id="prefix__Path_3304" d="M195.316 293.61v1.09a4.882 4.882 0 0 0 5.954-.044v-1.051a4.885 4.885 0 0 1-5.954 0zm0 0" class="prefix__cls-6" data-name="Path 3304" transform="translate(-184.004 -276.694)"/>
    <path id="prefix__Path_3305" fill="#fed2a4" d="M151.435 89.275s-.6 9.067 5.448 9.087 5.509-9.051 5.509-9.051a8.16 8.16 0 0 1-4.229-3.959 14.084 14.084 0 0 1-6.728 3.923zm0 0" data-name="Path 3305" transform="translate(-142.635 -80.435)"/>
    <path id="prefix__Path_3306" d="M156.881 162.85c-4.659-.016-5.373-5.4-5.455-7.871-.045 1.149-.146 8.927 5.455 8.945 5.791.019 5.543-8.295 5.511-9-.084 2.425-.792 7.942-5.511 7.926zm0 0" class="prefix__cls-5" data-name="Path 3306" transform="translate(-142.633 -145.997)"/>
    <path id="prefix__Path_3307" d="M229.275 174.314h.142a.447.447 0 0 0-.037-.894c-.225.01-.62 0-.744-.2-.158-.251.023-.846.194-1.168a.447.447 0 0 0-.788-.423 2.339 2.339 0 0 0-.165 2.066 1.522 1.522 0 0 0 1.398.619zm0 0" class="prefix__cls-6" data-name="Path 3307" transform="translate(-214.505 -161.515)"/>
    <path id="prefix__Path_3308" d="M186.836 153.2a.757.757 0 1 0-.74.918.834.834 0 0 0 .74-.918zm0 0" class="prefix__cls-8" data-name="Path 3308" transform="translate(-174.617 -143.504)"/>
    <path id="prefix__Path_3309" d="M283.666 154.113a.939.939 0 1 0-.74-.918.834.834 0 0 0 .74.918zm0 0" class="prefix__cls-8" data-name="Path 3309" transform="translate(-266.567 -143.505)"/>
    <path id="prefix__Path_3310" fill="#ff646f" d="M203.062 229.594a.448.448 0 0 0-.129.62 2.92 2.92 0 0 0 4.938 0 .447.447 0 1 0-.748-.491 2.254 2.254 0 0 1-1.721.957 2.288 2.288 0 0 1-1.721-.957.447.447 0 0 0-.619-.129zm0 0" data-name="Path 3310" transform="translate(-191.113 -216.297)"/>
</svg>
