<svg xmlns="http://www.w3.org/2000/svg" width="494.084" height="410.656" viewBox="0 0 494.084 410.656">
    <defs>
        <linearGradient id="prefix__linear-gradient" x1="-2.055" x2="-2.055" y1="1" gradientUnits="objectBoundingBox">
            <stop offset="0" stop-color="gray" stop-opacity=".251"/>
            <stop offset=".54" stop-color="gray" stop-opacity=".122"/>
            <stop offset="1" stop-color="gray" stop-opacity=".102"/>
        </linearGradient>
        <style>
            .prefix__cls-1,.prefix__cls-3{fill:#38bdba}.prefix__cls-1,.prefix__cls-5,.prefix__cls-6{opacity:.1}.prefix__cls-2{fill:#d48a9b}.prefix__cls-4{fill:#dda2a6;opacity:.2}.prefix__cls-7{fill:#e1dee5}.prefix__cls-8{fill:#a36468}.prefix__cls-9{fill:#d9d6df}.prefix__cls-10{fill:#b8797d}.prefix__cls-19{fill:#fff}.prefix__cls-13{fill:#efb7b9}.prefix__cls-14{fill:#67647e}.prefix__cls-15{fill:#444053}.prefix__cls-17{fill:#d1d9ec}.prefix__cls-18{fill:#dfe6f5}.prefix__cls-22{fill:#746d83}.prefix__cls-24{fill:#d4dfec}
        </style>
    </defs>
    <g id="prefix__Group_552" data-name="Group 552" transform="translate(-.004 .024)">
        <path id="prefix__Path_2979" d="M1050.008 308.36h-45.588v55.261h42.256c.109.57.213 1.14.337 1.706h-42.593v44.556l.213-.069q1.8-.635 3.585-1.349l.764-.312q1.825-.749 3.585-1.6c.421-.193.838-.4 1.25-.6a74.291 74.291 0 0 0 17.935-12.4c.154-.134.3-.273.436-.407.729-.7 1.443-1.413 2.137-2.142l.764-.813c.818-.888 1.607-1.8 2.375-2.732l.337-.407a57.714 57.714 0 0 0 7.725-12.4c.064-.134.119-.273.178-.407.62-1.4 1.18-2.816 1.666-4.259.208-.61.407-1.22.58-1.83.059-.183.114-.362.164-.54 2.529-8.851 2.821-18.049 2.821-27.2v-3.2c0-3.694-.054-7.438-.124-11.132 0-.962-.045-1.919-.069-2.886q-.089-3.684-.268-7.358c-.03-.684-.06-1.364-.1-2.038 0-.392-.04-.783-.064-1.175-.104-1.446-.193-2.854-.302-4.267z" class="prefix__cls-1" data-name="Path 2979" transform="translate(-556.847 -173.28)"/>
        <path id="prefix__Path_2980" d="M1004.4 155.714h25.005a170.973 170.973 0 0 0-13.313-16.283c-3.719-4.056-7.621-8.013-11.707-11.821z" class="prefix__cls-1" data-name="Path 2980" transform="translate(-556.832 -82.154)"/>
        <path id="prefix__Path_2981" d="M1004.42 187.715v58.108h45.444c0-.169-.03-.342-.045-.5-.04-.456-.079-.912-.124-1.373s-.1-1.071-.164-1.611-.119-1.165-.188-1.74-.129-1.165-.2-1.745-.144-1.16-.223-1.735-.154-1.16-.243-1.735c-.069-.5-.134-.952-.208-1.433-.1-.674-.213-1.354-.327-2.023a2.859 2.859 0 0 0-.055-.3 124.572 124.572 0 0 0-3.342-14.593 100.382 100.382 0 0 0-5.638-14.811 107.538 107.538 0 0 0-8.484-14.528z" class="prefix__cls-1" data-name="Path 2981" transform="translate(-556.847 -112.449)"/>
        <path id="prefix__Path_2982" d="M444.1 170.99v55.261h97.373V170.99zm0 56.967v37.421c11.335-3.625 24.3-2.162 36.048.813 9.1 2.311 17.964 5.454 27.048 7.715a99.215 99.215 0 0 0 12.332 2.33l1.021.109c.5.05.992.1 1.487.139l1.488.1h.818a1.756 1.756 0 0 0 .228 0l.8.03h.025c.382 0 .769 0 1.155.03h3.183a8.407 8.407 0 0 0 .868-.03c.466 0 .932-.04 1.4-.074l.868-.055 1.071-.084c.759-.059 1.488-.139 2.256-.228.3-.035.6-.069.9-.114l.441-.055c.749-.1 1.488-.218 2.236-.342.55-.084 1.1-.188 1.656-.288v-47.417zm72.423-118.506v1.706H444.1v58.127h97.373v-58.108h-4.884v-1.706h4.884V71.916C522.536 56.659 500.4 44.709 475.739 39.19a139.828 139.828 0 0 0-31.635-3.3v73.578zm-222.633-.327l.342.327H433.21V36.4c-24.742 2.058-48.87 10.368-68.322 24.138-9.347 6.61-17.741 14.444-28.228 19.516a44.2 44.2 0 0 1-17.652 4.562zm-.957-29.969v16.536l13.427-13.105a60.322 60.322 0 0 0-13.447-3.411zm-.446 208.035h.446v36.246q7.6-.565 15.143-1.557a270.949 270.949 0 0 0 65.575-16.988q3.392-1.359 6.734-2.806 2.226-.967 4.428-1.983 3.3-1.517 6.555-3.119a230.641 230.641 0 0 0 27.7-16.1c.55-.372 1.106-.749 1.651-1.131q1.646-1.14 3.268-2.3c.541-.392 1.081-.783 1.616-1.18l1.1-.843c1.111-.828 2.216-1.661 3.337-2.479 1.036-.744 2.083-1.488 3.144-2.182v-42.836H321.552c.079-.253.154-.5.238-.764-.089.258-.169.5-.243.764h-28.63v59.248zm.446-176.024v58.118H433.21v-58.108zm0 59.813v55.271H433.21v-55.26zm-28.041-90.123l17.136 16.724v-18.5q-8.612.536-17.136 1.776zM145.568 170.99v55.261h136.46V170.99zm32.983 136.48a253.451 253.451 0 0 0 64.326 15.262h.094q6.243.659 12.52 1.021h.154c8.771.5 17.578.61 26.369.283v-96.079H145.568l.5 63.626m-38.298-65.332h26.914V170.99h-10.645c-1.106 1.944-2.177 3.9-3.193 5.881q-.818 1.582-1.592 3.2c-7.007 14.54-11.459 30.529-11.484 46.18zm0 1.706a69.857 69.857 0 0 0 8.3 32.423 79.509 79.509 0 0 0 18.6 22.313v-54.736zm17.245-58.673h9.649V154.9a153.392 153.392 0 0 0-9.629 14.379zm60.458-59.813h93.337l.337-.327-.5-.5-26.245-25.6a213.127 213.127 0 0 0-23.042 6.173c-.714.233-1.428.5-2.137.719a208.981 208.981 0 0 0-41.755 19.531zm-39.905 32.413v27.4h136.475v-56.526l-1.914-1.557h-97.4a187.293 187.293 0 0 0-37.158 30.683z" class="prefix__cls-1" data-name="Path 2982" transform="translate(-104.793 -35.91)"/>
        <path id="prefix__Path_2983" d="M1004.42 246.84v28.8h45.444c0-.169-.03-.342-.045-.5-.04-.456-.079-.912-.124-1.373s-.1-1.071-.164-1.611-.119-1.165-.188-1.74-.129-1.165-.2-1.745-.144-1.16-.223-1.735-.154-1.16-.243-1.735c-.069-.5-.134-.952-.208-1.433-.1-.674-.213-1.354-.327-2.023a2.86 2.86 0 0 0-.055-.3 124.573 124.573 0 0 0-3.342-14.593z" class="prefix__cls-1" data-name="Path 2983" transform="translate(-556.847 -142.265)"/>
        <path id="prefix__Path_2984" d="M1050.008 308.36h-45.588v55.261h42.256c.109.57.213 1.14.337 1.706h-42.593v44.556l.213-.069q1.8-.635 3.585-1.349l.764-.312q1.825-.749 3.585-1.6c.421-.193.838-.4 1.25-.6a74.291 74.291 0 0 0 17.935-12.4c.154-.134.3-.273.436-.407.729-.7 1.443-1.413 2.137-2.142l.764-.813c.818-.888 1.607-1.8 2.375-2.732l.337-.407a57.714 57.714 0 0 0 7.725-12.4c.064-.134.119-.273.178-.407.62-1.4 1.18-2.816 1.666-4.259.208-.61.407-1.22.58-1.83.059-.183.114-.362.164-.54 2.529-8.851 2.821-18.049 2.821-27.2v-3.2c0-3.694-.054-7.438-.124-11.132 0-.962-.045-1.919-.069-2.886q-.089-3.684-.268-7.358c-.03-.684-.06-1.364-.1-2.038 0-.392-.04-.783-.064-1.175-.104-1.446-.193-2.854-.302-4.267z" class="prefix__cls-1" data-name="Path 2984" transform="translate(-556.847 -173.28)"/>
        <path id="prefix__Path_2985" d="M811.56 151.459v49.787h34.278v-49.787h-4.884V134.6h-20.067v16.859z" class="prefix__cls-1" data-name="Path 2985" transform="translate(-409.153 -67.872)"/>
        <path id="prefix__Rectangle_1545" d="M0 0H34.277V55.257H0z" class="prefix__cls-1" data-name="Rectangle 1545" transform="translate(402.407 135.08)"/>
        <path id="prefix__Path_2986" d="M947.613 423.25H913.34v45.95a99.877 99.877 0 0 0 12.327 2.33l1.021.109c.5.055.992.1 1.487.139l1.488.1h.154a5 5 0 0 1 .664.03h.228a7.391 7.391 0 0 1 .808.03c.382 0 .769 0 1.155.03h3.183l.873-.03c.461 0 .932-.04 1.4-.074l.863-.055 1.076-.084c.754-.064 1.487-.139 2.251-.228l.9-.114.441-.055c.749-.1 1.488-.213 2.236-.342.555-.084 1.1-.188 1.656-.288z" class="prefix__cls-1" data-name="Path 2986" transform="translate(-510.928 -231.203)"/>
        <path id="prefix__Rectangle_1546" d="M0 0H28.268V55.663H0z" class="prefix__cls-1" data-name="Rectangle 1546" transform="translate(188.124 77.706)"/>
        <path id="prefix__Path_2987" d="M379.4 272.45v55.261h140.293v-23.835h-74.728v14.062h-37.3V272.45z" class="prefix__cls-1" data-name="Path 2987" transform="translate(-191.276 -137.37)"/>
        <path id="prefix__Path_2988" d="M480.27 481.732h.446v36.251q7.6-.575 15.143-1.557a271.429 271.429 0 0 0 65.595-17.012q9.044-3.63 17.716-7.9a230.639 230.639 0 0 0 27.7-16.1q3.317-2.251 6.53-4.606c1.488-1.1 2.975-2.211 4.463-3.3 1.036-.744 2.083-1.488 3.144-2.187v-42.842H509.356c.079-.253.154-.5.233-.759-.084.253-.169.5-.243.759h-28.63v59.228z" class="prefix__cls-1" data-name="Path 2988" transform="translate(-292.592 -230.432)"/>
        <path id="prefix__Path_2989" d="M332.5 163.7h18.416v-5.1h-8.251v-15.15c-.714.233-1.428.5-2.137.719V158.6H332.5z" class="prefix__cls-1" data-name="Path 2989" transform="translate(-218.093 -90.14)"/>
        <path id="prefix__Path_2990" d="M243 245.838h107.206V190.17h-4.75v41.155h-21.718v-24.356h-17.945V187.73h-18.415v19.239h-17.94v24.351H243z" class="prefix__cls-1" data-name="Path 2990" transform="translate(-172.97 -112.464)"/>
        <path id="prefix__Path_2991" d="M213.255 308.36v55.261H320.46V308.36zM217 444.84a253.45 253.45 0 0 0 64.324 15.26h.094q6.243.659 12.52 1.021h.154c8.771.5 17.578.61 26.369.283v-96.077H213.255v19.591H184l.154 43.738" class="prefix__cls-1" data-name="Path 2991" transform="translate(-143.225 -173.28)"/>
        <path id="prefix__Path_2992" d="M132.815 423.25H107.81a69.917 69.917 0 0 0 8.3 32.423 79.522 79.522 0 0 0 18.6 22.313v-35.145h-1.889z" class="prefix__cls-1" data-name="Path 2992" transform="translate(-104.813 -231.203)"/>
        <path id="prefix__Path_2993" d="M107.77 372.853h25.03V326.67h-13.546c-7.007 14.543-11.459 30.53-11.484 46.183z" class="prefix__cls-1" data-name="Path 2993" transform="translate(-104.793 -182.512)"/>
        <path id="prefix__Rectangle_1547" d="M0 0H15.143V17.454H0z" class="prefix__cls-1" data-name="Rectangle 1547" transform="translate(188.124 93.181)"/>
        <path id="prefix__Rectangle_1548" d="M0 0H15.143V4.016H0z" class="prefix__cls-1" data-name="Rectangle 1548" transform="translate(188.124 129.358)"/>
        <path id="prefix__Rectangle_1549" d="M0 0H15.143V11.727H0z" class="prefix__cls-1" data-name="Rectangle 1549" transform="translate(188.124 135.08)"/>
        <path id="prefix__Rectangle_1550" d="M0 0H15.143V17.454H0z" class="prefix__cls-1" data-name="Rectangle 1550" transform="translate(188.124 165.529)"/>
        <path id="prefix__Rectangle_1551" d="M0 0H15.143V17.454H0z" class="prefix__cls-1" data-name="Rectangle 1551" transform="translate(188.124 201.706)"/>
        <path id="prefix__Path_2994" d="M480.716 529.073v4.051h15.143V515.67h-15.143z" class="prefix__cls-1" data-name="Path 2994" transform="translate(-292.592 -277.798)"/>
        <path id="prefix__Path_2995" d="M481.17 588.63v13.482q7.6-.575 15.143-1.557v-11.9z" class="prefix__cls-1" data-name="Path 2995" transform="translate(-293.046 -314.581)"/>
        <path id="prefix__Rectangle_1552" d="M0 0H64.896V1.279H0z" class="prefix__cls-1" data-name="Rectangle 1552" transform="translate(263.522 189.057)"/>
        <path id="prefix__Rectangle_1553" d="M0 0H64.896V4.914H0z" class="prefix__cls-1" data-name="Rectangle 1553" transform="translate(263.522 192.047)"/>
        <path id="prefix__Rectangle_1554" d="M0 0H64.896V7.904H0z" class="prefix__cls-1" data-name="Rectangle 1554" transform="translate(263.522 213.065)"/>
        <path id="prefix__Path_2996" d="M633.23 514.06v7.9h50.764q3.307-2.246 6.53-4.611c1.488-1.091 2.975-2.207 4.463-3.287z" class="prefix__cls-1" data-name="Path 2996" transform="translate(-369.708 -276.986)"/>
        <path id="prefix__Path_2997" d="M633.23 562.47v7.9h5.34q9.039-3.62 17.711-7.9z" class="prefix__cls-1" data-name="Path 2997" transform="translate(-369.708 -301.392)"/>
        <path id="prefix__Rectangle_1555" d="M0 0H12.773V11.36H0z" class="prefix__cls-1" data-name="Rectangle 1555" transform="rotate(180 75.433 75.9)"/>
        <path id="prefix__Rectangle_1556" d="M0 0H12.773V11.36H0z" class="prefix__cls-1" data-name="Rectangle 1556" transform="rotate(180 213.738 49.432)"/>
        <path id="prefix__Rectangle_1557" d="M0 0H12.773V11.36H0z" class="prefix__cls-1" data-name="Rectangle 1557" transform="rotate(180 213.738 62.626)"/>
        <path id="prefix__Rectangle_1558" d="M0 0H12.773V11.36H0z" class="prefix__cls-1" data-name="Rectangle 1558" transform="rotate(180 213.738 75.818)"/>
        <path id="prefix__Rectangle_1559" d="M0 0H12.773V11.36H0z" class="prefix__cls-1" data-name="Rectangle 1559" transform="rotate(180 213.738 89.012)"/>
        <path id="prefix__Rectangle_1560" d="M0 0H12.773V11.36H0z" class="prefix__cls-1" data-name="Rectangle 1560" transform="rotate(180 213.738 102.209)"/>
        <path id="prefix__Rectangle_1561" d="M0 0H12.773V11.36H0z" class="prefix__cls-1" data-name="Rectangle 1561" transform="rotate(180 213.738 115.401)"/>
        <path id="prefix__Rectangle_1562" d="M0 0H12.773V11.36H0z" class="prefix__cls-1" data-name="Rectangle 1562" transform="rotate(180 51.048 75.9)"/>
        <path id="prefix__Rectangle_1563" d="M0 0H12.773V11.36H0z" class="prefix__cls-1" data-name="Rectangle 1563" transform="rotate(180 75.433 89.907)"/>
        <path id="prefix__Rectangle_1564" d="M0 0H12.773V11.36H0z" class="prefix__cls-1" data-name="Rectangle 1564" transform="rotate(180 51.048 89.907)"/>
        <path id="prefix__Rectangle_1565" d="M0 0H12.773V11.36H0z" class="prefix__cls-1" data-name="Rectangle 1565" transform="rotate(180 75.433 103.917)"/>
        <path id="prefix__Rectangle_1566" d="M0 0H12.773V11.36H0z" class="prefix__cls-1" data-name="Rectangle 1566" transform="rotate(180 51.048 103.917)"/>
        <path id="prefix__Rectangle_1567" d="M0 0H12.773V11.36H0z" class="prefix__cls-1" data-name="Rectangle 1567" transform="rotate(180 75.433 117.927)"/>
        <path id="prefix__Rectangle_1568" d="M0 0H12.773V11.36H0z" class="prefix__cls-1" data-name="Rectangle 1568" transform="rotate(180 51.048 117.927)"/>
        <path id="prefix__Rectangle_1569" d="M0 0H12.773V11.36H0z" class="prefix__cls-1" data-name="Rectangle 1569" transform="rotate(180 75.433 131.94)"/>
        <path id="prefix__Rectangle_1570" d="M0 0H12.773V11.36H0z" class="prefix__cls-1" data-name="Rectangle 1570" transform="rotate(180 51.048 131.94)"/>
        <path id="prefix__Path_2998" d="M291.268 573.134v-7.324H278.5v6.282z" class="prefix__cls-1" data-name="Path 2998" transform="translate(-140.406 -285.27)"/>
        <path id="prefix__Path_2999" d="M1004.42 276.26v6.5h43.718v-6.5zm39.365.412h3.565v5.682h-3.585zm-4.354 0h3.585v5.682h-3.6zm-4.344 0h3.585v5.682h-3.585zm-4.354 0h3.585v5.682h-3.585zm-4.349 0H1030v5.682h-3.585zm-4.354 0h3.585v5.682h-3.585zm-4.353 0h3.585v5.682h-3.585zm-4.349 0h3.585v5.682h-3.585zm-4.349 0h3.585v5.682h-3.585zm-4.349 0h3.585v5.682h-3.585z" class="prefix__cls-1" data-name="Path 2999" transform="translate(-556.847 -157.097)"/>
        <path id="prefix__Path_3000" d="M1004.42 314.42v6.5h43.718v-6.5zm39.365.412h3.565v5.677h-3.585zm-4.354 0h3.585v5.677h-3.6zm-4.344 0h3.585v5.677h-3.585zm-4.354 0h3.585v5.677h-3.585zm-4.349 0H1030v5.677h-3.585zm-4.354 0h3.585v5.677h-3.585zm-4.353 0h3.585v5.677h-3.585zm-4.349 0h3.585v5.677h-3.585zm-4.349 0h3.585v5.677h-3.585zm-4.349 0h3.585v5.677h-3.585z" class="prefix__cls-1" data-name="Path 3000" transform="translate(-556.847 -176.336)"/>
        <path id="prefix__Path_3001" d="M1004.42 352.57v6.5h43.718v-6.5zm39.365.407h3.565v5.682h-3.585zm-4.354 0h3.585v5.682h-3.6zm-4.344 0h3.585v5.682h-3.585zm-4.354 0h3.585v5.682h-3.585zm-4.349 0H1030v5.682h-3.585zm-4.354 0h3.585v5.682h-3.585zm-4.353 0h3.585v5.682h-3.585zm-4.349 0h3.585v5.682h-3.585zm-4.349 0h3.585v5.682h-3.585zm-4.349 0h3.585v5.682h-3.585z" class="prefix__cls-1" data-name="Path 3001" transform="translate(-556.847 -195.569)"/>
        <path id="prefix__Path_3002" d="M1004.42 390.72v6.5h43.718v-6.5zm39.365.407h3.565v5.682h-3.585zm-4.354 0h3.585v5.682h-3.6zm-4.344 0h3.585v5.682h-3.585zm-4.354 0h3.585v5.682h-3.585zm-4.349 0H1030v5.682h-3.585zm-4.354 0h3.585v5.682h-3.585zm-4.353 0h3.585v5.682h-3.585zm-4.349 0h3.585v5.682h-3.585zm-4.349 0h3.585v5.682h-3.585zm-4.349 0h3.585v5.682h-3.585z" class="prefix__cls-1" data-name="Path 3002" transform="translate(-556.847 -214.803)"/>
        <path id="prefix__Path_3003" d="M1004.42 428.87v6.51h41.105c.06-.134.119-.273.174-.407h-1.914v-5.692h3.565v1.413c.208-.6.407-1.21.58-1.825zm35.011.412h3.585v5.677h-3.6zm-4.344 0h3.585v5.677h-3.585zm-4.354 0h3.585v5.677h-3.585zm-4.349 0H1030v5.677h-3.585zm-4.354 0h3.585v5.677h-3.585zm-4.354 0h3.585v5.677h-3.585zm-4.349 0h3.585v5.677h-3.585zm-4.349 0h3.585v5.677h-3.585zm-4.349 0h3.585v5.677h-3.585z" class="prefix__cls-1" data-name="Path 3003" transform="translate(-556.847 -234.037)"/>
        <path id="prefix__Path_3004" d="M1004.42 467v6.5h27.326c.159-.134.3-.278.441-.407h-1.453v-5.667h3.585v3.545l.769-.818v-2.727h2.375c.114-.139.223-.278.337-.407zm21.966.407H1030v5.682h-3.585zm-4.354 0h3.585v5.682h-3.585zm-4.354 0h3.585v5.682h-3.585zm-4.349 0h3.585v5.682h-3.585zm-4.349 0h3.585v5.682h-3.585zm-4.349 0h3.585v5.682h-3.585z" class="prefix__cls-1" data-name="Path 3004" transform="translate(-556.847 -253.26)"/>
        <path id="prefix__Path_3005" d="M1004.42 505.18v3.932a1.534 1.534 0 0 0 .213-.074v-3.471h3.585v2.112l.764-.312v-1.78h3.585v.2c.421-.193.838-.4 1.25-.6z" class="prefix__cls-1" data-name="Path 3005" transform="translate(-556.847 -272.509)"/>
        <path id="prefix__Path_3006" d="M425.33 244.113h.025zm27.241 117.916zm29.076-59.253c.079-.253.154-.5.238-.764-.085.258-.163.511-.237.764zm-56.317-58.663h.025zm251.3-59.823V186h20.067v-1.71zM452.571 362.029zm29.076-59.253c.079-.253.154-.5.238-.764-.085.258-.163.511-.237.764zm-56.317-58.663h.025zm27.241 117.916zm29.076-59.253c.079-.253.154-.5.238-.764-.085.258-.163.511-.237.764z" class="prefix__cls-1" data-name="Path 3006" transform="translate(-264.894 -110.729)"/>
        <ellipse id="prefix__Ellipse_653" cx="17.146" cy="1.899" class="prefix__cls-1" data-name="Ellipse 653" rx="17.146" ry="1.899" transform="translate(430.576 404.971)"/>
        <path id="prefix__Path_3007" d="M658.882 502.1l-8.568-.471-.58-24.609-.134-5.861 9.039-1.666.06 7.557z" class="prefix__cls-2" data-name="Path 3007" transform="translate(-327.5 -236.71)"/>
        <path id="prefix__Path_3008" d="M607.923 525.158l-44.031 27.375-.952 8.33 4.76.238v-5.95l28.8-16.184-34.75 43.079v6.664h5.712l-.476-7.378 40.223-45.7 5 .476 42.37 48.077.952 8.1 5.712.238-.952-8.335L626.73 542.3l22.372 15.47.476 6.664 4.522.238-.476-8.092-42.607-32.85z" class="prefix__cls-2" data-name="Path 3008" transform="translate(-283.209 -264.055)"/>
        <path id="prefix__Path_3009" d="M638.776 400.149a78.544 78.544 0 0 0 10.373-16.9c3.03-6.7 6.352-14.444 6.6-16.735.5-4.284 12.614-12.852 25.942-13.328 8.692-.312 22.234-7.1 30.613-11.781a62.312 62.312 0 0 1 25.685-7.933c9.8-.739 19.02 1.185 14.379 12.56l-62.327 75.477s-53.154 9.366-56.432-5.692a12.527 12.527 0 0 0-.759-2.211c-.614-1.428-.777-5.142 5.926-13.457z" class="prefix__cls-3" data-name="Path 3009" transform="translate(-369.379 -185.869)"/>
        <path id="prefix__Path_3010" d="M648.771 405.883a80.856 80.856 0 0 0 10.477-17.057c2.826-6.267 5.826-13.293 6.064-15.421.456-4.091 12.069-12.277 24.822-12.733 8.315-.3 21.272-6.773 29.284-11.251A59.7 59.7 0 0 1 744 341.865c9.376-.7 18.2 1.135 13.774 12l-49.44 72.393s-60.988 8.652-64.216-5.663a14.319 14.319 0 0 0-.759-2.221c-.559-1.418-.643-4.894 5.412-12.491z" class="prefix__cls-4" data-name="Path 3010" transform="translate(-374.692 -190.106)"/>
        <path id="prefix__Path_3011" d="M760.469 512.962c-2.866 0-5.886 0-8.965-.03l-.134-5.861 9.039-1.661z" class="prefix__cls-5" data-name="Path 3011" transform="translate(-429.27 -272.625)"/>
        <g id="prefix__Group_550" class="prefix__cls-6" data-name="Group 550" transform="translate(278.541 270.152)">
            <path id="prefix__Path_3012" d="M715.172 573.77L692.8 558.3l2.563 3.2 19.809 13.7.476 6.664 4.522.238-.084-1.433-4.438-.233z" data-name="Path 3012" transform="translate(-627.82 -551.636)"/>
            <path id="prefix__Path_3013" d="M573.75 567.764v1.428l26.691-15 2.107-2.613z" data-name="Path 3013" transform="translate(-567.8 -548.248)"/>
            <path id="prefix__Path_3014" d="M561.75 651.9v1.428h5.712l-.094-1.428z" data-name="Path 3014" transform="translate(-561.75 -598.825)"/>
            <path id="prefix__Path_3015" d="M568.91 595.988l-4.6-.228-.159 1.418 4.76.238z" data-name="Path 3015" transform="translate(-562.96 -570.522)"/>
            <path id="prefix__Path_3016" d="M660.852 601.51l-.952-8.1-42.37-48.077-5-.476-40.223 45.7.084 1.334 40.138-45.6 5 .476 42.37 48.077.952 8.1 5.712.238-.164-1.438z" data-name="Path 3016" transform="translate(-567.074 -544.86)"/>
        </g>
        <path id="prefix__Path_3017" d="M759.52 426.06s11.146 8.152 6.267 8.246-6.267-8.246-6.267-8.246z" class="prefix__cls-5" data-name="Path 3017" transform="translate(-433.378 -232.62)"/>
        <path id="prefix__Path_3018" d="M665.2 429.239s18.445-1.428 25.347-14.756c0 0 14.042-27.851 25.471-30.945s32.607-10 41.413-20.706 12.5-18.921 12.5-18.921 2.271 8.667-4.884 18.887-9.758 25.957-14.756 42.642-6.9 23.3-15.946 24.3c-6.818.719-42.865.357-60.1 0-5.639-.159-9.045-.501-9.045-.501z" class="prefix__cls-3" data-name="Path 3018" transform="translate(-385.826 -191.203)"/>
        <path id="prefix__Path_3019" d="M665.2 429.239s18.445-1.428 25.347-14.756c0 0 14.042-27.851 25.471-30.945s32.607-10 41.413-20.706 12.5-18.921 12.5-18.921 2.271 8.667-4.884 18.887-9.758 25.957-14.756 42.642-6.9 23.3-15.946 24.3c-6.818.719-42.865.357-60.1 0-5.639-.159-9.045-.501-9.045-.501z" class="prefix__cls-4" data-name="Path 3019" transform="translate(-385.826 -191.203)"/>
        <path id="prefix__Path_3020" d="M674.56 431.992s17.632-1.383 24.227-14.29c0 0 13.427-26.964 24.346-29.959s31.169-9.684 39.588-20.052 11.945-18.321 11.945-18.321 2.157 8.429-4.666 18.321-9.327 25.119-14.107 41.254-6.595 22.586-15.242 23.508c-6.515.694-40.971.342-57.448 0-5.385-.104-8.643-.461-8.643-.461z" class="prefix__cls-3" data-name="Path 3020" transform="translate(-390.545 -193.956)"/>
        <path id="prefix__Path_3021" d="M645.76 495.587s9.639 3.689 15.113 1.666 19.04-7.973 19.04-7.973-22.848 1.448-34.153 6.307z" class="prefix__cls-5" data-name="Path 3021" transform="translate(-376.025 -264.493)"/>
        <path id="prefix__Path_3022" d="M556.935 755.812s-27.708-1.488-34.461-5.454-16.313-3.967-16.363-3.967l-110.324-24.048-45.865-10.909-8.181-1.076 27.023-30.921.823-.357 39.836-17.23s17.85.992 21.376 12.624a14.052 14.052 0 0 1 .5 2.509 14.558 14.558 0 0 1-2.816 10.185 21.6 21.6 0 0 0-3.684 7.061 4.179 4.179 0 0 0 .5 3.57 29.1 29.1 0 0 0 4.9 3.912c9.714 6.446 34.268 17.067 77.163.8 0 0 18.346-18.1 32.23-10.413s17.343 63.714 17.343 63.714z" class="prefix__cls-7" data-name="Path 3022" transform="translate(-222.751 -351.496)"/>
        <path id="prefix__Path_3023" d="M429.855 694.228a4.179 4.179 0 0 0 .5 3.57 29.1 29.1 0 0 0 4.9 3.912l-83.51 6.253 22.888-28.883 39.836-17.23s17.85.992 21.376 12.624a14.048 14.048 0 0 1 .5 2.509 14.558 14.558 0 0 1-2.816 10.185 21.934 21.934 0 0 0-3.674 7.06z" class="prefix__cls-5" data-name="Path 3023" transform="translate(-227.793 -351.496)"/>
        <path id="prefix__Path_3024" d="M230.618 461.94l68.426 1.488v81.908l-64.955 44.036-15.619-14.38 3.223-47.6-3.223-44.378z" class="prefix__cls-8" data-name="Path 3024" transform="translate(-110.142 -232.903)"/>
        <path id="prefix__Path_3025" d="M266.24 445.28l79.89-24.619a12.1 12.1 0 0 1 4.438-.5l190.849 13.928a90.153 90.153 0 0 1 45.449 16.03c12.351 8.712 24.584 22.085 30.246 42.335a80.847 80.847 0 0 1-.818 45.533l-16.859 54.543s12.644-118.506-113.548-124.456z" class="prefix__cls-9" data-name="Path 3025" transform="translate(-184.687 -229.632)"/>
        <path id="prefix__Path_3026" d="M277.881 489.56v131.562s-21.891-3.079-25.784-7.353c-3.193-3.506-21.693-13.388-29.721-23.567a16.982 16.982 0 0 1-3.5-6.679c-2.687-12.237-13.636-41.155-13.636-41.155l2.975-28.263 12.4-18.346 24.048-10.909h18.594z" class="prefix__cls-10" data-name="Path 3026" transform="translate(-153.933 -262.259)"/>
        <path id="prefix__Path_3027" d="M244.563 497.85s-35.582 22.313-27.8 58.217c.635 2.925 1.185 5.866 1.547 8.841 1.423 11.613 9.961 44.983 60.959 60.374v3.471l-21.634-6.034-14.687-8.1-11.211-10.056-13.705-16.72-6.362-13.636-2.33-17.959-1.34-20.501 3.278-17.587 7.73-11.444 9.421-7.324z" class="prefix__cls-9" data-name="Path 3027" transform="translate(-155.325 -268.814)"/>
        <path id="prefix__Path_3028" d="M277.876 489.54v20.93c-15.52 1.686-63.572 11.4-55.038 66.939l-.471 12.753a16.982 16.982 0 0 1-3.5-6.679c-2.687-12.237-13.636-41.155-13.636-41.155l2.975-28.263 12.4-18.346 24.048-10.909h18.594z" class="prefix__cls-5" data-name="Path 3028" transform="translate(-153.928 -262.239)"/>
        <path id="prefix__Path_3029" d="M511.2 700a21.6 21.6 0 0 0-3.684 7.061c-2.162-2.479-2.628-5.33.5-7.586 3.912-2.846 5.216-7.785 5.509-12.168a14.046 14.046 0 0 1 .5 2.509A14.558 14.558 0 0 1 511.2 700z" data-name="Path 3029" transform="translate(-305.454 -364.331)" style="fill:#fff;opacity:.1"/>
        <path id="prefix__Path_3030" d="M819.908 636.245l-9.421 31.982-21.321 20.825-26.775 5.454-41.651-7.438V539.06s7.19-4.71 7.933-4.71 20.825 3.223 20.825 3.223l45.469 32.612 1.884 1.354 20.329 30.246z" class="prefix__cls-10" data-name="Path 3030" transform="translate(-413.827 -287.215)"/>
        <path id="prefix__Path_3031" d="M618.97 495.44v154.207l4.016.719V495.44z" class="prefix__cls-8" data-name="Path 3031" transform="translate(-312.057 -249.793)"/>
        <path id="prefix__Path_3032" d="M795.86 580.488c-29.75-24.445-62.823-28.04-75.12-28.486V539.11s7.19-4.711 7.933-4.711 20.825 3.223 20.825 3.223l45.469 32.611z" class="prefix__cls-5" data-name="Path 3032" transform="translate(-413.827 -287.24)"/>
        <path id="prefix__Path_3033" d="M448.624 489.477l-186.351-20.329-20.944-1.111a43.044 43.044 0 0 0-34.813 14.553c-10.909 12.545-19.154 34.674-7.11 72.671 0 0 12.56 49.252 73.384 59.833l176.738 40.049c3.917.888 7.785 1.983 11.6 3.228 16.045 5.271 70.409 18.926 96.02-27.494a78.217 78.217 0 0 0 8.023-52.341c-6.162-32.677-29.432-88.127-116.547-89.059zm91.3 139.277c-23.9 38.933-73.146 27.346-87.952 22.774-3.625-1.121-7.294-2.1-11.008-2.891L277.7 613.71c-56.248-9.238-67.866-52.242-67.866-52.242-9.5-28.263-5.345-46.5 2.33-58.043a41.294 41.294 0 0 1 36.536-18.108l19.3.992 166.682 22.268c3.372.451 6.768.749 10.17.863 74.123 2.514 97.185 43.272 103.046 71.361a65.785 65.785 0 0 1-7.974 47.953z" class="prefix__cls-7" data-name="Path 3033" transform="translate(-147.994 -253.747)"/>
        <path id="prefix__Path_3034" d="M103.869 409.246c6.1 4.086 15.371 2.142 15.371 2.142s13.978-6.619 18.108-6.619 14.176-4.091 14.176-4.091l-.342-2.757-1.021-8.305c6.362 4.958 13.432 3.248 16.913 2.886 3.739-.387 23.716-12.262 25.64-13.046a5.078 5.078 0 0 0 1.75-1.765 45.007 45.007 0 0 0 3.382-6.178c1.25-1.1 2.162-1.983 2.1-2.177a15.016 15.016 0 0 1 1.225-3.273 16.064 16.064 0 0 0 6.059-2.182 5.291 5.291 0 0 0 1.983-4.284s19.492-19.66 16.928-27.836 6.3-8.375 6.3-8.375 13.581-5.841 15.47-9.342c1.165-2.157 11.355-6.892 19.02-10.214l.942-.407c2.975 6.52 18.088 1.488 21.063-1.254 3.149-2.921 12.4-4.284 12.4-4.284s.4-38.18 3.347-43.029c1.4-2.306 1.74-9.842 1.706-17.121v-.774c4.135-.808 13.973-2.678 18.54-3.129 2.9-.288 5.915-2.092 8.231-3.848l.273.342a5.652 5.652 0 0 0 2.514.412 3.848 3.848 0 0 0 2.207-.412c1.775-.992 8.271-2.921 10.631-3.892s-.392-7.983-2.162-9.347-2.975-3.114-1.983-3.892-2.36-2.727-4.329-3.119-7.874-3.114-7.874-3.114-2.167-4.463-5.707-4.463-8.271-3.506-8.271-3.506c-.193-1.557-3.937-1.75-3.937-1.75s-14.171-10.908-16.536-9.54-8.856-2.142-8.856-2.142-7.968.893-9.842-.575a2.212 2.212 0 0 0-.5-1.319c-.421-1.319-2.479-3.124-4.463-4.626a17.553 17.553 0 0 0 .228-2.816 11.011 11.011 0 0 0-.045-1.215v-.2l.283-2.742a5.663 5.663 0 0 1 .684-2.578c.332-.5.823-.917 1.195-1.408a3.5 3.5 0 0 0 .238-.362l.06-.1a3.242 3.242 0 0 0 .149-.293l.045-.1a4.759 4.759 0 0 0 .253-.833v-.064c.025-.129.045-.258.06-.392a.223.223 0 0 1 0-.055 8.306 8.306 0 0 0-.446-3.342c-.59-1.84-1.512-3.615-1.611-5.534a17.123 17.123 0 0 0-.1-2.856c-.5-2.127-2.663-3.471-4.77-4.363-2.911-1.22-4.378-2.554-6.714-4.368-1.983-1.537-5.266-.764-7.765-.6-5.712.367-11.35 2.087-16.725 3.863a16.855 16.855 0 0 0-5.841 2.9 6.446 6.446 0 0 0-2.137 3.61 4.72 4.72 0 0 0-.064.992v.084a1.078 1.078 0 0 0 .045.377.928.928 0 0 0 0 .124 2.924 2.924 0 0 0 .109.446c.228.719.65 1.369.893 2.083a4.068 4.068 0 0 1 .134.5v.05a4.515 4.515 0 0 1 .079.5c.218 1.77-.436 3.62-.724 5.425-.04.253-.069.5-.089.773a9.242 9.242 0 0 0 .273 3.109.094.094 0 0 0 0 .035c.03.124.074.248.114.367a1.486 1.486 0 0 0 .05.159c.035.1.079.208.119.307l.084.208c.04.089.084.178.129.268s.074.149.114.218a2.719 2.719 0 0 0 .134.238c.045.079.094.154.144.228s.094.144.149.213.114.154.174.228l.154.188.208.218.164.164.243.208c.059.045.109.094.169.134s.2.144.307.208l.144.1c.159.094.327.178.5.258 1.131.5 2.559.7 3.238 1.7a2.092 2.092 0 0 1 .332.773v.372a16.152 16.152 0 0 0 .1 1.706 6.31 6.31 0 0 0 .055.922 2.643 2.643 0 0 0 .188.669 17.692 17.692 0 0 0 5.95 10.026c.06.3.129.655.2 1.051a19.69 19.69 0 0 1-5.727 2.975c-4.725 1.383-11.4 7.765-11.4 7.765s-3.322 23.944-4.12 26.865-1.388 14.216-1.388 14.216a32.1 32.1 0 0 1-1.983 7.006c-.838 1.646-.684 8.722 1.646 13.021a10.858 10.858 0 0 1-1.448 2.36c-4.725 5.454-18.9 5.256-23.627 5.256-4.349 0-5.692 2.638-5.876 3.054-8.652 2.479-36.667 10.452-39.99 11.9-3.937 1.721-6.1 18.723-6.1 18.723s-8.226 28.223-7.834 31.922-2.757 14-2.757 14 0 11.647-1.334 12.436a.124.124 0 0 1-.04.025c-1.378.585-1.185 6.233-1.185 6.233s1.016.293 2.6.694a46.358 46.358 0 0 1-3.188 9.679c-.615-.778-1.215-1.1-1.572-.2-.992 2.479-15.748 20-19.492 20-1.78 0-4.725 1.458-6.664 3.426-2.137 2.15-3.04 4.931.163 7.068zm67.707-101.434c16.735 1.557 34.649-1.185 34.649-1.185a39.924 39.924 0 0 1-2.559 6.833c-1.18 1.949-4.532 13.046-4.532 15.371s-5.315 22.387-6.887 23.359a5.863 5.863 0 0 0-1.716 2.479 23.279 23.279 0 0 0-1.041 2.975q.035.759.134 1.443c-1.175 1.076-2.42 2.207-3.525 3.208s-7.041 3.917-9.421 6.059-13.388 4.77-13.388 4.77a68.536 68.536 0 0 0-7.933 4.041c-3.416 2.058-6.833 4.676-7.725 7.259.387-4.353 1.016-9.594 1.438-12.927l.625-.025c5.519-.342 4.7-5.608 4.4-6.912-.04-.188-.069-.293-.069-.293 3.937-4.284 12.793-36.2 11.613-39.717s.992-6.62 1.453-6.62 1.106-3.892.124-6.034 4.361-4.084 4.361-4.084zm135.315-85.89l-1.046.258v-.223s.382 0 1.047-.034zm-57.2-29.379c-.159.2-.317.387-.5.57l-.2.208v-1.081c.239.096.467.21.7.304zm-19.72 37.773l.069 1.1s-.1.669-.3 1.815zm90.466-10.879l-3.436.59c.5-.183.967-.382 1.433-.6a3.3 3.3 0 0 1 1.1-.3 6.29 6.29 0 0 1 1.279.273 2.37 2.37 0 0 0-.375.038z" data-name="Path 3034" transform="translate(-101.77 -90.656)"/>
        <path id="prefix__Path_3035" d="M286.383 573.134s-3.967 8.186-3.763 8.766-8.5 7.527-8.5 7.527l-9.466-6.758.992-4.641s10.626-9.575 11.4-10.68 9.337 5.786 9.337 5.786z" class="prefix__cls-13" data-name="Path 3035" transform="translate(-183.885 -303.791)"/>
        <path id="prefix__Path_3036" d="M198.269 608.653c6.57 6.376 14.3 4.463 17.969 4.061s23.275-12.173 25.159-12.946a5.13 5.13 0 0 0 1.721-1.755 44.591 44.591 0 0 0 3.317-6.134c-.129.035-6.555 1.874-8.176 0 0 0-2.707-3.317-3.287-3.317s-.045-5.821-.045-5.821-6.912 3.887-9.228 6.015-13.14 4.73-13.14 4.73a66.441 66.441 0 0 0-7.775 4.011c-5.117 3.123-10.273 7.531-6.515 11.156z" class="prefix__cls-14" data-name="Path 3036" transform="translate(-149.769 -311.612)"/>
        <path id="prefix__Path_3037" d="M198.269 623.656c6.57 6.377 14.3 4.463 17.969 4.061s23.275-12.173 25.159-12.946a5.131 5.131 0 0 0 1.721-1.755c-2.286-1.364-17.221 8.132-21.4 9.872s-14.756.769-20.761-1.74c-2.975-1.255.04-5.107 3.818-8.647-5.108 3.123-10.265 7.531-6.506 11.155z" class="prefix__cls-5" data-name="Path 3037" transform="translate(-149.769 -326.615)"/>
        <path id="prefix__Path_3038" d="M181.493 591.636s-2.752 20.672-2.053 23.379-17.27-9.272-17.27-9.272 6.287-12.956 4.463-15.931 14.86 1.824 14.86 1.824z" class="prefix__cls-13" data-name="Path 3038" transform="translate(-132.219 -314.686)"/>
        <path id="prefix__Path_3039" d="M166.45 494.675s11.206 3.282 17.384 2.9c5.415-.337 4.606-5.563 4.324-6.857-.04-.183-.069-.288-.069-.288 3.863-4.254 12.56-35.939 11.4-39.414s.942-6.545 1.438-6.545 1.086-3.868.119-5.99 4.254-4.056 4.254-4.056c16.422 1.542 34-1.18 34-1.18a39.809 39.809 0 0 1-2.514 6.783c-1.16 1.934-4.463 12.941-4.463 15.262s-5.216 22.219-6.763 23.186a5.748 5.748 0 0 0-1.681 2.479 23.184 23.184 0 0 0-1.021 2.975c.58 12.946 15.262 7.933 17.389 6.183a5.7 5.7 0 0 0 .823-.843 5.4 5.4 0 0 0 1.106-3.411s19.13-19.511 16.616-27.628 6.183-8.305 6.183-8.305 13.333-5.8 15.188-9.277c1.145-2.137 11.142-6.833 18.668-10.135 4.715-2.068 8.459-3.58 8.459-3.58l-3.134-11.236-2.479-8.861-4.651-1.745-14.875-5.593-26.686-3.744-2.444.317-25.921 3.352s-37.853 10.829-41.72 12.525-5.99 18.579-5.99 18.579-8.112 28.015-7.715 31.7-2.707 13.884-2.707 13.884 0 11.558-1.314 12.341a.069.069 0 0 1-.04 0c-1.357.639-1.164 6.222-1.164 6.222z" class="prefix__cls-15" data-name="Path 3039" transform="translate(-134.372 -217.339)"/>
        <path id="prefix__Path_3040" d="M244.78 458.157c16.422 1.542 34-1.18 34-1.18 1.16-3.654 17.4-13.7 17.4-13.7-13.319-3.283-51.4 14.88-51.4 14.88z" class="prefix__cls-5" data-name="Path 3040" transform="translate(-173.868 -241.1)"/>
        <path id="prefix__Path_3041" d="M280.24 570.435c.58 12.946 15.262 7.933 17.389 6.183a5.7 5.7 0 0 0 .823-.843c-5.132 1.889-14.231 3.352-17.191-8.3a23.178 23.178 0 0 0-1.021 2.96z" class="prefix__cls-15" data-name="Path 3041" transform="translate(-191.745 -303.918)"/>
        <path id="prefix__Path_3042" d="M166.45 588.948s11.206 3.282 17.384 2.9c5.415-.337 4.606-5.563 4.324-6.857-5.672-.179-15.44-.709-20.513-2.246a.07.07 0 0 1-.04 0c-1.348.62-1.155 6.203-1.155 6.203z" class="prefix__cls-15" data-name="Path 3042" transform="translate(-134.372 -311.612)"/>
        <path id="prefix__Path_3043" d="M280.24 570.435c.58 12.946 15.262 7.933 17.389 6.183a5.7 5.7 0 0 0 .823-.843c-5.132 1.889-14.231 3.352-17.191-8.3a23.178 23.178 0 0 0-1.021 2.96z" class="prefix__cls-5" data-name="Path 3043" transform="translate(-191.745 -303.918)"/>
        <path id="prefix__Path_3044" d="M166.45 588.948s11.206 3.282 17.384 2.9c5.415-.337 4.606-5.563 4.324-6.857-5.672-.179-15.44-.709-20.513-2.246a.07.07 0 0 1-.04 0c-1.348.62-1.155 6.203-1.155 6.203z" class="prefix__cls-5" data-name="Path 3044" transform="translate(-134.372 -311.612)"/>
        <path id="prefix__Path_3045" d="M108.647 645.356c5.99 4.056 15.074 2.122 15.074 2.122s13.715-6.565 17.776-6.565 13.893-4.061 13.893-4.061l-.332-2.732-1.6-13.11s-15.049-.387-15.654-1.74c0 0-2.7-6.654-3.669-4.195s-15.455 19.834-19.13 19.834c-1.75 0-4.641 1.448-6.54 3.4-2.065 2.168-2.952 4.925.182 7.047z" class="prefix__cls-14" data-name="Path 3045" transform="translate(-104.202 -327.639)"/>
        <path id="prefix__Path_3046" d="M215.55 446.41s12.56 7.933 9.084 9.659-9.084-9.659-9.084-9.659z" class="prefix__cls-5" data-name="Path 3046" transform="translate(-159.131 -242.88)"/>
        <path id="prefix__Path_3047" d="M205 477.19s10.819 10.274 6.763 10.547S205 477.19 205 477.19z" class="prefix__cls-5" data-name="Path 3047" transform="translate(-153.812 -258.398)"/>
        <path id="prefix__Path_3048" d="M181.65 543s5.494 10.328 3.426 12.118S181.65 543 181.65 543z" class="prefix__cls-5" data-name="Path 3048" transform="translate(-142.04 -291.576)"/>
        <path id="prefix__Path_3049" d="M303.487 557.2c-1.934 1.929 18.346-6.376 13.715-6.763s-13.715 6.763-13.715 6.763z" class="prefix__cls-5" data-name="Path 3049" transform="translate(-203.4 -295.317)"/>
        <path id="prefix__Path_3050" d="M385.44 245.15l.65-.094c2.4-.367 11.112-1.735 18.926-3.431 1.9-.417 3.749-.848 5.454-1.294 5.985-1.567 10-3.258 7.438-4.646-3.392-1.84-5.177-5.182-6.119-8.057-.089-.283-.174-.555-.253-.828a21.474 21.474 0 0 1-.778-4.463s-21.817-7.73-17.583 0c2.087 3.793.684 6.887-1.284 9.054a17 17 0 0 1-4.705 3.506z" class="prefix__cls-13" data-name="Path 3050" transform="translate(-244.783 -128.179)"/>
        <path id="prefix__Path_3051" d="M384.111 259.76s-7.809 5.6-15.788.967-18.411 40.961-18.411 40.961l-10.818 26.662s-7.006 5.8 1.716 8.31 28.07-2.514 32.983 4.83 14.216 8.5 15.168 8.5 4.631-27.633 4.631-27.633l.957-39.995z" class="prefix__cls-5" data-name="Path 3051" transform="translate(-220.075 -148.778)"/>
        <path id="prefix__Path_3052" d="M341.566 333.54c8.722 2.509 28.075-2.514 32.988 4.829a18.871 18.871 0 0 0 8.325 6.709 21.817 21.817 0 0 0 6.858 1.815c.124 0 .307-.5.521-1.383 1.359-5.593 4.111-26.25 4.111-26.25l.952-39.995-9.178-19.908-1.254-2.717a16.555 16.555 0 0 1-3.967 1.939 13.969 13.969 0 0 1-11.811-.992c-2.34-1.359-4.894 1.607-7.329 6.476-5.871 11.722-11.082 34.486-11.082 34.486l-10.829 26.7a9.177 9.177 0 0 0-.734.7c-1.537 1.606-4.419 5.618 2.429 7.591z" data-name="Path 3052" transform="translate(-220.464 -147.205)" style="fill:#f3f5f9"/>
        <path id="prefix__Path_3053" d="M426.911 323.888a50.68 50.68 0 0 0-.258 10.175 119.16 119.16 0 0 0 1.815 14.379 5.665 5.665 0 0 0 .238.878c4.715-2.068 8.459-3.58 8.459-3.58l-3.134-11.24c1.359-5.593 4.111-26.25 4.111-26.25l.952-39.995-9.178-19.9c5.985-1.567 10-3.258 7.438-4.646-3.719-2.018-5.509-5.846-6.372-8.885a32.255 32.255 0 0 1-5.479 5.91l-.119.1-.694 6.743-.213 2.073-.446 4.3s2.127 50.814 3.669 53.714.774 8.5-.575 15.069c-.085.377-.135.758-.214 1.155z" class="prefix__cls-5" data-name="Path 3053" transform="translate(-264.238 -136.21)"/>
        <path id="prefix__Path_3054" d="M428.669 309.582c-1.349 6.57-.193 17.389 1.354 25.694s17.969 2.9 21.063 0 12.168-4.249 12.168-4.249.387-37.867 3.287-42.7c1.373-2.291 1.706-9.768 1.671-16.992-.025-6.486-.347-12.768-.466-14.875l-.045-.769s12.555-21.252 12.361-22.809-3.863-1.735-3.863-1.735-13.884-10.819-16.229-9.471-8.7-2.122-8.7-2.122-8.077.917-9.748-.645a.853.853 0 0 1-.3-.709c.188-2.479-8.231-7.755-8.494-7.933 7.1 6.386-4.378 16.229-5.682 17.31l-.119.1-1.354 13.115s2.127 50.814 3.669 53.714.781 8.506-.573 15.076z" class="prefix__cls-14" data-name="Path 3054" transform="translate(-265.02 -123.827)"/>
        <circle id="prefix__Ellipse_654" cx=".967" cy=".967" r=".967" class="prefix__cls-15" data-name="Ellipse 654" transform="translate(163.431 129.591)"/>
        <path id="prefix__Path_3055" d="M429.33 229.115l5.871 5.677 8.6-14.379a.853.853 0 0 1-.3-.709c.188-2.479-8.236-7.755-8.494-7.933 7.106 6.42-4.353 16.263-5.677 17.344z" class="prefix__cls-5" data-name="Path 3055" transform="translate(-266.91 -124.584)"/>
        <circle id="prefix__Ellipse_655" cx=".967" cy=".967" r=".967" class="prefix__cls-5" data-name="Ellipse 655" transform="translate(165.365 160.501)"/>
        <circle id="prefix__Ellipse_656" cx=".967" cy=".967" r=".967" class="prefix__cls-15" data-name="Ellipse 656" transform="translate(165.365 160.115)"/>
        <path id="prefix__Path_3056" d="M428.55 227.555l5.871 5.677 8.6-14.379a.853.853 0 0 1-.3-.709c.188-2.479-8.231-7.755-8.494-7.933 7.106 6.42-4.373 16.258-5.677 17.344z" class="prefix__cls-14" data-name="Path 3056" transform="translate(-266.517 -123.797)"/>
        <rect id="prefix__Rectangle_1571" width="13.447" height="28.412" class="prefix__cls-17" data-name="Rectangle 1571" rx="1.7" transform="rotate(-178.69 85.599 78.107)"/>
        <rect id="prefix__Rectangle_1572" width="13.447" height="28.412" class="prefix__cls-18" data-name="Rectangle 1572" rx="1.7" transform="rotate(-178.69 85.637 78.42)"/>
        <circle id="prefix__Ellipse_657" cx="2.112" cy="2.112" r="2.112" class="prefix__cls-19" data-name="Ellipse 657" transform="translate(161.299 136.428)"/>
        <path id="prefix__Path_3057" d="M284.52 320.718c4.829 2.127 36.519-3.471 41.155-4.829s11.4-11.786 8.117-19.338 1.155-14.875 1.155-14.875 6.942-14.875 8.5-17.776a133.578 133.578 0 0 0 5.216-12.748 1.16 1.16 0 0 0-.273-.888c-1.259-1.9-6.119-5.281-6.119-5.281-1.364.5-1.532-3.416-1.488-6.287.03-1.607.124-2.886.124-2.886s-.64.65-1.686 1.537c-.382.322-.818.679-1.3 1.046a20.047 20.047 0 0 1-6.059 3.327c-4.636 1.373-11.206 7.705-11.206 7.705l1.934 29.671s-4.463 27.906-9.084 33.316-18.549 5.216-23.186 5.216-5.8 3.09-5.8 3.09z" class="prefix__cls-5" data-name="Path 3057" transform="translate(-193.903 -136.704)"/>
        <path id="prefix__Path_3058" d="M283.74 318.4c4.829 2.122 36.519-3.471 41.155-4.834s11.4-11.786 8.117-19.338 1.155-14.875 1.155-14.875 6.942-14.875 8.5-17.776a133.581 133.581 0 0 0 5.216-12.748 1.165 1.165 0 0 0-.273-.888c-1.269-1.894-6.1-5.266-6.1-5.266-1.364.5-1.532-3.411-1.488-6.282.03-1.611.124-2.891.124-2.891s-.64.65-1.686 1.542c-.382.317-.818.674-1.3 1.041a20.047 20.047 0 0 1-6.089 3.327c-4.636 1.373-11.206 7.705-11.206 7.705l1.934 29.671s-4.463 27.906-9.084 33.316-18.544 5.216-23.186 5.216-5.789 3.08-5.789 3.08z" class="prefix__cls-14" data-name="Path 3058" transform="translate(-193.51 -135.539)"/>
        <path id="prefix__Path_3059" d="M389.73 235s.183 1.016.5 2.583c1.041 5.305 3.521 16.888 5.31 16.442 1.284-.322 3.471-2.593 5.137-4.557-1.254-1.914-6.1-5.3-6.1-5.3-1.364.5-1.532-3.411-1.488-6.282l-1.562-1.349z" class="prefix__cls-5" data-name="Path 3059" transform="translate(-246.946 -136.295)"/>
        <path id="prefix__Path_3060" d="M390.51 233.47s.183 1.016.5 2.583c1.041 5.305 3.52 16.888 5.31 16.442 1.284-.322 3.471-2.593 5.137-4.557-1.279-1.909-6.114-5.281-6.114-5.281-1.364.5-1.532-3.411-1.488-6.282l-1.562-1.349z" class="prefix__cls-14" data-name="Path 3060" transform="translate(-247.339 -135.524)"/>
        <path id="prefix__Path_3061" d="M356.939 336.335s9.664-1.929 12.366-6.178 21.108-7.933 18.842-3.471-18.842 18.986-18.842 18.986l-7.195 10.3-9.609-2.44-4.051-7.879z" class="prefix__cls-13" data-name="Path 3061" transform="translate(-226.134 -181.496)"/>
        <path id="prefix__Path_3062" d="M400.609 370.45s-9.357 3.471-10.765 8.112 10.765-8.112 10.765-8.112z" class="prefix__cls-5" data-name="Path 3062" transform="translate(-246.946 -204.584)"/>
        <path id="prefix__Path_3063" d="M412.184 381.34s.853 4.825-10.874 4.463z" class="prefix__cls-5" data-name="Path 3063" transform="translate(-252.784 -210.074)"/>
        <path id="prefix__Path_3064" d="M511.4 256.247l4.254-.387s4.636 3.471 8.112 3.471 5.6 4.463 5.6 4.463 5.8 2.707 7.73 3.094 5.216 2.316 4.249 3.089.193 2.514 1.934 3.863 4.463 8.31 2.122 9.277-8.692 2.9-10.413 3.863a4.794 4.794 0 0 1-3.863 0s-10.225-13.334-15.451-10.82-12.371 2.5-12.371 2.5l-5.6-11.781z" class="prefix__cls-5" data-name="Path 3064" transform="translate(-301.38 -146.812)"/>
        <path id="prefix__Path_3065" d="M343.406 322.38a5.182 5.182 0 0 0 3.6 2.5 27.271 27.271 0 0 0 11.251-1.041s-19.462-6.183-.724-21.217h-5.003l-1.686-.635.764-4 1.1-36.092-4.056-.967s-3.268 23.766-4.046 26.661-1.364 14.107-1.364 14.107a32.388 32.388 0 0 1-1.934 6.942c-.877 1.762-.634 9.616 2.098 13.742z" class="prefix__cls-14" data-name="Path 3065" transform="translate(-222.305 -149.368)"/>
        <path id="prefix__Path_3066" d="M347.59 364.119a5.172 5.172 0 0 0 3.6 2.5 27.271 27.271 0 0 0 11.251-1.041s-19.462-6.183-.724-21.227h-5l-1.671-.635c-2.79 4.884-7.104 13.56-7.456 20.403z" class="prefix__cls-5" data-name="Path 3066" transform="translate(-225.7 -191.107)"/>
        <path id="prefix__Path_3067" d="M346 364.129a5.182 5.182 0 0 0 3.6 2.5 27.271 27.271 0 0 0 11.251-1.041s-19.462-6.183-.724-21.217h-5.008l-1.686-.635c-2.733 4.878-7.066 13.55-7.433 20.393z" data-name="Path 3067" transform="translate(-224.899 -191.118)" style="fill:none"/>
        <path id="prefix__Path_3068" d="M346 364.129a5.182 5.182 0 0 0 3.6 2.5 27.271 27.271 0 0 0 11.251-1.041s-19.462-6.183-.724-21.217h-5.008l-1.686-.635c-2.733 4.878-7.066 13.55-7.433 20.393z" class="prefix__cls-14" data-name="Path 3068" transform="translate(-224.899 -191.118)"/>
        <path id="prefix__Path_3069" d="M398.44 231.406a17.587 17.587 0 0 0 19.9-3.778c-.089-.283-.174-.555-.253-.828a21.476 21.476 0 0 1-.778-4.463s-21.817-7.73-17.582 0c2.085 3.808.682 6.902-1.287 9.069z" class="prefix__cls-5" data-name="Path 3069" transform="translate(-251.337 -128.179)"/>
        <path id="prefix__Path_3070" d="M377.65 192.439v.174a15.875 15.875 0 0 0 .1 1.691c.06.555.139 1.061.238 1.582a17.587 17.587 0 0 0 33.876 2.271c.119-.342.223-.684.317-1.031a17.383 17.383 0 0 0 .635-4.686 10.832 10.832 0 0 0-.045-1.2 17.583 17.583 0 0 0-35.12 1.2z" class="prefix__cls-13" data-name="Path 3070" transform="translate(-240.855 -105.997)"/>
        <path id="prefix__Path_3071" d="M377.65 192.618a7.57 7.57 0 0 1 .1 1.691 6.279 6.279 0 0 0 .05.917 2.6 2.6 0 0 0 .188.664c.709 1.666 3.03 2.747 4.562 1.671a4.89 4.89 0 0 0 1.368-1.795c1.626-3.02 3.882-6.491 7.438-6.55a16.577 16.577 0 0 1 4.408.992c1.468.382 3.2.417 4.294-.58.843-.769 1.24-2.078 2.365-2.345s2.167.764 2.682 1.775.927 2.2 1.983 2.727c.466.228.992.3 1.488.545 2.1 1.15 1.135 5.182 3.317 5.836a1.589 1.589 0 0 0 .208.05l.109-1.081q.3-2.945.59-5.891a17.583 17.583 0 0 0-35.12 1.2z" class="prefix__cls-5" data-name="Path 3071" transform="translate(-240.855 -106.002)"/>
        <path id="prefix__Path_3072" d="M401.461 152.005c2.068.878 4.22 2.226 4.681 4.334a17.384 17.384 0 0 1 .1 2.831c.1 1.9.992 3.669 1.582 5.494s.788 3.967-.372 5.5c-.362.5-.843.888-1.17 1.393a5.7 5.7 0 0 0-.674 2.588l-.957 9.51c-2.449-.461-1.359-4.71-3.53-5.891-.451-.248-.992-.317-1.463-.55-1.046-.5-1.453-1.711-1.983-2.722s-1.537-2.048-2.682-1.775-1.522 1.582-2.36 2.345c-1.1.992-2.836.952-4.3.58a18.241 18.241 0 0 0-4.4-.992c-3.56.06-5.821 3.53-7.438 6.55a4.9 4.9 0 0 1-1.373 1.8c-1.726 1.21-4.463-.317-4.745-2.34-.169-1.135.188-2.4-.466-3.362s-2.073-1.165-3.178-1.681c-2.826-1.3-3.7-4.825-3.233-7.78.342-2.132 1.19-4.324.5-6.377-.243-.709-.654-1.354-.878-2.063-.62-1.983.392-4.185 1.983-5.6a16.131 16.131 0 0 1 5.732-2.876c5.271-1.77 10.8-3.471 16.412-3.838 2.454-.159 5.672-.927 7.621.6 2.307 1.788 3.73 3.117 6.591 4.322z" data-name="Path 3072" transform="translate(-233.433 -91.807)" style="fill:#585268"/>
        <circle id="prefix__Ellipse_658" cx=".967" cy=".967" r=".967" class="prefix__cls-5" data-name="Ellipse 658" transform="translate(162.464 114.324)"/>
        <circle id="prefix__Ellipse_659" cx=".967" cy=".967" r=".967" class="prefix__cls-15" data-name="Ellipse 659" transform="translate(162.464 113.937)"/>
        <circle id="prefix__Ellipse_660" cx=".967" cy=".967" r=".967" class="prefix__cls-5" data-name="Ellipse 660" transform="translate(168.648 174.995)"/>
        <circle id="prefix__Ellipse_661" cx=".967" cy=".967" r=".967" class="prefix__cls-15" data-name="Ellipse 661" transform="translate(168.648 174.608)"/>
        <circle id="prefix__Ellipse_662" cx=".967" cy=".967" r=".967" class="prefix__cls-5" data-name="Ellipse 662" transform="translate(165.365 191.03)"/>
        <circle id="prefix__Ellipse_663" cx=".967" cy=".967" r=".967" class="prefix__cls-15" data-name="Ellipse 663" transform="translate(165.365 190.644)"/>
        <path id="prefix__Path_3073" d="M369.289 299.24s-2.127 14.429 0 16.943 0-16.943 0-16.943z" class="prefix__cls-5" data-name="Path 3073" transform="translate(-236.163 -168.682)"/>
        <path id="prefix__Path_3074" d="M491.991 353.28s4.056 8.742 0 17.121-6.57 11.786-5.216 17.136 5.216-34.257 5.216-34.257z" class="prefix__cls-5" data-name="Path 3074" transform="translate(-295.686 -195.927)"/>
        <path id="prefix__Path_3075" d="M108.647 665.276c5.99 4.056 15.074 2.122 15.074 2.122s13.715-6.565 17.776-6.565 13.893-4.061 13.893-4.061l-.332-2.732c-4 .769-13.105 2.608-14.156 3.506-1.354 1.16-17.969 6.763-17.969 6.763s-11.315-1.413-14.464-6.064c-2.069 2.155-2.956 4.909.178 7.031z" class="prefix__cls-5" data-name="Path 3075" transform="translate(-104.202 -347.558)"/>
        <g id="prefix__Group_551" class="prefix__cls-6" data-name="Group 551" transform="translate(129.502 65.186)">
            <path id="prefix__Path_3076" d="M450.28 168.03v.094a.3.3 0 0 0 0-.094z" data-name="Path 3076" transform="translate(-406.974 -167.4)"/>
            <path id="prefix__Path_3077" d="M367.186 194.217c1.106.5 2.479.694 3.178 1.676s.3 2.226.466 3.362c.293 2.023 3.02 3.555 4.745 2.34a4.9 4.9 0 0 0 1.373-1.8c1.621-3.02 3.882-6.491 7.438-6.55a16.971 16.971 0 0 1 4.408.992c1.468.377 3.2.417 4.3-.58.838-.764 1.235-2.078 2.36-2.345s2.162.764 2.682 1.775.927 2.2 1.983 2.727c.466.228.992.3 1.463.545 2.172 1.185 1.081 5.454 3.53 5.891q.5-4.76.957-9.51a5.683 5.683 0 0 1 .674-2.559c.327-.5.808-.912 1.17-1.4a4.259 4.259 0 0 0 .793-2.043 4.958 4.958 0 0 1-.793 3.59c-.362.5-.843.888-1.17 1.393a5.7 5.7 0 0 0-.684 2.583q-.5 4.755-.957 9.51c-2.449-.461-1.359-4.71-3.53-5.891-.451-.248-.992-.317-1.463-.55-1.046-.5-1.453-1.711-1.983-2.722s-1.537-2.048-2.682-1.775-1.522 1.582-2.36 2.345c-1.1.992-2.836.952-4.3.58a18.226 18.226 0 0 0-4.408-.992c-3.555.059-5.816 3.53-7.438 6.55a4.9 4.9 0 0 1-1.373 1.8c-1.726 1.21-4.463-.317-4.745-2.34-.169-1.135.188-2.4-.466-3.362s-2.073-1.165-3.178-1.681c-2.583-1.19-3.535-4.239-3.317-7.011a6.33 6.33 0 0 0 3.327 5.452z" data-name="Path 3077" transform="translate(-363.389 -177.15)"/>
            <path id="prefix__Path_3078" d="M363.124 168.626c.223.709.635 1.359.878 2.063a5.95 5.95 0 0 1 .218 2.544 4.958 4.958 0 0 0-.218-.992c-.243-.709-.655-1.354-.878-2.063a4.353 4.353 0 0 1-.114-2.018 4.062 4.062 0 0 0 .114.466z" data-name="Path 3078" transform="translate(-362.941 -167.783)"/>
        </g>
        <path id="prefix__Path_3079" d="M541.289 464.252l-39.826-4.983a1.522 1.522 0 0 1-.907-2.568l16.7-17.354a1.517 1.517 0 0 1 1.269-.456l30.45 3.411a1.522 1.522 0 0 1 1.25 2.063L542.9 463.3a1.527 1.527 0 0 1-1.611.952z" class="prefix__cls-22" data-name="Path 3079" transform="translate(-302.603 -239.083)"/>
        <path id="prefix__Path_3080" d="M541.289 464.252l-39.826-4.983a1.522 1.522 0 0 1-.907-2.568l16.7-17.354a1.517 1.517 0 0 1 1.269-.456l30.45 3.411a1.522 1.522 0 0 1 1.25 2.063L542.9 463.3a1.527 1.527 0 0 1-1.611.952z" class="prefix__cls-5" data-name="Path 3080" transform="translate(-302.603 -239.083)"/>
        <path id="prefix__Path_3081" d="M540.385 463.323l-39.821-5a1.527 1.527 0 0 1-.907-2.573l16.7-17.354a1.537 1.537 0 0 1 1.269-.461l30.445 3.411a1.527 1.527 0 0 1 1.255 2.068L542 462.346a1.532 1.532 0 0 1-1.615.977z" class="prefix__cls-22" data-name="Path 3081" transform="translate(-302.151 -238.6)"/>
        <path id="prefix__Path_3082" d="M531.44 441.569l11.96.962 17.057-1.111h-.293l-15.8-1.527c-3.62-1.329-1.111-9.153-1.111-9.153l-12.1.615-.967.05c-4.286 10.015 1.254 10.164 1.254 10.164z" class="prefix__cls-17" data-name="Path 3082" transform="translate(-316.937 -234.979)"/>
        <path id="prefix__Path_3083" d="M531.44 442.2l11.96.962 17.057-1.111h-.293l-17.245.615-11.553-1.254c-3.282-.863-1.4-6.555-.218-9.421l-.967.05c-4.281 10.01 1.259 10.159 1.259 10.159z" class="prefix__cls-5" data-name="Path 3083" transform="translate(-316.937 -235.61)"/>
        <path id="prefix__Path_3084" d="M492.1 305.26l3.659 52.485.5 6.887a2.975 2.975 0 0 0 3 2.782h1.111l55.088-.332a1.552 1.552 0 0 0 1.527-1.7l-.5-6.892-3.877-46.153a3.168 3.168 0 0 0-2.117-2.678l-52.5-7.874a4.937 4.937 0 0 0-4.74.545 3.332 3.332 0 0 0-1.151 2.93z" data-name="Path 3084" transform="translate(-298.543 -169.789)" style="fill:#4c4c56"/>
        <path id="prefix__Path_3085" d="M499.5 415l.5 6.887a2.975 2.975 0 0 0 3 2.782h1.111l55.088-.332a1.552 1.552 0 0 0 1.527-1.7l-.5-6.892z" class="prefix__cls-18" data-name="Path 3085" transform="translate(-302.287 -227.044)"/>
        <ellipse id="prefix__Ellipse_664" cx=".739" cy="1.478" class="prefix__cls-19" data-name="Ellipse 664" rx=".739" ry="1.478" transform="translate(233.404 192.191)"/>
        <path id="prefix__Path_3086" d="M550.142 463.02s-15.064-5.687-19.125-1.552c0 0-.664 1.259 2.068 1.552l11.037.888s4.543.441 6.02-.888z" class="prefix__cls-17" data-name="Path 3086" transform="translate(-318.141 -249.711)"/>
        <path id="prefix__Path_3087" d="M550.988 460.652c-2.975-1.21-11.865-4.339-17.568-.878 0 0 6.307-.7 9.773 1.3s8.2 1.051 8.2 1.051l.069-.124a.957.957 0 0 0-.471-1.354z" class="prefix__cls-18" data-name="Path 3087" transform="translate(-319.388 -248.821)"/>
        <path id="prefix__Path_3088" d="M492.1 306.18l4.135 59.382a2.975 2.975 0 0 0 3 2.782h1.111a10.582 10.582 0 0 1-1.924-2.479s-4.061-59.669-4.358-61.147a3.025 3.025 0 0 0-.818-1.458 3.332 3.332 0 0 0-1.15 2.921z" class="prefix__cls-18" data-name="Path 3088" transform="translate(-298.544 -170.709)"/>
        <path id="prefix__Path_3089" d="M492.1 306.18l4.135 59.382a2.975 2.975 0 0 0 3 2.782h1.111a10.582 10.582 0 0 1-1.924-2.479s-4.061-59.669-4.358-61.147a3.025 3.025 0 0 0-.818-1.458 3.332 3.332 0 0 0-1.15 2.921z" class="prefix__cls-5" data-name="Path 3089" transform="translate(-298.544 -170.709)"/>
        <path id="prefix__Path_3090" d="M453.5 322.728c4.463-.992 14.875-4.046 14.875-4.046l1.864-.377c-.025-6.486-.347-12.768-.466-14.875h-.045s-8.89 2.9-11.013 4.463-8.7 1.155-8.7 1.155-10.234.55-18.728 10.036 17.771 4.616 22.213 3.644z" class="prefix__cls-5" data-name="Path 3090" transform="translate(-267.053 -170.795)"/>
        <path id="prefix__Path_3091" d="M496.912 302.127a2.583 2.583 0 0 1 .58 4.334c-2.355 1.949-5.791 4.279-9.074 4.606-5.454.55-18.644 3.193-19.953 3.471a1.594 1.594 0 0 0-.208.05c-1.086.317-10.586 3.1-14.776 4.016-4.463.992-30.742 5.806-22.219-3.659a29.914 29.914 0 0 1 18.554-10.031 1.983 1.983 0 0 1 .342 0c.992.045 6.6.238 8.543-1.165a18.256 18.256 0 0 1 3.193-1.592 61.088 61.088 0 0 1 13.065-3.768l9.089-1.587a2.608 2.608 0 0 1 1.527.2z" class="prefix__cls-13" data-name="Path 3091" transform="translate(-267.033 -167.434)"/>
        <path id="prefix__Path_3092" d="M512.945 256.247l4.249-.387s4.641 3.471 8.117 3.471 5.6 4.463 5.6 4.463 5.8 2.707 7.73 3.094 5.216 2.316 4.249 3.089.193 2.514 1.934 3.863 4.463 8.31 2.122 9.277-8.692 2.9-10.413 3.863a4.794 4.794 0 0 1-3.863 0s-10.25-13.344-15.47-10.83-12.366 2.509-12.366 2.509l-5.6-11.781z" class="prefix__cls-14" data-name="Path 3092" transform="translate(-302.151 -146.812)"/>
        <path id="prefix__Path_3093" d="M1008.571 742.884a8.359 8.359 0 0 0-1.126 2.127c-.074.183-.139.4-.208.6a2.308 2.308 0 0 0-.392-.139 5.453 5.453 0 0 0-1.77-.149 5.308 5.308 0 0 1 .035-.729c.069-2.613-.238-6.253-2.727-4.71-2.395 1.487-.689 3.967.853 5.553l.4.392c-1.4.992-1.671 3.337-1.909 5.772s-2.3 5.1-3.669 6.61c-.139.159-.268.293-.387.421a5.033 5.033 0 0 0-3.967-1.026l-.184-.669c-1.111-4.011-3.416-10.958-6.357-12.48.124-.154.253-.312.387-.5 1.25-1.631 2.653-4.061.575-4.681s-2.261 2.107-2.147 4.145a4.253 4.253 0 0 0 .06.729 3.049 3.049 0 0 0-2.177 1.061l-.317-.382c-1.686-1.983-4.78-5.142-5.712-2.757-.873 2.221 1.849 5.107 3.763 6.778l.119.1c-1.289 5.211 4.324 9.461 7.343 11.32l.387.238c-4.165 4.909-6.734 14.112-6.734 14.112l11.662 2.083s7.73-6.674 6.743-12.941h.079c7.725-1.547 9.485-9.788 8.281-14.677l.139-.059a8.77 8.77 0 0 0 3.575-2.707c2.136-2.994-2.401-6.386-4.618-3.435z" class="prefix__cls-3" data-name="Path 3093" transform="translate(-543.356 -390.487)"/>
        <path id="prefix__Path_3094" d="M1008.571 742.884a8.359 8.359 0 0 0-1.126 2.127c-.074.183-.139.4-.208.6a2.308 2.308 0 0 0-.392-.139 5.453 5.453 0 0 0-1.77-.149 5.308 5.308 0 0 1 .035-.729c.069-2.613-.238-6.253-2.727-4.71-2.395 1.487-.689 3.967.853 5.553l.4.392c-1.4.992-1.671 3.337-1.909 5.772s-2.3 5.1-3.669 6.61c-.139.159-.268.293-.387.421a5.033 5.033 0 0 0-3.967-1.026l-.184-.669c-1.111-4.011-3.416-10.958-6.357-12.48.124-.154.253-.312.387-.5 1.25-1.631 2.653-4.061.575-4.681s-2.261 2.107-2.147 4.145a4.253 4.253 0 0 0 .06.729 3.049 3.049 0 0 0-2.177 1.061l-.317-.382c-1.686-1.983-4.78-5.142-5.712-2.757-.873 2.221 1.849 5.107 3.763 6.778l.119.1c-1.289 5.211 4.324 9.461 7.343 11.32l.387.238c-4.165 4.909-6.734 14.112-6.734 14.112l11.662 2.083s7.73-6.674 6.743-12.941h.079c7.725-1.547 9.485-9.788 8.281-14.677l.139-.059a8.77 8.77 0 0 0 3.575-2.707c2.136-2.994-2.401-6.386-4.618-3.435z" class="prefix__cls-5" data-name="Path 3094" transform="translate(-543.356 -390.487)"/>
        <path id="prefix__Path_3095" d="M986.047 748.315l-1.364 3.992s-.754-.536-1.711-1.378c-1.914-1.671-4.636-4.557-3.763-6.778.932-2.385 4.026.764 5.712 2.757.679.792 1.126 1.407 1.126 1.407z" class="prefix__cls-3" data-name="Path 3095" transform="translate(-544.052 -392.556)"/>
        <path id="prefix__Path_3096" d="M997.367 743.982a18.908 18.908 0 0 1-1.339 1.577 19.343 19.343 0 0 1-.243-2.1c-.114-2.038.1-4.755 2.147-4.145s.674 3.037-.565 4.668z" class="prefix__cls-3" data-name="Path 3096" transform="translate(-552.481 -390.504)"/>
        <path id="prefix__Path_3097" d="M1030.466 744.926c-.044 1.314-.173 2.365-.173 2.365a17.225 17.225 0 0 1-1.7-1.522c-1.542-1.6-3.248-4.071-.853-5.553 2.503-1.542 2.795 2.097 2.726 4.71z" class="prefix__cls-3" data-name="Path 3097" transform="translate(-568.003 -390.819)"/>
        <path id="prefix__Path_3098" d="M1044.2 748.917a8.772 8.772 0 0 1-3.575 2.707 9.62 9.62 0 0 1-1.2.436l-1.607-2.256a15.958 15.958 0 0 1 .664-2.192 8.354 8.354 0 0 1 1.125-2.127c2.224-2.95 6.761.442 4.593 3.432z" class="prefix__cls-3" data-name="Path 3098" transform="translate(-573.686 -393.089)"/>
        <path id="prefix__Path_3099" d="M988.919 750.58c.679.793 1.126 1.408 1.126 1.408l-1.364 3.992s-.754-.536-1.711-1.378a7.775 7.775 0 0 1 1.53-3.502c.141-.193.285-.361.419-.52z" class="prefix__cls-5" data-name="Path 3099" transform="translate(-548.049 -396.23)"/>
        <path id="prefix__Path_3100" d="M997.392 748.286a18.91 18.91 0 0 1-1.339 1.577 19.332 19.332 0 0 1-.243-2.1 2.752 2.752 0 0 1 1.582.523z" class="prefix__cls-5" data-name="Path 3100" transform="translate(-552.506 -394.808)"/>
        <path id="prefix__Path_3101" d="M999.545 764.85l-3.392 1.488a20.527 20.527 0 0 1-1.8-1.021c-3.565-2.192-10.735-7.71-5.95-14.216s8.811 5.162 10.413 10.869c.484 1.709.729 2.88.729 2.88z" class="prefix__cls-3" data-name="Path 3101" transform="translate(-547.966 -395.525)"/>
        <path id="prefix__Path_3102" d="M1030.67 750.933a2.811 2.811 0 0 1 1.874-.843c-.044 1.314-.173 2.365-.173 2.365a17.2 17.2 0 0 1-1.7-1.522z" class="prefix__cls-5" data-name="Path 3102" transform="translate(-570.081 -395.983)"/>
        <path id="prefix__Path_3103" d="M1040.626 754.921a9.61 9.61 0 0 1-1.2.436l-1.607-2.256a15.955 15.955 0 0 1 .664-2.192c1.038.616 1.801 2.123 2.143 4.012z" class="prefix__cls-5" data-name="Path 3103" transform="translate(-573.686 -396.396)"/>
        <path id="prefix__Path_3104" d="M1019.567 769.965c-.188.04-.377.074-.57.1-11.37 1.726-3.749-4.408-3.749-4.408s.5-.471 1.2-1.245c1.369-1.487 3.436-4.16 3.669-6.609.357-3.684.773-7.14 5.122-6.129 4.274 1.006 5.087 16.139-5.672 18.291z" class="prefix__cls-3" data-name="Path 3104" transform="translate(-561.046 -396.693)"/>
        <path id="prefix__Rectangle_1573" d="M0 0H21.723V5.712H0z" class="prefix__cls-24" data-name="Rectangle 1573" transform="translate(436.585 401.579)"/>
        <path id="prefix__Rectangle_1574" d="M0 0H28.382V19.933H0z" class="prefix__cls-24" data-name="Rectangle 1574" transform="translate(433.134 383.015)"/>
        <path id="prefix__Rectangle_1575" d="M0 0H21.723V5.712H0z" class="prefix__cls-5" data-name="Rectangle 1575" transform="translate(436.585 401.579)"/>
        <path id="prefix__Rectangle_1576" d="M0 0H28.382V19.933H0z" class="prefix__cls-5" data-name="Rectangle 1576" transform="translate(433.134 383.015)"/>
        <path id="prefix__Rectangle_1577" d="M0 0H21.723V5.712H0z" class="prefix__cls-24" data-name="Rectangle 1577" transform="translate(438.013 401.579)"/>
        <path id="prefix__Path_3105" d="M1006.463 775c.5 1.706.734 2.876.734 2.876l-3.392 1.488a20.527 20.527 0 0 1-1.8-1.021 8.676 8.676 0 0 1 4.458-3.343z" class="prefix__cls-5" data-name="Path 3105" transform="translate(-555.627 -408.541)"/>
        <path id="prefix__Path_3106" d="M1019.567 783.1c-.188.04-.377.074-.57.1-11.37 1.725-3.749-4.408-3.749-4.408s.5-.471 1.2-1.245a7.545 7.545 0 0 1 3.119 5.553z" class="prefix__cls-5" data-name="Path 3106" transform="translate(-561.046 -409.827)"/>
        <path id="prefix__Path_3107" d="M989.22 793.266s6.367-22.809 15.292-15.768-3.63 17.85-3.63 17.85z" class="prefix__cls-3" data-name="Path 3107" transform="translate(-549.184 -409.12)"/>
        <circle id="prefix__Ellipse_665" cx=".714" cy=".714" r=".714" class="prefix__cls-5" data-name="Ellipse 665" transform="translate(442.535 358.436)"/>
        <circle id="prefix__Ellipse_666" cx=".714" cy=".714" r=".714" class="prefix__cls-5" data-name="Ellipse 666" transform="translate(442.476 361.768)"/>
        <circle id="prefix__Ellipse_667" cx=".714" cy=".714" r=".714" class="prefix__cls-5" data-name="Ellipse 667" transform="translate(463.182 359.091)"/>
        <circle id="prefix__Ellipse_668" cx=".714" cy=".714" r=".714" class="prefix__cls-5" data-name="Ellipse 668" transform="translate(446.522 376.172)"/>
        <circle id="prefix__Ellipse_669" cx=".714" cy=".714" r=".714" class="prefix__cls-5" data-name="Ellipse 669" transform="translate(461.695 364.624)"/>
        <circle id="prefix__Ellipse_670" cx=".714" cy=".714" r=".714" class="prefix__cls-5" data-name="Ellipse 670" transform="translate(454.316 372.007)"/>
        <circle id="prefix__Ellipse_671" cx=".714" cy=".714" r=".714" class="prefix__cls-5" data-name="Ellipse 671" transform="translate(444.975 359.864)"/>
        <circle id="prefix__Ellipse_672" cx=".714" cy=".714" r=".714" class="prefix__cls-5" data-name="Ellipse 672" transform="translate(461.219 361.233)"/>
        <circle id="prefix__Ellipse_673" cx=".714" cy=".714" r=".714" class="prefix__cls-5" data-name="Ellipse 673" transform="translate(458.779 366.766)"/>
        <circle id="prefix__Ellipse_674" cx=".714" cy=".714" r=".714" class="prefix__cls-5" data-name="Ellipse 674" transform="translate(451.282 375.637)"/>
        <circle id="prefix__Ellipse_675" cx=".714" cy=".714" r=".714" class="prefix__cls-5" data-name="Ellipse 675" transform="translate(449.735 372.126)"/>
        <circle id="prefix__Ellipse_676" cx=".714" cy=".714" r=".714" class="prefix__cls-5" data-name="Ellipse 676" transform="translate(446.046 364.208)"/>
        <path id="prefix__Rectangle_1578" d="M0 0H21.723V2.087H0z" class="prefix__cls-5" data-name="Rectangle 1578" transform="translate(438.013 401.579)"/>
        <path id="prefix__Rectangle_1579" d="M0 0H28.382V19.933H0z" class="prefix__cls-24" data-name="Rectangle 1579" transform="translate(434.562 383.015)"/>
        <circle id="prefix__Ellipse_677" cx=".714" cy=".714" r=".714" class="prefix__cls-5" data-name="Ellipse 677" transform="translate(452.234 378.85)"/>
        <circle id="prefix__Ellipse_678" cx=".714" cy=".714" r=".714" class="prefix__cls-5" data-name="Ellipse 678" transform="translate(447.95 379.742)"/>
    </g>
</svg>
