<svg xmlns="http://www.w3.org/2000/svg" width="9.75" height="13" viewBox="0 0 9.75 13">
    <path id="prefix__Icon_awesome-transgender" fill="#999999" d="M9.445 0H7.439a.305.305 0 0 0-.216.521l.43.429L5.6 3a3.657 3.657 0 1 0-2.76 6.66v.7h-.91a.306.306 0 0 0-.3.3v1.02a.306.306 0 0 0 .3.3h.914v.72a.306.306 0 0 0 .3.3h1.02a.306.306 0 0 0 .3-.3v-.711h.914a.306.306 0 0 0 .3-.3v-1.025a.306.306 0 0 0-.3-.3h-.909v-.7a3.657 3.657 0 0 0 2.282-5.518L8.8 2.1l.429.429a.3.3 0 0 0 .521-.216V.3a.306.306 0 0 0-.3-.3zM3.656 8.125a2.031 2.031 0 1 1 2.032-2.031 2.034 2.034 0 0 1-2.032 2.031z" data-name="Icon awesome-transgender"/>
</svg>
