<svg xmlns="http://www.w3.org/2000/svg" id="prefix__award" width="60" height="60" viewBox="0 0 41.32 41.32">
    <defs>
        <style>
            .prefix__cls-3{fill:#f6c358}
        </style>
    </defs>
    <circle id="prefix__Ellipse_15" cx="20.66" cy="20.66" r="20.66" fill="#e05b49" data-name="Ellipse 15"/>
    <path id="prefix__Path_35" d="M135.363 92.738h-.455l-2.3-2.3H121.9v2.3h-2.821a1.383 1.383 0 0 0-1.01 2.331l3.864 4.119a5.326 5.326 0 0 0 1.772 3.454l1.695 1.692v1.11c-1.837.429-3.134 1.478-3.134 2.7h-1.023l-1.369 6.508 8.518 8.52a20.661 20.661 0 0 0 19.388-18.587l-11.361-11.359a1.362 1.362 0 0 0-1.056-.488z" data-name="Path 35" opacity="0.1" transform="translate(-106.561 -81.889)"/>
    <g id="prefix__Group_16" data-name="Group 16" transform="translate(11.132 10.849)">
        <path id="prefix__Path_36" d="M263.673 121.63l-.638-.6 4.3-4.58a.509.509 0 0 0-.371-.858h-3.606v-.874h3.606a1.384 1.384 0 0 1 1.009 2.33z" class="prefix__cls-3" data-name="Path 36" transform="translate(-249.291 -114.719)"/>
        <path id="prefix__Path_37" d="M122.379 121.63l-4.3-4.58a1.384 1.384 0 0 1 1.009-2.33h3.612v.874h-3.606a.509.509 0 0 0-.371.858l4.3 4.58z" class="prefix__cls-3" data-name="Path 37" transform="translate(-117.705 -114.719)"/>
    </g>
    <path id="prefix__Path_38" fill="#64798a" d="M155.532 284.152h-14.767l1.37-6.507h12.028z" data-name="Path 38" transform="translate(-127.452 -251.387)"/>
    <path id="prefix__Path_39" fill="#3a556a" d="M158.422 295.769l.8-3.8h9.829l.8 3.8z" data-name="Path 39" transform="translate(-143.439 -264.359)"/>
    <path id="prefix__Path_40" fill="#fcd462" d="M172.928 98.649v-8.2h-10.71v8.2a5.352 5.352 0 0 0 3.5 5.017v1.787c-1.835.43-3.133 1.478-3.133 2.7h9.981c0-1.226-1.3-2.273-3.133-2.7v-1.787a5.352 5.352 0 0 0 3.495-5.017z" data-name="Path 40" transform="translate(-146.877 -81.898)"/>
    <path id="prefix__Rectangle_6" fill="#dc8744" d="M0 0H10.711V1.239H0z" data-name="Rectangle 6" transform="translate(15.343 8.555)"/>
    <path id="prefix__Path_41" fill="#e56353" d="M188.04 119.633l.759 2.337h2.457l-1.988 1.445.759 2.337-1.988-1.445-1.988 1.445.759-2.337-1.988-1.445h2.457z" data-name="Path 41" transform="translate(-167.344 -108.319)"/>
</svg>
