<svg xmlns="http://www.w3.org/2000/svg" width="30.253" height="35.75" viewBox="0 0 30.253 35.75">
    <defs>
        <style>
            .prefix__cls-5{fill:#ffcbbe}.prefix__cls-6{fill:#eaac9d}.prefix__cls-8{fill:#5e54ac}
        </style>
    </defs>
    <g id="prefix__profile" transform="translate(-3.563 -2.97)">
        <g id="prefix__Group_577" data-name="Group 577" transform="translate(3.563 25.383)">
            <g id="prefix__Group_575" data-name="Group 575">
                <path id="prefix__Path_3286" fill="#524798" d="M91.061 346.236a10.464 10.464 0 0 0-9.615-6.333H70.423a10.464 10.464 0 0 0-9.615 6.333 19.836 19.836 0 0 0 30.253 0z" data-name="Path 3286" transform="translate(-60.808 -339.903)"/>
            </g>
            <g id="prefix__Group_576" data-name="Group 576" transform="translate(0 1.846)">
                <path id="prefix__Path_3287" fill="#453d81" d="M91.061 368.208a10.5 10.5 0 0 0-3.682-4.487 19.842 19.842 0 0 1-26.424 4.162c-.051.107-.1.215-.147.325a19.836 19.836 0 0 0 30.253 0z" data-name="Path 3287" transform="translate(-60.808 -363.721)"/>
            </g>
        </g>
        <g id="prefix__Group_578" data-name="Group 578" transform="translate(11.494 2.97)">
            <path id="prefix__Path_3288" fill="#333e49" d="M177.26 53.246l-1.753-1.667a3.259 3.259 0 0 0-3.295-.724L165.915 53a4.079 4.079 0 0 0-2.766 3.862v2.918l.31.906h14.218l.31-.906v-4.841a2.336 2.336 0 0 0-.727-1.693z" data-name="Path 3288" transform="translate(-163.149 -50.682)"/>
        </g>
        <g id="prefix__Group_579" data-name="Group 579" transform="translate(18.166 2.97)">
            <path id="prefix__Path_3289" fill="#1d2023" d="M256.688 53.246l-1.753-1.667a3.259 3.259 0 0 0-3.295-.724l-2.391.813a3.258 3.258 0 0 1 1.972.885l1.753 1.667a2.335 2.335 0 0 1 .726 1.693v4.77h3.4l.31-.906v-4.838a2.336 2.336 0 0 0-.726-1.693z" data-name="Path 3289" transform="translate(-249.249 -50.682)"/>
        </g>
        <g id="prefix__Group_580" data-name="Group 580" transform="translate(25.28 13.127)">
            <path id="prefix__Path_3290" d="M341.619 183.361c-.76 1.614-.826 3.761.129 4.21s2.567-.968 3.328-2.582.269-2.578-.685-3.028-2.011-.214-2.772 1.4z" class="prefix__cls-5" data-name="Path 3290" transform="translate(-341.04 -181.76)"/>
        </g>
        <g id="prefix__Group_581" data-name="Group 581" transform="translate(13.708 20.848)">
            <path id="prefix__Path_3291" d="M197.831 290.411h-1.815a4.3 4.3 0 0 1-4.3-4.3v-4.731h10.409v4.734a4.3 4.3 0 0 1-4.294 4.297z" class="prefix__cls-6" data-name="Path 3291" transform="translate(-191.719 -281.38)"/>
        </g>
        <path id="prefix__Path_3292" fill="#df9380" d="M241.963 281.38v4.734a4.3 4.3 0 0 1-3.614 4.242 4.332 4.332 0 0 0 .684.055h1.815a4.3 4.3 0 0 0 4.3-4.3v-4.731z" data-name="Path 3292" transform="translate(-221.028 -260.532)"/>
        <g id="prefix__Group_582" data-name="Group 582" transform="translate(11.494 10.717)">
            <path id="prefix__Path_3293" d="M176.637 150.653h-12.143a1.347 1.347 0 0 0-1.347 1.347v4.8a7.84 7.84 0 0 0 3.466 6.507l2.156 1.449a3.221 3.221 0 0 0 .693.353 10.579 10.579 0 0 0 1.513-.024 7.737 7.737 0 0 0 1.612-.481l1.93-1.3a7.84 7.84 0 0 0 3.467-6.507V152a1.347 1.347 0 0 0-1.347-1.347z" class="prefix__cls-5" data-name="Path 3293" transform="translate(-163.147 -150.653)"/>
        </g>
        <g id="prefix__Group_583" data-name="Group 583" transform="translate(17.809 10.717)">
            <path id="prefix__Path_3294" d="M250.961 150.652v6.148a7.84 7.84 0 0 1-3.466 6.507l-2.156 1.449a3.224 3.224 0 0 1-.694.353 3.221 3.221 0 0 0 2.9-.353l2.155-1.456a7.84 7.84 0 0 0 3.467-6.507V152a1.347 1.347 0 0 0-1.348-1.347h-.858z" class="prefix__cls-6" data-name="Path 3294" transform="translate(-244.645 -150.652)"/>
        </g>
        <g id="prefix__Group_584" data-name="Group 584" transform="translate(25.28 13.127)">
            <path id="prefix__Path_3295" d="M341.619 183.361c-.76 1.614-.826 3.761.129 4.21s2.567-.968 3.328-2.582.269-2.578-.685-3.028-2.011-.214-2.772 1.4z" class="prefix__cls-6" data-name="Path 3295" transform="translate(-341.04 -181.76)"/>
        </g>
        <g id="prefix__Group_585" data-name="Group 585" transform="translate(8.138 13.127)">
            <path id="prefix__Path_3296" d="M123.674 183.361c.76 1.614.826 3.761-.129 4.21s-2.567-.968-3.328-2.582-.269-2.578.685-3.028 2.011-.214 2.772 1.4z" class="prefix__cls-5" data-name="Path 3296" transform="translate(-119.845 -181.76)"/>
        </g>
        <g id="prefix__Group_586" data-name="Group 586" transform="translate(14.473 14.465)">
            <circle id="prefix__Ellipse_659" cx=".897" cy=".897" r=".897" class="prefix__cls-8" data-name="Ellipse 659"/>
        </g>
        <g id="prefix__Group_587" data-name="Group 587" transform="translate(21.469 14.465)">
            <circle id="prefix__Ellipse_660" cx=".897" cy=".897" r=".897" class="prefix__cls-8" data-name="Ellipse 660"/>
        </g>
        <g id="prefix__Group_588" data-name="Group 588" transform="translate(16.202 18.986)">
            <path id="prefix__Path_3297" fill="#e28086" d="M226.572 259.628a3.121 3.121 0 0 1-2.569-1.35.586.586 0 1 1 .965-.665 1.947 1.947 0 0 0 3.209 0 .586.586 0 1 1 .965.665 3.121 3.121 0 0 1-2.57 1.35z" data-name="Path 3297" transform="translate(-223.9 -257.359)"/>
        </g>
    </g>
</svg>
