<svg xmlns="http://www.w3.org/2000/svg" width="499.492" height="279" viewBox="0 0 499.492 279">
    <defs>
        <style>
            .prefix__cls-2{fill:#a0616a}.prefix__cls-3{fill:#2f2e41}.prefix__cls-4{fill:#d0cde1}.prefix__cls-5{opacity:.1}.prefix__cls-6{fill:#3f3d56}.prefix__cls-7{fill:#fff}.prefix__cls-8{fill:#e6e6e6}.prefix__cls-9{fill:#6c63ff}
        </style>
    </defs>
    <g id="prefix__Group_845" data-name="Group 845" transform="translate(-435 -138)">
        <text id="prefix___404" fill="#7a81ea" data-name="404" font-family="Inter-Black, Inter" font-size="233px" font-weight="800" transform="translate(435 362)">
            <tspan x="0" y="0">404</tspan>
        </text>
        <g id="prefix__Group_821" data-name="Group 821" transform="translate(-15357 3867.847)">
            <path id="prefix__Path_4717" d="M316.874 456.438s2.638 5.111 4.122 6.265-2.391 2.556-2.391 2.556l-4.534-7.09z" class="prefix__cls-2" data-name="Path 4717" transform="translate(15594.066 -4126.33)"/>
            <path id="prefix__Path_4718" d="M187.427 366.821s12.283 3.215 13.355 5.358 4.369 7.337 4.369 7.337l-4.864 3.874-4.781-7.172-13.19-5.935z" class="prefix__cls-3" data-name="Path 4718" transform="translate(15707.521 -4049.161)"/>
            <path id="prefix__Path_4719" d="M326.37 496.079s-1.154-.989-1.484-.33-1.319 4.039-1.319 4.039 1.4 1.319 4.287.495a1.8 1.8 0 0 1 1.9 0c1.154.577 5.441-.577 5.276-2.473s-4.534-1.731-4.534-1.731-1.84-2.062-2.074-1.278.1.866.1.866-1.492 1.566-2.152.412z" class="prefix__cls-3" data-name="Path 4719" transform="translate(15585.89 -4159.211)"/>
            <path id="prefix__Path_4720" d="M237.147 492.641l-.824 6.925h4.039s-.33-5.358-.247-6.018-2.968-.907-2.968-.907z" class="prefix__cls-2" data-name="Path 4720" transform="translate(15661.016 -4157.504)"/>
            <path id="prefix__Path_4721" d="M249.677 382.845s2.226 3.3.907 3.545-2.391-3.545-2.391-3.545z" class="prefix__cls-2" data-name="Path 4721" transform="translate(15650.795 -4062.959)"/>
            <path id="prefix__Path_4722" d="M136.649 376.383s-1.649 4.864 4.864 6.183 8.487 2.39 8.487 2.39l.824 8.409 5.688.33s2.72-12.778-.824-14.426a86.48 86.48 0 0 0-11.046-3.545z" class="prefix__cls-3" data-name="Path 4722" transform="translate(15747.006 -4056.826)"/>
            <path id="prefix__Path_4723" d="M226.583 521.852a10.4 10.4 0 0 1 1.319-.577s.725-1.671 2.052-1.5l2.894 4.225s4.369 3.133 1.319 3.957a11.275 11.275 0 0 1-5.441.165l-1.237-.907s.165-.907-.907-.742c0 0-2.226-.907-2.143-1.566a22.582 22.582 0 0 1 1.833-3.53z" class="prefix__cls-3" data-name="Path 4723" transform="translate(15671.25 -4180.863)"/>
            <circle id="prefix__Ellipse_1110" cx="3.297" cy="3.297" r="3.297" class="prefix__cls-2" data-name="Ellipse 1110" transform="translate(15895.237 -3703.073)"/>
            <path id="prefix__Path_4724" d="M203.245 233.878a24.456 24.456 0 0 1-3.545 2.222c-.577.082 2.72 4.122 2.72 4.122s1.566-2.556 2.556-2.885-1.731-3.459-1.731-3.459z" class="prefix__cls-2" data-name="Path 4724" transform="translate(15692.609 -3934.684)"/>
            <path id="prefix__Path_4725" d="M145.663 243.242s-1.237-1.649-1.978-1.649-7.419.742-8 6.265a145.859 145.859 0 0 0-.247 15.168s-.495-2.391 5.029-1.4c0 0 6.595-1.4 7.749-1.4s1.649-11.788 1.649-11.788l-1.877-2.91s-.841 1.588-2.325-2.286z" class="prefix__cls-4" data-name="Path 4725" transform="translate(15747.966 -3941.327)"/>
            <path id="prefix__Path_4726" d="M225.36 286.105l1.237.66 1.484 9.068 2.061 4.7s-2.226-.766-2.391.153l-3.3-4.769z" class="prefix__cls-4" data-name="Path 4726" transform="translate(15671.236 -3979.656)"/>
            <path id="prefix__Path_4727" d="M223.554 203.216l1.794.224c-.034.365-.025.817.3.99.152.081.345.077.48.184.324.258.007.814.19 1.186l.525.139a1.014 1.014 0 0 0 1.378.413 1.967 1.967 0 0 0 .691-1 2.521 2.521 0 0 0 .288-1.422c-.1-.518-.525-.948-.544-1.476-.009-.236.041-.53-.158-.657a.841.841 0 0 0-.291-.077c-.458-.1-.713-.57-1.055-.89a3.687 3.687 0 0 0-2.8-.594 2.483 2.483 0 0 0-.823.143 2.4 2.4 0 0 0-.775.618 8.1 8.1 0 0 0-1.383 1.832 3.252 3.252 0 0 0-.329 2.23c-.019-.072.6-.54.682-.615a1.617 1.617 0 0 0 .4-.62c.308-.624.736-.694 1.43-.608z" class="prefix__cls-3" data-name="Path 4727" transform="translate(15674.238 -3905.696)"/>
            <path id="prefix__Path_4728" d="M162.1 281.777l.247 5.771 3.667 4.3-3.337-4.795z" class="prefix__cls-5" data-name="Path 4728" transform="translate(15730.412 -3973.638)"/>
            <path id="prefix__Path_4729" d="M114.625 293.054l2.885 6.677 3.71 3.05-3.957-2.72z" class="prefix__cls-5" data-name="Path 4729" transform="translate(15771.296 -3983.349)"/>
            <path id="prefix__Path_4730" d="M248.7 348.19l1.743 1.2a.481.481 0 0 1 .133.592l-.233.481.054.037-.265.547-.054-.037-1.92 3.963a.372.372 0 0 1-.553.177l-1.638-1.127a.554.554 0 0 1-.153-.681l2.424-5a.31.31 0 0 1 .462-.148z" class="prefix__cls-6" data-name="Path 4730" transform="translate(15652.89 -4033.073)"/>
            <path id="prefix__Path_4731" d="M207.976 337.471l1.876 1.291 2.448-5.051-1.877-1.291z" class="prefix__cls-7" data-name="Path 4731" transform="translate(15690.911 -4017.247)"/>
            <path id="prefix__Path_4732" d="M233.037 377.276s3.27 2.266 2.13 2.975-3.513-2.437-3.513-2.437z" class="prefix__cls-2" data-name="Path 4732" transform="translate(15665.036 -4058.164)"/>
            <path id="prefix__Path_4733" d="M151.335 256.431s-4.287 1.237-3.05 5.029c.3.915.659 1.9 1.035 2.86 1.181 3.03 2.51 5.878 2.51 5.878l3.726 3.369 5.012 1.412.577-.495s.165-1.566-.577-1.731a9.163 9.163 0 0 1-1.9-.824l-2.968-4.369s-.078-10.882-4.365-11.129z" class="prefix__cls-4" data-name="Path 4733" transform="translate(15737.019 -3954.104)"/>
        </g>
        <g id="prefix__Group_820" data-name="Group 820" transform="translate(-15924.292 3713.178)">
            <path id="prefix__Path_4738" d="M930.083 498.465a4.1 4.1 0 0 0-3.14-1.864s-2.032-.26-3.336 2.453c-1.215 2.528-2.892 4.97-.27 5.562l.474-1.474.293 1.584a10.268 10.268 0 0 0 1.122.019c2.808-.091 5.482.026 5.4-.981-.118-1.34.474-3.585-.543-5.299z" class="prefix__cls-3" data-name="Path 4738" transform="translate(15679.522 -3905.657)"/>
            <path id="prefix__Path_4739" d="M885.3 609.628l-.222 3.992 6.505.665.222-4.14-2.218-1.4z" class="prefix__cls-2" data-name="Path 4739" transform="translate(15716.704 -4002.444)"/>
            <path id="prefix__Path_4740" d="M903.571 659.115c-.2-1.886-7.94-2.742-9.8-2.921l-.7-.406-.222-2.366s-6.875-.591-7.392-.665-.961.887-.961 1.109a5.257 5.257 0 0 1-.485 1.983c-.839.674-3.4 2.795-3.4 3.6 0 .961 2.033 13.048 2.033 13.048l.222 2.513 2.07.37-.148-7.836s.739-4.509-.3-5.766v-.518a15.613 15.613 0 0 0 4.105-1.652 4.255 4.255 0 0 1 1.662-.088c.066.039.142.079.227.119a.343.343 0 0 1 .031.031l.008-.013a16.242 16.242 0 0 0 6.386 1.232 5.081 5.081 0 0 1 3.253.591c-.813 1.035-.222 3.992-.222 3.992l.074 6.357 1.035 1.257h1.4v-3.475s1.346-8.352 1.124-10.496z" class="prefix__cls-3" data-name="Path 4740" transform="translate(15715.918 -4043.171)"/>
            <circle id="prefix__Ellipse_1111" cx="2.439" cy="2.439" r="2.439" class="prefix__cls-2" data-name="Ellipse 1111" transform="translate(16603.375 -3407.194)"/>
            <path id="prefix__Path_4741" d="M931.765 545.676s.37 1.626-.148 1.774a7 7 0 0 0-1.183.517l-.591 1.922v1.922l7.171.813.222-.665V551l-.813-1.479-.37-.37s-1.626-1.774-1.257-3.474z" class="prefix__cls-2" data-name="Path 4741" transform="translate(15672.57 -3948.878)"/>
            <path id="prefix__Path_4742" d="M986.412 594.9a20.231 20.231 0 0 1 0 3.77 16.382 16.382 0 0 0-.148 2.957l-1.626-.3v-3.992l.37-2.144z" class="prefix__cls-2" data-name="Path 4742" transform="translate(15624.318 -3992.223)"/>
            <circle id="prefix__Ellipse_1112" cx="1.508" cy="1.508" r="1.508" class="prefix__cls-3" data-name="Ellipse 1112" transform="translate(16605.213 -3410.555)"/>
            <path id="prefix__Path_4743" d="M949.616 482.281a1.508 1.508 0 0 1 1.349-1.5 1.508 1.508 0 1 0 0 3 1.508 1.508 0 0 1-1.349-1.5z" class="prefix__cls-3" data-name="Path 4743" transform="translate(15655.438 -3891.725)"/>
            <path id="prefix__Path_4744" d="M906.148 486.371l-2.06-1.079-2.845.442-.589 2.6 1.465-.056.409-.955v.939l.676-.026.393-1.521.245 1.619 2.4-.049z" class="prefix__cls-3" data-name="Path 4744" transform="translate(15702.99 -3893.735)"/>
            <path id="prefix__Path_4745" d="M893.011 818.356s1.049.494 1.357.679 1.543-.185 1.3.926a5.352 5.352 0 0 1-1.3 2.16s-.494.555-.494.926-1.234 3.209-2.715 3.085a1.332 1.332 0 0 1-1.234-1.6l.308-1.6a18.7 18.7 0 0 1 .74-2.653 2.7 2.7 0 0 1 .432.494 2.737 2.737 0 0 0 1.606-2.417z" class="prefix__cls-4" data-name="Path 4745" transform="translate(15707.735 -4189)"/>
            <path id="prefix__Path_4746" d="M1024.922 802.877s-1.049.494-1.357.679-1.543-.185-1.3.926a5.353 5.353 0 0 0 1.3 2.16s.494.555.494.926 1.234 3.209 2.715 3.085a1.332 1.332 0 0 0 1.234-1.6l-.308-1.6a18.714 18.714 0 0 0-.74-2.653 2.7 2.7 0 0 0-.432.494 2.738 2.738 0 0 1-1.606-2.417z" class="prefix__cls-4" data-name="Path 4746" transform="translate(15591.209 -4175.37)"/>
            <path id="prefix__Path_4747" d="M957.38 645.955v-.587h-.13v-.261a.456.456 0 0 0-.456-.456h-1.564a.456.456 0 0 0-.456.456v4.367a.456.456 0 0 0 .456.456h1.564a.456.456 0 0 0 .456-.456v-2.738h.13v-.587h-.13v-.2z" class="prefix__cls-4" data-name="Path 4747" transform="translate(15650.618 -4036.036)"/>
            <circle id="prefix__Ellipse_1113" cx=".261" cy=".261" r=".261" class="prefix__cls-6" data-name="Ellipse 1113" transform="translate(16606.432 -3390.342)"/>
            <path id="prefix__Path_4748" d="M900.315 584.372l-1.331 5.47a1.541 1.541 0 0 0 .665 1.922 28.036 28.036 0 0 0 3.844 1.7s2.366 3.253 2.661 1.922-1.774-3.031-1.774-3.031l-3.622-2.292 1.4-3.844z" class="prefix__cls-2" data-name="Path 4748" transform="translate(15699.844 -3982.954)"/>
            <path id="prefix__Path_4749" d="M973.242 641.913s1.109-.148 1.035 1.109-1.552 1.4-1.552 1.4-.665 2.809-1.626 2.292.517-3.327.517-3.327l1.257-.961z" class="prefix__cls-2" data-name="Path 4749" transform="translate(15636.526 -4033.62)"/>
            <path id="prefix__Path_4750" d="M912.6 562.356l1.183-2.439-2.366.813a2.736 2.736 0 0 0-1.4 2.218c-.074 1.552 1.7 2.366 1.7 2.366a12.749 12.749 0 0 1 .148 2.513 4.845 4.845 0 0 0 0 1.479s2.846-.776 4.251.185a2.645 2.645 0 0 0 2.55.407s-.074-1.848.517-2.144a2.15 2.15 0 0 0 .591-2.587s1.183.148 1.109-.961a2.907 2.907 0 0 0-1.626-2.513c-.961-.444-1.067-.514-1.067-.514l1.363 2.51v.665a11.656 11.656 0 0 0-4.8-1.668 3.18 3.18 0 0 0-2.149.707z" class="prefix__cls-3" data-name="Path 4750" transform="translate(15690.033 -3961.419)"/>
        </g>
        <g id="prefix__Group_824" data-name="Group 824" transform="translate(906.916 266.583)">
            <path id="prefix__Path_4756" d="M866.783 439.724l-1.668-.834 1.39-3.754.366-1.893a1.431 1.431 0 0 1 2.337-.815 1.431 1.431 0 0 1 .186 1.981l-1.36 1.7z" class="prefix__cls-2" data-name="Path 4756" transform="translate(-844.638 -423.144)"/>
            <path id="prefix__Path_4757" d="M890.087 448.1l-.308.963-1.381 4.326a2.313 2.313 0 0 1-4.189.487l-4.476-7.672a2.418 2.418 0 0 1-.183-.375 2.362 2.362 0 0 1 4.327-1.882l2.733 5.822 1.251-2.78z" class="prefix__cls-8" data-name="Path 4757" transform="translate(-867.386 -431.935)"/>
            <path id="prefix__Path_4758" d="M905.338 541.357l-3.058.278-1.668-12.095c-5.5.925-10.687 1.221-15.174.1a2.833 2.833 0 0 1-2.014-3.64 24.922 24.922 0 0 1 2.591-5.083l7.368 2.641.278 1.112 7.859-.995a2.884 2.884 0 0 1 3.245 2.751z" class="prefix__cls-3" data-name="Path 4758" transform="translate(-883.281 -497.249)"/>
            <path id="prefix__Path_4759" d="M869.7 645.136a1.094 1.094 0 0 0-.489-1.073l-3.139-1.541-2.367.3-.559 2a1.066 1.066 0 0 0 .933 1.234l4.417.01a1.094 1.094 0 0 0 1.204-.93z" class="prefix__cls-3" data-name="Path 4759" transform="translate(-844.312 -598.685)"/>
            <path id="prefix__Path_4760" d="M900.679 532.032l-3.058.278-1.668-12.095c-5.5.925-10.687 1.221-15.174.1a2.833 2.833 0 0 1-2.014-3.638 24.92 24.92 0 0 1 2.591-5.083l7.368 2.641.278 1.112 7.859-.995a2.885 2.885 0 0 1 3.245 2.751z" class="prefix__cls-3" data-name="Path 4760" transform="translate(-877.849 -489.47)"/>
            <path id="prefix__Path_4761" d="M865.042 635.811a1.094 1.094 0 0 0-.49-1.073l-3.139-1.541-2.367.3-.559 2a1.067 1.067 0 0 0 .933 1.234l4.417.01a1.094 1.094 0 0 0 1.205-.933z" class="prefix__cls-3" data-name="Path 4761" transform="translate(-838.881 -590.906)"/>
            <circle id="prefix__Ellipse_1114" cx="3.754" cy="3.754" r="3.754" class="prefix__cls-2" data-name="Ellipse 1114" transform="translate(13.516 1.968)"/>
            <path id="prefix__Path_4762" d="M849.081 245.532l-4.31-.556 1.668-5.144h4.171z" class="prefix__cls-2" data-name="Path 4762" transform="translate(-831.951 -232.164)"/>
            <path id="prefix__Path_4763" d="M918.954 451.093a5.889 5.889 0 0 1-.938 1.678 8 8 0 0 1-2.039 1.779c-.135.087-.275.171-.42.254l-.828.705L911.8 458l-8.063-3.058a31.4 31.4 0 0 1 6.54-9.593 4.587 4.587 0 0 1 4.9-1.866l3.017.754c1.078 2.534 1.477 4.863.76 6.856z" class="prefix__cls-8" data-name="Path 4763" transform="translate(-900.651 -432.539)"/>
            <path id="prefix__Path_4764" d="M855.331 424.421a.289.289 0 0 1 .361-.036c.074.078 2.489 1.509 2.337 1.651a.289.289 0 0 1-.084.236l-5.612 5.588a.289.289 0 0 1-.208.085c-.113.144-1.952-1.952-2.045-1.992a.291.291 0 0 1 .006-.409z" class="prefix__cls-6" data-name="Path 4764" transform="translate(-830.46 -416.683)"/>
            <path id="prefix__Path_4765" d="M860.389 427.424l-.228-.146a.219.219 0 0 1-.313.286l-1.478-1.016a.219.219 0 0 1 .057-.387c-.058-.02-.153-.139-.217-.064l-4.972 4.886c-.177.086 1.807 1.805 1.808 1.873.148.165 5.248-5.305 5.356-5.309a.079.079 0 0 0-.014-.123z" class="prefix__cls-7" data-name="Path 4765" transform="translate(-833.385 -418.13)"/>
            <path id="prefix__Path_4766" d="M797.978 247.773l1.525 1.438 3.628-3.584-1.841-1.2z" class="prefix__cls-9" data-name="Path 4766" transform="translate(-776.712 -235.998)"/>
            <path id="prefix__Path_4767" d="M855.4 439.523c-.087-.063.3-.345.317-.392a.054.054 0 0 1 .075 0c.087.063-.3.345-.317.392a.054.054 0 0 1-.075 0z" class="prefix__cls-8" data-name="Path 4767" transform="translate(-829.123 -429.01)"/>
            <path id="prefix__Path_4768" d="M858.628 442.682c.048-.018.327-.4.392-.317.087.064-.3.346-.317.392a.053.053 0 0 1-.075-.075z" class="prefix__cls-8" data-name="Path 4768" transform="translate(-832.884 -431.71)"/>
            <path id="prefix__Path_4769" d="M886.4 454.876a.356.356 0 0 1-.713 0 .356.356 0 0 1 .713 0z" class="prefix__cls-9" data-name="Path 4769" transform="translate(-864.745 -441.867)"/>
            <path id="prefix__Path_4770" d="M916.416 470.076a8 8 0 0 1-2.039 1.779c-.135.088-.275.171-.42.254l-.828.705c-1.643-2.16-1.551-8.722-1.551-8.722l2.5.25z" data-name="Path 4770" opacity="0.2" transform="translate(-899.051 -449.843)"/>
            <path id="prefix__Path_4771" d="M866.007 451.371l-1.668-.834 1.39-3.753.366-1.893a1.431 1.431 0 0 1 2.337-.815 1.431 1.431 0 0 1 .186 1.981l-1.36 1.7z" class="prefix__cls-2" data-name="Path 4771" transform="translate(-843.734 -432.859)"/>
            <path id="prefix__Path_4772" d="M887.087 458.642l2.224 1.112-1.688 5.289a2.314 2.314 0 0 1-1.668 1.547 2.314 2.314 0 0 1-2.52-1.06l-4.476-7.672a2.362 2.362 0 0 1 .762-3.211 2.362 2.362 0 0 1 3.383.953l2.732 5.821z" class="prefix__cls-8" data-name="Path 4772" transform="translate(-866.482 -441.66)"/>
            <path id="prefix__Path_4773" d="M900.952 382.434a3.68 3.68 0 0 0 1.022.6 1.367 1.367 0 0 0 1.151-.083 1.312 1.312 0 0 0 .537-1.224 2.637 2.637 0 0 0-.543-1.278 5.473 5.473 0 0 0-8.851-.049 3.071 3.071 0 0 0-.66 1.623c-.054 1.043.66 2.016.583 3.058a2.872 2.872 0 0 1-1.445 2.1 11.307 11.307 0 0 1-2.451.987 5.68 5.68 0 0 0-2.3 1.258 2.316 2.316 0 0 0-.621 2.421 2.877 2.877 0 0 0 1.609 1.384 7.848 7.848 0 0 0 5.629.211c.678-.235 1.417-.7 1.428-1.422a3.26 3.26 0 0 0-.22-.9.937.937 0 0 1 .111-.886.826.826 0 0 1 1.058.008 5.478 5.478 0 0 1 .774.857 2.286 2.286 0 0 0 1.958.791 1.635 1.635 0 0 0 1.412-1.453c.052-1.258-1.525-2.046-1.7-3.293a3.513 3.513 0 0 1 .9-2.293 2.594 2.594 0 0 0 .578-2.345" class="prefix__cls-3" data-name="Path 4773" transform="translate(-882.27 -378.174)"/>
        </g>
    </g>
</svg>
