<svg xmlns="http://www.w3.org/2000/svg" id="prefix__cloud-computing" width="27.161" height="21.248" viewBox="0 0 27.161 21.248">
    <defs>
        <style>
            .prefix__cls-1{fill:#333743}
        </style>
    </defs>
    <g id="prefix__Group_1359" data-name="Group 1359" transform="translate(8.411 6.699)">
        <g id="prefix__Group_1358" data-name="Group 1358">
            <path id="prefix__Path_2138" d="M164.347 182.808l-5.191 5.184 1.487 1.487 2.085-2.1.494-1.251v11.225h2.254v-11.209l.462 1.229 2.119 2.107 1.477-1.48z" class="prefix__cls-1" data-name="Path 2138" transform="translate(-159.156 -182.808)"/>
        </g>
    </g>
    <g id="prefix__Group_1361" data-name="Group 1361">
        <g id="prefix__Group_1360" data-name="Group 1360">
            <path id="prefix__Path_2139" d="M20.931 61.4h-.113A8.418 8.418 0 0 0 4.5 64.247v.53a4.543 4.543 0 1 0 .086 9.086h5.635v-2.258H4.588a2.282 2.282 0 0 1 0-4.564l2.254.056s-.1-2.321-.1-2.851A6.153 6.153 0 0 1 18.9 62.86l.247 1.06 1.06-.192a3.973 3.973 0 1 1 .721 7.878h-3.944v2.257h3.946a6.232 6.232 0 1 0 0-12.464z" class="prefix__cls-1" data-name="Path 2139" transform="translate(-.002 -55.891)"/>
        </g>
    </g>
</svg>
