<svg xmlns="http://www.w3.org/2000/svg" width="592.156" height="303.554" viewBox="0 0 592.156 303.554">
    <defs>
        <style>
            .prefix__cls-2{fill:#a8d29f}.prefix__cls-3{fill:#4a75cb}.prefix__cls-4{fill:#699dee}.prefix__cls-5{fill:#d86713}.prefix__cls-6{fill:#f1a34f}.prefix__cls-8{fill:#82b378}.prefix__cls-10{fill:#ed975d}.prefix__cls-11{fill:#2b478b}.prefix__cls-12{fill:#233862}.prefix__cls-13{fill:#1e3d70}.prefix__cls-14{fill:#ffb27d}.prefix__cls-15{fill:#2c3a64}.prefix__cls-18{fill:#ee9849}.prefix__cls-19{fill:#e58638}.prefix__cls-20{fill:#2a4e96}.prefix__cls-21{fill:#35488b}.prefix__cls-23{fill:#4271bc}
        </style>
    </defs>
    <g id="prefix__g10" transform="translate(-30.032 2238.502)">
        <g id="prefix__g12" transform="translate(30.032 -2238.502)">
            <g id="prefix__g18" transform="translate(13.442 42.793)">
                <path id="prefix__path20" d="M357.276-1507.272s-63.611-135.46 61.759-135.46c66.241 0 38.953-37.167 83.989-80.18s202.535-77.378 236.054 5.682-49.32 146.122 30.729 135.3c96.2-13 134.2 74.655 134.2 74.655H357.276" transform="translate(-341.14 1767.941)" style="fill:#fbecdb"/>
            </g>
            <g id="prefix__g22" transform="translate(179.028 209.087)">
                <path id="prefix__path24" d="M1688.034-705.4c-5.933-4.339-18.064-1.409-27.015 1.724a40.811 40.811 0 0 0-4.923-5.709c19.285-12.424 45.922-38.917 31.8-41.161-12.272-1.949-28.835 21.9-37.686 36.415-9.195-6.183-23.276-10.729-44.78-9.151-55.809 4.091-99.405-31.908-131.543-19.9-25.552 9.545-48.97 14.894-71.553 13.067.972-16.5 1.184-48.89-11.771-52.25-13.152-3.411-.252 33.375 6.917 51.743q-2.522-.324-5.034-.772c-4.644-9.154-12.3-21.134-20.7-21.544-7.912-.387 1.852 10.385 11.46 19.509-27.617-5.8-60.377 16.651-60.921 43.2h344.788a31.823 31.823 0 0 0-3.314-8.983c13.326-.261 30.714-1.472 24.263-6.183" class="prefix__cls-2" transform="translate(-1322.297 782.591)"/>
            </g>
            <path id="prefix__path26" d="M1229.489-356.919v20.52h90.873v-20.52h-90.873" class="prefix__cls-3" transform="translate(-1066.124 637.845)"/>
            <path id="prefix__path28" d="M1063.463-356.919v20.52h90.873v-20.52h-90.873" class="prefix__cls-4" transform="translate(-928.117 637.845)"/>
            <g id="prefix__g30" transform="translate(289.987 206.863)">
                <path id="prefix__path32" d="M1979.77-701.191h67.665v-94.579h-67.665v94.579" class="prefix__cls-5" transform="translate(-1979.77 795.769)"/>
            </g>
            <g id="prefix__g34" transform="translate(269.126 206.862)">
                <path id="prefix__path36" d="M1856.157-701.193h67.664v-94.579h-67.664v94.579" class="prefix__cls-6" transform="translate(-1856.157 795.772)"/>
            </g>
            <g id="prefix__g38" transform="translate(336.789 206.863)">
                <path id="prefix__path40" d="M2257.085-795.769l20.863 14.2v-14.2h-20.863" transform="translate(-2257.085 795.769)" style="fill:#c95c12"/>
            </g>
            <path id="prefix__path42" d="M766.562-684.052s-12.655 9.41-15.122 8.839 9.248-10.157 9.248-10.157c-4.409-2.12-18.113-.79-18.113-.79s-4.565 14.721-6.816 13.56 4.707-12.829 4.707-12.829c-4.91-.3-10.932 3.351-10.932 3.351-8.244 6.51.542 16.762.542 16.762a25.065 25.065 0 0 1-6.9 9.68 21.755 21.755 0 0 0-7.952 15.326l1.349.119s2.14-9.152 6.028-13.479c.151-.158.371-.383.642-.655.633-.587 1.077-1.028 1.375-1.355 1.935-1.861 4.609-4.228 5.9-4.458a2.476 2.476 0 0 1-.055-.648l.055.648c.441 5.18 10.492 9.705 16.675 10.635s4.272-1.611 2.142-5.378-8.873-5.457-10.411-7.192 1.642-1.739 5.368-.038 4.235 6.24 10.212 9.1 14.969-7.057 14.969-7.057c-4.763-.241-11.564-5.414-11.318-7s11.546 2.73 13.477 2.937 6.327-2.2 7.007-9.975-12.074-9.953-12.074-9.953" class="prefix__cls-8" transform="translate(-638.65 911.864)"/>
            <path id="prefix__path44" d="M368.686-815.283s13.977-7.828 7.454-18.45c0 0-5.218-6.523-10.808-8.2 0 0 2.982 15.839 0 16.213s-2.05-17.891-2.05-17.891-14.722-7.081-20.5-6.521c0 0 9.132 15.468 6.15 15.094S335.7-851.064 335.7-851.064s-15.1-2.8-17.518 6.15 1.491 13.418 3.727 13.976 16.586.373 16.213 2.237-10.063 4.845-15.468 3.168c0 0 5.964 14.721 13.79 13.976s10.25-5.59 15.095-5.963 8.386.932 5.963 2.237-10.622.428-14.536 3.753-7.081 5.378.187 6.868 20.313.56 22.922-5.031l2.609-5.59" class="prefix__cls-2" transform="translate(-307.981 1048.939)"/>
            <path id="prefix__path46" d="M410.139-755.586a29.727 29.727 0 0 1-3.727-13.6c-4.472-14.165-43.607-26.836-43.607-26.836 49.757 20.126 41 32.426 41 32.426 1.341.783 3.351 4.512 4.747 7.374.2.486.513 1.161.981 2.077.189.412.341.752.446.988 2.562 6.409 1.2 17.48 1.2 17.48l1.553.416a25.812 25.812 0 0 0-2.594-20.322" class="prefix__cls-8" transform="translate(-345.707 1002.844)"/>
            <path id="prefix__path48" d="M693.293-935.966s-18.424-10.317-9.826-24.32c0 0 6.878-8.6 14.248-10.808 0 0-3.93 20.88 0 21.37s2.7-23.582 2.7-23.582 19.406-9.335 27.022-8.6c0 0-12.037 20.389-8.107 19.9s17.441-21.127 17.441-21.127 19.9-3.685 23.092 8.107-1.966 17.687-4.913 18.422-21.863.493-21.372 2.95 13.265 6.386 20.389 4.174c0 0-7.861 19.408-18.178 18.425s-13.511-7.37-19.9-7.86-11.054 1.226-7.861 2.948 14 .563 19.161 4.948 9.335 7.088-.246 9.053-26.776.738-30.215-6.631l-3.439-7.37" class="prefix__cls-2" transform="translate(-610.352 1158.827)"/>
            <path id="prefix__path50" d="M762.5-910.584s-51.587 16.706-57.483 35.376a39.187 39.187 0 0 1-4.913 17.932s-7.956 12.081-3.42 26.787l2.047-.549s-1.789-14.593 1.588-23.042c.138-.311.338-.758.587-1.3.617-1.206 1.031-2.095 1.293-2.736 1.839-3.771 4.49-8.688 6.257-9.719 0 0-11.546-16.213 54.044-42.745" class="prefix__cls-8" transform="translate(-622.081 1098.07)"/>
            <path id="prefix__path52" d="M571.518-424.79a36.088 36.088 0 0 0 36.089-36.089h-72.179a36.089 36.089 0 0 0 36.09 36.089" class="prefix__cls-6" transform="translate(-489.197 724.26)"/>
            <path id="prefix__path54" d="M602.061-425.064a36.374 36.374 0 0 1-4.484.275 36.089 36.089 0 0 1-36.088-36.089h8.966a36.1 36.1 0 0 0 31.606 35.814" transform="translate(-510.86 724.26)" style="fill:#ffb973"/>
            <path id="prefix__path56" d="M601.2-261.746h-64.274a4.453 4.453 0 0 0-4.453 4.453h73.176a4.453 4.453 0 0 0-4.452-4.453" class="prefix__cls-6" transform="translate(-486.741 558.734)"/>
            <path id="prefix__path58" d="M602.029-460.879H528.95a.553.553 0 0 0-.554.554.553.553 0 0 0 .554.554h73.08a.553.553 0 0 0 .553-.554.553.553 0 0 0-.553-.554" class="prefix__cls-5" transform="translate(-483.352 724.26)"/>
            <g id="prefix__g60" transform="translate(336.148 68.098)">
                <path id="prefix__path62" d="M2314.3-1612.762c-1.045-.159-4.2 2.755-4.2 2.755-6.73.778-16.572 2.565-20.112 3.247-2.514.484-9.267-1.819-15.866-4.462-7.847-3.145-15.469-6.774-15.469-6.774-4.353-.222-9.3 7.721-.468 12.771 1.349.771 6.41 2.087 12.243 3.288 8.044 1.657 17.549 3.1 20.783 2.591 3.759-.588 14.394-4.479 20.722-7.459l.017-.008.068-.033a7.748 7.748 0 0 1 2.964-.806c1.187.071 3.827-2.1 3.907-2.678s-3.543-2.273-4.591-2.432" class="prefix__cls-10" transform="translate(-2253.288 1618.001)"/>
            </g>
            <g id="prefix__g64" transform="translate(322.506 105.228)">
                <path id="prefix__path66" d="M2238.892-1329.817l-3.707.753s-16.959-19.056-19.576-27.074c-1.4-4.285-10.354-6.137-19.712-8.556-8.143-2.106-16.592-4.642-20.628-9.593-8.675-10.635 5.447-23.7 5.447-23.7s15.014 8.923 27.966 18.142c9.052 6.443 17.1 13.029 18.312 16.814 2.947 9.2 9.19 26.7 11.9 33.217" class="prefix__cls-11" transform="translate(-2172.451 1397.99)"/>
            </g>
            <g id="prefix__g68" transform="translate(382.291 172.131)">
                <path id="prefix__path70" d="M2528.4-994.014h2.084c.7-.109 1.211-.312 1.929-.405a1.927 1.927 0 0 1 1.687.405.164.164 0 0 1 .019.021h8.856c.223-.318.008-1.055-.2-1.6a1.249 1.249 0 0 0-.826-.758 9.57 9.57 0 0 1-4.489-2.049c-.951-.862-4.6-3.169-4.6-3.169h-.019c-.082 0-.462.119-2.125 1.522-.859.724-2.323-1.022-2.323-1.022a2.069 2.069 0 0 0-.478.651 2.213 2.213 0 0 0-.193 1.359 8.752 8.752 0 0 1-.633 3.283c-.2.608-.378 1.039-.378 1.039s-.1.5 1.693.724" class="prefix__cls-12" transform="translate(-2526.702 1001.57)"/>
            </g>
            <g id="prefix__g72" transform="translate(322.506 105.228)">
                <path id="prefix__path74" d="M2208.685-1379.85l-12.785 15.15c-8.144-2.106-16.594-4.643-20.628-9.593-8.675-10.635 5.445-23.7 5.445-23.7s15.018 8.923 27.969 18.142" class="prefix__cls-13" transform="translate(-2172.452 1397.993)"/>
            </g>
            <g id="prefix__g76" transform="translate(305.931 109.696)">
                <path id="prefix__path78" d="M2115.429-1365.758s-1.03 3.25-2.71 8.14c-2.122 6.183-5.281 14.986-8.708 23.151-.754 1.794-1.52 3.558-2.293 5.255-2.851 6.283-5.768 11.668-8.336 14.405-4.618 4.92-15.84 36.551-15.84 36.551l-2.8-.774s-3.9-27.009 9.911-42.379a.957.957 0 0 0 .279-.574.005.005 0 0 0 0-.005c.185-2.275.842-12.463 2.273-22.787.35-2.533.749-5.072 1.2-7.505.029-.156.058-.31.089-.463 2.1-11.251 4.109-16.255 6.706-18.772l19.1 5.435 1.131.322" class="prefix__cls-11" transform="translate(-2074.238 1371.515)"/>
            </g>
            <path id="prefix__path80" d="M2067.031-833.12h2.086c.7-.11 1.213-.313 1.928-.407a1.927 1.927 0 0 1 1.688.407l.02.02h8.854c.223-.32.009-1.055-.2-1.6a1.26 1.26 0 0 0-.828-.758 9.552 9.552 0 0 1-4.487-2.048c-.954-.862-4.606-3.171-4.606-3.171h-.018c-.081 0-.461.119-2.124 1.521-.858.725-2.323-1.021-2.323-1.021a2.085 2.085 0 0 0-.479.65 2.217 2.217 0 0 0-.191 1.361 8.811 8.811 0 0 1-.632 3.283c-.207.608-.382 1.037-.382 1.037s-.1.5 1.694.727" class="prefix__cls-12" transform="translate(-1760.908 1039.962)"/>
            <path id="prefix__path82" d="M1905.306-1561.183s-3.2 7.815-6.879 15.423c-3.1 6.4-6.542 12.646-8.724 13.981-3.079 1.879-11.557 7.183-17.059 11.14 0 0-4.292-.033-4.96.789s-2.205 4.514-1.755 4.888 3.861.2 4.69-.649a7.749 7.749 0 0 1 2.734-1.4l.074-.023h.018c6.683-2.056 17.169-6.34 20.342-8.436 2.734-1.8 8.792-9.266 13.623-15.907 3.5-4.816 6.362-9.2 6.839-10.675 3.13-9.678-5.875-12.223-8.945-9.127" class="prefix__cls-14" transform="translate(-1595.087 1639.905)"/>
            <g id="prefix__g84" transform="translate(308.677 36.287)">
                <path id="prefix__path86" d="M2108.764-1794.709a16.529 16.529 0 0 0-1.142-1.48 3.536 3.536 0 0 0 1.409-.211c1.124-.462 1.633-4.024 1.463-5.079s-1.726-4.111-3.646-4.414-3.907 1.829-3.907 1.829c.356-1.542 3.606-2.429 3.606-2.429-6.694 1.234-6.352 5.7-6.309 6.113-6.126-2.183-9.725 9.358-9.725 9.358l15.874 9.355s.042-2.551 1.556-2.385c2.362.255 4.329-5.543.82-10.656" class="prefix__cls-15" transform="translate(-2090.514 1806.493)"/>
            </g>
            <g id="prefix__g88" transform="translate(316.36 59.591)">
                <path id="prefix__path90" d="M2147.615-1655.709c-3.643 1.716-8.476-.758-8.45-.783.313-.313.2-1.246-.083-2.469a18.057 18.057 0 0 0-2.212-5.1c-.259-.442-.521-.885-.834-1.353l.417-.155 7.077-2.835s1.147 2.054 2.342 3.929c1.015 1.561 2.083 2.965 2.551 2.914.028-.028 4.709 3.2-.806 5.854" class="prefix__cls-14" transform="translate(-2136.035 1668.405)"/>
            </g>
            <g id="prefix__g92" transform="translate(317.197 60.29)">
                <path id="prefix__path94" d="M2147.654-1664.264c-.183 2.524-1.038 7.077-4.449 8.744a17.966 17.966 0 0 0-2.21-5.1l6.66-3.644" class="prefix__cls-10" transform="translate(-2140.994 1664.264)"/>
            </g>
            <g id="prefix__g96" transform="translate(308.929 49.008)">
                <path id="prefix__path98" d="M2099.855-1713.314s9.214-3.633 6.862-9.335-2.743-10.012-8.724-7.934-6.222 4.721-5.9 6.815 5.3 11.251 7.761 10.454" class="prefix__cls-14" transform="translate(-2092.003 1731.114)"/>
            </g>
            <g id="prefix__g100" transform="translate(307.793 48.413)">
                <path id="prefix__path102" d="M2097.7-1726.877c4.257-.6 5.5-2.321 5.5-2.321a11.772 11.772 0 0 1-6.219-4.96s-4.783-1.613-8.327 1.083a2.372 2.372 0 0 0-.447 1c-.812-.268-2.033-.2-2.739 2.1-1.057 3.449 2.707 7.213 2.707 7.213.915-.257-.116-3.331-.261-4.969a7.763 7.763 0 0 1 .9-3.485c.449.583 4.939 6.224 10.419 6.448a23.068 23.068 0 0 1-5.532-2.968 7.068 7.068 0 0 0 4 .863" class="prefix__cls-15" transform="translate(-2085.275 1734.637)"/>
            </g>
            <g id="prefix__g104" transform="translate(305.479 65.479)">
                <path id="prefix__path106" d="M2111.564-1614.961c-.077-.275-.162-.56-.248-.855a21.566 21.566 0 0 0 2.324-6.967 13.991 13.991 0 0 0-.44-6.817s-6.392-3.389-9.213-3.819a.275.275 0 0 0-.036-.012c-.034 0-.073-.007-.111-.01-2.851-.394-9.018.867-9.018.867a4.461 4.461 0 0 1-2.164 5.279c-3.358 2.109-6.943-.541-6.943-.541-.106.073-.222.152-.339.237s-8.83 5.827-9.622 7.158-4.191 7.926-4.191 7.926 1.077 5.535 13.006 6a27.557 27.557 0 0 1 1.976 6.634c.947 7.513-.152 13.44.952 17.825s21.01 1.885 24.614 1.041 2.792-4.693 3.071-8.432c.35-4.7-2.437-21.363-3.614-25.506" class="prefix__cls-4" transform="translate(-2071.56 1633.517)"/>
            </g>
            <g id="prefix__g108" transform="translate(341.575 74.496)">
                <path id="prefix__path110" d="M2291.426-1578.371a21.59 21.59 0 0 1-2.341 7c-.312-1.377-1.586-6.426-3.643-8.716a17.622 17.622 0 0 1 5.984 1.718" transform="translate(-2285.442 1580.089)" style="fill:#4a82d3"/>
            </g>
            <path id="prefix__path112" d="M1840.5-1309.307a62.673 62.673 0 0 1 4.507-5.025 13.7 13.7 0 0 1 4.5-1.275c.2.188.21.459-.225.842s-2.09 1.35-1.854 1.459 5.234-2.379 5.956-1.542-.41 4.291-2.336 5.947-7.673 2.362-8.033 2.593c-3.067 1.96-2.516-3-2.516-3" class="prefix__cls-10" transform="translate(-1573.984 1434.759)"/>
            <path id="prefix__path114" d="M1453.85-1398.221s5.329 6.32 12.111 3.676a20.537 20.537 0 0 0 1.481-6.133c0-.319.007-.63.011-.925.036-2.93.135-4.575.135-4.575h-.007c-.308-.129-10.371-4.26-10.362-3.918.173 7.925-3.369 11.874-3.369 11.874" class="prefix__cls-14" transform="translate(-1252.62 1513.297)"/>
            <path id="prefix__path116" d="M1479.764-1399.163a15.737 15.737 0 0 0 9.224 6.6c.036-2.93.135-4.574.135-4.574h-.007c-.279-.074-9.64-2.559-9.352-2.028" class="prefix__cls-10" transform="translate(-1274.156 1504.255)"/>
            <path id="prefix__path118" d="M1475.93-1480.437s-11.316 2.66-12.865-4.413-4.052-11.492 3.108-13.488 9.158.392 10.25 2.626 2.41 14.4-.493 15.275" class="prefix__cls-14" transform="translate(-1258.854 1587.253)"/>
            <path id="prefix__path120" d="M1435.047-1510.232c-.155.1-2.59.846-7.2-8.339a8 8 0 0 1 .471-7.318c1.688-2.756 7.671-4.923 12.641-5.866s6.163 1.854 7.334 4.665c1.229 2.95 4.777 5.38 4.777 5.38-4.284 2.394-9.449-1.031-11.238-.468s-2.419 3.382-2.554 4.287-.34 1.654-2.59.846-1.017 3.189-.657 3.951c0 0 .306 2.034-.983 2.862" transform="translate(-1230.448 1614.563)" style="fill:#a9453d"/>
            <path id="prefix__path122" d="M1230.371-441.394h-6.852c-1.436 0-3.032-1.458-3.432-4.125s-3.352-4.127-3.991-6.312 2.635-5.259 2.635-5.259l.547-.713.57-.743 5.427 1.294s.134 1.31.218 2.979c.058 1.2.09 2.6.022 3.816-.16 2.914.8 6.049 3.358 6.616s1.5 2.446 1.5 2.446" class="prefix__cls-15" transform="translate(-1054.922 722.321)"/>
            <path id="prefix__path124" d="M1488.133-406.671h-18.161a1.477 1.477 0 0 1-.385-.115c-1.213-.626-.833-5.405-.689-6.881.029-.275.05-.434.05-.434s6.386-5.259 7.264-1.231c.029.124.061.247.094.369 1.11 3.767 6.064 5.479 8.929 5.956 2.187.367 2.754 1.679 2.9 2.333" class="prefix__cls-15" transform="translate(-1264.986 687.662)"/>
            <path id="prefix__path126" d="M1428.551-987.119s-.97 12.1-2.11 26.646c-1.551 19.761-3.413 44.035-3.6 48.632-.32 7.984-1.6 20.756-1.6 20.756s-3.033 3.036-9.1 1.755a208.9 208.9 0 0 1-6.951-37.522c-.025-.317-.05-.635-.072-.954-1.438-19.638-3.673-60.99-3.673-60.99l27.1 1.677" class="prefix__cls-18" transform="translate(-1209.063 1163.083)"/>
            <path id="prefix__path128" d="M1428.551-987.119s-.97 12.1-2.11 26.646l-21.247 33.621c-.025-.317-.05-.635-.072-.954-1.438-19.638-3.673-60.99-3.673-60.99l27.1 1.677" class="prefix__cls-19" transform="translate(-1209.063 1163.083)"/>
            <path id="prefix__path130" d="M1283.36-1009.272s-17.482 43.826-28.978 64.422-15.087 26.343-15.087 26.343-6.586-2.633-7.185-4.431c0 0 4.4-39.761 12.094-49.453 4.35-5.477 9.459-21.913 9.7-27.662s1.555-17.122 1.555-17.122l27.9 7.9" class="prefix__cls-18" transform="translate(-1068.302 1186.672)"/>
            <path id="prefix__path132" d="M1256.416-1024.244a59.207 59.207 0 0 1-.784 6.314 12.908 12.908 0 0 1-2.8 3.408c-.256-.037-.409-.243-.279-.773s.891-2.169.65-2.127-2.771 4.657-3.779 4.4-1.993-3.541-1.393-5.858 4.669-5.957 4.824-6.33c1.318-3.167 3.559.969 3.559.969" class="prefix__cls-10" transform="translate(-1081.386 1194.345)"/>
            <path id="prefix__path134" d="M1275.636-1279.776c1.935.621 2.245.48 2.245.48s9.417-17.147 10.371-18.717 20-19.229 20-19.229l-4.894-18.249s-21.659 28.047-24 32.071c-3.865 6.651-6.13 22.1-6.13 22.1a5.662 5.662 0 0 0 2.407 1.546" class="prefix__cls-13" transform="translate(-1102.482 1451.266)"/>
            <path id="prefix__path136" d="M1399.546-1330.178c-.067 3.748-.286 7.961-.58 12.24l-.054.761c-.187 2.651-.391 5.308-.625 7.9-.092 1.039-.194 2.066-.3 3.074l-.016.136c-.007.378-.054.787-.094 1.161-.956 9.7-1.958 17.372-2.142 17.489a1.077 1.077 0 0 1-.745.189c-2.545-.319-10.14.259-16.354-1.094a47.139 47.139 0 0 1-14.55-6.033c-.634-.375-2.084-1.37-1.964-2.113.115-.817.328-2 .6-3.482a188.63 188.63 0 0 0 3.126-24.433q.162-2.9.47-5.727a86.76 86.76 0 0 1 2.536-13.678c2.131-7.675 5.263-13.552 9.192-15.851.513-.286 3.276 1.472 5.812 3.1a11.2 11.2 0 0 0 7.21 1.708l2.111 2.335a23.571 23.571 0 0 1 6.024 12.555c.056.416.1.857.144 1.326a82.619 82.619 0 0 1 .2 8.44" class="prefix__cls-20" transform="translate(-1176.368 1471.367)"/>
            <path id="prefix__path138" d="M1498.153-1247.7c-.067 3.748-.286 7.96-.58 12.24l-.054.761c-14.536-9.1-16.775-25.75-16.775-25.75a39.771 39.771 0 0 1 17.212 4.309 82.6 82.6 0 0 1 .2 8.44" class="prefix__cls-13" transform="translate(-1274.974 1388.89)"/>
            <path id="prefix__path140" d="M1537.32-1306.944c-.749-2.027-1.915-1.9-1.915-1.9s-21.616 5.386-23.555 5.617-23.274-8.331-23.274-8.331-8.4-3.769-12.331-.328c-3.418 2.991-3.573 6.779-2.775 9.96a9.513 9.513 0 0 0 8.04 7.086c8.7 1.109 26.071 3.2 29.71 2.689 8.1-1.128 26.458-11.724 26.458-11.724a6.82 6.82 0 0 0-.358-3.074" class="prefix__cls-20" transform="translate(-1268.598 1432.845)"/>
            <g id="prefix__g142" transform="translate(470.968 164.199)">
                <path id="prefix__path144" d="M3063.023-1047.248s3 2.783 2.417 4.76-3.3 3.3-3.663 5.713-1.831 3.735-3.148 3.735h-6.287s-.97-1.7 1.373-2.213 3.226-3.353 3.08-5.989a47.242 47.242 0 0 1 .22-6.152l4.982-1.172 1.025 1.318" class="prefix__cls-15" transform="translate(-3052.144 1048.567)"/>
            </g>
            <g id="prefix__g146" transform="translate(427.362 170.428)">
                <path id="prefix__path148" d="M2810.823-1002.69a11.6 11.6 0 0 1-2.845.329h-14.215c.051-.423.382-1.93 2.707-2.3 2.625-.427 7.174-1.953 8.186-5.312.036-.107.063-.218.09-.329.8-3.589 6.663 1.1 6.663 1.1s.018.143.042.388c.138 1.319.484 5.575-.628 6.13" class="prefix__cls-15" transform="translate(-2793.762 1011.659)"/>
            </g>
            <g id="prefix__g150" transform="translate(430.762 81.872)">
                <path id="prefix__path152" d="M2813.908-1534.847s.889 11.1 1.935 24.448c1.423 18.129 3.133 40.4 3.3 44.616.291 7.326 1.463 19.043 1.463 19.043s2.784 2.784 8.352 1.61a191.694 191.694 0 0 0 6.377-34.426c.021-.29.046-.582.064-.874 1.319-18.017 3.369-55.956 3.369-55.956l-24.862 1.538" class="prefix__cls-21" transform="translate(-2813.908 1536.385)"/>
            </g>
            <g id="prefix__g154" transform="translate(430.762 81.872)">
                <path id="prefix__path156" d="M2813.908-1534.847s.889 11.1 1.935 24.448l19.493 30.844c.021-.29.046-.582.064-.874 1.319-18.017 3.369-55.956 3.369-55.956l-24.862 1.538" class="prefix__cls-15" transform="translate(-2813.908 1536.385)"/>
            </g>
            <g id="prefix__g158" transform="translate(434.824 77.477)">
                <path id="prefix__path160" d="M2837.976-1555.173s16.04 40.209 26.586 59.1 13.843 24.17 13.843 24.17 6.044-2.417 6.593-4.065c0 0-4.034-36.48-11.1-45.372-3.991-5.025-8.677-20.1-8.9-25.378s-1.427-15.71-1.427-15.71l-25.6 7.251" class="prefix__cls-21" transform="translate(-2837.976 1562.424)"/>
            </g>
            <g id="prefix__g162" transform="translate(374.947 61.972)">
                <path id="prefix__path164" d="M2493.591-1653.351a48.044 48.044 0 0 0-5.082-.944 10.438 10.438 0 0 0-3.327 1.331c-.034.207.088.376.53.405s1.9-.159 1.8.019-4.286 1-4.332 1.845 2.251 2.415 4.194 2.521 5.76-2.152 6.089-2.182c2.776-.241.122-3 .122-3" class="prefix__cls-14" transform="translate(-2483.184 1654.297)"/>
            </g>
            <g id="prefix__g166" transform="translate(383.001 30.856)">
                <path id="prefix__path168" d="M2531.4-1805.5c-.627-1.987-.479-2.3-.479-2.3s17.635-9.536 19.25-10.5 19.839-20.361 19.839-20.361l18.667 5.138s-28.889 22.005-33.03 24.375c-6.839 3.916-22.683 6.132-22.683 6.132a5.787 5.787 0 0 1-1.564-2.477" class="prefix__cls-19" transform="translate(-2530.904 1838.671)"/>
            </g>
            <g id="prefix__g170" transform="translate(412.584 12.746)">
                <path id="prefix__path172" d="M2721.371-1937.295s-6.543 11.513-12.941 13.016a17.488 17.488 0 0 1 1.824-6.514c-.637-.75-1.2-1.442-1.685-2.061a38.082 38.082 0 0 1-2.374-3.326l2.168-5.837 1.477-3.96a18.756 18.756 0 0 0 2.3 3.318 15.657 15.657 0 0 0 9.229 5.365" class="prefix__cls-14" transform="translate(-2706.195 1945.977)"/>
            </g>
            <g id="prefix__g174" transform="translate(412.585 16.062)">
                <path id="prefix__path176" d="M2712.15-1926.331a12.142 12.142 0 0 1-3.571 9.806 38.809 38.809 0 0 1-2.374-3.326l2.169-5.837a12.33 12.33 0 0 1 3.776-.643" class="prefix__cls-10" transform="translate(-2706.205 1926.333)"/>
            </g>
            <g id="prefix__g178" transform="translate(402.588 4.533)">
                <path id="prefix__path180" d="M2655.237-1975.785s9.78-3.812 7.311-9.863-2.866-10.621-9.213-8.446-6.612 4.981-6.279 7.2 5.574 11.944 8.18 11.109" class="prefix__cls-14" transform="translate(-2646.965 1994.645)"/>
            </g>
            <g id="prefix__g182" transform="translate(414.172 19.82)">
                <path id="prefix__path184" d="M2762.808-1843.365c-3.944 5.671-33.437 13.248-33.087 9.322a42.258 42.258 0 0 0-.007-7.742q-.107-1.262-.312-2.675a61.714 61.714 0 0 0-6.5-19.467c-.3-.576-.609-1.155-.93-1.742a60.009 60.009 0 0 1-4.087-9.187c-2.045-5.9-2.866-11.554-1.835-15.248a.366.366 0 0 1 .015-.052c6.164-2.851 8.555-13.9 8.555-13.9s21.029 3.775 32.812 31.809c0 0 8.805 23.95 5.374 28.886" class="prefix__cls-18" transform="translate(-2715.607 1904.06)"/>
            </g>
            <g id="prefix__g186" transform="translate(421.47 43.571)">
                <path id="prefix__path188" d="M2765.662-1724.8q-.11-1.262-.313-2.675a61.678 61.678 0 0 0-6.5-19.467c.682-4.131 1.624-7.567 2.657-9.113 4.195-6.286 6.636-7.269 6.636-7.269s6.291 26.528-2.48 38.524" class="prefix__cls-19" transform="translate(-2758.849 1763.329)"/>
            </g>
            <g id="prefix__g190" transform="translate(382.998 75.783)">
                <path id="prefix__path192" d="M2543.023-1572.461a62.848 62.848 0 0 0-6.722.631 13.656 13.656 0 0 0-3.7 2.858c.03.272.242.441.808.321s2.33-.876 2.275-.622-5.026 2.79-4.783 3.867 3.693 2.226 6.171 1.664 6.463-4.76 6.866-4.913c3.4-1.3-.915-3.805-.915-3.805" class="prefix__cls-14" transform="translate(-2530.892 1572.461)"/>
            </g>
            <g id="prefix__g194" transform="translate(393.412 25.332)">
                <path id="prefix__path196" d="M2593.21-1818.742c-1.164-1.883-.325-2.742-.325-2.742s17.975-14.073 19.383-15.494 7.935-24.06 7.935-24.06 2.244-9.161 7.507-10.171c4.569-.878 7.727 1.384 9.8 4.036a9.745 9.745 0 0 1 .661 10.959c-4.59 7.734-13.847 23.083-16.549 25.705-6.015 5.836-26.148 13.992-26.148 13.992a6.982 6.982 0 0 1-2.259-2.226" class="prefix__cls-18" transform="translate(-2592.593 1871.402)"/>
            </g>
            <g id="prefix__g198" transform="translate(398.942)">
                <path id="prefix__path200" d="M2646-2019.219c.069-.137.269-.28.752-.428a2.015 2.015 0 0 0-.983-.037 2.584 2.584 0 0 0-2.193-1.819 1.54 1.54 0 0 1 .983.905c-1.713-1.088-4.895-1.4-12.831 1.24-10.46 3.484-5.234 9.558-3.649 10.044s4.506-2.636 7.128-3.064 4.046 3.23 5.046 3.532.431-.528 1.482-1.359 1.648 1.125 1.625 2.5 2.022 2.681 2.022 2.681l1.2-2.2c1.2-2.2.871-10.18-.274-11.614-.1-.128-.2-.257-.305-.385" class="prefix__cls-11" transform="translate(-2625.363 2021.503)"/>
            </g>
            <g id="prefix__g202" transform="translate(0 301.441)">
                <path id="prefix__path204" d="M852.873-233.246h-590.6a.78.78 0 0 1-.778-.779v-.556a.781.781 0 0 1 .778-.778h590.6a.781.781 0 0 1 .777.778v.556a.78.78 0 0 1-.777.779" transform="translate(-261.494 235.359)" style="fill:#2e3552"/>
            </g>
            <path id="prefix__path206" d="M1629.936-358.292v11.838l-28.02-11.838z" class="prefix__cls-23" transform="translate(-1375.698 638.987)"/>
            <g id="prefix__g208" transform="translate(401.373 179.725)">
                <path id="prefix__path210" d="M2639.769-956.568v121.716h92.668v-121.716h-92.668" class="prefix__cls-3" transform="translate(-2639.769 956.568)"/>
            </g>
            <g id="prefix__g212" transform="translate(372.797 179.726)">
                <path id="prefix__path214" d="M2470.442-956.566v121.716h92.672v-121.716h-92.672" class="prefix__cls-4" transform="translate(-2470.442 956.566)"/>
            </g>
            <g id="prefix__g216" transform="translate(465.469 179.726)">
                <path id="prefix__path218" d="M3048.128-956.564v18.2l-28.572-18.2h28.572" class="prefix__cls-23" transform="translate(-3019.556 956.564)"/>
            </g>
        </g>
    </g>
</svg>
