<svg xmlns="http://www.w3.org/2000/svg" width="15.943" height="14" viewBox="0 0 15.943 14">
    <defs>
        <style>
            .prefix__cls-2{fill:#515262}
        </style>
    </defs>
    <g id="prefix__calendar_2_" data-name="calendar (2)" transform="translate(0 -31.186)">
        <path id="prefix__Path_2305" fill="#d9d9d9" d="M0 209.618v7.043a1.4 1.4 0 0 0 1.4 1.4h13.141a1.4 1.4 0 0 0 1.4-1.4v-7.043z" data-name="Path 2305" transform="translate(0 -172.876)"/>
        <path id="prefix__Path_2306" d="M15.943 215.386v-.557H13.35v-2.216h2.593v-.557H13.35v-2.441h-.557v2.441H9.949v-2.441h-.556v2.441H6.55v-2.441h-.557v2.441H3.15v-2.441h-.557v2.441H0v.557h2.593v2.216H0v.557h2.593v2.674h.557v-2.674h2.844v2.674h.557v-2.674h2.844v2.674h.557v-2.674H12.8v2.674h.557v-2.674zm-9.949-.557H3.15v-2.216h2.844zm3.4 0H6.55v-2.216h2.844zm3.4 0H9.949v-2.216h2.844z" class="prefix__cls-2" data-name="Path 2306" transform="translate(0 -172.874)"/>
        <path id="prefix__Path_2307" fill="#ff6465" d="M1.128 79.869A1.128 1.128 0 0 0 0 81v2.912h15.943V81a1.128 1.128 0 0 0-1.128-1.128z" data-name="Path 2307" transform="translate(0 -47.167)"/>
        <path id="prefix__Path_2308" d="M1.854 90.952V81a1.128 1.128 0 0 1 1.128-1.128H1.128A1.128 1.128 0 0 0 0 81v9.955a1.4 1.4 0 0 0 1.4 1.4h1.856a1.4 1.4 0 0 1-1.4-1.4z" data-name="Path 2308" opacity="0.1" transform="translate(0 -47.167)"/>
        <g id="prefix__Group_1435" data-name="Group 1435" transform="translate(2.217 31.186)">
            <path id="prefix__Path_2309" d="M72.007 34.271a.649.649 0 0 1-.649-.649v-1.787a.649.649 0 0 1 1.3 0v1.787a.649.649 0 0 1-.651.649z" class="prefix__cls-2" data-name="Path 2309" transform="translate(-71.358 -31.186)"/>
            <path id="prefix__Path_2310" d="M181.207 34.271a.649.649 0 0 1-.649-.649v-1.787a.649.649 0 0 1 1.3 0v1.787a.649.649 0 0 1-.649.649z" class="prefix__cls-2" data-name="Path 2310" transform="translate(-177.152 -31.186)"/>
            <path id="prefix__Path_2311" d="M290.4 34.271a.649.649 0 0 1-.649-.649v-1.787a.649.649 0 1 1 1.3 0v1.787a.649.649 0 0 1-.651.649z" class="prefix__cls-2" data-name="Path 2311" transform="translate(-282.947 -31.186)"/>
            <path id="prefix__Path_2312" d="M399.594 34.271a.649.649 0 0 1-.649-.649v-1.787a.649.649 0 1 1 1.3 0v1.787a.649.649 0 0 1-.651.649z" class="prefix__cls-2" data-name="Path 2312" transform="translate(-388.74 -31.186)"/>
        </g>
    </g>
</svg>
