<svg xmlns="http://www.w3.org/2000/svg" width="90.793" height="107.291" viewBox="0 0 90.793 107.291">
    <defs>
        <style>
            .prefix__cls-5{fill:#ffcbbe}.prefix__cls-6{fill:#eaac9d}.prefix__cls-8{fill:#5e54ac}
        </style>
    </defs>
    <g id="prefix__profile" transform="translate(-3.563 -2.97)">
        <g id="prefix__Group_577" data-name="Group 577" transform="translate(3.563 70.235)">
            <g id="prefix__Group_575" data-name="Group 575">
                <path id="prefix__Path_3286" fill="#ea907a" d="M151.6 358.908a31.4 31.4 0 0 0-28.855-19H89.663a31.4 31.4 0 0 0-28.855 19 59.531 59.531 0 0 0 90.793 0z" data-name="Path 3286" transform="translate(-60.808 -339.903)"/>
            </g>
            <g id="prefix__Group_576" data-name="Group 576" transform="translate(0 5.539)">
                <path id="prefix__Path_3287" fill="#e47c62" d="M151.6 377.187a31.515 31.515 0 0 0-11.05-13.466 59.548 59.548 0 0 1-79.3 12.491c-.152.322-.3.646-.44.974a59.531 59.531 0 0 0 90.793 0z" data-name="Path 3287" transform="translate(-60.808 -363.721)"/>
            </g>
        </g>
        <g id="prefix__Group_578" data-name="Group 578" transform="translate(27.365 2.97)">
            <path id="prefix__Path_3288" fill="#333e49" d="M205.5 58.377l-5.261-5a9.781 9.781 0 0 0-9.888-2.172l-18.9 6.424a12.242 12.242 0 0 0-8.3 11.591v8.759l.93 2.72h42.67l.93-2.72V63.457a7.01 7.01 0 0 0-2.181-5.08z" data-name="Path 3288" transform="translate(-163.149 -50.682)"/>
        </g>
        <g id="prefix__Group_579" data-name="Group 579" transform="translate(47.39 2.97)">
            <path id="prefix__Path_3289" fill="#1d2023" d="M271.575 58.377l-5.261-5a9.781 9.781 0 0 0-9.888-2.172l-7.177 2.44a9.779 9.779 0 0 1 5.919 2.657l5.261 5a7.009 7.009 0 0 1 2.18 5.08V80.7h10.216l.93-2.72V63.457a7.01 7.01 0 0 0-2.18-5.08z" data-name="Path 3289" transform="translate(-249.249 -50.682)"/>
        </g>
        <g id="prefix__Group_580" data-name="Group 580" transform="translate(68.738 33.455)">
            <path id="prefix__Path_3290" d="M342.778 186.566c-2.281 4.845-2.478 11.286.386 12.635s7.7-2.905 9.986-7.75.807-7.738-2.057-9.087-6.034-.643-8.315 4.202z" class="prefix__cls-5" data-name="Path 3290" transform="translate(-341.04 -181.76)"/>
        </g>
        <g id="prefix__Group_581" data-name="Group 581" transform="translate(34.01 56.624)">
            <path id="prefix__Path_3291" d="M210.062 308.483h-5.447a12.9 12.9 0 0 1-12.9-12.9V281.38h31.24v14.207a12.9 12.9 0 0 1-12.893 12.896z" class="prefix__cls-6" data-name="Path 3291" transform="translate(-191.719 -281.38)"/>
        </g>
        <path id="prefix__Path_3292" fill="#df9380" d="M249.194 281.38v14.207a12.9 12.9 0 0 1-10.845 12.732 13 13 0 0 0 2.052.164h5.447a12.9 12.9 0 0 0 12.9-12.9V281.38z" data-name="Path 3292" transform="translate(-193.495 -224.756)"/>
        <g id="prefix__Group_582" data-name="Group 582" transform="translate(27.364 26.22)">
            <path id="prefix__Path_3293" d="M203.633 150.653h-36.442a4.044 4.044 0 0 0-4.044 4.044v14.4a23.529 23.529 0 0 0 10.4 19.528l6.47 4.349a9.665 9.665 0 0 0 2.08 1.059 31.754 31.754 0 0 0 4.542-.073 23.219 23.219 0 0 0 4.839-1.442l5.792-3.893a23.529 23.529 0 0 0 10.4-19.528V154.7a4.043 4.043 0 0 0-4.044-4.044z" class="prefix__cls-5" data-name="Path 3293" transform="translate(-163.147 -150.653)"/>
        </g>
        <g id="prefix__Group_583" data-name="Group 583" transform="translate(46.319 26.22)">
            <path id="prefix__Path_3294" d="M263.6 150.652v18.44a23.529 23.529 0 0 1-10.4 19.528l-6.47 4.349a9.677 9.677 0 0 1-2.083 1.059 9.666 9.666 0 0 0 8.7-1.059l6.47-4.349a23.529 23.529 0 0 0 10.4-19.528V154.7a4.044 4.044 0 0 0-4.044-4.044H263.6z" class="prefix__cls-6" data-name="Path 3294" transform="translate(-244.645 -150.652)"/>
        </g>
        <g id="prefix__Group_584" data-name="Group 584" transform="translate(68.738 33.455)">
            <path id="prefix__Path_3295" d="M342.778 186.566c-2.281 4.845-2.478 11.286.386 12.635s7.7-2.905 9.986-7.75.807-7.738-2.057-9.087-6.034-.643-8.315 4.202z" class="prefix__cls-6" data-name="Path 3295" transform="translate(-341.04 -181.76)"/>
        </g>
        <g id="prefix__Group_585" data-name="Group 585" transform="translate(17.293 33.455)">
            <path id="prefix__Path_3296" d="M131.336 186.566c2.282 4.845 2.478 11.286-.386 12.635s-7.7-2.905-9.987-7.75-.807-7.738 2.057-9.087 6.034-.643 8.316 4.202z" class="prefix__cls-5" data-name="Path 3296" transform="translate(-119.845 -181.76)"/>
        </g>
        <g id="prefix__Group_586" data-name="Group 586" transform="translate(36.305 37.469)">
            <circle id="prefix__Ellipse_659" cx="2.692" cy="2.692" r="2.692" class="prefix__cls-8" data-name="Ellipse 659"/>
        </g>
        <g id="prefix__Group_587" data-name="Group 587" transform="translate(57.303 37.469)">
            <circle id="prefix__Ellipse_660" cx="2.692" cy="2.692" r="2.692" class="prefix__cls-8" data-name="Ellipse 660"/>
        </g>
        <g id="prefix__Group_588" data-name="Group 588" transform="translate(41.494 51.037)">
            <path id="prefix__Path_3297" fill="#e28086" d="M231.921 264.168a9.367 9.367 0 0 1-7.71-4.053 1.758 1.758 0 1 1 2.895-2 5.843 5.843 0 0 0 9.63 0 1.758 1.758 0 1 1 2.895 2 9.367 9.367 0 0 1-7.71 4.053z" data-name="Path 3297" transform="translate(-223.9 -257.359)"/>
        </g>
    </g>
</svg>
