<svg xmlns="http://www.w3.org/2000/svg" id="prefix__Download_on_the_App_Store_Badge_US-UK_RGB_wht_092917" width="149.307" height="49.909" viewBox="0 0 149.307 49.909">
    <g id="prefix__Group_402" data-name="Group 402">
        <g id="prefix__Group_400" data-name="Group 400">
            <path id="prefix__Path_2783" d="M137.417 0H10.534c-.382 0-.761.01-1.147.016a16.488 16.488 0 0 0-2.5.22 8.316 8.316 0 0 0-2.372.782 8.033 8.033 0 0 0-2.02 1.471 7.809 7.809 0 0 0-1.47 2.023 8.236 8.236 0 0 0-.78 2.375 16.212 16.212 0 0 0-.224 2.5c-.014.383-.015.767-.021 1.149v28.84c.006.387.007.763.019 1.15a16.211 16.211 0 0 0 .224 2.5 8.219 8.219 0 0 0 .78 2.376 7.745 7.745 0 0 0 1.47 2.014 7.829 7.829 0 0 0 2.02 1.471 8.361 8.361 0 0 0 2.372.787 16.787 16.787 0 0 0 2.5.221c.386.008.765.013 1.147.013H138.77c.38 0 .77 0 1.15-.013a16.568 16.568 0 0 0 2.5-.221 8.49 8.49 0 0 0 2.381-.787 7.833 7.833 0 0 0 2.018-1.471 7.979 7.979 0 0 0 1.474-2.014 8.24 8.24 0 0 0 .772-2.376 16.853 16.853 0 0 0 .232-2.5v-1.15c.01-.453.01-.9.01-1.365V11.9c0-.457 0-.91-.01-1.362V9.389a16.851 16.851 0 0 0-.232-2.5 8.257 8.257 0 0 0-.772-2.375 8.068 8.068 0 0 0-3.493-3.493 8.444 8.444 0 0 0-2.381-.782 16.275 16.275 0 0 0-2.5-.221C139.54.012 139.15 0 138.77 0h-1.353z" data-name="Path 2783"/>
            <path id="prefix__Path_2784" d="M10.32 48.6c-.38 0-.751 0-1.128-.013a15.83 15.83 0 0 1-2.332-.2 7.342 7.342 0 0 1-2.067-.687 6.745 6.745 0 0 1-1.743-1.269 6.639 6.639 0 0 1-1.273-1.742 7.139 7.139 0 0 1-.677-2.068 15.488 15.488 0 0 1-.208-2.339c-.008-.263-.018-1.139-.018-1.139V10.319s.01-.862.017-1.119A15.434 15.434 0 0 1 1.1 6.867a7.181 7.181 0 0 1 .678-2.074 6.7 6.7 0 0 1 1.265-1.744 6.944 6.944 0 0 1 1.75-1.276 7.266 7.266 0 0 1 2.063-.679A15.7 15.7 0 0 1 9.2.89l1.121-.015h128.226l1.139.016a15.453 15.453 0 0 1 2.319.2 7.409 7.409 0 0 1 2.085.684A6.98 6.98 0 0 1 147.1 4.8a7.191 7.191 0 0 1 .668 2.057 16.212 16.212 0 0 1 .217 2.355v1.111c.01.468.01.913.01 1.362v26.11c0 .453 0 .9-.01 1.342v1.16a15.89 15.89 0 0 1-.213 2.313 7.161 7.161 0 0 1-.674 2.084 6.838 6.838 0 0 1-1.267 1.729 6.754 6.754 0 0 1-1.746 1.276 7.314 7.314 0 0 1-2.081.686 15.648 15.648 0 0 1-2.332.2c-.365.008-.748.013-1.12.013h-1.353z" data-name="Path 2784" transform="translate(.216 .217)" style="fill:#fff"/>
        </g>
        <g id="prefix___Group_" data-name="&lt;Group&gt;" transform="translate(11.989 9.791)">
            <g id="prefix___Group_2" data-name="&lt;Group&gt;">
                <g id="prefix___Group_3" data-name="&lt;Group&gt;">
                    <path id="prefix___Path_" d="M28.808 21.519a6.421 6.421 0 0 1 3.058-5.387 6.573 6.573 0 0 0-5.179-2.8c-2.179-.229-4.291 1.3-5.4 1.3-1.132 0-2.841-1.281-4.682-1.243a6.9 6.9 0 0 0-5.8 3.539c-2.509 4.345-.638 10.73 1.766 14.241 1.2 1.72 2.608 3.641 4.447 3.572 1.8-.075 2.472-1.148 4.644-1.148 2.152 0 2.783 1.148 4.659 1.1 1.931-.031 3.148-1.727 4.308-3.463a14.223 14.223 0 0 0 1.97-4.013 6.2 6.2 0 0 1-3.791-5.698z" data-name="&lt;Path&gt;" transform="translate(-9.609 -6.494)"/>
                    <path id="prefix___Path_2" d="M22.992 12.376a6.322 6.322 0 0 0 1.446-4.529A6.432 6.432 0 0 0 20.277 10a6.016 6.016 0 0 0-1.484 4.361 5.319 5.319 0 0 0 4.199-1.985z" data-name="&lt;Path&gt;" transform="translate(-7.337 -7.847)"/>
                </g>
            </g>
            <g id="prefix__Group_401" data-name="Group 401" transform="translate(30.966 12.507)">
                <path id="prefix__Path_2785" d="M44.253 29.384h-5.906l-1.418 4.188h-2.5l5.594-15.494h2.6l5.594 15.494H45.67zm-5.294-1.933h4.681l-2.308-6.8h-.065z" data-name="Path 2785" transform="translate(-34.427 -17.82)"/>
                <path id="prefix__Path_2786" d="M57.272 27.115c0 3.51-1.879 5.766-4.714 5.766A3.83 3.83 0 0 1 49 30.9h-.05v5.6h-2.319V21.466h2.244v1.879h.043a4.007 4.007 0 0 1 3.6-2c2.864.003 4.754 2.269 4.754 5.77zm-2.383 0c0-2.287-1.182-3.791-2.985-3.791-1.772 0-2.963 1.535-2.963 3.791 0 2.276 1.192 3.8 2.963 3.8 1.8 0 2.985-1.493 2.985-3.8z" data-name="Path 2786" transform="translate(-31.404 -17.01)"/>
                <path id="prefix__Path_2787" d="M67.237 27.115c0 3.51-1.88 5.766-4.715 5.766a3.83 3.83 0 0 1-3.554-1.981h-.054v5.6H56.6V21.466h2.24v1.879h.043a4.007 4.007 0 0 1 3.6-2c2.864.003 4.754 2.269 4.754 5.77zm-2.384 0c0-2.287-1.182-3.791-2.985-3.791-1.772 0-2.963 1.535-2.963 3.791 0 2.276 1.192 3.8 2.963 3.8 1.8 0 2.985-1.493 2.985-3.8z" data-name="Path 2787" transform="translate(-28.935 -17.01)"/>
                <path id="prefix__Path_2788" d="M72.181 29.306c.172 1.536 1.664 2.545 3.7 2.545 1.954 0 3.361-1.009 3.361-2.394 0-1.2-.848-1.923-2.856-2.416l-2.008-.484c-2.845-.687-4.166-2.018-4.166-4.177 0-2.673 2.33-4.51 5.637-4.51 3.275 0 5.52 1.836 5.6 4.51h-2.342c-.14-1.546-1.418-2.48-3.286-2.48s-3.146.944-3.146 2.319c0 1.1.816 1.74 2.813 2.233l1.707.419c3.179.752 4.5 2.029 4.5 4.3 0 2.9-2.308 4.714-5.98 4.714-3.436 0-5.756-1.773-5.906-4.575z" data-name="Path 2788" transform="translate(-25.663 -17.871)"/>
                <path id="prefix__Path_2789" d="M84.135 19.3v2.673h2.148v1.836h-2.148v6.228c0 .967.43 1.418 1.374 1.418a7.245 7.245 0 0 0 .763-.054v1.825a6.368 6.368 0 0 1-1.288.107c-2.287 0-3.179-.859-3.179-3.05v-6.474h-1.642v-1.836h1.642V19.3z" data-name="Path 2789" transform="translate(-23.097 -17.517)"/>
                <path id="prefix__Path_2790" d="M86.064 27.119c0-3.554 2.093-5.788 5.358-5.788s5.359 2.233 5.359 5.788-2.073 5.788-5.359 5.788-5.358-2.224-5.358-5.788zm8.354 0c0-2.438-1.117-3.877-3-3.877s-3 1.45-3 3.877c0 2.448 1.117 3.876 3 3.876s3-1.428 3-3.876z" data-name="Path 2790" transform="translate(-21.635 -17.014)"/>
                <path id="prefix__Path_2791" d="M96.185 21.466H98.4v1.923h.054a2.694 2.694 0 0 1 2.717-2.041 3.577 3.577 0 0 1 .794.087V23.6a3.242 3.242 0 0 0-1.042-.14 2.336 2.336 0 0 0-2.416 2.6v6.7h-2.322z" data-name="Path 2791" transform="translate(-19.128 -17.01)"/>
                <path id="prefix__Path_2792" d="M111.406 29.449c-.312 2.051-2.309 3.458-4.864 3.458-3.286 0-5.326-2.2-5.326-5.734s2.051-5.841 5.228-5.841c3.125 0 5.091 2.147 5.091 5.572v.796h-7.979v.14a2.942 2.942 0 0 0 3.039 3.2 2.556 2.556 0 0 0 2.609-1.589zm-7.838-3.372h5.648a2.717 2.717 0 0 0-2.771-2.867 2.86 2.86 0 0 0-2.877 2.867z" data-name="Path 2792" transform="translate(-17.882 -17.014)"/>
            </g>
        </g>
    </g>
    <g id="prefix___Group_4" data-name="&lt;Group&gt;" transform="translate(44.507 10.527)">
        <g id="prefix__Group_403" data-name="Group 403">
            <path id="prefix__Path_2793" d="M38.36 8.733a3.294 3.294 0 0 1 3.5 3.7c0 2.378-1.285 3.746-3.5 3.746h-2.689V8.733zm-1.533 6.392h1.4a2.341 2.341 0 0 0 2.455-2.678 2.347 2.347 0 0 0-2.455-2.662h-1.4z" data-name="Path 2793" transform="translate(-35.671 -8.366)"/>
            <path id="prefix__Path_2794" d="M41.683 13.023a2.662 2.662 0 1 1 5.3 0 2.662 2.662 0 1 1-5.3 0zm4.159 0c0-1.218-.547-1.93-1.507-1.93s-1.506.712-1.506 1.93.542 1.934 1.506 1.934 1.507-.711 1.507-1.934z" data-name="Path 2794" transform="translate(-34.185 -8.023)"/>
            <path id="prefix__Path_2795" d="M52.813 15.813h-1.15L50.5 11.675h-.088l-1.156 4.138h-1.138l-1.549-5.618h1.125l1.006 4.287h.083l1.155-4.287H51l1.155 4.287h.088l1-4.287h1.109z" data-name="Path 2795" transform="translate(-32.971 -8.002)"/>
            <path id="prefix__Path_2796" d="M53.854 10.217h1.067v.893H55a1.682 1.682 0 0 1 1.677-1 1.827 1.827 0 0 1 1.945 2.09v3.637h-1.106v-3.36c0-.9-.392-1.352-1.212-1.352a1.289 1.289 0 0 0-1.342 1.424v3.287h-1.108z" data-name="Path 2796" transform="translate(-31.167 -8.024)"/>
            <path id="prefix__Path_2797" d="M59.094 8.437H60.2v7.812h-1.106z" data-name="Path 2797" transform="translate(-29.869 -8.437)"/>
            <path id="prefix__Path_2798" d="M61.22 13.023a2.662 2.662 0 1 1 5.3 0 2.662 2.662 0 1 1-5.3 0zm4.159 0c0-1.218-.547-1.93-1.507-1.93s-1.506.712-1.506 1.93.542 1.934 1.506 1.934 1.507-.711 1.507-1.934z" data-name="Path 2798" transform="translate(-29.345 -8.023)"/>
            <path id="prefix__Path_2799" d="M66.4 14.246c0-1.011.753-1.594 2.09-1.677l1.522-.088V12c0-.593-.392-.928-1.15-.928-.619 0-1.048.227-1.171.624h-1.073c.113-.965 1.021-1.584 2.3-1.584 1.409 0 2.2.7 2.2 1.888v3.839h-1.069v-.79h-.088a1.89 1.89 0 0 1-1.688.882 1.7 1.7 0 0 1-1.873-1.685zm3.612-.48V13.3l-1.372.088c-.774.052-1.125.315-1.125.81s.439.8 1.042.8a1.324 1.324 0 0 0 1.455-1.228z" data-name="Path 2799" transform="translate(-28.059 -8.023)"/>
            <path id="prefix__Path_2800" d="M71.348 13.437c0-1.775.913-2.9 2.332-2.9a1.852 1.852 0 0 1 1.723.986h.083V8.437h1.109v7.812h-1.063v-.888h-.088a1.95 1.95 0 0 1-1.764.98c-1.429 0-2.332-1.124-2.332-2.904zm1.145 0c0 1.192.562 1.909 1.5 1.909s1.512-.727 1.512-1.9-.584-1.909-1.512-1.909-1.5.722-1.5 1.9z" data-name="Path 2800" transform="translate(-26.833 -8.437)"/>
            <path id="prefix__Path_2801" d="M79.233 13.023a2.662 2.662 0 1 1 5.3 0 2.662 2.662 0 1 1-5.3 0zm4.159 0c0-1.218-.547-1.93-1.507-1.93s-1.506.712-1.506 1.93.542 1.934 1.506 1.934 1.506-.711 1.506-1.934z" data-name="Path 2801" transform="translate(-24.883 -8.023)"/>
            <path id="prefix__Path_2802" d="M84.669 10.217h1.067v.893h.083a1.682 1.682 0 0 1 1.677-1 1.827 1.827 0 0 1 1.945 2.09v3.637h-1.109v-3.36c0-.9-.392-1.352-1.212-1.352a1.289 1.289 0 0 0-1.342 1.424v3.287h-1.109z" data-name="Path 2802" transform="translate(-23.533 -8.024)"/>
            <path id="prefix__Path_2803" d="M93.913 9.074V10.5h1.217v.934h-1.217v2.889c0 .589.242.846.794.846a3.7 3.7 0 0 0 .423-.026v.924a3.637 3.637 0 0 1-.6.057c-1.233 0-1.724-.434-1.724-1.517v-3.175h-.892V10.5h.886V9.074z" data-name="Path 2803" transform="translate(-21.739 -8.279)"/>
            <path id="prefix__Path_2804" d="M95.7 8.437h1.1v3.1h.088a1.729 1.729 0 0 1 1.712-1.01 1.851 1.851 0 0 1 1.935 2.095v3.627H99.43v-3.354c0-.9-.418-1.352-1.2-1.352a1.313 1.313 0 0 0-1.415 1.424v3.281H95.7z" data-name="Path 2804" transform="translate(-20.8 -8.437)"/>
            <path id="prefix__Path_2805" d="M105.764 14.318a2.281 2.281 0 0 1-2.434 1.625 2.552 2.552 0 0 1-2.6-2.9 2.591 2.591 0 0 1 2.59-2.935c1.563 0 2.506 1.068 2.506 2.832v.387h-3.967v.062a1.485 1.485 0 0 0 1.5 1.61 1.347 1.347 0 0 0 1.337-.681zm-3.9-1.811h2.836a1.356 1.356 0 0 0-1.383-1.455 1.437 1.437 0 0 0-1.455 1.456z" data-name="Path 2805" transform="translate(-19.559 -8.023)"/>
        </g>
    </g>
</svg>
