<svg xmlns="http://www.w3.org/2000/svg" width="16.875" height="16.875" viewBox="0 0 16.875 16.875">
    <path id="prefix__Icon_awesome-copyright" d="M9 .563A8.438 8.438 0 1 0 17.438 9 8.437 8.437 0 0 0 9 .563zm3.985 11.8a5.079 5.079 0 0 1-3.737 1.556 4.793 4.793 0 0 1-4.916-4.956 4.791 4.791 0 0 1 4.891-4.879 4.9 4.9 0 0 1 3.519 1.324.408.408 0 0 1 .042.5l-.761 1.179a.408.408 0 0 1-.62.078A3.461 3.461 0 0 0 9.3 6.35a2.435 2.435 0 0 0-2.518 2.589 2.546 2.546 0 0 0 2.527 2.711 3.336 3.336 0 0 0 2.23-.974.408.408 0 0 1 .63.036L13 11.854a.408.408 0 0 1-.019.506z" data-name="Icon awesome-copyright" transform="translate(-.563 -.563)" style="fill:#696a9d"/>
</svg>
