<svg xmlns="http://www.w3.org/2000/svg" width="86.29" height="100" viewBox="0 0 86.29 100">
    <defs>
        <style>
            .prefix__cls-1{fill:#dd9f68}.prefix__cls-2{fill:#405968}.prefix__cls-3{fill:#273c47}.prefix__cls-4{fill:#38bdba}.prefix__cls-5{fill:#4bd8d5}
        </style>
    </defs>
    <g id="prefix__phone" transform="translate(0 .001)">
        <path id="prefix__Path_3205" d="M7.23 152.2a7.23 7.23 0 1 0 0 14.461 7.23 7.23 0 1 0 0 14.46h10.389v-29.442zm0 0" class="prefix__cls-1" data-name="Path 3205" transform="translate(0 -122.055)"/>
        <path id="prefix__Path_3206" d="M157.973 371.172q.79.919 1.646 1.778a31.509 31.509 0 0 0 53.789-22.282" class="prefix__cls-1" data-name="Path 3206" transform="translate(-127.119 -282.179)"/>
        <path id="prefix__Path_3207" d="M95.26 5.836v70.743H82.469a16.646 16.646 0 0 0 1.478 2.473 6.079 6.079 0 0 1 1.175 3.548v.445a5.945 5.945 0 0 1-5.945 5.945H42.851a5.835 5.835 0 0 1-5.836-5.834V5.836A5.836 5.836 0 0 1 42.851 0h46.577a5.835 5.835 0 0 1 5.832 5.836zm0 0" class="prefix__cls-2" data-name="Path 3207" transform="translate(-29.786)"/>
        <path id="prefix__Path_3208" d="M47.926 88.993h-5.075a5.835 5.835 0 0 1-5.836-5.834V5.836A5.836 5.836 0 0 1 42.851 0h5.074a5.836 5.836 0 0 0-5.836 5.836v77.323a5.836 5.836 0 0 0 5.837 5.834zm0 0" class="prefix__cls-3" data-name="Path 3208" transform="translate(-29.786)"/>
        <path id="prefix__Path_3209" d="M37.012 45.84h58.245v63.579H37.012zm0 0" class="prefix__cls-4" data-name="Path 3209" transform="translate(-29.783 -36.887)"/>
        <path id="prefix__Path_3210" d="M88.478 45.84L37.012 97.308v-26.06L62.42 45.84zm0 0" class="prefix__cls-5" data-name="Path 3210" transform="translate(-29.783 -36.887)"/>
        <path id="prefix__Path_3211" d="M95.257 70.5v13.027l-45.732 45.732H37.012v-.516zm0 0" class="prefix__cls-5" data-name="Path 3211" transform="translate(-29.784 -56.728)"/>
        <path id="prefix__Path_3212" d="M37.012 45.84h5.074v63.579h-5.074zm0 0" class="prefix__cls-4" data-name="Path 3212" transform="translate(-29.783 -36.887)"/>
        <path id="prefix__Path_3213" d="M37.012 38.953h2.467v66.269h-2.467zm0 0" class="prefix__cls-3" data-name="Path 3213" transform="translate(-29.783 -31.346)"/>
        <path id="prefix__Path_3214" d="M309.246 45.84h5.074v63.579h-5.074zm0 0" class="prefix__cls-4" data-name="Path 3214" transform="translate(-248.847 -36.887)"/>
        <path id="prefix__Path_3215" d="M322.6 38.953h2.467v66.269H322.6zm0 0" class="prefix__cls-2" data-name="Path 3215" transform="translate(-259.591 -31.346)"/>
        <path id="prefix__Path_3216" d="M228.928 154.1a7.576 7.576 0 0 0 0 10.714l11.433 11.433a18.121 18.121 0 0 0-2.815 2.573c-5.791 6.538-5.688 17.459.221 23.891a17.86 17.86 0 0 0 25.617.732 17.658 17.658 0 0 0 5.337-12.739 18.208 18.208 0 0 0-5.341-12.869L239.642 154.1a7.575 7.575 0 0 0-10.715 0zm0 0" data-name="Path 3216" transform="translate(-182.43 -122.218)" style="fill:#ffc994"/>
        <path id="prefix__Path_3217" d="M240.359 185.395l-11.433-11.435a7.574 7.574 0 0 1 0-10.713 1.316 1.316 0 0 0-.338.967c0 1.485 1.447 3.994 3.768 6.316l8 8a4.852 4.852 0 0 1 0 6.861zm0 0" class="prefix__cls-1" data-name="Path 3217" transform="translate(-182.428 -131.363)"/>
        <path id="prefix__Path_3218" d="M290.6 311.177c-.063.068-.131.131-.2.2-5.379 5.234-13.24 9.853-19.729 6.96-2.163-.964-4.173-5.827-5.888-7.693-5.91-6.433-6.013-17.353-.221-23.89.227-.256.459-.507.7-.746-.125.129-.246.265-.361.408-3.13 3.875-.69 12.459 5.332 18.779 6.992 7.338 16.127 10.03 20.242 6.107l.123-.121zm0 0" class="prefix__cls-1" data-name="Path 3218" transform="translate(-209.448 -230.145)"/>
        <g id="prefix__Group_524" data-name="Group 524" transform="translate(30.449 3.646)">
            <path id="prefix__Path_3219" d="M166.475 408.756h-9.347a1.229 1.229 0 1 1 0-2.459h9.347a1.229 1.229 0 0 1 0 2.459zm0 0" class="prefix__cls-3" data-name="Path 3219" transform="translate(-155.899 -330.589)"/>
            <path id="prefix__Path_3220" d="M166.475 21.132h-9.347a1.23 1.23 0 0 1 0-2.46h9.347a1.23 1.23 0 0 1 0 2.46zm0 0" class="prefix__cls-3" data-name="Path 3220" transform="translate(-155.899 -18.672)"/>
        </g>
    </g>
</svg>
