<svg xmlns="http://www.w3.org/2000/svg" width="100" height="72.581" viewBox="0 0 100 72.581">
    <defs>
        <style>
            .prefix__cls-1{fill:#5a4146}.prefix__cls-2{fill:#694b4b}.prefix__cls-3{fill:#e6af78}.prefix__cls-4{fill:#d29b6e}.prefix__cls-7{fill:#f0c087}.prefix__cls-8{fill:#2a2b68}.prefix__cls-15{fill:#d23c69}
        </style>
    </defs>
    <g id="prefix__team" transform="translate(0 -70.193)">
        <path id="prefix__Path_3172" d="M371.613 207.16v1.132a12.9 12.9 0 0 0 .662 4.08l2.564 7.691h4.839v-17.742h-3.226a4.839 4.839 0 0 0-4.839 4.839z" class="prefix__cls-1" data-name="Path 3172" transform="translate(-299.032 -106.322)"/>
        <path id="prefix__Path_3173" d="M406.987 203.867l-2.729 9.553-12.9-11.29a3.226 3.226 0 0 1-3.226-3.226 4.839 4.839 0 0 1 4.839-4.839h11.29a3.226 3.226 0 0 1 3.226 3.226v3.032a12.9 12.9 0 0 1-.5 3.544z" class="prefix__cls-2" data-name="Path 3173" transform="translate(-312.323 -99.678)"/>
        <path id="prefix__Rectangle_1464" d="M0 0H9.677V7.138H0z" class="prefix__cls-3" data-name="Rectangle 1464" transform="translate(79.031 118.581)"/>
        <path id="prefix__Path_3174" d="M404.645 320.9a12.8 12.8 0 0 0 9.677 0v-2.963h-9.677v2.963z" class="prefix__cls-4" data-name="Path 3174" transform="translate(-325.613 -199.355)"/>
        <path id="prefix__Path_3175" d="M375.587 340.191l-7.781-2.223-4.838 3.211-4.839-3.211-7.781 2.223a4.839 4.839 0 0 0-3.509 4.653v11.792a1.613 1.613 0 0 0 1.613 1.613h29.032a1.613 1.613 0 0 0 1.613-1.613v-11.792a4.839 4.839 0 0 0-3.51-4.653z" data-name="Path 3175" transform="translate(-279.097 -215.475)" style="fill:#444584"/>
        <path id="prefix__Path_3176" d="M424.387 371.539h-3.226l.806-17.055h1.613z" data-name="Path 3176" transform="translate(-338.903 -228.765)" style="fill:#202165"/>
        <path id="prefix__Path_3177" d="M389.548 253.178a9.677 9.677 0 0 1-9.677-9.677v-1.89a3.226 3.226 0 0 1 .945-2.281l2.925-2.925a3.188 3.188 0 0 1 2.342-.948c5.156.163 9.72 1.267 12.214 3.7a3.184 3.184 0 0 1 .93 2.284v2.059a9.677 9.677 0 0 1-9.679 9.678z" class="prefix__cls-7" data-name="Path 3177" transform="translate(-305.677 -132.985)"/>
        <path id="prefix__Path_3178" d="M384.71 242.01a3.219 3.219 0 0 1 3.419-3.221c3.256.208 8.088.752 11.052 2.178a3.118 3.118 0 0 0-.885-1.807c-2.495-2.437-7.058-3.541-12.214-3.7a3.189 3.189 0 0 0-2.341.948l-2.925 2.925a3.225 3.225 0 0 0-.945 2.281v1.89a9.675 9.675 0 0 0 7 9.293 9.6 9.6 0 0 1-2.157-6.067v-4.72z" class="prefix__cls-3" data-name="Path 3178" transform="translate(-305.677 -132.984)"/>
        <path id="prefix__Path_3179" d="M478.968 366.577a4.838 4.838 0 0 1 1.417-3.421l4.152-4.156a4.82 4.82 0 0 1 .883 2.767v11.792a1.613 1.613 0 0 1-1.613 1.613h-4.839v-8.6z" class="prefix__cls-8" data-name="Path 3179" transform="translate(-385.42 -232.403)"/>
        <path id="prefix__Path_3180" d="M423.58 357.71h-1.613a.807.807 0 0 1-.806-.806v-2.419h3.226v2.415a.806.806 0 0 1-.807.81z" data-name="Path 3180" transform="translate(-338.903 -228.765)" style="fill:#959cb5"/>
        <g id="prefix__Group_520" data-name="Group 520" transform="translate(77.248 121.212)">
            <path id="prefix__Path_3181" d="M402.134 335.9l-2.734 2.09a.968.968 0 0 1-1.436-.3l-2.452-4.479.987-1.506a.645.645 0 0 1 .978-.119z" class="prefix__cls-8" data-name="Path 3181" transform="translate(-395.512 -331.41)"/>
            <path id="prefix__Path_3182" d="M429.419 335.9l2.734 2.088a.968.968 0 0 0 1.436-.3l2.452-4.478-.987-1.506a.645.645 0 0 0-.978-.119z" class="prefix__cls-8" data-name="Path 3182" transform="translate(-422.797 -331.411)"/>
        </g>
        <path id="prefix__Path_3183" d="M30.528 221.852a58.21 58.21 0 0 1-2.708-13.2c-.449-6.22-5.137-11.29-11.473-11.29s-11.024 5.071-11.473 11.29a58.212 58.212 0 0 1-2.708 13.2 1.606 1.606 0 0 0 .84 2.052 30.806 30.806 0 0 0 8.424 2.496h9.834a31.077 31.077 0 0 0 8.424-2.491 1.606 1.606 0 0 0 .84-2.057z" class="prefix__cls-1" data-name="Path 3183" transform="translate(-1.656 -102.332)"/>
        <path id="prefix__Path_3184" d="M68.745 223.9a1.606 1.606 0 0 0 .839-2.052 58.209 58.209 0 0 1-2.707-13.2c-.449-6.22-5.137-11.29-11.473-11.29h-.048c-4.862.02-6.58 6.65-2.395 9.124a4.453 4.453 0 0 0 .413.22L57.04 226.4h3.281a31.1 31.1 0 0 0 8.424-2.5z" class="prefix__cls-2" data-name="Path 3184" transform="translate(-40.713 -102.333)"/>
        <path id="prefix__Path_3185" d="M26.357 320.012l-5.22-2.61a3.226 3.226 0 0 1-1.783-2.886v-4.839H9.677v4.839a3.226 3.226 0 0 1-1.783 2.884l-5.22 2.61A4.838 4.838 0 0 0 0 324.34v9.532a1.613 1.613 0 0 0 1.613 1.613h25.806a1.613 1.613 0 0 0 1.613-1.613v-9.532a4.838 4.838 0 0 0-2.675-4.328z" class="prefix__cls-3" data-name="Path 3185" transform="translate(0 -192.711)"/>
        <path id="prefix__Path_3186" d="M54.028 316.129a12.748 12.748 0 0 0 4.925-1 3.179 3.179 0 0 1-.087-.617v-4.839h-9.677v4.839a3.176 3.176 0 0 1-.087.62 12.813 12.813 0 0 0 4.926.997z" class="prefix__cls-4" data-name="Path 3186" transform="translate(-39.512 -192.71)"/>
        <path id="prefix__Path_3187" d="M26.357 354.927l-3.718-1.859a9.664 9.664 0 0 1-16.246 0l-3.718 1.859A4.838 4.838 0 0 0 0 359.255v9.532a1.613 1.613 0 0 0 1.613 1.613h25.806a1.613 1.613 0 0 0 1.613-1.613v-9.531a4.838 4.838 0 0 0-2.675-4.329z" data-name="Path 3187" transform="translate(0 -227.626)" style="fill:#38bdba"/>
        <path id="prefix__Path_3188" d="M34.724 260.831a9.679 9.679 0 0 1-9.6-8.425 1.627 1.627 0 0 1 .862-1.677 13.464 13.464 0 0 0 2.855-1.928 9.314 9.314 0 0 0 2.207-2.9 1.6 1.6 0 0 1 1.819-.884 27.788 27.788 0 0 1 10.948 5.609 1.56 1.56 0 0 1 .555 1.3 9.679 9.679 0 0 1-9.646 8.905z" class="prefix__cls-7" data-name="Path 3188" transform="translate(-20.208 -140.639)"/>
        <path id="prefix__Path_3189" d="M43.817 250.623a27.787 27.787 0 0 0-10.948-5.609 1.6 1.6 0 0 0-1.819.884 9.233 9.233 0 0 1-1.474 2.152v.005a8.653 8.653 0 0 1-.732.747 13.456 13.456 0 0 1-2.855 1.928 1.627 1.627 0 0 0-.862 1.677 9.693 9.693 0 0 0 8.13 8.314 7.061 7.061 0 0 1-3.371-6.341v-2.3c.366-.271.735-.54 1.106-.871a12.84 12.84 0 0 0 2.307-2.721 24.357 24.357 0 0 1 8.406 4.574c.306.268 1.064.967 1.952 1.8a9.6 9.6 0 0 0 .715-2.941 1.56 1.56 0 0 0-.555-1.298z" class="prefix__cls-3" data-name="Path 3189" transform="translate(-20.208 -140.638)"/>
        <path id="prefix__Path_3190" d="M.983 369.859A4.828 4.828 0 0 0 0 372.766v9.534a1.613 1.613 0 0 0 1.613 1.613h4.839v-8.127a3.226 3.226 0 0 0-1.211-2.519z" data-name="Path 3190" transform="translate(0 -241.137)" style="fill:#25b3af"/>
        <path id="prefix__Path_3191" d="M166.2 331.1l-13.5-4.907-9.677 3.226-9.677-3.226-13.5 4.907a6.452 6.452 0 0 0-4.247 6.063v10a1.613 1.613 0 0 0 1.613 1.613h51.613a1.613 1.613 0 0 0 1.613-1.613v-10a6.451 6.451 0 0 0-4.238-6.063z" data-name="Path 3191" transform="translate(-93.032 -205.999)" style="fill:#ff507d"/>
        <path id="prefix__Path_3192" d="M241.02 359.226l-1.536 16.129h6.452l-1.536-16.129z" data-name="Path 3192" transform="translate(-192.71 -232.581)" style="fill:#707487"/>
        <path id="prefix__Path_3193" d="M246.065 348.151h-3.387a1.129 1.129 0 0 1-1.129-1.129v-4.313h5.645v4.313a1.129 1.129 0 0 1-1.129 1.129z" data-name="Path 3193" transform="translate(-194.371 -219.29)" style="fill:#5b5d6e"/>
        <path id="prefix__Path_3194" d="M354.78 359.855a6.444 6.444 0 0 1 1.736 4.4v10a1.613 1.613 0 0 1-1.613 1.613h-8.064v-5.392a6.451 6.451 0 0 1 1.89-4.562z" class="prefix__cls-15" data-name="Path 3194" transform="translate(-279.097 -233.087)"/>
        <path id="prefix__Path_3195" d="M200.645 86.931V73.419a3.226 3.226 0 0 0-3.226-3.226h-19.355a12.9 12.9 0 0 0-12.9 12.9v3.837a16.128 16.128 0 0 0 .828 5.1l.537 1.611a4.838 4.838 0 0 1 .248 1.53V96h32.258v-.828a4.839 4.839 0 0 1 .248-1.53l.537-1.611a16.123 16.123 0 0 0 .825-5.1z" class="prefix__cls-1" data-name="Path 3195" transform="translate(-132.903)"/>
        <path id="prefix__Path_3196" d="M206.452 76.745A6.552 6.552 0 0 0 213 83.3h.907l.438 12.7h17.909v-.828a4.839 4.839 0 0 1 .248-1.53l.537-1.611a16.127 16.127 0 0 0 .828-5.1V73.419a3.226 3.226 0 0 0-3.226-3.226H213a6.552 6.552 0 0 0-6.548 6.552z" class="prefix__cls-2" data-name="Path 3196" transform="translate(-166.129)"/>
        <path id="prefix__Rectangle_1465" d="M0 0H19.355V14.516H0z" class="prefix__cls-3" data-name="Rectangle 1465" transform="translate(40.322 108.903)"/>
        <path id="prefix__Path_3197" d="M206.451 273.84a19.242 19.242 0 0 0 19.355 0v-5.454h-19.355v5.454z" class="prefix__cls-4" data-name="Path 3197" transform="translate(-166.129 -159.483)"/>
        <g id="prefix__Group_521" data-name="Group 521" transform="translate(37.097 117.507)">
            <path id="prefix__Path_3198" d="M202.839 318.354l-5.144 5.144a1.613 1.613 0 0 1-2.425-.165l-5.334-7.028 1.4-2.94a1.613 1.613 0 0 1 2.3-.682z" class="prefix__cls-15" data-name="Path 3198" transform="translate(-189.936 -312.443)"/>
            <path id="prefix__Path_3199" d="M256 318.354l5.144 5.144a1.613 1.613 0 0 0 2.425-.165l5.331-7.033-1.4-2.94a1.613 1.613 0 0 0-2.3-.682z" class="prefix__cls-15" data-name="Path 3199" transform="translate(-243.097 -312.443)"/>
        </g>
        <path id="prefix__Path_3200" d="M189.548 167.617a16.129 16.129 0 0 1-16.129-16.129V149.6a3.227 3.227 0 0 1 .945-2.281l1.336-1.336a3.226 3.226 0 0 0 .945-2.281v-3.866a1.6 1.6 0 0 1 1.228-1.567c3.815-.9 15.685-3.035 23.763 2.906a2.069 2.069 0 0 1 .815 1.671v.857a3.227 3.227 0 0 0 .945 2.281l1.336 1.336a3.226 3.226 0 0 1 .945 2.281v1.89a16.128 16.128 0 0 1-16.129 16.126z" class="prefix__cls-7" data-name="Path 3200" transform="translate(-139.548 -53.875)"/>
        <path id="prefix__Path_3201" d="M201.637 141.184c-5.682-4.179-13.229-4.36-18.54-3.788a43.5 43.5 0 0 0-5.223.881 1.6 1.6 0 0 0-1.228 1.567v3.866a3.226 3.226 0 0 1-.945 2.281l-1.336 1.336a3.226 3.226 0 0 0-.945 2.281v1.892a16.123 16.123 0 0 0 14.18 16 16.062 16.062 0 0 1-4.5-11.161v-11.79a3.228 3.228 0 0 1 2.837-3.2c3.871-.485 10.96-.777 16.518 2.367v-.857a2.069 2.069 0 0 0-.818-1.675z" class="prefix__cls-3" data-name="Path 3201" transform="translate(-139.548 -53.887)"/>
        <path id="prefix__Path_3202" d="M117.349 359.855a6.444 6.444 0 0 0-1.736 4.4v10a1.613 1.613 0 0 0 1.613 1.613h8.064v-5.392a6.451 6.451 0 0 0-1.89-4.562z" class="prefix__cls-15" data-name="Path 3202" transform="translate(-93.032 -233.087)"/>
    </g>
</svg>
