<svg xmlns="http://www.w3.org/2000/svg" width="96.781" height="100" viewBox="0 0 96.781 100">
    <defs>
        <style>
            .prefix__cls-1{fill:#ffb125}.prefix__cls-2{fill:#b6fa4c}.prefix__cls-3{fill:#a8e83a}.prefix__cls-4{fill:#7d0}.prefix__cls-5{fill:#73cc00}.prefix__cls-7{fill:#ff6d3a}.prefix__cls-8{fill:#ed5729}
        </style>
    </defs>
    <g id="prefix__wallet_1_" data-name="wallet (1)" transform="translate(-8.241)">
        <path id="prefix__Path_3234" d="M109.585 175.275H31.214a3.5 3.5 0 0 0-3.5 3.5v9.41h85.378v-9.41a3.5 3.5 0 0 0-3.507-3.5z" class="prefix__cls-1" data-name="Path 3234" transform="translate(-15.667 -141.042)"/>
        <path id="prefix__Path_3235" d="M96.837 46.171l-7.1 71.849a3.284 3.284 0 0 1-3.591 2.945l-35.961-3.552a3.284 3.284 0 0 1-2.945-3.591l7.1-71.848a3.284 3.284 0 0 1 3.591-2.945l35.961 3.552a3.284 3.284 0 0 1 2.945 3.59z" class="prefix__cls-2" data-name="Path 3235" transform="translate(-31.371 -31.393)"/>
        <path id="prefix__Path_3236" d="M120.575 42.58l-35.96-3.553a3.284 3.284 0 0 0-3.591 2.945l-.637 6.446a3.266 3.266 0 0 1 1.806-.341l35.961 3.552a3.284 3.284 0 0 1 2.945 3.591l-6.461 65.4a3.278 3.278 0 0 0 1.784-2.6l7.1-71.849a3.284 3.284 0 0 0-2.947-3.591z" class="prefix__cls-3" data-name="Path 3236" transform="translate(-58.055 -31.392)"/>
        <path id="prefix__Path_3237" d="M81.791 79.928l-5.178 52.415a1.984 1.984 0 0 0 .919 1.88 9.63 9.63 0 0 1 3.879 4.684 1.982 1.982 0 0 0 1.656 1.249L101.709 142a1.981 1.981 0 0 0 1.869-.9 9.63 9.63 0 0 1 4.72-3.835 1.984 1.984 0 0 0 1.269-1.664l5.178-52.415a1.984 1.984 0 0 0-.919-1.88 9.63 9.63 0 0 1-3.879-4.684 1.982 1.982 0 0 0-1.656-1.249l-18.643-1.845a1.981 1.981 0 0 0-1.869.9 9.63 9.63 0 0 1-4.72 3.835 1.984 1.984 0 0 0-1.268 1.665z" class="prefix__cls-4" data-name="Path 3237" transform="translate(-55.01 -59.159)"/>
        <path id="prefix__Path_3238" d="M134.386 81.3a9.629 9.629 0 0 1-3.879-4.684 1.982 1.982 0 0 0-1.656-1.249l-18.642-1.841a1.982 1.982 0 0 0-1.869.9 9.63 9.63 0 0 1-4.72 3.835 1.984 1.984 0 0 0-1.269 1.664l-.2 2 24.155 2.312a1.982 1.982 0 0 1 1.656 1.249 9.63 9.63 0 0 0 3.879 4.684 1.984 1.984 0 0 1 .919 1.88l-4.491 45.46c.193-.087.387-.171.586-.245a1.984 1.984 0 0 0 1.269-1.664l5.176-52.418a1.984 1.984 0 0 0-.914-1.883z" class="prefix__cls-5" data-name="Path 3238" transform="translate(-75.571 -59.159)"/>
        <path id="prefix__Path_3239" d="M142.094 25.483l-40.658 59.662a3.284 3.284 0 0 1-4.563.864L67.012 65.66a3.284 3.284 0 0 1-.864-4.563l40.658-59.662a3.284 3.284 0 0 1 4.563-.864L141.23 20.92a3.284 3.284 0 0 1 .864 4.563z" class="prefix__cls-2" data-name="Path 3239" transform="translate(-46.138)"/>
        <path id="prefix__Path_3240" d="M273.756 20.92L243.895.57a3.284 3.284 0 0 0-4.563.864l-3.478 5.1a3.283 3.283 0 0 1 .87.421l29.861 20.35a3.284 3.284 0 0 1 .864 4.563L230.27 86.43a3.284 3.284 0 0 0 3.693-1.285l40.658-59.662a3.284 3.284 0 0 0-.865-4.563z" class="prefix__cls-3" data-name="Path 3240" transform="translate(-178.664)"/>
        <path id="prefix__Path_3241" d="M145.166 53.418l-29.661 43.525a1.984 1.984 0 0 0-.095 2.091 9.628 9.628 0 0 1 1.16 5.97 1.982 1.982 0 0 0 .855 1.89l15.48 10.549a1.982 1.982 0 0 0 2.072.1 9.631 9.631 0 0 1 5.98-1.1 1.984 1.984 0 0 0 1.911-.853l29.661-43.525a1.984 1.984 0 0 0 .094-2.091 9.628 9.628 0 0 1-1.16-5.97 1.982 1.982 0 0 0-.855-1.89L155.13 51.567a1.982 1.982 0 0 0-2.072-.1 9.631 9.631 0 0 1-5.98 1.1 1.983 1.983 0 0 0-1.912.851z" class="prefix__cls-4" data-name="Path 3241" transform="translate(-86.035 -41.215)"/>
        <path id="prefix__Path_3242" d="M271.708 69.976a9.63 9.63 0 0 1-1.16-5.97 1.982 1.982 0 0 0-.855-1.89l-15.48-10.549a1.982 1.982 0 0 0-2.072-.1 9.629 9.629 0 0 1-5.98 1.1 1.984 1.984 0 0 0-1.911.853l-1.236 1.814 19.346 13.041a1.982 1.982 0 0 1 .855 1.89 9.631 9.631 0 0 0 1.16 5.97 1.984 1.984 0 0 1-.095 2.091l-25.99 38.138a9.586 9.586 0 0 1 1.751.081 1.984 1.984 0 0 0 1.911-.853l29.661-43.525a1.984 1.984 0 0 0 .095-2.091z" class="prefix__cls-5" data-name="Path 3242" transform="translate(-185.118 -41.215)"/>
        <circle id="prefix__Ellipse_646" cx="10.623" cy="10.623" r="10.623" class="prefix__cls-2" data-name="Ellipse 646" transform="translate(51.903 28.635)"/>
        <path id="prefix__Path_3243" d="M95.132 264.374H13.293a5.052 5.052 0 0 1-5.052-5.052v-50a5.052 5.052 0 0 1 5.052-5.052h81.839a5.052 5.052 0 0 1 5.052 5.052v50a5.052 5.052 0 0 1-5.052 5.052z" class="prefix__cls-1" data-name="Path 3243" transform="translate(0 -164.374)"/>
        <path id="prefix__Path_3244" d="M415.253 204.271h-9.191a5.052 5.052 0 0 1 5.052 5.052v50a5.052 5.052 0 0 1-5.052 5.052h9.191a5.052 5.052 0 0 0 5.052-5.052v-50a5.052 5.052 0 0 0-5.052-5.052z" data-name="Path 3244" transform="translate(-320.122 -164.374)" style="fill:#ff901d"/>
        <path id="prefix__Path_3245" d="M378.709 308.688H360.29a9.658 9.658 0 0 0-9.658 9.658A9.658 9.658 0 0 0 360.29 328h18.42a1.83 1.83 0 0 0 1.83-1.83v-15.652a1.831 1.831 0 0 0-1.831-1.83z" class="prefix__cls-7" data-name="Path 3245" transform="translate(-275.518 -248.397)"/>
        <path id="prefix__Path_3246" d="M378.708 308.688h-9.224a1.83 1.83 0 0 1 1.831 1.83V323.7a1.952 1.952 0 0 1-1.952 1.952h-9.074a9.657 9.657 0 0 1-9.584-8.484A9.643 9.643 0 0 0 360.289 328h18.42a1.83 1.83 0 0 0 1.83-1.83v-15.652a1.83 1.83 0 0 0-1.831-1.83z" class="prefix__cls-8" data-name="Path 3246" transform="translate(-275.517 -248.397)"/>
        <path id="prefix__Path_3247" d="M95.132 204.271H13.293a5.052 5.052 0 0 0-5.052 5.052v5.537h91.943v-5.537a5.052 5.052 0 0 0-5.052-5.052z" class="prefix__cls-7" data-name="Path 3247" transform="translate(0 -164.374)"/>
        <path id="prefix__Path_3248" d="M419.444 206.5a5.083 5.083 0 0 0-.617-.748l-.008-.008a5.069 5.069 0 0 0-.74-.609q-.1-.068-.205-.131c-.1-.063-.21-.121-.318-.176q-.1-.054-.213-.1a5.031 5.031 0 0 0-2.089-.453h-9.191a5.052 5.052 0 0 1 5.052 5.052v5.537h9.191v-5.537a5.029 5.029 0 0 0-.61-2.408q-.115-.219-.252-.419z" class="prefix__cls-8" data-name="Path 3248" transform="translate(-320.123 -164.374)"/>
        <path id="prefix__Path_3249" d="M13.293 468.373h81.839a5.052 5.052 0 0 0 5.052-5.052v-5.537H8.241v5.537a5.052 5.052 0 0 0 5.052 5.052z" class="prefix__cls-7" data-name="Path 3249" transform="translate(0 -368.373)"/>
        <path id="prefix__Path_3250" d="M90.993 457.784v5.545a.852.852 0 0 1-.858.839H13.293a5.052 5.052 0 0 1-5.052-5.052v4.2a5.052 5.052 0 0 0 5.052 5.053h81.839c.1 0 .2 0 .3-.009l.092-.007c.069-.005.137-.012.2-.02l.1-.013c.067-.009.134-.02.2-.032l.088-.016c.094-.019.187-.039.279-.063.04-.01.08-.023.12-.034a5.05 5.05 0 0 0 .584-.2q.113-.048.224-.1t.218-.112q.214-.117.416-.253c.114-.077.225-.16.332-.246l.015-.012q.163-.132.315-.277.178-.17.34-.357a5.082 5.082 0 0 0 .459-.622l.011-.018c.05-.081.1-.164.145-.248a5.02 5.02 0 0 0 .314-.7l.029-.084q.032-.093.06-.188l.028-.1q.026-.1.048-.193l.021-.089c.02-.093.038-.187.052-.282.017-.111.029-.224.038-.337 0-.029 0-.057.007-.086.008-.114.013-.229.013-.346v-5.537z" class="prefix__cls-8" data-name="Path 3250" transform="translate(0 -368.373)"/>
        <circle id="prefix__Ellipse_647" cx="4.484" cy="4.484" r="4.484" data-name="Ellipse 647" transform="translate(80.632 65.465)" style="fill:#f2f2f2"/>
    </g>
</svg>
