<svg xmlns="http://www.w3.org/2000/svg" width="22" height="22" viewBox="0 0 22 22">
    <defs>
        <style>
            .prefix__cls-2{fill:#6cbbc7}.prefix__cls-3{fill:#fdb62f}.prefix__cls-5{fill:#02998a}
        </style>
    </defs>
    <g id="prefix__Flat" transform="translate(-3 -3)">
        <path id="prefix__Path_270" d="M5.759 20h18.965a.759.759 0 0 1 .759.759v13.275H5V20.759A.759.759 0 0 1 5.759 20z" data-name="Path 270" transform="translate(-1.241 -10.552)" style="fill:#a7d6dd"/>
        <path id="prefix__Path_271" d="M3 57h22v.759a.759.759 0 0 1-.759.759H3.759A.759.759 0 0 1 3 57.759z" class="prefix__cls-2" data-name="Path 271" transform="translate(0 -33.517)"/>
        <path id="prefix__Path_272" d="M30 4.517h1.517v-.758A.759.759 0 0 0 30.759 3a.759.759 0 0 0-.759.759z" class="prefix__cls-3" data-name="Path 272" transform="translate(-16.759)"/>
        <rect id="prefix__Rectangle_165" width="15.714" height="17.286" class="prefix__cls-3" data-name="Rectangle 165" rx="2" transform="translate(6.143 4.571)"/>
        <path id="prefix__Rectangle_166" d="M0 0H12.571V14.143H0z" data-name="Rectangle 166" transform="translate(7.714 6.143)" style="fill:#ffe9cc"/>
        <path id="prefix__Path_273" d="M20.32 20.615l-1.027-1.027.536-.536.49.49 1.249-1.249.536.536z" class="prefix__cls-5" data-name="Path 273" transform="translate(-10.113 -9.492)"/>
        <path id="prefix__Rectangle_167" d="M0 0H6.286V1.571H0z" class="prefix__cls-2" data-name="Rectangle 167" transform="translate(12.429 9.286)"/>
        <path id="prefix__Path_274" d="M20.32 27.615l-1.027-1.027.536-.536.49.49 1.249-1.249.536.536z" class="prefix__cls-5" data-name="Path 274" transform="translate(-10.113 -13.837)"/>
        <rect id="prefix__Rectangle_168" width="6.286" class="prefix__cls-2" data-name="Rectangle 168" transform="translate(12.429 12.429)"/>
        <path id="prefix__Rectangle_169" d="M0 0H6.286V1.571H0z" class="prefix__cls-2" data-name="Rectangle 169" transform="translate(12.429 14)"/>
        <path id="prefix__Rectangle_170" d="M0 0H6.286V1.571H0z" class="prefix__cls-2" data-name="Rectangle 170" transform="translate(12.429 17.143)"/>
        <path id="prefix__Rectangle_171" d="M0 0H9.429V1.571H0z" data-name="Rectangle 171" transform="translate(9.286 4.571)" style="fill:#83beb9"/>
        <path id="prefix__Path_275" d="M21 11v1.517h8.345V11" class="prefix__cls-5" data-name="Path 275" transform="translate(-11.172 -4.966)"/>
        <path id="prefix__Path_276" d="M22.347 32.829l-.536-.536-.49.49-.49-.49-.536.536.49.49-.49.49.536.536.49-.49.49.49.536-.536-.49-.49z" data-name="Path 276" transform="translate(-10.734 -18.182)" style="fill:#ff6536"/>
        <path id="prefix__Path_277" d="M20.32 41.615l-1.027-1.027.536-.536.49.49 1.249-1.249.536.536z" class="prefix__cls-5" data-name="Path 277" transform="translate(-10.113 -22.527)"/>
    </g>
</svg>
