<svg xmlns="http://www.w3.org/2000/svg" width="16.455" height="22" viewBox="0 0 16.455 22">
    <defs>
        <style>
            .prefix__cls-1{fill:#444584}.prefix__cls-2{fill:#60619d}.prefix__cls-5{fill:#665e66}
        </style>
    </defs>
    <g id="prefix__Group_439" data-name="Group 439" transform="translate(-7743 -2526)">
        <path id="prefix__Path_2766" d="M32.246 51.878H17.509a.859.859 0 0 1-.859-.859v-18.94a.859.859 0 0 1 .859-.859h14.737a.859.859 0 0 1 .859.859v18.94a.859.859 0 0 1-.859.859z" class="prefix__cls-1" data-name="Path 2766" transform="translate(7726.35 2496.122)"/>
        <path id="prefix__Path_2767" d="M33.088 31.9v19.513a.447.447 0 0 1-.447.447H17.333a.894.894 0 0 0 .865.671h14.666a.894.894 0 0 0 .894-.894v-18.87a.894.894 0 0 0-.67-.867z" class="prefix__cls-2" data-name="Path 2767" transform="translate(7725.696 2495.469)"/>
        <path id="prefix__Path_2768" d="M47.87 50.107V31.22h13.772v18.887a.43.43 0 0 1-.43.43H48.3a.43.43 0 0 1-.43-.43z" data-name="Path 2768" transform="translate(7696.472 2496.122)" style="fill:#d4d8d9"/>
        <path id="prefix__Path_2769" d="M347.577 31.22v19.317h.452a.443.443 0 0 0 .443-.443V31.22z" data-name="Path 2769" transform="translate(7409.642 2496.122)" style="fill:#bdbdbd"/>
        <path id="prefix__Path_2770" d="M131.6 2.683h-6.295a.43.43 0 0 1-.43-.43V.43a.43.43 0 0 1 .43-.43h6.295a.43.43 0 0 1 .43.43v1.823a.43.43 0 0 1-.43.43z" class="prefix__cls-2" data-name="Path 2770" transform="translate(7622.773 2526)"/>
        <path id="prefix__Path_2771" d="M261.057 0h-.894a.447.447 0 0 1 .447.447v1.789a.447.447 0 0 1-.447.447h.894a.447.447 0 0 0 .447-.447V.447a.447.447 0 0 0-.447-.447z" class="prefix__cls-1" data-name="Path 2771" transform="translate(7493.3 2526)"/>
        <path id="prefix__Path_2772" d="M81.809 100.5H80.02a.332.332 0 0 0-.332.332v1.789a.332.332 0 0 0 .332.332h1.789a.332.332 0 0 0 .332-.332v-1.789a.332.332 0 0 0-.332-.332z" class="prefix__cls-2" data-name="Path 2772" transform="translate(7666.021 2429.817)"/>
        <path id="prefix__Path_2773" d="M159.618 101.166h-6.752a.332.332 0 1 1 0-.664h6.752a.332.332 0 0 1 0 .664z" class="prefix__cls-5" data-name="Path 2773" transform="translate(7596.305 2429.816)"/>
        <path id="prefix__Path_2774" d="M157.829 142.792h-4.963a.332.332 0 1 1 0-.664h4.963a.332.332 0 0 1 0 .664z" class="prefix__cls-5" data-name="Path 2774" transform="translate(7596.305 2389.979)"/>
        <path id="prefix__Path_2775" d="M81.809 197.629H80.02a.332.332 0 0 0-.332.332v1.789a.332.332 0 0 0 .332.332h1.789a.332.332 0 0 0 .332-.332v-1.789a.332.332 0 0 0-.332-.332z" class="prefix__cls-2" data-name="Path 2775" transform="translate(7666.021 2336.863)"/>
        <path id="prefix__Path_2776" d="M159.618 198.293h-6.752a.332.332 0 1 1 0-.664h6.752a.332.332 0 0 1 0 .664z" class="prefix__cls-5" data-name="Path 2776" transform="translate(7596.305 2336.863)"/>
        <path id="prefix__Path_2777" d="M157.829 239.919h-4.963a.332.332 0 1 1 0-.664h4.963a.332.332 0 0 1 0 .664z" class="prefix__cls-5" data-name="Path 2777" transform="translate(7596.305 2297.025)"/>
        <path id="prefix__Path_2778" d="M81.809 294.756H80.02a.332.332 0 0 0-.332.332v1.789a.332.332 0 0 0 .332.332h1.789a.332.332 0 0 0 .332-.332v-1.789a.332.332 0 0 0-.332-.332z" class="prefix__cls-2" data-name="Path 2778" transform="translate(7666.021 2243.909)"/>
        <path id="prefix__Path_2779" d="M159.618 295.42h-6.752a.332.332 0 1 1 0-.664h6.752a.332.332 0 1 1 0 .664z" class="prefix__cls-5" data-name="Path 2779" transform="translate(7596.305 2243.909)"/>
        <path id="prefix__Path_2780" d="M157.829 337.047h-4.963a.332.332 0 1 1 0-.664h4.963a.332.332 0 0 1 0 .664z" class="prefix__cls-5" data-name="Path 2780" transform="translate(7596.305 2204.071)"/>
        <path id="prefix__Path_2781" d="M81.809 391.883H80.02a.332.332 0 0 0-.332.332V394a.332.332 0 0 0 .332.332h1.789a.332.332 0 0 0 .332-.332v-1.789a.332.332 0 0 0-.332-.328z" class="prefix__cls-2" data-name="Path 2781" transform="translate(7666.021 2150.955)"/>
        <g id="prefix__Group_438" data-name="Group 438" transform="translate(7748.839 2542.838)">
            <path id="prefix__Path_2782" d="M159.618 392.548h-6.752a.332.332 0 1 1 0-.664h6.752a.332.332 0 1 1 0 .664z" class="prefix__cls-5" data-name="Path 2782" transform="translate(-152.534 -391.884)"/>
            <path id="prefix__Path_2783" d="M157.829 434.174h-4.963a.332.332 0 1 1 0-.664h4.963a.332.332 0 1 1 0 .664z" class="prefix__cls-5" data-name="Path 2783" transform="translate(-152.534 -431.721)"/>
        </g>
    </g>
</svg>
