<svg xmlns="http://www.w3.org/2000/svg" id="email_1_" width="18.322" height="13.956" data-name="email (1)" viewBox="0 0 18.322 13.956">
    <defs>
        <style>
            .cls-1{fill:#282c3f}
        </style>
    </defs>
    <g id="Group_278" data-name="Group 278">
        <path id="Path_1404" d="M16.712 61H1.61A1.613 1.613 0 0 0 0 62.61v10.736a1.613 1.613 0 0 0 1.61 1.61h15.1a1.613 1.613 0 0 0 1.61-1.61V62.61A1.613 1.613 0 0 0 16.712 61zm-.222 1.074L9.2 69.368l-7.362-7.294zM1.074 73.124v-10.3l5.17 5.126zm.759.759l5.174-5.174 1.813 1.8a.537.537 0 0 0 .757 0l1.768-1.768 5.146 5.146zm15.416-.759L12.1 67.978l5.146-5.146z" class="cls-1" data-name="Path 1404" transform="translate(0 -61)"/>
    </g>
</svg>
