<svg xmlns="http://www.w3.org/2000/svg" id="placeholder" width="12.719" height="18.159" viewBox="0 0 12.719 18.159">
    <defs>
        <style>
            .cls-1{fill:#282c3f}
        </style>
    </defs>
    <path id="Path_2007" d="M22.878 12a2.321 2.321 0 1 0 2.322 2.321A2.324 2.324 0 0 0 22.878 12zm0 3.98a1.658 1.658 0 1 1 1.658-1.658 1.66 1.66 0 0 1-1.658 1.658z" class="cls-1" data-name="Path 2007" transform="translate(-16.46 -8.02)"/>
    <path id="Path_2008" d="M19.059 1.863a6.359 6.359 0 0 0-8.994 0 7.244 7.244 0 0 0-.6 8.938l5.1 7.358 5.088-7.348a7.246 7.246 0 0 0-.594-8.948zm.053 8.561l-4.55 6.57-4.557-6.581a6.545 6.545 0 0 1 .529-8.082 5.7 5.7 0 0 1 8.056 0 6.548 6.548 0 0 1 .522 8.093z" class="cls-1" data-name="Path 2008" transform="translate(-8.203)"/>
</svg>
