<svg xmlns="http://www.w3.org/2000/svg" id="phone" width="11.956" height="21.457" viewBox="0 0 11.956 21.457">
    <defs>
        <style>
            .cls-1{fill:#010002}
        </style>
    </defs>
    <path id="Path_2009" d="M22.917 0h-7.308a2.318 2.318 0 0 0-2.324 2.306v16.845a2.318 2.318 0 0 0 2.324 2.305h7.308a2.318 2.318 0 0 0 2.324-2.305V2.306A2.317 2.317 0 0 0 22.917 0zm1.556 19.151a1.548 1.548 0 0 1-1.556 1.537h-7.308a1.548 1.548 0 0 1-1.556-1.537V2.306A1.548 1.548 0 0 1 15.609.769h7.308a1.548 1.548 0 0 1 1.556 1.537v16.845zm-.79-16.893h-8.839a.192.192 0 0 0-.192.192v14.929a.192.192 0 0 0 .192.192h8.839a.192.192 0 0 0 .192-.192V2.45a.192.192 0 0 0-.192-.192zm-.192 14.928h-8.455V2.642h8.455v14.544zm-4.227.7a1.174 1.174 0 1 0 1.174 1.174 1.176 1.176 0 0 0-1.174-1.169zm0 1.964a.79.79 0 1 1 .79-.79.791.791 0 0 1-.79.795zM17.993 1.5a.158.158 0 0 1 .171-.142h2.2a.158.158 0 0 1 .171.142.158.158 0 0 1-.17.142h-2.2a.159.159 0 0 1-.172-.142z" class="cls-1" data-name="Path 2009" transform="translate(-13.285)"/>
</svg>
