<svg xmlns="http://www.w3.org/2000/svg" id="rupee_1_" width="22.467" height="22.467" data-name="rupee (1)" viewBox="0 0 22.467 22.467">
    <defs>
        <style>
            .cls-1{fill:#f0cd00}.cls-2{fill:#ffde50}.cls-3{fill:#ffea94}.cls-4{fill:#faa300}.cls-5{fill:#ffbd00}.cls-6{fill:#f68e00}
        </style>
    </defs>
    <g id="Group_1434" data-name="Group 1434">
        <path id="Path_2296" d="M22.467 11.233a11.254 11.254 0 1 1-3.629-8.267 11.233 11.233 0 0 1 3.629 8.267z" class="cls-1" data-name="Path 2296"/>
        <path id="Path_2297" d="M39.87 11.4a11.233 11.233 0 0 1-10.815 11.221 11.233 11.233 0 0 1 0-22.451A11.233 11.233 0 0 1 39.87 11.4z" class="cls-2" data-name="Path 2297" transform="translate(-17.404 -.162)"/>
        <path id="Path_2298" d="M50.955 35.093L35.083 50.965a11.282 11.282 0 0 1-1.423-1.919L49.036 33.67a11.229 11.229 0 0 1 1.919 1.423z" class="cls-3" data-name="Path 2298" transform="translate(-32.117 -32.126)"/>
        <path id="Path_2299" d="M110.8 96.235L96.234 110.8a11.219 11.219 0 0 1-2.844-1.634l15.776-15.776a11.2 11.2 0 0 1 1.634 2.845z" class="cls-3" data-name="Path 2299" transform="translate(-89.108 -89.108)"/>
        <path id="Path_2300" d="M72.078 63.349a8.729 8.729 0 0 1-17.457.107v-.107a8.729 8.729 0 0 1 8.729-8.729h.108a8.689 8.689 0 0 1 4.921 1.592 8.787 8.787 0 0 1 2.4 2.558 8.687 8.687 0 0 1 1.299 4.579z" class="cls-4" data-name="Path 2300" transform="translate(-52.116 -52.116)"/>
        <path id="Path_2301" d="M69.521 57.177L57.177 69.521a8.7 8.7 0 0 1-2.556-6.065v-.107a8.729 8.729 0 0 1 8.729-8.729h.108a8.689 8.689 0 0 1 4.921 1.592 8.809 8.809 0 0 1 1.142.965z" class="cls-5" data-name="Path 2301" transform="translate(-52.116 -52.116)"/>
        <path id="Path_2302" d="M243.467 63.349a8.729 8.729 0 0 1-8.729 8.729q-.248 0-.493-.014a8.729 8.729 0 0 0 0-17.431q.245-.014.493-.014a8.729 8.729 0 0 1 8.729 8.73z" class="cls-6" data-name="Path 2302" transform="translate(-223.505 -52.116)"/>
    </g>
    <path id="Path_2303" d="M121.261 128.563h-1.529a3.687 3.687 0 0 0-.4-.96h1.925a.917.917 0 1 0 0-1.834H112.6a.917.917 0 0 0 0 1.834h3.539a1.878 1.878 0 0 1 1.636.96H112.6a.917.917 0 0 0 0 1.834h5.176a1.878 1.878 0 0 1-1.636.96h-3.54a.917.917 0 0 0-.667 1.546l4.987 5.294a.917.917 0 1 0 1.335-1.258l-3.531-3.748h1.415a3.717 3.717 0 0 0 3.6-2.794h1.529a.917.917 0 1 0 0-1.834z" class="cls-6" data-name="Path 2303" transform="translate(-106.559 -120.002)"/>
    <path id="Path_2304" d="M146.263 128.563h-1.529a3.689 3.689 0 0 0-.4-.96h1.925a.917.917 0 0 0 0-1.834H137.6a.917.917 0 0 0 0 1.834h3.539a1.878 1.878 0 0 1 1.637.96H137.6a.917.917 0 0 0 0 1.834h5.176a1.878 1.878 0 0 1-1.636.96h-3.54a.917.917 0 0 0-.667 1.546l4.987 5.294a.917.917 0 1 0 1.335-1.258l-3.531-3.748h1.415a3.717 3.717 0 0 0 3.6-2.794h1.529a.917.917 0 1 0 0-1.834z" class="cls-3" data-name="Path 2304" transform="translate(-130.415 -120.002)"/>
</svg>
