<svg xmlns="http://www.w3.org/2000/svg" xmlns:xlink="http://www.w3.org/1999/xlink" width="371" height="217.103" viewBox="0 0 371 217.103">
  <defs>
    <linearGradient id="linear-gradient" x1="0.5" x2="0.5" y2="1" gradientUnits="objectBoundingBox">
      <stop offset="0" stop-color="#5468d1"/>
      <stop offset="1" stop-color="#7a69b8"/>
    </linearGradient>
  </defs>
  <g id="Group_251" data-name="Group 251" transform="translate(-136 -120)">
    <path id="Path_350" data-name="Path 350" d="M3.694,0H167.6c2.04,0,3.694,3.582,3.694,8l2.2,201c0,4.418-20.366,0-40.712,0s-22.906,9.167-46.569,8-27.452-12.667-48.083-12.667-38.1,13.329-38.1,8.911L0,8C0,3.582,1.654,0,3.694,0Z" transform="translate(136 120)" opacity="0.39" fill="url(#linear-gradient)"/>
    <path id="Path_351" data-name="Path 351" d="M3.619,0h160.6c2,0,3.619,3.582,3.619,8L170,209c0,4.418-19.955,0-39.891,0s-22.444,9.167-45.63,8-26.9-12.667-47.113-12.667S.038,217.663.038,213.244L0,8C0,3.582,1.62,0,3.619,0Z" transform="translate(337 120)" opacity="0.39" fill="url(#linear-gradient)"/>
    <path id="Path_352" data-name="Path 352" d="M3.949,0H179.2c2.181,0,3.949,3.582,3.949,8L185.5,209c0,4.418-21.775,0-43.528,0s-24.49,9.167-49.79,8-29.35-12.667-51.408-12.667-74.553,12.412-74.553,7.994L0,8C0,3.582,1.768,0,3.949,0Z" transform="translate(176 120)" opacity="0.39" fill="url(#linear-gradient)"/>
    <path id="Path_353" data-name="Path 353" d="M3.949,0H179.2c2.181,0,3.949,3.582,3.949,8L185.5,209c0,4.418-21.775,0-43.528,0s-24.49,9.167-49.79,8-29.35-12.667-51.408-12.667S.042,217.663.042,213.244L0,8C0,3.582,1.768,0,3.949,0Z" transform="translate(289 120)" opacity="0.39" fill="url(#linear-gradient)"/>
    <path id="Path_349" data-name="Path 349" d="M8,0H363a8,8,0,0,1,8,8l-.665,205.256c0,4.418-38.674-4.256-82.741-4.256s-49.61,9.167-100.86,8-59.455-12.667-104.139-12.667S.084,217.663.084,213.244L0,8A8,8,0,0,1,8,0Z" transform="translate(136 120)" fill="url(#linear-gradient)"/>
  </g>
</svg>
