<svg xmlns="http://www.w3.org/2000/svg" width="29.167" height="28" viewBox="0 0 29.167 28">
    <defs>
        <clipPath id="prefix__clip-path">
            <rect id="prefix__Rectangle_1909" width="29.167" height="28" data-name="Rectangle 1909" rx="4" transform="translate(33.633 317)" style="fill:#fff;stroke:#707070"/>
        </clipPath>
    </defs>
    <g id="prefix__Mask_Group_78" data-name="Mask Group 78" transform="translate(-33.633 -317)">
        <g id="prefix__github-logo" transform="translate(34.061 317.346)">
            <path id="prefix__Path_2057" d="M26.411 7.343a14.093 14.093 0 0 0-5.151-5.155 13.845 13.845 0 0 0-7.1-1.894 13.846 13.846 0 0 0-7.1 1.894A14.091 14.091 0 0 0 1.9 7.343a13.846 13.846 0 0 0-1.9 7.1 13.756 13.756 0 0 0 2.7 8.327 13.863 13.863 0 0 0 6.972 5.115.826.826 0 0 0 .737-.129.721.721 0 0 0 .236-.553l-.009-1q-.009-.94-.009-1.64l-.423.073a5.407 5.407 0 0 1-1.023.065 7.793 7.793 0 0 1-1.277-.13 2.863 2.863 0 0 1-1.235-.552 2.339 2.339 0 0 1-.81-1.134l-.184-.425a4.6 4.6 0 0 0-.58-.944 2.223 2.223 0 0 0-.8-.7l-.129-.092a1.353 1.353 0 0 1-.236-.222 1.011 1.011 0 0 1-.166-.258q-.055-.13.092-.212a1.2 1.2 0 0 1 .534-.083l.368.055a2.691 2.691 0 0 1 .912.442 2.975 2.975 0 0 1 .894.958 3.249 3.249 0 0 0 1.023 1.152 2.17 2.17 0 0 0 1.207.4 5.241 5.241 0 0 0 1.051-.092 3.666 3.666 0 0 0 .826-.277 2.987 2.987 0 0 1 .9-1.9 12.621 12.621 0 0 1-1.887-.331 7.522 7.522 0 0 1-1.733-.72A4.961 4.961 0 0 1 6.466 18.4a5.934 5.934 0 0 1-.966-1.932 9.2 9.2 0 0 1-.378-2.768A5.375 5.375 0 0 1 6.58 9.913a4.954 4.954 0 0 1 .129-3.759 2.582 2.582 0 0 1 1.585.246 11.088 11.088 0 0 1 1.533.708q.488.295.783.5a13.31 13.31 0 0 1 7.077 0l.7-.442a9.919 9.919 0 0 1 1.7-.812 2.416 2.416 0 0 1 1.5-.2 4.907 4.907 0 0 1 .147 3.759 5.376 5.376 0 0 1 1.457 3.8 9.306 9.306 0 0 1-.377 2.773 5.7 5.7 0 0 1-.977 1.936 5.152 5.152 0 0 1-1.5 1.227 7.536 7.536 0 0 1-1.733.718 12.606 12.606 0 0 1-1.887.333 3.283 3.283 0 0 1 .958 2.617v3.893a.734.734 0 0 0 .236.553.8.8 0 0 0 .728.129 13.861 13.861 0 0 0 6.976-5.115 13.758 13.758 0 0 0 2.694-8.327 13.858 13.858 0 0 0-1.9-7.1z" data-name="Path 2057" transform="translate(.001 -.294)"/>
        </g>
    </g>
</svg>
