<svg xmlns="http://www.w3.org/2000/svg" width="28.15" height="28.15" viewBox="0 0 28.15 28.15">
    <defs>
        <clipPath id="prefix__clip-path">
            <rect id="prefix__Rectangle_1909" width="28.15" height="28.15" data-name="Rectangle 1909" rx="4" transform="translate(34 221)" style="fill:#fff;stroke:#707070"/>
        </clipPath>
    </defs>
    <g id="prefix__Mask_Group_76" data-name="Mask Group 76" transform="translate(-34 -221)">
        <path id="prefix__linkedin" d="M25.6 0H2.546A2.546 2.546 0 0 0 0 2.546V25.6a2.546 2.546 0 0 0 2.546 2.55H25.6a2.546 2.546 0 0 0 2.55-2.55V2.546A2.546 2.546 0 0 0 25.6 0zM8.711 24.306a.741.741 0 0 1-.741.741H4.815a.741.741 0 0 1-.741-.741V11.083a.741.741 0 0 1 .741-.741H7.97a.741.741 0 0 1 .741.741zM6.392 9.1a3 3 0 1 1 3-3 3 3 0 0 1-3 3zm18.8 15.27a.681.681 0 0 1-.681.681h-3.382a.681.681 0 0 1-.681-.681v-6.2c0-.925.271-4.055-2.419-4.055-2.087 0-2.509 2.142-2.594 3.1v7.155a.681.681 0 0 1-.681.681h-3.273a.681.681 0 0 1-.681-.681V11.025a.681.681 0 0 1 .681-.681h3.274a.681.681 0 0 1 .681.681v1.155a4.647 4.647 0 0 1 4.37-2.057c5.42 0 5.39 5.063 5.39 7.846v6.4z" transform="translate(34 221)" style="fill:#0077b7"/>
    </g>
</svg>
