<svg xmlns="http://www.w3.org/2000/svg" width="42.452" height="42.427" viewBox="0 0 42.452 42.427">
    <defs>
        <style>
            .cls-1{fill:#f9cb3f}.cls-2{fill:#e5b832}.cls-3{fill:#434d70}.cls-4{fill:#f43380}.cls-5{fill:#e02d77}
        </style>
    </defs>
    <g id="theater" transform="translate(-.001)">
        <path id="Path_3813" d="M188.293 5.589c-2.775 11.4.656 22.02 7.662 23.725s14.935-6.151 17.71-17.549-4.829-4.875-11.836-6.581-10.762-10.992-13.536.405z" class="cls-1" data-name="Path 3813" transform="translate(-171.797 -.001)"/>
        <path id="Path_3814" d="M195.952 29.317c-7.006-1.705-10.436-12.328-7.662-23.725 1.651-6.781 3.649-6.24 6.472-4.329-.691.665-1.378 2.27-2.136 5.385-2.775 11.397-1.286 21.546 3.326 22.669z" class="cls-2" data-name="Path 3814" transform="translate(-171.795 -.004)"/>
        <g id="Group_2399" data-name="Group 2399" transform="translate(19.205 9.037)">
            <path id="Path_3815" d="M234.925 111.509a5.176 5.176 0 0 0 4.093-.716 3.863 3.863 0 0 1-7.4-1.8 5.176 5.176 0 0 0 3.307 2.516z" class="cls-3" data-name="Path 3815" transform="translate(-231.61 -108.992)"/>
            <path id="Path_3816" d="M370.661 144.553a5.176 5.176 0 0 0 4.093-.716 3.863 3.863 0 0 1-7.4-1.8 5.176 5.176 0 0 0 3.307 2.516z" class="cls-3" data-name="Path 3816" transform="translate(-356.092 -139.296)"/>
            <path id="Path_3817" d="M240.29 229.867a8.716 8.716 0 0 0-6.893 1.206 6.506 6.506 0 0 1 12.461 3.033 8.717 8.717 0 0 0-5.568-4.239z" class="cls-3" data-name="Path 3817" transform="translate(-233.249 -217.355)"/>
        </g>
        <path id="Path_3818" d="M20.2 195.477a21.092 21.092 0 0 1-7.227-1.641 21.3 21.3 0 0 1-10.557-9.726 33.819 33.819 0 0 1-1.825-5.458 21.337 21.337 0 0 1-.542-3v-.029a9.205 9.205 0 0 1-.039-1.039.022.022 0 0 1 0-.01c.134-5.5 6.49-1.054 12.419-2.5 7.006-1.706 10.762-10.993 13.536.4 2.508 10.312-.065 19.99-5.765 23.003z" class="cls-4" data-name="Path 3818" transform="translate(-.004 -153.049)"/>
        <path id="Path_3819" d="M12.973 247.359a21.307 21.307 0 0 1-10.559-9.727 33.819 33.819 0 0 1-1.825-5.458 21.338 21.338 0 0 1-.542-3 .122.122 0 0 0 0-.018 9.226 9.226 0 0 1-.04-1.05c.068-2.957 1.926-3.051 4.548-2.722-.26.926-.11 2.653.626 5.677 1.744 7.163 4.719 13.129 7.792 16.298z" class="cls-5" data-name="Path 3819" transform="translate(-.003 -206.572)"/>
        <g id="Group_2400" data-name="Group 2400" transform="translate(5.336 23.665)">
            <path id="Path_3820" d="M67.663 320.06a5.176 5.176 0 0 1 4.093.716 3.863 3.863 0 0 0-7.4 1.8 5.175 5.175 0 0 1 3.307-2.516z" class="cls-3" data-name="Path 3820" transform="translate(-64.348 -315.708)"/>
            <path id="Path_3821" d="M203.4 287.016a5.176 5.176 0 0 1 4.093.716 3.863 3.863 0 0 0-7.4 1.8 5.176 5.176 0 0 1 3.307-2.516z" class="cls-3" data-name="Path 3821" transform="translate(-188.829 -285.403)"/>
            <path id="Path_3822" d="M119.79 382.226a8.716 8.716 0 0 1-6.893-1.206 6.506 6.506 0 0 0 12.461-3.033 8.716 8.716 0 0 1-5.568 4.239z" class="cls-3" data-name="Path 3822" transform="translate(-108.872 -370.31)"/>
        </g>
    </g>
</svg>
