<svg xmlns="http://www.w3.org/2000/svg" width="24.982" height="56.871" viewBox="0 0 24.982 56.871">
    <defs>
        <style>
            .cls-1{fill:#ffb69e}.cls-2{fill:#ff6473}.cls-3{fill:#80391b}
        </style>
    </defs>
    <g id="dance" transform="translate(-.001)">
        <path id="Path_3621" d="M23.425 11.449a1.784 1.784 0 0 0 .065-1.46l-3.519-8.863a1.783 1.783 0 0 0-3.314 1.316l3.224 8.119-3.653 7.249H12l-4.1-7.247 3.7-8.036A1.783 1.783 0 1 0 8.355 1.04L4.286 9.9a1.784 1.784 0 0 0 .068 1.621l4.487 7.94v11.796l-7.606 4.026a2.318 2.318 0 0 0 .1 4.149L13 44.88a2.306 2.306 0 0 0 1.482.163v9.51a2.318 2.318 0 0 0 4.637 0c0-1.976-.04-33.041-.042-34.467zM7.519 37.2c4.895-2.617 5.171-2.81 5.171-2.81h1.79v6.063zm0 0" class="cls-1" data-name="Path 3621"/>
        <path id="Path_3622" d="M97.805 71.086a4 4 0 1 1-4-4 4 4 0 0 1 4 4zm0 0" class="cls-1" data-name="Path 3622" transform="translate(-79.822 -59.631)"/>
        <path id="Path_3623" d="M38.987 159.407a19.827 19.827 0 0 0-5.794-5.513v-10.161l1.509-3-3.167-1.633-1.306 2.359a2.017 2.017 0 0 1-4.033 0l-1.409-2.359-3.2 1.586 1.372 2.428v9.4a24.84 24.84 0 0 0-6.771 2.811.628.628 0 0 0 .008 1.082A34.7 34.7 0 0 0 27 160.4a34.7 34.7 0 0 0 11.585-.009.628.628 0 0 0 .407-.979zm0 0" class="cls-2" data-name="Path 3623" transform="translate(-14.118 -123.647)"/>
        <path id="Path_3624" d="M95.71 54.349a1.845 1.845 0 0 0 .019-.246 1.794 1.794 0 1 0-3.564.275 4.006 4.006 0 0 0-2.181 3.168 2.912 2.912 0 0 0 3.36.113 2.271 2.271 0 0 1 2-.288 2.982 2.982 0 0 0 2.534-.26 4.011 4.011 0 0 0-2.171-2.76zm0 0" class="cls-3" data-name="Path 3624" transform="translate(-79.988 -46.498)"/>
    </g>
</svg>
