<svg xmlns="http://www.w3.org/2000/svg" width="57.39" height="58.604" viewBox="0 0 57.39 58.604">
    <defs>
        <style>
            .cls-1{fill:#e5e9ea}.cls-2{fill:#42c0e2}.cls-3{fill:#49bd90}.cls-4{fill:#fa70b2}.cls-5{fill:#ffd061}.cls-6{fill:#ef8930}.cls-7{fill:#3e4b5c}.cls-8{fill:#dd215b}.cls-9{fill:#243142}
        </style>
    </defs>
    <g id="surface1">
        <path id="Path_3707" d="M46.816 31.824a20.431 20.431 0 0 1-3.737 1.384l-.3.076a18.666 18.666 0 0 1-8.041.307c-3.628-.716-6.371-2.665-7.116-5.481-.984-3.716 1.8-7.838 6.553-10.377a4.017 4.017 0 0 0 2.114-3.221 4.246 4.246 0 0 0-3.67-4.556 31.514 31.514 0 0 0-11.938.55C5.888 14.422-2.863 29.986.853 44.833a28.508 28.508 0 0 0 56.164-6.7c0-.1 0-.211-.008-.334a7.112 7.112 0 0 0-10.193-5.975zM45.6 49.208a4.131 4.131 0 1 1 2.936-5.05 4.13 4.13 0 0 1-2.936 5.05zm0 0" class="cls-1" data-name="Path 3707" transform="translate(0 -8.53)"/>
        <path id="Path_3708" d="M255.745 371.262a5.047 5.047 0 1 1-5.047-5.047 5.046 5.046 0 0 1 5.047 5.047zm0 0" class="cls-2" data-name="Path 3708" transform="translate(-217.535 -324.298)"/>
        <path id="Path_3709" d="M131.864 340.578a5.047 5.047 0 1 1-5.047-5.047 5.047 5.047 0 0 1 5.047 5.047zm0 0" class="cls-3" data-name="Path 3709" transform="translate(-107.832 -297.126)"/>
        <path id="Path_3710" d="M58.578 233.02a5.047 5.047 0 1 1-5.047-5.047 5.046 5.046 0 0 1 5.047 5.047zm0 0" class="cls-4" data-name="Path 3710" transform="translate(-42.935 -201.879)"/>
        <path id="Path_3711" d="M95.387 108.766a5.047 5.047 0 1 1-5.047-5.047 5.047 5.047 0 0 1 5.047 5.047zm0 0" class="cls-5" data-name="Path 3711" transform="translate(-75.531 -91.847)"/>
        <path id="Path_3712" d="M391.776 200.344l-.849 10.884-1.8 23.1a1.585 1.585 0 0 1-.828 1.179 3.49 3.49 0 0 1-1.836.475c-1.418-.006-2.584-.744-2.648-1.676l-1.607-23.11-.757-10.891zm0 0" class="cls-5" data-name="Path 3712" transform="translate(-337.788 -177.374)"/>
        <path id="Path_3713" d="M387.743 235.767c-.934-.252-1.606-.844-1.655-1.545l-1.726-33.909-2.913-.012.758 10.891 1.607 23.11c.064.932 1.231 1.67 2.648 1.676a3.747 3.747 0 0 0 1.281-.211zm0 0" class="cls-6" data-name="Path 3713" transform="translate(-337.788 -177.374)"/>
        <path id="Path_3714" d="M390.924 211.229l.849-10.884-7.415-.031-2.913-.012.758 10.891 2.709.011zm0 0" class="cls-7" data-name="Path 3714" transform="translate(-337.785 -177.374)"/>
        <path id="Path_3715" d="M351.44 22.927c-4.726-2.124-5.222-9.229-1-13.42s6.079-6.676 6.09-9.507c0 0 15.233 15.6 5.234 22.971zm0 0" class="cls-4" data-name="Path 3715" transform="translate(-307.78)"/>
        <path id="Path_3716" d="M355.717 22.945l-4.276-.018c-4.726-2.125-5.222-9.229-1-13.419s6.079-6.677 6.09-9.508c1.534 8.429-6.949 13.421-.814 22.945zm0 0" class="cls-8" data-name="Path 3716" transform="translate(-307.781)"/>
        <path id="Path_3717" d="M384.912 211.2l-.554-10.89-2.913-.012.758 10.891zm0 0" class="cls-9" data-name="Path 3717" transform="translate(-337.785 -177.374)"/>
    </g>
</svg>
