<svg xmlns="http://www.w3.org/2000/svg" width="53.766" height="39.428" viewBox="0 0 53.766 39.428">
    <defs>
        <style>
            .cls-1{fill:#c7312e}.cls-2{fill:#eb423f}
        </style>
    </defs>
    <g id="high-heels" transform="translate(-16 -80)">
        <path id="Path_3705" d="M99.844 107.779l-7.169 2.688L69.377 80C66.407 80 64 84.012 64 88.961c0 .6 2.688 30.467 2.688 30.467h2.688V97.922s2.688 0 6.273 4.48 7.706 14.158 7.706 14.158a7.169 7.169 0 0 0 5.735 2.868h23.3c-.001-3.584-7.17-11.649-12.546-11.649z" class="cls-1" data-name="Path 3705" transform="translate(-42.623)"/>
        <path id="Path_3706" d="M51.844 107.779l-7.169 2.688L21.377 80C18.407 80 16 84.012 16 88.961c0 .6 1.792 30.467 1.792 30.467h2.688l.9-21.506s2.688 0 6.273 4.48 7.706 14.158 7.706 14.158a7.169 7.169 0 0 0 5.735 2.868h23.3c-.005-3.584-7.174-11.649-12.55-11.649z" class="cls-2" data-name="Path 3706"/>
    </g>
</svg>
