<svg xmlns="http://www.w3.org/2000/svg" width="51.533" height="53.793" viewBox="0 0 51.533 53.793">
    <defs>
        <style>
            .cls-1{fill:#ffd15c}.cls-2{fill:#f05540}.cls-3{fill:#f3705a}.cls-4{fill:#f7b64c}.cls-5{fill:#ced6e0}.cls-6{fill:#415a6b}.cls-7{fill:#344a5e}.cls-8{fill:#e8eae9}.cls-9{fill:#66c6b9}
        </style>
    </defs>
    <g id="engineers" transform="translate(-10.765)">
        <g id="Group_2383" data-name="Group 2383" transform="translate(42.999 9.46)">
            <path id="Path_3661" d="M328.387 92.432s-.224.9-.336 1.456c-.112.672-.448 2.688-1.68 3.7l-1.456 3.472-3.92-1.12s.9-4.368 1.008-5.04-.224-2.24-.112-3.92c.109-1.572 6.048-1.012 6.496 1.452z" class="cls-1" data-name="Path 3661" transform="translate(-320.655 -90.098)"/>
            <path id="Path_3662" d="M325.489 92.432s-.224.9-.336 1.456c-.112.672-.448 2.688-1.68 3.7v4.032c-2.016 6.384-7.28 4.7-5.264-1.68 0 0 .9-4.368 1.008-5.04s-.224-2.24-.112-3.92c0-1.572 5.936-1.012 6.384 1.452z" class="cls-1" data-name="Path 3662" transform="translate(-317.758 -90.098)"/>
        </g>
        <path id="Path_3663" d="M322.958 57.8l-.9-1.008s.784-3.136 3.36-3.472a4.022 4.022 0 0 1 4.7 4.256 1.375 1.375 0 0 1-.112 1.12c-.328.444-5.592.444-7.048-.896z" class="cls-2" data-name="Path 3663" transform="translate(-278.612 -47.682)"/>
        <path id="Path_3664" d="M319.044 86.727a3.474 3.474 0 0 0 1.344.784c.784.224 5.152.448 6.048.672s.56-.448.672-.784a13 13 0 0 1 .336 1.792c0 .448-.336.448-.672.448a46.018 46.018 0 0 1-5.376-.672c-1.344-.336-1.456-.224-1.792-.336a1.488 1.488 0 0 1-.9-1.12c-.104-.224.34-.784.34-.784z" class="cls-3" data-name="Path 3664" transform="translate(-275.594 -77.621)"/>
        <path id="Path_3665" d="M333.811 139.548a2.127 2.127 0 0 1-1.68.448c-1.12-.112-2.464-1.792-2.688-3.136a5.4 5.4 0 0 0 1.456 3.808 6.83 6.83 0 0 0 1.792 1.456z" class="cls-4" data-name="Path 3665" transform="translate(-285.209 -122.49)"/>
        <path id="Path_3666" d="M311.89 167.176a4.587 4.587 0 0 1 .672 3.024 12.237 12.237 0 0 0 .336-1.9c0-.56.9-1.568.9-1.568l1.344 2.352L312 179.608l-3.808-.9.9-11.648z" class="cls-5" data-name="Path 3666" transform="translate(-266.2 -149.222)"/>
        <path id="Path_3667" d="M241.643 364.241a37.937 37.937 0 0 1 1.232-4.144c.56-1.344 1.344-3.248 1.344-3.248s.224.112.56 1.232c.336 1.008 1.568 5.264 1.792 6.16h6.048c.448-2.352.336-10.416.336-10.416l-5.376-6.832s-8.512 1.232-10.3 5.376c-1.68 3.808-1.12 10.752-1.008 11.984h5.376z" class="cls-6" data-name="Path 3667" transform="translate(-201.664 -310.56)"/>
        <ellipse id="Ellipse_742" cx="1.12" cy=".56" class="cls-1" data-name="Ellipse 742" rx="1.12" ry=".56" transform="scale(-1) rotate(84.49 -14.511 -30.822)"/>
        <path id="Path_3668" d="M236.931 161.288s-.224-.112-1.008.336a8.172 8.172 0 0 1-2.912.56l-.448.112s2.24 4.592 1.792 6.944-4.928 14.448-5.488 15.9c-.448 1.456-.672 2.128-.672 2.128a19.444 19.444 0 0 0 3.7 2.352c1.12.336 2.016.56 2.8-1.12s3.472-8.736 3.808-11.76c.224-3.136-1.008-14.9-1.008-14.9z" class="cls-7" data-name="Path 3668" transform="translate(-194.6 -144.342)"/>
        <path id="Path_3669" d="M279 291.881a2.587 2.587 0 0 1-2.016-1.9c-.339-1.796 2.016.332 2.016 1.9z" class="cls-1" data-name="Path 3669" transform="translate(-238.234 -258.92)"/>
        <path id="Path_3670" d="M362.141 156.06a2.38 2.38 0 0 1-1.568 1.008l-.112 2.688 1.68-2.8z" class="cls-8" data-name="Path 3670" transform="translate(-312.979 -139.674)"/>
        <path id="Path_3671" d="M335.23 194.055s-.336.56-2.24.9-3.024.448-3.024.448-1.792.336-2.24-.9-2.464-8.176-2.464-11.312c0-3.248 6.048-16.464 6.048-16.464a8.1 8.1 0 0 1 1.568 1.008l.784.784a6.61 6.61 0 0 0 1.9.9 7.242 7.242 0 0 0-2.8 3.7c-1.004 2.457 2.468 20.936 2.468 20.936z" class="cls-7" data-name="Path 3671" transform="translate(-281.476 -149.222)"/>
        <g id="Group_2384" data-name="Group 2384" transform="translate(40.427 16.61)">
            <path id="Path_3672" d="M307.71 194.845c0 2.352-.336 7.84-1.568 9.632a16.623 16.623 0 0 1-1.232 1.68 2.289 2.289 0 0 1-1.008.56c-.448.112-4.368-.336-7.28-.672-1.792-.224-3.136-.336-3.136-.336l-.224-4.368s2.352.112 4.256.112h1.9c1.008 0 2.24-.9 2.688-1.008.336-.112.336-1.568.784-2.576.336-1.008 1.232-2.8 1.232-2.912a7.942 7.942 0 0 1 2.8-3.7 6.618 6.618 0 0 1 .788 3.588z" class="cls-6" data-name="Path 3672" transform="translate(-293.262 -187.789)"/>
            <path id="Path_3673" d="M330.6 158.194s-.448 1.008-.672 1.456-1.456 2.8-1.792 3.472a24.173 24.173 0 0 0-2.128 5.712 26.971 26.971 0 0 0-.784 6.72 34.078 34.078 0 0 1 2.688-7.728c1.68-3.024 3.92-6.272 3.92-6.272l-.9-.56.9-.112a3.381 3.381 0 0 0-.336-1.456c-.336-.56-.672-.784-.784-1.008z" class="cls-6" data-name="Path 3673" transform="translate(-321.862 -158.194)"/>
        </g>
        <path id="Path_3674" d="M322.846 142.194a5.683 5.683 0 0 0 1.456 3.024l-.224.336-.448-.224a2.52 2.52 0 0 0-1.008 2.016 21.332 21.332 0 0 1-.56-3.024 4.037 4.037 0 0 1 .784-2.128z" class="cls-8" data-name="Path 3674" transform="translate(-278.612 -127.264)"/>
        <g id="Group_2385" data-name="Group 2385" transform="translate(34.905 15.378)">
            <path id="Path_3675" d="M303.528 146.46a3.439 3.439 0 0 0-.784.9 1.482 1.482 0 0 1-.9.672l-.672 1.12.672.336-1.12.224s1.68 7.952 2.128 9.968a12.618 12.618 0 0 1 .448 3.808 51.632 51.632 0 0 0 .448-9.072c-.22-3.476-.668-6.724-.22-7.956z" class="cls-6" data-name="Path 3675" transform="translate(-294.422 -146.46)"/>
            <path id="Path_3676" d="M253.137 185.276s-1.456.112-3.36.224a37.8 37.8 0 0 1-6.272-.112c-.336-.112-.672-.112-.9-.224-2.352-.9-1.9-4.48-1.9-4.48s1.568-6.16 2.128-7.392 1.008-1.232 1.008-1.232 2.24 4.592 1.792 6.944c-.112.336-.224.9-.448 1.568a20.3 20.3 0 0 0 2.128.784c1.12.336 1.008 0 1.68 0h.672c1.232 0 3.472.224 3.472.224.448.784 0 3.696 0 3.696z" class="cls-6" data-name="Path 3676" transform="translate(-240.671 -169.372)"/>
        </g>
        <path id="Path_3677" d="M277.032 236.537a20.217 20.217 0 0 0-.56-2.128q-.168-.336-.336 0l-.336-.56s-.448-.112-.336.448c0 0-.336-.112-.336.336a.981.981 0 0 0 .224.672s-.336.112-.112.9a4.778 4.778 0 0 1 .224 1.008z" class="cls-1" data-name="Path 3677" transform="translate(-236.605 -209.287)"/>
        <g id="Group_2386" data-name="Group 2386" transform="translate(38.746 24.898)">
            <path id="Path_3678" d="M284.84 239.6a.866.866 0 0 1-.112-.336.866.866 0 0 0 .112.336.411.411 0 0 0 .112.336c0 .112.112.224.112.336s0 .112.112.224a.11.11 0 0 0 .112.112c0 .112.112.224.112.336a.11.11 0 0 0 .112.112v-.112c0-.112-.112-.224-.112-.336a.11.11 0 0 0-.112-.112c0-.112 0-.112-.112-.224 0-.112-.112-.224-.112-.336-.112-.228-.112-.336-.224-.336z" class="cls-4" data-name="Path 3678" transform="translate(-283.944 -239.036)"/>
            <path id="Path_3679" d="M279.395 237.127c.112.112.112.224.224.336 0 .112.112.224.112.336s0 .112.112.224c0 .112 0 .112.112.224 0 .112.112.224.112.336s.112.224.112.336a.866.866 0 0 1 .112.336.49.49 0 0 1-.112-.336c0-.112-.112-.224-.112-.336s-.112-.224-.112-.336 0-.112-.112-.224c0-.112 0-.112-.112-.224 0-.112-.112-.224-.112-.336-.224-.224-.224-.336-.224-.336z" class="cls-4" data-name="Path 3679" transform="translate(-279.171 -237.127)"/>
            <path id="Path_3680" d="M277.261 247.794h.224v.112c0 .112 0 .224.112.224 0 .112 0 .224.112.224v.448a.347.347 0 0 0-.112-.224c0-.112 0-.112-.112-.224 0-.112 0-.224-.112-.224 0-.112 0-.224-.112-.224v-.112z" class="cls-4" data-name="Path 3680" transform="translate(-277.261 -246.674)"/>
            <path id="Path_3681" d="M377.629 291.619s0-.112-.224-.336a8.632 8.632 0 0 1-1.456-1.008 9.746 9.746 0 0 0-1.232-1.008c-.336-.224-.56-.112-1.12-.112h-.336v1.68h.56l.224-.224a1.829 1.829 0 0 1 .784 0 13.3 13.3 0 0 0 1.792.9s.9.784 1.456.336z" class="cls-4" data-name="Path 3681" transform="translate(-363.181 -283.667)"/>
        </g>
        <path id="Path_3682" d="M281.5 258.882l8.736-1.68a7.914 7.914 0 0 0 4.592-9.408l-12.32 6.944-11.312 1.9-.336 5.04z" class="cls-9" data-name="Path 3682" transform="translate(-232.786 -221.776)"/>
        <path id="Path_3683" d="M324.53 279.116s2.464 1.344 2.912 1.568a3.818 3.818 0 0 0 1.792.448 9.056 9.056 0 0 1 2.352.56c.448.112.784-.224.448-.56a1.557 1.557 0 0 0-.784-.56l-1.344-.336a3.066 3.066 0 0 1 .56-.448 1.829 1.829 0 0 1 .784 0s1.232.9 1.68 1.12c0 0 .9 1.12 1.568.336l-.448-.336a1.385 1.385 0 0 0-.336-.224c-.224-.112-1.008-.784-1.456-1.12a11.162 11.162 0 0 0-1.232-1.12c-.336-.224-.448-.112-1.12-.112a14.274 14.274 0 0 1-2.24-.112c-.448-.112-1.792-.56-1.792-.56l-1.68.336z" class="cls-1" data-name="Path 3683" transform="translate(-280.52 -248.506)"/>
        <g id="Group_2387" data-name="Group 2387" transform="translate(14.678 39.345)">
            <path id="Path_3684" d="M56.98 393.836l.448-1.568c0 .672.112 1.232.112 1.568h8.624a11.026 11.026 0 0 0 0-3.472 66.979 66.979 0 0 0-2.352-8.064l.336-2.24-7.392.224s-7.616 2.464-8.4 5.712a26.069 26.069 0 0 0 0 7.952h8.624z" class="cls-6" data-name="Path 3684" transform="translate(-48.031 -379.5)"/>
            <path id="Path_3685" d="M56.98 389.062l.448-1.568c0 .672.112 1.232.112 1.568h8.624a11.025 11.025 0 0 0 0-3.472c-.336-2.352-2.576-10.864-2.576-10.864l-6.832.672s-7.616 2.464-8.4 5.712a26.069 26.069 0 0 0 0 7.952z" class="cls-6" data-name="Path 3685" transform="translate(-48.031 -374.726)"/>
        </g>
        <g id="Group_2388" data-name="Group 2388" transform="translate(24.859 14.818)">
            <path id="Path_3686" d="M182.949 149.66a7.6 7.6 0 0 1 1.68 2.24c.448 1.12.336 1.68.56 1.9.224.336.56.448.672.784s1.568 2.576 1.568 2.576 1.344.56 1.568 1.008a1.734 1.734 0 0 1 .224.672.823.823 0 0 1 .672.112c.336.224.56.224.9.448.448.112.448 0 .56.336a31.13 31.13 0 0 0 4.256 2.016c1.008.336 3.92 1.344 3.92 1.344s-1.344.224-1.008 4.7c0 0-1.792-.672-3.36-1.344-1.68-.672-3.248-.9-4.256-1.456a15.938 15.938 0 0 0-3.36-1.568 13.863 13.863 0 0 1-2.464-1.232s-2.581-11.976-2.132-12.536z" class="cls-7" data-name="Path 3686" transform="translate(-178.917 -148.764)"/>
            <path id="Path_3687" d="M151.939 170.806l-.224-.112c-.672-2.688-1.344-5.152-1.344-5.152h-.448a27.8 27.8 0 0 0 0-9.632c-.672-4.256-1.456-8.736-2.576-10.64s-2.352-4.144-2.352-4.144 3.024 0 4.032.784a9.223 9.223 0 0 1 1.9 3.92 51.016 51.016 0 0 1 .56 8.4 77.159 77.159 0 0 0 .56 8.064c.224 1.232.672 5.712.9 7.728a.786.786 0 0 1-1.008.784z" class="cls-7" data-name="Path 3687" transform="translate(-144.995 -141.127)"/>
        </g>
        <path id="Path_3688" d="M105.949 58.257s-.56.9-.672 1.008a1.734 1.734 0 0 0 .224.672c.224.448.448 1.008.448 1.008a.452.452 0 0 1-.336.56c-.448.112-.672.336-.672.448s.336.448 0 .672a.433.433 0 0 1 0 .56c-.224.336-.672.448-.672 1.008-.112.448-.224 1.12-1.68 1.008s-1.9.112-2.128.56a6.19 6.19 0 0 0-.112 3.7l.448 1.68-5.936-6.944A7.892 7.892 0 0 0 96.2 61.5c.224-1.232.9-5.712.9-5.712z" class="cls-1" data-name="Path 3688" transform="translate(-75.266 -49.935)"/>
        <path id="Path_3689" d="M97.25 157.164c-.112-.224 0-.56 0-.784a18.5 18.5 0 0 1-1.792-4.7v-.224l-.672-.784-1.344 2.016a1.565 1.565 0 0 0-.784-.672c-.448-.224-3.248-2.352-3.248-2.352l-2.016.112 4.256 24.863h3.136c3.136 0 4.256-1.008 4.256-1.008s.112-9.631-1.792-16.467z" class="cls-5" data-name="Path 3689" transform="translate(-68.583 -133.946)"/>
        <path id="Path_3690" d="M154.915 167.068a66.093 66.093 0 0 0-2.016-7.28c-.784-1.9-1.9-7.392-2.576-8.624s-2.128-3.7-2.128-3.7l.224-.9c.112 0 .224-.112.336-.112a60.484 60.484 0 0 1 4.592 11.312 44.214 44.214 0 0 1 1.568 9.304z" class="cls-6" data-name="Path 3690" transform="translate(-123 -131.083)"/>
        <path id="Path_3691" d="M27.587 132.594a6.787 6.787 0 0 1-1.568 1.12c-.9.448-1.232.336-2.016.784s-3.248 2.016-3.808 3.248c0 0 1.12-1.456 2.464-.9 1.456.56 3.92 6.048 4.144 7.728s-4.48 13.44-5.712 17.36-.9 6.832.336 7.616 6.5 4.592 9.408 1.344 3.92-16.24 3.92-16.24.224-5.824-1.456-9.52-5.712-12.54-5.712-12.54z" class="cls-7" data-name="Path 3691" transform="translate(-8.44 -118.672)"/>
        <path id="Path_3692" d="M93.765 123.554l.672-.56a10.69 10.69 0 0 0 1.68 2.912c.9.9 2.352 2.128 2.352 2.128a2.191 2.191 0 0 1-1.12-.112l-1.12 1.232s-2.576-5.376-2.464-5.6z" class="cls-8" data-name="Path 3692" transform="translate(-74.282 -110.08)"/>
        <path id="Path_3693" d="M99.46 49.132a4.831 4.831 0 0 0 2.352-2.576c.784-2.016 2.016-.9 2.352-.56a2.789 2.789 0 0 1 .224 2.128h.9s0-2.352.784-2.912 3.36.56 3.36.56.9-.336.56-1.12-8.064-3.584-9.072-3.136c-1.008.56-2.24 1.568-2.016 2.464a20.175 20.175 0 0 1 .672 3.584c-.004 1.008-.228 1.344-.116 1.568z" class="cls-7" data-name="Path 3693" transform="translate(-78.857 -37.114)"/>
        <ellipse id="Ellipse_743" cx="1.68" cy="1.12" class="cls-1" data-name="Ellipse 743" rx="1.68" ry="1.12" transform="scale(-1) rotate(88.05 -5.907 -17.55)"/>
        <path id="Path_3694" d="M87.506 5.41l-.112-.56A6.052 6.052 0 0 1 92.658.034c4.48-.448 7.056 3.584 7.056 6.5a6.654 6.654 0 0 0-.448.9c-.112-.008-8.066.888-11.76-2.024z" class="cls-2" data-name="Path 3694" transform="translate(-68.583)"/>
        <path id="Path_3695" d="M84.173 46.194s5.712 2.352 10.08 2.128c0 0 1.792 0 2.24-.56a.775.775 0 0 0 0 .56c.112.336 1.68 1.232 1.68 1.456 0 .336-.672.784-1.9.448s-2.688-.224-3.92-.448a50.01 50.01 0 0 1-8.176-2.016c-.336 0-.448-.448-.336-.672.108-.336.22-.56.332-.896z" class="cls-3" data-name="Path 3695" transform="translate(-65.362 -41.344)"/>
        <path id="Path_3696" d="M92.167 134.289c-.672-2.016-2.016-7.5-3.136-10.528s-2.576-4.928-2.576-5.488a4.262 4.262 0 0 1 .336-1.68s-1.232 1.568-1.68 2.016v.112a1.3 1.3 0 0 0-.224 1.12 11.869 11.869 0 0 0 .56 1.344l1.568.9-1.008.9s.112.112 1.456 1.792 3.584 7.28 4.48 9.3.784 6.272.784 6.272a23.888 23.888 0 0 0-.56-6.06z" class="cls-6" data-name="Path 3696" transform="translate(-66.3 -104.351)"/>
        <path id="SVGCleanerId_0" d="M144.824 146.46a11.186 11.186 0 0 1 1.008 2.016c0 .336-.784.9-.784.9a2.06 2.06 0 0 0-.672 1.008 5.989 5.989 0 0 0 .112 1.68c-.224-1.008-.448-1.68-.56-2.576.112-.004-.228-2.688.896-3.028z" class="cls-8" transform="translate(-119.181 -131.082)"/>
        <g id="Group_2389" data-name="Group 2389" transform="translate(24.747 15.378)">
            <path id="SVGCleanerId_0_1_" d="M144.824 146.46a11.186 11.186 0 0 1 1.008 2.016c0 .336-.784.9-.784.9a2.06 2.06 0 0 0-.672 1.008 5.989 5.989 0 0 0 .112 1.68c-.224-1.008-.448-1.68-.56-2.576.112-.004-.228-2.688.896-3.028z" class="cls-8" transform="translate(-143.928 -146.46)"/>
        </g>
        <path id="Path_3697" d="M136.9 119.618a5.891 5.891 0 0 1-2.576-3.024 7.935 7.935 0 0 0 1.456 3.584v-.112c.112-.224.336-.336 1.12-.448z" class="cls-4" data-name="Path 3697" transform="translate(-110.589 -104.352)"/>
        <path id="Path_3698" d="M71.395 307.991l12.544-2.912 15.12-13.552s5.376 6.5 12.656 4.816l-32.48 14.448s-4.035 1.119-7.84-2.8z" class="cls-8" data-name="Path 3698" transform="translate(-54.264 -260.917)"/>
        <path id="Path_3699" d="M99.4 372.245l2.016 1.232s.9.224 1.568.448a5.3 5.3 0 0 1 1.344.784.582.582 0 0 1 .224.448l.112.672s1.008.784 1.344 1.12.784.336.672.9a.485.485 0 0 1 .224.448c0 .336-.448.56-.448.56a1.212 1.212 0 0 1-.672.448c-.448.112-1.456.224-1.456.224a2.775 2.775 0 0 1-1.008.336 5.24 5.24 0 0 1-1.9-.224c-.672-.112-1.456-.448-1.568-.784s-.448-.784-.56-1.12a2.955 2.955 0 0 1-.112-.784 4.823 4.823 0 0 0-.784-.784c-.336-.224-2.464-1.792-2.464-1.792s2.235-3.028 3.468-2.132z" class="cls-1" data-name="Path 3699" transform="translate(-76.22 -333.012)"/>
        <g id="Group_2390" data-name="Group 2390" transform="translate(24.956 41.249)">
            <path id="Path_3700" d="M164.072 415.649a1.614 1.614 0 0 1-.224.336.688.688 0 0 1-.672.112c-.224-.112-1.12-.672-1.456-.784a6.8 6.8 0 0 0-1.12-.784 1.732 1.732 0 0 0-.672-.336 1.573 1.573 0 0 0 .448.448 10.379 10.379 0 0 1 1.12.56c.336.224.9.56 1.12.672a2.137 2.137 0 0 0 .9.336c.332 0 .444-.336.556-.56z" class="cls-4" data-name="Path 3700" transform="translate(-158.457 -411.953)"/>
            <path id="Path_3701" d="M156.211 428.113a1.337 1.337 0 0 1-.56.224 4.516 4.516 0 0 1-1.232 0 1.037 1.037 0 0 1-.784-.112 9.526 9.526 0 0 1-1.568-1.008 2.321 2.321 0 0 0-.672-.224 8.116 8.116 0 0 0 .784.448c.448.224 1.008.56 1.232.672a1.669 1.669 0 0 0 .9.336c.444-.112 1.452.112 1.9-.336z" class="cls-4" data-name="Path 3701" transform="translate(-150.82 -423.409)"/>
            <path id="Path_3702" d="M148.289 436.163c-.56-.224-1.344-.56-1.568-.672-.336-.112-.9-.336-.784-.224a7.455 7.455 0 0 0 1.344.672c.336.112 1.12.56 1.68.336a.11.11 0 0 0 .112-.112c0 .112-.224.224-.784 0z" class="cls-4" data-name="Path 3702" transform="translate(-145.922 -430.787)"/>
            <path id="Path_3703" d="M163.128 392.86c.112.112.112.112.112.224a.11.11 0 0 0 .112.112c0 .112.112.224.224.336l.112.112a.391.391 0 0 0 .224.112c.112.112.224.224.336.224.112.112.224.112.336.224a.347.347 0 0 0 .224.112l.112.112h-.112c-.112 0-.112-.112-.224-.112-.112-.112-.224-.112-.336-.224-.112 0-.112-.112-.224-.112s-.112-.112-.224-.112-.112-.112-.224-.112a.11.11 0 0 1-.112-.112c-.112-.112-.112-.224-.224-.336v-.108c0-.224 0-.224-.112-.336z" class="cls-4" data-name="Path 3703" transform="translate(-161.321 -392.86)"/>
        </g>
        <path id="Path_3704" d="M23.851 193.425a3.231 3.231 0 0 0-2.016 1.568 11.74 11.74 0 0 0-.784 3.584s-3.584-1.68-4.256-2.464c-.336-.448-1.68-1.792-2.688-3.136a15.709 15.709 0 0 1-1.792-2.576 13.78 13.78 0 0 1-.336-4.592 27.486 27.486 0 0 0-1.12-4.7c-.336-1.12.336-4.144.336-4.144s-.112-2.8.56-4.032 1.12-1.456 2.464-.9c1.456.56 3.92 6.048 4.144 7.728.224.9-.224 1.456-.224 2.688s-.672 2.352-.336 3.472c.336 1.232 0 1.792.336 2.352a12.974 12.974 0 0 0 2.8 2.688c.784.56 2.912 2.464 2.912 2.464z" class="cls-6" data-name="Path 3704" transform="translate(0 -153.855)"/>
    </g>
</svg>
