<svg xmlns="http://www.w3.org/2000/svg" width="53.001" height="52.996" viewBox="0 0 53.001 52.996">
    <defs>
        <style>
            .cls-1{fill:#ffc107}
        </style>
    </defs>
    <path id="musical-note" d="M52.293.432A1.916 1.916 0 0 0 50.7.061L16.627 7.633a1.9 1.9 0 0 0-1.484 1.847v29.946a10.951 10.951 0 0 0-5.679-1.552C4.248 37.874 0 41.27 0 45.445s4.248 7.572 9.464 7.572 9.464-3.4 9.464-7.572V22.356l30.286-6.731v16.23a10.951 10.951 0 0 0-5.678-1.555c-5.221 0-9.464 3.4-9.464 7.572s4.244 7.572 9.464 7.572S53 42.049 53 37.874V1.909a1.883 1.883 0 0 0-.707-1.477z" class="cls-1" transform="translate(0 -.021)"/>
</svg>
