<svg xmlns="http://www.w3.org/2000/svg" width="40" height="39.99" viewBox="0 0 40 39.99">
    <g id="prefix__business-and-finance_2_" data-name="business-and-finance (2)" transform="translate(.001 -.1)">
        <path id="prefix__Path_3555" d="M14.96 291.185l-2.486-2.485-11.446 11.443A3.515 3.515 0 1 0 6 305.114l11.445-11.444z" data-name="Path 3555" transform="translate(0 -266.053)" style="fill:#ffda2d"/>
        <path id="prefix__Path_3556" d="M18.132 334.443L29.578 323l-2.485-2.485-13.932 13.928a3.513 3.513 0 0 0 4.971 0z" data-name="Path 3556" transform="translate(-12.133 -295.385)" style="fill:#ff9100"/>
        <circle id="prefix__Ellipse_737" cx="15.227" cy="15.227" r="15.227" data-name="Ellipse 737" transform="translate(9.538 .1)" style="fill:#596c76"/>
        <path id="prefix__Path_3557" d="M200.713 78.72a15.208 15.208 0 0 0 0-21.534L179.18 78.72a15.208 15.208 0 0 0 21.533 0z" data-name="Path 3557" transform="translate(-165.182 -52.627)" style="fill:#465a61"/>
        <circle id="prefix__Ellipse_738" cx="12.884" cy="12.884" r="12.884" data-name="Ellipse 738" transform="translate(11.881 2.442)" style="fill:#f2f2f2"/>
        <path id="prefix__Path_3558" d="M218.6 96.61a12.869 12.869 0 0 0 0-18.221L200.382 96.61a12.869 12.869 0 0 0 18.221 0z" data-name="Path 3558" transform="translate(-184.728 -72.173)" style="fill:#daedff"/>
        <path id="prefix__Path_3559" d="M322.859 187.039h-3.516L317 185.457v-5.447h5.859a1.172 1.172 0 0 1 1.172 1.172v4.688a1.172 1.172 0 0 1-1.172 1.169z" data-name="Path 3559" transform="translate(-292.235 -165.853)" style="fill:#fdbf00"/>
        <path id="prefix__Path_3560" d="M228.172 150.007a1.172 1.172 0 0 0-1.172 1.172v7.031a1.172 1.172 0 0 0 1.172 1.172h3.516l2.344-1.634v-7.741z" data-name="Path 3560" transform="translate(-209.266 -138.196)" style="fill:#1fcefc"/>
        <path id="prefix__Path_3561" d="M247.859 199.232v-4.225L242 200.866h3.516z" data-name="Path 3561" transform="translate(-223.094 -179.68)" style="fill:#4b97f7"/>
        <path id="prefix__Path_3562" d="M290.516 90.007h-2.344A1.172 1.172 0 0 0 287 91.179v12.89h4.688v-12.89a1.172 1.172 0 0 0-1.172-1.172z" data-name="Path 3562" transform="translate(-264.579 -82.883)" style="fill:#fe810d"/>
        <path id="prefix__Path_3563" d="M291.688 173.21v-8.2L287 169.695v3.516z" data-name="Path 3563" transform="translate(-264.579 -152.024)" style="fill:#ff495a"/>
    </g>
</svg>
