<svg xmlns="http://www.w3.org/2000/svg" width="53" height="56.655" viewBox="0 0 53 56.655">
    <defs>
        <style>
            .cls-1{fill:#ef5249}.cls-2{fill:#88bf40}.cls-3{fill:#ffc119}.cls-4{fill:#f5be9a}.cls-5{fill:#0093ba}.cls-6{fill:#7ecce6}
        </style>
    </defs>
    <g id="Flat" transform="translate(-24 -8)">
        <path id="Path_3549" d="M112.485 241.526v-3.983l-3.566-1.268c-.48-1.157-.721-1.741-1.2-2.9l1.625-3.419-2.816-2.816-3.418 1.625-2.9-1.2L98.942 224h-3.983l-1.268 3.566-2.9 1.2-3.419-1.625-2.816 2.816 1.625 3.419-1.2 2.9-3.566 1.268v3.983l3.566 1.268c.48 1.157.721 1.741 1.2 2.9l-1.625 3.419 2.816 2.816 3.418-1.625 2.9 1.2 1.269 3.566h3.982l1.268-3.566 2.9-1.2 3.419 1.625 2.816-2.816-1.625-3.419 1.2-2.9zm-15.535 5.319a7.31 7.31 0 1 1 7.31-7.31 7.31 7.31 0 0 1-7.31 7.31z" class="cls-1" data-name="Path 3549" transform="translate(-50.858 -191.328)"/>
        <path id="Path_3550" d="M247.069 49.526v-3.983l-3.569-1.268-1.2-2.9 1.625-3.419-2.816-2.816-3.419 1.625-2.9-1.2L233.526 32h-3.983l-1.268 3.566-2.9 1.2-3.419-1.625-2.816 2.816 1.625 3.419-1.2 2.9-1.6 1.173c0 1.989-1.968 2.089-1.968 4.078l3.566 1.268 1.2 2.9-1.625 3.419 2.816 2.816 3.419-1.625 2.9 1.2 1.268 3.566h3.983l1.268-3.566 2.9-1.2 3.419 1.625 2.816-2.816-1.627-3.422 1.2-2.9zm-15.534 5.319a7.31 7.31 0 1 1 7.31-7.31 7.31 7.31 0 0 1-7.311 7.31z" class="cls-2" data-name="Path 3550" transform="translate(-170.069 -21.259)"/>
        <path id="Path_3551" d="M55.069 25.526v-3.983L51.5 20.275l-1.2-2.9 1.625-3.419-2.816-2.816-3.419 1.625-2.9-1.2L41.526 8h-3.983l-1.268 3.566-2.9 1.2-3.419-1.625-2.816 2.816 1.625 3.419-1.2 2.9L24 21.543v3.983l3.566 1.268 1.2 2.9-1.625 3.419 2.816 2.816 3.419-1.629 2.9 1.2 1.268 3.566h3.983l1.267-3.566 2.9-1.2 3.419 1.625 2.816-2.816-1.629-3.417 1.2-2.9zm-15.535 5.319a7.31 7.31 0 1 1 7.31-7.31 7.31 7.31 0 0 1-7.31 7.31z" class="cls-3" data-name="Path 3551"/>
        <path id="Path_3552" d="M333.483 278.845v-5.483l-4.915-4.915a1.938 1.938 0 0 1 2.741-2.741l2.174 2.174v-10.052a1.828 1.828 0 0 1 3.655 0v4.572h3.969a5.169 5.169 0 0 1 3.655 8.824l-2.141 2.141v5.483z" class="cls-4" data-name="Path 3552" transform="translate(-269.276 -219.672)"/>
        <path id="Path_3553" d="M360 432h12.793v8.224H360z" class="cls-5" data-name="Path 3553" transform="translate(-297.621 -375.569)"/>
        <path id="Path_3554" d="M432 456h1.828v1.828H432z" class="cls-6" data-name="Path 3554" transform="translate(-361.397 -396.828)"/>
    </g>
</svg>
