<svg xmlns="http://www.w3.org/2000/svg" width="46.846" height="48.443" viewBox="0 0 46.846 48.443">
    <defs>
        <style>
            .cls-1{fill:gray}.cls-2{fill:#a31900}.cls-3{fill:#821400}.cls-4{fill:#fce0b9}.cls-5{fill:#e18080}.cls-6{fill:#4d2817}.cls-7{fill:#66351e}.cls-8{fill:#fad3ac}.cls-9{fill:#606060}.cls-10{fill:#9e9e9e}.cls-11{fill:#eaca65}.cls-12{fill:#cfb259}.cls-13{fill:#2b2210}.cls-14{fill:#fff}
        </style>
    </defs>
    <g id="singer" transform="translate(-4 -2.023)">
        <path id="Path_3747" d="M54.423 59.046h-1.615V58.5a4.312 4.312 0 0 1 1.924-3.6 2.707 2.707 0 0 0 .563-4L52 46.931l1.8-.29 2.731 3.221a4.321 4.321 0 0 1-.9 6.39 2.7 2.7 0 0 0-1.2 2.251z" class="cls-1" data-name="Path 3747" transform="translate(-9.231 -8.581)"/>
        <path id="Path_3748" d="M25 40h-8.077S4 42.977 4 45.654l.808 11.308h32.307l.808-11.308C37.923 42.977 25 40 25 40z" class="cls-2" data-name="Path 3748" transform="translate(0 -7.304)"/>
        <path id="Path_3749" d="M41.083 43.7a3.073 3.073 0 0 1 .148.892l-.808 3.39L38 57.673h5.654l.808-11.308c-.001-.896-1.452-1.825-3.379-2.665z" class="cls-3" data-name="Path 3749" transform="translate(-6.539 -8.015)"/>
        <g id="Group_2394" data-name="Group 2394" transform="translate(8.846 12.618)">
            <path id="Path_3750" d="M12.019 21a2.019 2.019 0 1 0 0 4.038h1.212V21z" class="cls-4" data-name="Path 3750" transform="translate(-10 -16.268)"/>
            <path id="Path_3751" d="M28.077 40.828V35.9l-.7.381a4.087 4.087 0 0 1-1.968.5h-2.75a4.089 4.089 0 0 1-1.968-.5L20 35.9v4.924a5.712 5.712 0 0 0 8.077.004z" class="cls-4" data-name="Path 3751" transform="translate(-11.923 -19.134)"/>
            <path id="Path_3752" d="M37.212 25.038a2.019 2.019 0 0 0 0-4.038H36v4.038z" class="cls-4" data-name="Path 3752" transform="translate(-15 -16.268)"/>
            <path id="Path_3753" d="M21.51 32.8h2.75a4.089 4.089 0 0 0 1.968-.5l.7-.381 3.1-1.7a4.846 4.846 0 0 0 1.744-3.723V16.272a8.086 8.086 0 0 1-2.423.371h-3.234a8.029 8.029 0 0 1-4.679-1.5L14 19.873v6.615a4.845 4.845 0 0 0 1.744 3.723l3.1 1.7.7.381a4.087 4.087 0 0 0 1.968.5zm3.8-5.654a2.423 2.423 0 1 1-4.846 0z" class="cls-4" data-name="Path 3753" transform="translate(-10.769 -15.141)"/>
        </g>
        <path id="Path_3754" d="M24.423 32.423A2.423 2.423 0 0 0 26.846 30H22a2.423 2.423 0 0 0 2.423 2.423z" class="cls-5" data-name="Path 3754" transform="translate(-3.462 -5.38)"/>
        <path id="Path_3755" d="M34.423 3.808A12.72 12.72 0 0 0 30.1 4.93C28.179 3.794 24.142 3 21.5 3c-3.568 0-6.461 1.447-6.461 3.231A4.039 4.039 0 0 0 11 10.269c0 2.23.193 7.269 2.423 7.269l7.436-4.732a8.029 8.029 0 0 0 4.679 1.5h3.231a8.072 8.072 0 0 0 8.077-8.077 2.423 2.423 0 0 0-2.423-2.421z" class="cls-6" data-name="Path 3755" transform="translate(-1.346 -.188)"/>
        <path id="Path_3756" d="M52.031 23.319a5.668 5.668 0 1 0-.769 4.431 5.654 5.654 0 0 0 .769-4.431z" class="cls-1" data-name="Path 3756" transform="translate(-7.093 -3.265)"/>
        <path id="Path_3757" d="M15.038 7.846c0-1.784 2.893-3.231 6.461-3.231 2.642 0 6.679.794 8.6 1.93a12.72 12.72 0 0 1 4.324-1.122 2.419 2.419 0 0 1 2.349 1.855 8 8 0 0 0 .074-1.048 2.423 2.423 0 0 0-2.423-2.423A12.72 12.72 0 0 0 30.1 4.93C28.179 3.794 24.142 3 21.5 3c-3.568 0-6.461 1.447-6.461 3.231A4.039 4.039 0 0 0 11 10.269c0 .38.006.844.027 1.348a4.027 4.027 0 0 1 4.011-3.771z" class="cls-7" data-name="Path 3757" transform="translate(-1.346 -.188)"/>
        <path id="Path_3758" d="M29.346 16.642h-3.231a8.029 8.029 0 0 1-4.679-1.5L14 19.873v1.615l7.436-4.732a8.029 8.029 0 0 0 4.679 1.5h3.231a8.086 8.086 0 0 0 2.423-.371v-1.613a8.086 8.086 0 0 1-2.423.371z" class="cls-8" data-name="Path 3758" transform="translate(-1.923 -2.523)"/>
        <path id="Path_3759" d="M26.268 42.045a5.688 5.688 0 0 0 1.809-1.217V35.9l-.7.381a4.087 4.087 0 0 1-1.968.5h-2.75a4.089 4.089 0 0 1-1.968-.5L20 35.9v1.962z" class="cls-8" data-name="Path 3759" transform="translate(-3.077 -6.516)"/>
        <path id="Path_3760" d="M45.543 38.5a2.7 2.7 0 0 1-1.393-.386l-2.58-1.548a1.218 1.218 0 0 0-1.406 1.98l2.7 2.253a3.106 3.106 0 0 1 1.119 2.388l-.808 3.39-2.423 9.692h5.654l4.846-15.346z" class="cls-4" data-name="Path 3760" transform="translate(-6.871 -6.609)"/>
        <path id="Path_3761" d="M53.583 41.981l-1.077-8-.558-4.146a5.633 5.633 0 0 1-7.5 1.825l4.621 12.919 4.71-1.145z" class="cls-9" data-name="Path 3761" transform="translate(-7.779 -5.348)"/>
        <path id="Path_3762" d="M54.129 35h-.6A2.525 2.525 0 0 0 51 37.525v3.027a2.525 2.525 0 0 0 2.525 2.525h.6a2.525 2.525 0 0 0 2.525-2.525v-3.027A2.525 2.525 0 0 0 54.129 35z" class="cls-4" data-name="Path 3762" transform="translate(-9.039 -6.342)"/>
        <path id="Path_3763" d="M52.237 23.319a5.651 5.651 0 0 0-10.287-1.657A5.645 5.645 0 0 1 50 29.273a5.674 5.674 0 0 0 2.236-5.954z" class="cls-10" data-name="Path 3763" transform="translate(-7.298 -3.265)"/>
        <path id="Path_3764" d="M12 53h1.615v6.461H12z" class="cls-3" data-name="Path 3764" transform="translate(-1.539 -9.804)"/>
        <path id="Path_3765" d="M36 53h1.615v6.461H36z" class="cls-3" data-name="Path 3765" transform="translate(-6.154 -9.804)"/>
        <path id="Path_3766" d="M59.231 11v4.187a2.4 2.4 0 0 0-.808-.149 2.423 2.423 0 1 0 2.423 2.423V11z" class="cls-11" data-name="Path 3766" transform="translate(-10 -1.726)"/>
        <path id="Path_3767" d="M55.094 2.023l-3.231.718a.809.809 0 0 0-.632.789v4.187a2.4 2.4 0 0 0-.808-.149 2.423 2.423 0 1 0 2.423 2.423V4.177l2.6-.577z" class="cls-11" data-name="Path 3767" transform="translate(-8.462)"/>
        <path id="Path_3768" d="M50.434 13.4a2.419 2.419 0 0 1-2.271-1.606 2.7 2.7 0 0 0-.106.378 2.422 2.422 0 0 0 4.8-.459v-.737a2.426 2.426 0 0 1-2.423 2.424z" class="cls-12" data-name="Path 3768" transform="translate(-8.473 -1.722)"/>
        <path id="Path_3769" d="M58.423 20.423a2.421 2.421 0 0 1-2.382-2.023 2.376 2.376 0 0 0-.041.4 2.423 2.423 0 0 0 4.846 0V18a2.426 2.426 0 0 1-2.423 2.423z" class="cls-12" data-name="Path 3769" transform="translate(-10 -3.073)"/>
        <path id="Path_3770" d="M56.253 3.159l-2.253.5V4.4l2.409-.534z" class="cls-12" data-name="Path 3770" transform="translate(-9.616 -.218)"/>
        <ellipse id="Ellipse_747" cx=".808" cy="1.212" class="cls-13" data-name="Ellipse 747" rx=".808" ry="1.212" transform="translate(16.115 19.773)"/>
        <ellipse id="Ellipse_748" cx=".808" cy="1.212" class="cls-13" data-name="Ellipse 748" rx=".808" ry="1.212" transform="translate(24.192 19.773)"/>
        <circle id="Ellipse_749" cx=".404" cy=".404" r=".404" class="cls-14" data-name="Ellipse 749" transform="translate(16.923 20.581)"/>
        <circle id="Ellipse_750" cx=".404" cy=".404" r=".404" class="cls-14" data-name="Ellipse 750" transform="translate(25 20.581)"/>
    </g>
</svg>
