<svg xmlns="http://www.w3.org/2000/svg" width="54.155" height="51.729" viewBox="0 0 54.155 51.729">
    <defs>
        <style>
            .cls-1{fill:#445ea0}.cls-2{fill:#293d7c}.cls-3{fill:#eef6ff}.cls-4{fill:#fe3745}.cls-5{fill:#b7092b}.cls-6{fill:#d9eafc}.cls-7{fill:#52bbef}.cls-8{fill:#1e99d6}.cls-9{fill:#fff}.cls-10{fill:#ffe2b8}.cls-11{fill:#ffc987}.cls-12{fill:#1a2b63}.cls-13{fill:#aec1ed}.cls-14{fill:#ffaf10}.cls-15{fill:#ef9614}.cls-16{fill:#ffd00d}
        </style>
    </defs>
    <g id="digital-campaign" transform="translate(0 -4.5)">
        <path id="Path_3625" d="M6.029 159.831H2.38A25.815 25.815 0 0 0 0 170.691q0 .691.036 1.373h5.993z" class="cls-1" data-name="Path 3625" transform="translate(0 -138.901)"/>
        <path id="Path_3626" d="M396.155 338.75h-2.274v8.55h2.274a1.061 1.061 0 0 0 1.058-1.058v-6.439a1.061 1.061 0 0 0-1.058-1.053z" class="cls-2" data-name="Path 3626" transform="translate(-352.219 -298.896)"/>
        <path id="Path_3627" d="M281.707 290.847v9.35l8.751 5.221v-19.792z" class="cls-3" data-name="Path 3627" transform="translate(-251.91 -251.391)"/>
        <path id="Path_3628" d="M366.766 288.474a.53.53 0 0 1-.529.529h-2.267a.53.53 0 0 1-.529-.529v-23.138a.53.53 0 0 1 .529-.529h2.268a.53.53 0 0 1 .529.529z" class="cls-4" data-name="Path 3628" transform="translate(-324.999 -232.774)"/>
        <path id="Path_3629" d="M365.257 288.474v-23.138a.53.53 0 0 1 .529-.529h-1.817a.53.53 0 0 0-.529.529v23.139a.53.53 0 0 0 .529.529h1.817a.531.531 0 0 1-.529-.53z" class="cls-5" data-name="Path 3629" transform="translate(-324.998 -232.774)"/>
        <path id="Path_3630" d="M165.718 342.151h-2.452a.53.53 0 0 0-.529.529v6.777a.53.53 0 0 0 .529.529h2.452z" class="cls-3" data-name="Path 3630" transform="translate(-145.524 -301.937)"/>
        <path id="Path_3631" d="M164.272 349.457v-6.777a.53.53 0 0 1 .529-.529h-1.535a.53.53 0 0 0-.529.529v6.777a.53.53 0 0 0 .529.529h1.534a.53.53 0 0 1-.528-.529z" class="cls-6" data-name="Path 3631" transform="translate(-145.524 -301.938)"/>
        <path id="Path_3632" d="M199.732 339.486a.53.53 0 0 1-.529.529h-8.757a.53.53 0 0 1-.529-.529v-9.451a.53.53 0 0 1 .529-.529h8.754a.53.53 0 0 1 .529.529z" class="cls-4" data-name="Path 3632" transform="translate(-169.83 -290.629)"/>
        <path id="Path_3633" d="M192.017 339.486v-9.451a.53.53 0 0 1 .529-.529h-2.1a.53.53 0 0 0-.529.529v9.451a.53.53 0 0 0 .529.529h2.1a.53.53 0 0 1-.529-.529z" class="cls-5" data-name="Path 3633" transform="translate(-169.83 -290.629)"/>
        <path id="Path_3634" d="M353.565 80.67a.53.53 0 0 0-.529-.529H338.6a.53.53 0 0 0-.529.529v10.044a.53.53 0 0 0 .529.529h4.357a1.193 1.193 0 0 1 .846.424l1.7 2.271a.374.374 0 0 0 .633 0l1.7-2.271a1.193 1.193 0 0 1 .846-.424h4.357a.53.53 0 0 0 .529-.529V80.67z" class="cls-7" data-name="Path 3634" transform="translate(-302.316 -67.64)"/>
        <path id="Path_3635" d="M340.174 90.714V80.67a.53.53 0 0 1 .529-.529h-2.1a.53.53 0 0 0-.529.529v10.044a.53.53 0 0 0 .529.529h2.1a.53.53 0 0 1-.529-.529z" class="cls-8" data-name="Path 3635" transform="translate(-302.316 -67.64)"/>
        <g id="Group_2380" data-name="Group 2380" transform="translate(38.179 14.838)">
            <path id="Path_3636" d="M370.815 103.827h-9.063a.793.793 0 0 1 0-1.587h9.063a.793.793 0 0 1 0 1.587z" class="cls-9" data-name="Path 3636" transform="translate(-360.959 -102.24)"/>
            <path id="Path_3637" d="M370.815 127.079h-9.063a.793.793 0 0 1 0-1.587h9.063a.793.793 0 0 1 0 1.587z" class="cls-9" data-name="Path 3637" transform="translate(-360.959 -123.033)"/>
            <path id="Path_3638" d="M366.3 150.33h-4.55a.793.793 0 1 1 0-1.587h4.55a.793.793 0 0 1 0 1.587z" class="cls-9" data-name="Path 3638" transform="translate(-360.959 -143.824)"/>
        </g>
        <circle id="Ellipse_740" cx="5.882" cy="5.882" r="5.882" class="cls-4" data-name="Ellipse 740" transform="translate(22.466 4.5)"/>
        <path id="Path_3639" d="M214.5 10.382a5.882 5.882 0 0 1 4.832-5.782 5.882 5.882 0 1 0 0 11.573 5.882 5.882 0 0 1-4.832-5.791z" class="cls-5" data-name="Path 3639" transform="translate(-189.935)"/>
        <path id="Path_3640" d="M237.887 40.291a.355.355 0 0 1-.253-.106l-2.778-2.8a1.8 1.8 0 0 1 0-2.533 1.766 1.766 0 0 1 2.512 0l.53.534.53-.534a1.766 1.766 0 0 1 2.512 0 1.8 1.8 0 0 1 0 2.533l-2.8 2.8a.353.353 0 0 1-.253.106z" class="cls-9" data-name="Path 3640" transform="translate(-209.55 -26.672)"/>
        <path id="Path_3641" d="M51.832 325.864a.3.3 0 0 1-.214-.089l-2.345-2.365a1.522 1.522 0 0 1 0-2.138 1.49 1.49 0 0 1 2.12 0l.447.451.448-.451a1.49 1.49 0 0 1 2.12 0 1.521 1.521 0 0 1 0 2.138l-2.363 2.366a.3.3 0 0 1-.213.088z" class="cls-4" data-name="Path 3641" transform="translate(-43.67 -282.871)"/>
        <path id="Path_3642" d="M50.457 322.916a1.519 1.519 0 0 1-.049-2.083h-.073a1.482 1.482 0 0 0-1.06.443 1.522 1.522 0 0 0 0 2.138l2.345 2.365a.3.3 0 0 0 .426 0l.626-.626z" class="cls-5" data-name="Path 3642" transform="translate(-43.671 -282.87)"/>
        <path id="Path_3643" d="M124.193 78.606v-1.46a1.482 1.482 0 0 1 1.481-1.481h.342a.106.106 0 1 0 0-.212 1.482 1.482 0 0 1-1.481-1.481v-1.46a1.482 1.482 0 0 1 1.481-1.481.106.106 0 1 0 0-.212 1.482 1.482 0 0 1-1.481-1.481V67.88a1.482 1.482 0 0 1 1.481-1.481.106.106 0 0 0 0-.212h-.654a1.482 1.482 0 0 1-1.481-1.481v-1.46a1.482 1.482 0 0 1 1.214-1.456v-5.683a1.591 1.591 0 0 0-1.587-1.587h-2.468a1.875 1.875 0 0 0-1.8 1.572l-.994 7.294a1.687 1.687 0 0 1-1.385 1.571v13.751h7.339c0-.034-.007-.067-.007-.102z" class="cls-10" data-name="Path 3643" transform="translate(-104.501 -44.729)"/>
        <path id="Path_3644" d="M123.51 54.52h-2.468a1.875 1.875 0 0 0-1.8 1.572l-.994 7.294a1.687 1.687 0 0 1-1.385 1.571v2.1h2.091c.648 0 1.274-.707 1.392-1.572l.994-7.294a1.875 1.875 0 0 1 1.8-1.572h1.96v-.512a1.591 1.591 0 0 0-1.59-1.587z" class="cls-11" data-name="Path 3644" transform="translate(-104.502 -44.729)"/>
        <path id="Path_3645" d="M186.759 258.066a1.591 1.591 0 0 1-1.587-1.587v-1.46a1.591 1.591 0 0 1 1.587-1.587h8.6a1.591 1.591 0 0 1 1.587 1.587v1.46a1.591 1.591 0 0 1-1.587 1.587z" class="cls-10" data-name="Path 3645" transform="translate(-165.586 -222.603)"/>
        <path id="Path_3646" d="M56.529 153.139a.53.53 0 0 1-.529-.529v-16.251a.53.53 0 0 1 .529-.529h5.486a.53.53 0 0 1 .529.529v16.251a.53.53 0 0 1-.529.529h-5.486z" class="cls-2" data-name="Path 3646" transform="translate(-50.077 -117.439)"/>
        <path id="Path_3647" d="M58.1 152.611v-16.252a.53.53 0 0 1 .529-.529h-2.1a.53.53 0 0 0-.529.529v16.251a.53.53 0 0 0 .529.529h2.1a.53.53 0 0 1-.529-.528z" class="cls-12" data-name="Path 3647" transform="translate(-50.077 -117.439)"/>
        <circle id="Ellipse_741" cx="1.416" cy="1.416" r="1.416" class="cls-13" data-name="Ellipse 741" transform="translate(7.779 19.566)"/>
        <g id="Group_2381" data-name="Group 2381" transform="translate(19.275 16.93)">
            <path id="Path_3648" d="M183.817 126.654a1.591 1.591 0 0 1-1.587-1.587v-1.46a1.591 1.591 0 0 1 1.587-1.587h8.916a1.591 1.591 0 0 1 1.587 1.587v1.46a1.591 1.591 0 0 1-1.587 1.587z" class="cls-10" data-name="Path 3648" transform="translate(-182.23 -122.021)"/>
            <path id="Path_3649" d="M189.995 170.459a1.591 1.591 0 0 1-1.587-1.587v-1.46a1.591 1.591 0 0 1 1.587-1.587h8.648a1.591 1.591 0 0 1 1.587 1.587v1.46a1.591 1.591 0 0 1-1.587 1.587z" class="cls-10" data-name="Path 3649" transform="translate(-187.755 -161.193)"/>
            <path id="Path_3650" d="M189.995 214.264a1.591 1.591 0 0 1-1.587-1.587v-1.46a1.591 1.591 0 0 1 1.587-1.587h8.648a1.591 1.591 0 0 1 1.587 1.587v1.46a1.591 1.591 0 0 1-1.587 1.587z" class="cls-10" data-name="Path 3650" transform="translate(-187.755 -200.364)"/>
        </g>
        <g id="Group_2382" data-name="Group 2382" transform="translate(19.275 16.931)">
            <path id="Path_3651" d="M188.392 256.434a1.591 1.591 0 0 1-1.587-1.587v-1.413h-.047a1.591 1.591 0 0 0-1.587 1.587v1.46a1.591 1.591 0 0 0 1.587 1.587h8.6a1.591 1.591 0 0 0 1.587-1.587v-.047h-8.558z" class="cls-11" data-name="Path 3651" transform="translate(-184.861 -239.534)"/>
            <path id="Path_3652" d="M185.45 125.022a1.591 1.591 0 0 1-1.587-1.587v-1.413h-.047a1.591 1.591 0 0 0-1.587 1.587v1.46a1.591 1.591 0 0 0 1.587 1.587h8.916a1.591 1.591 0 0 0 1.587-1.587v-.047h-8.869z" class="cls-11" data-name="Path 3652" transform="translate(-182.23 -122.022)"/>
            <path id="Path_3653" d="M191.629 168.826a1.591 1.591 0 0 1-1.587-1.587v-1.413H190a1.591 1.591 0 0 0-1.587 1.587v1.46a1.591 1.591 0 0 0 1.587 1.586h8.648a1.591 1.591 0 0 0 1.587-1.587v-.047z" class="cls-11" data-name="Path 3653" transform="translate(-187.755 -161.193)"/>
            <path id="Path_3654" d="M191.629 212.631a1.591 1.591 0 0 1-1.587-1.587v-1.413H190a1.591 1.591 0 0 0-1.587 1.587v1.46a1.591 1.591 0 0 0 1.587 1.586h8.648a1.591 1.591 0 0 0 1.587-1.587v-.047h-8.6z" class="cls-11" data-name="Path 3654" transform="translate(-187.755 -200.364)"/>
        </g>
        <path id="Path_3655" d="M40.211 389.646h-9.462a.211.211 0 0 0-.21.211v6.071a.211.211 0 0 0 .21.211h9.462a.211.211 0 0 0 .21-.211v-6.071a.211.211 0 0 0-.21-.211z" class="cls-14" data-name="Path 3655" transform="translate(-27.309 -344.408)"/>
        <path id="Path_3656" d="M32.639 396.308v-4.624l-2.048-1.584a.211.211 0 0 1 .032-.031.21.21 0 0 0-.082.166v6.071a.211.211 0 0 0 .21.211h2.1a.211.211 0 0 1-.212-.209z" class="cls-15" data-name="Path 3656" transform="translate(-27.31 -344.787)"/>
        <path id="Path_3657" d="M40.64 389.646h-9.462a.209.209 0 0 0-.16.076l4.724 3.651a.288.288 0 0 0 .333 0l4.724-3.651a.208.208 0 0 0-.159-.076z" class="cls-16" data-name="Path 3657" transform="translate(-27.737 -344.408)"/>
        <path id="Path_3658" d="M428.239 232.153h-9.462a.211.211 0 0 0-.21.211v6.071a.211.211 0 0 0 .21.211h9.462a.211.211 0 0 0 .21-.211v-6.071a.211.211 0 0 0-.21-.211z" class="cls-14" data-name="Path 3658" transform="translate(-374.294 -203.574)"/>
        <path id="Path_3659" d="M420.666 238.816v-4.624l-2.048-1.583a.213.213 0 0 1 .032-.031.21.21 0 0 0-.082.166v6.071a.211.211 0 0 0 .21.211h2.1a.211.211 0 0 1-.212-.21z" class="cls-15" data-name="Path 3659" transform="translate(-374.294 -203.954)"/>
        <path id="Path_3660" d="M428.668 232.153h-9.462a.209.209 0 0 0-.16.076l4.724 3.651a.288.288 0 0 0 .333 0l4.724-3.651a.209.209 0 0 0-.159-.076z" class="cls-16" data-name="Path 3660" transform="translate(-374.723 -203.574)"/>
    </g>
</svg>
