<svg xmlns="http://www.w3.org/2000/svg" width="35.689" height="48.442" viewBox="0 0 35.689 48.442">
    <defs>
        <style>
            .cls-1{fill:#5f82c3}.cls-2{fill:#415a87}.cls-3{fill:#c8fffa}.cls-4{fill:#e1fffa}.cls-5{fill:#8cebeb}.cls-6{fill:#9bf5f0}.cls-7{fill:#64d2cd}.cls-8{fill:#ff6e91}.cls-9{fill:#ffebdc}.cls-10{fill:#5f3273}.cls-11{fill:#9b23aa}.cls-12{fill:#d255cd}.cls-13{fill:#c341c3}.cls-14{fill:#af32c3}.cls-15{fill:#ebf582}
        </style>
    </defs>
    <g id="content-managing" transform="translate(-11.18)">
        <path id="Path_3565" d="M134.384 1.892v41.957a24.222 24.222 0 0 1-28.384 0V1.892A1.892 1.892 0 0 1 107.892 0h24.6a1.892 1.892 0 0 1 1.892 1.892z" class="cls-1" data-name="Path 3565" transform="translate(-94.82)"/>
        <path id="Path_3566" d="M112.055 0a1.892 1.892 0 0 0-1.892 1.892v44.382A24.2 24.2 0 0 1 106 43.849V1.892A1.892 1.892 0 0 1 107.892 0z" class="cls-2" data-name="Path 3566" transform="translate(-94.82)"/>
        <path id="Path_3567" d="M152.9 97.846h-21.95a.946.946 0 0 1-.95-.946V60.946a.946.946 0 0 1 .946-.946H152.9a.946.946 0 0 1 .946.946V96.9a.946.946 0 0 1-.946.946z" class="cls-3" data-name="Path 3567" transform="translate(-116.55 -54.323)"/>
        <path id="Path_3568" d="M180.058 97.846h-19.112A.946.946 0 0 1 160 96.9V60.946a.946.946 0 0 1 .946-.946h19.112a.946.946 0 0 1 .946.946V96.9a.946.946 0 0 1-.946.946z" class="cls-4" data-name="Path 3568" transform="translate(-143.711 -54.323)"/>
        <path id="Path_3569" d="M230.731 21.892h-3.785a.946.946 0 0 1-.946-.946.946.946 0 0 1 .946-.946h3.785a.946.946 0 0 1 .946.946.946.946 0 0 1-.946.946z" class="cls-2" data-name="Path 3569" transform="translate(-203.467 -18.108)"/>
        <path id="Path_3570" d="M173.977 310.408h-17.031a.946.946 0 0 1-.946-.946v-8.515a.946.946 0 0 1 .946-.946h17.031a.946.946 0 0 1 .946.946v8.515a.946.946 0 0 1-.946.946z" class="cls-5" data-name="Path 3570" transform="translate(-140.09 -271.616)"/>
        <path id="Path_3571" d="M156 221.419v-.946a.473.473 0 0 1 .473-.473h7.569a.473.473 0 0 1 .473.473v.946a.473.473 0 0 1-.473.473h-7.569a.473.473 0 0 1-.473-.473zm12.205 2.365h-11.732a.473.473 0 0 0-.473.473v.946a.473.473 0 0 0 .473.473h11.732a.473.473 0 0 0 .473-.473v-.946a.473.473 0 0 0-.473-.472zm2.839-3.784h-4.731a.473.473 0 0 0-.473.473v.946a.473.473 0 0 0 .473.473h4.731a.473.473 0 0 0 .473-.473v-.946a.473.473 0 0 0-.473-.473z" class="cls-6" data-name="Path 3571" transform="translate(-140.09 -199.185)"/>
        <path id="Path_3572" d="M213.408 300h4.539a5.677 5.677 0 0 1 0 10.408h-4.539a5.677 5.677 0 0 1 0-10.408z" class="cls-7" data-name="Path 3572" transform="translate(-188.98 -271.616)"/>
        <path id="Path_3573" d="M178.515 325.473v.946a.473.473 0 0 1-.473.473h-7.569a.473.473 0 0 1-.473-.473v-.946a.473.473 0 0 1 .473-.473h7.569a.473.473 0 0 1 .473.473zm-3.311 3.311h-4.731a.473.473 0 0 0-.473.473v.946a.473.473 0 0 0 .473.473h4.727a.473.473 0 0 0 .473-.473v-.946a.473.473 0 0 0-.473-.472z" class="cls-4" data-name="Path 3573" transform="translate(-152.765 -294.25)"/>
        <path id="Path_3574" d="M173.977 100.408h-17.031a.946.946 0 0 1-.946-.946v-8.516a.946.946 0 0 1 .946-.946h17.031a.946.946 0 0 1 .946.946v8.515a.946.946 0 0 1-.946.947z" class="cls-8" data-name="Path 3574" transform="translate(-140.09 -81.485)"/>
        <path id="Path_3575" d="M229.569 122.13v-4.417a.412.412 0 0 1 .6-.364l4.178 2.208a.412.412 0 0 1 0 .728l-4.178 2.208a.412.412 0 0 1-.6-.363z" class="cls-9" data-name="Path 3575" transform="translate(-206.698 -106.203)"/>
        <path id="Path_3576" d="M444.038 221.437l-2.382 2.382a.842.842 0 0 1-1.191 0 .842.842 0 0 1 0-1.191l2.382-2.382a.842.842 0 0 1 1.191 0 .842.842 0 0 1 0 1.191z" class="cls-10" data-name="Path 3576" transform="translate(-397.417 -199.184)"/>
        <path id="Path_3577" d="M395.262 236.2l-1.528 5.311-3.6.757-2.518-2.518.757-3.6 5.311-1.528a.421.421 0 0 1 .414.107l1.056 1.056a.421.421 0 0 1 .108.415z" class="cls-11" data-name="Path 3577" transform="translate(-349.792 -212.409)"/>
        <path id="Path_3578" d="M177.929 250.934l5.36 5.36-19.327 19.327a24.113 24.113 0 0 1-8.781-1.939z" class="cls-12" data-name="Path 3578" transform="translate(-139.347 -227.192)"/>
        <path id="Path_3579" d="M155.18 273.682l22.749-22.749 1.951 1.951-21.822 21.822a24.037 24.037 0 0 1-2.878-1.024z" class="cls-13" data-name="Path 3579" transform="translate(-139.347 -227.192)"/>
        <path id="Path_3580" d="M216.97 429.058l-3.31 3.31a1.439 1.439 0 0 1-2.035 0 1.439 1.439 0 0 1 0-2.035l3.31-3.31a1.439 1.439 0 0 1 2.035 0 1.439 1.439 0 0 1 0 2.035z" class="cls-14" data-name="Path 3580" transform="translate(-190.07 -386.239)"/>
        <path id="Path_3581" d="M256.251 438.8a.46.46 0 1 1 0-.65.46.46 0 0 1 0 .65z" class="cls-15" data-name="Path 3581" transform="translate(-230.145 -396.574)"/>
    </g>
</svg>
