<svg xmlns="http://www.w3.org/2000/svg" xmlns:xlink="http://www.w3.org/1999/xlink" width="46.872" height="46.872" viewBox="0 0 46.872 46.872">
    <defs>
        <style>
            .cls-1{fill:#c2cece}.cls-2{fill:url(#linear-gradient)}.cls-3{fill:url(#linear-gradient-2)}.cls-4{fill:url(#linear-gradient-3)}.cls-5{fill:url(#linear-gradient-4)}.cls-6{fill:url(#linear-gradient-5)}.cls-7{fill:url(#linear-gradient-6)}.cls-8{fill:url(#linear-gradient-7)}.cls-9{fill:url(#linear-gradient-8)}.cls-10{fill:url(#linear-gradient-9)}.cls-11{fill:url(#linear-gradient-10)}.cls-12{fill:url(#linear-gradient-11)}.cls-13{fill:url(#linear-gradient-12)}.cls-14{fill:url(#linear-gradient-13)}.cls-15{fill:url(#linear-gradient-14)}
        </style>
        <linearGradient id="linear-gradient" x1=".719" x2="-.182" y1="-1.808" y2="-.907" gradientUnits="objectBoundingBox">
            <stop offset="0" stop-color="#ffcf95"/>
            <stop offset=".054" stop-color="#fed19a"/>
            <stop offset="1" stop-color="#e8efee"/>
        </linearGradient>
        <linearGradient id="linear-gradient-2" x1=".442" x2=".489" y1="-4.255" y2="-4.529" gradientUnits="objectBoundingBox">
            <stop offset="0" stop-color="#c69c6d" stop-opacity="0"/>
            <stop offset="1" stop-color="#754c24"/>
        </linearGradient>
        <linearGradient id="linear-gradient-3" x1=".614" x2=".397" y1=".342" y2=".559" gradientUnits="objectBoundingBox">
            <stop offset="0" stop-color="#ff9102"/>
            <stop offset="1" stop-color="#ffc200"/>
        </linearGradient>
        <linearGradient id="linear-gradient-4" x1=".388" x2=".49" y1=".582" y2=".479" gradientUnits="objectBoundingBox">
            <stop offset="0" stop-color="#ffcf95"/>
            <stop offset=".427" stop-color="#ffc954"/>
            <stop offset="1" stop-color="#ffc200"/>
        </linearGradient>
        <linearGradient id="linear-gradient-5" x1=".433" x2=".498" y1=".743" y2=".677" xlink:href="#linear-gradient-4"/>
        <linearGradient id="linear-gradient-6" x1=".443" x2=".198" y1="3.344" y2="3.1" gradientUnits="objectBoundingBox">
            <stop offset="0" stop-color="#d63305"/>
            <stop offset=".366" stop-color="#cf3004"/>
            <stop offset=".899" stop-color="#bc2602"/>
            <stop offset="1" stop-color="#b72401"/>
        </linearGradient>
        <linearGradient id="linear-gradient-7" x1=".348" x2=".105" y1="4.015" y2="4.217" gradientUnits="objectBoundingBox">
            <stop offset="0" stop-color="#960000"/>
            <stop offset=".331" stop-color="#9c0700" stop-opacity=".671"/>
            <stop offset=".812" stop-color="#ae1a01" stop-opacity=".188"/>
            <stop offset="1" stop-color="#b72401" stop-opacity="0"/>
        </linearGradient>
        <linearGradient id="linear-gradient-8" x1=".425" x2=".333" y1="2.879" y2="2.788" gradientUnits="objectBoundingBox">
            <stop offset="0" stop-color="#fff"/>
            <stop offset="1" stop-color="#e8efee"/>
        </linearGradient>
        <linearGradient id="linear-gradient-9" x1=".29" x2=".217" y1="3.076" y2="3.003" xlink:href="#linear-gradient-8"/>
        <linearGradient id="linear-gradient-10" x1=".181" x2=".365" y1="2.629" y2="2.812" gradientUnits="objectBoundingBox">
            <stop offset="0" stop-color="#ffc200" stop-opacity="0"/>
            <stop offset=".203" stop-color="#fb0" stop-opacity=".204"/>
            <stop offset=".499" stop-color="#ffa700" stop-opacity=".498"/>
            <stop offset=".852" stop-color="#f80" stop-opacity=".851"/>
            <stop offset="1" stop-color="#ff7800"/>
        </linearGradient>
        <linearGradient id="linear-gradient-11" x1=".297" x2=".2" y1="3.312" y2="3.215" xlink:href="#linear-gradient-8"/>
        <linearGradient id="linear-gradient-12" x1=".488" x2="-.003" y1="-9.934" y2="-10.424" gradientUnits="objectBoundingBox">
            <stop offset="0" stop-color="#363f3e"/>
            <stop offset="1" stop-color="#303033"/>
        </linearGradient>
        <linearGradient id="linear-gradient-13" x1=".029" x2=".37" y1="3.996" y2="3.654" gradientUnits="objectBoundingBox">
            <stop offset="0" stop-color="#c2cece" stop-opacity="0"/>
            <stop offset=".179" stop-color="#afbcbc" stop-opacity=".18"/>
            <stop offset="1" stop-color="#5b6a6a"/>
        </linearGradient>
        <linearGradient id="linear-gradient-14" x1="-.06" x2=".282" y1="5.496" y2="5.155" gradientUnits="objectBoundingBox">
            <stop offset="0" stop-color="#c2cece" stop-opacity="0"/>
            <stop offset=".55" stop-color="#c2cece"/>
            <stop offset="1" stop-color="#c2cece" stop-opacity="0"/>
        </linearGradient>
    </defs>
    <g id="pencil_2_" data-name="pencil (2)">
        <path id="Path_3718" d="M35.943 494.476H2.164a.387.387 0 0 1-.388-.388v-.5a.883.883 0 0 1 .883-.883h33.284a.883.883 0 0 1 .883.883.883.883 0 0 1-.883.888z" class="cls-1" data-name="Path 3718" transform="translate(-1.614 -447.604)"/>
        <path id="Path_3719" d="M11.053 345.553l-4.606-4.606-1.547 1.544a4.225 4.225 0 0 0-1.025 1.665L.031 355.825a.594.594 0 0 0 .751.751l11.669-3.847a4.227 4.227 0 0 0 1.665-1.025l1.544-1.544z" class="cls-2" data-name="Path 3719" transform="translate(0 -309.734)"/>
        <path id="Path_3720" d="M14.115 430.723a4.224 4.224 0 0 1-1.665 1.025L.781 435.595a.589.589 0 0 1-.317.016l-.433 1.314a.594.594 0 0 0 .751.751l11.669-3.847a4.226 4.226 0 0 0 1.665-1.025l1.544-1.544-1.04-1.04z" class="cls-3" data-name="Path 3720" transform="translate(0 -390.834)"/>
        <path id="Path_3721" d="M59.539 111.977a2.14 2.14 0 0 0 0-3.026l-.045-.045a2.137 2.137 0 0 0-1.846-.6.506.506 0 0 1-.579-.577c.007-.043.012-.085.017-.128v-.066-.14a2.133 2.133 0 0 0-.627-1.512l-.045-.045a1.96 1.96 0 0 0-.151-.137 1.324 1.324 0 0 0-.114-.088l-.064-.045c-.021-.014-.064-.043-.1-.062l-.094-.051c-.041-.023-.083-.043-.125-.061l-.1-.043a1.053 1.053 0 0 0-.1-.036 2.1 2.1 0 0 0-.259-.066 1.82 1.82 0 0 0-.245-.032c-.04-.003-.082-.006-.125-.006h-.122a2.1 2.1 0 0 0-.247.024.507.507 0 0 1-.579-.579 2.14 2.14 0 0 0-.6-1.846l-.045-.045a2.14 2.14 0 0 0-3.026 0l26.034-26.027 9.213 9.213z" class="cls-4" data-name="Path 3721" transform="translate(-45.719 -69.713)"/>
        <path id="Path_3722" d="M120.341 113.357L95.057 138.64a.5.5 0 0 1-.142-.434c.007-.043.012-.085.017-.128v-.066-.14a2.133 2.133 0 0 0-.627-1.512l-.045-.045a1.96 1.96 0 0 0-.151-.137 1.329 1.329 0 0 0-.114-.088c-.021-.017-.043-.031-.064-.045s-.064-.043-.1-.062-.062-.036-.094-.051-.083-.043-.125-.061l-.1-.043a1.053 1.053 0 0 0-.1-.036 2.1 2.1 0 0 0-.259-.066c-.039-.008-.081-.014-.122-.02s-.081-.009-.123-.012a1.066 1.066 0 0 0-.125-.006h-.122a2.1 2.1 0 0 0-.247.024.5.5 0 0 1-.437-.142l25.284-25.284z" class="cls-5" data-name="Path 3722" transform="translate(-83.565 -100.189)"/>
        <path id="Path_3723" d="M76.355 76.739l-26.026 26.026a2.14 2.14 0 0 1 3.026 0l.045.045a2.14 2.14 0 0 1 .6 1.846.5.5 0 0 0 .142.437L79.426 79.81z" class="cls-6" data-name="Path 3723" transform="translate(-45.722 -69.714)"/>
        <path id="Path_3724" d="M378.248 13.088l-9.213-9.213L371.921.99a3.377 3.377 0 0 1 4.777 0l4.436 4.436a3.377 3.377 0 0 1 0 4.777z" class="cls-7" data-name="Path 3724" transform="translate(-335.252)"/>
        <path id="Path_3725" d="M436.309 57.264l3.054 3.054 2.886-2.886a3.378 3.378 0 0 0 0-4.777l-.666-.666z" class="cls-8" data-name="Path 3725" transform="translate(-396.367 -47.23)"/>
        <path id="Path_3726" d="M347.4 47.044l-9.213-9.213-3.562 3.562 9.213 9.213z" class="cls-9" data-name="Path 3726" transform="translate(-303.988 -34.367)"/>
        <path id="Path_3727" d="M345.021 72.986l-9.213-9.213-1.187 1.187 9.213 9.213z" class="cls-10" data-name="Path 3727" transform="translate(-303.988 -57.935)"/>
        <path id="Path_3728" d="M327.208 87.479l-9.213-9.213 1.522-1.522 9.213 9.213z" class="cls-11" data-name="Path 3728" transform="translate(-288.884 -69.718)"/>
        <path id="Path_3729" d="M357.992 60.014l-9.213-9.214-1.187 1.188L356.8 61.2z" class="cls-12" data-name="Path 3729" transform="translate(-315.772 -46.15)"/>
        <path id="Path_3730" d="M1.007 471.179l-.974 2.956a.594.594 0 0 0 .751.751l2.956-.974z" class="cls-13" data-name="Path 3730" transform="translate(-.002 -428.044)"/>
        <path id="Path_3731" d="M408.511 108.158l-3.054-3.054-3.562 3.562 3.054 3.054z" class="cls-14" data-name="Path 3731" transform="translate(-365.103 -95.482)"/>
        <path id="Path_3732" d="M357.491 57.138l-3.054-3.054-3.562 3.562 3.054 3.054z" class="cls-15" data-name="Path 3732" transform="translate(-318.754 -49.133)"/>
    </g>
</svg>
