<svg xmlns="http://www.w3.org/2000/svg" width="104.4" height="99" viewBox="0 0 104.4 99">
    <defs>
        <style>
            .cls-1{fill:#f4b12a}.cls-2{fill:#efbf6c}.cls-3{fill:#d38d1c}
        </style>
    </defs>
    <g id="coin" transform="translate(0 -.5)">
        <path id="Path_2920" d="M23.4 96.5C10.44 96.5 0 99.74 0 103.7v63c0 3.96 10.44 7.2 23.4 7.2s23.4-3.24 23.4-7.2v-63c0-3.96-10.44-7.2-23.4-7.2zm0 0" class="cls-1" data-name="Path 2920" transform="translate(0 -74.4)"/>
        <path id="Path_2921" d="M263.4 256.5c-12.96 0-23.4 3.24-23.4 7.2v27c0 3.96 10.44 7.2 23.4 7.2s23.4-3.24 23.4-7.2v-27c0-3.96-10.44-7.2-23.4-7.2zm0 0" class="cls-1" data-name="Path 2921" transform="translate(-186 -198.4)"/>
        <path id="Path_2922" d="M286.8 263.7c0-3.976-10.477-7.2-23.4-7.2s-23.4 3.224-23.4 7.2 10.477 7.2 23.4 7.2 23.4-3.224 23.4-7.2zm0 0" class="cls-2" data-name="Path 2922" transform="translate(-186 -198.4)"/>
        <path id="Path_2923" d="M302.8 183.7c0-3.976-10.477-7.2-23.4-7.2s-23.4 3.224-23.4 7.2 10.477 7.2 23.4 7.2 23.4-3.224 23.4-7.2zm0 0" class="cls-2" data-name="Path 2923" transform="translate(-198.4 -136.4)"/>
        <path id="Path_2924" d="M279.4 215.7c-12.96 0-23.4-3.24-23.4-7.2v9c0 3.96 10.44 7.2 23.4 7.2s23.4-3.24 23.4-7.2v-9c0 3.96-10.44 7.2-23.4 7.2zm0 0" class="cls-1" data-name="Path 2924" transform="translate(-198.4 -161.2)"/>
        <path id="Path_2925" d="M302.8 23.9A23.4 23.4 0 1 1 279.4.5a23.4 23.4 0 0 1 23.4 23.4zm0 0" class="cls-1" data-name="Path 2925" transform="translate(-198.4)"/>
        <g id="Group_1657" data-name="Group 1657" transform="translate(0 7.7)">
            <path id="Path_2926" d="M342.4 43.3v-1.8a5.3 5.3 0 0 0-5.4-5.4v-3.6h-3.6v3.6a5.3 5.3 0 0 0-5.4 5.4v3.6a5.3 5.3 0 0 0 5.4 5.4h3.6a1.7 1.7 0 0 1 1.8 1.8v3.6a1.7 1.7 0 0 1-1.8 1.8h-3.6a1.7 1.7 0 0 1-1.8-1.8v-1.8H328v1.8a5.3 5.3 0 0 0 5.4 5.4v3.6h3.6v-3.6a5.3 5.3 0 0 0 5.4-5.4v-3.6a5.3 5.3 0 0 0-5.4-5.4h-3.6a1.7 1.7 0 0 1-1.8-1.8v-3.6a1.7 1.7 0 0 1 1.8-1.8h3.6a1.7 1.7 0 0 1 1.8 1.8v1.8zm0 0" class="cls-3" data-name="Path 2926" transform="translate(-254.2 -32.5)"/>
            <path id="Path_2927" d="M280.861 330.139c-3.421 1.44-8.821 2.52-17.46 2.52-8.82 0-14.4-1.08-17.82-2.7A16.919 16.919 0 0 1 240 326.9v3.96c4.32 3.6 12.24 5.4 23.4 5.4s19.08-1.8 23.4-5.4v-3.78a23.189 23.189 0 0 1-5.939 3.059zm0 0" class="cls-3" data-name="Path 2927" transform="translate(-186 -260.659)"/>
            <path id="Path_2928" d="M280.861 370.139c-3.421 1.44-8.821 2.52-17.46 2.52-8.82 0-14.4-1.08-17.82-2.7A16.918 16.918 0 0 1 240 366.9v3.96c4.32 3.6 12.24 5.4 23.4 5.4s19.08-1.8 23.4-5.4v-3.78a23.187 23.187 0 0 1-5.939 3.059zm0 0" class="cls-3" data-name="Path 2928" transform="translate(-186 -291.659)"/>
            <path id="Path_2929" d="M40.861 170.139c-3.421 1.44-8.821 2.52-17.46 2.52-8.82 0-14.4-1.08-17.82-2.7A14.2 14.2 0 0 1 0 166.9v3.96c4.32 3.6 12.24 5.4 23.4 5.4s19.08-1.8 23.4-5.4v-3.78a23.188 23.188 0 0 1-5.94 3.06zm0 0" class="cls-3" data-name="Path 2929" transform="translate(0 -136.659)"/>
            <path id="Path_2930" d="M40.861 210.139c-3.421 1.44-8.821 2.52-17.46 2.52-8.82 0-14.4-1.08-17.82-2.7A14.2 14.2 0 0 1 0 206.9v3.96c4.32 3.6 12.24 5.4 23.4 5.4s19.08-1.8 23.4-5.4v-3.78a23.188 23.188 0 0 1-5.94 3.06zm0 0" class="cls-3" data-name="Path 2930" transform="translate(0 -167.659)"/>
            <path id="Path_2931" d="M40.861 250.139c-3.421 1.44-8.821 2.52-17.46 2.52-8.82 0-14.4-1.08-17.82-2.7A14.2 14.2 0 0 1 0 246.9v3.96c4.32 3.6 12.24 5.4 23.4 5.4s19.08-1.8 23.4-5.4v-3.78a23.187 23.187 0 0 1-5.94 3.06zm0 0" class="cls-3" data-name="Path 2931" transform="translate(0 -198.659)"/>
            <path id="Path_2932" d="M40.861 290.139c-3.421 1.44-8.821 2.52-17.46 2.52-8.82 0-14.4-1.08-17.82-2.7A14.2 14.2 0 0 1 0 286.9v3.96c4.32 3.6 12.24 5.4 23.4 5.4s19.08-1.8 23.4-5.4v-3.78a23.186 23.186 0 0 1-5.94 3.06zm0 0" class="cls-3" data-name="Path 2932" transform="translate(0 -229.659)"/>
            <path id="Path_2933" d="M40.861 330.139c-3.421 1.44-8.821 2.52-17.46 2.52-8.82 0-14.4-1.08-17.82-2.7A14.2 14.2 0 0 1 0 326.9v3.96c4.32 3.6 12.24 5.4 23.4 5.4s19.08-1.8 23.4-5.4v-3.78a23.189 23.189 0 0 1-5.94 3.06zm0 0" class="cls-3" data-name="Path 2933" transform="translate(0 -260.659)"/>
            <path id="Path_2934" d="M40.861 370.139c-3.421 1.44-8.821 2.52-17.46 2.52-8.82 0-14.4-1.08-17.82-2.7A14.2 14.2 0 0 1 0 366.9v3.96c4.32 3.6 12.24 5.4 23.4 5.4s19.08-1.8 23.4-5.4v-3.78a23.186 23.186 0 0 1-5.94 3.06zm0 0" class="cls-3" data-name="Path 2934" transform="translate(0 -291.659)"/>
        </g>
        <path id="Path_2935" d="M46.8 103.7c0-3.976-10.477-7.2-23.4-7.2S0 99.724 0 103.7s10.477 7.2 23.4 7.2 23.4-3.224 23.4-7.2zm0 0" class="cls-2" data-name="Path 2935" transform="translate(0 -74.4)"/>
        <path id="Path_2936" d="M62.8 23.7c0-3.976-10.477-7.2-23.4-7.2S16 19.724 16 23.7s10.477 7.2 23.4 7.2 23.4-3.224 23.4-7.2zm0 0" class="cls-2" data-name="Path 2936" transform="translate(-12.4 -12.4)"/>
        <path id="Path_2937" d="M39.4 55.7c-12.96 0-23.4-3.24-23.4-7.2v9c0 3.96 10.44 7.2 23.4 7.2s23.4-3.24 23.4-7.2v-9c0 3.96-10.44 7.2-23.4 7.2zm0 0" class="cls-1" data-name="Path 2937" transform="translate(-12.4 -37.2)"/>
    </g>
</svg>
