<svg xmlns="http://www.w3.org/2000/svg" width="28.538" height="28.538" data-name="calendar (3)" viewBox="0 0 28.538 28.538">
    <path d="M23.772 3.234c0-.016-.014-.029-.019-.045a.438.438 0 0 0-.032-.077.456.456 0 0 0-.053-.079.485.485 0 0 0-.054-.057.432.432 0 0 0-.078-.052.356.356 0 0 0-.169-.056.484.484 0 0 0-.06-.014h-2.4C20.785 1.2 20.017 0 19.025 0s-1.76 1.2-1.883 2.854h-.991C16.029 1.2 15.261 0 14.269 0s-1.76 1.2-1.883 2.854H11.4C11.272 1.2 10.5 0 9.513 0S7.753 1.2 7.63 2.854h-.991C6.516 1.2 5.748 0 4.756 0S3 1.2 2.874 2.854H.475A.476.476 0 0 0 0 3.329v24.733a.476.476 0 0 0 .476.476h22.83a.476.476 0 0 0 .476-.476v-1.426h4.281a.476.476 0 0 0 .466-.571zM19.025.951c.343 0 .823.729.929 1.9H18.1c.1-1.171.582-1.9.925-1.9zm-4.756 0c.343 0 .823.729.929 1.9h-1.856c.1-1.174.583-1.9.927-1.9zm-4.756 0c.343 0 .823.729.929 1.9H8.586c.104-1.171.583-1.9.927-1.9zm-4.756 0c.343 0 .823.729.929 1.9H3.829c.104-1.171.584-1.9.927-1.9zM.951 3.805h1.923c.126 1.656.89 2.854 1.882 2.854a.476.476 0 1 0 0-.951c-.343 0-.823-.729-.929-1.9h3.8c.124 1.656.891 2.854 1.883 2.854a.476.476 0 1 0 0-.951c-.343 0-.823-.729-.929-1.9h3.8c.124 1.656.891 2.854 1.883 2.854a.476.476 0 1 0 0-.951c-.343 0-.823-.729-.929-1.9h3.8c.124 1.656.891 2.854 1.883 2.854a.476.476 0 1 0 0-.951c-.343 0-.823-.729-.929-1.9h4.741v4.744H.951zM22.83 27.587H.951V9.513H22.83zm.951-1.9V7.943l3.7 17.741zm0 0" data-name="Path 3856"/>
    <path d="M10.464 17.123h-1.9a.476.476 0 0 0-.476.476v1.9a.476.476 0 0 0 .476.476h1.9a.476.476 0 0 0 .476-.476v-1.9a.476.476 0 0 0-.476-.476zm-.476 1.9h-.951v-.951h.951zm0 0" data-name="Path 3857"/>
    <path d="M15.22 17.123h-1.9a.476.476 0 0 0-.476.476v1.9a.476.476 0 0 0 .476.476h1.9a.476.476 0 0 0 .476-.476v-1.9a.476.476 0 0 0-.476-.476zm-.476 1.9h-.951v-.951h.951zm0 0" data-name="Path 3858"/>
    <path d="M5.707 17.123h-1.9a.476.476 0 0 0-.476.476v1.9a.476.476 0 0 0 .476.476h1.9a.476.476 0 0 0 .476-.476v-1.9a.476.476 0 0 0-.476-.476zm-.476 1.9H4.28v-.951h.949zm0 0" data-name="Path 3859"/>
    <path d="M10.464 21.879h-1.9a.476.476 0 0 0-.476.476v1.9a.476.476 0 0 0 .476.476h1.9a.476.476 0 0 0 .476-.476v-1.9a.476.476 0 0 0-.476-.476zm-.476 1.9h-.951v-.951h.951zm0 0" data-name="Path 3860"/>
    <path d="M15.22 21.879h-1.9a.476.476 0 0 0-.476.476v1.9a.476.476 0 0 0 .476.476h1.9a.476.476 0 0 0 .476-.476v-1.9a.476.476 0 0 0-.476-.476zm-.476 1.9h-.951v-.951h.951zm0 0" data-name="Path 3861"/>
    <path d="M5.707 21.879h-1.9a.476.476 0 0 0-.476.476v1.9a.476.476 0 0 0 .476.476h1.9a.476.476 0 0 0 .476-.476v-1.9a.476.476 0 0 0-.476-.476zm-.476 1.9H4.28v-.951h.949zm0 0" data-name="Path 3862"/>
    <path d="M10.464 12.367h-1.9a.476.476 0 0 0-.476.476v1.9a.476.476 0 0 0 .476.476h1.9a.476.476 0 0 0 .476-.476v-1.9a.476.476 0 0 0-.476-.476zm-.476 1.9h-.951v-.951h.951zm0 0" data-name="Path 3863"/>
    <path d="M15.22 12.367h-1.9a.476.476 0 0 0-.476.476v1.9a.476.476 0 0 0 .476.476h1.9a.476.476 0 0 0 .476-.476v-1.9a.476.476 0 0 0-.476-.476zm-.476 1.9h-.951v-.951h.951zm0 0" data-name="Path 3864"/>
    <path d="M19.977 17.123h-1.9a.476.476 0 0 0-.476.476v1.9a.476.476 0 0 0 .476.476h1.9a.476.476 0 0 0 .476-.476v-1.9a.476.476 0 0 0-.476-.476zm-.476 1.9h-.951v-.951h.951zm0 0" data-name="Path 3865"/>
    <path d="M19.977 21.879h-1.9a.476.476 0 0 0-.476.476v1.9a.476.476 0 0 0 .476.476h1.9a.476.476 0 0 0 .476-.476v-1.9a.476.476 0 0 0-.476-.476zm-.476 1.9h-.951v-.951h.951zm0 0" data-name="Path 3866"/>
    <path d="M19.977 12.367h-1.9a.476.476 0 0 0-.476.476v1.9a.476.476 0 0 0 .476.476h1.9a.476.476 0 0 0 .476-.476v-1.9a.476.476 0 0 0-.476-.476zm-.476 1.9h-.951v-.951h.951zm0 0" data-name="Path 3867"/>
    <path d="M5.707 12.367h-1.9a.476.476 0 0 0-.476.476v1.9a.476.476 0 0 0 .476.476h1.9a.476.476 0 0 0 .476-.476v-1.9a.476.476 0 0 0-.476-.476zm-.476 1.9H4.28v-.951h.949zm0 0" data-name="Path 3868"/>
</svg>
