<svg xmlns="http://www.w3.org/2000/svg" width="42.363" height="42.363" viewBox="0 0 42.363 42.363">
    <defs>
        <style>
            .cls-1{fill:#33363b}
        </style>
    </defs>
    <g id="rupees">
        <path id="Path_3852" d="M20.714 9.638a19.018 19.018 0 0 1 6.279 1.062.819.819 0 1 0 .539-1.547A20.727 20.727 0 0 0 1.248 35.81a.819.819 0 0 0 1.539-.562 19.088 19.088 0 0 1 17.927-25.61zm0 0" class="cls-1" data-name="Path 3852" transform="translate(0 -7.064)"/>
        <path id="Path_3853" d="M133.754 102.948a.819.819 0 0 0-.819-.819h-11.577a.819.819 0 1 0 0 1.638h3.312a4.154 4.154 0 0 1 4.066 3.328h-7.379a.819.819 0 1 0 0 1.638h7.379a4.154 4.154 0 0 1-4.066 3.329h-3.312a.819.819 0 0 0-.563 1.414l8.28 7.824a.819.819 0 1 0 1.125-1.191l-6.783-6.409h1.253a5.794 5.794 0 0 0 5.727-4.967h2.537a.819.819 0 0 0 0-1.638H130.4a5.778 5.778 0 0 0-1.7-3.329h4.235a.819.819 0 0 0 .819-.819zm0 0" class="cls-1" data-name="Path 3853" transform="translate(-106.433 -90.177)"/>
        <path id="Path_3854" d="M270.171 5.963a.819.819 0 0 0-.819-.819h-4.324V.819a.819.819 0 0 0-1.638 0v4.325h-4.569a.819.819 0 1 0 0 1.638h4.569v4.569a.819.819 0 0 0 1.638 0V6.782h4.324a.819.819 0 0 0 .819-.819zm0 0" class="cls-1" data-name="Path 3854" transform="translate(-227.807)"/>
        <path id="Path_3855" d="M40.1 140.1a.82.82 0 0 0 1.467.346l1.755-2.383a20.518 20.518 0 0 0 11.81 3.694 20.723 20.723 0 0 0 19.12-28.694.819.819 0 0 0-1.512.632 19.08 19.08 0 0 1-28.44 23.049l2.594-3.521a.819.819 0 0 0-.765-1.3l-6.43.835a.819.819 0 0 0-.7.953zm0 0" class="cls-1" data-name="Path 3855" transform="translate(-34.42 -99.394)"/>
    </g>
</svg>
