<svg xmlns="http://www.w3.org/2000/svg" xmlns:xlink="http://www.w3.org/1999/xlink" width="332.677" height="332.677" viewBox="0 0 332.677 332.677">
  <defs>
    <filter id="Rectangle_1819" x="0" y="0" width="332.677" height="332.677" filterUnits="userSpaceOnUse">
      <feOffset dx="-7" dy="16" input="SourceAlpha"/>
      <feGaussianBlur stdDeviation="14" result="blur"/>
      <feFlood flood-opacity="0.078"/>
      <feComposite operator="in" in2="blur"/>
      <feComposite in="SourceGraphic"/>
    </filter>
  </defs>
  <g id="Group_694" data-name="Group 694" transform="translate(49 -118.111)">
    <g transform="matrix(1, 0, 0, 1, -49, 118.11)" filter="url(#Rectangle_1819)">
      <rect id="Rectangle_1819-2" data-name="Rectangle 1819" width="248.677" height="248.677" rx="16" transform="translate(49 26)" fill="#fff"/>
    </g>
    <rect id="Rectangle_1820" data-name="Rectangle 1820" width="224.015" height="224.015" rx="16" transform="translate(12.331 156.442)" fill="#ea907a" opacity="0.1"/>
    <g id="handshake" transform="translate(60.628 230.428)">
      <path id="Path_4079" data-name="Path 4079" d="M198.738,149.4l-3.25-26.4-6.091.75,0,0L177.59,117.1a7.116,7.116,0,0,0-4.144-.884L154.8,117.938a7.114,7.114,0,0,0-5.5,3.51l-13.141,22.619a3.126,3.126,0,0,0,1.6,4.495l.538.2a11.657,11.657,0,0,0,3.159.705l-1.665,1.45-3.331,2.9-9.475,8.082a4.048,4.048,0,0,0-.393,5.713l.961,1.1a5.2,5.2,0,0,0,7.339.5l3.621,4.154a5.193,5.193,0,0,0,7.338.5l3.617,4.154a5.2,5.2,0,0,0,7.343.5l1.966,1.7a5.2,5.2,0,0,0,7.343.5L168.8,178.4l22.466-17.5.024-.022,8.864-.009Z" transform="translate(-94.209 -112.591)" fill="#f29f5c"/>
      <path id="Path_4080" data-name="Path 4080" d="M189.118,264.314l-.024.022-22.466,17.5-2.672,2.331a5.2,5.2,0,0,1-7.343-.5l-1.966-1.7a5.205,5.205,0,0,1-7.343-.5l-3.617-4.154a5.193,5.193,0,0,1-7.338-.5l-3.621-4.154a5.2,5.2,0,0,1-6.443.307,4.046,4.046,0,0,0,.321,4.894l.961,1.1a5.2,5.2,0,0,0,7.339.5l3.621,4.154a5.193,5.193,0,0,0,7.338.5l3.617,4.154a5.205,5.205,0,0,0,7.343.5l1.966,1.7a5.2,5.2,0,0,0,7.343.5l2.672-2.331,22.466-17.5.024-.022,8.864-.009-.981-7.966Z" transform="translate(-94.218 -222.823)" fill="#d37d42"/>
      <path id="Path_4081" data-name="Path 4081" d="M156.543,168.638l-12.037-10.379-3.347-2.884-2.4-2.063-10.3-8.877,1.189-10.124a6.987,6.987,0,0,0-5.076-7.549L102.13,120.55a5.2,5.2,0,0,0-6.009,2.638L93.3,128.7l-12.118-.823-3.1,26.422-1.349,11.482,11.8.784.025.022,24.642,21.241,2.685,2.317a5.2,5.2,0,0,0,7.34-.545l3.594-4.17a5.2,5.2,0,0,0,7.34-.545l3.594-4.174a5.194,5.194,0,0,0,7.336-.542l3.6-4.174a5.2,5.2,0,0,0,7.336-.542l.955-1.106A4.048,4.048,0,0,0,156.543,168.638Z" transform="translate(-57.552 -115.725)" fill="#f9c295"/>
      <g id="Group_643" data-name="Group 643" transform="translate(56.698 49.751)">
        <path id="Path_4082" data-name="Path 4082" d="M269.165,304.044l-3.666-3.161a4.3,4.3,0,0,1-.178,5.389l-1.014,1.174a5.523,5.523,0,0,1-7.787.575l-3.82,4.43a5.513,5.513,0,0,1-7.787.575l-3.816,4.431a5.525,5.525,0,0,1-7.792.579l-3.815,4.427a5.486,5.486,0,0,1-2.618,1.687l1.624,1.4a5.2,5.2,0,0,0,7.34-.545l3.594-4.17a5.205,5.205,0,0,0,7.34-.545l3.594-4.174a5.193,5.193,0,0,0,7.336-.542l3.6-4.174a5.2,5.2,0,0,0,7.336-.542l.955-1.106A4.048,4.048,0,0,0,269.165,304.044Z" transform="translate(-226.872 -300.883)" fill="#e59f6a"/>
        <path id="Path_4083" data-name="Path 4083" d="M340.4,318.982l-6.6-5.687a1.874,1.874,0,1,0-2.448,2.839l6.584,5.677,1.241-1.439a5.188,5.188,0,0,0,1.63.947A1.875,1.875,0,0,0,340.4,318.982Z" transform="translate(-304.76 -309.852)" fill="#e59f6a"/>
        <path id="Path_4084" data-name="Path 4084" d="M299.049,341.819a1.874,1.874,0,0,0-.39-2.369l-5.925-5.108a1.874,1.874,0,0,0-2.448,2.839l5.925,5.108.008.006,1.224-1.422A5.178,5.178,0,0,0,299.049,341.819Z" transform="translate(-273.95 -325.639)" fill="#e59f6a"/>
      </g>
      <g id="Group_644" data-name="Group 644" transform="translate(29.212 3.592)">
        <path id="Path_4085" data-name="Path 4085" d="M119.261,299.588l-1.428,1.885a4.663,4.663,0,0,0,.9,6.533h0a4.663,4.663,0,0,0,6.533-.9l1.428-1.885a4.664,4.664,0,0,0-.9-6.533h0A4.663,4.663,0,0,0,119.261,299.588Z" transform="translate(-116.887 -252.366)" fill="#f29f5c"/>
        <path id="Path_4086" data-name="Path 4086" d="M150.272,315.455l-2.689,3.55a4.663,4.663,0,0,0,.9,6.533h0a4.663,4.663,0,0,0,6.533-.9l2.689-3.55a4.664,4.664,0,0,0-.9-6.533h0A4.663,4.663,0,0,0,150.272,315.455Z" transform="translate(-139.202 -264.268)" fill="#f29f5c"/>
        <path id="Path_4087" data-name="Path 4087" d="M181,332.83l-3.664,4.839a4.663,4.663,0,0,0,.9,6.533h0a4.663,4.663,0,0,0,6.533-.9l3.664-4.839a4.663,4.663,0,0,0-.9-6.533h0A4.663,4.663,0,0,0,181,332.83Z" transform="translate(-161.516 -277.301)" fill="#f29f5c"/>
        <path id="Path_4088" data-name="Path 4088" d="M210.959,354.236l-3.877,5.12a4.663,4.663,0,0,0,.9,6.533h0a4.663,4.663,0,0,0,6.533-.9l3.877-5.12a4.663,4.663,0,0,0-.9-6.533h0A4.663,4.663,0,0,0,210.959,354.236Z" transform="translate(-183.832 -293.357)" fill="#f29f5c"/>
        <path id="Path_4089" data-name="Path 4089" d="M219.836,123.743,208.028,117.1a7.116,7.116,0,0,0-4.144-.884l-18.645,1.724a7.114,7.114,0,0,0-5.5,3.51L166.6,144.067a3.126,3.126,0,0,0,1.6,4.495l.538.2a11.685,11.685,0,0,0,13.394-3.812l5.035-6.553s12.1,14.013,25.428-2.352" transform="translate(-153.858 -116.183)" fill="#f29f5c"/>
      </g>
      <path id="Path_4090" data-name="Path 4090" d="M425.733,153.627l-6.176-50.17a1.874,1.874,0,0,0-2.089-1.631L403.025,103.6a6.862,6.862,0,0,0-5.965,7.64l4.959,40.286a6.85,6.85,0,0,0,7.64,5.965l14.442-1.778A1.875,1.875,0,0,0,425.733,153.627Z" transform="translate(-297.791 -101.811)" fill="#5c9cee"/>
      <path id="Path_4091" data-name="Path 4091" d="M439.256,290.529l-.678-5.507a1.958,1.958,0,0,1-1.382.845l-15.139,1.864a7.176,7.176,0,0,1-7.019-3.4l.505,4.1a6.851,6.851,0,0,0,7.64,5.965l14.442-1.778A1.875,1.875,0,0,0,439.256,290.529Z" transform="translate(-311.314 -238.713)" fill="#3580d3"/>
      <path id="Path_4092" data-name="Path 4092" d="M22.722,103.6,8.28,101.824a1.874,1.874,0,0,0-2.089,1.631L.014,153.626a1.875,1.875,0,0,0,1.631,2.089l14.442,1.778a6.851,6.851,0,0,0,7.64-5.965l4.959-40.286A6.862,6.862,0,0,0,22.722,103.6Z" transform="translate(0 -101.81)" fill="#ed5575"/>
      <path id="Path_4093" data-name="Path 4093" d="M.014,290.529l.678-5.507a1.958,1.958,0,0,0,1.383.845l15.139,1.864a7.176,7.176,0,0,0,7.019-3.4l-.505,4.1a6.851,6.851,0,0,1-7.64,5.965L1.646,292.618A1.874,1.874,0,0,1,.014,290.529Z" transform="translate(0 -238.713)" fill="#cc3a60"/>
      <g id="Group_645" data-name="Group 645" transform="translate(8.17 40.16)">
        <circle id="Ellipse_784" data-name="Ellipse 784" cx="3.623" cy="3.623" r="3.623" transform="translate(104.166)" fill="#ebeef2"/>
        <circle id="Ellipse_785" data-name="Ellipse 785" cx="3.623" cy="3.623" r="3.623" fill="#ebeef2"/>
      </g>
    </g>
  </g>
</svg>
