<svg xmlns="http://www.w3.org/2000/svg" id="prefix__shield" width="78.457" height="103" viewBox="0 0 78.457 103">
    <path id="prefix__Path_3984" d="M39.229 103C38.625 102.494 0 92.465 0 51.5V12.271h10.087C30.764 12.271 37.882.764 39.228 0c1.424.807 8.357 12.271 29.142 12.271h10.087V51.5c0 40.967-38.625 50.994-39.229 51.5zm0 0" data-name="Path 3984" style="fill:#b9b6ec"/>
    <path id="prefix__Path_3985" d="M234.229 51.5V12.271h-10.087C203.356 12.271 196.424.807 195 0v103c.6-.506 39.229-10.533 39.229-51.5zm0 0" data-name="Path 3985" transform="translate(-155.772)" style="fill:#979fef"/>
    <path id="prefix__Path_3986" d="M87.158 175.316a27.158 27.158 0 1 1 27.158-27.158 27.188 27.188 0 0 1-27.158 27.158zm0 0" data-name="Path 3986" transform="translate(-47.93 -96.658)" style="fill:#fff7cc"/>
    <path id="prefix__Path_3987" d="M222.158 148.158A27.188 27.188 0 0 0 195 121v54.316a27.188 27.188 0 0 0 27.158-27.158zm0 0" data-name="Path 3987" transform="translate(-155.771 -96.658)" style="fill:#ffe6b3"/>
    <path id="prefix__Path_3988" d="M135.581 236.883L124.395 225.7l4.267-4.267 6.919 6.919 12.954-12.954 4.267 4.267zm0 0" data-name="Path 3988" transform="translate(-99.37 -172.063)" style="fill:#ff641a"/>
    <path id="prefix__Path_3989" d="M195 225.331v8.534l14.2-14.2-4.267-4.267zm0 0" data-name="Path 3989" transform="translate(-155.771 -172.063)" style="fill:#f03800"/>
</svg>
