<svg xmlns="http://www.w3.org/2000/svg" width="103.125" height="103" viewBox="0 0 103.125 103">
    <g id="prefix__graph_1_" data-name="graph (1)" transform="translate(0 -.311)">
        <path id="prefix__Path_3970" d="M51.147 330.7H33.02a2.991 2.991 0 0 0-3.02 3.017v30.413a2.991 2.991 0 0 0 3.021 3.021h18.126a2.991 2.991 0 0 0 3.021-3.021v-30.413a2.991 2.991 0 0 0-3.021-3.017z" data-name="Path 3970" transform="translate(-23.957 -263.84)" style="fill:#fd4e26"/>
        <path id="prefix__Path_3971" d="M201.341 240.7h-18.328a2.991 2.991 0 0 0-3.021 3.021v48.539a2.991 2.991 0 0 0 3.021 3.021h18.328a2.991 2.991 0 0 0 3.021-3.021v-48.539a2.991 2.991 0 0 0-3.021-3.021z" data-name="Path 3971" transform="translate(-143.739 -191.971)" style="fill:#17ace8"/>
        <path id="prefix__Path_3972" d="M318.965 31.872L297.817 1.459a3.246 3.246 0 0 0-4.954 0l-21.349 30.413a2.961 2.961 0 0 0-.181 3.142 2.881 2.881 0 0 0 2.658 1.632h9.063v63.644a2.991 2.991 0 0 0 3.021 3.021H304.4a2.991 2.991 0 0 0 3.021-3.021V36.645h9.063a2.88 2.88 0 0 0 2.659-1.632 2.96 2.96 0 0 0-.178-3.141z" data-name="Path 3972" transform="translate(-216.388)" style="fill:#19dec1"/>
        <path id="prefix__Path_3973" d="M415.789 35.014a2.881 2.881 0 0 1-2.658 1.632h-9.063v63.645a2.991 2.991 0 0 1-3.021 3.021h-9.063v-103a2.956 2.956 0 0 1 2.476 1.148l21.148 30.412a2.96 2.96 0 0 1 .181 3.142z" data-name="Path 3973" transform="translate(-313.031 -.001)" style="fill:#17ceb4"/>
        <path id="prefix__Path_3974" d="M252.275 243.721v48.539a2.991 2.991 0 0 1-3.021 3.021h-9.265V240.7h9.265a2.991 2.991 0 0 1 3.021 3.021z" data-name="Path 3974" transform="translate(-191.651 -191.971)" style="fill:#1689fc"/>
        <path id="prefix__Path_3975" d="M102.08 333.717v30.413a2.991 2.991 0 0 1-3.021 3.021H90V330.7h9.063a2.991 2.991 0 0 1 3.017 3.017z" data-name="Path 3975" transform="translate(-71.869 -263.84)" style="fill:#fd3018"/>
        <path id="prefix__Path_3976" d="M103.121 484.71a2.991 2.991 0 0 1-3.021 3.021H3.021a3.021 3.021 0 1 1 0-6.042H100.1a2.992 2.992 0 0 1 3.021 3.021z" data-name="Path 3976" transform="translate(0 -384.421)" style="fill:#787780"/>
        <path id="prefix__Path_3977" d="M294.772 484.709a2.991 2.991 0 0 1-3.021 3.021h-51.762v-6.042h51.762a2.992 2.992 0 0 1 3.021 3.021z" data-name="Path 3977" transform="translate(-191.651 -384.42)" style="fill:#57555c"/>
    </g>
</svg>
