<svg xmlns="http://www.w3.org/2000/svg" width="91.345" height="103" viewBox="0 0 91.345 103">
    <defs>
        <style>
            .prefix__cls-1{fill:#6e83b7}.prefix__cls-2{fill:#ffd3b3}.prefix__cls-3{fill:#edeff1}.prefix__cls-4{fill:#d3d3d3}.prefix__cls-5{fill:#fcb98b}.prefix__cls-6{fill:#466089}.prefix__cls-8{fill:#80d6fb}.prefix__cls-9{fill:#46bee8}
        </style>
    </defs>
    <g id="prefix__lawyer" transform="translate(-33.603 -5.094)">
        <path id="prefix__Path_3890" d="M136.171 229.981l-9.8-3.006-3.017 9.838-1.686-4.579a12.311 12.311 0 0 0-8.03-7.543l-9.678-2.89H84.85l-9.678 2.89a12.311 12.311 0 0 0-8.03 7.543l-1.686 4.579-3.017-9.838-9.8 3.006 6.961 22.705h.015v.013l.13.636a6.155 6.155 0 0 0 11.727 1.093l4.059-9.925v32.576h37.753V244.5l4.059 9.925a6.155 6.155 0 0 0 11.727-1.093l.13-.636v-.013h.015z" class="prefix__cls-1" data-name="Path 3890" transform="translate(-15.129 -172.242)"/>
        <path id="prefix__Path_3891" d="M416.2 189.239a1.325 1.325 0 0 1 2.635-.272s.13 1.442.222 2.42a1.493 1.493 0 0 0 .712 1.125l-3.126 2.23-.23-2.719z" class="prefix__cls-2" data-name="Path 3891" transform="translate(-304.097 -145.229)"/>
        <path id="prefix__Path_3892" d="M370.2 86.094h16.414v22.57H370.2z" class="prefix__cls-3" data-name="Path 3892" transform="translate(-267.534 -64.38)"/>
        <path id="prefix__Path_3893" d="M376.2 97.094h13.952v1.231H376.2z" class="prefix__cls-4" data-name="Path 3893" transform="translate(-272.303 -73.124)"/>
        <path id="prefix__Path_3894" d="M376.2 112.094h13.952v1.231H376.2z" class="prefix__cls-4" data-name="Path 3894" transform="translate(-272.303 -85.046)"/>
        <path id="prefix__Path_3895" d="M376.2 127.094h13.952v1.231H376.2z" class="prefix__cls-4" data-name="Path 3895" transform="translate(-272.303 -96.968)"/>
        <path id="prefix__Path_3896" d="M376.2 142.094h13.952v1.231H376.2z" class="prefix__cls-4" data-name="Path 3896" transform="translate(-272.303 -108.89)"/>
        <path id="prefix__Path_3897" d="M376.2 157.094h13.952v1.231H376.2z" class="prefix__cls-4" data-name="Path 3897" transform="translate(-272.303 -120.813)"/>
        <path id="prefix__Path_3898" d="M418.683 183.927a1.471 1.471 0 0 1-.325-.986l-.059-.889 3.134-2.231a1.543 1.543 0 0 0 .193.1l.021.008a1.418 1.418 0 0 0 1.294-.1l1.335-.827a1.481 1.481 0 0 0 .674-1.5l-.9-3.124-.938-.071-.221.5a1.193 1.193 0 0 1-2.2-.929l.354-.881a1.825 1.825 0 0 1 1.762-1.143l1.939.073a1.825 1.825 0 0 1 1.634 1.168l.4 1.048.9 2.682 2.467 2.192a1.651 1.651 0 0 1 .482 1.717l-1.664 5.443a2.643 2.643 0 0 1-1.194 1.509l-1.073.627a1.653 1.653 0 0 0-.746.943l-.214.7-7.411-2.273.59-1.973a2.233 2.233 0 0 0-.234-1.783z" class="prefix__cls-2" data-name="Path 3898" transform="translate(-305.765 -132.536)"/>
        <path id="prefix__Path_3899" d="M440.452 201.646l-2.529-2.138a2.143 2.143 0 0 1-.694-2.147 1.415 1.415 0 0 0 .71-.21l1.335-.827a1.481 1.481 0 0 0 .674-1.5l-.339-1.179h2.911l.168.5 2.467 2.192a1.651 1.651 0 0 1 .482 1.717l-.383 1.254-1.206.3a.351.351 0 0 0-.252.245l-.372 1.218a1.449 1.449 0 0 1-1.346 1.062l-.186.017a2.154 2.154 0 0 1-.681-.094 2.109 2.109 0 0 1-.757-.414z" class="prefix__cls-5" data-name="Path 3899" transform="translate(-320.762 -149.866)"/>
        <path id="prefix__Path_3900" d="M447.515 199.987l-.236.772-1.384.326a.852.852 0 0 0-.62.58l-.373 1.218a.991.991 0 0 1-.922.7l-.224.006a1.65 1.65 0 0 1-1.107-.39l-2.532-2.139a1.651 1.651 0 0 1-.513-1.744l.63-2.059a1.649 1.649 0 0 1 1.449-1.163.978.978 0 0 1 .123-.006l2.761-.012 2.467 2.193a1.65 1.65 0 0 1 .482 1.717z" class="prefix__cls-2" data-name="Path 3900" transform="translate(-322.64 -151.797)"/>
        <path id="prefix__Path_3901" d="M443.238 204.9l-.589-.18 1.1-3.6a1.3 1.3 0 0 1 1.174-.917l1.237-.064.032.615-1.237.064a.685.685 0 0 0-.618.482z" class="prefix__cls-5" data-name="Path 3901" transform="translate(-325.118 -155.027)"/>
        <path id="prefix__Path_3902" d="M451.832 212.644l-.589-.18 1.076-3.52a1.292 1.292 0 0 1 1.026-.9l.853-.144.1.607-.853.144a.679.679 0 0 0-.54.474z" class="prefix__cls-5" data-name="Path 3902" transform="translate(-331.949 -161.194)"/>
        <path id="prefix__Path_3903" d="M0 0h2.149v.616H0z" class="prefix__cls-5" data-name="Path 3903" transform="rotate(-73.015 95.517 -49.897)"/>
        <path id="prefix__Path_3904" d="M0 0h5.308v1.641H0z" class="prefix__cls-1" data-name="Path 3904" transform="rotate(-45 86.758 -133.08)"/>
        <path id="prefix__Path_3905" d="M463.1 72.992h-1.641v-2.257H459.2v-1.641h3.9z" class="prefix__cls-1" data-name="Path 3905" transform="translate(-338.273 -50.869)"/>
        <path id="prefix__Path_3906" d="M0 0h1.641v5.308H0z" class="prefix__cls-1" data-name="Path 3906" transform="rotate(-45 100.546 -127.37)"/>
        <path id="prefix__Path_3907" d="M463.1 149.992h-3.9v-1.641h2.257v-2.257h1.643z" class="prefix__cls-1" data-name="Path 3907" transform="translate(-338.273 -112.07)"/>
        <path id="prefix__Path_3908" d="M0 0h1.641v5.308H0z" class="prefix__cls-1" data-name="Path 3908" transform="rotate(-45 72.523 -107.559)"/>
        <path id="prefix__Path_3909" d="M343.841 72.992H342.2v-3.9h3.9v1.641h-2.257z" class="prefix__cls-1" data-name="Path 3909" transform="translate(-245.279 -50.869)"/>
        <path id="prefix__Path_3910" d="M0 0h5.308v1.641H0z" class="prefix__cls-1" data-name="Path 3910" transform="rotate(-45 92.557 -99.256)"/>
        <path id="prefix__Path_3911" d="M346.1 149.992h-3.9v-3.9h1.641v2.257h2.259z" class="prefix__cls-1" data-name="Path 3911" transform="translate(-245.279 -112.07)"/>
        <path id="prefix__Path_3912" d="M204.854 221.8h-19.109l-6.167 1.842c1.157 6.658 7.754 11.76 15.721 11.76s14.564-5.1 15.721-11.76z" class="prefix__cls-3" data-name="Path 3912" transform="translate(-116.024 -172.242)"/>
        <path id="prefix__Path_3913" d="M82.355 189.239a1.325 1.325 0 0 0-2.635-.272s-.13 1.442-.222 2.42a1.493 1.493 0 0 1-.712 1.125l3.126 2.23.23-2.719z" class="prefix__cls-2" data-name="Path 3913" transform="translate(-35.912 -145.229)"/>
        <path id="prefix__Path_3914" d="M62.2 86.094h16.414v22.57H62.2z" class="prefix__cls-3" data-name="Path 3914" transform="translate(-22.729 -64.38)"/>
        <path id="prefix__Path_3915" d="M68.2 97.094h13.952v1.231H68.2z" class="prefix__cls-4" data-name="Path 3915" transform="translate(-27.498 -73.124)"/>
        <path id="prefix__Path_3916" d="M68.2 112.094h13.952v1.231H68.2z" class="prefix__cls-4" data-name="Path 3916" transform="translate(-27.498 -85.046)"/>
        <path id="prefix__Path_3917" d="M68.2 127.094h13.952v1.231H68.2z" class="prefix__cls-4" data-name="Path 3917" transform="translate(-27.498 -96.968)"/>
        <path id="prefix__Path_3918" d="M68.2 142.094h13.952v1.231H68.2z" class="prefix__cls-4" data-name="Path 3918" transform="translate(-27.498 -108.89)"/>
        <path id="prefix__Path_3919" d="M68.2 157.094h13.952v1.231H68.2z" class="prefix__cls-4" data-name="Path 3919" transform="translate(-27.498 -120.813)"/>
        <path id="prefix__Path_3920" d="M45.633 183.927a1.471 1.471 0 0 0 .325-.986l.059-.889-3.134-2.231a1.543 1.543 0 0 1-.193.1l-.021.008a1.418 1.418 0 0 1-1.294-.1l-1.334-.827a1.481 1.481 0 0 1-.674-1.5l.9-3.124.938-.071.221.5a1.193 1.193 0 0 0 2.2-.929l-.354-.881a1.825 1.825 0 0 0-1.762-1.143l-1.939.073a1.825 1.825 0 0 0-1.634 1.168l-.4 1.048-.9 2.682-2.467 2.192a1.651 1.651 0 0 0-.482 1.717l1.664 5.443a2.642 2.642 0 0 0 1.194 1.509l1.073.627a1.652 1.652 0 0 1 .746.943l.214.7 7.411-2.273-.59-1.973a2.233 2.233 0 0 1 .233-1.783z" class="prefix__cls-2" data-name="Path 3920" transform="translate(-.001 -132.536)"/>
        <path id="prefix__Path_3921" d="M38.86 201.646l2.529-2.138a2.143 2.143 0 0 0 .694-2.147 1.415 1.415 0 0 1-.71-.21l-1.334-.827a1.481 1.481 0 0 1-.674-1.5l.339-1.179h-2.912l-.168.5-2.467 2.192a1.651 1.651 0 0 0-.482 1.717l.383 1.254 1.206.3a.351.351 0 0 1 .252.245l.372 1.218a1.449 1.449 0 0 0 1.346 1.062l.187.017a2.153 2.153 0 0 0 .681-.094 2.109 2.109 0 0 0 .758-.41z" class="prefix__cls-5" data-name="Path 3921" transform="translate(0 -149.866)"/>
        <path id="prefix__Path_3922" d="M33.677 199.987l.236.772 1.384.326a.852.852 0 0 1 .62.58l.373 1.218a.991.991 0 0 0 .922.7l.224.006a1.65 1.65 0 0 0 1.107-.39l2.532-2.139a1.651 1.651 0 0 0 .513-1.744l-.63-2.059a1.649 1.649 0 0 0-1.449-1.163.978.978 0 0 0-.123-.006l-2.762-.012-2.467 2.193a1.65 1.65 0 0 0-.48 1.718z" class="prefix__cls-2" data-name="Path 3922" transform="translate(-.001 -151.797)"/>
        <path id="prefix__Path_3923" d="M55.433 204.9l-1.1-3.6a.685.685 0 0 0-.618-.482l-1.237-.064.032-.615 1.237.064a1.3 1.3 0 0 1 1.174.917l1.1 3.6z" class="prefix__cls-5" data-name="Path 3923" transform="translate(-15.001 -155.026)"/>
        <path id="prefix__Path_3924" d="M48.725 212.644l-1.076-3.52a.679.679 0 0 0-.54-.474l-.853-.144.1-.607.853.144a1.291 1.291 0 0 1 1.026.9l1.076 3.52z" class="prefix__cls-5" data-name="Path 3924" transform="translate(-10.057 -161.194)"/>
        <path id="prefix__Path_3925" d="M0 0h.616v2.13H0z" class="prefix__cls-5" data-name="Path 3925" transform="rotate(-16.985 202.254 -113.32)"/>
        <path id="prefix__Path_3926" d="M115.113 287.578l4.08 13.29.007-3.541a4.1 4.1 0 0 0-.18-1.211l-3.2-10.448z" class="prefix__cls-6" data-name="Path 3926" transform="translate(-64.786 -223.007)"/>
        <path id="prefix__Path_3927" d="M381.454 287.578l-4.08 13.29-.007-3.541a4.1 4.1 0 0 1 .18-1.211l3.2-10.448z" class="prefix__cls-6" data-name="Path 3927" transform="translate(-273.231 -223.007)"/>
        <path id="prefix__Path_3928" d="M164.2 491.194v3.262h37.753v-3.262H164.2z" class="prefix__cls-6" data-name="Path 3928" transform="translate(-103.801 -386.362)"/>
        <path id="prefix__Path_3929" d="M245.434 491.194h4.418v3.262h-4.418z" data-name="Path 3929" transform="translate(-168.368 -386.362)" style="fill:#ffe352"/>
        <path id="prefix__Path_3930" d="M276.683 221.8l-5.127 7.69-.7-.948-.907 1.125 1.664 2.258 6.433-9.719z" class="prefix__cls-4" data-name="Path 3930" transform="translate(-187.853 -172.242)"/>
        <path id="prefix__Path_3931" d="M204.353 221.8l5.127 7.69.691-.94.864 1.185-1.613 2.189-6.433-9.719z" class="prefix__cls-4" data-name="Path 3931" transform="translate(-134.631 -172.242)"/>
        <path id="prefix__Path_3932" d="M246.158 271.394a17.973 17.973 0 0 0 3.913.021l-.222-4.184h-3.5z" class="prefix__cls-8" data-name="Path 3932" transform="translate(-168.943 -208.352)"/>
        <path id="prefix__Path_3933" d="M256.976 266.345h-.41c0-1.47-.787-1.9-.82-1.915l.185-.366a2.4 2.4 0 0 1 1.045 2.281z" class="prefix__cls-9" data-name="Path 3933" transform="translate(-176.563 -205.835)"/>
        <path id="prefix__Path_3934" d="M251.067 266.345h-.41a2.4 2.4 0 0 1 1.046-2.281l.185.366c-.034.018-.821.445-.821 1.915z" class="prefix__cls-9" data-name="Path 3934" transform="translate(-172.519 -205.835)"/>
        <path id="prefix__Path_3935" d="M213.6 208.171l-3.961 2.8 5.127 7.69 2.569-3.486a4.1 4.1 0 0 1 1.78-1.376l.079-.032z" class="prefix__cls-3" data-name="Path 3935" transform="translate(-139.914 -161.41)"/>
        <path id="prefix__Path_3936" d="M261.794 208.171l3.962 2.8-5.127 7.69-2.569-3.486a4.1 4.1 0 0 0-1.78-1.376l-.079-.032z" class="prefix__cls-3" data-name="Path 3936" transform="translate(-176.925 -161.41)"/>
        <path id="prefix__Path_3937" d="M235.2 185.053h-1.337a4.924 4.924 0 0 1-4.924-4.924v-8.08h11.186v8.08a4.924 4.924 0 0 1-4.925 4.924z" class="prefix__cls-2" data-name="Path 3937" transform="translate(-155.259 -132.699)"/>
        <path id="prefix__Path_3938" d="M228.942 175.052a13.718 13.718 0 0 0 11.186 0v-3h-11.186z" class="prefix__cls-5" data-name="Path 3938" transform="translate(-155.259 -132.699)"/>
        <path id="prefix__Path_3939" d="M222.046 80.369a11.885 11.885 0 0 1-23.769 0V68.7h23.769z" class="prefix__cls-2" data-name="Path 3939" transform="translate(-130.886 -50.552)"/>
        <path id="prefix__Path_3940" d="M246.2 156.094h4.1l-.022.087a2.052 2.052 0 0 1-1.99 1.554h-.079a2.051 2.051 0 0 1-1.99-1.554z" class="prefix__cls-3" data-name="Path 3940" transform="translate(-168.976 -120.018)"/>
        <path id="prefix__Path_3941" d="M251.162 127.561H248.4l.289-3.463 1.227.1-.177 2.13h1.428z" class="prefix__cls-5" data-name="Path 3941" transform="translate(-170.722 -94.587)"/>
        <path id="prefix__Path_3942" d="M219.8 94.3a6.846 6.846 0 0 0-6.758 1.165s3.612-.932 6.059.233z" class="prefix__cls-1" data-name="Path 3942" transform="translate(-142.622 -70.566)"/>
        <circle id="prefix__Ellipse_763" cx="1.165" cy="1.165" r="1.165" class="prefix__cls-1" data-name="Ellipse 763" transform="translate(73.449 26.3)"/>
        <path id="prefix__Path_3943" d="M264.853 95.651a6.845 6.845 0 0 1 6.837-.53s-3.73-.016-5.816 1.714z" class="prefix__cls-1" data-name="Path 3943" transform="translate(-183.802 -71)"/>
        <path id="prefix__Path_3944" d="M271.211 107.843l-.618-.54A4.2 4.2 0 0 1 274 105.91l-.111.813a3.42 3.42 0 0 0-2.678 1.12z" class="prefix__cls-5" data-name="Path 3944" transform="translate(-188.365 -80.107)"/>
        <path id="prefix__Path_3945" d="M273.8 113.09a3.88 3.88 0 0 0-1.875-.255l-.121-.812a4.717 4.717 0 0 1 2.32.313z" class="prefix__cls-5" data-name="Path 3945" transform="translate(-189.329 -84.963)"/>
        <path id="prefix__Path_3946" d="M314.123 87.087H315a2.33 2.33 0 0 1 2.314 2.6l-.326 2.775a2.883 2.883 0 0 1-2.863 2.546z" class="prefix__cls-2" data-name="Path 3946" transform="translate(-222.963 -65.17)"/>
        <path id="prefix__Path_3947" d="M185.859 87.087h-.875a2.33 2.33 0 0 0-2.314 2.6l.33 2.777a2.883 2.883 0 0 0 2.863 2.546z" class="prefix__cls-2" data-name="Path 3947" transform="translate(-118.469 -65.17)"/>
        <path id="prefix__Path_3948" d="M245.454 239.376l-2.1 2.579h-3.5l-1.871-2.571 1.877-2.546a4.111 4.111 0 0 1 1.779-1.377l.08-.031.08.031a4.111 4.111 0 0 1 1.779 1.377z" class="prefix__cls-8" data-name="Path 3948" transform="translate(-162.451 -183.076)"/>
        <path id="prefix__Path_3949" d="M241.8 255.113h-.263a3.283 3.283 0 0 1-2.654-1.351l-.631-.867-.257.348 1.871 2.571h3.5l2.1-2.579-.271-.368-.841 1.034a3.284 3.284 0 0 1-2.548 1.212z" class="prefix__cls-9" data-name="Path 3949" transform="translate(-162.452 -196.935)"/>
        <path id="prefix__Path_3950" d="M279.3 41.937V46.2a2.348 2.348 0 0 0 .858 1.79l.579.466V35.029H272.1v6.908z" class="prefix__cls-6" data-name="Path 3950" transform="translate(-189.562 -23.793)"/>
        <g id="prefix__Group_640" data-name="Group 640" transform="translate(33.726 5.094)">
            <path id="prefix__Path_3951" d="M215.255 18.144h-18.8v4.265a2.349 2.349 0 0 1-.858 1.79l-.579.466v-2.746h-.818V12.48a3.693 3.693 0 0 1 3.693-3.693h.173a3.693 3.693 0 0 1 3.693-3.693h17.6a2.052 2.052 0 0 1 2.052 2.052v4.843a6.155 6.155 0 0 1-6.156 6.155z" class="prefix__cls-1" data-name="Path 3951" transform="translate(-161.371 -5.094)"/>
            <path id="prefix__Path_3952" d="M0 0h1.641v5.308H0z" class="prefix__cls-1" data-name="Path 3952" transform="rotate(-45 17.908 6.876)"/>
            <path id="prefix__Path_3953" d="M35.841 72.992H34.2v-3.9h3.9v1.641h-2.259z" class="prefix__cls-1" data-name="Path 3953" transform="translate(-34.2 -55.963)"/>
            <path id="prefix__Path_3954" d="M0 0h5.308v1.641H0z" class="prefix__cls-1" data-name="Path 3954" transform="rotate(-45 37.947 15.177)"/>
            <path id="prefix__Path_3955" d="M38.1 149.992h-3.9v-3.9h1.641v2.257H38.1z" class="prefix__cls-1" data-name="Path 3955" transform="translate(-34.2 -117.164)"/>
            <path id="prefix__Path_3956" d="M0 0h5.308v1.641H0z" class="prefix__cls-1" data-name="Path 3956" transform="rotate(-45 32.147 -18.646)"/>
            <path id="prefix__Path_3957" d="M155.1 72.992h-1.641v-2.257H151.2v-1.641h3.9z" class="prefix__cls-1" data-name="Path 3957" transform="translate(-127.194 -55.963)"/>
            <path id="prefix__Path_3958" d="M0 0h1.641v5.308H0z" class="prefix__cls-1" data-name="Path 3958" transform="rotate(-45 45.931 -12.934)"/>
            <path id="prefix__Path_3959" d="M155.1 149.992h-3.9v-1.641h2.257v-2.257h1.643z" class="prefix__cls-1" data-name="Path 3959" transform="translate(-127.194 -117.164)"/>
        </g>
    </g>
</svg>
