<svg xmlns="http://www.w3.org/2000/svg" width="97.013" height="103" viewBox="0 0 97.013 103">
    <defs>
        <style>
            .prefix__cls-2{fill:#f7d4ad}.prefix__cls-3{fill:#e2a876}.prefix__cls-6{fill:#a09eef}
        </style>
    </defs>
    <g id="prefix__experience" transform="translate(-14.88)">
        <g id="prefix__Group_638" data-name="Group 638" transform="translate(14.88)">
            <path id="prefix__Path_3869" d="M85.52 103H20.745a5.865 5.865 0 0 1-5.865-5.865V5.865A5.865 5.865 0 0 1 20.745 0H85.52a5.865 5.865 0 0 1 5.865 5.865v91.27A5.865 5.865 0 0 1 85.52 103z" data-name="Path 3869" transform="translate(-14.88)" style="fill:#ffe8d2"/>
            <path id="prefix__Path_3870" d="M85.519 0h-5.41v26.677A64.135 64.135 0 0 1 15.961 90.8H14.88v6.338A5.865 5.865 0 0 0 20.746 103h64.773a5.865 5.865 0 0 0 5.866-5.864V5.864A5.865 5.865 0 0 0 85.519 0z" class="prefix__cls-2" data-name="Path 3870" transform="translate(-14.88)"/>
            <g id="prefix__Group_628" data-name="Group 628" transform="translate(12.194 68.054)">
                <path id="prefix__Path_3871" d="M131.352 341.408h-54.3a1.56 1.56 0 1 1 0-3.12h54.3a1.56 1.56 0 1 1 0 3.12z" class="prefix__cls-3" data-name="Path 3871" transform="translate(-75.493 -338.288)"/>
            </g>
            <g id="prefix__Group_629" data-name="Group 629" transform="translate(12.194 76.435)">
                <path id="prefix__Path_3872" d="M131.352 383.068h-54.3a1.56 1.56 0 1 1 0-3.12h54.3a1.56 1.56 0 1 1 0 3.12z" class="prefix__cls-3" data-name="Path 3872" transform="translate(-75.493 -379.948)"/>
            </g>
            <g id="prefix__Group_630" data-name="Group 630" transform="translate(12.194 84.816)">
                <path id="prefix__Path_3873" d="M131.352 424.729h-54.3a1.56 1.56 0 1 1 0-3.12h54.3a1.56 1.56 0 1 1 0 3.12z" class="prefix__cls-3" data-name="Path 3873" transform="translate(-75.493 -421.609)"/>
            </g>
            <g id="prefix__Group_631" data-name="Group 631" transform="translate(12.194 93.197)">
                <path id="prefix__Path_3874" d="M131.352 466.39h-54.3a1.56 1.56 0 1 1 0-3.12h54.3a1.56 1.56 0 1 1 0 3.12z" class="prefix__cls-3" data-name="Path 3874" transform="translate(-75.493 -463.27)"/>
            </g>
            <g id="prefix__Group_632" data-name="Group 632" transform="translate(12.194 51.292)">
                <path id="prefix__Path_3875" d="M131.352 258.086h-54.3a1.56 1.56 0 1 1 0-3.12h54.3a1.56 1.56 0 1 1 0 3.12z" class="prefix__cls-3" data-name="Path 3875" transform="translate(-75.493 -254.966)"/>
            </g>
            <g id="prefix__Group_633" data-name="Group 633" transform="translate(12.194 59.673)">
                <path id="prefix__Path_3876" d="M131.352 299.746h-54.3a1.56 1.56 0 1 1 0-3.12h54.3a1.56 1.56 0 1 1 0 3.12z" class="prefix__cls-3" data-name="Path 3876" transform="translate(-75.493 -296.626)"/>
            </g>
            <g id="prefix__Group_634" data-name="Group 634" transform="translate(6.452 51.292)">
                <ellipse id="prefix__Ellipse_757" cx="1.561" cy="1.56" class="prefix__cls-3" data-name="Ellipse 757" rx="1.561" ry="1.56" transform="translate(0 16.762)"/>
                <ellipse id="prefix__Ellipse_758" cx="1.561" cy="1.56" class="prefix__cls-3" data-name="Ellipse 758" rx="1.561" ry="1.56"/>
                <ellipse id="prefix__Ellipse_759" cx="1.561" cy="1.56" class="prefix__cls-3" data-name="Ellipse 759" rx="1.561" ry="1.56" transform="translate(0 8.381)"/>
                <ellipse id="prefix__Ellipse_760" cx="1.561" cy="1.56" class="prefix__cls-3" data-name="Ellipse 760" rx="1.561" ry="1.56" transform="translate(0 25.143)"/>
                <ellipse id="prefix__Ellipse_761" cx="1.561" cy="1.56" class="prefix__cls-3" data-name="Ellipse 761" rx="1.561" ry="1.56" transform="translate(0 33.524)"/>
                <ellipse id="prefix__Ellipse_762" cx="1.561" cy="1.56" class="prefix__cls-3" data-name="Ellipse 762" rx="1.561" ry="1.56" transform="translate(0 41.905)"/>
            </g>
            <g id="prefix__Group_637" data-name="Group 637" transform="translate(26.605 9.573)">
                <g id="prefix__Group_636" data-name="Group 636" transform="translate(0 .932)">
                    <path id="prefix__Path_3877" d="M166.522 153.089h-15.56a3.828 3.828 0 0 1-3.761-4.547l.611-3.192a6.867 6.867 0 0 1 4.4-5.155l6.577-2.385 6.526 2.366a6.848 6.848 0 0 1 3.375 2.656 6.827 6.827 0 0 1 1.037 2.58l.568 3.174a3.828 3.828 0 0 1-3.773 4.503z" data-name="Path 3877" transform="translate(-147.131 -120.591)" style="fill:#b8b6ff"/>
                    <path id="prefix__Path_3878" d="M193.743 124.771l-3.68 3.211-3.677-3.211v-4.929h7.357z" data-name="Path 3878" transform="translate(-178.489 -106.238)" style="fill:#ecbd83"/>
                    <path id="prefix__Path_3879" d="M187.3 57.129v4.177a5.948 5.948 0 0 1-5.959 5.971 5.843 5.843 0 0 1-5.729-5.841v-4.307c0-3.226 2.616-4.91 5.844-4.91s5.844 1.681 5.844 4.91z" class="prefix__cls-2" data-name="Path 3879" transform="translate(-169.885 -52.219)"/>
                    <g id="prefix__Group_635" data-name="Group 635" transform="translate(0 22.239)">
                        <path id="prefix__Path_3880" d="M152.631 167.386v5.64h-1.669a3.828 3.828 0 0 1-3.761-4.547l.611-3.192a6.807 6.807 0 0 1 1.035-2.52 4.711 4.711 0 0 1 3.784 4.619z" class="prefix__cls-6" data-name="Path 3880" transform="translate(-147.131 -162.767)"/>
                        <path id="prefix__Path_3881" d="M237.132 173.036h-1.609V167.4a4.711 4.711 0 0 1 3.774-4.616 6.828 6.828 0 0 1 1.037 2.58l.568 3.174a3.828 3.828 0 0 1-3.77 4.498z" class="prefix__cls-6" data-name="Path 3881" transform="translate(-217.741 -162.777)"/>
                    </g>
                </g>
                <path id="prefix__Path_3882" d="M187.3 53.145c-.219.168-.382.288-.382.288a10.549 10.549 0 0 1-1.345.651c-2.192.877-4.334.909-5.371.183a10.748 10.748 0 0 1-1.488-1.323c-.405-.515-1.695-.646-2.763.488a.967.967 0 0 1-.339.242v-.242a5.847 5.847 0 0 1 11.688-.288z" data-name="Path 3882" transform="translate(-169.886 -47.588)" style="fill:#6e4848"/>
            </g>
        </g>
        <path id="prefix__Path_3883" d="M372.54 224.447l-5.3-4.152a.834.834 0 0 0-1.028 0l-5.3 4.152a.834.834 0 0 1-1.348-.656v-29.765a.833.833 0 0 1 .834-.833h12.665a.833.833 0 0 1 .834.833v29.765a.834.834 0 0 1-1.357.656z" data-name="Path 3883" transform="translate(-275.336 -154.328)" style="fill:#ff445c"/>
        <path id="prefix__Path_3884" d="M334.251 58.742c0 2.616-2.843 4.648-3.787 6.924-.979 2.358-.443 5.8-2.222 7.574s-5.216 1.239-7.575 2.217c-2.275.943-4.308 3.785-6.924 3.785s-4.649-2.843-6.925-3.785c-2.359-.977-5.8-.44-7.575-2.217s-1.243-5.216-2.221-7.574c-.944-2.275-3.787-4.307-3.787-6.924s2.843-4.648 3.787-6.924c.979-2.358.443-5.8 2.222-7.574s5.216-1.239 7.575-2.217c2.275-.943 4.308-3.785 6.924-3.785s4.649 2.843 6.925 3.785c2.359.978 5.8.44 7.575 2.217s1.243 5.216 2.221 7.574c.944 2.275 3.787 4.307 3.787 6.924z" data-name="Path 3884" transform="translate(-222.358 -30.549)" style="fill:#ff8b59"/>
        <path id="prefix__Path_3885" d="M356.376 89.025l3.294 4.918a.408.408 0 0 0 .229.166l5.7 1.611a.409.409 0 0 1 .21.646l-3.661 4.651a.408.408 0 0 0-.087.269l.227 5.913a.409.409 0 0 1-.55.4l-5.556-2.043a.408.408 0 0 0-.282 0l-5.556 2.043a.409.409 0 0 1-.55-.4l.227-5.913a.408.408 0 0 0-.087-.269l-3.661-4.651a.409.409 0 0 1 .21-.646l5.7-1.611a.408.408 0 0 0 .229-.166l3.294-4.918a.409.409 0 0 1 .68 0z" data-name="Path 3885" transform="translate(-264.651 -70.971)" style="fill:#fee07d"/>
    </g>
</svg>
