<svg xmlns="http://www.w3.org/2000/svg" width="97.763" height="103" viewBox="0 0 97.763 103">
    <g id="prefix__get-money_1_" data-name="get-money (1)" transform="translate(-12.112)">
        <g id="prefix__Group_639" data-name="Group 639" transform="translate(12.112)">
            <path id="prefix__Path_3886" d="M169.168 271.221a5.76 5.76 0 0 1-.678 8.019l-16.037 13.327a31.51 31.51 0 0 1-21.571 7.341l-23.265-1.129a36.141 36.141 0 0 0-7.793.452l-9.713 1.807h-.678v-28.687h.452l10.052-4.856a33.318 33.318 0 0 1 16.489-3.727l15.36.678h.339a5.647 5.647 0 0 1 5.647 4.969 5.76 5.76 0 0 1-4.63 6.325l-11.407 2.146a3.388 3.388 0 0 0-2.259 5.082l1.242 2.146a3.049 3.049 0 0 0 2.936 1.581l11.068-.339a18.86 18.86 0 0 0 11.407-4.179l14.794-11.977a5.873 5.873 0 0 1 8.245.9z" data-name="Path 3886" transform="translate(-72.718 -206.733)" style="fill:#edb288"/>
            <path id="prefix__Path_3887" d="M225.759 0a26.2 26.2 0 1 1-26.089 26.315v-.113A26.089 26.089 0 0 1 225.646 0z" data-name="Path 3887" transform="translate(-159.125)" style="fill:#fedb41"/>
            <path id="prefix__Path_3888" d="M29.956 315.441v4.179a4.517 4.517 0 0 1-4.518 4.518H16.63a4.517 4.517 0 0 1-4.518-4.518v-32.978a4.517 4.517 0 0 1 4.518-4.518h8.809a4.517 4.517 0 0 1 4.518 4.518z" data-name="Path 3888" transform="translate(-12.112 -221.137)" style="fill:#00acea"/>
        </g>
        <path id="prefix__Path_3889" d="M289.761 63.287h-2.823a13.659 13.659 0 0 0-1.242-3.388h4.066a2.259 2.259 0 0 0 0-4.518H272.82a2.259 2.259 0 0 0 0 4.518h4.856a4.631 4.631 0 0 1 4.4 3.388h-9.256a2.259 2.259 0 0 0 0 4.518h9.261c-.226 0-.452.678-.9 1.016a4.743 4.743 0 0 1-3.5 1.242h-4.861a2.372 2.372 0 0 0-2.146 1.355 2.259 2.259 0 0 0 .565 2.485l12.084 11.407a2.259 2.259 0 0 0 1.581.678 2.6 2.6 0 0 0 1.696-.788 2.259 2.259 0 0 0-.113-3.162l-8.019-7.567a9.259 9.259 0 0 0 5.873-2.485 11.406 11.406 0 0 0 2.6-4.179h2.823a2.259 2.259 0 0 0 0-4.517z" data-name="Path 3889" transform="translate(-202.545 -43.409)" style="fill:#3bb54a"/>
    </g>
</svg>
