<svg xmlns="http://www.w3.org/2000/svg" width="78.677" height="132" viewBox="0 0 78.677 132">
    <defs>
        <linearGradient id="prefix__linear-gradient" x1=".5" x2=".5" y2="1.135" gradientUnits="objectBoundingBox">
            <stop offset="0" stop-color="#38bdba"/>
            <stop offset="1" stop-color="#fff"/>
        </linearGradient>
    </defs>
    <path id="prefix__Path_3865" fill="url(#prefix__linear-gradient)" d="M9.754 11.952h78.073v-21.53H43.156C51-18.633 55.833-24.268 67.1-38.152c18.715-22.939 20.324-27.164 20.324-45.676v-4.628c0-20.927-10.866-31.591-41.854-31.591a133.485 133.485 0 0 0-36.42 5.231l3.421 20.524c10.061-2.213 22.738-4.024 31.591-4.024 14.689 0 18.713 2.817 18.713 12.677v3.421c0 13.079-3.018 16.3-21.933 38.232-13.884 16.1-15.9 18.11-31.189 34.811z" data-name="Path 3865" transform="translate(-9.15 120.048)"/>
</svg>
