<svg xmlns="http://www.w3.org/2000/svg" width="449.5" height="345.5" viewBox="0 0 449.5 345.5">
    <defs>
        <filter id="prefix__Rectangle_1341" width="415" height="287" x="0" y="26" filterUnits="userSpaceOnUse">
            <feOffset dy="3"/>
            <feGaussianBlur result="blur" stdDeviation="10"/>
            <feFlood flood-opacity=".161"/>
            <feComposite in2="blur" operator="in"/>
            <feComposite in="SourceGraphic"/>
        </filter>
        <filter id="prefix__Rectangle_1153" width="242" height="76" x="128" y="85" filterUnits="userSpaceOnUse">
            <feOffset/>
            <feGaussianBlur result="blur-2" stdDeviation="1"/>
            <feFlood flood-opacity=".161"/>
            <feComposite in2="blur-2" operator="in"/>
            <feComposite in="SourceGraphic"/>
        </filter>
        <filter id="prefix__Union_1" width="47.665" height="46.022" x="135.402" y="188.879" filterUnits="userSpaceOnUse">
            <feOffset/>
            <feGaussianBlur result="blur-3" stdDeviation="2"/>
            <feFlood flood-opacity=".161"/>
            <feComposite in2="blur-3" operator="in"/>
            <feComposite in="SourceGraphic"/>
        </filter>
        <filter id="prefix__Union_2" width="47.665" height="49.542" x="180.687" y="188.879" filterUnits="userSpaceOnUse">
            <feOffset/>
            <feGaussianBlur result="blur-4" stdDeviation="2"/>
            <feFlood flood-opacity=".161"/>
            <feComposite in2="blur-4" operator="in"/>
            <feComposite in="SourceGraphic"/>
        </filter>
        <filter id="prefix__Rectangle_1249" width="49" height="46" x="225" y="189" filterUnits="userSpaceOnUse">
            <feOffset/>
            <feGaussianBlur result="blur-5" stdDeviation="2"/>
            <feFlood flood-opacity=".161"/>
            <feComposite in2="blur-5" operator="in"/>
            <feComposite in="SourceGraphic"/>
        </filter>
        <filter id="prefix__Rectangle_1249-2" width="48" height="46" x="271" y="189" filterUnits="userSpaceOnUse">
            <feOffset/>
            <feGaussianBlur result="blur-6" stdDeviation="2"/>
            <feFlood flood-opacity=".161"/>
            <feComposite in2="blur-6" operator="in"/>
            <feComposite in="SourceGraphic"/>
        </filter>
        <filter id="prefix__Rectangle_1249-3" width="48" height="46" x="317" y="189" filterUnits="userSpaceOnUse">
            <feOffset/>
            <feGaussianBlur result="blur-7" stdDeviation="2"/>
            <feFlood flood-opacity=".161"/>
            <feComposite in2="blur-7" operator="in"/>
            <feComposite in="SourceGraphic"/>
        </filter>
        <filter id="prefix__Rectangle_1255" width="67" height="37" x="128.5" y="236.5" filterUnits="userSpaceOnUse">
            <feOffset dx="-2" dy="2"/>
            <feGaussianBlur result="blur-8" stdDeviation="2.5"/>
            <feFlood flood-opacity=".161"/>
            <feComposite in2="blur-8" operator="in"/>
            <feComposite in="SourceGraphic"/>
        </filter>
        <filter id="prefix__Rectangle_1255-2" width="69" height="37" x="184.5" y="236.5" filterUnits="userSpaceOnUse">
            <feOffset dx="-2" dy="2"/>
            <feGaussianBlur result="blur-9" stdDeviation="2.5"/>
            <feFlood flood-opacity=".161"/>
            <feComposite in2="blur-9" operator="in"/>
            <feComposite in="SourceGraphic"/>
        </filter>
        <filter id="prefix__Rectangle_1255-3" width="69" height="37" x="241.5" y="236.5" filterUnits="userSpaceOnUse">
            <feOffset dx="-2" dy="2"/>
            <feGaussianBlur result="blur-10" stdDeviation="2.5"/>
            <feFlood flood-opacity=".161"/>
            <feComposite in2="blur-10" operator="in"/>
            <feComposite in="SourceGraphic"/>
        </filter>
        <filter id="prefix__Rectangle_1255-4" width="68" height="37" x="298.5" y="236.5" filterUnits="userSpaceOnUse">
            <feOffset dx="-2" dy="2"/>
            <feGaussianBlur result="blur-11" stdDeviation="2.5"/>
            <feFlood flood-opacity=".161"/>
            <feComposite in2="blur-11" operator="in"/>
            <feComposite in="SourceGraphic"/>
        </filter>
        <filter id="prefix__Rectangle_1906" width="175" height="151" x="274.5" y="194.5" filterUnits="userSpaceOnUse">
            <feOffset dy="8"/>
            <feGaussianBlur result="blur-12" stdDeviation="11.5"/>
            <feFlood flood-opacity=".071"/>
            <feComposite in2="blur-12" operator="in"/>
            <feComposite in="SourceGraphic"/>
        </filter>
        <style>
            .prefix__cls-72{fill:#38bdba}.prefix__cls-21{opacity:.2}.prefix__cls-2{fill:#fff}.prefix__cls-3{fill:#f5f5f5}.prefix__cls-5{fill:#e2e2e2}.prefix__cls-6,.prefix__cls-9{fill:#f0f0f0}.prefix__cls-69,.prefix__cls-71{fill:#444584}.prefix__cls-12{font-weight:700}.prefix__cls-9{opacity:.7}.prefix__cls-10{fill:#fafafa}.prefix__cls-12,.prefix__cls-24,.prefix__cls-71,.prefix__cls-72{font-size:3px}.prefix__cls-12{font-family:CircularStd-Bold,Circular Std Bold;opacity:.8}.prefix__cls-16{font-size:2px}.prefix__cls-16,.prefix__cls-24,.prefix__cls-71{font-family:CircularStd-Book,Circular Std Book}.prefix__cls-21{fill:none;stroke:#707070}.prefix__cls-18{fill:#46c3db}.prefix__cls-19{fill:#f1f1f1}.prefix__cls-24{opacity:.9}.prefix__cls-26{fill:#595959}.prefix__cls-28{fill:#ff7452}.prefix__cls-29{fill:#f2f2f2}.prefix__cls-31{fill:#6faee8}.prefix__cls-32{fill:#9acef3}.prefix__cls-36{fill:#64798a}.prefix__cls-37{fill:#27a2db}.prefix__cls-38{fill:#2d93ba}.prefix__cls-39{fill:#3a556a}.prefix__cls-40{fill:#ebf0f3}.prefix__cls-42{fill:#d5d6db}.prefix__cls-51{fill:#ae4e32}.prefix__cls-53{fill:#ff6838}.prefix__cls-54{fill:#ffdc00}.prefix__cls-55{fill:#ffc000}.prefix__cls-56{fill:#fec9a3}.prefix__cls-57{fill:#feb784}.prefix__cls-59{fill:#c7c7c5}.prefix__cls-61{fill:#ebebe9}.prefix__cls-62{fill:#d6d6d4}.prefix__cls-63{fill:#95573a}.prefix__cls-64{fill:#fec093}.prefix__cls-65{fill:#7a432a}.prefix__cls-67{fill:#743b20}.prefix__cls-71,.prefix__cls-72{letter-spacing:.05em}.prefix__cls-72{font-family:CircularStd-Medium,Circular Std Medium;font-weight:500}.prefix__cls-73{fill:#00c2cd}.prefix__cls-75{fill:#da4836}
        </style>
    </defs>
    <g id="prefix__Group_806" data-name="Group 806" transform="translate(-834 -378)">
        <circle id="prefix__Ellipse_803" cx="150" cy="150" r="150" fill="#38bdba" data-name="Ellipse 803" opacity="0.2" transform="translate(965 378)"/>
        <g id="prefix__Group_690" data-name="Group 690" transform="translate(276.978 227.465)">
            <g filter="url(#prefix__Rectangle_1341)" transform="translate(557.02 150.53)">
                <rect id="prefix__Rectangle_1341-2" width="355" height="227" class="prefix__cls-2" data-name="Rectangle 1341" rx="11" transform="translate(30 53)"/>
            </g>
            <path id="prefix__Rectangle_1342" d="M10 0h74v227H10a10 10 0 0 1-10-10V10A10 10 0 0 1 10 0z" class="prefix__cls-2" data-name="Rectangle 1342" transform="translate(587.022 203.535)"/>
            <path id="prefix__Path_4382" d="M0 0h265.044a5.866 5.866 0 0 1 5.866 5.866V24H0z" class="prefix__cls-3" data-name="Path 4382" transform="translate(671.113 203.711)"/>
            <rect id="prefix__Rectangle_1376" width="40" height="11" fill="#ec3f78" data-name="Rectangle 1376" opacity="0.3" rx="5" transform="translate(797.022 210.535)"/>
            <circle id="prefix__Ellipse_588" cx="5" cy="5" r="5" class="prefix__cls-2" data-name="Ellipse 588" transform="translate(844.022 211.535)"/>
            <rect id="prefix__Rectangle_1377" width="37" height="4" class="prefix__cls-5" data-name="Rectangle 1377" rx="2" transform="translate(858.022 214.535)"/>
            <circle id="prefix__Ellipse_589" cx="18.5" cy="18.5" r="18.5" class="prefix__cls-6" data-name="Ellipse 589" transform="translate(611.022 252.535)"/>
            <text id="prefix__pracify" fill="#444584" font-family="ProximaNovaA-Bold, Proxima Nova Alt" font-size="13px" font-weight="700" transform="translate(607.022 233.535)">
                <tspan x="0" y="0">pracify</tspan>
            </text>
            <rect id="prefix__Rectangle_1378" width="37" height="5" class="prefix__cls-6" data-name="Rectangle 1378" rx="2.5" transform="translate(611.022 296.535)"/>
            <rect id="prefix__Rectangle_1379" width="70" height="5" fill="#f0f0f0" data-name="Rectangle 1379" opacity="0.5" rx="2.5" transform="translate(594.022 303.535)"/>
            <rect id="prefix__Rectangle_1380" width="57" height="3" class="prefix__cls-6" data-name="Rectangle 1380" rx="1.5" transform="translate(597.022 333.535)"/>
            <rect id="prefix__Rectangle_1381" width="66" height="3" class="prefix__cls-9" data-name="Rectangle 1381" rx="1.5" transform="translate(597.022 346.535)"/>
            <rect id="prefix__Rectangle_1382" width="50" height="4" class="prefix__cls-9" data-name="Rectangle 1382" rx="2" transform="translate(597.022 358.535)"/>
            <rect id="prefix__Rectangle_1383" width="58" height="3" class="prefix__cls-9" data-name="Rectangle 1383" rx="1.5" transform="translate(597.022 371.535)"/>
            <rect id="prefix__Rectangle_1384" width="34" height="4" class="prefix__cls-9" data-name="Rectangle 1384" rx="2" transform="translate(597.022 383.535)"/>
            <rect id="prefix__Rectangle_1385" width="45" height="4" class="prefix__cls-9" data-name="Rectangle 1385" rx="2" transform="translate(597.022 396.535)"/>
            <rect id="prefix__Rectangle_1410" width="32" height="4" class="prefix__cls-5" data-name="Rectangle 1410" rx="2" transform="translate(900.022 214.535)"/>
            <g id="prefix__Group_549" data-name="Group 549" transform="translate(688.178 238.908)">
                <g id="prefix__Group_546" data-name="Group 546">
                    <g filter="url(#prefix__Rectangle_1153)" transform="translate(-131.16 -88.37)">
                        <rect id="prefix__Rectangle_1153-2" width="236" height="70" class="prefix__cls-10" data-name="Rectangle 1153" rx="3" transform="translate(131 88)"/>
                    </g>
                    <path id="prefix__Rectangle_1154" fill="#ccf3f5" d="M3 0h230a3 3 0 0 1 3 3v9H0V3a3 3 0 0 1 3-3z" data-name="Rectangle 1154" transform="translate(-.156 -.373)"/>
                    <text id="prefix__MY_GIGS" class="prefix__cls-12" data-name="MY GIGS" transform="translate(6.844 6.627)">
                        <tspan x="0" y="0">MY GIGS</tspan>
                    </text>
                    <path id="prefix__Rectangle_1157" fill="#38bdba" d="M0 0H236V10H0z" data-name="Rectangle 1157" opacity="0.5" transform="translate(-.156 11.627)"/>
                    <path id="prefix__Rectangle_1158" d="M0 0H48V10H0z" class="prefix__cls-2" data-name="Rectangle 1158" transform="translate(-.156 11.627)"/>
                    <text id="prefix__All" fill="#38bdba" font-family="CircularStd-Black, Circular Std Black" font-size="3px" font-weight="800" transform="translate(20.844 16.627)">
                        <tspan x="0" y="0">All</tspan>
                    </text>
                    <text id="prefix__Active" class="prefix__cls-12" transform="translate(65.844 17.627)">
                        <tspan x="0" y="0">Active</tspan>
                    </text>
                    <text id="prefix__Under_Review" class="prefix__cls-12" data-name="Under Review" transform="translate(108.844 17.627)">
                        <tspan x="0" y="0">Under Review</tspan>
                    </text>
                    <text id="prefix__Closed" class="prefix__cls-12" transform="translate(160.844 17.627)">
                        <tspan x="0" y="0">Closed</tspan>
                    </text>
                    <text id="prefix__Drafts" class="prefix__cls-12" transform="translate(208.844 17.627)">
                        <tspan x="0" y="0">Drafts</tspan>
                    </text>
                    <rect id="prefix__Rectangle_1159" width="48" fill="#38bdba" data-name="Rectangle 1159" transform="translate(-.156 21.627)"/>
                    <path id="prefix__Rectangle_1166" d="M0 0H236V13H0z" class="prefix__cls-10" data-name="Rectangle 1166" transform="translate(-.156 21.627)"/>
                    <text id="prefix__S_No" class="prefix__cls-16" transform="translate(6.844 29.627)">
                        <tspan x="0" y="0">S.No</tspan>
                    </text>
                    <text id="prefix__Job_Title" class="prefix__cls-16" data-name="Job Title" transform="translate(21.844 29.627)">
                        <tspan x="0" y="0">Job Title</tspan>
                    </text>
                    <text id="prefix__Location" class="prefix__cls-16" transform="translate(71.844 29.627)">
                        <tspan x="0" y="0">Location</tspan>
                    </text>
                    <text id="prefix__Created" class="prefix__cls-16" transform="translate(132.844 29.627)">
                        <tspan x="0" y="0">Created</tspan>
                    </text>
                    <text id="prefix__Status" class="prefix__cls-16" transform="translate(186.844 29.627)">
                        <tspan x="0" y="0">Status</tspan>
                    </text>
                    <text id="prefix__Action" class="prefix__cls-16" transform="translate(216.844 29.627)">
                        <tspan x="0" y="0">Action</tspan>
                    </text>
                    <text id="prefix__Application" class="prefix__cls-16" transform="translate(99.844 29.627)">
                        <tspan x="0" y="0">Application</tspan>
                    </text>
                    <text id="prefix__Deadline" class="prefix__cls-16" transform="translate(160.844 29.627)">
                        <tspan x="0" y="0">Deadline</tspan>
                    </text>
                    <path id="prefix__Line_70" fill="none" stroke="#707070" stroke-width="0.5px" d="M0 0L236.505 0" data-name="Line 70" opacity="0.3" transform="translate(.4 34.428)"/>
                    <circle id="prefix__Ellipse_585" cx="2" cy="2" r="2" class="prefix__cls-3" data-name="Ellipse 585" transform="translate(8.844 41.627)"/>
                    <rect id="prefix__Rectangle_1358" width="35" height="4" class="prefix__cls-18" data-name="Rectangle 1358" rx="2" transform="translate(19.844 41.627)"/>
                    <rect id="prefix__Rectangle_1359" width="19" height="4" class="prefix__cls-19" data-name="Rectangle 1359" rx="2" transform="translate(71.844 41.627)"/>
                    <rect id="prefix__Rectangle_1360" width="24" height="4" class="prefix__cls-19" data-name="Rectangle 1360" rx="2" transform="translate(99.844 41.627)"/>
                    <rect id="prefix__Rectangle_1361" width="19" height="4" class="prefix__cls-19" data-name="Rectangle 1361" rx="2" transform="translate(132.844 41.627)"/>
                    <rect id="prefix__Rectangle_1362" width="17" height="4" class="prefix__cls-19" data-name="Rectangle 1362" rx="2" transform="translate(160.844 41.627)"/>
                    <rect id="prefix__Rectangle_1363" width="24" height="4" class="prefix__cls-19" data-name="Rectangle 1363" rx="2" transform="translate(186.844 41.627)"/>
                    <circle id="prefix__Ellipse_650" cx="2" cy="2" r="2" class="prefix__cls-3" data-name="Ellipse 650" transform="translate(8.844 56.627)"/>
                    <rect id="prefix__Rectangle_1532" width="35" height="4" class="prefix__cls-18" data-name="Rectangle 1532" rx="2" transform="translate(19.844 56.627)"/>
                    <rect id="prefix__Rectangle_1533" width="19" height="4" class="prefix__cls-19" data-name="Rectangle 1533" rx="2" transform="translate(71.844 56.627)"/>
                    <rect id="prefix__Rectangle_1534" width="24" height="4" class="prefix__cls-19" data-name="Rectangle 1534" rx="2" transform="translate(99.844 56.627)"/>
                    <rect id="prefix__Rectangle_1535" width="19" height="4" class="prefix__cls-19" data-name="Rectangle 1535" rx="2" transform="translate(132.844 56.627)"/>
                    <rect id="prefix__Rectangle_1536" width="17" height="4" class="prefix__cls-19" data-name="Rectangle 1536" rx="2" transform="translate(160.844 56.627)"/>
                    <rect id="prefix__Rectangle_1537" width="24" height="4" class="prefix__cls-19" data-name="Rectangle 1537" rx="2" transform="translate(186.844 56.627)"/>
                    <path id="prefix__Line_93" fill="none" stroke="#707070" stroke-width="0.3px" d="M0 0L236.389 0" data-name="Line 93" opacity="0.25" transform="translate(.369 50.857)"/>
                    <path id="prefix__Path_4383" d="M417.729 77.642v8.727" class="prefix__cls-21" data-name="Path 4383" transform="translate(-207.331 -39.05)"/>
                    <path id="prefix__Path_4384" d="M417.729 104.76v8.984" class="prefix__cls-21" data-name="Path 4384" transform="translate(-207.331 -52.719)"/>
                </g>
                <g id="prefix__Group_547" data-name="Group 547" transform="translate(0 86.392)">
                    <text id="prefix__Create_New_Gig" data-name="Create New Gig" font-family="CircularStd-Bold, Circular Std Bold" font-size="6px" font-weight="700" opacity="0.8" transform="translate(-.156 5.234)">
                        <tspan x="0" y="0">Create New Gig</tspan>
                    </text>
                    <path id="prefix__Path_2860" fill="#f8f8f8" d="M4.458 0H232.29c2.462 0 4.458 1.272 4.458 2.841v81.2c0 1.569-2 2.841-4.458 2.841H4.458C2 86.886 0 85.613 0 84.044V2.841C0 1.272 2 0 4.458 0z" data-name="Path 2860" transform="translate(.157 10.024)"/>
                    <g filter="url(#prefix__Union_1)" transform="translate(-131.16 -174.77)">
                        <path id="prefix__Union_1-2" d="M4 0h27.665a4 4 0 0 1 4 4v26.022a4 4 0 0 1-4 4H4a4 4 0 0 1-4-4V4a4 4 0 0 1 4-4z" class="prefix__cls-2" data-name="Union 1" transform="translate(141.4 194.88)"/>
                    </g>
                    <g filter="url(#prefix__Union_2)" transform="translate(-131.16 -174.77)">
                        <path id="prefix__Union_2-2" d="M15.194 34.023H4a4 4 0 0 1-4-4V4a4 4 0 0 1 4-4h27.665a4 4 0 0 1 4 4v26.022a4 4 0 0 1-4 4h-9.786l-3.343 3.519z" class="prefix__cls-2" data-name="Union 2" transform="translate(186.69 194.88)"/>
                    </g>
                    <g filter="url(#prefix__Rectangle_1249)" transform="translate(-131.16 -174.77)">
                        <rect id="prefix__Rectangle_1249-4" width="37" height="34" class="prefix__cls-2" data-name="Rectangle 1249" rx="4" transform="translate(231 195)"/>
                    </g>
                    <g filter="url(#prefix__Rectangle_1249-2)" transform="translate(-131.16 -174.77)">
                        <rect id="prefix__Rectangle_1249-5" width="36" height="34" class="prefix__cls-2" data-name="Rectangle 1249" rx="4" transform="translate(277 195)"/>
                    </g>
                    <g filter="url(#prefix__Rectangle_1249-3)" transform="translate(-131.16 -174.77)">
                        <rect id="prefix__Rectangle_1249-6" width="36" height="34" class="prefix__cls-2" data-name="Rectangle 1249" rx="4" transform="translate(323 195)"/>
                    </g>
                    <text id="prefix__Marketing" class="prefix__cls-24" transform="translate(20.844 45.234)">
                        <tspan x="0" y="0">Marketing</tspan>
                    </text>
                    <g id="prefix__report" transform="translate(24.39 25.775)">
                        <path id="prefix__Path_294" fill="#383838" d="M239.807 42.3h.67a1.009 1.009 0 0 1 1.006 1.006l-2.179.67z" data-name="Path 294" transform="translate(-235.449 -42.296)"/>
                        <path id="prefix__Path_295" d="M202.024 42.3h-.67a1.009 1.009 0 0 0-1.006 1.006l1.676.67z" class="prefix__cls-26" data-name="Path 295" transform="translate(-197.666 -42.296)"/>
                        <path id="prefix__Path_296" fill="#f15d4a" d="M215.165 75.687l-3.687 5.43 1.341 5.3h4.358v-10.73z" data-name="Path 296" transform="translate(-208.461 -74.681)"/>
                        <path id="prefix__Path_297" d="M113.315 75.687l2.346 6.067v4.659H111.3V75.687z" class="prefix__cls-28" data-name="Path 297" transform="translate(-111.304 -74.681)"/>
                        <path id="prefix__Path_298" d="M206.993 97.948l-1.522 4.76 1.522 4.626h3.687v-9.386z" class="prefix__cls-29" data-name="Path 298" transform="translate(-202.635 -96.272)"/>
                        <path id="prefix__Rectangle_420" d="M0 0H3.687V9.385H0z" class="prefix__cls-2" data-name="Rectangle 420" transform="translate(.67 1.676)"/>
                        <path id="prefix__Path_299" d="M234.409 75.687l-.67.67.67.67h2.346v-1.34z" class="prefix__cls-26" data-name="Path 299" transform="translate(-230.052 -74.681)"/>
                        <path id="prefix__Rectangle_421" fill="#7f7f7f" d="M0 0H2.346V1.341H0z" data-name="Rectangle 421" transform="translate(2.011 1.006)"/>
                        <path id="prefix__Path_300" d="M228.8 365.078l-.845.335.845.335h1.676v-.67z" class="prefix__cls-31" data-name="Path 300" transform="translate(-224.438 -355.357)"/>
                        <g id="prefix__Group_135" data-name="Group 135" transform="translate(1.341 3.017)">
                            <path id="prefix__Rectangle_422" d="M0 0H3.017V0.67H0z" class="prefix__cls-32" data-name="Rectangle 422" transform="translate(0 6.704)"/>
                            <path id="prefix__Path_301" d="M158.843 142.47l.754 3.771-3.771-.754a3.017 3.017 0 0 1 3.017-3.017z" class="prefix__cls-32" data-name="Path 301" transform="translate(-155.826 -142.47)"/>
                        </g>
                        <path id="prefix__Path_302" fill="#fbe287" d="M158.843 242.643l.754 1.584-.754 1.433a3.017 3.017 0 0 1-3.017-3.017z" data-name="Path 302" transform="translate(-154.485 -236.609)"/>
                        <path id="prefix__Path_303" fill="#ffd652" d="M256 242.643l1.923.792.21 1.341a3.007 3.007 0 0 1-2.133.884z" data-name="Path 303" transform="translate(-251.642 -236.61)"/>
                        <path id="prefix__Path_304" d="M256 218.354l1.716-.754 1.3.754a3.007 3.007 0 0 1-.884 2.133z" class="prefix__cls-28" data-name="Path 304" transform="translate(-251.642 -212.321)"/>
                        <path id="prefix__Path_305" fill="#85dc79" d="M259.017 173.941H256l.462-1.97 1.671-.163a3.007 3.007 0 0 1 .884 2.133z" data-name="Path 305" transform="translate(-251.642 -167.908)"/>
                        <g id="prefix__Group_136" data-name="Group 136" transform="translate(4.358 3.017)">
                            <path id="prefix__Path_306" d="M256 142.47a3.007 3.007 0 0 1 2.133.884L256 145.487z" class="prefix__cls-31" data-name="Path 306" transform="translate(-256 -142.47)"/>
                            <path id="prefix__Rectangle_423" d="M0 0H0.67V0.67H0z" class="prefix__cls-31" data-name="Rectangle 423" transform="translate(2.346 6.704)"/>
                        </g>
                    </g>
                    <g id="prefix__seo-and-web" transform="translate(69.062 25.735)">
                        <path id="prefix__Path_315" d="M136.023 104.96h-8.791a.566.566 0 0 0-.566.566v10.6a.566.566 0 0 0 .566.566h8.791a.566.566 0 0 0 .566-.566v-10.6a.566.566 0 0 0-.566-.566z" class="prefix__cls-36" data-name="Path 315" transform="translate(-126.666 -104.96)"/>
                        <path id="prefix__Rectangle_436" d="M0 0H8.217V9.266H0z" class="prefix__cls-37" data-name="Rectangle 436" transform="translate(.853 .853)"/>
                        <path id="prefix__Rectangle_437" d="M0 0H8.217V0.503H0z" class="prefix__cls-38" data-name="Rectangle 437" transform="translate(.853 9.616)"/>
                        <circle id="prefix__Ellipse_143" cx=".469" cy=".469" r=".469" class="prefix__cls-39" data-name="Ellipse 143" transform="translate(4.493 10.45)"/>
                        <path id="prefix__Path_316" d="M173.214 149.865a1.107 1.107 0 0 0-1.107-1.107 1.38 1.38 0 0 0-2.086-1.093 1.105 1.105 0 0 0-1.833.5 1.846 1.846 0 1 0 .31 3.086 1.5 1.5 0 0 0 2.326.307 1.2 1.2 0 0 0 2.118-.784 1.218 1.218 0 0 0-.012-.163 1.1 1.1 0 0 0 .284-.746z" class="prefix__cls-40" data-name="Path 316" transform="translate(-164.955 -145.588)"/>
                        <g id="prefix__Group_138" data-name="Group 138" transform="translate(2.038 2.006)">
                            <path id="prefix__Path_317" d="M216.836 155.381a.868.868 0 0 0-.86-.867h-.236l-.015-.224a1.14 1.14 0 0 0-1.724-.9l-.158.094-.132-.127a.863.863 0 0 0-1.323.146.857.857 0 0 1 1.084.093l.132.127.158-.094a1.14 1.14 0 0 1 1.724.9l.015.224h.236a.866.866 0 0 1 .633 1.449l-.075.083.015.111a.971.971 0 0 1 .01.131.959.959 0 0 1-.174.551.949.949 0 0 0 .4-.922l-.015-.111.075-.083a.864.864 0 0 0 .23-.581z" class="prefix__cls-2" data-name="Path 317" transform="translate(-210.855 -153.11)"/>
                            <path id="prefix__Path_318" d="M175.674 207.712l.192-.095-.035-.1a.825.825 0 0 0-.245.243.843.843 0 0 1 .088-.048z" class="prefix__cls-2" data-name="Path 318" transform="translate(-175.586 -205.253)"/>
                            <path id="prefix__Path_319" d="M188.753 172.746l.175-.006.047-.169c.006-.023.016-.043.024-.065h-.007a.829.829 0 0 0-.668.376.83.83 0 0 1 .429-.136z" class="prefix__cls-2" data-name="Path 319" transform="translate(-187.794 -171.698)"/>
                            <path id="prefix__Path_320" d="M203.794 236.818l-.125.145a.836.836 0 0 0 .138-.123z" class="prefix__cls-2" data-name="Path 320" transform="translate(-202.499 -233.331)"/>
                        </g>
                    </g>
                    <text id="prefix__Business_Development" data-name="Business Development" font-family="CircularStd-Book, Circular Std Book" font-size="3px" transform="translate(73.844 43.234)">
                        <tspan x="-5.792" y="0">Business</tspan><tspan x="-9.024" y="4">Development</tspan>
                    </text>
                    <g id="prefix__research" transform="translate(113.956 25.744)">
                        <path id="prefix__Path_308" d="M111.367 104.96h-5.979a.429.429 0 0 0-.429.429v10.875a.429.429 0 0 0 .429.429h8.126a.429.429 0 0 0 .429-.429v-8.727z" class="prefix__cls-40" data-name="Path 308" transform="translate(-104.96 -104.96)"/>
                        <path id="prefix__Path_309" d="M258.758 104.96v2.147a.429.429 0 0 0 .429.429h2.147z" class="prefix__cls-42" data-name="Path 309" transform="translate(-252.351 -104.96)"/>
                        <path id="prefix__Rectangle_424" fill="#fcd462" d="M0 0H1.024V1.477H0z" data-name="Rectangle 424" transform="translate(1.036 6.587)"/>
                        <path id="prefix__Rectangle_425" fill="#f6c358" d="M0 0H1.024V0.304H0z" data-name="Rectangle 425" transform="translate(1.036 8.065)"/>
                        <path id="prefix__Rectangle_426" d="M0 0H1.024V0.304H0z" class="prefix__cls-39" data-name="Rectangle 426" transform="translate(2.508 8.065)"/>
                        <path id="prefix__Rectangle_427" d="M0 0H1.024V3.236H0z" class="prefix__cls-36" data-name="Rectangle 427" transform="translate(2.508 4.829)"/>
                        <path id="prefix__Rectangle_428" d="M0 0H1.024V0.304H0z" class="prefix__cls-38" data-name="Rectangle 428" transform="translate(3.98 8.065)"/>
                        <path id="prefix__Rectangle_429" d="M0 0H1.024V2.254H0z" class="prefix__cls-37" data-name="Rectangle 429" transform="translate(3.98 5.811)"/>
                        <path id="prefix__Rectangle_430" fill="#44c4a1" d="M0 0H1.024V5.321H0z" data-name="Rectangle 430" transform="translate(5.452 2.743)"/>
                        <path id="prefix__Rectangle_431" fill="#3ea69b" d="M0 0H1.024V0.304H0z" data-name="Rectangle 431" transform="translate(5.452 8.065)"/>
                        <path id="prefix__Rectangle_432" fill="#e56353" d="M0 0H1.024V3.75H0z" data-name="Rectangle 432" transform="translate(6.923 4.314)"/>
                        <path id="prefix__Rectangle_433" fill="#d15241" d="M0 0H1.024V0.304H0z" data-name="Rectangle 433" transform="translate(6.923 8.065)"/>
                        <g id="prefix__Group_137" data-name="Group 137" transform="translate(1.036 9.238)">
                            <path id="prefix__Rectangle_434" d="M0 0H6.911V0.427H0z" class="prefix__cls-42" data-name="Rectangle 434"/>
                            <path id="prefix__Rectangle_435" d="M0 0H6.911V0.427H0z" class="prefix__cls-42" data-name="Rectangle 435" transform="translate(0 1.131)"/>
                        </g>
                        <circle id="prefix__Ellipse_141" cx="2.189" cy="2.189" r="2.189" fill="#27a2db" data-name="Ellipse 141" opacity="0.25" transform="translate(4.507 4.507)"/>
                        <path id="prefix__Path_310" d="M201.508 202.039l.457.457.532-.532-.457-.457a2.866 2.866 0 1 0-.532.532zm-3.289-.725a2.189 2.189 0 1 1 3.1 0 2.189 2.189 0 0 1-3.1 0z" class="prefix__cls-39" data-name="Path 310" transform="translate(-193.07 -193.07)"/>
                        <path id="prefix__Path_311" fill="#2f4859" d="M314.452 315.172l.719-.719a.092.092 0 0 1 .13 0l.273.273-.849.849-.273-.273a.092.092 0 0 1 0-.13z" data-name="Path 311" transform="translate(-305.699 -305.699)"/>
                        <path id="prefix__Path_312" d="M318.9 320.027a.062.062 0 0 1 0-.088l1.04-1.04a.062.062 0 0 1 .088 0l1.422 1.422-1.128 1.128z" class="prefix__cls-37" data-name="Path 312" transform="translate(-309.968 -309.968)"/>
                        <path id="prefix__Path_313" d="M354.586 353.458l.233.232a.062.062 0 0 1 0 .088l-1.04 1.04a.062.062 0 0 1-.088 0l-.232-.233z" class="prefix__cls-38" data-name="Path 313" transform="translate(-343.105 -343.105)"/>
                    </g>
                    <text id="prefix__Data_Moderation" class="prefix__cls-24" data-name="Data Moderation" transform="translate(117.844 44.234)">
                        <tspan x="-3.181" y="0">Data</tspan><tspan x="-7.92" y="3">Moderation</tspan>
                    </text>
                    <g id="prefix__Group_437" data-name="Group 437" transform="translate(157.129 25.744)">
                        <path id="prefix__Path_322" d="M157.661 284.72l-2.247.759-1.581-4.52 2.248-.759z" class="prefix__cls-51" data-name="Path 322" transform="translate(-150.677 -273.747)"/>
                        <path id="prefix__Path_323" d="M126.388 108.215s-5.287-1.457-8.855-.209l-.953-2.724c3.567-1.248 6.794-5.683 6.794-5.683z" class="prefix__cls-2" data-name="Path 323" transform="translate(-114.757 -99.6)"/>
                        <path id="prefix__Path_324" fill="#e0e0e0" d="M132.753 221.909l.375 1.072c3.567-1.248 8.855.209 8.855.209l-1.523-4.355z" data-name="Path 324" transform="translate(-130.351 -214.575)"/>
                        <path id="prefix__Path_325" d="M277.484 99.6s-.4.555-1.083 1.327l2.423 6.926c1.012.18 1.674.362 1.674.362z" class="prefix__cls-53" data-name="Path 325" transform="translate(-268.866 -99.6)"/>
                        <path id="prefix__Path_326" d="M310.425 219.376l1.207 3.451c1.012.18 1.674.362 1.674.362l-1.523-4.355z" class="prefix__cls-51" data-name="Path 326" transform="translate(-301.674 -214.574)"/>
                        <path id="prefix__Path_327" d="M66.467 261.971l1.836-.6-.953-2.724-1.824.638z" class="prefix__cls-53" data-name="Path 327" transform="translate(-65.526 -252.961)"/>
                        <path id="prefix__Path_328" d="M82.468 305.589l.335.959 1.836-.6-.375-1.072z" class="prefix__cls-51" data-name="Path 328" transform="translate(-81.863 -297.537)"/>
                        <path id="prefix__Rectangle_438" d="M0 0H0.715V2.562H0z" class="prefix__cls-54" data-name="Rectangle 438" transform="scale(-1) rotate(67 -2.266 -10.597)"/>
                        <path id="prefix__Path_329" d="M375.246 183.965l-.157-.37-2.365.984.164.386z" class="prefix__cls-55" data-name="Path 329" transform="translate(-361.747 -180.594)"/>
                        <path id="prefix__Rectangle_439" d="M0 0H0.715V2.069H0z" class="prefix__cls-54" data-name="Rectangle 439" transform="rotate(-156.447 5.543 .289)"/>
                        <path id="prefix__Rectangle_440" d="M0 0H2.069V0.715H0z" class="prefix__cls-55" data-name="Rectangle 440" transform="rotate(-166.42 7.034 2.522)"/>
                    </g>
                    <text id="prefix__Research_Auditing" class="prefix__cls-24" data-name="Research &amp; Auditing" transform="translate(164.844 44.234)">
                        <tspan x="-7.521" y="0">Research &amp;</tspan><tspan x="-5.733" y="4">Auditing</tspan>
                    </text>
                    <g id="prefix__freelance_2_" data-name="freelance (2)" transform="translate(203.118 25.744)">
                        <path id="prefix__Path_330" d="M173.146 201.742V200h-2.058v1.742a.412.412 0 0 1-.306.4l-1.865.5a1.235 1.235 0 0 0-.917 1.188v3.579h8.233v-3.579a1.235 1.235 0 0 0-.917-1.193l-1.865-.5a.412.412 0 0 1-.305-.395z" class="prefix__cls-56" data-name="Path 330" transform="translate(-164.295 -195.678)"/>
                        <path id="prefix__Path_331" d="M283.843 202.264a1.4 1.4 0 0 0 .731-.207.411.411 0 0 1-.149-.315V200h-2.058v1.742a.411.411 0 0 1-.149.315 1.4 1.4 0 0 0 .731.207z" class="prefix__cls-57" data-name="Path 331" transform="translate(-275.575 -195.678)"/>
                        <path id="prefix__Path_332" fill="#c7ae71" d="M175.316 284.4l-1.792-.478a1.44 1.44 0 0 1-2.815 0l-1.792.478a1.235 1.235 0 0 0-.917 1.19v3.579h8.233v-3.579a1.235 1.235 0 0 0-.917-1.193z" data-name="Path 332" transform="translate(-164.295 -277.438)"/>
                        <path id="prefix__Path_333" d="M168 384h1.647v2.676H168z" class="prefix__cls-56" data-name="Path 333" transform="translate(-164.295 -374.944)"/>
                        <path id="prefix__Path_334" d="M424 384h1.647v2.676H424z" class="prefix__cls-57" data-name="Path 334" transform="translate(-413.709 -374.944)"/>
                        <path id="prefix__Path_335" d="M56 456h7.2v.823H56z" class="prefix__cls-59" data-name="Path 335" transform="translate(-55.177 -445.091)"/>
                        <path id="prefix__Path_336" fill="#e0e0de" d="M29.6 332.116h-4.4a.471.471 0 0 1-.444-.315.426.426 0 0 1-.016-.054l-.732-3.3a.382.382 0 0 1-.009-.08.371.371 0 0 1 .371-.371h4.593a.472.472 0 0 1 .463.379l.064.321.571 2.853a.471.471 0 0 1-.462.563z" data-name="Path 336" transform="translate(-24 -320.385)"/>
                        <ellipse id="prefix__Ellipse_144" cx=".394" cy=".43" class="prefix__cls-61" data-name="Ellipse 144" rx=".394" ry=".43" transform="rotate(-46.3 12.443 2.134)"/>
                        <path id="prefix__Path_337" d="M369.852 386.676h-1.647L368 384h2.058z" class="prefix__cls-62" data-name="Path 337" transform="translate(-359.15 -374.944)"/>
                        <path id="prefix__Path_338" d="M370.461 416l.079 1.029h1.773l.079-1.029z" class="prefix__cls-63" data-name="Path 338" transform="translate(-361.547 -406.121)"/>
                        <path id="prefix__Path_339" d="M377.235 201.852v.206a1.235 1.235 0 0 0-1.235 1.235v.617h1.647v-.41a.412.412 0 0 1 .412-.412.412.412 0 0 0 .412-.412v-.206a.617.617 0 0 1 .617-.617V200a1.852 1.852 0 0 0-1.853 1.852z" class="prefix__cls-61" data-name="Path 339" transform="translate(-366.944 -195.678)"/>
                        <path id="prefix__Path_340" d="M408.412 416h1.647v1.852h-1.647a.412.412 0 0 1-.412-.412v-1.029a.412.412 0 0 1 .412-.411z" class="prefix__cls-56" data-name="Path 340" transform="translate(-398.121 -406.121)"/>
                        <path id="prefix__Path_341" d="M400.206 120H400v1.235h.206a.617.617 0 0 0 0-1.235z" class="prefix__cls-57" data-name="Path 341" transform="translate(-390.326 -117.736)"/>
                        <path id="prefix__Path_342" d="M224.628 120h-.01a.617.617 0 1 0 0 1.235h.206V120z" class="prefix__cls-57" data-name="Path 342" transform="translate(-218.854 -117.736)"/>
                        <path id="prefix__Path_343" d="M257.852 45.557A1.852 1.852 0 0 1 256 43.7v-1.848a1.852 1.852 0 0 1 3.7 0V43.7a1.852 1.852 0 0 1-1.848 1.857z" class="prefix__cls-56" data-name="Path 343" transform="translate(-250.031 -39.794)"/>
                        <path id="prefix__Path_344" d="M312.412 40a1.853 1.853 0 0 0-.412.047 1.852 1.852 0 0 1 1.441 1.8V43.7A1.852 1.852 0 0 1 312 45.51a1.848 1.848 0 0 0 2.264-1.8v-1.858A1.852 1.852 0 0 0 312.412 40z" class="prefix__cls-64" data-name="Path 344" transform="translate(-304.59 -39.794)"/>
                        <circle id="prefix__Ellipse_145" cx=".309" cy=".309" r=".309" class="prefix__cls-65" data-name="Ellipse 145" transform="translate(6.586 2.264)"/>
                        <circle id="prefix__Ellipse_146" cx=".309" cy=".309" r=".309" class="prefix__cls-65" data-name="Ellipse 146" transform="translate(8.439 2.264)"/>
                        <path id="prefix__Path_345" fill="#f7a468" d="M304.207 118.975h.823v-.412h-.538l.321-.964-.391-.13-.412 1.235a.206.206 0 0 0 .2.271z" data-name="Path 345" transform="translate(-296.797 -115.27)"/>
                        <path id="prefix__Path_346" d="M256 120l.7 1.052a.412.412 0 0 0 .342.183h1.618a.412.412 0 0 0 .343-.183l.7-1.052v2.505a1.405 1.405 0 0 1-1.405 1.405h-.894a1.405 1.405 0 0 1-1.404-1.405z" class="prefix__cls-65" data-name="Path 346" transform="translate(-250.031 -117.736)"/>
                        <path id="prefix__Path_347" d="M314.9 121.052a.408.408 0 0 1-.122.116v1.337a1.405 1.405 0 0 1-1.405 1.405h.823a1.405 1.405 0 0 0 1.405-1.405V120z" class="prefix__cls-67" data-name="Path 347" transform="translate(-305.928 -117.736)"/>
                        <path id="prefix__Path_348" d="M305.175 184.344a2.549 2.549 0 0 1-.74.108H304v.412h.436a2.962 2.962 0 0 0 .859-.126z" class="prefix__cls-56" data-name="Path 348" transform="translate(-296.796 -180.424)"/>
                        <path id="prefix__Path_349" d="M261.307 49.235h3.04a1.853 1.853 0 0 0-.889-1.2 1.233 1.233 0 0 0-.3-.038H261.7a1.856 1.856 0 0 0-.883.985.615.615 0 0 0 .49.253z" class="prefix__cls-64" data-name="Path 349" transform="translate(-254.72 -47.588)"/>
                        <path id="prefix__Path_350" d="M256 42.058v-1.029A.963.963 0 0 1 257.029 40l-.036.13a5.171 5.171 0 0 1-.993 1.928z" class="prefix__cls-63" data-name="Path 350" transform="translate(-250.031 -39.794)"/>
                        <path id="prefix__Path_351" d="M361.029 42.058v-1.235c0-.682-.461-.823-1.029-.823l.036.13a5.172 5.172 0 0 0 .993 1.928z" class="prefix__cls-63" data-name="Path 351" transform="translate(-351.355 -39.794)"/>
                        <path id="prefix__Path_352" d="M259.7 33.235h-3.087a.617.617 0 0 1-.617-.617V32h2.676a1.029 1.029 0 0 1 1.029 1.029z" class="prefix__cls-65" data-name="Path 352" transform="translate(-250.031 -32)"/>
                        <path id="prefix__Path_353" d="M328.823 32H328a1.029 1.029 0 0 1 1.029 1.029v.206h.823v-.206A1.029 1.029 0 0 0 328.823 32z" class="prefix__cls-67" data-name="Path 353" transform="translate(-320.179 -32)"/>
                        <path id="prefix__Path_354" d="M370.026 384.412l.032-.412H368l.032.412z" class="prefix__cls-59" data-name="Path 354" transform="translate(-359.15 -374.944)"/>
                        <path id="prefix__Path_355" d="M360 352h2.47v.823H360z" class="prefix__cls-65" data-name="Path 355" transform="translate(-351.355 -343.767)"/>
                        <path id="prefix__Path_356" d="M424 352h.823v.823H424z" class="prefix__cls-67" data-name="Path 356" transform="translate(-413.709 -343.767)"/>
                        <path id="prefix__Path_357" fill="#d4bd81" d="M376.557 287.9a1.233 1.233 0 0 0-.557 1.032v.617h1.647v-.412a.412.412 0 0 1 .412-.412.41.41 0 0 0 .36-.216 1.226 1.226 0 0 0-.454-.234z" data-name="Path 357" transform="translate(-366.944 -281.316)"/>
                        <path id="prefix__Path_358" d="M58.263 358.636h-4.4a.471.471 0 0 1-.444-.315 9.206 9.206 0 0 0 4.734-3.1l.571 2.853a.471.471 0 0 1-.462.563z" class="prefix__cls-62" data-name="Path 358" transform="translate(-52.663 -346.904)"/>
                    </g>
                    <text id="prefix__Freelance" class="prefix__cls-24" transform="translate(209.844 46.234)">
                        <tspan x="-6.567" y="0">Freelance</tspan>
                    </text>
                    <path id="prefix__Rectangle_1250" d="M4 0v34a4 4 0 0 1-4-4V4a4 4 0 0 1 4-4z" class="prefix__cls-69" data-name="Rectangle 1250" transform="translate(99.844 20.234)"/>
                    <path id="prefix__Rectangle_1251" d="M3 0v34a3 3 0 0 1-3-3V3a3 3 0 0 1 3-3z" class="prefix__cls-69" data-name="Rectangle 1251" transform="translate(54.844 20.234)"/>
                    <path id="prefix__Rectangle_1252" d="M3 0v34a3 3 0 0 1-3-3V3a3 3 0 0 1 3-3z" class="prefix__cls-69" data-name="Rectangle 1252" transform="translate(9.844 20.234)"/>
                    <path id="prefix__Rectangle_1253" d="M3 0v34a3 3 0 0 1-3-3V3a3 3 0 0 1 3-3z" class="prefix__cls-69" data-name="Rectangle 1253" transform="translate(145.844 20.234)"/>
                    <path id="prefix__Rectangle_1254" d="M3 0v34a3 3 0 0 1-3-3V3a3 3 0 0 1 3-3z" class="prefix__cls-69" data-name="Rectangle 1254" transform="translate(191.844 20.234)"/>
                    <path id="prefix__Line_80" fill="none" stroke="#000" stroke-width="0.5px" d="M0 0L217.274 0" data-name="Line 80" opacity="0.3" transform="translate(9.895 62.465)"/>
                    <g filter="url(#prefix__Rectangle_1255)" transform="translate(-131.16 -174.77)">
                        <rect id="prefix__Rectangle_1255-5" width="52" height="22" class="prefix__cls-2" data-name="Rectangle 1255" rx="3" transform="translate(138 242)"/>
                    </g>
                    <text id="prefix__Vendor_Acquisition" class="prefix__cls-71" data-name="Vendor Acquisition" transform="translate(29.844 74.234)">
                        <tspan x="-14.088" y="0">Vendor Acquisition</tspan>
                    </text>
                    <text id="prefix__Create_Campaign" class="prefix__cls-72" data-name="Create Campaign" transform="translate(27.844 82.234)">
                        <tspan x="-13.153" y="0">Create Campaign</tspan>
                    </text>
                    <path id="prefix__Icon_ionic-ios-arrow-round-forward" d="M10.567 11.306a.192.192 0 0 0 0 .27l.892.893H8.064a.191.191 0 0 0 0 .381h3.392l-.892.893a.193.193 0 0 0 0 .27.19.19 0 0 0 .268 0l1.208-1.217a.214.214 0 0 0 .04-.06.182.182 0 0 0 .015-.073.191.191 0 0 0-.054-.133l-1.207-1.22a.187.187 0 0 0-.267-.004z" class="prefix__cls-73" data-name="Icon ionic-ios-arrow-round-forward" transform="translate(41.991 69.574)"/>
                    <g filter="url(#prefix__Rectangle_1255-2)" transform="translate(-131.16 -174.77)">
                        <rect id="prefix__Rectangle_1255-6" width="54" height="22" class="prefix__cls-2" data-name="Rectangle 1255" rx="3" transform="translate(194 242)"/>
                    </g>
                    <text id="prefix__Address_Verification" class="prefix__cls-71" data-name="Address Verification" transform="translate(85.844 74.234)">
                        <tspan x="-14.969" y="0">Address Verification</tspan>
                    </text>
                    <text id="prefix__Create_Campaign-2" class="prefix__cls-72" data-name="Create Campaign" transform="translate(84.844 82.234)">
                        <tspan x="-13.153" y="0">Create Campaign</tspan>
                    </text>
                    <path id="prefix__Icon_ionic-ios-arrow-round-forward-2" d="M10.567 11.306a.192.192 0 0 0 0 .27l.892.893H8.064a.191.191 0 0 0 0 .381h3.392l-.892.893a.193.193 0 0 0 0 .27.19.19 0 0 0 .268 0l1.208-1.217a.214.214 0 0 0 .04-.06.182.182 0 0 0 .015-.073.191.191 0 0 0-.054-.133l-1.207-1.22a.187.187 0 0 0-.267-.004z" class="prefix__cls-73" data-name="Icon ionic-ios-arrow-round-forward" transform="translate(98.773 69.574)"/>
                    <g filter="url(#prefix__Rectangle_1255-3)" transform="translate(-131.16 -174.77)">
                        <rect id="prefix__Rectangle_1255-7" width="54" height="22" class="prefix__cls-2" data-name="Rectangle 1255" rx="3" transform="translate(251 242)"/>
                    </g>
                    <text id="prefix__Lead_Generation" class="prefix__cls-71" data-name="Lead Generation" transform="translate(142.844 74.234)">
                        <tspan x="-12.284" y="0">Lead Generation</tspan>
                    </text>
                    <text id="prefix__Create_Campaign-3" class="prefix__cls-72" data-name="Create Campaign" transform="translate(141.844 82.234)">
                        <tspan x="-13.153" y="0">Create Campaign</tspan>
                    </text>
                    <path id="prefix__Icon_ionic-ios-arrow-round-forward-3" d="M10.567 11.306a.192.192 0 0 0 0 .27l.892.893H8.064a.191.191 0 0 0 0 .381h3.392l-.892.893a.193.193 0 0 0 0 .27.19.19 0 0 0 .268 0l1.208-1.217a.214.214 0 0 0 .04-.06.182.182 0 0 0 .015-.073.191.191 0 0 0-.054-.133l-1.207-1.22a.187.187 0 0 0-.267-.004z" class="prefix__cls-73" data-name="Icon ionic-ios-arrow-round-forward" transform="translate(155.555 69.574)"/>
                    <g filter="url(#prefix__Rectangle_1255-4)" transform="translate(-131.16 -174.77)">
                        <rect id="prefix__Rectangle_1255-8" width="53" height="22" class="prefix__cls-2" data-name="Rectangle 1255" rx="3" transform="translate(308 242)"/>
                    </g>
                    <text id="prefix__Social_Sales" class="prefix__cls-71" data-name="Social Sales" transform="translate(200.844 74.234)">
                        <tspan x="-8.811" y="0">Social Sales</tspan>
                    </text>
                    <text id="prefix__Create_Campaign-4" class="prefix__cls-72" data-name="Create Campaign" transform="translate(197.844 82.234)">
                        <tspan x="-13.153" y="0">Create Campaign</tspan>
                    </text>
                    <path id="prefix__Icon_ionic-ios-arrow-round-forward-4" d="M10.567 11.306a.192.192 0 0 0 0 .27l.892.893H8.064a.191.191 0 0 0 0 .381h3.392l-.892.893a.193.193 0 0 0 0 .27.19.19 0 0 0 .268 0l1.208-1.217a.214.214 0 0 0 .04-.06.182.182 0 0 0 .015-.073.191.191 0 0 0-.054-.133l-1.207-1.22a.187.187 0 0 0-.267-.004z" class="prefix__cls-73" data-name="Icon ionic-ios-arrow-round-forward" transform="translate(212.337 69.574)"/>
                </g>
            </g>
        </g>
        <g filter="url(#prefix__Rectangle_1906)" transform="translate(834 378)">
            <rect id="prefix__Rectangle_1906-2" width="106" height="82" class="prefix__cls-2" data-name="Rectangle 1906" rx="6" transform="translate(309 221)"/>
        </g>
        <rect id="prefix__Rectangle_1907" width="98" height="74" fill="#da4836" data-name="Rectangle 1907" opacity="0.15" rx="4" transform="translate(1147 603)"/>
        <g id="prefix__Group_702" data-name="Group 702" transform="translate(-5.179 2)">
            <circle id="prefix__Ellipse_799" cx="19.814" cy="19.814" r="19.814" class="prefix__cls-75" data-name="Ellipse 799" transform="translate(1178.736 621.371)"/>
            <circle id="prefix__Ellipse_800" cx="14.41" cy="14.41" r="14.41" class="prefix__cls-29" data-name="Ellipse 800" transform="translate(1184.14 626.775)"/>
            <circle id="prefix__Ellipse_801" cx="9.007" cy="9.007" r="9.007" class="prefix__cls-75" data-name="Ellipse 801" transform="translate(1189.544 632.179)"/>
            <circle id="prefix__Ellipse_802" cx="3.603" cy="3.603" r="3.603" class="prefix__cls-29" data-name="Ellipse 802" transform="translate(1194.948 637.583)"/>
            <path id="prefix__Path_4429" fill="#29abe2" d="M348.69 13.51v-5.4L356.8 0v5.4h5.4l-8.106 8.106z" data-name="Path 4429" transform="translate(862.47 615.067)"/>
            <g id="prefix__Group_701" data-name="Group 701" transform="translate(1197.914 626.403)">
                <path id="prefix__Path_4430" fill="#754c24" d="M234.287 112.382l-14.146 14.146-1.274-1.274 14.146-14.146z" data-name="Path 4430" transform="translate(-218.867 -111.108)"/>
            </g>
            <path id="prefix__Path_4433" fill="#0071bc" d="M354.358 38.276l-1.165 1.165V35.31l-1.8 1.8v4.13l-2.7 2.7v1.274h1.273l5.668-5.668z" data-name="Path 4433" transform="translate(862.47 583.359)"/>
        </g>
    </g>
</svg>
