<svg xmlns="http://www.w3.org/2000/svg" xmlns:xlink="http://www.w3.org/1999/xlink" width="316.019" height="170.575" viewBox="0 0 316.019 170.575">
  <defs>
    <style>
      .cls-1 {
        fill: url(#linear-gradient);
      }

      .cls-2, .cls-3, .cls-4 {
        fill: #fff;
      }

      .cls-2 {
        opacity: 0.12;
      }

      .cls-4 {
        opacity: 0.77;
      }

      .cls-5 {
        fill: none;
        stroke: #364f6b;
        stroke-width: 0.1px;
      }

      .cls-6 {
        filter: url(#Path_5);
      }

      .cls-7 {
        filter: url(#Rectangle_4);
      }
    </style>
    <linearGradient id="linear-gradient" x1="0.027" y1="0.045" x2="1.021" y2="1" gradientUnits="objectBoundingBox">
      <stop offset="0" stop-color="#364f6b"/>
      <stop offset="1" stop-color="#1b2836"/>
    </linearGradient>
    <filter id="Rectangle_4" x="158.294" y="6.027" width="156.865" height="50.803" filterUnits="userSpaceOnUse">
      <feOffset dy="3" input="SourceAlpha"/>
      <feGaussianBlur stdDeviation="3" result="blur"/>
      <feFlood flood-opacity="0.161"/>
      <feComposite operator="in" in2="blur"/>
      <feComposite in="SourceGraphic"/>
    </filter>
    <filter id="Path_5" x="24.896" y="28.989" width="69.391" height="49.709" filterUnits="userSpaceOnUse">
      <feOffset dy="3" input="SourceAlpha"/>
      <feGaussianBlur stdDeviation="3" result="blur-2"/>
      <feFlood flood-opacity="0.161"/>
      <feComposite operator="in" in2="blur-2"/>
      <feComposite in="SourceGraphic"/>
    </filter>
  </defs>
  <g id="Group_265" data-name="Group 265" transform="translate(-548 -273)">
    <path id="Path_4" data-name="Path 4" class="cls-1" d="M24.055,0H291.945A24.055,24.055,0,0,1,316,24.055V146.519a24.055,24.055,0,0,1-24.055,24.055H24.055A24.055,24.055,0,0,1,0,146.519V24.055A24.055,24.055,0,0,1,24.055,0Z" transform="translate(548 273)"/>
    <path id="Subtraction_4" data-name="Subtraction 4" class="cls-2" d="M144.332,100.6H3.647A77.106,77.106,0,0,1,144.332,39.372V100.6Z" transform="translate(719.667 342.979)"/>
    <path id="Subtraction_2" data-name="Subtraction 2" class="cls-2" d="M77.087,125.743A77.025,77.025,0,0,1,0,48.657,76.76,76.76,0,0,1,17.293,0H55.549L55.54.007h.042c.048,0,.136,0,.258,0A20.043,20.043,0,0,1,61.4.9a24.5,24.5,0,0,1,9.334,5.273,23.108,23.108,0,0,1,4.37,5.292,26.458,26.458,0,0,1,2.408,5.209,24.378,24.378,0,0,1,1.234,5.552l-.01,103.5C78.17,125.737,77.615,125.743,77.087,125.743Z" transform="translate(785.274 273)"/>
    <g class="cls-7" transform="matrix(1, 0, 0, 1, 548, 273)">
      <rect id="Rectangle_4-2" data-name="Rectangle 4" class="cls-3" width="138.865" height="32.803" rx="16" transform="translate(167.29 12.03)"/>
    </g>
    <g class="cls-6" transform="matrix(1, 0, 0, 1, 548, 273)">
      <path id="Path_5-2" data-name="Path 5" class="cls-4" d="M5.467,0H45.924a5.467,5.467,0,0,1,5.467,5.467V26.242a5.467,5.467,0,0,1-5.467,5.467H5.467A5.467,5.467,0,0,1,0,26.242V5.467A5.467,5.467,0,0,1,5.467,0Z" transform="translate(33.9 34.99)"/>
    </g>
    <g id="Group_7" data-name="Group 7" transform="translate(581.896 308.536)">
      <g id="Group_3" data-name="Group 3" transform="translate(0 9.841)">
        <line id="Line_1" data-name="Line 1" class="cls-5" x2="16.401"/>
        <line id="Line_2" data-name="Line 2" class="cls-5" x2="16.401" transform="translate(0 10.934)"/>
        <line id="Line_3" data-name="Line 3" class="cls-5" y2="10.934" transform="translate(16.401)"/>
        <line id="Line_6" data-name="Line 6" class="cls-5" x1="18.588" transform="translate(16.401 5.467)"/>
      </g>
      <g id="Group_4" data-name="Group 4" transform="translate(34.99 9.841)">
        <line id="Line_1-2" data-name="Line 1" class="cls-5" x1="16.401" transform="translate(0)"/>
        <line id="Line_2-2" data-name="Line 2" class="cls-5" x1="16.401" transform="translate(0 10.934)"/>
        <line id="Line_3-2" data-name="Line 3" class="cls-5" y2="10.934" transform="translate(0)"/>
      </g>
      <g id="Group_5" data-name="Group 5" transform="translate(16.401)">
        <line id="Line_4" data-name="Line 4" class="cls-5" y1="9.841" x2="9.294"/>
        <line id="Line_5" data-name="Line 5" class="cls-5" x1="9.294" y1="9.841" transform="translate(9.294)"/>
      </g>
      <g id="Group_6" data-name="Group 6" transform="translate(16.401 20.775)">
        <line id="Line_4-2" data-name="Line 4" class="cls-5" x2="9.294" y2="9.841"/>
        <line id="Line_5-2" data-name="Line 5" class="cls-5" x1="9.294" y2="9.841" transform="translate(9.294)"/>
      </g>
    </g>
  </g>
</svg>
