<svg xmlns="http://www.w3.org/2000/svg" xmlns:xlink="http://www.w3.org/1999/xlink" width="78" height="78" viewBox="0 0 78 78">
  <defs>
    <filter id="Path_114" x="0" y="0" width="78" height="78" filterUnits="userSpaceOnUse">
      <feOffset dy="3" input="SourceAlpha"/>
      <feGaussianBlur stdDeviation="3" result="blur"/>
      <feFlood flood-opacity="0.161"/>
      <feComposite operator="in" in2="blur"/>
      <feComposite in="SourceGraphic"/>
    </filter>
  </defs>
  <g id="Group_269" data-name="Group 269" transform="translate(-658 -432)">
    <g transform="matrix(1, 0, 0, 1, 658, 432)" filter="url(#Path_114)">
      <path id="Path_114-2" data-name="Path 114" d="M30,0A30,30,0,1,1,0,30,30,30,0,0,1,30,0Z" transform="translate(9 6)" fill="#19158c"/>
    </g>
    <path id="Path_62" data-name="Path 62" d="M85.653,46.608c.084.928.136,1.87.136,2.822a30,30,0,0,1-30,30h-.047L43.25,66.938V31.28H69.88l7.659,7.66a.912.912,0,0,1,.712.267Z" transform="translate(641.211 418.57)" opacity="0.1"/>
    <path id="Path_63" data-name="Path 63" d="M43.249,31.283H69.881V66.938H43.249Z" transform="translate(641.211 418.568)" fill="#e6e7e8"/>
    <circle id="Ellipse_18" data-name="Ellipse 18" cx="5.364" cy="5.364" r="5.364" transform="translate(686.151 451.542)" fill="#dc594e"/>
    <path id="Path_64" data-name="Path 64" d="M55.324,49.7a1.412,1.412,0,0,0,2.789,0,.508.508,0,0,1-.237-.41V48.55H55.561l-.006.723A.508.508,0,0,1,55.324,49.7Z" transform="translate(634.797 409.395)" fill="#d6b24e"/>
    <path id="Path_65" data-name="Path 65" d="M57.642,40.329s0,.126,0,.126a1.827,1.827,0,1,0-3.646,0s0-.126,0-.126c-.2,0-.365.455-.365.861s.163.735.365.735v.026a3.082,3.082,0,0,0,.883,1.653,1.24,1.24,0,0,0,1.882,0,3.082,3.082,0,0,0,.883-1.653v-.026c.2,0,.365-.329.365-.735s-.163-.861-.365-.861Z" transform="translate(635.697 414.728)" fill="#ffd25a"/>
    <path id="Path_66" data-name="Path 66" d="M59.851,51.892l-.324.952,0,.008-.515,1.5c-.071.01-.143.015-.217.02a.062.062,0,0,1-.031,0,1.359,1.359,0,0,1-.176.01l-.071-.161L58.5,52.4l-.008-.617.242-.247v0l.125-.128.5.245h0l.224.11.168.084Z" transform="translate(633.115 407.879)" fill="#e6e7e8"/>
    <path id="Path_67" data-name="Path 67" d="M63.648,51.609a5.371,5.371,0,0,1-3.036,2.22,4.965,4.965,0,0,1-.676.14l.087-.293.27-1.189,0-.008.225-1,.061-.255.452-.505a11.751,11.751,0,0,1,2.615.89Z" transform="translate(632.346 408.243)" fill="#344e5c"/>
    <path id="Path_68" data-name="Path 68" d="M59.458,49.947l-1.162.605.906.566Z" transform="translate(633.218 408.653)" fill="#dad7dc"/>
    <path id="Path_69" data-name="Path 69" d="M56.558,51.782l-.008.615-.018,1.827-.071.161a1.358,1.358,0,0,1-.176-.01.043.043,0,0,1-.031,0,2.064,2.064,0,0,1-.219-.018l-.513-1.508,0-.008-.324-.946.1-.048.171-.084.222-.11h0l.5-.245.125.13Z" transform="translate(634.865 407.879)" fill="#e6e7e8"/>
    <path id="Path_70" data-name="Path 70" d="M52.45,53.969a4.885,4.885,0,0,1-.676-.14,5.361,5.361,0,0,1-3.033-2.217,11.524,11.524,0,0,1,2.612-.893l.452.505.061.255.225.995,0,.008.27,1.194Z" transform="translate(638.294 408.243)" fill="#344e5c"/>
    <path id="Path_71" data-name="Path 71" d="M55.817,49.947l1.162.605-.906.566Z" transform="translate(634.535 408.653)" fill="#dad7dc"/>
    <path id="Path_72" data-name="Path 72" d="M58.2,54.188l.008.1a.062.062,0,0,1-.031,0A1.359,1.359,0,0,1,58,54.3c-.061.005-.122.005-.186.005s-.128,0-.189-.005a1.359,1.359,0,0,1-.176-.01.043.043,0,0,1-.031,0l.008-.1.151-1.893.028-.372-.217-.418.092-.056.334-.207.332.2v0l.092.056-.217.418.031.372Z" transform="translate(633.699 407.965)" fill="#f37735"/>
    <path id="Path_73" data-name="Path 73" d="M55.531,53.6a.043.043,0,0,1-.031,0,2.065,2.065,0,0,1-.219-.018c-.054-.005-.1-.013-.156-.02a4.889,4.889,0,0,1-.676-.14l-.6-1.161.52-.306-.594-.327.253-1.316.7-.362h0v0l0,.01.2.916.054.24.046.219.472,2.166Z" transform="translate(635.619 408.654)" fill="#293b44"/>
    <path id="Path_74" data-name="Path 74" d="M60.232,51.951l.52.306-.6,1.161a4.968,4.968,0,0,1-.676.14c-.054.01-.1.015-.158.02-.071.01-.143.015-.217.02a.062.062,0,0,1-.031,0l.023-.1.469-2.163.048-.222.054-.24.2-.926v0h0l.7.362.253,1.316Z" transform="translate(632.806 408.654)" fill="#293b44"/>
    <path id="Path_75" data-name="Path 75" d="M53.609,40.136a3.074,3.074,0,0,1,.232.907h.117a3.8,3.8,0,0,1,.078-1.393s2.486.2,2.989-.986c0,0,.383-.044.427.618s.029.854.162.957l-.066.8h.083a2.4,2.4,0,0,1,.277-.863s.383-1.855-.427-2.209c0,0-.28-1.222-2.164-.766s-1.811,1.752-1.811,1.752a9.218,9.218,0,0,0,.1,1.178Z" transform="translate(635.763 415.476)" fill="#344e5c"/>
    <g id="Group_19" data-name="Group 19" transform="translate(686.521 455.084)">
      <path id="Path_76" data-name="Path 76" d="M73.754,42.446H84.835v.743H73.754Z" transform="translate(-61.515 -42.446)" fill="#dad7dc"/>
      <path id="Path_77" data-name="Path 77" d="M73.754,47.476H84.835v.743H73.754Z" transform="translate(-61.515 -45.118)" fill="#dad7dc"/>
      <path id="Path_78" data-name="Path 78" d="M73.754,52.507H84.835v.743H73.754Z" transform="translate(-61.515 -47.791)" fill="#dad7dc"/>
      <path id="Path_79" data-name="Path 79" d="M73.754,57.537H84.835v.743H73.754Z" transform="translate(-61.515 -50.463)" fill="#dad7dc"/>
      <path id="Path_80" data-name="Path 80" d="M47.645,62.567h23.32v.743H47.645Z" transform="translate(-47.645 -53.135)" fill="#dad7dc"/>
      <path id="Path_81" data-name="Path 81" d="M47.645,67.6h23.32v.743H47.645Z" transform="translate(-47.645 -55.808)" fill="#dad7dc"/>
      <path id="Path_82" data-name="Path 82" d="M47.645,72.628h23.32v.743H47.645Z" transform="translate(-47.645 -58.48)" fill="#dad7dc"/>
      <path id="Path_83" data-name="Path 83" d="M47.645,77.658h23.32V78.4H47.645Z" transform="translate(-47.645 -61.152)" fill="#dad7dc"/>
      <path id="Path_84" data-name="Path 84" d="M47.645,82.688h23.32v.743H47.645Z" transform="translate(-47.645 -63.825)" fill="#dad7dc"/>
      <path id="Path_85" data-name="Path 85" d="M47.645,87.718h23.32v.743H47.645Z" transform="translate(-47.645 -66.497)" fill="#dad7dc"/>
      <path id="Path_86" data-name="Path 86" d="M47.645,92.749h23.32v.743H47.645Z" transform="translate(-47.645 -69.169)" fill="#dad7dc"/>
    </g>
    <path id="Path_87" data-name="Path 87" d="M0,0H3.686V26.534H0Z" transform="translate(698.741 482.395) rotate(-135)" fill="#4388b9"/>
    <path id="Path_88" data-name="Path 88" d="M64.334,99.529l4.4-1.789-2.607-2.607Z" transform="translate(630.01 384.648)" fill="#d6b24e"/>
    <path id="Path_89" data-name="Path 89" d="M66.924,75.578,85.686,56.816l1,1L67.928,76.583l-3.6,2.59Z" transform="translate(630.01 405.004)" fill="#ececec" opacity="0.3"/>
    <path id="Path_90" data-name="Path 90" d="M65.184,100.055l-.85,2.088,2.088-.85Z" transform="translate(630.01 382.033)" fill="#293b44"/>
    <path id="Path_91" data-name="Path 91" d="M0,0H1.775V3.686H0Z" transform="translate(714.835 461.074) rotate(-45)" fill="#ececec"/>
    <path id="Path_92" data-name="Path 92" d="M112.724,47.877l-2.093,2.093,2.607,2.607,2.093-2.093a.935.935,0,0,0,0-1.323l-1.284-1.284A.935.935,0,0,0,112.724,47.877Z" transform="translate(605.415 409.899)" fill="#db584d"/>
  </g>
</svg>
