<svg xmlns="http://www.w3.org/2000/svg" xmlns:xlink="http://www.w3.org/1999/xlink" width="78" height="77.988" viewBox="0 0 78 77.988">
  <defs>
    <filter id="Ellipse_19" x="0" y="0" width="78" height="77.988" filterUnits="userSpaceOnUse">
      <feOffset dy="3" input="SourceAlpha"/>
      <feGaussianBlur stdDeviation="3" result="blur"/>
      <feFlood flood-opacity="0.161"/>
      <feComposite operator="in" in2="blur"/>
      <feComposite in="SourceGraphic"/>
    </filter>
  </defs>
  <g id="Group_270" data-name="Group 270" transform="translate(-835 -432)">
    <g transform="matrix(1, 0, 0, 1, 835, 432)" filter="url(#Ellipse_19)">
      <ellipse id="Ellipse_19-2" data-name="Ellipse 19" cx="30" cy="29.994" rx="30" ry="29.994" transform="translate(9 6)" fill="#90dfaa"/>
    </g>
    <path id="Path_99" data-name="Path 99" d="M213.287,267.927a15.764,15.764,0,0,1,.867,2.518c.285,1.01.582,2.019.867,3.029.487,1.722.974,3.6.3,5.25a7.1,7.1,0,0,1-1.877,2.411,26.789,26.789,0,0,1-2.638,2.126,9.192,9.192,0,0,1-2.614,1.378,10.5,10.5,0,0,1-3.172.273,4.65,4.65,0,0,1-2.02-.345,3.315,3.315,0,0,1-1.236-1.164c-1.176-1.758-1.212-4.015-1.212-6.129q.018-4.864.024-9.741a6.911,6.911,0,0,1,.154-1.782c.475-1.77,2.293-2.875,4.1-3.2a5.58,5.58,0,0,1,2.174-.012,6.556,6.556,0,0,1,1.877.808A11.041,11.041,0,0,1,213.287,267.927Z" transform="translate(667.272 206.731)" fill="#e6e9ee"/>
    <path id="Path_100" data-name="Path 100" d="M219.417,177.9c-2.471,0-4.467,4.835-4.467,7.971a6.281,6.281,0,0,0,1.758,4.5c.131-.012.333-.036.38-.036a2.155,2.155,0,0,1,.618.083,3.35,3.35,0,0,1,.57.226c.036.024.154.1.238.154a1.1,1.1,0,0,1,.119.059,2.179,2.179,0,0,1,.356.214c.1.071.178.131.273.19a1.736,1.736,0,0,1,.154.107h.012a3.345,3.345,0,0,1,.428-.285,1.655,1.655,0,0,1,.25-.131c.119-.048.19-.1.25-.119.048-.1.582-.273.618-.285a1.978,1.978,0,0,1,.951-.036.044.044,0,0,1,.036.012,6.184,6.184,0,0,0,1.949-4.668C223.885,182.747,221.889,177.9,219.417,177.9Z" transform="translate(654.583 281.232)" fill="#f9b54c"/>
    <path id="Path_101" data-name="Path 101" d="M92.739,320.06c.059.345.1.7.131,1.093a29.565,29.565,0,0,1-6.82-4.514c1.141-13.221,3.422-16.939,3.422-16.939l.012.024,4.479,7.246-1.818,11.142v.012A6.113,6.113,0,0,1,92.739,320.06Z" transform="translate(768.168 173.901)" fill="#324a5e"/>
    <path id="Path_102" data-name="Path 102" d="M132.475,300.095c-.392.012-.784.024-1.176.024s-.784-.012-1.176-.024a29.642,29.642,0,0,1-11.644-2.851c-.083-.428-.178-.808-.273-1.152-.3-1.129-.558-1.853-.594-1.948v-.012a44.1,44.1,0,0,0-2.65-18.388.041.041,0,0,0-.012-.024c.939-1.093,5.335-2.162,8.127-2.756,1.378-.285,2.376-.463,2.376-.463l-.071,1.521.048.249.939,5.963s2.364,5.631,4.182,10.311a.041.041,0,0,0,.012.024c.261.7.523,1.378.76,2.019.024.059.036.119.059.178.083.249.178.5.261.737.024.071.048.131.071.2.048.143.107.285.143.428h0a11.4,11.4,0,0,1,.463,2.423c.071.641.107,1.366.143,2.126C132.463,299.144,132.475,299.607,132.475,300.095Z" transform="translate(742.701 197.87)" fill="#2b3b4e"/>
    <path id="Path_103" data-name="Path 103" d="M177.372,251.6s3.137,20.206,5.406,24.126c0,0-6.57-3.825-9.149-16.2l1.937-.665-2.816-2.34A12.089,12.089,0,0,1,177.372,251.6Z" transform="translate(691.769 216.287)" fill="#324a5e"/>
    <path id="Path_104" data-name="Path 104" d="M215.841,243.891s-3.232-2.209-4.7,1.924c0,0-.725-7.02.321-8.315A14.555,14.555,0,0,0,215.841,243.891Z" transform="translate(658.159 228.712)" fill="#fff"/>
    <path id="Path_105" data-name="Path 105" d="M354.368,318.024h0L352.55,306.87l4.479-7.246a.042.042,0,0,1,.012-.024s2.281,3.718,3.422,16.939a30.351,30.351,0,0,1-6.82,4.514c.036-.38.071-.748.131-1.093A5.726,5.726,0,0,1,354.368,318.024Z" transform="translate(533.331 173.989)" fill="#2b3b4e"/>
    <path id="Path_106" data-name="Path 106" d="M260.263,276.019a44.1,44.1,0,0,0-2.649,18.388v.012a17.631,17.631,0,0,0-.594,1.948c-.083.345-.178.736-.273,1.152a29.847,29.847,0,0,1-11.643,2.851c-.392.012-.784.024-1.176.024s-.784-.012-1.176-.024a21.756,21.756,0,0,1,.63-5.951h0c.036-.119.083-.238.131-.356a2.318,2.318,0,0,1,.1-.261c.083-.238.166-.475.261-.737l.071-.178c.238-.641.5-1.33.76-2.031v-.012c1.806-4.692,4.182-10.311,4.182-10.311l.772-4.87.214-1.342-.071-1.52s1,.178,2.388.463c2.8.594,7.176,1.663,8.127,2.756C260.275,276,260.275,276.007,260.263,276.019Z" transform="translate(630.086 197.605)" fill="#324a5e"/>
    <path id="Path_107" data-name="Path 107" d="M253.356,251.6s-3.137,20.206-5.406,24.126c0,0,6.57-3.825,9.149-16.2l-1.937-.665,2.816-2.34A12.089,12.089,0,0,0,253.356,251.6Z" transform="translate(625.503 216.287)" fill="#2b3b4e"/>
    <path id="Path_108" data-name="Path 108" d="M252.55,243.891s3.232-2.209,4.7,1.924c0,0,.725-7.02-.321-8.315A14.555,14.555,0,0,1,252.55,243.891Z" transform="translate(621.45 228.712)" fill="#fff"/>
    <ellipse id="Ellipse_20" data-name="Ellipse 20" cx="1.164" cy="1.164" rx="1.164" ry="1.164" transform="translate(874.38 494.306)" fill="#2b3b4e"/>
    <g id="Group_20" data-name="Group 20" transform="translate(864.875 454.758)">
      <path id="Path_109" data-name="Path 109" d="M299.132,143.764c-.606,1.5-2.091,3.077-3.018,2.8s-.939-2.281-.321-3.777,1.616-1.9,2.531-1.639S299.75,142.267,299.132,143.764Z" transform="translate(-281.156 -141.077)" fill="#f9b54c"/>
      <path id="Path_110" data-name="Path 110" d="M176.024,143.764c.606,1.5,2.091,3.077,3.018,2.8s.939-2.281.321-3.777-1.616-1.9-2.531-1.639S175.406,142.267,176.024,143.764Z" transform="translate(-175.751 -141.077)" fill="#f9b54c"/>
    </g>
    <g id="Group_21" data-name="Group 21" transform="translate(866.574 446.955)">
      <ellipse id="Ellipse_21" data-name="Ellipse 21" cx="6.942" cy="9.325" rx="6.942" ry="9.325" transform="translate(0.768 1.237)" fill="#ffd05b"/>
      <path id="Path_111" data-name="Path 111" d="M273.39,83.109,272.05,77.5s1.764-2.186,2.245-2.114,3.15,3.017,3.15,3.017v5.9l-.733,1.532-2.887-1.307Z" transform="translate(-262.106 -75.386)" fill="#ffd05b"/>
      <path id="Path_112" data-name="Path 112" d="M191.322,92.055l-4.353-.855L185.5,92.709l-.252,3.314.836,3.647,5.579-1.568Z" transform="translate(-185.25 -89.321)" fill="#ffd05b"/>
    </g>
    <path id="Path_113" data-name="Path 113" d="M179.723,35.527s2.3-3.849,6.618,0a5.48,5.48,0,0,0-1.758,0s7.188.487,5.323,8.755a6.786,6.786,0,0,1-1.865,4.4s2.234-9.491-3.636-7.187c0,0-3.814,2.15-6.547-.1,0,0-5.251-1.52-4.1,7.151,0,0-6.107-10.976.642-12.366,0,0,1.758-3.813,8.2-2.815A3.064,3.064,0,0,0,179.723,35.527Z" transform="translate(693.112 408.745)" fill="#324a5e"/>
  </g>
</svg>
