<svg xmlns="http://www.w3.org/2000/svg" id="prefix__darts" width="31.455" height="31.455" viewBox="0 0 31.455 31.455">
    <defs>
        <style>
            .prefix__cls-1{fill:#444584}
        </style>
    </defs>
    <g id="prefix__Group_607" data-name="Group 607" transform="translate(0 5.242)">
        <path id="prefix__Path_3354" d="M13.106 30.212a13.106 13.106 0 1 1 13.106-13.106 13.145 13.145 0 0 1-13.106 13.106zm0-24.9a11.8 11.8 0 1 0 11.8 11.8 11.746 11.746 0 0 0-11.8-11.801z" class="prefix__cls-1" data-name="Path 3354" transform="translate(0 -4)"/>
    </g>
    <g id="prefix__Group_608" data-name="Group 608" transform="translate(4.587 9.83)">
        <path id="prefix__Path_3355" d="M12.019 24.538a8.519 8.519 0 1 1 8.519-8.519 8.5 8.5 0 0 1-8.519 8.519zm0-15.727a7.208 7.208 0 1 0 0 14.417 7.208 7.208 0 0 0 0-14.417z" class="prefix__cls-1" data-name="Path 3355" transform="translate(-3.5 -7.5)"/>
    </g>
    <g id="prefix__Group_609" data-name="Group 609" transform="translate(9.174 14.417)">
        <path id="prefix__Path_3356" d="M10.932 18.864a3.932 3.932 0 1 1 0-7.864 3.932 3.932 0 1 1 0 7.864zm0-6.553a2.621 2.621 0 1 0 2.621 2.621 2.629 2.629 0 0 0-2.621-2.621z" class="prefix__cls-1" data-name="Path 3356" transform="translate(-7 -11)"/>
    </g>
    <g id="prefix__Group_610" data-name="Group 610" transform="translate(12.385 7.929)">
        <path id="prefix__Path_3357" d="M10.171 17.125a.788.788 0 0 1-.524-.131.633.633 0 0 1 0-.917l9.83-9.83a.649.649 0 0 1 .917.917l-9.83 9.83c0 .131-.262.131-.393.131z" class="prefix__cls-1" data-name="Path 3357" transform="translate(-9.45 -6.05)"/>
    </g>
    <g id="prefix__Group_611" data-name="Group 611" transform="translate(22.28)">
        <path id="prefix__Path_3358" d="M20.932 9.174h-3.277A.619.619 0 0 1 17 8.519V5.242c0-.131.131-.393.131-.524L21.718.131A1.662 1.662 0 0 1 22.5 0a.721.721 0 0 1 .4.655v2.622h2.621a.721.721 0 0 1 .655.393 1.662 1.662 0 0 1-.131.786l-4.589 4.587c-.131 0-.393.131-.524.131zm-2.621-1.31h2.359l3.277-3.277h-1.7a.619.619 0 0 1-.655-.655v-1.7L18.311 5.5z" class="prefix__cls-1" data-name="Path 3358" transform="translate(-17)"/>
    </g>
</svg>
