<svg xmlns="http://www.w3.org/2000/svg" id="prefix__portfolio" width="29.855" height="26.212" viewBox="0 0 29.855 26.212">
    <g id="prefix__Group_606" data-name="Group 606">
        <path id="prefix__Path_3353" fill="#444584" d="M29.853 49.473V32.908a2.694 2.694 0 0 0-2.618-2.768h-6.119v-1.127a2.8 2.8 0 0 0-2.729-2.875h-6.846a2.8 2.8 0 0 0-2.8 2.8v1.203H2.8A2.694 2.694 0 0 0 0 32.723v16.75a2.8 2.8 0 0 0 2.73 2.875h24.32a2.8 2.8 0 0 0 2.8-2.8c.004-.026.004-.048.003-.075zM11.467 27.6h6.846a1.347 1.347 0 0 1 1.349 1.345v1.204h-9.468v-1.136a1.347 1.347 0 0 1 1.273-1.413zm15.658 23.3H2.8a1.347 1.347 0 0 1-1.349-1.345V44.7a2.258 2.258 0 0 0 1.347.364h7.39v2.116a.947.947 0 0 0 .874.8h7.718a.947.947 0 0 0 .874-.8v-2.112h7.39A2.257 2.257 0 0 0 28.4 44.7v4.769a1.347 1.347 0 0 1-1.275 1.422zm-15.474-4.376v-3.64H18.2v3.641zm15.474-2.914H19.66v-1.564c0-.4-.473-.619-.874-.619h-7.718c-.4 0-.874.218-.874.619v1.565H2.8a1.347 1.347 0 0 1-1.349-1.345V32.908A1.238 1.238 0 0 1 2.8 31.6h24.25a1.238 1.238 0 0 1 1.35 1.308v9.283a1.347 1.347 0 0 1-1.275 1.419z" data-name="Path 3353" transform="translate(0 -26.137)"/>
    </g>
</svg>
