<svg xmlns="http://www.w3.org/2000/svg" width="69.324" height="105.061" viewBox="0 0 69.324 105.061">
    <defs>
        <style>
            .prefix__cls-3{fill:#444584}.prefix__cls-4{fill:#2f2e41}.prefix__cls-5{fill:#ffb8b8}
        </style>
    </defs>
    <g id="prefix__Group_393" data-name="Group 393">
        <path id="prefix__Path_2725" d="M507.225 405.392a.521.521 0 0 0-.215.706l26.112 48.775a.524.524 0 0 0 .708.215l36.912-19.654a.521.521 0 0 0 .215-.706l-26.112-48.776a.524.524 0 0 0-.708-.214z" data-name="Path 2725" transform="translate(-505.113 -354.189)" style="fill:#3f3d56"/>
        <path id="prefix__Path_2726" d="M515.506 418.606l25.222 47.241 34.578-18.461-25.222-47.241zm-2.191 1.17h-.005z" data-name="Path 2726" transform="translate(-513.314 -367.091)" style="fill:#fff"/>
        <path id="prefix__Path_2727" d="M552.321 450.866a1.369 1.369 0 0 0-.255 1.866c.4.742 1.156 1.113 1.693.826l25.325-13.521a1.369 1.369 0 0 0 .255-1.866c-.4-.742-1.156-1.113-1.693-.826z" class="prefix__cls-3" data-name="Path 2727" transform="translate(-541.411 -394.158)"/>
        <path id="prefix__Path_2728" d="M563.855 472.47a1.369 1.369 0 0 0-.255 1.866c.4.742 1.156 1.113 1.692.826l25.325-13.521a1.369 1.369 0 0 0 .255-1.866c-.4-.742-1.155-1.113-1.692-.826z" class="prefix__cls-3" data-name="Path 2728" transform="translate(-549.825 -409.918)"/>
        <path id="prefix__Path_2729" d="M575.39 494.075a1.369 1.369 0 0 0-.255 1.866c.4.742 1.155 1.113 1.693.826l25.325-13.521a1.369 1.369 0 0 0 .255-1.866c-.4-.742-1.155-1.113-1.693-.826z" class="prefix__cls-3" data-name="Path 2729" transform="translate(-558.239 -425.679)"/>
        <path id="prefix__Path_2730" d="M586.924 515.679a1.369 1.369 0 0 0-.256 1.866c.4.742 1.156 1.113 1.693.826l25.325-13.521a1.37 1.37 0 0 0 .255-1.866c-.4-.742-1.156-1.113-1.693-.826z" class="prefix__cls-3" data-name="Path 2730" transform="translate(-566.653 -441.439)"/>
        <path id="prefix__Path_2731" d="M598.459 537.284a1.369 1.369 0 0 0-.255 1.866c.4.742 1.155 1.113 1.693.826l25.325-13.521a1.369 1.369 0 0 0 .255-1.866c-.4-.742-1.156-1.113-1.692-.826z" class="prefix__cls-3" data-name="Path 2731" transform="translate(-575.068 -457.199)"/>
        <path id="prefix__Path_2732" d="M397.312 212.821l22.948 1.4 6.427-19.165-20.128-4.256z" class="prefix__cls-4" data-name="Path 2732" transform="translate(-369.003 -185.118)"/>
        <circle id="prefix__Ellipse_562" cx="9.178" cy="9.178" r="9.178" class="prefix__cls-5" data-name="Ellipse 562" transform="translate(35.681 4.501)"/>
        <path id="prefix__Path_2733" d="M462.914 250.567L448.035 253l-3.922-15.554 10.415-.947z" class="prefix__cls-5" data-name="Path 2733" transform="translate(-403.144 -218.453)"/>
        <path id="prefix__Path_2734" d="M653.318 554.251l.059.714a73.783 73.783 0 0 1-35.97 3.046l-.078 1.269a4.342 4.342 0 0 1-5.894 3.771l2.565-5.684 3.243-7.193 2.126-4.715-.765-16.312-.081-1.688-.1-2.153 1.385-.008 9.847-.06 9.384-.059 1.431-.008c8.972 11.037 16.375 20.007 12.848 29.08z" class="prefix__cls-4" data-name="Path 2734" transform="translate(-584.892 -458.297)"/>
        <path id="prefix__Path_2735" d="M653.807 410.835L631.9 413.27l-.811-15.149c-2.572-6.558-.874-12.412 4.463-17.665l1.085-4.295a6.358 6.358 0 0 1 4.7-4.629 22.637 22.637 0 0 1 12.208-2.9 9.11 9.11 0 0 1 5.768 9.194 168.754 168.754 0 0 1-5.506 33.009z" class="prefix__cls-3" data-name="Path 2735" transform="translate(-598.366 -344.096)"/>
        <path id="prefix__Path_2736" d="M626.642 429.942l-.176 1.328-2.8 21.124-1.483 3.179-.484 1.039-11.288 24.188-.473 7.547-.078 1.269a4.336 4.336 0 1 1-8.313-1.969l.451-1.063 2.462-5.784 6.674-21.316.549-1.758.655-2.091 1.861-5.943 2.965-18.276.281-1.742z" class="prefix__cls-5" data-name="Path 2736" transform="translate(-577.422 -388.631)"/>
        <path id="prefix__Path_2737" d="M668.438 393.89c-4.251-1.528-8.33-1.69-12.173 0l1.254-10.873a5.186 5.186 0 0 1 4.911-5.355 5.187 5.187 0 0 1 5.452 4.924z" class="prefix__cls-3" data-name="Path 2737" transform="translate(-617.595 -350.686)"/>
        <path id="prefix__Path_2738" d="M627.527 280.792s-4.746 1.732-4.867 8.028a11.38 11.38 0 0 0 .42 3.135c.308 1.157.555 3.668-1.515 7.015a64.86 64.86 0 0 0-3.661 6.739l5.343.516.884-8.858a43.974 43.974 0 0 1 3.141-12.489l.035-.083s2.452 4.261 7.11 4.129l-1.711-1.617a58.778 58.778 0 0 0 9.009 2.639 2.01 2.01 0 0 1 1.21 3.342l-.057.061c-1.941 2.053-5.8 6.824-3.37 10.42s.464 4.65.464 4.65l3.6-2.1 1.636-1.045.038 1.331 8.625-1.242s2.32-.4-2.831-5.915c0 0-1.38-2.16-.857-4.071a9.564 9.564 0 0 0 .237-4.48c-1.29-6.208-6.027-18.488-22.883-10.105z" class="prefix__cls-4" data-name="Path 2738" transform="translate(-589.612 -277.957)"/>
    </g>
</svg>
