<svg xmlns="http://www.w3.org/2000/svg" id="prefix__award" width="25.061" height="31.84" viewBox="0 0 25.061 31.84">
    <defs>
        <style>
            .prefix__cls-1{fill:#f6c358}
        </style>
    </defs>
    <g id="prefix__Group_16" data-name="Group 16" transform="translate(0 3.018)">
        <path id="prefix__Path_36" d="M263.874 123.807l-.839-.787 5.651-6.02a.669.669 0 0 0-.488-1.128h-4.743v-1.15h4.745a1.819 1.819 0 0 1 1.327 3.064z" class="prefix__cls-1" data-name="Path 36" transform="translate(-244.96 -114.719)"/>
        <path id="prefix__Path_37" d="M123.852 123.807l-5.651-6.024a1.82 1.82 0 0 1 1.327-3.065h4.743v1.15h-4.743a.67.67 0 0 0-.488 1.132l5.651 6.023z" class="prefix__cls-1" data-name="Path 37" transform="translate(-117.705 -114.719)"/>
    </g>
    <path id="prefix__Path_38" d="M160.186 286.2h-19.421l1.8-8.558h15.819z" data-name="Path 38" transform="translate(-137.897 -254.363)" style="fill:#64798a"/>
    <path id="prefix__Path_39" d="M158.422 296.966l1.051-4.994H172.4l1.051 4.994z" data-name="Path 39" transform="translate(-153.358 -266.908)" style="fill:#3a556a"/>
    <path id="prefix__Path_40" d="M176.3 101.232V90.453h-14.081v10.779a7.038 7.038 0 0 0 4.6 6.6v2.35c-2.414.566-4.12 1.943-4.12 3.555h13.126c0-1.612-1.706-2.989-4.12-3.555v-2.35a7.038 7.038 0 0 0 4.595-6.6z" data-name="Path 40" transform="translate(-156.683 -90.453)" style="fill:#fcd462"/>
    <path id="prefix__Rectangle_6" d="M0 0H14.086V1.629H0z" data-name="Rectangle 6" transform="translate(5.539)" style="fill:#dc8744"/>
    <path id="prefix__Path_41" d="M189.054 119.633l1 3.074h3.232l-2.615 1.9 1 3.074-2.615-1.9-2.615 1.9 1-3.074-2.615-1.9h3.232z" data-name="Path 41" transform="translate(-176.475 -116.004)" style="fill:#e56353"/>
</svg>
