<svg xmlns="http://www.w3.org/2000/svg" id="prefix__job" width="32.647" height="31.84" viewBox="0 0 32.647 31.84">
    <defs>
        <style>
            .prefix__cls-1{fill:#e6e7e8}.prefix__cls-3{fill:#d6b24e}.prefix__cls-5{fill:#344e5c}.prefix__cls-6{fill:#dad7dc}.prefix__cls-8{fill:#293b44}
        </style>
    </defs>
    <path id="prefix__Path_63" d="M43.249 31.283h23.783v31.84H43.249z" class="prefix__cls-1" data-name="Path 63" transform="translate(-43.249 -31.283)"/>
    <circle id="prefix__Ellipse_18" cx="4.79" cy="4.79" r="4.79" data-name="Ellipse 18" transform="translate(1.509 1.509)" style="fill:#dc594e"/>
    <path id="prefix__Path_64" d="M55.324 49.573a1.261 1.261 0 0 0 2.491 0 .453.453 0 0 1-.212-.366v-.657h-2.068l-.005.646a.454.454 0 0 1-.206.377z" class="prefix__cls-3" data-name="Path 64" transform="translate(-50.269 -41.322)"/>
    <path id="prefix__Path_65" d="M57.212 40.135v.113a1.631 1.631 0 1 0-3.256 0v-.113c-.18 0-.326.406-.326.769s.146.656.326.656v.023a2.752 2.752 0 0 0 .789 1.476 1.107 1.107 0 0 0 1.681 0 2.752 2.752 0 0 0 .789-1.476v-.023c.18 0 .326-.294.326-.656s-.146-.769-.326-.769z" data-name="Path 65" transform="translate(-49.284 -35.486)" style="fill:#ffd25a"/>
    <path id="prefix__Path_66" d="M59.705 51.84l-.289.85v.007l-.46 1.342c-.064.009-.128.014-.194.018a.055.055 0 0 1-.027 0 1.212 1.212 0 0 1-.157.009l-.064-.144-.014-1.629-.007-.551.216-.221.112-.114.447.219.2.1.15.075z" class="prefix__cls-1" data-name="Path 66" transform="translate(-52.109 -42.982)"/>
    <path id="prefix__Path_67" d="M63.251 51.514A4.8 4.8 0 0 1 60.54 53.5a4.434 4.434 0 0 1-.6.125l.077-.262.241-1.062v-.007l.2-.893.055-.228.4-.451a10.5 10.5 0 0 1 2.338.792z" class="prefix__cls-5" data-name="Path 67" transform="translate(-52.951 -42.583)"/>
    <path id="prefix__Path_68" d="M59.333 49.947l-1.038.54.809.506z" class="prefix__cls-6" data-name="Path 68" transform="translate(-51.997 -42.134)"/>
    <path id="prefix__Path_69" d="M56.412 51.742l-.007.549-.016 1.631-.064.144a1.211 1.211 0 0 1-.157-.009.038.038 0 0 1-.027 0 1.847 1.847 0 0 1-.2-.016l-.458-1.346v-.007l-.283-.848.089-.043.153-.075.2-.1.447-.219.112.116z" class="prefix__cls-1" data-name="Path 69" transform="translate(-50.195 -42.982)"/>
    <path id="prefix__Path_70" d="M52.054 53.621a4.363 4.363 0 0 1-.6-.125 4.788 4.788 0 0 1-2.709-1.98 10.291 10.291 0 0 1 2.333-.8l.4.451.055.228.2.888v.007l.241 1.066z" class="prefix__cls-5" data-name="Path 70" transform="translate(-46.442 -42.583)"/>
    <path id="prefix__Path_71" d="M55.817 49.947l1.038.54-.809.506z" class="prefix__cls-6" data-name="Path 71" transform="translate(-50.556 -42.134)"/>
    <path id="prefix__Path_72" d="M58.114 53.873l.007.089a.055.055 0 0 1-.027 0 1.212 1.212 0 0 1-.157.009h-.335a1.212 1.212 0 0 1-.157-.009.038.038 0 0 1-.027 0l.007-.087.134-1.69.025-.333-.194-.374.082-.05.3-.185.3.182.082.05-.194.374.027.333z" data-name="Path 72" transform="translate(-51.47 -42.887)" style="fill:#f37735"/>
    <path id="prefix__Path_73" d="M55.343 53.209a.038.038 0 0 1-.027 0 1.845 1.845 0 0 1-.2-.016c-.048 0-.093-.011-.139-.018a4.369 4.369 0 0 1-.6-.125l-.535-1.037.465-.273-.531-.292L54 50.27l.629-.324v.009l.178.818.048.214.041.2.421 1.934z" class="prefix__cls-8" data-name="Path 73" transform="translate(-49.369 -42.134)"/>
    <path id="prefix__Path_74" d="M60.107 51.737l.465.273-.535 1.037a4.436 4.436 0 0 1-.6.125c-.048.009-.093.014-.141.018-.064.009-.128.014-.194.018a.056.056 0 0 1-.027 0l.021-.089.419-1.932.043-.2.048-.214.18-.827.629.323.226 1.176z" class="prefix__cls-8" data-name="Path 74" transform="translate(-52.448 -42.134)"/>
    <path id="prefix__Path_75" d="M53.6 39.812a2.745 2.745 0 0 1 .207.81h.1a3.4 3.4 0 0 1 .07-1.244s2.22.18 2.669-.881c0 0 .342-.039.381.552s.026.763.145.855l-.059.718h.074a2.143 2.143 0 0 1 .247-.771s.342-1.657-.381-1.972c0 0-.25-1.091-1.933-.684s-1.617 1.565-1.617 1.565a8.236 8.236 0 0 0 .097 1.052z" class="prefix__cls-5" data-name="Path 75" transform="translate(-49.212 -34.668)"/>
    <g id="prefix__Group_19" data-name="Group 19" transform="translate(1.84 4.673)">
        <path id="prefix__Path_76" d="M73.754 42.446h9.9v.663h-9.9z" class="prefix__cls-6" data-name="Path 76" transform="translate(-62.825 -42.446)"/>
        <path id="prefix__Path_77" d="M73.754 47.476h9.9v.663h-9.9z" class="prefix__cls-6" data-name="Path 77" transform="translate(-62.825 -45.371)"/>
        <path id="prefix__Path_78" d="M73.754 52.507h9.9v.663h-9.9z" class="prefix__cls-6" data-name="Path 78" transform="translate(-62.825 -48.295)"/>
        <path id="prefix__Path_79" d="M73.754 57.537h9.9v.663h-9.9z" class="prefix__cls-6" data-name="Path 79" transform="translate(-62.825 -51.22)"/>
        <path id="prefix__Path_80" d="M47.645 62.567H68.47v.663H47.645z" class="prefix__cls-6" data-name="Path 80" transform="translate(-47.645 -54.144)"/>
        <path id="prefix__Path_81" d="M47.645 67.6H68.47v.663H47.645z" class="prefix__cls-6" data-name="Path 81" transform="translate(-47.645 -57.069)"/>
        <path id="prefix__Path_82" d="M47.645 72.628H68.47v.663H47.645z" class="prefix__cls-6" data-name="Path 82" transform="translate(-47.645 -59.994)"/>
        <path id="prefix__Path_83" d="M47.645 77.658H68.47v.663H47.645z" class="prefix__cls-6" data-name="Path 83" transform="translate(-47.645 -62.918)"/>
        <path id="prefix__Path_84" d="M47.645 82.688H68.47v.663H47.645z" class="prefix__cls-6" data-name="Path 84" transform="translate(-47.645 -65.843)"/>
        <path id="prefix__Path_85" d="M47.645 87.718H68.47v.663H47.645z" class="prefix__cls-6" data-name="Path 85" transform="translate(-47.645 -68.767)"/>
        <path id="prefix__Path_86" d="M47.645 92.749H68.47v.663H47.645z" class="prefix__cls-6" data-name="Path 86" transform="translate(-47.645 -71.692)"/>
    </g>
    <path id="prefix__Path_87" d="M0 0h3.292v23.7H0z" data-name="Path 87" transform="rotate(-135 12.395 11.89)" style="fill:#4388b9"/>
    <path id="prefix__Path_88" d="M64.334 99.058l3.925-1.6-2.328-2.328z" class="prefix__cls-3" data-name="Path 88" transform="translate(-55.508 -68.406)"/>
    <path id="prefix__Path_89" d="M66.646 73.571L83.4 56.816l.9.9-16.756 16.752-3.21 2.313z" data-name="Path 89" transform="translate(-55.507 -46.128)" style="opacity:.3;fill:#ececec"/>
    <path id="prefix__Path_90" d="M65.093 100.055l-.759 1.865 1.865-.759z" class="prefix__cls-8" data-name="Path 90" transform="translate(-55.508 -71.267)"/>
    <path id="prefix__Path_91" d="M0 0h1.585v3.292H0z" data-name="Path 91" transform="rotate(-45 25.66 -27.73)" style="fill:#ececec"/>
    <path id="prefix__Path_92" d="M112.5 47.847l-1.869 1.869 2.328 2.328 1.869-1.869a.835.835 0 0 0 0-1.181l-1.146-1.146a.835.835 0 0 0-1.182-.001z" data-name="Path 92" transform="translate(-82.425 -40.771)" style="fill:#db584d"/>
</svg>
