<svg xmlns="http://www.w3.org/2000/svg" width="115.917" height="105.061" viewBox="0 0 115.917 105.061">
    <defs>
        <style>
            .prefix__cls-1{fill:#2f2e41}.prefix__cls-2{fill:#fbbebe}.prefix__cls-3{fill:#49ab9f}
        </style>
    </defs>
    <g id="prefix__Group_392" data-name="Group 392" transform="translate(.1)">
        <path id="prefix__Path_2711" d="M647.15 120.2s-5.193-1.855-8.532 5.564a146.261 146.261 0 0 1-8.532 15.58l2.968.742s.742-5.193 2.6-5.935l-.742 6.677s22.257 7.79 32.272-.742l-.371-2.6s1.484.371 1.484 2.6l1.113-1.113a19.937 19.937 0 0 0-4.451-5.193c-2.191-1.948-2.944-5.653-3.2-7.97a9.644 9.644 0 0 0-2.221-5.252c-2.225-2.575-6.267-5.308-12.388-2.358z" class="prefix__cls-1" data-name="Path 2711" transform="translate(-574.259 -118.919)"/>
        <path id="prefix__Path_2712" d="M865.362 391.56s9.772 8.335 11.21 13.222-5.461 5.461-5.461 5.461l-14.946 1.437s-.288 6.9-2.875 7.76-.525-11.407-.525-11.407l14.609-4.114-6.611-6.9z" class="prefix__cls-2" data-name="Path 2712" transform="translate(-760.952 -348.302)"/>
        <path id="prefix__Path_2713" d="M593.611 445.907l-1.15 15.234-6.323 25.869s-5.749 11.785-.862 12.072 4.6-11.21 4.6-11.21l9.2-24.432.862-16.671z" class="prefix__cls-2" data-name="Path 2713" transform="translate(-534.902 -394.026)"/>
        <circle id="prefix__Ellipse_561" cx="9.485" cy="9.485" r="9.485" class="prefix__cls-2" data-name="Ellipse 561" transform="translate(65.32 6.18)"/>
        <path id="prefix__Path_2714" d="M706.735 246.635s3.449 12.359-2.012 15.521 13.8 5.461 18.97-4.024c0 0-9.2-3.162-6.611-11.5z" class="prefix__cls-2" data-name="Path 2714" transform="translate(-636.242 -226.371)"/>
        <path id="prefix__Path_2715" d="M650.375 350.469l-1.725-.575s-3.449 1.437-3.449 4.024-.575 12.934-.575 12.934l7.761.862z" class="prefix__cls-3" data-name="Path 2715" transform="translate(-586.493 -313.247)"/>
        <path id="prefix__Path_2716" d="M670.435 573.808c-10.611 1.572-26.076 2.841-42.114.636v-.464q0-1.345.1-2.66c.822-10.794 6.382-19.793 8.534-22.912.109-.158.209-.3.3-.428.347-.487.549-.745.549-.745s16.671-.272 25.294 3.177a3.714 3.714 0 0 1 1.123.734c3.216 2.967 5.105 12.599 6.214 22.662z" class="prefix__cls-1" data-name="Path 2716" transform="translate(-572.773 -479.273)"/>
        <path id="prefix__Path_2717" d="M845.623 325.669s3.737-2.012 7.473 2.3l7.473 8.623-5.748 6.323L843.9 336.3z" class="prefix__cls-3" data-name="Path 2717" transform="translate(-754.148 -292.471)"/>
        <path id="prefix__Path_2718" d="M683.283 158.123a25.973 25.973 0 0 0 7.874-8.559s6.162 6.847 9.928 7.189.342-8.216.342-8.216l-6.847-1.712-6.5.685-5.135 3.423z" class="prefix__cls-1" data-name="Path 2718" transform="translate(-618.727 -142.398)"/>
        <path id="prefix__Path_2719" d="M693.845 315.474s-4.022 6.36-16.1 3.324l-6.851 1.887-.911.251s.862 17.246 3.162 20.408 1.725 4.886 1.15 5.174-2.012-.287-1.15 1.15 2.012.575.862 1.437-1.724 4.024-1.724 4.024l27.018 3.449s-.862-11.21 1.437-16.958a74.044 74.044 0 0 0 2.874-8.048l-1.719-14.372z" class="prefix__cls-3" data-name="Path 2719" transform="translate(-607.83 -284.288)"/>
        <path id="prefix__Rectangle_1141" d="M0 0H43.722V54.652H0z" data-name="Rectangle 1141" transform="translate(0 23.778)" style="fill:#fff;stroke:#38bdba;stroke-width:.2px"/>
        <path id="prefix__Rectangle_1142" d="M0 0H10.274V6.849H0z" class="prefix__cls-3" data-name="Rectangle 1142" transform="translate(3.339 28.385)"/>
        <path id="prefix__Rectangle_1143" d="M0 0H36.227V2.186H0z" class="prefix__cls-3" data-name="Rectangle 1143" transform="translate(3.425 40.565)"/>
        <path id="prefix__Rectangle_1144" d="M0 0H36.227V2.186H0z" class="prefix__cls-3" data-name="Rectangle 1144" transform="translate(3.425 46.342)"/>
        <path id="prefix__Rectangle_1145" d="M0 0H36.227V2.186H0z" class="prefix__cls-3" data-name="Rectangle 1145" transform="translate(3.425 52.12)"/>
        <path id="prefix__Rectangle_1146" d="M0 0H36.227V2.186H0z" class="prefix__cls-3" data-name="Rectangle 1146" transform="translate(3.425 57.897)"/>
        <path id="prefix__Rectangle_1147" d="M0 0H36.227V2.186H0z" class="prefix__cls-3" data-name="Rectangle 1147" transform="translate(3.425 63.675)"/>
    </g>
</svg>
