<svg xmlns="http://www.w3.org/2000/svg" width="407.179" height="308.913" viewBox="0 0 407.179 308.913">
    <defs>
        <style>
            .prefix__cls-2{fill:#3f3d56}.prefix__cls-3{fill:#444584}.prefix__cls-4{fill:#e6e6e6}.prefix__cls-5{fill:#ffb8b8}.prefix__cls-6{fill:#2f2e41}.prefix__cls-7{fill:#ffb9b9}.prefix__cls-8{fill:#575a89}
        </style>
    </defs>
    <g id="prefix__Group_627" data-name="Group 627" transform="translate(-105.108 -670)">
        <path id="prefix__Path_3781" d="M217.378 85.527c17.459 14.821 40.106 13.862 59.951 6.149s38.075-21.438 57.41-31.2a161.184 161.184 0 0 1 50.438-15.942c24.643-3.42 52.163.755 69.332 24.7 19.12 26.682 17.652 74.805-3.02 99.283-10.521 12.458-24.3 18.573-36.308 28.313s-23.137 25.881-22.114 44.658c.948 17.365 11.959 30.717 23.356 39.086 8.807 6.467 19.653 13.53 20.713 26.927 1.027 12.96-8.094 23.118-16.8 28.894-28.411 18.841-63.42 18.66-91.733-.476-10.094-6.829-19.366-15.912-29.955-21.227-27.8-13.967-58.441.091-87.882 5.236a146.236 146.236 0 0 1-74.745-6.6c-14.579-5.221-29.215-13.213-39.456-28.071-7.388-10.721-11.989-24.292-16.308-37.693Q73.346 226.143 66.97 204.4c-2.548-8.7-5.059-17.569-5.719-26.874-1.193-16.867 3.835-33.541 10.683-47.773 16.259-33.8 43.643-57.561 73.3-63.6s61.03 5.753 84.032 31.551" data-name="Path 3781" transform="translate(44.032 628.506)" style="fill:#f7f7f7"/>
        <g id="prefix__Group_623" data-name="Group 623" transform="translate(107 670)">
            <path id="prefix__Path_3734" d="M421.643 201.536h-99.98a1.854 1.854 0 0 1-1.852-1.851v-24.8a1.854 1.854 0 0 1 1.852-1.851h99.98a1.854 1.854 0 0 1 1.851 1.851v24.8a1.854 1.854 0 0 1-1.852 1.852zm-99.98-27.763a1.112 1.112 0 0 0-1.111 1.111v24.8a1.112 1.112 0 0 0 1.111 1.111h99.98a1.112 1.112 0 0 0 1.111-1.111v-24.8a1.112 1.112 0 0 0-1.111-1.111z" class="prefix__cls-2" data-name="Path 3734" transform="translate(-234.743 -136.256)"/>
            <circle id="prefix__Ellipse_729" cx="7.542" cy="7.542" r="7.542" class="prefix__cls-3" data-name="Ellipse 729" transform="translate(94.914 42.534)"/>
            <path id="prefix__Path_3735" d="M401.014 192.745a1.257 1.257 0 0 0 0 2.514h59.258a1.257 1.257 0 1 0 0-2.514z" class="prefix__cls-4" data-name="Path 3735" transform="translate(-281.141 -147.697)"/>
            <path id="prefix__Path_3736" d="M401.015 210.718a1.257 1.257 0 0 0 0 2.514h25.5a1.257 1.257 0 0 0 0-2.514z" class="prefix__cls-4" data-name="Path 3736" transform="translate(-281.141 -158.128)"/>
            <path id="prefix__Path_3737" d="M395.027 382.5h-44.436a1.854 1.854 0 0 1-1.851-1.852v-46.276a1.854 1.854 0 0 1 1.851-1.852h44.435a1.854 1.854 0 0 1 1.852 1.852v46.278a1.854 1.854 0 0 1-1.851 1.85zm-44.435-49.24a1.112 1.112 0 0 0-1.111 1.111v46.279a1.112 1.112 0 0 0 1.111 1.111h44.435a1.112 1.112 0 0 0 1.111-1.111v-46.278a1.112 1.112 0 0 0-1.111-1.111z" class="prefix__cls-2" data-name="Path 3737" transform="translate(-251.532 -228.819)"/>
            <path id="prefix__Path_3738" d="M373.977 355.263a1.257 1.257 0 1 0 0 2.514h25.5a1.257 1.257 0 1 0 0-2.514z" class="prefix__cls-4" data-name="Path 3738" transform="translate(-265.449 -242.018)"/>
            <path id="prefix__Path_3739" d="M373.977 372.911a1.257 1.257 0 1 0 0 2.514h25.5a1.257 1.257 0 1 0 0-2.514z" class="prefix__cls-4" data-name="Path 3739" transform="translate(-265.449 -252.26)"/>
            <path id="prefix__Path_3740" d="M395.155 407a7.912 7.912 0 1 1 7.912-7.912 7.912 7.912 0 0 1-7.912 7.912z" class="prefix__cls-3" data-name="Path 3740" transform="translate(-273.878 -262.86)"/>
            <path id="prefix__Path_3741" d="M629.952 85.393h44.435a1.854 1.854 0 0 1 1.852 1.851v46.278a1.854 1.854 0 0 1-1.852 1.851h-44.435a1.854 1.854 0 0 1-1.851-1.851V87.245a1.854 1.854 0 0 1 1.851-1.852zm44.435 49.24a1.112 1.112 0 0 0 1.111-1.111V87.245a1.112 1.112 0 0 0-1.111-1.111h-44.435a1.112 1.112 0 0 0-1.111 1.111v46.278a1.112 1.112 0 0 0 1.111 1.111z" class="prefix__cls-2" data-name="Path 3741" transform="translate(-413.664 -85.393)"/>
            <path id="prefix__Path_3742" d="M678.837 178.281a1.257 1.257 0 1 0 0-2.514h-25.5a1.257 1.257 0 0 0 0 2.514z" class="prefix__cls-4" data-name="Path 3742" transform="translate(-427.582 -137.843)"/>
            <path id="prefix__Path_3743" d="M678.837 160.632a1.257 1.257 0 1 0 0-2.514h-25.5a1.257 1.257 0 0 0 0 2.514z" class="prefix__cls-4" data-name="Path 3743" transform="translate(-427.582 -127.6)"/>
            <path id="prefix__Path_3744" d="M674.516 108.135a7.912 7.912 0 1 1-7.912 7.912 7.912 7.912 0 0 1 7.912-7.912z" class="prefix__cls-3" data-name="Path 3744" transform="translate(-436.01 -98.592)"/>
            <path id="prefix__Path_3745" d="M319.9 293.819a63.345 63.345 0 0 1 26.82-12.119 62.428 62.428 0 0 1 29.6 1.521 63.138 63.138 0 0 1 13.811 5.984 80.369 80.369 0 0 1 12.287 9.155c3.9 3.42 7.676 6.992 11.75 10.212a65.827 65.827 0 0 0 40.958 14.408q1.845 0 3.687-.1c.666-.037.67-1.077 0-1.041a64.767 64.767 0 0 1-42.339-12.794c-4.222-3.157-8.077-6.767-12.013-10.265a92.916 92.916 0 0 0-12.063-9.415 63.724 63.724 0 0 0-70.356 1.6c-.977.679-1.931 1.389-2.87 2.12-.528.411.213 1.142.736.736z" class="prefix__cls-2" data-name="Path 3745" transform="translate(-234.263 -198.077)"/>
            <circle id="prefix__Ellipse_730" cx="5.407" cy="5.407" r="5.407" class="prefix__cls-2" data-name="Ellipse 730" transform="translate(79.681 89.957)"/>
            <circle id="prefix__Ellipse_731" cx="5.407" cy="5.407" r="5.407" class="prefix__cls-2" data-name="Ellipse 731" transform="translate(280.841 161.75)"/>
            <path id="prefix__Path_3746" d="M742.151 341.72h-88.23a1.854 1.854 0 0 1-1.852-1.851v-45.908a1.854 1.854 0 0 1 1.851-1.851h88.23a1.854 1.854 0 0 1 1.85 1.851v45.908a1.854 1.854 0 0 1-1.849 1.851zm-88.23-48.87a1.112 1.112 0 0 0-1.111 1.111v45.908a1.112 1.112 0 0 0 1.111 1.111h88.23a1.112 1.112 0 0 0 1.111-1.111v-45.908a1.112 1.112 0 0 0-1.111-1.111z" class="prefix__cls-2" data-name="Path 3746" transform="translate(-427.575 -205.365)"/>
            <circle id="prefix__Ellipse_732" cx="7.542" cy="7.542" r="7.542" class="prefix__cls-3" data-name="Ellipse 732" transform="translate(233.598 95.465)"/>
            <path id="prefix__Path_3747" d="M731.508 318.883a1.257 1.257 0 1 0 0 2.514h47.508a1.257 1.257 0 1 0 0-2.514z" class="prefix__cls-4" data-name="Path 3747" transform="translate(-472.949 -220.904)"/>
            <path id="prefix__Path_3748" d="M731.508 336.856a1.257 1.257 0 1 0 0 2.514h25.5a1.257 1.257 0 1 0 0-2.514z" class="prefix__cls-4" data-name="Path 3748" transform="translate(-472.949 -231.335)"/>
            <path id="prefix__Path_3749" d="M675.553 365.589c-.956 0-1.734.564-1.734 1.257s.778 1.257 1.734 1.257h70.008c.956 0 1.734-.564 1.734-1.257s-.778-1.257-1.734-1.257z" class="prefix__cls-4" data-name="Path 3749" transform="translate(-440.198 -248.01)"/>
            <path id="prefix__Path_3750" d="M675.553 383.562c-.956 0-1.734.564-1.734 1.257s.778 1.257 1.734 1.257h70.008c.956 0 1.734-.564 1.734-1.257s-.778-1.257-1.734-1.257z" class="prefix__cls-4" data-name="Path 3750" transform="translate(-440.198 -258.441)"/>
            <path id="prefix__Path_3751" d="M638.477 486.414c4.978-2.159 10.535-.277 15.227 1.713 2.416 1.025 4.807 2.119 7.307 2.928a41.653 41.653 0 0 0 6.443 1.527 45.528 45.528 0 0 0 13.235.081 46.212 46.212 0 0 0 12.772-3.714 43.19 43.19 0 0 0 11.054-7.227q.628-.567 1.232-1.161c.479-.469-.257-1.2-.736-.736a41.96 41.96 0 0 1-10.784 7.612 45.17 45.17 0 0 1-12.529 4.025 44.244 44.244 0 0 1-13.2.228 41.563 41.563 0 0 1-6.464-1.405 68.385 68.385 0 0 1-7.135-2.771c-4.735-2.034-10-4.025-15.2-2.623a12.676 12.676 0 0 0-1.746.623c-.614.267-.084 1.164.524.9z" class="prefix__cls-2" data-name="Path 3751" transform="translate(-419.224 -314.223)"/>
            <path id="prefix__Path_3752" d="M577.346 493.881h-41.685l9.81-16.991a2 2 0 0 1 3.47 0l4.191 7.258 7.126-12.342a2.508 2.508 0 0 1 4.344 0z" class="prefix__cls-3" data-name="Path 3752" transform="translate(-360.015 -308.928)"/>
            <path id="prefix__Path_3753" d="M571.074 486.713h-44.436a1.854 1.854 0 0 1-1.852-1.852v-24.8a1.854 1.854 0 0 1 1.852-1.851h44.435a1.854 1.854 0 0 1 1.851 1.851v24.8a1.854 1.854 0 0 1-1.85 1.852zm-44.436-27.763a1.112 1.112 0 0 0-1.111 1.111v24.8a1.112 1.112 0 0 0 1.111 1.111h44.435a1.112 1.112 0 0 0 1.111-1.111v-24.8a1.112 1.112 0 0 0-1.111-1.111z" class="prefix__cls-2" data-name="Path 3753" transform="translate(-353.704 -301.764)"/>
            <path id="prefix__Path_3754" d="M822.3 431.791l-7.921 4.022c-2.827 1.436-5.555 1.19-6.6-1.8a5.237 5.237 0 0 1 3.984-6.874l7.528-1.405 32.24-10.7 19.53-13.848 7.159 11.406-22.566 12.177z" class="prefix__cls-5" data-name="Path 3754" transform="translate(-517.773 -268.669)"/>
            <path id="prefix__Path_3755" d="M805.426 689.644l-6.06-1.01.674-11.447h6.4z" class="prefix__cls-5" data-name="Path 3755" transform="translate(-463.928 -393.019)"/>
            <path id="prefix__Path_3756" d="M939.553 664.221l-5.865 1.83-4.558-10.521 5.71-2.883z" class="prefix__cls-5" data-name="Path 3756" transform="translate(-539.24 -378.776)"/>
            <path id="prefix__Path_3757" d="M970.176 590.858l-7.407 3.03-35.349-46.46-11.11 54.54-7.407-1.347c-4.751-47.02-8.625-94.981-3.871-117.664l27.438-1.178 12.457 39.726 6.06 26.933z" class="prefix__cls-6" data-name="Path 3757" transform="translate(-573.13 -315.444)"/>
            <path id="prefix__Path_3758" d="M909.987 795.09a5.318 5.318 0 0 1-3.3-.35l-3.6-1.62c-3.018-.155-5.074.446-6.754-1.747a4.4 4.4 0 0 1-.514-4.44 4.435 4.435 0 0 1 3.622-2.635l4.945-3.116.26 2.336c2.26 1.28 4.943.727 7.786-.519l1.552 5.432a5.318 5.318 0 0 1-4 6.66z" class="prefix__cls-6" data-name="Path 3758" transform="translate(-568.823 -489.208)"/>
            <path id="prefix__Path_3759" d="M1054.555 770.858a5.318 5.318 0 0 1-3.231.739l-3.931-.363c-2.905.834-4.654 2.07-6.956.541a4.4 4.4 0 0 1-1.928-4.033 4.435 4.435 0 0 1 2.57-3.669l3.665-4.552 1 2.125c2.553.477 4.911-.917 7.2-3.019l3.232 4.633a5.318 5.318 0 0 1-1.619 7.6z" class="prefix__cls-6" data-name="Path 3759" transform="translate(-651.843 -476.118)"/>
            <circle id="prefix__Ellipse_733" cx="12.12" cy="12.12" r="12.12" class="prefix__cls-5" data-name="Ellipse 733" transform="translate(337.121 94.289)"/>
            <path id="prefix__Path_3760" d="M842.883 288.478l-15.823-3.367-2.02-13.13 11.11-2.357z" class="prefix__cls-5" data-name="Path 3760" transform="translate(-478.829 -156.482)"/>
            <path id="prefix__Path_3761" d="M935.106 426.587h-28.28l6.375-16c-.463-5.507 1.871-9.557 5.211-13.083l4.238-10.64c6.847-4.507 12.009-4.17 17.507 1.683 6.515 9.225 2.005 23.097-5.051 38.04z" class="prefix__cls-3" data-name="Path 3761" transform="translate(-575.428 -258.568)"/>
            <path id="prefix__Path_3762" d="M930.025 487.2l-.8 8.847c-.287 3.158-1.945 5.338-5.036 4.632a5.237 5.237 0 0 1-3.7-7.029l2.812-7.123 8.08-32.993-1.347-23.9h13.467l-1.683 25.586z" class="prefix__cls-5" data-name="Path 3762" transform="translate(-583.14 -285.178)"/>
            <path id="prefix__Path_3763" d="M956.811 407.965h-15.486l1.086-10.1a7.008 7.008 0 0 1 6.652-6.714 7.008 7.008 0 0 1 7.353 6.725z" class="prefix__cls-3" data-name="Path 3763" transform="translate(-595.45 -262.84)"/>
            <circle id="prefix__Ellipse_734" cx="4.556" cy="4.556" r="4.556" class="prefix__cls-6" data-name="Ellipse 734" transform="translate(359.686 84.836)"/>
            <path id="prefix__Path_3764" d="M973.108 289.814a4.552 4.552 0 0 1 4.553-4.258c-.094-.012-.187-.026-.283-.033a4.556 4.556 0 0 0-.584 9.092c.1.006.19 0 .285 0a4.552 4.552 0 0 1-3.971-4.801z" class="prefix__cls-6" data-name="Path 3764" transform="translate(-613.561 -201.537)"/>
            <path id="prefix__Path_3765" d="M937.718 298.671c-4.063-3.37-15.716.913-16.468 3.179-5.494.749-9.654 3.954-9.654 9.654 3.266 1.338 6.981 1.173 11 0 6.4 5.217 6.84 11.775 2.947 19.307l4.79.1 5.937-8.677.284 8.8 10.979-.22V318.2a26.37 26.37 0 0 0-2.816-12.081c-1.717-3.325-4.368-5.266-6.999-7.448z" class="prefix__cls-6" data-name="Path 3765" transform="translate(-578.197 -208.45)"/>
            <ellipse id="prefix__Ellipse_735" cx="2.178" cy="3.05" class="prefix__cls-5" data-name="Ellipse 735" rx="2.178" ry="3.05" transform="translate(347.12 106.406)"/>
            <path id="prefix__Path_3766" d="M296.282 330.142s1.311-22.7 8.119-17.54-2.973 19.645-2.973 19.645z" class="prefix__cls-7" data-name="Path 3766" transform="translate(-221.087 -216.816)"/>
            <path id="prefix__Path_3767" d="M228.832 515.9s15.123 16.977 6.662 18.144S223.7 518.05 223.7 518.05z" class="prefix__cls-7" data-name="Path 3767" transform="translate(-178.965 -335.246)"/>
            <path id="prefix__Path_3768" d="M173.042 324.271a9.959 9.959 0 0 1 7.328 8.246l4.81 34.238 6.743 27.311s3.372 3.035 2.023 4.72 1.686 8.767 1.686 8.767l-8.429 2.7s-1.012-7.081-2.7-7.418c-1.482-.3-18.067-44.6-22.065-55.335l-.863-2.322s.677-22.593 11.467-20.907z" class="prefix__cls-8" data-name="Path 3768" transform="translate(-142.908 -223.978)"/>
            <path id="prefix__Path_3769" d="M183.649 749.885l5.178 9.175c4.009 8.56.446 10.115-9.384 5.872L177.2 754.1z" class="prefix__cls-7" data-name="Path 3769" transform="translate(-151.976 -471.044)"/>
            <path id="prefix__Path_3770" d="M182.9 774.232s2.458-4 3.347-3.332 4.556 3.572 4.556 3.572l4.776 4.574s16.136 1.706 5.883 7.36-15.92.966-15.92.966-14.361.747-14.129-3.26 4.863-10.345 4.863-10.345 5.837 3.914 6.624.465z" class="prefix__cls-6" data-name="Path 3770" transform="translate(-148.615 -483.197)"/>
            <path id="prefix__Path_3771" d="M137.815 492.214l4.854 58.733s.162 35.11 5.339 41.906 5.339 10.193 5.339 10.193l10.679-5.5s-5.5-9.167-4.369-10.57a7.822 7.822 0 0 0 1.456-3.021l-2.913-36.244 5.5-63.1z" class="prefix__cls-6" data-name="Path 3771" transform="translate(-129.117 -317.086)"/>
            <path id="prefix__Path_3773" d="M31.869 662.7l-4.53 11.973-10.274-4.3 5.42-8.972z" class="prefix__cls-7" data-name="Path 3773" transform="translate(-9.904 -383.861)"/>
            <path id="prefix__Path_3774" d="M131.495 764.3s3.853-2.408 4.335-1.445 2.408 5.057 2.408 5.057l2.168 6.021s13.246 8.429 1.927 8.911-14.209-6.021-14.209-6.021-12.764-5.539-10.838-8.911 8.67-6.869 8.67-6.869 3.371 5.91 5.539 3.257z" class="prefix__cls-6" data-name="Path 3774" transform="translate(-117.087 -477.523)"/>
            <path id="prefix__Path_3775" d="M178.912 500.88l2.588 54.04s-23.623 48.863-26.211 50.158a6.5 6.5 0 0 0-3.236 3.883l-14.238-3.56 6.472-10.355 14.238-34.625a5.709 5.709 0 0 0 2.912-4.207c.647-3.236 1.942-3.236-1.294-3.883a4.019 4.019 0 0 1-3.236-3.883l-10.679-49.187z" class="prefix__cls-6" data-name="Path 3775" transform="translate(-129.117 -325.59)"/>
            <circle id="prefix__Ellipse_736" cx="12.944" cy="12.944" r="12.944" class="prefix__cls-7" data-name="Ellipse 736" transform="rotate(-80.783 63.52 30.443)"/>
            <path id="prefix__Path_3776" d="M177.37 272.159s-.971 16.5-2.265 18.121 13.591 1.294 13.591 1.294-.971-13.915 0-15.209-11.326-4.206-11.326-4.206z" class="prefix__cls-7" data-name="Path 3776" transform="translate(-150.713 -193.786)"/>
            <path id="prefix__Path_3777" d="M178.091 390.475s-36.567-3.235-43.36 0c0 0 2.5-9.278 1.855-10.247-.47-.709.827-27.137.42-42.383-.231-8.6-2.216-17 3.554-23.39a17.961 17.961 0 0 1 6.466-4.88s-.646-6.148 2.589-6.471c0 0 12.3-1.3 16.827 2.589 1.448 1.234 2.358 4.994 2.455 8.233-2.241 11.019-1.448 23.247.608 35.933.126.806.264 1.616.4 2.425 2.186 12.581 5.484 25.552 8.186 38.191z" class="prefix__cls-8" data-name="Path 3777" transform="translate(-127.327 -211.625)"/>
            <path id="prefix__Path_3778" d="M180.18 246.76a17.237 17.237 0 0 1 3.251.449 8.227 8.227 0 0 0 8.794-6.134 4.706 4.706 0 0 1 .45-1.465 2.9 2.9 0 0 1 3.086-.939 23.824 23.824 0 0 0 3.333.811 5.1 5.1 0 0 0 4.405-2.493 8.455 8.455 0 0 0 1.081-5.106l-.847.889a4.3 4.3 0 0 1-.384-2.338 2.713 2.713 0 0 0-2.57.658c-.747.079-.183-1.385-.738-1.892a1.284 1.284 0 0 0-.9-.169c-1.589.015-2.875-1.2-4.127-2.179a17.536 17.536 0 0 0-7.406-3.378 9.744 9.744 0 0 0-5.4.262 11.544 11.544 0 0 0-3.649 2.589 22.279 22.279 0 0 0-6.132 9.1 15.315 15.315 0 0 0-.073 8.881c.447 1.507 1.793 6.67 3.763 6.79 2.468.146.983-4.153 4.063-4.336z" class="prefix__cls-6" data-name="Path 3778" transform="translate(-148.797 -165.382)"/>
            <path id="prefix__Path_3779" d="M192.117 328.181l4.637.5s4.552 8.832 4.222 10.674-1.051.724 1 3.671 7.863 10.565 8.583 11.684 20.347-13.857 19.127-18.344c0 0 6.2 4.447 8.855 5.039 0 0-20.228 26.528-23.046 29.923s-5.087 2.7-8.961.685-23.471-22.091-23.471-22.091z" class="prefix__cls-8" data-name="Path 3779" transform="translate(-155.376 -226.3)"/>
            <path id="prefix__Path_3780" d="M196.269 396.459l-16.118-16.118 4.079-1.33 11.636 15.023c.126.805.265 1.615.403 2.425z" data-name="Path 3780" transform="translate(-153.688 -255.8)" style="opacity:.1"/>
        </g>
    </g>
</svg>
