<svg xmlns="http://www.w3.org/2000/svg" width="391.18" height="346.615" viewBox="0 0 391.18 346.615">
    <defs>
        <style>
            .prefix__cls-1{fill:#f7f7f7}.prefix__cls-2,.prefix__cls-3{fill:#444584}.prefix__cls-15,.prefix__cls-2,.prefix__cls-5{opacity:.1}.prefix__cls-4{fill:none;stroke-miterlimit:10;stroke:#565987}.prefix__cls-6{fill:#ffd037}.prefix__cls-9{fill:#65617d}.prefix__cls-10{fill:#3f3d56}.prefix__cls-11{fill:#be6f72}.prefix__cls-12{fill:#fbbebe}.prefix__cls-13{fill:#e3e8f4}.prefix__cls-14{fill:#f86d70}
        </style>
    </defs>
    <g id="prefix__Group_626" data-name="Group 626" transform="translate(0 -.006)">
        <path id="prefix__Path_3782" d="M332.529 345.537c-15.289-4.948-31.453-9.1-47.974-8.669-24.287.631-47.639 11.949-59.157 28.677-9.735 14.175-11.035 30.835-15.284 46.6-5.236 19.42-15.174 37.849-25.782 55.872-5.7 9.68-11.708 19.564-12.7 30.2-1.359 14.768 7.589 29.532 21.7 39.428s32.88 15.17 51.741 16.4c10.036.652 20.525.148 29.46-3.467 9.452-3.809 16.364-10.781 25.853-14.548 8.8-3.488 19.047-3.936 28.914-3.424a160.87 160.87 0 0 1 37.7 6.459c13.752 4.114 26.531 10.036 40.253 14.209s29.062 6.535 43.123 3.179c13.2-3.149 23.674-10.912 33.117-18.776A360.062 360.062 0 0 0 525.8 496.2c8.529-9.9 16.474-20.355 20.283-31.923 7.276-22.12-2.472-47.165-24.283-62.4-18.07-12.626-42.378-18.2-66.183-21.587-21.71-3.12-46.827-3.429-66.78-11.373-19.037-7.6-36.346-16.917-56.308-23.38z" class="prefix__cls-1" data-name="Path 3782" transform="translate(-157.282 -211.428)"/>
        <ellipse id="prefix__Ellipse_737" cx="9.782" cy="1.342" class="prefix__cls-2" data-name="Ellipse 737" rx="9.782" ry="1.342" transform="translate(360.349 206.806)"/>
        <ellipse id="prefix__Ellipse_738" cx="9.782" cy="1.342" class="prefix__cls-2" data-name="Ellipse 738" rx="9.782" ry="1.342" transform="translate(322.877 210.607)"/>
        <ellipse id="prefix__Ellipse_739" cx="9.782" cy="1.342" class="prefix__cls-2" data-name="Ellipse 739" rx="9.782" ry="1.342" transform="translate(278.738 205.464)"/>
        <ellipse id="prefix__Ellipse_740" cx="6.954" cy=".957" class="prefix__cls-2" data-name="Ellipse 740" rx="6.954" ry=".957" transform="translate(340.701 221.811)"/>
        <ellipse id="prefix__Ellipse_741" cx="6.954" cy=".957" class="prefix__cls-2" data-name="Ellipse 741" rx="6.954" ry=".957" transform="translate(301.81 220.855)"/>
        <path id="prefix__Path_3783" d="M866.579 439.367s13.722-44.977-2.146-62.991c-11.852-13.477-25.346-11.852-31.377-10.2a11.141 11.141 0 0 0-7.2 5.981c-2.116 4.55-1.727 11.936 13.164 20.558 24.935 14.438 26.488 34.243 26.488 34.243z" class="prefix__cls-3" data-name="Path 3783" transform="translate(-534.133 -227.723)"/>
        <path id="prefix__Path_3784" d="M849.2 382.73s40.448 12.647 31.377 66.809" class="prefix__cls-4" data-name="Path 3784" transform="translate(-548.13 -237.895)"/>
        <path id="prefix__Path_3785" d="M899.341 393.44s-5.57 3.754-3.809 9.392" class="prefix__cls-4" data-name="Path 3785" transform="translate(-574.652 -244.072)"/>
        <path id="prefix__Path_3786" d="M858.79 398.431s3.386-3.462 7.547-1.553" class="prefix__cls-4" data-name="Path 3786" transform="translate(-553.661 -245.723)"/>
        <path id="prefix__Path_3787" d="M896.56 440.919s5.977-3.031 7.522.766" class="prefix__cls-4" data-name="Path 3787" transform="translate(-575.444 -270.794)"/>
        <path id="prefix__Path_3788" d="M925.281 457.39s-4.491-.356-4.571 1.79" class="prefix__cls-4" data-name="Path 3788" transform="translate(-589.372 -280.941)"/>
        <path id="prefix__Path_3789" d="M891.607 497.838s-16.084-32.689-20.482-31.974c-2.116.339-3.065 2.4-3.5 4.474a13.155 13.155 0 0 0 .876 7.958c2.281 5.231 8.406 15.166 23.106 19.542z" class="prefix__cls-3" data-name="Path 3789" transform="translate(-558.606 -285.834)"/>
        <path id="prefix__Path_3790" d="M876.53 480.54s16.87 24.46 20.127 25.532" class="prefix__cls-4" data-name="Path 3790" transform="translate(-563.892 -294.305)"/>
        <path id="prefix__Line_115" d="M0 0L3.936 0" class="prefix__cls-4" data-name="Line 115" transform="translate(311.088 190.053)"/>
        <path id="prefix__Line_116" d="M0 0L6.171 0.262" class="prefix__cls-4" data-name="Line 116" transform="translate(315.804 199.001)"/>
        <path id="prefix__Line_117" d="M0.669 0L0 3.213" class="prefix__cls-4" data-name="Line 117" transform="translate(318.889 191.844)"/>
        <path id="prefix__Line_118" d="M0.119 0L0 2.921" class="prefix__cls-4" data-name="Line 118" transform="translate(326 201.625)"/>
        <path id="prefix__Path_3791" d="M923.52 497.838s16.08-32.689 20.48-31.974c2.116.339 3.064 2.4 3.5 4.474a13.156 13.156 0 0 1-.876 7.957c-2.279 5.232-8.404 15.167-23.104 19.543z" class="prefix__cls-3" data-name="Path 3791" transform="translate(-590.993 -285.834)"/>
        <path id="prefix__Path_3792" d="M944.207 480.54S927.339 505 924.08 506.072" class="prefix__cls-4" data-name="Path 3792" transform="translate(-591.316 -294.305)"/>
        <path id="prefix__Line_119" d="M3.936 0L0 0" class="prefix__cls-4" data-name="Line 119" transform="translate(350.504 190.053)"/>
        <path id="prefix__Line_120" d="M6.171 0L0 0.262" class="prefix__cls-4" data-name="Line 120" transform="translate(343.553 199.001)"/>
        <path id="prefix__Line_121" d="M0 0L0.669 3.213" class="prefix__cls-4" data-name="Line 121" transform="translate(345.97 191.844)"/>
        <path id="prefix__Line_122" d="M0 0L0.123 2.921" class="prefix__cls-4" data-name="Line 122" transform="translate(339.405 201.625)"/>
        <path id="prefix__Path_3793" d="M857.03 553.436a2.811 2.811 0 0 1-.914-1.38 1.232 1.232 0 0 1 .639-1.409 1.8 1.8 0 0 1 1.693.6 2.256 2.256 0 0 0 1.642.792 2.5 2.5 0 0 1-.77-2.341.983.983 0 0 1 .212-.478c.326-.347.918-.195 1.308.076 1.24.876 1.587 2.561 1.6 4.076a7.913 7.913 0 0 0 0-1.693 1.723 1.723 0 0 1 .631-1.486 1.866 1.866 0 0 1 .961-.229 2 2 0 0 1 1.562.444 1.56 1.56 0 0 1-.063 1.917 6.087 6.087 0 0 1-1.613 1.27 3.548 3.548 0 0 0-1.156 1.1 1.352 1.352 0 0 0-.085.195h-3.5a9.642 9.642 0 0 1-2.146-1.452z" class="prefix__cls-3" data-name="Path 3793" transform="translate(-552.096 -333.796)"/>
        <path id="prefix__Path_3794" d="M1001.7 522.33a2.773 2.773 0 0 1-.914-1.38 1.227 1.227 0 0 1 .639-1.405 1.8 1.8 0 0 1 1.693.593 2.264 2.264 0 0 0 1.647.792 2.493 2.493 0 0 1-.775-2.341.935.935 0 0 1 .216-.474c.326-.347.914-.2 1.3.076 1.24.872 1.587 2.54 1.6 4.076a7.682 7.682 0 0 0 0-1.693 1.723 1.723 0 0 1 .631-1.486 1.925 1.925 0 0 1 .961-.224 1.981 1.981 0 0 1 1.562.423 1.543 1.543 0 0 1-.064 1.913 6.017 6.017 0 0 1-1.613 1.3 3.547 3.547 0 0 0-1.155 1.1 1.034 1.034 0 0 0-.085.195h-3.5a9.761 9.761 0 0 1-2.143-1.465z" class="prefix__cls-3" data-name="Path 3794" transform="translate(-635.532 -315.858)"/>
        <path id="prefix__Path_3795" d="M953.48 553.436a2.811 2.811 0 0 1-.914-1.38 1.232 1.232 0 0 1 .639-1.409 1.8 1.8 0 0 1 1.693.6 2.256 2.256 0 0 0 1.642.792 2.506 2.506 0 0 1-.775-2.341 1.029 1.029 0 0 1 .216-.478c.326-.347.918-.195 1.308.076 1.24.876 1.587 2.561 1.6 4.076a7.918 7.918 0 0 0 .021-1.693 1.723 1.723 0 0 1 .631-1.486 1.867 1.867 0 0 1 .961-.229 2 2 0 0 1 1.562.444 1.561 1.561 0 0 1-.064 1.917 6.085 6.085 0 0 1-1.613 1.27 3.548 3.548 0 0 0-1.156 1.1 1.352 1.352 0 0 0-.085.195h-3.5a9.643 9.643 0 0 1-2.166-1.454z" class="prefix__cls-3" data-name="Path 3795" transform="translate(-607.722 -333.796)"/>
        <path id="prefix__Path_3796" d="M814.04 496.58s-1.312 1.714.605 4.3 3.492 4.775 2.857 6.387c0 0-2.891-4.8-5.244-4.872s-.808-2.924 1.782-5.815z" class="prefix__cls-3" data-name="Path 3796" transform="translate(-526.156 -303.556)"/>
        <path id="prefix__Path_3797" d="M814.04 496.58a2.07 2.07 0 0 0-.271.538c-2.294 2.7-3.517 5.215-1.312 5.278 2.057.059 4.525 3.733 5.113 4.656a.651.651 0 0 1-.068.212s-2.891-4.8-5.244-4.872-.808-2.921 1.782-5.812z" class="prefix__cls-5" data-name="Path 3797" transform="translate(-526.156 -303.556)"/>
        <path id="prefix__Path_3798" d="M812.29 501.214c0 .605.068 1.092.152 1.092s.148-.487.148-1.092-.085-.317-.165-.317-.135-.284-.135.317z" class="prefix__cls-6" data-name="Path 3798" transform="translate(-526.843 -306.006)"/>
        <path id="prefix__Path_3799" d="M809.87 502.881c.529.292.995.466 1.033.394s-.356-.368-.885-.656-.322-.08-.364 0-.313-.026.216.262z" class="prefix__cls-6" data-name="Path 3799" transform="translate(-525.262 -306.953)"/>
        <path id="prefix__Path_3800" d="M829.491 496.58s1.312 1.714-.605 4.3-3.492 4.775-2.853 6.387c0 0 2.887-4.8 5.24-4.872s.809-2.924-1.782-5.815z" class="prefix__cls-3" data-name="Path 3800" transform="translate(-534.686 -303.556)"/>
        <path id="prefix__Path_3801" d="M829.59 496.58a2.068 2.068 0 0 1 .271.538c2.294 2.7 3.517 5.215 1.312 5.278-2.057.059-4.525 3.733-5.113 4.656a1.773 1.773 0 0 0 .072.212s2.887-4.8 5.24-4.872.809-2.921-1.782-5.812z" class="prefix__cls-5" data-name="Path 3801" transform="translate(-534.785 -303.556)"/>
        <path id="prefix__Path_3802" d="M839.75 501.214c0 .605-.068 1.092-.152 1.092s-.148-.487-.148-1.092.085-.317.165-.317.135-.284.135.317z" class="prefix__cls-6" data-name="Path 3802" transform="translate(-542.507 -306.006)"/>
        <path id="prefix__Path_3803" d="M840.729 502.881c-.529.292-.995.466-1.033.394s.356-.368.885-.656.322-.08.364 0 .313-.026-.216.262z" class="prefix__cls-6" data-name="Path 3803" transform="translate(-542.648 -306.953)"/>
        <path id="prefix__Path_3804" d="M820.573 518.6s-3.661-.11-4.766-.9-5.638-1.727-5.926-.466-5.5 6.273-1.371 6.307 9.617-.643 10.717-1.316 1.346-3.625 1.346-3.625z" data-name="Path 3804" transform="translate(-523.749 -315.115)" style="fill:#a8a8a8"/>
        <path id="prefix__Path_3805" d="M808.447 525.8c4.135.034 9.613-.643 10.717-1.316.847-.508 1.172-2.345 1.27-3.191h.119s-.229 2.963-1.333 3.627-6.578 1.35-10.717 1.316c-1.194 0-1.6-.423-1.583-1.062.18.383.638.62 1.527.626z" data-name="Path 3805" transform="translate(-523.745 -317.807)" style="opacity:.2"/>
        <circle id="prefix__Ellipse_742" cx="9.155" cy="9.155" r="9.155" class="prefix__cls-1" data-name="Ellipse 742" transform="translate(45.443 16.465)"/>
        <circle id="prefix__Ellipse_743" cx="9.155" cy="9.155" r="9.155" class="prefix__cls-1" data-name="Ellipse 743" transform="translate(203.793 2.014)"/>
        <circle id="prefix__Ellipse_744" cx="9.155" cy="9.155" r="9.155" class="prefix__cls-1" data-name="Ellipse 744" transform="translate(349.039 38.183)"/>
        <circle id="prefix__Ellipse_745" cx="15.344" cy="15.344" r="15.344" class="prefix__cls-1" data-name="Ellipse 745" transform="translate(0 94.224)"/>
        <circle id="prefix__Ellipse_746" cx="15.344" cy="15.344" r="15.344" class="prefix__cls-1" data-name="Ellipse 746" transform="translate(14.709 169.99)"/>
        <circle id="prefix__Ellipse_747" cx="15.344" cy="15.344" r="15.344" class="prefix__cls-1" data-name="Ellipse 747" transform="translate(302.077 103.159)"/>
        <path id="prefix__Path_3806" d="M569.819 385.617c-.542.051-1.092.025-1.63.11a7.42 7.42 0 0 0-2.54 1.02c-3.852 2.193-7.488 5.206-9.083 9.337a1.27 1.27 0 0 0-.119.825 1.4 1.4 0 0 0 .449.584l1.5 1.363a2.117 2.117 0 0 0 .665.466 2.172 2.172 0 0 0 1.228-.038c4.118-.944 8.5-2.032 11.386-5.113 1.371-1.46 2.637-3.471 4.656-3.526a21.384 21.384 0 0 1 2.472.423 1.806 1.806 0 0 0 2.034-1.068 2.251 2.251 0 0 0-.135-1.2l-1.244-4.144c-.339-1.134-3.754-1.194-4.893-.99-1.736.3-2.904 1.782-4.746 1.951z" class="prefix__cls-9" data-name="Path 3806" transform="translate(-379.279 -238.382)"/>
        <path id="prefix__Path_3807" d="M604.472 428.18a34.836 34.836 0 0 1-.178 4.258 12.422 12.422 0 0 1-1.054 3.2 20.98 20.98 0 0 1-2.878 4.533 8.922 8.922 0 0 1-3.941 2.963 4.154 4.154 0 0 1-4.529-1.2 6 6 0 0 1-.787-3.9 23.874 23.874 0 0 1 2.167-9.714c.643-1.27 1.46-2.48 2.116-3.763 1.371-2.662 2.154-5.82 4.521-7.657a14.862 14.862 0 0 0 4.7 1.291c.631.068 2.434.11 2.645.919.144.546-1.041 2.074-1.27 2.612a17.823 17.823 0 0 0-1.511 6.459z" class="prefix__cls-9" data-name="Path 3807" transform="translate(-399.269 -257.602)"/>
        <path id="prefix__Path_3808" d="M581.227 270.32a14.508 14.508 0 0 1 1.27 3.945c.085.847 0 1.693 0 2.54a16.588 16.588 0 0 0 .576 3.429l2.358 9.651a12.362 12.362 0 0 1 .521 4.4 23.186 23.186 0 0 0-.474 2.921 11.327 11.327 0 0 0 .356 2.214 13.637 13.637 0 0 1-.356 6.73 1.007 1.007 0 0 0-.072.521c.059.275.326.444.567.576a24.173 24.173 0 0 0 8.169 2.722 80.021 80.021 0 0 0 5.376-19.2c.6-4 .893-8.042 1.663-12.008a.982.982 0 0 1 .275-.609c.288-.241.724-.089 1.062.072a94.834 94.834 0 0 1 12.448 7.2 15.551 15.551 0 0 0 2.874-12.872 26.671 26.671 0 0 0-2.116-5.536 31.277 31.277 0 0 0-3.6-6.04c-3.141-3.936-7.746-6.451-12.487-8.156-2.882-1.041-5.85-1.812-8.812-2.6-1.659-.444-4.44-1.892-6.053-.766-1.693 1.172-2.819 4.08-3.513 5.926a21.83 21.83 0 0 0-1.38 7.149 20.2 20.2 0 0 0 1.346 7.8z" class="prefix__cls-10" data-name="Path 3808" transform="translate(-392.803 -160.786)"/>
        <path id="prefix__Path_3809" d="M626.8 315.516c-.885.965-.14 2.506-.309 3.809a5.262 5.262 0 0 1-.622 1.672l-4.051 7.953a14.746 14.746 0 0 0-1.507 3.809c-.555 2.87.584 6.1-.872 8.63a9.094 9.094 0 0 0-1.393 2.442 19.587 19.587 0 0 0-.072 2.057 13.7 13.7 0 0 1-.762 2.29 15.947 15.947 0 0 0-.394 2.252 13.248 13.248 0 0 1-4.758 8.228 7.568 7.568 0 0 1-5.249 1.786 4.563 4.563 0 0 1-4.148-3.3 4.338 4.338 0 0 0-.5-1.845c-.559-.732-1.735-.762-2.273-1.511l2.083-3.428a8.1 8.1 0 0 0 1.414-3.412c.127-1.52-.605-3.035-.343-4.537.224-1.291 1.151-2.366 1.431-3.644.347-1.587-.347-3.191-.724-4.775-.923-3.9.11-7.962 1.139-11.852 1.367-5.147 2.768-10.374 5.536-14.925 5.523 2.985 10.602 5.838 16.374 8.301z" class="prefix__cls-10" data-name="Path 3809" transform="translate(-404.347 -194.346)"/>
        <path id="prefix__Path_3810" d="M619.443 131.953a6.9 6.9 0 0 1 .089 2.844c-.148 2.116.3 4.233.2 6.379a37.944 37.944 0 0 1-1.219 6.281c-1.3 5.955-.986 12.161-2.163 18.141-1.452 7.407-5.164 14.307-5.9 21.824-.233 2.387-.2 4.944-1.511 6.959a109.269 109.269 0 0 1-21.892-12.859c1.49-11.052 2.963-22.158 2.764-33.307a14.3 14.3 0 0 1 .279-4.013 12.372 12.372 0 0 1 1.507-3.124c1.638-2.662 3.441-5.219 5.24-7.771 1.151-1.634 2.4-3.348 4.233-4.114s4.013-.423 6.015-.059l7.221 1.321c1.505.275 4.494-.25 5.137 1.498z" class="prefix__cls-3" data-name="Path 3810" transform="translate(-396.941 -91.408)"/>
        <path id="prefix__Path_3811" d="M522.267 216.115a22.588 22.588 0 0 0-3.217-2.671c1.5-1.829 1.206-4.474 1.575-6.815a22.469 22.469 0 0 1 1.367-4.432c.152-.4.368-.847.787-.952a1.384 1.384 0 0 1 .753.119c1.27.449 3.92.423 4.906 1.244 1.189 1 .1 3.09-.347 4.339-.317.838-5.191 9.803-5.824 9.168z" class="prefix__cls-11" data-name="Path 3811" transform="translate(-357.724 -133.222)"/>
        <path id="prefix__Path_3812" d="M503.941 399.592a8.77 8.77 0 0 1 1.223 3.386 3.361 3.361 0 0 1-1.363 3.153 4.7 4.7 0 0 1-3.712.042 19.318 19.318 0 0 1-11.7-10.582 5.237 5.237 0 0 0-3.073-3.64 9 9 0 0 1-4.038-3.928 4.211 4.211 0 0 1 1.172-5.134 4.326 4.326 0 0 1 3.318-.423 12.835 12.835 0 0 1 3.141 1.367 31.321 31.321 0 0 1 5.079 2.853 32.736 32.736 0 0 1 3.492 3.691 51.91 51.91 0 0 1 3.484 4.444c.344.453 3.269 4.36 2.977 4.771z" class="prefix__cls-9" data-name="Path 3812" transform="translate(-335.711 -237.653)"/>
        <path id="prefix__Path_3813" d="M446.2 385.475a29.317 29.317 0 0 1-1.122 6.286 5.814 5.814 0 0 1-1.748 3.081 6.4 6.4 0 0 1-2.671.978 1.915 1.915 0 0 1-2.379-1.041 18.124 18.124 0 0 1-3.386-6.116c-.847-3.289 0-6.815 1.469-9.888a10.121 10.121 0 0 1 2.264-3.3 8.673 8.673 0 0 1 4.157-1.867c1.562-.313 3.479-.982 3.594.919a88.317 88.317 0 0 1-.178 10.946z" class="prefix__cls-9" data-name="Path 3813" transform="translate(-308.993 -232.42)"/>
        <path id="prefix__Path_3814" d="M454.049 214.19c2.921 1.511 6.163 3.433 6.772 6.662.377 1.972-.347 3.991-.229 6 .106 1.765.847 3.471.753 5.232a24.625 24.625 0 0 1-.423 2.476 40.059 40.059 0 0 0-.165 4.732c-.14 3.555-1.329 6.976-1.9 10.484a30.711 30.711 0 0 0-.284 7.581c.14 1.634.423 3.259.423 4.9a21.472 21.472 0 0 1-.292 3.531 35.216 35.216 0 0 1-3.386 10.526c-2.036 4.008-1.748 9.181-1.532 13.672a3.386 3.386 0 0 1-.229 1.829c-.533.969-1.862 1.109-2.963 1.016a16.084 16.084 0 0 1-10.582-5.359 2.713 2.713 0 0 1-.77-1.426c-.093-.906.635-1.651 1.16-2.4 1.786-2.54 1.333-5.981 1.545-9.1a19.894 19.894 0 0 1 1.6-6.582 12.374 12.374 0 0 0 1.3-3.708 9.363 9.363 0 0 0-.631-3.6l-1.27-4.03c-1.968-6.26-3.949-12.559-6.929-18.4a9.206 9.206 0 0 0-3.915 5.5c-1.109 3.987.47 8.44-1.041 12.275a11.224 11.224 0 0 0-.622 1.647 6.626 6.626 0 0 0-.1 1.477 120.293 120.293 0 0 0 .753 12.347 3.81 3.81 0 0 0 .508 1.765c.25.36.614.626.88.969.741.961.6 2.307.423 3.5l-.847 5.663a1.536 1.536 0 0 1-.275.8 1.515 1.515 0 0 1-.72.389 20.064 20.064 0 0 1-8.322.762 5.52 5.52 0 0 1-2.264-1.117c-.072-.847.982-1.41 1.02-2.252a1.943 1.943 0 0 0-.648-1.3c-1.575-1.778-3.454-3.666-3.437-6.04 0-.622.148-1.244.127-1.867-.055-1.6-1.156-2.963-1.541-4.5-.474-1.9.157-3.873.4-5.816a30.045 30.045 0 0 0-.423-7.877l-1.418-9.583a25.667 25.667 0 0 0-.88-4.394 34.4 34.4 0 0 0-1.875-4.123c-1.354-2.751-2.468-5.613-3.577-8.465a7.717 7.717 0 0 1-.656-2.451 5.971 5.971 0 0 1 1.617-3.941 12.321 12.321 0 0 1 6.772-4.106 2.963 2.963 0 0 1 1.359-.055 3.648 3.648 0 0 1 1.054.554 25.32 25.32 0 0 0 22.378 2.654 1.845 1.845 0 0 0 1.693-.047 21.67 21.67 0 0 0 3.661-2.54 21.8 21.8 0 0 1 7.948-3.864z" class="prefix__cls-10" data-name="Path 3814" transform="translate(-293.425 -140.694)"/>
        <path id="prefix__Path_3815" d="M309.9 463.005a5.79 5.79 0 0 0 1 1.782c1.532 2 3.67 3.594 4.656 5.926.207.5.36 1.024.55 1.532a10.078 10.078 0 0 0 2.751 3.987 16.929 16.929 0 0 0 3.035 2.011 12.243 12.243 0 0 0 6.019 1.888 6.54 6.54 0 0 0 1.27-.152 6.869 6.869 0 0 0 1.892-.694c1.367-.753 2.54-2.226 2.269-3.763a3.442 3.442 0 0 0-.275-.847 8.889 8.889 0 0 0-.775-1.223 9.187 9.187 0 0 0-2.5-2.641c-1.177-.72-2.658-.9-3.716-1.786a5.842 5.842 0 0 1-1.071-1.3 16.329 16.329 0 0 1-2.116-4.8c-.322-1.27-.538-2.662-1.465-3.594a8.955 8.955 0 0 0-4.707-1.477 3.588 3.588 0 0 1-1.8-.089c-.567-.284-.758-.686-1.443-.631a2.963 2.963 0 0 0-1.486.648 5 5 0 0 0-2.088 5.223z" class="prefix__cls-10" data-name="Path 3815" transform="translate(-237.008 -280.808)"/>
        <path id="prefix__Path_3816" d="M329.22 467.81a6.547 6.547 0 0 0 1.807 3.9c.707.609 1.693.99 2.044 1.85a3.017 3.017 0 0 1-.686 2.726 10.04 10.04 0 0 1-2.726 2.5 4.076 4.076 0 0 1-3 .732 5 5 0 0 1-2.146-1.4 14.9 14.9 0 0 1-3.742-4.533c-.847-1.9-.889-4.093-1.812-5.96a19.565 19.565 0 0 1-1.693-3.208 1.994 1.994 0 0 1 0-1.3 1.837 1.837 0 0 1 1.659-.986 5.775 5.775 0 0 1 1.985.423 43.72 43.72 0 0 0 5.854 1.638c.792.148 1.27.144 1.693.91a9.127 9.127 0 0 1 .763 2.708z" class="prefix__cls-12" data-name="Path 3816" transform="translate(-241.289 -283.687)"/>
        <path id="prefix__Path_3817" d="M356.235 500.9a4.656 4.656 0 0 0-.656 1.575 3.518 3.518 0 0 0-.047 1.329 6.869 6.869 0 0 0 1.892-.694c1.367-.753 2.54-2.226 2.269-3.763a3.441 3.441 0 0 0-.275-.847 1.181 1.181 0 0 0-1.126.351 9.35 9.35 0 0 0-2.057 2.049z" class="prefix__cls-12" data-name="Path 3817" transform="translate(-263.394 -304.647)"/>
        <path id="prefix__Path_3818" d="M321.146 424.573a2.083 2.083 0 0 0-.157 1.27c.195.847 1.062 1.333 1.845 1.719l7.445 3.64a15.593 15.593 0 0 1 1.507.8 22.192 22.192 0 0 1 3.352 2.887 8.8 8.8 0 0 0 3.725 2.307 6.294 6.294 0 0 0 4.233-.554 8.748 8.748 0 0 0 1.939-1.316 11.92 11.92 0 0 0 1.4-1.452 3.132 3.132 0 0 0 .758-1.367 3 3 0 0 0-.694-2.176 10.046 10.046 0 0 0-.847-1.05c-2.823-3.12-7.45-4.736-11.428-5.371a32.544 32.544 0 0 1-4.609-1.329 10.793 10.793 0 0 0-4.719-.622 4.672 4.672 0 0 0-3.75 2.614z" class="prefix__cls-10" data-name="Path 3818" transform="translate(-243.475 -260.48)"/>
        <path id="prefix__Path_3819" d="M321.146 424.573a2.083 2.083 0 0 0-.157 1.27c.195.847 1.062 1.333 1.845 1.719l7.445 3.64a15.593 15.593 0 0 1 1.507.8 22.192 22.192 0 0 1 3.352 2.887 8.8 8.8 0 0 0 3.725 2.307 6.294 6.294 0 0 0 4.233-.554 8.748 8.748 0 0 0 1.939-1.316 11.92 11.92 0 0 0 1.4-1.452 3.132 3.132 0 0 0 .758-1.367 3 3 0 0 0-.694-2.176 10.046 10.046 0 0 0-.847-1.05c-2.823-3.12-7.45-4.736-11.428-5.371a32.544 32.544 0 0 1-4.609-1.329 10.793 10.793 0 0 0-4.719-.622 4.672 4.672 0 0 0-3.75 2.614z" class="prefix__cls-5" data-name="Path 3819" transform="translate(-243.475 -260.48)"/>
        <path id="prefix__Path_3820" d="M357.558 432a8.466 8.466 0 0 1 1.4 2.154 2.413 2.413 0 0 1 .317 1.723 2.514 2.514 0 0 1-.775 1.016l-.741.686a2.963 2.963 0 0 1-.77.576 3.082 3.082 0 0 1-1.27.19 4.732 4.732 0 0 1-2.874-.6 3.182 3.182 0 0 1-.8-3.708 8 8 0 0 1 2.62-3.077c.861-.694 2.288.402 2.893 1.04z" class="prefix__cls-12" data-name="Path 3820" transform="translate(-261.255 -265.584)"/>
        <path id="prefix__Path_3821" d="M376.015 441.326a3.763 3.763 0 0 0 .19 2.1c.186.635.368 1.27.55 1.917v.025a11.925 11.925 0 0 0 1.4-1.452 3.132 3.132 0 0 0 .758-1.367 3 3 0 0 0-.694-2.176 10.051 10.051 0 0 0-.847-1.05c-.2.258-.372.512-.516.677a3.737 3.737 0 0 0-.841 1.326z" class="prefix__cls-12" data-name="Path 3821" transform="translate(-275.192 -270.532)"/>
        <path id="prefix__Path_3822" d="M329.081 332.152c-.876 3.682-.5 7.534-.038 11.293.356 2.861.753 5.824-.093 8.58a6.9 6.9 0 0 0-.618 3.136c.36 2 2.772 2.772 4.77 3.149a4.7 4.7 0 0 0 1.765.106 4.19 4.19 0 0 0 1.608-.847 17.583 17.583 0 0 0 6.192-8.233 30.458 30.458 0 0 0 1.232-6.882 48.159 48.159 0 0 0 .212-11.754c-.169-1.143-.423-2.273-.529-3.424a24.745 24.745 0 0 1 .33-5.989 96.619 96.619 0 0 1 3.3-14.451 19.471 19.471 0 0 1-11.712-2.116c.694.372-.1 6.311-.186 7.145a48.5 48.5 0 0 1-1.342 7.365c-1.183 4.516-3.82 8.436-4.891 12.922z" class="prefix__cls-10" data-name="Path 3822" transform="translate(-247.707 -192.905)"/>
        <path id="prefix__Path_3823" d="M329.081 332.152c-.876 3.682-.5 7.534-.038 11.293.356 2.861.753 5.824-.093 8.58a6.9 6.9 0 0 0-.618 3.136c.36 2 2.772 2.772 4.77 3.149a4.7 4.7 0 0 0 1.765.106 4.19 4.19 0 0 0 1.608-.847 17.583 17.583 0 0 0 6.192-8.233 30.458 30.458 0 0 0 1.232-6.882 48.159 48.159 0 0 0 .212-11.754c-.169-1.143-.423-2.273-.529-3.424a24.745 24.745 0 0 1 .33-5.989 96.619 96.619 0 0 1 3.3-14.451 19.471 19.471 0 0 1-11.712-2.116c.694.372-.1 6.311-.186 7.145a48.5 48.5 0 0 1-1.342 7.365c-1.183 4.516-3.82 8.436-4.891 12.922z" class="prefix__cls-5" data-name="Path 3823" transform="translate(-247.707 -192.905)"/>
        <path id="prefix__Path_3824" d="M345.374 303.209c1.693 4.906 1.321 10.264.588 15.4s-1.812 10.277-1.494 15.454c.123 2.032.453 4.118-.14 6.061a13.25 13.25 0 0 1-1.3 2.7l-13.507 23.356a4.2 4.2 0 0 1-3.386 2.116 9.807 9.807 0 0 1-4.207-.9 7.569 7.569 0 0 1-2.451-1.359 2.9 2.9 0 0 1-1.033-2.48c.605-4.055 1.515-8.207 2.188-12.275a21.249 21.249 0 0 1 2.938-7.776c1.045-1.693 2.332-3.213 3.234-4.973 2.59-5.045 1.693-11.2-.3-16.508s-4.973-10.235-6.561-15.661a17.954 17.954 0 0 1-.8-4.656 12.415 12.415 0 0 1 3.539-8.829 3.1 3.1 0 0 1 1.223-.847 3.428 3.428 0 0 1 1.668.03c7.517 1.467 17.316 3.901 19.801 11.147z" class="prefix__cls-10" data-name="Path 3824" transform="translate(-242.023 -185.54)"/>
        <path id="prefix__Path_3825" d="M629.545 137.674a8.5 8.5 0 0 1-1.376 5.333 15.083 15.083 0 0 1-18.328 5.871 29.275 29.275 0 0 1-7.077-4.94 6.3 6.3 0 0 1-1.875-2.2 4.271 4.271 0 0 1 1.426-4.614 12.121 12.121 0 0 1 4.626-2.2c5.491-1.703 21.296-7.095 22.604 2.75z" class="prefix__cls-12" data-name="Path 3825" transform="translate(-404.787 -93.243)"/>
        <path id="prefix__Path_3826" d="M645.068 131.565c5 4.021 12.275 7.852 17.938 10.832 1.926 1.016 4.063 2.159 4.758 4.233a8.24 8.24 0 0 1 .127 3.484 23.5 23.5 0 0 1-1.35 6.616c-1.02 2.442-2.823 4.457-4.271 6.675-2.54 3.886-4.03 8.465-7.166 11.9 2.116 7.031 4.432 14.053 5.185 21.35a.982.982 0 0 1-.063.6 1.024 1.024 0 0 1-.33.3L654.629 201a5.927 5.927 0 0 0-1.52 1.27c-.931 1.211-.808 2.912-1.384 4.322a5.617 5.617 0 0 1-3.259 2.963 10.036 10.036 0 0 1-4.482.474 10.421 10.421 0 0 1-5.35-1.884 14.8 14.8 0 0 1-3.221-3.848 14.98 14.98 0 0 1-1.693-3.086 13.9 13.9 0 0 1-.576-4.914 51.948 51.948 0 0 1 .9-9.409c.246-1.232.55-2.447.745-3.687.389-2.5.313-5.045.6-7.555a50.814 50.814 0 0 1 1.884-8.326 42.933 42.933 0 0 0 1.1-5.122 56.159 56.159 0 0 1 2.468-8.889l1.693-5c.36-1.079.724-2.154 1.151-3.208a24.968 24.968 0 0 0 2.091-5.985c.3-2.29-2.171-5.007-1.338-7.158.071-.232.439-.545.63-.393z" class="prefix__cls-10" data-name="Path 3826" transform="translate(-423.522 -93.018)"/>
        <path id="prefix__Path_3827" d="M670.833 164.42a4.8 4.8 0 0 1 2.239 3.009 17.059 17.059 0 0 1 .66 8.55 15.3 15.3 0 0 0-.339 2.184 14.564 14.564 0 0 0 .25 2.54c.423 3.238 0 6.527.14 9.795.144 3.674.944 7.555-.6 10.9a15.564 15.564 0 0 1-4.876 5.367 97.573 97.573 0 0 1-23.352 13.477 6.113 6.113 0 0 0 .508-6.391 11.886 11.886 0 0 0-4.656-4.775 30 30 0 0 0 7.005-2.5c4.436-2.252 8.237-5.549 11.991-8.813a3.648 3.648 0 0 0 1.244-1.575c.381-1.27-.669-2.476-1.4-3.589-2.205-3.386-1.693-7.809-.77-11.729 1.029-4.3 2.54-8.576 5.3-12.029a11.9 11.9 0 0 1 6.656-4.421z" class="prefix__cls-10" data-name="Path 3827" transform="translate(-427.946 -111.99)"/>
        <path id="prefix__Path_3828" d="M630.022 282.254a5.787 5.787 0 0 1-1.456 1.6c-1.27.847-3.014.525-4.432-.076a12.93 12.93 0 0 1-3.6-2.29 5.638 5.638 0 0 0-1.6-1.185c-1.109-.423-2.658-.106-3.28-1.126a.6.6 0 0 1-.1-.364c.038-.368.521-.47.893-.491a11.086 11.086 0 0 0 4.9-1.511 4.7 4.7 0 0 1-1.2-1.27.991.991 0 0 1-.2-.6 1.075 1.075 0 0 1 .368-.6 9.422 9.422 0 0 1 10.362-1.727 2.066 2.066 0 0 1 .846.635 2.349 2.349 0 0 1 .309.847c.275 1.185 1.27 2.963.91 4.161-.4 1.372-1.903 2.833-2.72 3.997z" class="prefix__cls-12" data-name="Path 3828" transform="translate(-413.383 -173.901)"/>
        <path id="prefix__Path_3829" d="M574.97 188.632c5.266-6.082 7.619-14.087 9.8-21.828l1.562-5.5 3.767-13.253c.555-1.956 1.109-3.911 1.477-5.9a54.644 54.644 0 0 0 .652-10.455 11.315 11.315 0 0 0-.978-4.2c-.368-.914-.546-1.888-.847-2.832a14.13 14.13 0 0 0-1.7-3.721 3.9 3.9 0 0 0-.766-.914 4.453 4.453 0 0 0-1.731-.7 15.238 15.238 0 0 0-4.144-.631 5.136 5.136 0 0 0-3.759 1.6 19.471 19.471 0 0 0-1.553 2.794 10.889 10.889 0 0 0-.69 1.172 5.927 5.927 0 0 0-.381 1.922q-.33 4-.563 8.008c-.072 1.215-.135 2.438-.089 3.657.038.948.14 1.892.241 2.836l1 9.244c.233 2.171.068 4.2.262 6.379.474 5.253-.656 10.506-1.816 15.661a28.17 28.17 0 0 1-2.311 7.153c-1.045 1.964-2.612 3.958-2.2 6.146a21.336 21.336 0 0 1 .588 2.243 4.5 4.5 0 0 0 .14 1.418 1.693 1.693 0 0 0 1.807.847 4.2 4.2 0 0 0 2.232-1.146z" class="prefix__cls-10" data-name="Path 3829" transform="translate(-387.194 -85.616)"/>
        <path id="prefix__Path_3830" d="M571.176 218.32c.161 1.215.038 2.447.1 3.67a24.751 24.751 0 0 0 .847 4.656c.423 1.693.965 3.589 2.459 4.529a7.728 7.728 0 0 1 1.071.673 1.041 1.041 0 0 1 .347 1.134l-1.164-.195a1.181 1.181 0 1 1-1.625 1.693 2.754 2.754 0 0 1-.106 1.134.923.923 0 0 1-.846.635 1.363 1.363 0 0 1-.605-.254l-3.039-1.884a5.608 5.608 0 0 1-2.192-2.111l-1.329-2a4.784 4.784 0 0 1-.69-1.27c-.5-1.693.889-3.572.169-5.168a6.95 6.95 0 0 0-.758-1.109c-1.536-2.116-1.439-4.995-1.27-7.619.055-.885.216-1.934 1.016-2.32a2.087 2.087 0 0 1 1.985.351 8.43 8.43 0 0 0 1.778 1.122c.423.144.889.161 1.312.313.593.207 1.143 1.016 1.541 1.494a4.956 4.956 0 0 1 .999 2.526z" class="prefix__cls-12" data-name="Path 3830" transform="translate(-382.757 -139.647)"/>
        <path id="prefix__Path_3831" d="M478.025 104.542a7.525 7.525 0 0 1-1.49 2.226 2.882 2.882 0 0 1-2.455.847 4.334 4.334 0 0 1-2.252-1.693 29.526 29.526 0 0 1-4.364-6.1c-1.668-3.441-1.934-7.369-2.176-11.183a5.307 5.307 0 0 1 .36-2.882 5.3 5.3 0 0 1 3.031-2.049l6.455-2.413a2.5 2.5 0 0 1 1.27-.233c1.012.169 1.384 1.388 1.659 2.375a14.815 14.815 0 0 0 2.413 4.91c1.448 1.93 4.694 4.529 2.84 6.937a53.243 53.243 0 0 0-5.291 9.258z" class="prefix__cls-11" data-name="Path 3831" transform="translate(-326.697 -63.909)"/>
        <path id="prefix__Path_3832" d="M463.349 96.189c2.827 2.658 3.784 6.8 3.649 10.671s-1.211 7.649-1.824 11.475-.736 7.911.927 11.428a28.76 28.76 0 0 1 1.748 3.6 11.289 11.289 0 0 1 .334 3.864 11.034 11.034 0 0 1-.77 4c-.9 2-2.756 3.386-4.529 4.656-3.619 2.616-7.31 5.274-11.56 6.641a35.416 35.416 0 0 1-8.94 1.4 28.435 28.435 0 0 1-6.12-.174 16.622 16.622 0 0 1-9.291-4.918 5.206 5.206 0 0 1-1.054-1.452 6.031 6.031 0 0 1-.368-2.2q-.152-4.169.051-8.338a36.654 36.654 0 0 1 1.088-7.852c.808-2.963 2.209-5.74 3.272-8.626 3.7-10.036 3.327-21.456 8.465-30.827 1.109-2.023 2.963-4.152 5.249-3.831a1.761 1.761 0 0 1 1.16.533 2.442 2.442 0 0 1 .423 1.3c.546 4.554 1.321 9.227 3.467 13.337.847 1.613 2.116 4.068 4.068 4.5s3.1-1.431 4.148-2.751a33.782 33.782 0 0 1 6.408-6.43z" class="prefix__cls-13" data-name="Path 3832" transform="translate(-303.763 -66.569)"/>
        <path id="prefix__Path_3833" d="M523.4 90.7a8.437 8.437 0 0 1 1.6 1.126 6.487 6.487 0 0 1 1.727 4.787 37.216 37.216 0 0 1-.677 5.189c-.681 4.656-.1 9.422.169 14.137a6.845 6.845 0 0 1-.135 2.277c-.207.711-.635 1.338-.91 2.027-.808 2.04-.2 4.368-.673 6.51-.508 2.281-2.248 4.355-1.922 6.671.131.906.567 1.74.753 2.637a2.318 2.318 0 0 1-.749 2.463c-.775.483-1.9.131-2.823.4a8.7 8.7 0 0 0-1.092.491 5.365 5.365 0 0 1-4.533-.279 13.738 13.738 0 0 1-3.661-2.9 15.05 15.05 0 0 1-3.881-5.655c-1.033-3.183-.114-6.65 1.007-9.807s2.459-6.349 2.26-9.706a42.778 42.778 0 0 0-1.058-5.532 35.386 35.386 0 0 1-.47-7.746 13.777 13.777 0 0 1 1-5.566 7.665 7.665 0 0 1 6.068-4.154c2.959-.321 5.5 1.19 8 2.63z" class="prefix__cls-10" data-name="Path 3833" transform="translate(-350.282 -67.932)"/>
        <path id="prefix__Path_3834" d="M527.932 163.184a12.9 12.9 0 0 0 .72 3.975 15.814 15.814 0 0 0 .948-5.545 108.992 108.992 0 0 1 3.386-18.844c-1.113.847-1.74 2.963-2.273 4.233a37.324 37.324 0 0 0-2.781 16.181z" class="prefix__cls-5" data-name="Path 3834" transform="translate(-362.818 -99.504)"/>
        <path id="prefix__Path_3835" d="M413.241 84.108c-2.04.538-3.809 1.748-5.786 2.54a43.214 43.214 0 0 1-6.417 1.727c-4.986 1.211-9.993 3.458-13 7.619-2.218 3.06-3.136 6.84-4.656 10.307-1.27 2.908-2.963 5.634-3.9 8.66-1.223 3.949-1.084 8.182-.783 12.3.246 3.386.618 6.81 2.154 9.811.8 1.575 1.913 2.984 2.717 4.559.965 1.892 1.473 3.979 2.277 5.926a9.466 9.466 0 0 0 3.852 4.91l3.09-1.807c4.609-2.7 9.219-5.4 13.684-8.326 3.894-2.54 7.822-5.456 9.9-9.629 1.837-3.687 2.019-8 1.545-12.089s-1.558-8.1-2.116-12.178a49.04 49.04 0 0 1 .317-15.454c.423-2.3 1.549-4.681 1.782-6.976.254-2.446-2.895-2.366-4.66-1.9z" class="prefix__cls-10" data-name="Path 3835" transform="translate(-276.66 -65.523)"/>
        <path id="prefix__Path_3836" d="M403.931 236.235c2.366 2.239 5.769 2.891 8.728 4.233a18.739 18.739 0 0 1 5.828 4.233c.91 1 1.79 2.358 1.333 3.627a4.046 4.046 0 0 1-2.65 2.057 6.025 6.025 0 0 1-4.19.444 15.049 15.049 0 0 1-2.146-1.329c-1.773-1.054-4.008-1.058-5.828-2.032-2.565-1.371-3.843-4.389-6.256-6.019-1.321-.889-3.145-1.617-3.28-3.2a3.873 3.873 0 0 1 .356-1.663c.487-1.3 1.316-5.744 3.17-5.625 2.019.127 3.432 4.203 4.935 5.274z" class="prefix__cls-12" data-name="Path 3836" transform="translate(-286.452 -150.362)"/>
        <path id="prefix__Path_3837" d="M355.938 180.272a20.249 20.249 0 0 0 4.44 7.369c1.342 1.587 2.815 3.314 2.861 5.393a5.683 5.683 0 0 1-2.963 4.775 12.554 12.554 0 0 1-5.646 1.452 14.243 14.243 0 0 1-4.681-.326c-3.869-1.05-6.552-4.423-9.6-7.031-1.807-1.545-3.839-2.891-5.223-4.825s-1.968-4.711-.605-6.662a9.642 9.642 0 0 1 1.693-1.693 28.3 28.3 0 0 0 5.837-7.005 7.546 7.546 0 0 1 2.281-2.853c1.511-.919 3.45-.5 5.16-.051 1.858.487 7.094 1.439 7.458 3.809.148.974-1.058 2.489-1.24 3.534a9.363 9.363 0 0 0 .224 4.114z" class="prefix__cls-12" data-name="Path 3837" transform="translate(-250.857 -114.238)"/>
        <path id="prefix__Path_3838" d="M355.371 194.358a17.873 17.873 0 0 1 1.363 3.153c1.291 4.487-1.016 9.109-2.116 13.646-1.405 5.812-.808 11.89-.876 17.871-.03 2.734-.322 5.744-2.29 7.64a7.093 7.093 0 0 0-1.46 1.5 6.2 6.2 0 0 0-.47 1.4 7.221 7.221 0 0 1-10.463 4.309c-1.6-.893-3-2.442-4.834-2.489a14.017 14.017 0 0 0-1.723.19 11.82 11.82 0 0 1-5.333-1.16 3.48 3.48 0 0 1-1.126-.6c-.309-.284-.508-.665-.792-.969-1.045-1.126-2.832-.931-4.339-1.244a6.074 6.074 0 0 1-4.6-4.6 11.872 11.872 0 0 1 .207-4.432l1.134-6.544a60.245 60.245 0 0 0 .986-7.268 30.475 30.475 0 0 0-.7-8.216 65.835 65.835 0 0 1-1.515-6.6 16.122 16.122 0 0 1 2.963-11.348 3.521 3.521 0 0 1 2.358-1.693 3.963 3.963 0 0 1 2.269.775q9.155 5.418 18.438 10.611a21.815 21.815 0 0 0 5.312 2.379c.567.144 1.38.085 1.46-.491a1.071 1.071 0 0 0-.165-.622c-1.058-2.036-2.59-3.784-3.809-5.723a9.7 9.7 0 0 1-1.8-6.485c.491-3.115 3.386-5.177 5.752-2.734 2.652 2.773 4.43 6.337 6.169 9.744z" class="prefix__cls-14" data-name="Path 3838" transform="translate(-240.719 -123.016)"/>
        <path id="prefix__Path_3839" d="M348.576 293.989c4.965.317 10.04.656 14.637 2.561 1.477.61 3.043 1.4 4.6 1.02a6.145 6.145 0 0 0 2.116-1.134 48.417 48.417 0 0 0 5.409-4.614c-.169-.927-1.426-1.054-2.366-1.046a14.142 14.142 0 0 1-6.586-1.583 11.1 11.1 0 0 0-2.116-.986c-2.011-.555-4.059.5-6.078 1.02-2.988.762-6.137.317-9.189-.131l-8.237-1.215a2.943 2.943 0 0 0-2.239.275 2.735 2.735 0 0 0-.8 1.435c-1.007 3.386-.525 3.67 2.827 3.881z" class="prefix__cls-12" data-name="Path 3839" transform="translate(-252.878 -183.143)"/>
        <circle id="prefix__Ellipse_748" cx="13.545" cy="13.545" r="13.545" class="prefix__cls-5" data-name="Ellipse 748" transform="translate(194.625 24.989)"/>
        <circle id="prefix__Ellipse_749" cx="13.545" cy="13.545" r="13.545" class="prefix__cls-12" data-name="Ellipse 749" transform="translate(194.528 24.401)"/>
        <path id="prefix__Path_3840" d="M622.114 84.357a7.22 7.22 0 0 1 2.811 2.514 12.592 12.592 0 0 1 .724 2.37c.741 2.54 2.713 4.745 2.832 7.39.131 2.9-2.044 5.418-4.508 6.937a3.344 3.344 0 0 1-1.939.652 6.234 6.234 0 0 1-1.989-.783c-2.781-1.236-5.892.33-8.838 1.05a15.864 15.864 0 0 1-9.227-.542 8.731 8.731 0 0 1-4.123-2.857 4.524 4.524 0 0 1-.5-4.779c.423-.753 1.126-1.435 1.079-2.294a11.872 11.872 0 0 0-.423-1.49 3.427 3.427 0 0 1 .72-2.286 33.083 33.083 0 0 1 7.323-8.283 5.238 5.238 0 0 1 2.933-1.422c2.226-.1 4.14 1.562 6.43 1.57a12.028 12.028 0 0 1 6.695 2.253z" class="prefix__cls-10" data-name="Path 3840" transform="translate(-402.609 -63.608)"/>
        <circle id="prefix__Ellipse_750" cx="13.968" cy="13.968" r="13.968" class="prefix__cls-5" data-name="Ellipse 750" transform="translate(144.243 7.148)"/>
        <circle id="prefix__Ellipse_751" cx="13.968" cy="13.968" r="13.968" class="prefix__cls-11" data-name="Ellipse 751" transform="translate(144.488 6.806)"/>
        <path id="prefix__Path_3841" d="M496.606 69.223a9.329 9.329 0 0 0 6.607.487 8.889 8.889 0 0 0 3.471-1.465 4.186 4.186 0 0 0 1.748-3.217c0-1.418-.931-2.7-1.045-4.114-.14-1.786 1.024-3.437 1.147-5.232s-.762-3.412-1.625-4.952a27.731 27.731 0 0 0-5.291-7.348c-2.26-2.023-5.393-3.314-8.355-2.633-1.456.334-2.806 1.117-4.292 1.27a18.088 18.088 0 0 1-3.941-.444 4.524 4.524 0 0 0-3.737.847c-.516.508-.847 1.223-1.452 1.6a8.712 8.712 0 0 1-1.27.47c-1.528.614-2.226 2.336-2.768 3.886l-3.633 10.403a29.124 29.124 0 0 0 4.008 1.884 4.849 4.849 0 0 1 2.891 3.149c.207 1.1-.186 2.375.457 3.3a2.863 2.863 0 0 0 2.8.847 10.577 10.577 0 0 1 3.052-.339c2.54.385 3.484 1.943 5.833 0s3.21.378 5.395 1.601z" class="prefix__cls-10" data-name="Path 3841" transform="translate(-330.687 -40.56)"/>
        <circle id="prefix__Ellipse_752" cx="12.698" cy="12.698" r="12.698" class="prefix__cls-5" data-name="Ellipse 752" transform="translate(86.398 39.575)"/>
        <circle id="prefix__Ellipse_753" cx="12.698" cy="12.698" r="12.698" class="prefix__cls-12" data-name="Ellipse 753" transform="translate(86.889 38.885)"/>
        <path id="prefix__Path_3842" d="M345.1 124.663a33.49 33.49 0 0 0-10.044-5.282 12.285 12.285 0 0 0-7.2-.576c-3.191.91-7.462 2.269-9.439 4.94a14.149 14.149 0 0 0-2.43 4.233c-.94 3.158.4 6.523.309 9.816-.106 3.839-2.142 7.344-4.364 10.476s-2.671 7.619-3.983 11.234c-.449 1.24-.593 2.963.563 3.585 1.016.563 2.243-.14 3.183-.817l5.651-4.085a4.3 4.3 0 0 1 1.49-.8c1.164-.271 2.3.457 3.276 1.147l11.852 8.381a3.636 3.636 0 0 0 .055-3.081 11.979 11.979 0 0 1 2.9 1.93c.978.66 2.463.876 3.175-.047s.174-2.163-.618-2.908-1.833-1.189-2.607-1.956c-1.536-1.528-1.693-3.941-2.662-5.871-.694-1.354-1.816-2.489-2.307-3.932-.8-2.358.245-4.9 1.27-7.166 1.223-2.692 2.607-5.566 5.21-6.971.876-.474 1.845-.753 2.743-1.185a14.788 14.788 0 0 0 6.116-5.862c.955-2.007-.518-3.95-2.139-5.203z" class="prefix__cls-10" data-name="Path 3842" transform="translate(-235.786 -85.494)"/>
        <path id="prefix__Path_3843" d="M323.921 231.665c1.215.775 2.586 1.27 3.78 2.078a4.613 4.613 0 0 1 2.273 3.475 6.11 6.11 0 0 1-1.693 3.674l-10.311 13.532 5.257 1.393a13.733 13.733 0 0 0-1.5 4.03c-.44 1.371-1.27 2.8-2.675 3.158-1.27.326-2.6-.343-3.911-.267-.969.059-1.884.516-2.853.555a6.059 6.059 0 0 1-3.45-1.3c-2.32-1.553-4.622-3.78-4.605-6.573a9.943 9.943 0 0 1 .563-2.768c1.52-4.957 3.094-10.032 6.243-14.154a44.438 44.438 0 0 1 5.833-5.9 5.439 5.439 0 0 1 1.634-1.13c1.354-.508 2.832.119 4.233.525s3.166.466 3.975-.732" class="prefix__cls-5" data-name="Path 3843" transform="translate(-233.831 -150.532)"/>
        <path id="prefix__Path_3844" d="M322.876 229.654c1.215.77 2.586 1.27 3.78 2.078a4.629 4.629 0 0 1 2.277 3.471 5.949 5.949 0 0 1-1.693 3.678L316.925 252.4l5.257 1.393a13.687 13.687 0 0 0-1.5 4.03c-.44 1.376-1.27 2.8-2.675 3.158-1.27.326-2.6-.343-3.911-.267-.969.055-1.884.516-2.853.55a6.059 6.059 0 0 1-3.45-1.3c-2.32-1.549-4.622-3.78-4.6-6.569a9.737 9.737 0 0 1 .559-2.768c1.52-4.961 3.094-10.036 6.243-14.154a45.641 45.641 0 0 1 5.833-5.926 5.6 5.6 0 0 1 1.634-1.13c1.354-.508 2.832.119 4.233.529s3.166.466 3.975-.732" class="prefix__cls-14" data-name="Path 3844" transform="translate(-233.231 -149.356)"/>
        <g id="prefix__Group_624" class="prefix__cls-15" data-name="Group 624" transform="translate(194.268 26.771)">
            <path id="prefix__Path_3845" d="M598.3 119.638a8.722 8.722 0 0 0 4.123 2.857 15.793 15.793 0 0 0 9.227.542c2.963-.72 6.057-2.286 8.838-1.05a6.222 6.222 0 0 0 1.985.787 3.386 3.386 0 0 0 1.943-.656 10.015 10.015 0 0 0 4.042-4.415 1.089 1.089 0 0 0 .025.284c.131 2.9-2.044 5.418-4.508 6.937a3.344 3.344 0 0 1-1.939.652 6.233 6.233 0 0 1-1.989-.783c-2.781-1.236-5.892.33-8.838 1.05a15.864 15.864 0 0 1-9.227-.542 8.731 8.731 0 0 1-4.123-2.857 4.524 4.524 0 0 1-.5-4.779l.063-.106a5.178 5.178 0 0 0 .878 2.079z" data-name="Path 3845" transform="translate(-596.877 -111.736)"/>
            <path id="prefix__Path_3846" d="M600.354 104.63a2.969 2.969 0 0 1-.737 1.752 2.678 2.678 0 0 1-.123-.423 3.264 3.264 0 0 1 .639-2.159 2.816 2.816 0 0 1 .22.83z" data-name="Path 3846" transform="translate(-598.372 -103.8)"/>
        </g>
        <path id="prefix__Path_3847" d="M476.781 53.259l-3.632 10.4a28.636 28.636 0 0 0 4.008 1.884 4.84 4.84 0 0 1 2.891 3.149c.207 1.1-.186 2.375.457 3.3a2.873 2.873 0 0 0 2.8.847 10.726 10.726 0 0 1 3.052-.339c2.54.385 3.484 1.943 5.833.021s3.2.36 5.384 1.587a9.284 9.284 0 0 0 6.607.487 8.889 8.889 0 0 0 3.471-1.46 5.4 5.4 0 0 0 .423-.385 4.715 4.715 0 0 1-1.422 1.761 8.888 8.888 0 0 1-3.471 1.465c-2.2.5-4.656.618-6.607-.487-2.184-1.227-3.081-3.467-5.384-1.587s-3.3.364-5.833 0a10.593 10.593 0 0 0-3.052.339 2.861 2.861 0 0 1-2.8-.847c-.643-.923-.25-2.193-.457-3.3a4.84 4.84 0 0 0-2.891-3.149 29.125 29.125 0 0 1-4.008-1.884l3.65-10.427a8.457 8.457 0 0 1 1.735-3.2 14.214 14.214 0 0 0-.753 1.829z" class="prefix__cls-5" data-name="Path 3847" transform="translate(-330.675 -46.825)"/>
        <g id="prefix__Group_625" class="prefix__cls-15" data-name="Group 625" transform="translate(71.837 37.624)">
            <path id="prefix__Path_3848" d="M364.36 170.616a2.217 2.217 0 0 0 2.709-.3c.665-.847.174-2.159-.618-2.908s-1.833-1.189-2.607-1.956c-1.536-1.524-1.693-3.936-2.662-5.867-.694-1.359-1.816-2.493-2.307-3.936-.8-2.353.245-4.9 1.27-7.162 1.223-2.692 2.607-5.566 5.211-6.971.876-.474 1.845-.753 2.743-1.185a14.8 14.8 0 0 0 6.116-5.867c.919-1.909-.377-3.763-1.917-5.02.749.487 1.481 1 2.193 1.545 1.63 1.27 3.1 3.2 2.116 5.2a14.788 14.788 0 0 1-6.116 5.862c-.9.423-1.867.711-2.743 1.185-2.6 1.405-3.987 4.279-5.211 6.971-1.029 2.269-2.074 4.808-1.27 7.166.491 1.443 1.613 2.578 2.307 3.932.982 1.93 1.126 4.343 2.662 5.871.775.766 1.816 1.206 2.607 1.956s1.27 2.044.618 2.908-2.2.686-3.175.047c-.656-.451-1.253-1.035-1.926-1.471z" data-name="Path 3848" transform="translate(-337.02 -129.44)"/>
            <path id="prefix__Path_3849" d="M309.3 211.123l5.651-4.08a4.318 4.318 0 0 1 1.49-.8c1.164-.267 2.3.461 3.276 1.151l11.852 8.381a3.645 3.645 0 0 0 .055-3.086 11.807 11.807 0 0 1 2.823 1.879 3.162 3.162 0 0 0-.423-.157 3.636 3.636 0 0 1-.055 3.081l-11.852-8.381c-.974-.69-2.116-1.418-3.276-1.147a4.3 4.3 0 0 0-1.49.8l-5.651 4.085c-.94.677-2.167 1.38-3.183.817a1.858 1.858 0 0 1-.885-1.634 6.134 6.134 0 0 0 1.668-.909z" data-name="Path 3849" transform="translate(-307.628 -173.702)"/>
        </g>
        <path id="prefix__Path_3850" d="M605.479 276.464s-24.253 1.943-29.079-1.494l22.188-3.42z" class="prefix__cls-13" data-name="Path 3850" transform="translate(-390.799 -173.775)"/>
        <path id="prefix__Path_3851" d="M605.479 276.464s-24.253 1.943-29.079-1.494l22.188-3.42z" class="prefix__cls-5" data-name="Path 3851" transform="translate(-390.799 -173.775)"/>
        <path id="prefix__Path_3852" d="M600.663 271.158l-6.794-4.3s-20.266 5.824-25.82 3.42l5.651-7.928 20.08 3.915z" class="prefix__cls-13" data-name="Path 3852" transform="translate(-385.983 -168.469)"/>
        <path id="prefix__Path_3853" d="M560.721 135.73a11.9 11.9 0 0 0-1.782 3.128c-.195.6-.292 1.219-.457 1.824a14.02 14.02 0 0 1-2.116 4.195c-2.087 3.035-4.694 5.964-5.219 9.608a16.2 16.2 0 0 0 .381 5.409 14.6 14.6 0 0 0 1 3.416c.538 1.16 1.338 2.18 1.951 3.3a23.452 23.452 0 0 1 1.414 3.42 16.78 16.78 0 0 0 1.731-2.54 3.263 3.263 0 0 1 2.463-1.621c1.177 0 2.146.974 3.31 1.126a.944.944 0 0 0 .542-.051c.423-.2.457-.77.423-1.227-.334-3.2-2.163-6.349-1.3-9.447.8-2.866 3.64-4.656 5.134-7.225a16.592 16.592 0 0 0 1.693-6.209 38.474 38.474 0 0 0 .563-7.72c-.08-1.3-1.113-9.511-3-8.652-.656.3-1.228 1.553-1.638 2.116l-1.693 2.4z" class="prefix__cls-10" data-name="Path 3853" transform="translate(-376.178 -90.064)"/>
        <path id="prefix__Path_3854" d="M273.876 231.248l-13.617 11.086-17.519-3.134 11.8-9.261z" class="prefix__cls-13" data-name="Path 3854" transform="translate(-139.995 -132.609)"/>
        <path id="prefix__Path_3855" d="M275.036 229.618L261.419 240.7l-17.519-3.129 11.8-9.261z" class="prefix__cls-5" data-name="Path 3855" transform="translate(-140.664 -131.669)"/>
        <path id="prefix__Path_3856" d="M274.8 228.222L261.183 239.3l-17.523-3.128 11.8-9.265z" class="prefix__cls-13" data-name="Path 3856" transform="translate(-140.525 -130.862)"/>
        <path id="prefix__Path_3857" d="M275.73 225.2l-13.621 11.086-17.519-3.132 11.8-9.261z" class="prefix__cls-5" data-name="Path 3857" transform="translate(-141.062 -129.12)"/>
        <path id="prefix__Path_3858" d="M275.5 223.808l-13.617 11.086-17.519-3.132 11.8-9.261z" class="prefix__cls-13" data-name="Path 3858" transform="translate(-140.929 -128.318)"/>
        <path id="prefix__Path_3859" d="M874.963 623.7a2.193 2.193 0 0 1 3.145 1.8l.758 9.824-4.5.813-2.37-7.1z" class="prefix__cls-10" data-name="Path 3859" transform="translate(-561.28 -376.741)"/>
        <path id="prefix__Path_3860" d="M410.156 467.727l-68.794 34.912a4.787 4.787 0 0 0 .034 8.546l148.167 74.356a17.985 17.985 0 0 0 16.9-.423l62.407-35.191a4.787 4.787 0 0 0-.284-8.465l-154.2-73.781a4.787 4.787 0 0 0-4.23.046z" class="prefix__cls-10" data-name="Path 3860" transform="translate(-253.74 -286.618)"/>
        <path id="prefix__Path_3861" d="M340.663 536.56l-2.154 1.6-.169 7.661a3.183 3.183 0 0 0 1.727 2.9l150.7 77.332a2.243 2.243 0 0 0 3.272-1.994v-11.124z" class="prefix__cls-10" data-name="Path 3861" transform="translate(-253.502 -326.613)"/>
        <path id="prefix__Path_3862" d="M410.147 446.744l-68.794 34.907a4.787 4.787 0 0 0 .021 8.546l148.179 74.356a18 18 0 0 0 16.9-.423l62.407-35.2a4.787 4.787 0 0 0-.284-8.465l-154.2-73.776a4.787 4.787 0 0 0-4.228.051z" class="prefix__cls-13" data-name="Path 3862" transform="translate(-253.731 -274.515)"/>
        <path id="prefix__Path_3863" d="M299.9 421.86l-75.8 38.488 130.279 65.142 78.17-39.678z" class="prefix__cls-10" data-name="Path 3863" transform="translate(-129.245 -243.295)"/>
        <ellipse id="prefix__Ellipse_754" cx="7.996" cy="4.736" class="prefix__cls-10" data-name="Ellipse 754" rx="7.996" ry="4.736" transform="translate(264.812 260.879)"/>
        <circle id="prefix__Ellipse_755" cx=".741" cy=".741" r=".741" class="prefix__cls-10" data-name="Ellipse 755" transform="translate(126.241 190.112)"/>
        <circle id="prefix__Ellipse_756" cx=".889" cy=".889" r=".889" class="prefix__cls-10" data-name="Ellipse 756" transform="translate(123.875 195.738)"/>
        <path id="prefix__Line_123" d="M0 4.144L8.884 0" data-name="Line 123" transform="translate(128.019 191.001)" style="stroke:#3f3d56;fill:none;stroke-miterlimit:10"/>
        <rect id="prefix__Rectangle_1688" width="44.198" height="15.238" class="prefix__cls-3" data-name="Rectangle 1688" rx="7.619" transform="rotate(-30 521.75 -210.287)"/>
        <rect id="prefix__Rectangle_1689" width="44.198" height="15.238" class="prefix__cls-3" data-name="Rectangle 1689" rx="7.619" transform="rotate(-30 554.296 -246.433)"/>
        <rect id="prefix__Rectangle_1690" width="44.198" height="15.238" class="prefix__cls-3" data-name="Rectangle 1690" rx="7.619" transform="rotate(-30 487.11 -178.935)"/>
    </g>
</svg>
