<svg xmlns="http://www.w3.org/2000/svg" xmlns:xlink="http://www.w3.org/1999/xlink" width="425.804" height="321.177" viewBox="0 0 425.804 321.177">
    <defs>
        <linearGradient id="prefix__linear-gradient" x1=".877" x2=".877" y1="1" gradientUnits="objectBoundingBox">
            <stop offset="0" stop-color="gray" stop-opacity=".251"/>
            <stop offset=".54" stop-color="gray" stop-opacity=".122"/>
            <stop offset="1" stop-color="gray" stop-opacity=".102"/>
        </linearGradient>
        <linearGradient id="prefix__linear-gradient-2" x1=".5" x2=".5" y1="1" y2="0" xlink:href="#prefix__linear-gradient"/>
        <style>
            .prefix__cls-2,.prefix__cls-6{fill:#6c63ff}.prefix__cls-2,.prefix__cls-4,.prefix__cls-8{opacity:.1}.prefix__cls-3{fill:#fff}.prefix__cls-5{opacity:.2}.prefix__cls-7{fill:#ffd2c6}.prefix__cls-9{fill:#626696}.prefix__cls-13{fill:#cc818c}.prefix__cls-14{fill:#444053}.prefix__cls-15{opacity:.05}.prefix__cls-16{fill:#ff748f}.prefix__cls-17,.prefix__cls-19{fill:#575988}.prefix__cls-18{fill:#dce6f2}.prefix__cls-19{opacity:.5}.prefix__cls-20{fill:#67647e}.prefix__cls-23{fill:#ffd037}.prefix__cls-25{fill:#9d9cb5}.prefix__cls-27{fill:#2d293d}.prefix__cls-29{fill:#ffcdd3}.prefix__cls-30{fill:#656691}
        </style>
    </defs>
    <g id="prefix__Group_622" data-name="Group 622" transform="translate(-.016 -.004)">
        <path id="prefix__Path_3575" d="M323.313 87.481c-18.271 15.509-41.97 14.506-62.737 6.435S220.731 71.482 200.5 61.27a168.675 168.675 0 0 0-52.782-16.683c-25.789-3.579-54.587.79-72.554 25.852-20.009 27.922-18.472 78.282 3.16 103.9 11.01 13.037 25.425 19.436 38 29.628s24.212 27.084 23.142 46.734c-.992 18.172-12.515 32.145-24.441 40.9-9.216 6.767-20.566 14.158-21.676 28.179-1.075 13.562 8.47 24.193 17.583 30.237 29.731 19.717 66.368 19.527 96-.5 10.564-7.146 20.266-16.651 31.347-22.213 29.1-14.617 61.157.095 91.967 5.479a153.033 153.033 0 0 0 78.219-6.905c15.257-5.463 30.573-13.827 41.29-29.376 7.731-11.219 12.547-25.421 17.066-39.445q7.229-22.427 13.9-45.177c2.667-9.106 5.294-18.385 5.985-28.123 1.248-17.651-4.014-35.1-11.18-49.993C458.5 98.4 429.845 73.528 398.81 67.211s-63.867 6.02-87.937 33.018" data-name="Path 3575" transform="translate(-61.06 -43.49)" style="fill:#f7f7f7"/>
        <ellipse id="prefix__Ellipse_698" cx="89.667" cy="4.093" class="prefix__cls-2" data-name="Ellipse 698" rx="89.667" ry="4.093" transform="translate(103.741 206.284)"/>
        <path id="prefix__Path_3576" d="M418.513 284.265a81.293 81.293 0 1 1 81.281-81.293 81.383 81.383 0 0 1-81.281 81.293zm0-161.795a80.5 80.5 0 1 0 80.5 80.5 80.593 80.593 0 0 0-80.5-80.5z" class="prefix__cls-3" data-name="Path 3576" transform="translate(-228.115 -90.789)"/>
        <path id="prefix__Path_3577" d="M446.443 293.959a63.049 63.049 0 1 1 63.049-63.049 63.126 63.126 0 0 1-63.049 63.049zm0-125.308a62.259 62.259 0 1 0 62.257 62.258 62.331 62.331 0 0 0-62.257-62.259z" class="prefix__cls-3" data-name="Path 3577" transform="translate(-256.046 -118.726)"/>
        <path id="prefix__Path_3578" d="M476.455 304.37a43.455 43.455 0 1 1 43.455-43.455 43.455 43.455 0 0 1-43.455 43.455zm0-86.12a42.665 42.665 0 1 0 42.665 42.665 42.665 42.665 0 0 0-42.665-42.665z" class="prefix__cls-3" data-name="Path 3578" transform="translate(-286.057 -148.731)"/>
        <ellipse id="prefix__Ellipse_699" cx="5.637" cy="1.865" class="prefix__cls-2" data-name="Ellipse 699" rx="5.637" ry="1.865" transform="translate(381.513 157.405)"/>
        <ellipse id="prefix__Ellipse_700" cx="33.2" cy="5.448" class="prefix__cls-2" data-name="Ellipse 700" rx="33.2" ry="5.448" transform="translate(37.345 252.054)"/>
        <g id="prefix__Group_610" class="prefix__cls-4" data-name="Group 610" transform="translate(22.164 106.554)">
            <path id="prefix__Path_3579" d="M223.719 313.21H122.434a5.309 5.309 0 0 0-5.294 5.294v64a5.309 5.309 0 0 0 5.294 5.294h79.456s2.058 10.927-4.7 12.1c0 0 15.146 1.086 12.5-12.1h14.036a5.309 5.309 0 0 0 5.294-5.294v-64a5.309 5.309 0 0 0-5.301-5.294z" data-name="Path 3579" transform="translate(-117.14 -313.21)"/>
            <g id="prefix__Group_609" class="prefix__cls-5" data-name="Group 609" transform="translate(14.909 16.987)">
                <rect id="prefix__Rectangle_1666" width="82.051" height="5.001" data-name="Rectangle 1666" rx="2.501"/>
                <rect id="prefix__Rectangle_1667" width="82.051" height="5.001" data-name="Rectangle 1667" rx="2.501" transform="translate(0 22.352)"/>
                <rect id="prefix__Rectangle_1668" width="68.809" height="5.001" data-name="Rectangle 1668" rx="2.501" transform="translate(0 33.524)"/>
                <rect id="prefix__Rectangle_1669" width="35.578" height="5.001" data-name="Rectangle 1669" rx="2.501" transform="translate(0 11.176)"/>
            </g>
        </g>
        <path id="prefix__Path_3580" d="M225.953 312.09H124.664a5.309 5.309 0 0 0-5.294 5.294v64a5.31 5.31 0 0 0 5.294 5.294h79.456s2.062 10.927-4.705 12.1c0 0 15.146 1.086 12.5-12.1h14.04a5.306 5.306 0 0 0 5.29-5.294v-64a5.306 5.306 0 0 0-5.292-5.294z" class="prefix__cls-3" data-name="Path 3580" transform="translate(-96.325 -205.978)"/>
        <g id="prefix__Group_611" class="prefix__cls-5" data-name="Group 611" transform="translate(37.958 123.099)">
            <rect id="prefix__Rectangle_1670" width="82.051" height="5.001" class="prefix__cls-6" data-name="Rectangle 1670" rx="2.501"/>
            <rect id="prefix__Rectangle_1671" width="82.051" height="5.001" class="prefix__cls-6" data-name="Rectangle 1671" rx="2.501" transform="translate(0 22.352)"/>
            <rect id="prefix__Rectangle_1672" width="68.809" height="5.001" class="prefix__cls-6" data-name="Rectangle 1672" rx="2.501" transform="translate(0 33.528)"/>
            <rect id="prefix__Rectangle_1673" width="35.578" height="5.001" class="prefix__cls-6" data-name="Rectangle 1673" rx="2.501" transform="translate(0 11.176)"/>
        </g>
        <path id="prefix__Path_3581" d="M262.905 299.484l-5.614 11.938a10.226 10.226 0 0 1-1.363 2.655c-.533.415-2.892 7.506-2.892 7.506l-6.017 9.3-.4.632-2.37-.652-1.655-6.19.1-1.8v-.225s3.725-3.9 4.551-4.191c0 0 .648.075 1.892-2.943s2.37-3.674 2.37-3.674l.648-2.189 6.976-11.1s5.847-8.387 7.439-4.666-3.665 5.599-3.665 5.599z" class="prefix__cls-7" data-name="Path 3581" transform="translate(-170.874 -194.387)"/>
        <path id="prefix__Path_3582" d="M210.492 518.913a1.344 1.344 0 0 1-.19.573c-.648.944-4.31 20.262-4.31 20.262.292 1.3-.529 3.9-1.067 5.084a73.144 73.144 0 0 0-1.714 7.324s-.292 13.234-1.059 15.3.245 6.5.245 6.5a9.948 9.948 0 0 0 1.876 5.29c.055.071.1.142.142.2.237.34.4.533.4.533a3.076 3.076 0 0 0 .826 1.023c.051.043.107.083.166.126a9.409 9.409 0 0 0 3.311 1.4l.115.024c.474.107.79.146.79.146l.292 1.58-3.129.648-5.965.4s-7.032.533-5.436-2.6a4.945 4.945 0 0 0 .288-.664c.059-.15.115-.308.162-.466a16.215 16.215 0 0 0 .312-6.668l-1.375-10.646c-2.24-9.924 1.77-20.973 1.77-20.973s-.352-.885.419-3.129 0-7.146 0-7.146-.4-6.321-.944-9.453a19.1 19.1 0 0 1-.213-3.978 19.865 19.865 0 0 1 .213-2.331l13.471-1.786a10.393 10.393 0 0 1 .604 3.427z" class="prefix__cls-7" data-name="Path 3582" transform="translate(-141.769 -329.02)"/>
        <path id="prefix__Path_3583" d="M211.889 681.507l-3.129.648-5.965.4s-7.032.533-5.436-2.6a4.959 4.959 0 0 0 .288-.664c.059-.15.115-.308.162-.466a10.82 10.82 0 0 1 3.555.719c2 .79 3.512-1.244 3.512-1.244l.972-1.857.142-.269c.237.34.4.533.4.533a3.16 3.16 0 0 0 .992 1.146l-.166.348-.944 1.975s1.209.122 2.864.4a1.28 1.28 0 0 0 1.556-.853l.115.024c.474.107.79.146.79.146z" class="prefix__cls-8" data-name="Path 3583" transform="translate(-143.363 -426.23)"/>
        <path id="prefix__Path_3584" d="M214 683.725c-.237 1.063-6.822 1.391-6.822 1.391s-3.666-.356-4.693.5-4.053.652-4.172.652-1.711-.063-2.335-2.923c-.6-2.789.814-3.275.885-3.3a10.715 10.715 0 0 1 3.725.723c2 .79 3.512-1.24 3.512-1.24l1.114-2.129c.237.34.4.533.4.533a3.121 3.121 0 0 0 .992 1.15l-1.11 2.335s1.209.122 2.864.4a1.368 1.368 0 0 0 1.671-1.3 1.347 1.347 0 0 0 0-.178s1.031.3 2.3.652a2.37 2.37 0 0 1 1.669 2.734z" class="prefix__cls-9" data-name="Path 3584" transform="translate(-142.581 -426.974)"/>
        <path id="prefix__Path_3585" d="M250.666 530.659c-.158.944-.32 3.39-.32 3.39.553 2.046-.865 6.909-.865 6.909l-.707 2.765c.316 3.555-1.948 12.211-1.948 12.211s-1.517 8.035-2.307 11.5a9.564 9.564 0 0 0 .4 5.791c.04.095.063.142.063.142a.662.662 0 0 0 .047.194c.02.063.051.19.083.281a4.267 4.267 0 0 0 .79 1.319 4 4 0 0 0 .423.435l.024.024a8.55 8.55 0 0 0 2.513 1.545l.4.158a11.845 11.845 0 0 0 1.252.4 1.287 1.287 0 0 0 .142.032l-.32 1.857-4.172-1.067-5.59-1.813-2.765-1.58s.032-.15.087-.438v-.047c.024-.122.047-.269.083-.435.47-2.41 1.541-9.244 1-14.261-.668-6.222 1.924-14.81 2.556-16.857a10.22 10.22 0 0 0 .474-3.623c-1.027-1.5-1.264-7.482-1.264-7.482s-1.888-3.864-3.453-7.96a20.937 20.937 0 0 1-1.126-4.14 14.479 14.479 0 0 1-.229-3.026s12.689-11.579 14.079-.367c.047.4.091.743.134 1.1 1.211 10.242.666 12.131.516 13.043z" class="prefix__cls-7" data-name="Path 3585" transform="translate(-166.835 -326.687)"/>
        <path id="prefix__Path_3586" d="M253.567 672.341l-.32 1.857-4.172-1.067-5.59-1.813-2.765-1.58s.032-.15.087-.439v-.047c.024-.122.047-.269.083-.435l.4-.039h.032a5.263 5.263 0 0 1 2.343.316c.909.344 2.1.735 2.347.569a2.987 2.987 0 0 1 1.339-.237l.581-1.272.083-.194a4.22 4.22 0 0 0 .79 1.32 4.455 4.455 0 0 0 .446.458l-.024.45-.032.636a8.125 8.125 0 0 0 2.007.928 1.162 1.162 0 0 0 .561 0l.4.158a11.871 11.871 0 0 0 1.252.395 1.278 1.278 0 0 0 .152.036z" class="prefix__cls-8" data-name="Path 3586" transform="translate(-169.737 -421.263)"/>
        <path id="prefix__Path_3587" d="M250.878 677.029c-1.165-.336-3.974-.869-4.428-.454s-4.345 0-4.345 0a2.37 2.37 0 0 1-2.011-1.185c-.79-1.26-.154-5.337-.154-5.337l.288-.028.482-.047h.032a5.205 5.205 0 0 1 2.343.316 5.605 5.605 0 0 0 2.347.569 2.931 2.931 0 0 1 1.339-.237l.664-1.466a4.266 4.266 0 0 0 .79 1.319 4.461 4.461 0 0 0 .446.458l-.055 1.086a8.182 8.182 0 0 0 2.007.924.79.79 0 0 0 .964-.3.6.6 0 0 0 .071-.162 6.793 6.793 0 0 0 1.647.549 3.016 3.016 0 0 1 3.216 2.315c.591 1.807-4.501 2.012-5.643 1.68z" class="prefix__cls-9" data-name="Path 3587" transform="translate(-169.118 -421.989)"/>
        <path id="prefix__Path_3588" d="M213.125 518.895c-.261.075-.5.146-.719.217a9.978 9.978 0 0 1-1.742.367 72.616 72.616 0 0 1-11.824.087 19.867 19.867 0 0 1 .213-2.331l13.471-1.786a10.554 10.554 0 0 1 .601 3.446z" class="prefix__cls-8" data-name="Path 3588" transform="translate(-144.401 -329.002)"/>
        <path id="prefix__Path_3589" d="M223.048 487.493s-4.946.766-8.968 1.647c-1.343.292-2.584.6-3.5.9a10.747 10.747 0 0 1-1.742.367c-4.48.628-12.436.047-12.436.047-2.185-7.087 2.655-16.011 2.655-16.011-.115-.711 1.007-2.892 1.007-2.892l.02-.071.687-2.528h18.374l.225 1.086.466 2.212 2.884 13.7z" class="prefix__cls-9" data-name="Path 3589" transform="translate(-142.584 -300.871)"/>
        <path id="prefix__Path_3590" d="M250.144 517.6l-.111.047-2.149.952c-2.327 1.074-9.292 1.276-11.725 1.3a14.479 14.479 0 0 1-.229-3.026s12.689-11.579 14.079-.367l.135 1.094z" class="prefix__cls-8" data-name="Path 3590" transform="translate(-166.835 -326.681)"/>
        <path id="prefix__Path_3591" d="M232.958 490.709l-.45.2-2.149.956c-2.37 1.09-9.556 1.284-11.851 1.3h-.6a2.768 2.768 0 0 1-2.125-1.292c0-.142-.111-.841-.205-1.442-.079-.482-.15-.9-.15-.9a55.179 55.179 0 0 1-7.146-3.7c-1.805-1.229-1.351-9.959-1-14.348.122-1.513.229-2.509.229-2.509l18.6 1.086 2.607.15 1.493.332.4.083s1.067 7.8 1.58 8.446.182 2.836.119 4.081a7.578 7.578 0 0 1-.174 1.58 9.769 9.769 0 0 1 .585 3.413 6.807 6.807 0 0 0 .249 2.568z" class="prefix__cls-9" data-name="Path 3591" transform="translate(-149.309 -300.883)"/>
        <circle id="prefix__Ellipse_701" cx="7.62" cy="7.62" r="7.62" class="prefix__cls-7" data-name="Ellipse 701" transform="translate(56.122 109.825)"/>
        <path id="prefix__Path_3592" d="M203.411 348.789s.529 7.217-.944 8.873a65.953 65.953 0 0 1-5.317 4.784l1.185 4.9 6.676.77 7.8-8.332-1.774-2.185s-1.359-4.61-.237-6.913-7.389-1.897-7.389-1.897z" class="prefix__cls-7" data-name="Path 3592" transform="translate(-143.379 -228.163)"/>
        <path id="prefix__Path_3593" d="M247.021 375.667l-.4.632-2.37-.652-1.655-6.19.1-1.8.486-.7s2.6.063 2.485 2.426c-.108 2.077 1.073 5.494 1.354 6.284z" class="prefix__cls-8" data-name="Path 3593" transform="translate(-170.874 -239.172)"/>
        <path id="prefix__Path_3594" d="M230.376 471.549s-1.88.419-4.033.7-4.638.423-5.657-.17c-1.711-1.011-10.978-.723-13.637-.62a3.037 3.037 0 0 0-.458.02l.687-2.528h18.374l.225 1.086 2.607.15 1.493.332c.249.612.399 1.03.399 1.03z" class="prefix__cls-8" data-name="Path 3594" transform="translate(-149.09 -300.871)"/>
        <path id="prefix__Path_3595" d="M206.751 368.15s2.6.059 2.481 2.422 1.418 6.439 1.418 6.439l-.593 1.359s-.826 3.307-.178 4.136 3.014.826 1.655 7.62c0 0-.292 5.08.415 6.736s.707 5.61 1.77 7.265a39.927 39.927 0 0 1 2.485 5.5s-7.684 1.71-9.69.529-14.356-.581-14.356-.581.059-2.07 0-2.3a1.975 1.975 0 0 1 .3-1.509c.4-.561 1.063-1.505.707-2.331s.889-2.046.237-3.326-1.442-1.537-1.284-2.236a3.03 3.03 0 0 0-.723-2.236c-.47-.589-3.666-6.834-3.666-6.834l-.529-2.927s-4.112-3.014-4.037-4.432a8.293 8.293 0 0 1 1.556-3.382l3.95-3.883s2.185 2.37 4.31 1.537 6.712-4.784 6.712-4.784 1.635-.885 1.754-1.533 1.122-.059 1.122-.059 1.477-.81 1.774-.525a5.128 5.128 0 0 0 1.58.525z" data-name="Path 3595" transform="translate(-134.914 -239.892)" style="fill:#ffcde5"/>
        <path id="prefix__Path_3596" d="M157.273 399.3l-1.26.984a16.825 16.825 0 0 0-1.58 6.439 88.232 88.232 0 0 1-1.58 9.979l-2.481 4.436s-4.089 8.561-4.618 10.832a28.264 28.264 0 0 1-2.955 6.115s-8.213 7.38-2.481 8.691 5.906-5.874 5.906-5.874a7.762 7.762 0 0 0 1.556-2.481c.217-1 7.482-13.854 7.482-13.854s2.544-3.457 2.011-5.286c0 0 3.307-7.778 3.307-9.73a34.554 34.554 0 0 0-.529-4.839l.529-4.077z" class="prefix__cls-7" data-name="Path 3596" transform="translate(-107.768 -258.736)"/>
        <path id="prefix__Path_3597" d="M218.62 440.53s-5.791 3.03-6.913 3.188 4.9-.632 4.9-.632z" class="prefix__cls-8" data-name="Path 3597" transform="translate(-152.101 -283.678)"/>
        <path id="prefix__Path_3598" d="M224.441 446.51s-7.68 2.6-11.061 2.125c.02 0 8.403 1.596 11.061-2.125z" class="prefix__cls-8" data-name="Path 3598" transform="translate(-153.197 -287.296)"/>
        <path id="prefix__Path_3599" d="M225.75 448.66s-6.913 4.345-10.99 3.638c0 0 9.513 1.892 10.99.889L221.5 452s4.724-2.495 4.25-3.34z" class="prefix__cls-8" data-name="Path 3599" transform="translate(-154.032 -288.597)"/>
        <path id="prefix__Path_3600" d="M189.6 306.572a7.2 7.2 0 0 0-5.815 1.1c-1.185.932-1.975 2.37-3.307 3.05a19.452 19.452 0 0 1-2.161.762 6.234 6.234 0 0 0-3.8 6.716c.209 1.185.758 2.252 1.027 3.405a13.307 13.307 0 0 1-.466 6.273 66.013 66.013 0 0 1-6.578 16.288 1.707 1.707 0 0 0-.328 1.094 1.58 1.58 0 0 0 .4.7c2.73 3.16 7.174 4.239 11.346 4.381a8.593 8.593 0 0 0 4.5-.747 6.8 6.8 0 0 0 2.192-2.011 10.666 10.666 0 0 0 2.046-6.878c-.115-1.975-.79-3.986-.28-5.9a1.58 1.58 0 0 1 .356-.723c.45-.458 1.185-.34 1.833-.415 1.734-.2 2.856-2.031 3.062-3.761s-.229-3.48-.237-5.223a10.939 10.939 0 0 1 2.058-6.431 6.934 6.934 0 0 0 1.509-2.572c.245-1.244-.478-2.161-1.1-3.16-.968-1.533-1.442-3.322-2.915-4.492a7.869 7.869 0 0 0-3.326-1.454z" class="prefix__cls-8" data-name="Path 3600" transform="translate(-125.844 -202.534)"/>
        <path id="prefix__Path_3601" d="M188.427 305.372a7.187 7.187 0 0 0-5.815 1.1c-1.185.928-1.975 2.37-3.307 3.05a19.092 19.092 0 0 1-2.157.759A6.238 6.238 0 0 0 173.34 317c.209 1.185.758 2.252 1.031 3.409a13.341 13.341 0 0 1-.466 6.269 66.052 66.052 0 0 1-6.566 16.288 1.671 1.671 0 0 0-.324 1.09 1.521 1.521 0 0 0 .4.7c2.734 3.16 7.174 4.239 11.346 4.381a8.591 8.591 0 0 0 4.5-.743 6.811 6.811 0 0 0 2.193-2.015 10.666 10.666 0 0 0 2.034-6.862c-.115-1.975-.79-3.986-.277-5.906a1.58 1.58 0 0 1 .352-.723c.45-.458 1.185-.34 1.837-.4 1.734-.2 2.852-2.03 3.058-3.765s-.225-3.476-.237-5.223a10.939 10.939 0 0 1 2.054-6.451 6.909 6.909 0 0 0 1.505-2.576c.245-1.244-.474-2.157-1.1-3.16-.968-1.533-1.442-3.322-2.919-4.488a7.83 7.83 0 0 0-3.334-1.453z" data-name="Path 3601" transform="translate(-125.147 -201.809)" style="fill:#985c7e"/>
        <path id="prefix__Path_3602" d="M214.76 492.62s1.517 7.087 4.037 9.019z" class="prefix__cls-8" data-name="Path 3602" transform="translate(-154.032 -315.191)"/>
        <g id="prefix__Group_612" class="prefix__cls-4" data-name="Group 612" transform="translate(41.856 110.584)">
            <path id="prefix__Path_3603" d="M183.765 337.806c-.079-.277-.17-.553-.265-.826.079.277.17.553.265.826z" data-name="Path 3603" transform="translate(-176.977 -331.619)"/>
            <path id="prefix__Path_3604" d="M195.33 323.41a2.565 2.565 0 0 1-.032.668 7 7 0 0 1-1.509 2.576 10.907 10.907 0 0 0-2.058 6.427c0 1.746.439 3.488.233 5.223s-1.323 3.555-3.058 3.765c-.64.075-1.387-.047-1.833.4a1.58 1.58 0 0 0-.356.723c-.5 1.92.166 3.927.277 5.906a10.666 10.666 0 0 1-2.031 6.862 6.85 6.85 0 0 1-2.193 2.015 8.835 8.835 0 0 1-4.5.743c-4.1-.138-8.462-1.185-11.2-4.231a1.082 1.082 0 0 0-.067.569 1.521 1.521 0 0 0 .4.7c2.734 3.16 7.174 4.239 11.346 4.381a8.591 8.591 0 0 0 4.5-.743 6.851 6.851 0 0 0 2.193-2.015 10.666 10.666 0 0 0 2.034-6.862c-.115-1.975-.79-3.986-.277-5.906a1.58 1.58 0 0 1 .352-.723c.45-.458 1.185-.34 1.837-.395 1.734-.2 2.852-2.031 3.058-3.765s-.225-3.476-.237-5.223a10.939 10.939 0 0 1 2.054-6.427 6.909 6.909 0 0 0 1.505-2.576 2.927 2.927 0 0 0-.438-2.092z" data-name="Path 3604" transform="translate(-166.989 -323.41)"/>
        </g>
        <path id="prefix__Path_3605" d="M561.8 807.44s-15.031-.909-13.258 9.623a2.569 2.569 0 0 0 1.335 2.706s.028-.79 1.541-.514a6.916 6.916 0 0 0 1.632.079 3.408 3.408 0 0 0 2-.826s4.223-1.746 5.866-8.652c0 0 1.217-1.505 1.185-1.892l-2.536 1.082a4.545 4.545 0 0 1 .182 3.35s-.079-3.283-.569-3.2c-.1 0-1.316.632-1.316.632s1.489 3.188.364 5.5c0 0 .427-3.927-.83-5.27l-1.786 1.039s1.742 3.295.561 5.981c0 0 .3-4.12-.936-5.724l-1.62 1.26s1.639 3.243.64 5.471c0 0-.13-4.8-.992-5.136a9.72 9.72 0 0 0-1.628 1.758s1.118 2.37.423 3.6c0 0-.427-3.2-.79-3.208a10.633 10.633 0 0 0-1.557 3.555 7.7 7.7 0 0 1 1.213-3.773 4.231 4.231 0 0 0-2.152 1.119s.217-1.5 2.5-1.628a10.8 10.8 0 0 1 1.477-1.7 9.263 9.263 0 0 0-3.654.423s1.213-1.414 4.073-.79l1.58-1.3a13.631 13.631 0 0 0-4.266.043s1.462-1.252 4.7-.34l1.738-1.043a15.789 15.789 0 0 0-4.073-.351s1.6-.865 4.583.075l1.244-.561s-1.872-.367-2.418-.423-.577-.209-.577-.209a6.463 6.463 0 0 1 3.512.4 16.022 16.022 0 0 0 2.609-1.156z" class="prefix__cls-6" data-name="Path 3605" transform="translate(-355.87 -505.63)"/>
        <ellipse id="prefix__Ellipse_702" cx="10.639" cy="1.797" class="prefix__cls-2" data-name="Ellipse 702" rx="10.639" ry="1.797" transform="translate(184.942 313.262)"/>
        <path id="prefix__Path_3606" d="M859.919 774.84s-15.012-.9-13.258 9.627a2.569 2.569 0 0 0 1.339 2.707s.028-.79 1.541-.518a6.958 6.958 0 0 0 1.635.079 3.373 3.373 0 0 0 1.995-.826s4.227-1.742 5.866-8.647c0 0 1.217-1.509 1.185-1.9l-2.552 1.106a4.558 4.558 0 0 1 .186 3.35s-.083-3.287-.569-3.208c-.1 0-1.319.632-1.319.632s1.489 3.188.367 5.507c0 0 .427-3.927-.834-5.274l-1.786 1.043s1.742 3.291.561 5.977c0 0 .3-4.12-.936-5.724l-1.616 1.252s1.635 3.247.636 5.475c0 0-.13-4.8-.988-5.159a9.9 9.9 0 0 0-1.631 1.762s1.122 2.37.427 3.595c0 0-.427-3.192-.79-3.208a10.632 10.632 0 0 0-1.556 3.555 7.682 7.682 0 0 1 1.217-3.773 4.252 4.252 0 0 0-2.161 1.118s.221-1.493 2.509-1.628a10.8 10.8 0 0 1 1.478-1.7 9.286 9.286 0 0 0-3.658.423s1.217-1.414 4.073-.77l1.58-1.3a13.632 13.632 0 0 0-4.267.044s1.462-1.248 4.7-.34l1.738-1.039a15.646 15.646 0 0 0-4.077-.352s1.6-.865 4.586.071l1.244-.557s-1.872-.367-2.422-.427-.577-.209-.577-.209a6.475 6.475 0 0 1 3.516.4 16.063 16.063 0 0 0 2.618-1.164z" class="prefix__cls-6" data-name="Path 3606" transform="translate(-536.218 -485.909)"/>
        <ellipse id="prefix__Ellipse_703" cx="10.639" cy="1.797" class="prefix__cls-2" data-name="Ellipse 703" rx="10.639" ry="1.797" transform="translate(302.709 300.383)"/>
        <ellipse id="prefix__Ellipse_704" cx="30.636" cy="5.025" class="prefix__cls-2" data-name="Ellipse 704" rx="30.636" ry="5.025" transform="translate(304.408 167.545)"/>
        <path id="prefix__Path_3607" d="M876.747 143.836a16.447 16.447 0 0 0 0-8.4v-3.95s1.43-7.747-4.938-12.717l-4.227-3.725a15.973 15.973 0 0 0-3.054-2.161 3.1 3.1 0 0 0-.4-.059l-.126-.071a12.713 12.713 0 0 1-.924-1.948 1.805 1.805 0 0 0 1.505-.514 1.975 1.975 0 0 0 .355-.593c.245-.549.285-1.213.494-1.8a4.2 4.2 0 0 1 .79-1.292c-.043.071-.087.138-.126.209.6-.743 1.379-1.383 1.936-2.169a4.717 4.717 0 0 0 .308-.482l-.083.1a10.856 10.856 0 0 0 1.24-4.219 3.807 3.807 0 0 0 .024-1.509 5.026 5.026 0 0 0-.423-.956c-.917-1.9-.9-4.274-2.37-5.787a7.085 7.085 0 0 0-4.345-1.675 11.213 11.213 0 0 1-4.579-1.13 4.954 4.954 0 0 0-1.24-.683 1.023 1.023 0 0 0-1.221.454.792.792 0 0 1-.162.328.525.525 0 0 1-.47.028l-2.094-.561.024.107h-.051l.075.332a.184.184 0 0 1 .2.115l-.336.518a5.187 5.187 0 0 1-1.892-.4.874.874 0 0 0 0 .1h-.028c-.039.593.632.976.837 1.533a1.162 1.162 0 0 1 0 .751 1.7 1.7 0 0 1-.4.6c-.747.735-1.695.589-2.552 1.055a.545.545 0 0 0-.312.344.264.264 0 0 0-.028.19.443.443 0 0 0 .174.217 3.953 3.953 0 0 0 .814.506l-.245.237a9.379 9.379 0 0 0 3.239 15.292c.032.162.055.328.079.506v.047l.024.225-2.825 1.185a2.248 2.248 0 0 1-2.023-1.3c-.656-1.359-2.975 0-2.975 0s-7.083-.533-9.7.77c0 0-4.227-1.774-4.82-1.892s-1.489-.593-1.908-.474-.952-.79-1.248-.711-.4-.589-1.367-.826-1.312.059-2.37-1.007-9.762-5.262-9.762-5.262l-3.927-3.2-4.168-3.31-.075.138c-.024-.1-.051-.2-.079-.308a39.5 39.5 0 0 0-1.545-4.859c-.269-.64-.4-1.45-.747-1.023-.221.257-.6-.3-1.185-.683a.984.984 0 0 0-1.47.427c-3.243 5.084-4.4 5.452-2.524 7.312 1.671 1.659 2.785 3.125 4.152 3.555l.162.051a.229.229 0 0 1-.091 0l7.9 9.461s5.712 4.97 9.643 6.566 3.63 2.07 3.63 2.07 11.9 6.032 13.748 5.926 1.489 12.361.715 14.372-2.023 16.56-2.023 16.56-1.185 3.073.059 5.2a32.831 32.831 0 0 1 .028 5.053 17.338 17.338 0 0 0-2.884 7.427 4.255 4.255 0 0 1-.047.45 1.023 1.023 0 0 1-.281.229s.1-.024.265-.079a15.013 15.013 0 0 1-.79 3.555 14.488 14.488 0 0 0-.972 5.136v9.4l-.786 5.827s-.952 4.413 0 5.44a2.5 2.5 0 0 1 .521 1.813 3.358 3.358 0 0 0 .608 2.114 1.6 1.6 0 0 1 .4 1.359c-.316 1.023.466 11.9.466 11.9s-.229 3-.545 3.16.529 3.445.529 3.445-3.216 2.682-2.4 4.1l.822 1.26-.217.213-.134.134a1.252 1.252 0 0 0-.818-.154 30.669 30.669 0 0 1-3.235 2.88 35.062 35.062 0 0 1-5.4 2.564l-3.113.253h-.059s-1.489-.138-.656 2.169 8.3 1.58 8.3 1.58l4.345-.687s7.775.036 10-.454c.932-.209 1.154-.7 1.094-1.209l-.024-.024a3.1 3.1 0 0 0-.636-1.308.615.615 0 0 0-.055-.067l.142-1.58c3.3-1.9-.932-5.641-.932-5.641a37.711 37.711 0 0 1 2.192-4.176c.747-1.015.743-16.086.743-16.086s.4-5.444-.636-6.716a2.272 2.272 0 0 1 1.11-2.05c.735-.5 2.955-7.411 4.7-13.147l1.1 6.759s-.237 3.231.478 4.18a1.608 1.608 0 0 1 .292 1.256 5.589 5.589 0 0 0 .162 2.738 1.77 1.77 0 0 0 .573.972c.636.316.676 1.442.913 1.679s1.707-.336 1.786.529a19.323 19.323 0 0 1 0 2.287l.478 14.036a9.182 9.182 0 0 0-.952 4.259 5.5 5.5 0 0 1-.573 2.512 1.284 1.284 0 0 0 .118 1.509l.138.158-.589.454a1.284 1.284 0 0 0-.363 1.58 1.268 1.268 0 0 0-.368 1.363 1.6 1.6 0 0 0 .1.221 2.224 2.224 0 0 0-1.185.585 9.717 9.717 0 0 1-2.094 2.11 39.467 39.467 0 0 0-3.342 2.86 4.8 4.8 0 0 1-1.951 1.58 3.162 3.162 0 0 1-.589.174c-1.58.32-1.071 1.955.2 2.212s5.475 1.556 8.75.79a3.058 3.058 0 0 0 2.4-.332 33.019 33.019 0 0 1 4.673-1.58s1.786 0 2.023-.711a2.723 2.723 0 0 0 .1-.691l.051-.047-.047-.043a9.31 9.31 0 0 0-.122-1.58c-.043-.269-.095-.514-.142-.707-.154-.593-.435-1.355-.557-1.679a.591.591 0 0 0 .055-.083c.68-1.15-.45-3.95-.45-3.95a7.548 7.548 0 0 1 1.347-1.58c.636-.47 2.3-12.772 2.3-12.772s-.079-3.16.79-4.575-1.185-10.014-1.185-10.014-.873-1.975-.553-2.682-.32-3.311-.32-3.311v-3.086a3.409 3.409 0 0 0-.182-1.09 5.185 5.185 0 0 1-.213-3.16c.557-1.418 1.825-10.172 1.825-10.172s-.992-3.86.458-6.933a6.631 6.631 0 0 1 .4-.715c1.074-1.691.754-4.693.225-7.111-.083-.375-.17-.735-.257-1.078-.039-.146-.079-.284-.115-.423l.17-.071a5.326 5.326 0 0 1 .051-.624 4.346 4.346 0 0 0 2.864-1.975s3.63-4.081 6.846-5.8 3.453-4.2 3.453-4.2c-.478-.83.849-4.2.849-4.2zm-12.642-30.963zm2.185 36.4l-3.437 3.986a.083.083 0 0 1 0-.024c-.893-1.24.834-4.022.834-4.022l2.84-6.364a3.848 3.848 0 0 1-.371 1.88c-.79 1.067 1.426 2.84 1.426 2.84-1.189-.012-1.308 1.7-1.308 1.7z" data-name="Path 3607" transform="translate(-506.034 -70.355)"/>
        <path id="prefix__Path_3608" d="M807.119 99.032l-1.872 3.638a7.25 7.25 0 0 1-1.746-.363 6.625 6.625 0 0 1-4.1-3.555 5.157 5.157 0 0 1 2.39-6.8c1.292-.7 2.489-1.513 3.457.79a40.085 40.085 0 0 1 1.525 4.827c.211.874.346 1.463.346 1.463z" class="prefix__cls-13" data-name="Path 3608" transform="translate(-507.396 -72.36)"/>
        <path id="prefix__Path_3609" d="M948 141.125l-2.995 4.468s-14.166 6.755-11.456-1.185a17.9 17.9 0 0 0 1.118-7.826v-.047a6.177 6.177 0 0 0-1.11-3.16s13.807-7.063 11.753-2.232a6.716 6.716 0 0 0-.49 3.18 10.833 10.833 0 0 0 1.489 4.413 14.609 14.609 0 0 0 1.691 2.389z" class="prefix__cls-13" data-name="Path 3609" transform="translate(-588.66 -95.491)"/>
        <path id="prefix__Path_3610" d="M911.446 318.828s2.038 8.541 1.185 9.951-.79 4.543-.79 4.543-1.647 12.227-2.275 12.7a7.508 7.508 0 0 0-1.331 1.58s1.118 2.765.446 3.911a.929.929 0 0 1-.446.4c-1.051.442-4.93-1.521-7.138-2.726a1.217 1.217 0 0 1-.585-.7 1.244 1.244 0 0 1 .36-1.351 1.288 1.288 0 0 1 .359-1.58l.581-.45-.134-.158a1.284 1.284 0 0 1-.118-1.5 5.538 5.538 0 0 0 .565-2.493 9.109 9.109 0 0 1 .94-4.231l-.47-13.949a20.03 20.03 0 0 0 0-2.272c-.079-.861-1.529-.292-1.762-.529s-.277-1.351-.9-1.667a1.753 1.753 0 0 1-.569-.964 5.615 5.615 0 0 1-.162-2.722 1.6 1.6 0 0 0-.288-1.248c-.707-.94-.47-4.152-.47-4.152l-1.082-6.716c-1.722 5.7-3.915 12.566-4.638 13.064a2.26 2.26 0 0 0-1.1 2.038c1.019 1.252.628 6.661.628 6.661s0 14.964-.735 15.984a38.963 38.963 0 0 0-2.165 4.152s4.2 3.737.9 5.621l-.036.02c-3.37 1.88-10.342-3.366-10.342-3.366l.727-.727.213-.213-.79-1.256c-.81-1.41 2.37-4.073 2.37-4.073s-.845-3.291-.533-3.449.533-3.137.533-3.137-.77-10.812-.458-11.828a1.581 1.581 0 0 0-.371-1.351 3.374 3.374 0 0 1-.6-2.1 2.5 2.5 0 0 0-.514-1.8c-.94-1.019 0-5.408 0-5.408l.79-5.8v-9.236a14.619 14.619 0 0 1 .948-5.183 15.64 15.64 0 0 0 .853-4.172 17.514 17.514 0 0 1 2.927-7.506c.569-.869.992-1.391.992-1.391l25.073-.984s.4 1.118.79 2.671c.087.34.174.7.253 1.071.525 2.41.841 5.392-.221 7.075a5.568 5.568 0 0 0-.395.707c-1.434 3.054-.454 6.89-.454 6.89s-1.252 8.691-1.8 10.109a5.074 5.074 0 0 0 .213 3.121 3.474 3.474 0 0 1 .178 1.082v3.085s.628 2.584.316 3.291.532 2.661.532 2.661z" class="prefix__cls-14" data-name="Path 3610" transform="translate(-556.393 -184.787)"/>
        <path id="prefix__Path_3611" d="M958.691 294.165a6.447 6.447 0 0 0-.4.707l-1.41-.079c.134-.727-.826-7.541-.826-7.541l2.844-.162c.535 2.426.855 5.41-.208 7.075z" class="prefix__cls-8" data-name="Path 3611" transform="translate(-602.485 -190.854)"/>
        <path id="prefix__Path_3612" d="M959.281 293.615a5.594 5.594 0 0 0-.4.707l-1.414-.079c.138-.727-.822-7.545-.822-7.545l2.84-.158c.543 2.41.859 5.392-.204 7.075z" class="prefix__cls-14" data-name="Path 3612" transform="translate(-602.842 -190.522)"/>
        <path id="prefix__Path_3613" d="M959.281 293.615a5.594 5.594 0 0 0-.4.707l-1.414-.079c.138-.727-.822-7.545-.822-7.545l2.84-.158c.543 2.41.859 5.392-.204 7.075z" class="prefix__cls-15" data-name="Path 3613" transform="translate(-602.842 -190.522)"/>
        <path id="prefix__Path_3614" d="M940.289 460.812a.928.928 0 0 1-.446.4c-1.051.442-4.93-1.521-7.138-2.726a1.217 1.217 0 0 1-.585-.7c1.256-.229 2.082 1.185 2.082 1.185a1.853 1.853 0 0 1 2.584.628c1.079 1.58 3.39.917 3.39.917s.046.102.113.296z" class="prefix__cls-8" data-name="Path 3614" transform="translate(-588.002 -294.1)"/>
        <path id="prefix__Path_3615" d="M925.752 465.967c-.237.7-2 .7-2 .7a37.523 37.523 0 0 0-4.567 1.608 3.122 3.122 0 0 1-2.37.332c-3.235.747-7.387-.545-8.64-.79s-1.746-1.88-.2-2.193a3.1 3.1 0 0 0 .581-.178 4.717 4.717 0 0 0 1.928-1.58 39.949 39.949 0 0 1 3.3-2.844 9.546 9.546 0 0 0 2.07-2.094c1.841-1.628 3.16.608 3.16.608a1.853 1.853 0 0 1 2.584.628c1.078 1.58 3.389.917 3.389.917s.4 1.059.608 1.821c.047.194.1.439.142.707a6.181 6.181 0 0 1 .015 2.358z" class="prefix__cls-16" data-name="Path 3615" transform="translate(-572.813 -294.451)"/>
        <circle id="prefix__Ellipse_705" cx=".217" cy=".217" r=".217" class="prefix__cls-17" data-name="Ellipse 705" transform="translate(347.334 166.127)"/>
        <circle id="prefix__Ellipse_706" cx=".217" cy=".217" r=".217" class="prefix__cls-17" data-name="Ellipse 706" transform="translate(345.493 167.85)"/>
        <circle id="prefix__Ellipse_707" cx=".217" cy=".217" r=".217" class="prefix__cls-17" data-name="Ellipse 707" transform="translate(343.62 169.398)"/>
        <circle id="prefix__Ellipse_708" cx=".217" cy=".217" r=".217" class="prefix__cls-17" data-name="Ellipse 708" transform="translate(344.588 168.707)"/>
        <circle id="prefix__Ellipse_709" cx=".217" cy=".217" r=".217" class="prefix__cls-17" data-name="Ellipse 709" transform="translate(346.453 166.933)"/>
        <path id="prefix__Path_3616" d="M925.752 474.044c-.237.7-2 .7-2 .7a37.538 37.538 0 0 0-4.567 1.608 3.122 3.122 0 0 1-2.37.332c-3.235.747-7.387-.545-8.64-.79s-1.746-1.88-.2-2.193a3.1 3.1 0 0 0 .581-.178 15.016 15.016 0 0 0 4.239.79c3.192.134 5.72 0 5.72 0l3.232-1.039a5.408 5.408 0 0 1 2-.727 5.135 5.135 0 0 0 1.975-.861 6.181 6.181 0 0 1 .03 2.358z" class="prefix__cls-18" data-name="Path 3616" transform="translate(-572.813 -302.529)"/>
        <path id="prefix__Path_3617" d="M933.267 478.279a2.661 2.661 0 0 1-.537-.055l.047-.229a3.393 3.393 0 0 0 1.936-.269 9.3 9.3 0 0 0 .857-.4 9.952 9.952 0 0 1 1.019-.446l.32-.111c.178-.059.356-.119.525-.194.1-.04.194-.087.288-.13a3.213 3.213 0 0 1 .727-.277 3.378 3.378 0 0 1 .4-.051 3.357 3.357 0 0 0 .356-.043 3.085 3.085 0 0 0 .679-.253 3.3 3.3 0 0 1 .731-.269l.174-.032a.834.834 0 0 0 .506-.186l.17.162a1.054 1.054 0 0 1-.64.257l-.162.028a3.094 3.094 0 0 0-.68.253 3.291 3.291 0 0 1-.731.269 2.594 2.594 0 0 1-.395.047 3.443 3.443 0 0 0-.367.047 2.986 2.986 0 0 0-.672.261l-.3.134c-.182.075-.364.138-.545.2l-.312.111c-.34.126-.676.284-1 .435s-.573.273-.869.4a4.182 4.182 0 0 1-1.521.344z" class="prefix__cls-19" data-name="Path 3617" transform="translate(-588.371 -304.737)"/>
        <path id="prefix__Path_3618" d="M936 380.183a5.7 5.7 0 0 1 4.409-2.331 15.094 15.094 0 0 0 3.974-.312 9.868 9.868 0 0 1-3.014 1.185 50.943 50.943 0 0 0-5.369 1.458z" class="prefix__cls-8" data-name="Path 3618" transform="translate(-590.349 -245.572)"/>
        <path id="prefix__Path_3619" d="M938.38 383.817a6.55 6.55 0 0 1 2.311-1.059c.841-.039 1.58-.118 1.58-.118a4.462 4.462 0 0 1-1.292.628c-.719.198-2.599.549-2.599.549z" class="prefix__cls-8" data-name="Path 3619" transform="translate(-591.789 -248.658)"/>
        <path id="prefix__Path_3620" d="M939.17 387.4s2.216.178 2.236.766" class="prefix__cls-8" data-name="Path 3620" transform="translate(-592.267 -251.537)"/>
        <path id="prefix__Path_3621" d="M887 297.434a8.829 8.829 0 0 0 2.228-2.88 2.015 2.015 0 0 1 .861-1.264s1.276.51.138 2.07a6.327 6.327 0 0 1-3.227 2.074z" class="prefix__cls-8" data-name="Path 3621" transform="translate(-560.706 -194.605)"/>
        <path id="prefix__Path_3622" d="M945.823 131.086c-.45 1.067-.849 1.146-.762 2.181a7.852 7.852 0 0 1-1.794 1.41c-1.4.834-2.927 2.461-4.673 2.461a9.264 9.264 0 0 1-3.413-.644 6.177 6.177 0 0 0-1.11-3.16s13.798-7.079 11.752-2.248z" class="prefix__cls-8" data-name="Path 3622" transform="translate(-589.182 -95.458)"/>
        <path id="prefix__Path_3623" d="M940.556 109.843a9.343 9.343 0 1 1-9.343-9.343 9.343 9.343 0 0 1 9.343 9.343z" class="prefix__cls-13" data-name="Path 3623" transform="translate(-581.801 -77.976)"/>
        <path id="prefix__Path_3624" d="M948 152.043l-2.995 4.468s-14.166 6.755-11.456-1.185a17.9 17.9 0 0 0 1.118-7.826h.024a7.412 7.412 0 0 1 .281 1.8c.043 1.217.075 2.765 3.1 3.271a8.452 8.452 0 0 0 8.229-2.927 14.612 14.612 0 0 0 1.699 2.399z" class="prefix__cls-8" data-name="Path 3624" transform="translate(-588.66 -106.409)"/>
        <path id="prefix__Path_3625" d="M813.951 108.7l-1.873 3.638a7.248 7.248 0 0 1-1.746-.363l-.162-.194c.767.292 3.35-4.586 3.35-4.586l.083.067c.213.845.348 1.438.348 1.438z" class="prefix__cls-8" data-name="Path 3625" transform="translate(-514.228 -82.023)"/>
        <path id="prefix__Path_3626" d="M921.918 279.753c-6.048 2.627-26.978.4-26.978.4a2.641 2.641 0 0 0 .107-.683c.569-.869.992-1.391.992-1.391l25.074-.984s.406 1.105.805 2.658z" class="prefix__cls-8" data-name="Path 3626" transform="translate(-565.51 -184.805)"/>
        <path id="prefix__Path_3627" d="M860.679 123.695l-2.789 1.185a2.228 2.228 0 0 1-2-1.3c-.644-1.351-2.935 0-2.935 0s-7-.529-9.58.766c0 0-4.172-1.766-4.74-1.88s-1.469-.589-1.88-.47-.94-.766-1.233-.707-.415-.589-1.355-.822-1.292.059-2.35-1-9.635-5.23-9.635-5.23l-3.879-3.16-4.112-3.291s-2.588 4.875-3.35 4.583l7.814 9.4s5.641 4.938 9.521 6.522 3.583 2.058 3.583 2.058 11.757 5.993 13.578 5.878 1.47 12.282.7 14.281-1.995 16.454-1.995 16.454-1.185 3.054.055 5.171c0 0 .3 4.346 0 5.112 0 0 21.06 2.252 27.033-.4 0 0 .881-9.754 0-10.99s.826-3.994.826-3.994l3.733-8.422 9.157-9.232s1.41-7.7-4.875-12.641l-4.176-3.7a15.48 15.48 0 0 0-3.014-2.145c-.68-.126-.431 0-.431 0a8.452 8.452 0 0 1-8.3 3.026c-3.026-.51-3.058-2.05-3.1-3.271a7.408 7.408 0 0 0-.277-1.79z" class="prefix__cls-20" data-name="Path 3627" transform="translate(-514.633 -82.386)"/>
        <path id="prefix__Path_3628" d="M942.293 228.13s-12.93.529-15.513 4.586a12.835 12.835 0 0 1 6.344-1.118c2.995.463 9.169-3.468 9.169-3.468z" class="prefix__cls-8" data-name="Path 3628" transform="translate(-584.772 -155.186)"/>
        <path id="prefix__Path_3629" d="M929.9 259.505s6.111.4 7.407-.881 1.3-2.054 1.3-2.054z" class="prefix__cls-8" data-name="Path 3629" transform="translate(-586.659 -172.391)"/>
        <path id="prefix__Path_3630" d="M966.108 196.6s-5.171 6.111 1.118 8.754z" class="prefix__cls-8" data-name="Path 3630" transform="translate(-607.353 -136.112)"/>
        <path id="prefix__Path_3631" d="M891.67 166.7s1.88 3.836 2.821 4.093z" class="prefix__cls-8" data-name="Path 3631" transform="translate(-563.532 -118.024)"/>
        <path id="prefix__Path_3632" d="M875.61 162.53a70.388 70.388 0 0 0 5.582 4.642s-4.879-4.642-5.582-4.642z" class="prefix__cls-8" data-name="Path 3632" transform="translate(-553.816 -115.501)"/>
        <path id="prefix__Path_3633" d="M919.114 152.27s-4.527 6.755-1.58 10.872c-.024 0-1.651-4.879 1.58-10.872z" class="prefix__cls-8" data-name="Path 3633" transform="translate(-578.575 -109.294)"/>
        <path id="prefix__Path_3634" d="M929.49 276.081l-1.383 1.3-.194.182-1.6 1.513c-.118.087-.229.174-.344.253-6.518 4.673-7.826-2.426-7.826-2.426s-2.88 1.88-3.291.352 6.716-3.7 7.755-3.583a1.38 1.38 0 0 0 .284 0 4.468 4.468 0 0 0 1.462-.518c.107-.055.213-.111.316-.17a11.719 11.719 0 0 0 1.055-.664z" class="prefix__cls-13" data-name="Path 3634" transform="translate(-577.546 -181.919)"/>
        <path id="prefix__Path_3635" d="M945.233 109.841a9.343 9.343 0 0 1-4.568 8.032 5.446 5.446 0 0 1-.338-.68c-.336-.79-.541-1.616-.877-2.4a7.483 7.483 0 0 0-1.58-2.287 1 1 0 0 0-.4-.288 1.134 1.134 0 0 0-.857.237 3.878 3.878 0 0 1-1.3.573 1.387 1.387 0 0 1-1.308-.4A1.96 1.96 0 0 1 933.8 111a20.246 20.246 0 0 0 .608-3.646 3.6 3.6 0 0 0-1.541-3.184c-.948-.537-2.125-.4-3.18-.691a3.427 3.427 0 0 1-.478-.166 9.347 9.347 0 0 1 16.035 6.526z" class="prefix__cls-8" data-name="Path 3635" transform="translate(-586.242 -77.974)"/>
        <path id="prefix__Path_3636" d="M927.1 96.259c-.17.091-.356.253-.3.442a.434.434 0 0 0 .17.217 4.044 4.044 0 0 0 1.477.758c1.055.284 2.236.15 3.184.691a3.59 3.59 0 0 1 1.541 3.18 21.3 21.3 0 0 1-.612 3.646 1.976 1.976 0 0 0 .209 1.635 1.4 1.4 0 0 0 1.308.4 3.851 3.851 0 0 0 1.3-.569 1.126 1.126 0 0 1 .857-.237 1.043 1.043 0 0 1 .419.284 7.418 7.418 0 0 1 1.58 2.291c.34.79.545 1.612.877 2.4a3.868 3.868 0 0 0 1.58 1.952 1.975 1.975 0 0 0 2.37-.249c.545-.6.529-1.509.79-2.279.466-1.331 1.77-2.169 2.584-3.318a10.2 10.2 0 0 0 1.418-4.488 3.77 3.77 0 0 0 .024-1.5 5.441 5.441 0 0 0-.415-.948c-.909-1.88-.889-4.247-2.339-5.752a6.989 6.989 0 0 0-4.3-1.659 11.048 11.048 0 0 1-4.523-1.126 4.976 4.976 0 0 0-1.225-.679 1.007 1.007 0 0 0-1.2.45.791.791 0 0 1-.162.328.514.514 0 0 1-.458.028l-2.07-.557.237 1.043a5.167 5.167 0 0 1-2.2-.4c-.039.589.624.972.83 1.521a1.407 1.407 0 0 1-.4 1.434c-.765.745-1.705.602-2.551 1.061z" data-name="Path 3636" transform="translate(-584.776 -72.403)" style="fill:#585268"/>
        <path id="prefix__Path_3637" d="M890.331 454.5l-.083.94-.036.02c-3.37 1.88-10.342-3.366-10.342-3.366l.727-.727a1.264 1.264 0 0 1 .316.98l1.426.079 1.7 1.841s4.61.533 5.859.233z" class="prefix__cls-8" data-name="Path 3637" transform="translate(-556.393 -290.236)"/>
        <path id="prefix__Path_3638" d="M870.218 459.582c-2.192.486-9.876.45-9.876.45l-4.29.683s-7.384.707-8.205-1.58.644-2.153.644-2.153h.055l3.073-.249a34.589 34.589 0 0 0 5.329-2.548 30.741 30.741 0 0 0 3.192-2.86s1.284-.249 1.26 1.236l1.426.079 1.7 1.837s4.61.537 5.858.237h.431l-.2 2.272.055.071c.279.353 1.508 2.087-.452 2.525z" class="prefix__cls-16" data-name="Path 3638" transform="translate(-536.869 -290.2)"/>
        <circle id="prefix__Ellipse_710" cx=".217" cy=".217" r=".217" class="prefix__cls-17" data-name="Ellipse 710" transform="translate(325.176 163.457)"/>
        <circle id="prefix__Ellipse_711" cx=".217" cy=".217" r=".217" class="prefix__cls-17" data-name="Ellipse 711" transform="translate(319.653 165.855)"/>
        <circle id="prefix__Ellipse_712" cx=".217" cy=".217" r=".217" class="prefix__cls-17" data-name="Ellipse 712" transform="translate(316.808 166.72)"/>
        <circle id="prefix__Ellipse_713" cx=".217" cy=".217" r=".217" class="prefix__cls-17" data-name="Ellipse 713" transform="translate(321.103 165.396)"/>
        <circle id="prefix__Ellipse_714" cx=".217" cy=".217" r=".217" class="prefix__cls-17" data-name="Ellipse 714" transform="translate(318.227 166.289)"/>
        <circle id="prefix__Ellipse_715" cx=".217" cy=".217" r=".217" class="prefix__cls-17" data-name="Ellipse 715" transform="translate(322.568 164.717)"/>
        <circle id="prefix__Ellipse_716" cx=".217" cy=".217" r=".217" class="prefix__cls-17" data-name="Ellipse 716" transform="translate(324.018 164.089)"/>
        <path id="prefix__Path_3639" d="M870.218 468.267c-2.192.486-9.876.45-9.876.45l-4.29.683s-7.384.707-8.205-1.58.644-2.153.644-2.153h.055a3.95 3.95 0 0 0 3.271 1.333l5.309.217 5.5-.4s5.136-.158 5.993-.332a12.453 12.453 0 0 0 2.054-.755c.276.364 1.505 2.099-.455 2.537z" class="prefix__cls-18" data-name="Path 3639" transform="translate(-536.869 -298.885)"/>
        <path id="prefix__Path_3640" d="M868.669 470.761a3.464 3.464 0 0 1-.869-.107l.079-.213a4.263 4.263 0 0 0 2.189-.1c.261-.067.517-.142.79-.221a8.959 8.959 0 0 1 3.812-.431h.17a36.086 36.086 0 0 0 7.052-.316 2.623 2.623 0 0 0 1.509-.6l.17.166a2.86 2.86 0 0 1-1.64.672 36.625 36.625 0 0 1-7.111.316h-.166a11.536 11.536 0 0 0-2.335.067 12.112 12.112 0 0 0-1.4.352c-.261.079-.521.158-.79.225a5.873 5.873 0 0 1-1.46.19z" class="prefix__cls-19" data-name="Path 3640" transform="translate(-549.091 -300.762)"/>
        <path id="prefix__Path_3641" d="M944.549 276.081l-1.383 1.3-3.437-4.4a11.707 11.707 0 0 0 1.055-.664z" class="prefix__cls-8" data-name="Path 3641" transform="translate(-592.606 -181.919)"/>
        <path id="prefix__Path_3642" d="M959.755 190.5l2.7 3.761v3.95a16.451 16.451 0 0 1 0 8.347l.138 3.642s-1.312 3.35-.841 4.172c0 0-.237 2.469-3.409 4.176s-6.759 5.728-6.759 5.728a4.6 4.6 0 0 1-4.993 2l-3.469 1.47-3.994-5.112 5.4-2.939s1.88-2.528 3-2.41l4.583-5.337s.118-1.7 1.292-1.7c0 0-2.173-1.762-1.41-2.821s.119-5.76.119-5.76z" class="prefix__cls-20" data-name="Path 3642" transform="translate(-592.243 -132.422)"/>
        <path id="prefix__Path_3643" d="M978.55 233.731s6.171-.115 6.933 1.47-5.053-2.351-6.933-1.47z" class="prefix__cls-8" data-name="Path 3643" transform="translate(-616.09 -158.495)"/>
        <path id="prefix__Path_3644" d="M940.269 278.525a1.619 1.619 0 0 1-.024.308 2.078 2.078 0 0 1-1.945 1.767h-.111a2.074 2.074 0 0 1-2.074-2.074 2.124 2.124 0 0 1 .115-.676 3.577 3.577 0 0 1-1.007-2.911 4.469 4.469 0 0 0 1.462-.517 9.717 9.717 0 0 0 1.023 2.09 1.975 1.975 0 0 1 .482-.059 2.074 2.074 0 0 1 2.078 2.074z" class="prefix__cls-8" data-name="Path 3644" transform="translate(-589.877 -183.19)"/>
        <path id="prefix__Path_3645" d="M937.23 273.26s-1.391.312-1.391.565-.312 2.548 1.213 3.488 1.375-1.313 1.375-1.313-1.315-2.017-1.197-2.74z" class="prefix__cls-17" data-name="Path 3645" transform="translate(-590.236 -182.488)"/>
        <circle id="prefix__Ellipse_717" cx="2.078" cy="2.078" r="2.078" data-name="Ellipse 717" transform="translate(346.472 93.257)" style="fill:#e4aab4"/>
        <circle id="prefix__Ellipse_718" cx="1.782" cy="1.782" r="1.782" class="prefix__cls-18" data-name="Ellipse 718" transform="translate(346.769 93.553)"/>
        <path id="prefix__Path_3646" d="M922.81 286.84a10.291 10.291 0 0 0 10.03 1.335v1.762s-3.761 2.584-7.17 1.019-2.86-4.116-2.86-4.116z" class="prefix__cls-8" data-name="Path 3646" transform="translate(-582.35 -190.703)"/>
        <path id="prefix__Path_3647" d="M922.81 285.65a10.281 10.281 0 0 0 10.03 1.323v1.762s-3.761 2.584-7.17 1.019-2.86-4.104-2.86-4.104z" class="prefix__cls-8" data-name="Path 3647" transform="translate(-582.35 -189.983)"/>
        <path id="prefix__Path_3648" d="M922.81 285.65a10.281 10.281 0 0 0 10.03 1.323v1.762s-3.761 2.584-7.17 1.019-2.86-4.104-2.86-4.104z" class="prefix__cls-14" data-name="Path 3648" transform="translate(-582.35 -189.983)"/>
        <path id="prefix__Path_3649" d="M923.112 285.65a10.291 10.291 0 0 0 10.03 1.335v1.762s-3.773 2.572-7.17 1.019-2.86-4.116-2.86-4.116z" class="prefix__cls-15" data-name="Path 3649" transform="translate(-582.534 -189.983)"/>
        <path id="prefix__Path_3650" d="M888 451.32s5.878 1.078 6.739 1.312-.237.648-.237.648-5.384-.961-6.502-1.96z" class="prefix__cls-8" data-name="Path 3650" transform="translate(-561.311 -290.206)"/>
        <path id="prefix__Path_3651" d="M887.61 438.879c.095 0 3.994-1.1 4.835-2.979" class="prefix__cls-8" data-name="Path 3651" transform="translate(-561.075 -280.878)"/>
        <path id="prefix__Path_3652" d="M902 386.507s1.58 2.078 2.6 2.019-1.672-2.098-2.6-2.019z" class="prefix__cls-8" data-name="Path 3652" transform="translate(-569.781 -250.995)"/>
        <path id="prefix__Path_3653" d="M904.22 395.24s.664 1.47 1.643 1" class="prefix__cls-8" data-name="Path 3653" transform="translate(-571.124 -256.28)"/>
        <path id="prefix__Path_3654" d="M913.59 313.545l4.168 10.99s.589-7.071-.656-9.189a3.67 3.67 0 0 0-3.512-1.801z" class="prefix__cls-15" data-name="Path 3654" transform="translate(-576.792 -206.849)"/>
        <g id="prefix__Group_613" class="prefix__cls-4" data-name="Group 613" transform="translate(341.969 19.277)">
            <path id="prefix__Path_3655" d="M938.477 92.616l-.036-.158-.672-.178.075.328a4.816 4.816 0 0 0 .632.008z" data-name="Path 3655" transform="translate(-933.389 -92.28)"/>
            <path id="prefix__Path_3656" d="M933.621 96.281l.071-.063a1.4 1.4 0 0 0 .395-1.43 1.94 1.94 0 0 0-.332-.533 5.137 5.137 0 0 1-.968-.284c-.039.589.624.968.83 1.521a1.185 1.185 0 0 1 .004.789z" data-name="Path 3656" transform="translate(-930.374 -93.302)"/>
            <path id="prefix__Path_3657" d="M941.028 120.317a3.884 3.884 0 0 1-1.58-1.952c-.336-.79-.537-1.62-.877-2.4a7.366 7.366 0 0 0-1.58-2.287 1 1 0 0 0-.415-.288 1.121 1.121 0 0 0-.857.237 3.95 3.95 0 0 1-1.3.573 1.41 1.41 0 0 1-1.308-.4 1.96 1.96 0 0 1-.205-1.632 20.3 20.3 0 0 0 .612-3.65 3.528 3.528 0 0 0-1.545-3.16c-.948-.541-2.125-.4-3.16-.691a4.015 4.015 0 0 1-1.478-.758l-.083-.075a2.527 2.527 0 0 0-.257.122c-.17.091-.352.253-.3.438a.469.469 0 0 0 .174.221 4.07 4.07 0 0 0 1.477.755c1.055.288 2.232.154 3.18.7a3.577 3.577 0 0 1 1.545 3.16 21.228 21.228 0 0 1-.612 3.646 1.967 1.967 0 0 0 .206 1.632 1.39 1.39 0 0 0 1.307.4 3.952 3.952 0 0 0 1.3-.569 1.141 1.141 0 0 1 .857-.241 1.039 1.039 0 0 1 .4.288 7.458 7.458 0 0 1 1.58 2.287c.34.79.541 1.616.877 2.4a3.875 3.875 0 0 0 1.58 1.975 2 2 0 0 0 2.37-.249 1.865 1.865 0 0 0 .352-.589 2.015 2.015 0 0 1-2.26.107z" data-name="Path 3657" transform="translate(-926.681 -99.273)"/>
            <path id="prefix__Path_3658" d="M971.54 133.959c.589-.743 1.359-1.375 1.912-2.157a5.536 5.536 0 0 0 .3-.482 19.567 19.567 0 0 0-2.212 2.639z" data-name="Path 3658" transform="translate(-953.819 -115.897)"/>
        </g>
        <g id="prefix__Group_615" class="prefix__cls-4" data-name="Group 615" transform="translate(226.473 26.238)">
            <path id="prefix__Path_3659" d="M732.674 109.9h-93.467a4.9 4.9 0 0 0-4.887 4.883v59.055a4.9 4.9 0 0 0 4.887 4.883h73.32s1.9 10.086-4.346 11.168c0 0 13.977 1 11.535-11.168h12.954a4.895 4.895 0 0 0 4.883-4.883v-59.055a4.895 4.895 0 0 0-4.879-4.883z" data-name="Path 3659" transform="translate(-634.32 -109.9)"/>
            <g id="prefix__Group_614" class="prefix__cls-5" data-name="Group 614" transform="translate(13.759 15.675)">
                <rect id="prefix__Rectangle_1674" width="75.714" height="4.614" data-name="Rectangle 1674" rx="2.307"/>
                <rect id="prefix__Rectangle_1675" width="62.476" height="4.614" data-name="Rectangle 1675" rx="2.307" transform="translate(0 20.621)"/>
                <rect id="prefix__Rectangle_1676" width="44.976" height="4.614" data-name="Rectangle 1676" rx="2.307" transform="translate(0 10.311)"/>
            </g>
        </g>
        <path id="prefix__Path_3660" d="M735.765 107.83H642.3a4.9 4.9 0 0 0-4.887 4.887v59.055a4.9 4.9 0 0 0 4.887 4.883h73.32s1.9 10.086-4.346 11.168c0 0 13.977 1 11.535-11.168h12.953a4.894 4.894 0 0 0 4.883-4.883v-59.055a4.9 4.9 0 0 0-4.88-4.887z" class="prefix__cls-3" data-name="Path 3660" transform="translate(-409.716 -82.41)"/>
        <g id="prefix__Group_616" class="prefix__cls-5" data-name="Group 616" transform="translate(241.453 41.095)">
            <rect id="prefix__Rectangle_1677" width="75.714" height="4.614" class="prefix__cls-6" data-name="Rectangle 1677" rx="2.307"/>
            <rect id="prefix__Rectangle_1678" width="62.476" height="4.614" class="prefix__cls-6" data-name="Rectangle 1678" rx="2.307" transform="translate(0 20.625)"/>
            <rect id="prefix__Rectangle_1679" width="44.976" height="4.614" class="prefix__cls-6" data-name="Rectangle 1679" rx="2.307" transform="translate(0 10.315)"/>
        </g>
        <path id="prefix__Path_3661" d="M136.254 596.48s1.406 1.841-.652 4.622-3.757 5.136-3.07 6.862c0 0 3.105-5.163 5.633-5.234s.87-3.145-1.911-6.25z" class="prefix__cls-6" data-name="Path 3661" transform="translate(-104.194 -378.021)"/>
        <path id="prefix__Path_3662" d="M136.376 596.48a2.323 2.323 0 0 1 .284.577c2.469 2.9 3.781 5.6 1.41 5.673-2.208.063-4.855 4.01-5.491 5.009a.721.721 0 0 0 .075.225s3.105-5.163 5.633-5.234.871-3.145-1.911-6.25z" class="prefix__cls-8" data-name="Path 3662" transform="translate(-104.317 -378.021)"/>
        <path id="prefix__Path_3663" d="M148.314 601.778c0 .648-.071 1.185-.162 1.185s-.162-.525-.162-1.185.091-.344.182-.344.142-.304.142.344z" class="prefix__cls-23" data-name="Path 3663" transform="translate(-113.639 -380.972)"/>
        <path id="prefix__Path_3664" d="M149.386 603.7c-.569.312-1.067.5-1.11.419s.4-.395.952-.7.348-.083.4 0 .326-.019-.242.281z" class="prefix__cls-23" data-name="Path 3664" transform="translate(-113.81 -382.124)"/>
        <path id="prefix__Path_3665" d="M118.512 596.48s-1.406 1.841.652 4.622 3.757 5.136 3.069 6.862c0 0-3.105-5.163-5.633-5.234s-.869-3.145 1.912-6.25z" class="prefix__cls-6" data-name="Path 3665" transform="translate(-93.895 -378.021)"/>
        <path id="prefix__Path_3666" d="M118.512 596.48a2.323 2.323 0 0 0-.284.577c-2.469 2.9-3.781 5.6-1.41 5.673 2.208.063 4.855 4.01 5.491 5.009-.02.075-.047.15-.075.225 0 0-3.105-5.163-5.633-5.234s-.87-3.145 1.911-6.25z" class="prefix__cls-8" data-name="Path 3666" transform="translate(-93.895 -378.021)"/>
        <path id="prefix__Path_3667" d="M116.73 601.778c0 .648.071 1.185.162 1.185s.162-.525.162-1.185-.091-.344-.182-.344-.142-.304-.142.344z" class="prefix__cls-23" data-name="Path 3667" transform="translate(-94.728 -380.972)"/>
        <path id="prefix__Path_3668" d="M113.912 603.7c.569.312 1.067.5 1.11.419s-.4-.395-.952-.7-.348-.083-.4 0-.331-.019.242.281z" class="prefix__cls-23" data-name="Path 3668" transform="translate(-92.811 -382.124)"/>
        <ellipse id="prefix__Ellipse_719" cx="14.727" cy="2.26" class="prefix__cls-2" data-name="Ellipse 719" rx="14.727" ry="2.26" transform="translate(13.611 239.515)"/>
        <path id="prefix__Path_3669" d="M128.753 617.957l-.071.573-.1.814-.043.34-.1.81-.04.34-.1.814-1.13 9.24c-.1.826-1.446 1.47-3.073 1.47h-5.87c-1.628 0-2.971-.644-3.073-1.47l-1.13-9.236-.1-.814-.039-.34-.1-.81-.043-.34-.1-.814-.071-.573c-.055-.466.676-.861 1.58-.861h11.98c.932 0 1.663.391 1.623.857z" data-name="Path 3669" transform="translate(-92.818 -390.495)" style="fill:#65617d"/>
        <path id="prefix__Path_3670" d="M67.716 577.23l-.1.814H52.8l-.1-.814z" class="prefix__cls-25" data-name="Path 3670" transform="translate(-31.872 -349.195)"/>
        <path id="prefix__Path_3671" d="M67.789 580.15l-.1.81H53.153l-.1-.81z" class="prefix__cls-25" data-name="Path 3671" transform="translate(-32.083 -350.962)"/>
        <path id="prefix__Path_3672" d="M67.865 583.06l-.1.814H53.509l-.1-.814z" class="prefix__cls-25" data-name="Path 3672" transform="translate(-32.301 -352.722)"/>
        <ellipse id="prefix__Ellipse_720" cx="33.2" cy="5.448" class="prefix__cls-2" data-name="Ellipse 720" rx="33.2" ry="5.448" transform="translate(221.926 306.384)"/>
        <g id="prefix__Group_618" class="prefix__cls-4" data-name="Group 618" transform="translate(187 144.538)">
            <path id="prefix__Path_3673" d="M640.979 409.36H539.694a5.309 5.309 0 0 0-5.294 5.294v64a5.309 5.309 0 0 0 5.294 5.294h79.456s2.058 10.927-4.7 12.1c0 0 15.142 1.086 12.5-12.1h14.04a5.309 5.309 0 0 0 5.294-5.294v-64a5.309 5.309 0 0 0-5.305-5.294z" data-name="Path 3673" transform="translate(-534.4 -409.36)"/>
            <g id="prefix__Group_617" class="prefix__cls-5" data-name="Group 617" transform="translate(14.909 28.163)">
                <rect id="prefix__Rectangle_1680" width="82.051" height="5.001" data-name="Rectangle 1680" rx="2.501" transform="translate(0 11.176)"/>
                <rect id="prefix__Rectangle_1681" width="35.578" height="5.001" data-name="Rectangle 1681" rx="2.501"/>
            </g>
        </g>
        <path id="prefix__Path_3674" d="M638.759 407.13H537.454a5.309 5.309 0 0 0-5.294 5.294v64a5.309 5.309 0 0 0 5.294 5.294h79.456s2.058 10.927-4.7 12.1c0 0 15.146 1.086 12.5-12.1h14.056a5.309 5.309 0 0 0 5.294-5.294v-64a5.31 5.31 0 0 0-5.294-5.294z" class="prefix__cls-3" data-name="Path 3674" transform="translate(-346.044 -263.473)"/>
        <g id="prefix__Group_619" class="prefix__cls-5" data-name="Group 619" transform="translate(201.028 171.82)">
            <rect id="prefix__Rectangle_1682" width="82.051" height="5.001" class="prefix__cls-6" data-name="Rectangle 1682" rx="2.501" transform="translate(0 11.176)"/>
            <rect id="prefix__Rectangle_1683" width="35.578" height="5.001" class="prefix__cls-6" data-name="Rectangle 1683" rx="2.501"/>
        </g>
        <path id="prefix__Path_3675" d="M626.862 556.46c-.478-2.027-.79-3.808-.79-3.808a7.849 7.849 0 0 0-.881-3.867v-4.635a13.668 13.668 0 0 1 1.031-2.137c.735-1.284 0-5.985 0-5.985S623.5 529.4 624.16 525.2s-5.6-18.674-5.6-18.674a18.357 18.357 0 0 1 .589-4.132 3.2 3.2 0 0 0 .079-.865.971.971 0 0 0 0-.107v.036c-.095-2.765-2.287-7.972-2.287-7.972l.3-9.9a29.124 29.124 0 0 0-.885-13.684c-.79-2.734-1.308-4.926-1.632-6.613-.036-.194-.071-.4-.1-.553 4.7-.715 8.3-1.312 8.3-1.312s-2.718-11.4-4.559-13.38-3.311-8.3-3.311-8.3-.96-8.055.589-10.405 1.766-6.412 1.766-6.412 3.555-2.568 3.978-3.706a19.613 19.613 0 0 0 1.185-5.061c0-1.355-.442-2.568-.3-3.279s-1.031-3.421-.442-4.705a3.458 3.458 0 0 0 .237-1.237v-.039a17.46 17.46 0 0 0-.312-3.342 9.48 9.48 0 0 0-3.5-1.869l-.079-.308-.2-.79c-.119-.079-.233-.146-.348-.209v-.292l-.036-1.157.557-2.6c1.086-4.527-4.954-5.2-4.954-5.2a3.161 3.161 0 0 0-1.711-1.5c-1.217-.427-.2 6.807.367 7.269a26.226 26.226 0 0 1 2.37 3.729l.1.186a2.222 2.222 0 0 0-.277.288l.229 1.58.036.241a6.582 6.582 0 0 0-.964 1.643 3.51 3.51 0 0 1 .885 2.568 7.8 7.8 0 0 0 .363 3.133c-.063-.075-.841-.917-1.616-.711s-2.947.857-2.947.857-1.62.284-1.47.64-1.106 1.924-1.106 1.924l-4.345-4.124c-.04-.122-.087-.245-.126-.375a10.355 10.355 0 0 1-.4-1.805 10.337 10.337 0 0 0 1.391-.443 3.008 3.008 0 0 0 1.185-.77 4.686 4.686 0 0 0 .7-1.876 27.143 27.143 0 0 1 1.616-3.6 11.693 11.693 0 0 0 .869-6.467 4.269 4.269 0 0 0-.668-1.892c-.711-.98-2-1.375-2.939-2.157s-1.541-1.975-2.631-2.556a5.238 5.238 0 0 0-3.307-.284 17.812 17.812 0 0 0-6.167 2.244 3.175 3.175 0 0 1-2.062.68 2.779 2.779 0 0 1-1.489-1.094.073.073 0 0 1 .02-.059l-.047-.055a7.654 7.654 0 0 0-.644 3.228 4.612 4.612 0 0 0 .02.521v.332a.786.786 0 0 1-.031.233 1.7 1.7 0 0 1-.4.589 3.109 3.109 0 0 0-.356.482 1.6 1.6 0 0 1 .059-.178 2.587 2.587 0 0 0-.45 1.375 1.359 1.359 0 0 0 .324.98 4.737 4.737 0 0 0 .711.573 8.3 8.3 0 0 0 3.95 8.628c.051.122.1.249.15.375a10.386 10.386 0 0 1 .79 4.741 1.725 1.725 0 0 1-.055.348c-.024.115-.107.119-.154.182s-7.186.071-8.881-1.462-4.27 3.741-4.27 3.741-2.576.5-3.089 0-3.536-.071-3.536-.071a6.5 6.5 0 0 0-4.472-1.636 13.29 13.29 0 0 0-3.295-1.833l-.079-.028a3.706 3.706 0 0 0-1.62-.205 33.234 33.234 0 0 1-4.567-4.488c-1.031-1.564-5.926-7.383-5.961-7.411v-.28l-.055-.849a2.812 2.812 0 0 1-.438.04c-.028-.083-.059-.182-.1-.292a16.424 16.424 0 0 0-1.043-2.4s0-1.067.312-1.335-.13-4.187-.13-4.187-3.184-7.447-6.036-1.888c0 0-5.392 3.6-.865 7.786 0 0 1.805.873 2.058 1.58.17.45.79 1.707 1.185 2.54l.186.375-.051.043.067.7.028.269c-.853.486-1.43.964-1.292 1.327a8.034 8.034 0 0 1 .518 1.924s6.234 7.822 7.044 11.18c0 0 16.785 9.975 22.308 10.686l-.956 4.989a39.9 39.9 0 0 0-.221 4.061c.071 1.071-.664 5.926-.664 5.926s-.956 7.111-1.766 8.122-.644 5.266-.644 5.266a36.014 36.014 0 0 1-1.091 6.054 15.875 15.875 0 0 0-.221 6.06s-2.8 6.412 3.9 2.066c0 0 3.291-.205 7.079-.336v.4c0 .486 0 1.015-.024 1.58-.051 3.674-.071 8.734.095 12.566.3 6.767 2.37 20.167 2.37 20.167v6.716a9.242 9.242 0 0 0-.194 1.924 12.542 12.542 0 0 0 1.813 6.739l.517 4.488a17.572 17.572 0 0 1 1.233 4.741 2.74 2.74 0 0 1-.051.431 3.063 3.063 0 0 0-.059.687 38.79 38.79 0 0 0 1.161 6.913s.071 4.918.79 5.2c.628.245-.842 2.836-1.28 3.579a.263.263 0 0 0-.028-.142l-.091.15a3.446 3.446 0 0 0-.229 1.24 1.79 1.79 0 0 0 .818 1.73c1.4.853 2.149 1.58.96 1.853a12.757 12.757 0 0 0-1.3.273l-.063-.166a.79.79 0 0 0-.482.861 3.588 3.588 0 0 0 .439 1.667 19.006 19.006 0 0 0 1.975 3.634l.569-.063a3.048 3.048 0 0 1-.328.608 2.346 2.346 0 0 1-.834.739 2.511 2.511 0 0 1-1.007.344 2.849 2.849 0 0 0-2.08 1.009c-.735.952-1.185 2.244.257 3.382l5.266 1.817s9.054 1.185 8.576-.857-.79-3.812-.79-3.812a8.028 8.028 0 0 0-.735-3.6 4.815 4.815 0 0 0-.32-.529l.32-.036s.664-4.492 1.545-5.345c.205-.2.253-.348.2-.466.091-.245-.138-.4-.435-.47l-.063.178a4.319 4.319 0 0 0-.881-.1s-.292-2.351.664-3.2a.909.909 0 0 0 .186-.7 3.925 3.925 0 0 0-.1-.96l-.036.055a34.785 34.785 0 0 0-2.113-5.531 6.737 6.737 0 0 1 .518-2.994c.593-.857-.075-11.614-.075-11.614s.221-5.2-.442-7.624.81-5.274.81-5.274v-.158l.02-.036s-.036-.32-.087-.818v.047c-.15-1.375-.431-3.871-.636-5.025-.3-1.639.071-9.481.071-9.481l1.327-3.35 2.37 5.776 2.5 7.7a6.548 6.548 0 0 1 1.268 3.271 1.62 1.62 0 0 1 0 .241 4.64 4.64 0 0 0-.028.518 4.558 4.558 0 0 0 .762 2.738s.664 3.634 1.695 4.563a4.11 4.11 0 0 1 1.031 2.706s1.248 5.274 1.841 6.2a9.3 9.3 0 0 1 .517 3.583v.194s.174 1.884.166 3.469v.565a.167.167 0 0 1 0-.043 5.786 5.786 0 0 1-.154 1.284.133.133 0 0 1-.024.075l.024-.269a13.574 13.574 0 0 0-.4 3.287c-.035 1.9.253 4.14 1.4 5.456 1.975 2.283 3.239 2 3.239 2s-.956 2.848-2.137 3.417a.674.674 0 0 0-.122.083 1.219 1.219 0 0 0-.032-.166 1.383 1.383 0 0 0-.344 1.063 7.573 7.573 0 0 0 1.458 4.223 2.3 2.3 0 0 0 1 .581l-.186.115a4.063 4.063 0 0 1-.4.194 1.907 1.907 0 0 1-.6.154 2.82 2.82 0 0 0-2.086 1.015c-.735.948-1.185 2.24.257 3.378l5.266 1.817s9.012 1.149 8.534-.885z" data-name="Path 3675" transform="translate(-352.631 -248.333)"/>
        <path id="prefix__Path_3676" d="M658.439 816.686l-5.1-1.817c-1.406-1.138-.956-2.43-.249-3.382a2.726 2.726 0 0 1 2.019-1.015 2.369 2.369 0 0 0 .976-.344 2.285 2.285 0 0 0 .79-.739 3.726 3.726 0 0 0 .581-1.975s5.6-1.639 7.111 0a4.211 4.211 0 0 1 .68.992 8.3 8.3 0 0 1 .711 3.6s.288 1.782.747 3.812-8.266.868-8.266.868z" class="prefix__cls-27" data-name="Path 3676" transform="translate(-418.799 -505.186)"/>
        <path id="prefix__Path_3677" d="M721.577 810.328l-5.1-1.817c-1.406-1.138-.96-2.43-.249-3.378a2.7 2.7 0 0 1 2.019-1.015 1.792 1.792 0 0 0 .581-.154 3 3 0 0 0 .395-.194 3.235 3.235 0 0 0 1.387-2.706s5.594-1.639 7.111 0a3.815 3.815 0 0 1 .533.727 8.061 8.061 0 0 1 .857 3.872s.284 1.782.747 3.812-8.281.853-8.281.853z" class="prefix__cls-27" data-name="Path 3677" transform="translate(-456.993 -501.344)"/>
        <path id="prefix__Path_3678" d="M671.447 807.419a4.208 4.208 0 0 1 .68.991l-8.387.972a3.726 3.726 0 0 0 .581-1.975s5.598-1.627 7.126.012z" class="prefix__cls-8" data-name="Path 3678" transform="translate(-425.644 -505.187)"/>
        <path id="prefix__Path_3679" d="M733.282 801.783v1.58c-1.3 2.149-7.609 1.679-9.442.6a3 3 0 0 0 .4-.194 3.235 3.235 0 0 0 1.387-2.706s5.594-1.639 7.111 0a3.818 3.818 0 0 1 .544.72z" class="prefix__cls-8" data-name="Path 3679" transform="translate(-462.002 -501.344)"/>
        <path id="prefix__Path_3680" d="M685.026 659.311a14.523 14.523 0 0 0-1 2.137v5.629c-1.422 2.37-8.833 1.58-9.833.284s-2.066-4.63-.924-5.2 2.066-3.421 2.066-3.421-1.213.284-3.137-2-1.355-7.34-1-8.553 0-5.274 0-5.274.071-2.848-.5-3.777-1.782-6.2-1.782-6.2a4.212 4.212 0 0 0-1-2.71c-1-.928-1.639-4.559-1.639-4.559a4.681 4.681 0 0 1-.723-3.062 6.19 6.19 0 0 0-1.209-3.706l-2.422-7.7-2.283-5.772-1.272 3.346s-.359 7.838-.071 9.481.711 5.985.711 5.985-1.426 2.852-.79 5.274.427 7.624.427 7.624.64 10.761.071 11.614a6.989 6.989 0 0 0-.5 2.994s2.919 6.269 1.975 7.111-.644 3.208-.644 3.208 1.975 0 1.142.853-1.458 5.357-1.458 5.357l-8.616 1a17.891 17.891 0 0 1-1.932-3.634c-1.142-2.639.213-2.37 1.363-2.635s.419-1-.932-1.853-.573-2.765-.573-2.765 2.066-3.492 1.355-3.781-.79-5.2-.79-5.2-1.426-5.847-1.071-7.411-1.142-5.345-1.142-5.345l-.5-4.492a12.353 12.353 0 0 1-1.58-8.478v-6.925s-1.975-13.4-2.279-20.167c-.182-4.345-.13-10.251-.071-13.945.036-2.07.071-3.441.071-3.441L673.341 576a25.43 25.43 0 0 0 .557 4.571c.312 1.691.79 3.879 1.58 6.617a30.041 30.041 0 0 1 .853 13.68l-.284 9.908s2.71 6.625 2.137 8.908a18.967 18.967 0 0 0-.569 4.132s6.056 14.467 5.416 18.67 1.975 10.832 1.975 10.832.731 4.709.02 5.993z" class="prefix__cls-17" data-name="Path 3680" transform="translate(-412.747 -365.632)"/>
        <path id="prefix__Path_3681" d="M705.71 691l9.374-1.248s-5.309 5.414-9.374 1.248z" class="prefix__cls-15" data-name="Path 3681" transform="translate(-451.034 -434.445)"/>
        <path id="prefix__Path_3682" d="M723.381 666.57s.32 3.315-1.711 4.563c.004 0 3.638-.573 1.711-4.563z" class="prefix__cls-8" data-name="Path 3682" transform="translate(-460.689 -420.422)"/>
        <path id="prefix__Path_3683" d="M707.618 639.88s-7.834 6.447-10.666 5.926 10.666-5.926 10.666-5.926z" class="prefix__cls-8" data-name="Path 3683" transform="translate(-445.5 -404.276)"/>
        <path id="prefix__Path_3684" d="M666.921 700.58s-5.949 1.351-6.127 3.741 6.127-3.741 6.127-3.741z" class="prefix__cls-8" data-name="Path 3684" transform="translate(-423.86 -440.997)"/>
        <path id="prefix__Path_3685" d="M669.748 775.8s-8.407 1.58-6.021 2.635a42.372 42.372 0 0 0 6.321 1.924s2.694.141-.3-4.559z" class="prefix__cls-15" data-name="Path 3685" transform="translate(-425.379 -486.501)"/>
        <g id="prefix__Group_620" data-name="Group 620" transform="translate(229.667 213.379)" style="opacity:.05">
            <path id="prefix__Path_3686" d="M658.424 784.9a1.675 1.675 0 0 1-.766-1.221l-.087.15s-.79 1.924.569 2.765c.158.1.3.2.438.292.253-.047.521-.083.79-.146 1.137-.275.411-.986-.944-1.84z" data-name="Path 3686" transform="translate(-651.441 -704.647)"/>
            <path id="prefix__Path_3687" d="M686.89 783.076c.233-.213.225-.762.083-1.466a3.974 3.974 0 0 0-.478 2.066 1.731 1.731 0 0 1 .395-.6z" data-name="Path 3687" transform="translate(-669.074 -703.395)"/>
            <path id="prefix__Path_3688" d="M683.359 695.58a9.581 9.581 0 0 0-.569 2.619 10.313 10.313 0 0 1 .652-1.8l-.083-.819z" data-name="Path 3688" transform="translate(-666.836 -651.351)"/>
            <path id="prefix__Path_3689" d="M732.764 684.9a3.275 3.275 0 0 0 .079-.79c-.107.529-.182 1.023-.233 1.458a3.837 3.837 0 0 1 .154-.668z" data-name="Path 3689" transform="translate(-696.974 -644.412)"/>
            <path id="prefix__Path_3690" d="M683.432 757.29a4.546 4.546 0 0 0 .213-1.58 5.367 5.367 0 0 0-.4 2 1.924 1.924 0 0 1 .187-.42z" data-name="Path 3690" transform="translate(-667.114 -687.727)"/>
            <path id="prefix__Path_3691" d="M669.433 793.72a28.056 28.056 0 0 0-.98 4.377l-8.616 1a18.062 18.062 0 0 1-1.932-3.634c-.1-.233-.178-.438-.241-.628-.517.237-.719.79-.043 2.339a18.227 18.227 0 0 0 1.928 3.634l8.628-1s.64-4.488 1.493-5.345c.415-.419.146-.632-.237-.743z" data-name="Path 3691" transform="translate(-651.349 -710.721)"/>
            <path id="prefix__Path_3692" d="M649.1 653.824s.071 4.918.79 5.2c.359-.814.6-1.58.28-1.715-.715-.284-.79-5.2-.79-5.2s-1.422-5.843-1.067-7.411-1.142-5.345-1.142-5.345l-.5-4.488a12.338 12.338 0 0 1-1.58-8.482v-6.913s-1.975-13.4-2.279-20.147c-.182-4.346-.13-10.271-.071-13.945 0-.668.02-1.26.032-1.758l-.245.024s-.04 1.371-.071 3.445c-.063 3.69-.115 9.608.071 13.941.284 6.771 2.279 20.167 2.279 20.167v6.913a12.337 12.337 0 0 0 1.58 8.482l.5 4.46s1.5 3.777 1.142 5.345 1.071 7.427 1.071 7.427z" data-name="Path 3692" transform="translate(-642.403 -583.62)"/>
            <path id="prefix__Path_3693" d="M720.975 797.276a8.3 8.3 0 0 1-1.363-3.385c-.881.79.13 3.875 1.078 5.1 1 1.28 8.407 2.066 9.833-.284v-1.359c-1.923 1.907-8.592 1.14-9.548-.072z" data-name="Path 3693" transform="translate(-688.907 -710.824)"/>
            <path id="prefix__Path_3694" d="M749.469 781.983a13.825 13.825 0 0 0-1 2.137v.992c.162-.367.4-.853.715-1.43a4.261 4.261 0 0 0 .312-1.762.241.241 0 0 0-.027.063z" data-name="Path 3694" transform="translate(-706.569 -703.582)"/>
            <path id="prefix__Path_3695" d="M718.443 768.828a13.751 13.751 0 0 0 .7-1.695s-1.213.285-3.137-1.975c-1.4-1.659-1.481-4.792-1.28-6.838-.359 1.209-.928 6.269 1 8.549a5.11 5.11 0 0 0 2.717 1.959z" data-name="Path 3695" transform="translate(-685.936 -689.306)"/>
            <path id="prefix__Path_3696" d="M696.012 684.9a38.1 38.1 0 0 1 .142 4.223 6.123 6.123 0 0 1 .146-.664c.359-1.209 0-5.27 0-5.27s.071-2.852-.5-3.777-1.782-6.2-1.782-6.2a4.2 4.2 0 0 0-1-2.706c-1-.924-1.639-4.563-1.639-4.563a4.667 4.667 0 0 1-.715-3.062 6.219 6.219 0 0 0-1.209-3.706l-2.426-7.7-2.279-5.772-1.284 3.35s0 .423-.043 1.082l1.043-2.722 2.279 5.772 2.433 7.7a6.21 6.21 0 0 1 1.213 3.706 4.665 4.665 0 0 0 .715 3.062s.64 3.634 1.635 4.563a4.217 4.217 0 0 1 1 2.706s1.213 5.274 1.782 6.2.489 3.778.489 3.778z" data-name="Path 3696" transform="translate(-667.223 -621.176)"/>
        </g>
        <path id="prefix__Path_3697" d="M719.708 402.718l-.537 2.6.032 1.158.024.857-2.975.3-.332-.616a27.21 27.21 0 0 0-2.307-3.729c-.549-.462-1.529-7.7-.351-7.269a3.113 3.113 0 0 1 1.655 1.5s5.842.692 4.791 5.199z" class="prefix__cls-29" data-name="Path 3697" transform="translate(-455.267 -256.742)"/>
        <path id="prefix__Path_3698" d="M724.146 422.877l-2.975.3-.332-.616a2.627 2.627 0 0 1 3.283-.541z" class="prefix__cls-8" data-name="Path 3698" transform="translate(-460.187 -272.271)"/>
        <path id="prefix__Path_3699" d="M724.637 424.68l-3.923.909-.079-.585-.225-1.58a2.7 2.7 0 0 1 3.8-.518l.194.79z" class="prefix__cls-18" data-name="Path 3699" transform="translate(-459.927 -272.667)"/>
        <path id="prefix__Path_3700" d="M555.815 394.6l-4.183 2.244-.4-.79c-.4-.834-.992-2.09-1.154-2.54-.249-.691-1.995-1.58-1.995-1.58-4.381-4.187.838-7.786.838-7.786 2.765-5.558 5.843 1.888 5.843 1.888s.427 3.923.126 4.188-.3 1.335-.3 1.335a16.22 16.22 0 0 1 1.011 2.4c.147.393.214.641.214.641z" class="prefix__cls-29" data-name="Path 3700" transform="translate(-354.621 -248.321)"/>
        <path id="prefix__Path_3701" d="M563.319 412.746l-4.184 2.244-.4-.79c.589-.49 2.686-2.189 3.374-2.114a5.26 5.26 0 0 0 .992.028c.15.386.218.632.218.632z" class="prefix__cls-8" data-name="Path 3701" transform="translate(-362.124 -266.47)"/>
        <path id="prefix__Path_3702" d="M563.963 414.486l-4.7 2.319-.095-1.011-.067-.7s2.726-2.335 3.532-2.248a4.252 4.252 0 0 0 1.229 0l.051.845z" class="prefix__cls-18" data-name="Path 3702" transform="translate(-362.342 -266.93)"/>
        <path id="prefix__Path_3703" d="M675.3 432.429s-20.511 2.315-16.675 1.071a5.143 5.143 0 0 0 3.95-4.448 10.685 10.685 0 0 0-.766-4.741 20.407 20.407 0 0 0-1.833-3.706s15.679-8.624 12.543-.79a12.565 12.565 0 0 0-.889 3.713 10.384 10.384 0 0 0 .4 3.757 11.167 11.167 0 0 0 3.27 5.144z" class="prefix__cls-29" data-name="Path 3703" transform="translate(-422.263 -269.158)"/>
        <path id="prefix__Path_3704" d="M675.323 419.81a12.561 12.561 0 0 0-.889 3.713c-1.478 1.24-3.1 1.158-5.175 1.158-1.58 0-3.366.4-4.646-.4a20.4 20.4 0 0 0-1.833-3.706s15.679-8.611 12.543-.765z" class="prefix__cls-8" data-name="Path 3704" transform="translate(-425.064 -269.149)"/>
        <circle id="prefix__Ellipse_721" cx="8.482" cy="8.482" r="8.482" class="prefix__cls-29" data-name="Ellipse 721" transform="translate(235.433 139.114)"/>
        <path id="prefix__Path_3705" d="M675.3 447.556s-20.511 2.315-16.675 1.071a5.143 5.143 0 0 0 3.95-4.448 11.189 11.189 0 0 1 4.389-2.327 6.127 6.127 0 0 1 3.717-.059 5.162 5.162 0 0 1 1.351.624 11.167 11.167 0 0 0 3.267 5.14z" class="prefix__cls-8" data-name="Path 3705" transform="translate(-422.263 -284.285)"/>
        <path id="prefix__Path_3706" d="M724.982 426.594l-3.923.909-.079-.585a3.465 3.465 0 0 1 3.765-1.288z" class="prefix__cls-8" data-name="Path 3706" transform="translate(-460.272 -274.582)"/>
        <path id="prefix__Path_3707" d="M564.066 415.784l-4.7 2.319-.095-1.011a34.567 34.567 0 0 1 4.741-2.1z" class="prefix__cls-8" data-name="Path 3707" transform="translate(-362.445 -268.228)"/>
        <path id="prefix__Path_3708" d="M673.994 580.579c-7.94 1.256-19.247 2.888-21.04 2.343-1.485-.454-6.238-.4-10.374-.265.036-2.07.071-3.441.071-3.441L673.437 576a25.433 25.433 0 0 0 .557 4.579z" class="prefix__cls-8" data-name="Path 3708" transform="translate(-412.844 -365.632)"/>
        <path id="prefix__Path_3709" d="M629.64 481.7s-26.152 4.492-28.961 3.634-17.216.071-17.216.071c-6.483 4.345-3.777-2.066-3.777-2.066a15.954 15.954 0 0 1 .213-6.056 36.886 36.886 0 0 0 1.09-6.056s-.142-4.278.64-5.274 1.711-8.126 1.711-8.126.715-4.843.644-5.926a40.524 40.524 0 0 1 .213-4.061l.924-4.989c-5.345-.711-21.593-10.69-21.593-10.69-.79-3.346-6.838-11.188-6.838-11.188a8.139 8.139 0 0 0-.5-1.924c-.427-1.138 5.989-3.417 5.989-3.417s4.772 5.843 5.772 7.411a32.563 32.563 0 0 0 4.417 4.488 3.477 3.477 0 0 1 1.58.205l.083.024a12.773 12.773 0 0 1 3.192 1.833 6.186 6.186 0 0 1 4.345 1.639s2.923-.427 3.421.071 2.994 0 2.994 0 2.493-5.274 4.132-3.741 8.592 1.462 8.592 1.462c.928-1.233 3.184-2.117 4.594-2.572a6.155 6.155 0 0 1 3.717-.059 4.793 4.793 0 0 1 1.466.707l4.219 4.132s1.213-1.58 1.071-1.924 1.426-.64 1.426-.64 2.066-.644 2.848-.857 1.5.636 1.58.711a8.354 8.354 0 0 1-.352-3.133 3.688 3.688 0 0 0-.857-2.568c2.5-6.127 8.126-1 8.126-1s.64 3.35.071 4.63.569 3.994.427 4.7.284 1.924.284 3.279a19.227 19.227 0 0 1-1.142 5.057c-.431 1.138-3.848 3.706-3.848 3.706s-.213 4.065-1.711 6.416-.612 10.406-.612 10.406 1.426 6.285 3.22 8.3 4.406 13.385 4.406 13.385z" class="prefix__cls-30" data-name="Path 3709" transform="translate(-360.569 -268.615)"/>
        <path id="prefix__Path_3710" d="M640.193 457.489s-.79-2.351-1.5-2.564a16.952 16.952 0 0 1-2.063-.925l.458-.877s2.674.735 3.105 1.517 0 2.849 0 2.849z" class="prefix__cls-8" data-name="Path 3710" transform="translate(-409.244 -291.295)"/>
        <path id="prefix__Path_3711" d="M599.457 448.151c-.142.711-6.487 1.355-6.487 1.355l3.208-3.216.079.028a12.775 12.775 0 0 1 3.2 1.833z" class="prefix__cls-8" data-name="Path 3711" transform="translate(-382.832 -287.163)"/>
        <circle id="prefix__Ellipse_722" cx=".569" cy=".569" r=".569" class="prefix__cls-17" data-name="Ellipse 722" transform="translate(197.702 150.641)"/>
        <circle id="prefix__Ellipse_723" cx=".569" cy=".569" r=".569" class="prefix__cls-17" data-name="Ellipse 723" transform="translate(198.433 151.783)"/>
        <circle id="prefix__Ellipse_724" cx=".569" cy=".569" r=".569" class="prefix__cls-17" data-name="Ellipse 724" transform="translate(199.148 152.834)"/>
        <circle id="prefix__Ellipse_725" cx=".569" cy=".569" r=".569" class="prefix__cls-17" data-name="Ellipse 725" transform="translate(199.895 153.976)"/>
        <circle id="prefix__Ellipse_726" cx=".462" cy=".462" r=".462" class="prefix__cls-17" data-name="Ellipse 726" transform="translate(267.175 154.019)"/>
        <circle id="prefix__Ellipse_727" cx=".462" cy=".462" r=".462" class="prefix__cls-17" data-name="Ellipse 727" transform="translate(267.246 155.07)"/>
        <circle id="prefix__Ellipse_728" cx=".462" cy=".462" r=".462" class="prefix__cls-17" data-name="Ellipse 728" transform="translate(267.309 156.121)"/>
        <path id="prefix__Path_3712" d="M645.74 513.06c-.067-.083 16 20.2 28.467 8.482 0-.001-19.707 2.67-28.467-8.482z" class="prefix__cls-8" data-name="Path 3712" transform="translate(-414.755 -327.556)"/>
        <path id="prefix__Path_3713" d="M622.38 539.76s9.611.261 10.615 3.026v2.88a1.836 1.836 0 0 1-1.786 0c-.968-.525-6.783-3.476-8.829-2.058z" class="prefix__cls-8" data-name="Path 3713" transform="translate(-400.623 -343.708)"/>
        <path id="prefix__Path_3714" d="M622.83 539.76s9.193.249 10.153 2.888v2.738a1.762 1.762 0 0 1-1.711 0c-.924-.5-6.483-3.314-8.442-1.975z" class="prefix__cls-30" data-name="Path 3714" transform="translate(-400.896 -343.708)"/>
        <path id="prefix__Path_3715" d="M635.66 486.92a31.062 31.062 0 0 0 3.725 6.4 25.079 25.079 0 0 0 5.839 5.637s-9.406-10.714-9.564-12.037z" class="prefix__cls-8" data-name="Path 3715" transform="translate(-408.657 -311.742)"/>
        <path id="prefix__Path_3716" d="M627.7 458.65s1.6 6.921 5.736 9.276z" class="prefix__cls-8" data-name="Path 3716" transform="translate(-403.842 -294.64)"/>
        <path id="prefix__Path_3717" d="M621.252 460.417c-.04-.126-1.422 5.475 5.329 8.576.019 0-2.868-.975-5.329-8.576z" class="prefix__cls-8" data-name="Path 3717" transform="translate(-399.855 -295.708)"/>
        <path id="prefix__Path_3718" d="M727.716 448.663a48.469 48.469 0 0 1 4.267 3.2s-2.236-3.342-4.267-3.2z" class="prefix__cls-8" data-name="Path 3718" transform="translate(-464.346 -288.596)"/>
        <path id="prefix__Path_3719" d="M661.891 407.255a1.806 1.806 0 0 0 .664 1.146 1.829 1.829 0 0 0 .79.178c2.588.158 5.278.273 7.668-.723a2.9 2.9 0 0 0 1.185-.77 4.781 4.781 0 0 0 .679-1.876 24.617 24.617 0 0 1 1.58-3.6 12.086 12.086 0 0 0 .837-6.467 4.289 4.289 0 0 0-.644-1.892c-.687-.98-1.936-1.375-2.844-2.153s-1.489-1.975-2.548-2.56a4.917 4.917 0 0 0-3.2-.284 16.885 16.885 0 0 0-6.013 2.244 2.985 2.985 0 0 1-1.975.68 2.76 2.76 0 0 1-1.47-1.126 7.9 7.9 0 0 0-.632 3.694 1.644 1.644 0 0 1 0 .557 1.719 1.719 0 0 1-.4.589c-.64.739-1.039 1.912-.4 2.659.273.328.7.506.964.837.478.6.316 1.45.3 2.216a1.13 1.13 0 0 0 .19.751 1.1 1.1 0 0 0 1.047.249 2.9 2.9 0 0 1 1.114-.107 1.834 1.834 0 0 1 .968.747 13.71 13.71 0 0 1 2.14 5.011z" class="prefix__cls-27" data-name="Path 3719" transform="translate(-420.267 -251.972)"/>
        <g id="prefix__Group_621" class="prefix__cls-4" data-name="Group 621" transform="translate(234.559 137.992)">
            <path id="prefix__Path_3720" d="M672.431 417.283a2.868 2.868 0 0 1-1.185.79c-2.37 1-5.08.881-7.668.719a1.723 1.723 0 0 1-.79-.178 1.794 1.794 0 0 1-.664-1.146 13.2 13.2 0 0 0-2.161-5.013 1.832 1.832 0 0 0-.968-.747 2.827 2.827 0 0 0-1.114.107 1.1 1.1 0 0 1-1.035-.249 1.138 1.138 0 0 1-.19-.755c0-.762.174-1.62-.3-2.212-.269-.336-.687-.51-.964-.837a1.675 1.675 0 0 1-.166-1.7 1.951 1.951 0 0 0-.118 2.272c.273.328.7.506.964.837.478.6.316 1.45.3 2.216a1.13 1.13 0 0 0 .19.751 1.094 1.094 0 0 0 1.047.249 2.9 2.9 0 0 1 1.114-.107 1.833 1.833 0 0 1 .968.747 13.382 13.382 0 0 1 2.161 5.017 1.339 1.339 0 0 0 1.462 1.323c2.588.158 5.278.273 7.668-.723a2.9 2.9 0 0 0 1.185-.77 2.26 2.26 0 0 0 .367-.687 1.193 1.193 0 0 1-.103.096z" data-name="Path 3720" transform="translate(-654.786 -400.818)"/>
            <path id="prefix__Path_3721" d="M657.613 396.9a1.186 1.186 0 0 0 .261-.427 1.654 1.654 0 0 0 0-.557 7.861 7.861 0 0 1 .4-3.07l-.047-.055a7.844 7.844 0 0 0-.632 3.694 2.431 2.431 0 0 1 .018.415z" data-name="Path 3721" transform="translate(-656.47 -392.79)"/>
        </g>
        <path id="prefix__Path_3722" d="M668.84 449.28s10.6 1.4 11.547-.19" class="prefix__cls-8" data-name="Path 3722" transform="translate(-428.73 -288.857)"/>
        <path id="prefix__Path_3723" d="M721 438.47s5.882 0 7.178 2.216" class="prefix__cls-8" data-name="Path 3723" transform="translate(-460.284 -282.432)"/>
        <path id="prefix__Path_3724" d="M1038.633 425s.735.96-.34 2.414-1.975 2.682-1.6 3.587c0 0 1.624-2.7 2.943-2.738s.451-1.663-1.003-3.263z" class="prefix__cls-6" data-name="Path 3724" transform="translate(-651.21 -274.284)"/>
        <path id="prefix__Path_3725" d="M1038.7 425a1.3 1.3 0 0 1 .15.3c1.288 1.517 1.975 2.927.735 2.963-1.153.036-2.536 2.1-2.868 2.619a.351.351 0 0 0 .039.119c.016.039 1.624-2.7 2.943-2.738s.458-1.663-.999-3.263z" class="prefix__cls-8" data-name="Path 3725" transform="translate(-651.28 -274.284)"/>
        <path id="prefix__Path_3726" d="M1044.94 427.719c0 .34-.035.616-.083.616s-.087-.277-.087-.616.047-.178.095-.178.075-.158.075.178z" class="prefix__cls-23" data-name="Path 3726" transform="translate(-656.15 -275.797)"/>
        <path id="prefix__Path_3727" d="M1045.5 428.724c-.3.162-.557.261-.577.217s.2-.205.5-.367.178-.043.2 0 .177-.012-.123.15z" class="prefix__cls-23" data-name="Path 3727" transform="translate(-656.245 -276.395)"/>
        <path id="prefix__Path_3728" d="M1029.365 425s-.739.96.34 2.414 1.975 2.682 1.6 3.587c0 0-1.624-2.7-2.947-2.738s-.447-1.663 1.007-3.263z" class="prefix__cls-6" data-name="Path 3728" transform="translate(-645.83 -274.284)"/>
        <path id="prefix__Path_3729" d="M1029.365 425a1.207 1.207 0 0 0-.154.3c-1.288 1.517-1.975 2.927-.735 2.963 1.153.036 2.54 2.1 2.872 2.619a.348.348 0 0 1-.039.119c-.016.039-1.624-2.7-2.947-2.738s-.451-1.663 1.003-3.263z" class="prefix__cls-8" data-name="Path 3729" transform="translate(-645.83 -274.284)"/>
        <path id="prefix__Path_3730" d="M1028.43 427.721c0 .34.04.616.087.616a1.251 1.251 0 0 0 .083-.616c0-.336-.047-.178-.095-.178s-.075-.158-.075.178z" class="prefix__cls-23" data-name="Path 3730" transform="translate(-646.265 -275.799)"/>
        <path id="prefix__Path_3731" d="M1026.962 428.724c.3.162.557.261.581.217s-.2-.205-.5-.367-.182-.043-.205 0-.172-.012.124.15z" class="prefix__cls-23" data-name="Path 3731" transform="translate(-645.267 -276.395)"/>
        <path id="prefix__Path_3732" d="M1029 438.117a7.531 7.531 0 0 0 2.678-.506c.62-.442 3.16-.968 3.322-.261s3.093 3.524.79 3.555-5.4-.359-6.021-.739-.769-2.049-.769-2.049z" data-name="Path 3732" transform="translate(-646.61 -281.546)" style="fill:#a8a8a8"/>
        <path id="prefix__Path_3733" d="M1035.819 442.352c-2.323 0-5.4-.363-6.017-.739-.474-.288-.66-1.319-.723-1.793H1029s.13 1.663.751 2.038 3.694.759 6.021.739c.672 0 .9-.245.889-.6-.088.217-.341.351-.842.355z" data-name="Path 3733" transform="translate(-646.61 -283.249)" style="opacity:.2"/>
    </g>
</svg>
