<svg xmlns="http://www.w3.org/2000/svg" id="help" width="24.936" height="24.936" viewBox="0 0 24.936 24.936">
    <defs>
        <style>
            .cls-1{fill:#333743}
        </style>
    </defs>
    <path id="Path_1923" d="M24.936 16.875a8.079 8.079 0 0 0-5.9-7.767A9.521 9.521 0 1 0 1.32 14.361L.035 19.007l4.647-1.285a9.486 9.486 0 0 0 4.426 1.31 8.063 8.063 0 0 0 11.868 4.782L24.9 24.9l-1.085-3.924a8.031 8.031 0 0 0 1.121-4.1zm-20.024-.732l-2.782.77.77-2.783-.175-.274a8.058 8.058 0 1 1 2.462 2.462zm17.893 6.663l-2.064-.571-.276.179a6.6 6.6 0 0 1-9.846-3.434 9.539 9.539 0 0 0 8.36-8.36 6.6 6.6 0 0 1 3.434 9.846l-.179.276zm0 0" class="cls-1" data-name="Path 1923"/>
    <path id="Path_1924" d="M180.5 271h1.461v1.461H180.5zm0 0" class="cls-1" data-name="Path 1924" transform="translate(-171.709 -257.802)"/>
    <path id="Path_1925" d="M139.883 92.922a1.446 1.446 0 0 1-.475 1.078l-1.716 1.571v1.783h1.461v-1.139l1.241-1.136a2.922 2.922 0 1 0-4.894-2.156h1.461a1.461 1.461 0 0 1 2.922 0zm0 0" class="cls-1" data-name="Path 1925" transform="translate(-128.901 -85.617)"/>
</svg>
