<svg xmlns="http://www.w3.org/2000/svg" xmlns:xlink="http://www.w3.org/1999/xlink" width="299.541" height="299.541" viewBox="0 0 299.541 299.541">
  <defs>
    <filter id="Rectangle_1819" x="0" y="0" width="299.541" height="299.541" filterUnits="userSpaceOnUse">
      <feOffset dx="-7" dy="16" input="SourceAlpha"/>
      <feGaussianBlur stdDeviation="14" result="blur"/>
      <feFlood flood-opacity="0.078"/>
      <feComposite operator="in" in2="blur"/>
      <feComposite in="SourceGraphic"/>
    </filter>
  </defs>
  <g id="Group_700" data-name="Group 700" transform="translate(-746.232 -2031)">
    <g transform="matrix(1, 0, 0, 1, 746.23, 2031)" filter="url(#Rectangle_1819)">
      <rect id="Rectangle_1819-2" data-name="Rectangle 1819" width="215.541" height="215.541" rx="16" transform="translate(49 26)" fill="#fff"/>
    </g>
    <rect id="Rectangle_1820" data-name="Rectangle 1820" width="194.165" height="194.165" rx="16" transform="translate(805.92 2067.688)" fill="#ea907a" opacity="0.1"/>
    <g id="experience" transform="translate(859.669 2118.398)">
      <g id="Group_638" data-name="Group 638" transform="translate(0 0)">
        <path id="Path_3869" data-name="Path 3869" d="M78.472,92.723H20.16a5.28,5.28,0,0,1-5.28-5.28V5.28A5.28,5.28,0,0,1,20.16,0H78.472a5.28,5.28,0,0,1,5.28,5.28V87.443A5.28,5.28,0,0,1,78.472,92.723Z" transform="translate(-14.88 0)" fill="#ffe8d2"/>
        <path id="Path_3870" data-name="Path 3870" d="M78.471,0H73.6V24.015A57.736,57.736,0,0,1,15.853,81.738H14.88v5.706a5.28,5.28,0,0,0,5.281,5.279h58.31a5.28,5.28,0,0,0,5.281-5.279V5.279A5.28,5.28,0,0,0,78.471,0Z" transform="translate(-14.88 0)" fill="#f7d4ad"/>
        <g id="Group_628" data-name="Group 628" transform="translate(10.977 61.264)">
          <path id="Path_3871" data-name="Path 3871" d="M125.778,341.1H76.9a1.4,1.4,0,1,1,0-2.809h48.881a1.4,1.4,0,1,1,0,2.809Z" transform="translate(-75.493 -338.288)" fill="#e2a876"/>
        </g>
        <g id="Group_629" data-name="Group 629" transform="translate(10.977 68.808)">
          <path id="Path_3872" data-name="Path 3872" d="M125.778,382.757H76.9a1.4,1.4,0,1,1,0-2.809h48.881a1.4,1.4,0,1,1,0,2.809Z" transform="translate(-75.493 -379.948)" fill="#e2a876"/>
        </g>
        <g id="Group_630" data-name="Group 630" transform="translate(10.977 76.353)">
          <path id="Path_3873" data-name="Path 3873" d="M125.778,424.418H76.9a1.4,1.4,0,1,1,0-2.809h48.881a1.4,1.4,0,1,1,0,2.809Z" transform="translate(-75.493 -421.609)" fill="#e2a876"/>
        </g>
        <g id="Group_631" data-name="Group 631" transform="translate(10.977 83.898)">
          <path id="Path_3874" data-name="Path 3874" d="M125.778,466.079H76.9a1.4,1.4,0,1,1,0-2.809h48.881a1.4,1.4,0,1,1,0,2.809Z" transform="translate(-75.493 -463.27)" fill="#e2a876"/>
        </g>
        <g id="Group_632" data-name="Group 632" transform="translate(10.977 46.174)">
          <path id="Path_3875" data-name="Path 3875" d="M125.778,257.775H76.9a1.4,1.4,0,1,1,0-2.809h48.881a1.4,1.4,0,1,1,0,2.809Z" transform="translate(-75.493 -254.966)" fill="#e2a876"/>
        </g>
        <g id="Group_633" data-name="Group 633" transform="translate(10.977 53.719)">
          <path id="Path_3876" data-name="Path 3876" d="M125.778,299.435H76.9a1.4,1.4,0,1,1,0-2.809h48.881a1.4,1.4,0,1,1,0,2.809Z" transform="translate(-75.493 -296.626)" fill="#e2a876"/>
        </g>
        <g id="Group_634" data-name="Group 634" transform="translate(5.809 46.174)">
          <ellipse id="Ellipse_757" data-name="Ellipse 757" cx="1.405" cy="1.404" rx="1.405" ry="1.404" transform="translate(0 15.089)" fill="#e2a876"/>
          <ellipse id="Ellipse_758" data-name="Ellipse 758" cx="1.405" cy="1.404" rx="1.405" ry="1.404" fill="#e2a876"/>
          <ellipse id="Ellipse_759" data-name="Ellipse 759" cx="1.405" cy="1.404" rx="1.405" ry="1.404" transform="translate(0 7.545)" fill="#e2a876"/>
          <ellipse id="Ellipse_760" data-name="Ellipse 760" cx="1.405" cy="1.404" rx="1.405" ry="1.404" transform="translate(0 22.634)" fill="#e2a876"/>
          <ellipse id="Ellipse_761" data-name="Ellipse 761" cx="1.405" cy="1.404" rx="1.405" ry="1.404" transform="translate(0 30.179)" fill="#e2a876"/>
          <ellipse id="Ellipse_762" data-name="Ellipse 762" cx="1.405" cy="1.404" rx="1.405" ry="1.404" transform="translate(0 37.724)" fill="#e2a876"/>
        </g>
        <g id="Group_637" data-name="Group 637" transform="translate(23.951 8.618)">
          <g id="Group_636" data-name="Group 636" transform="translate(0 0.839)">
            <path id="Path_3877" data-name="Path 3877" d="M164.587,151.564H150.579a3.446,3.446,0,0,1-3.386-4.094l.55-2.874a6.182,6.182,0,0,1,3.959-4.641l5.921-2.147,5.875,2.13a6.164,6.164,0,0,1,3.038,2.391h0a6.146,6.146,0,0,1,.933,2.322l.511,2.857A3.446,3.446,0,0,1,164.587,151.564Z" transform="translate(-147.131 -122.309)" fill="#b8b6ff"/>
            <path id="Path_3878" data-name="Path 3878" d="M193.009,124.279l-3.312,2.89-3.31-2.89v-4.437h6.623Z" transform="translate(-179.277 -107.596)" fill="#ecbd83"/>
            <path id="Path_3879" data-name="Path 3879" d="M186.137,56.639V60.4a5.354,5.354,0,0,1-5.364,5.376,5.26,5.26,0,0,1-5.158-5.258V56.639c0-2.9,2.355-4.42,5.261-4.42S186.137,53.735,186.137,56.639Z" transform="translate(-170.457 -52.219)" fill="#f7d4ad"/>
            <g id="Group_635" data-name="Group 635" transform="translate(0 20.02)">
              <path id="Path_3880" data-name="Path 3880" d="M152.082,166.925V172h-1.5a3.446,3.446,0,0,1-3.386-4.094l.55-2.874a6.128,6.128,0,0,1,.932-2.268A4.241,4.241,0,0,1,152.082,166.925Z" transform="translate(-147.131 -162.767)" fill="#a09eef"/>
              <path id="Path_3881" data-name="Path 3881" d="M236.971,172.013h-1.448v-5.077a4.241,4.241,0,0,1,3.4-4.156,6.146,6.146,0,0,1,.933,2.322l.511,2.857A3.446,3.446,0,0,1,236.971,172.013Z" transform="translate(-219.515 -162.778)" fill="#a09eef"/>
            </g>
          </g>
          <path id="Path_3882" data-name="Path 3882" d="M186.137,52.59c-.2.151-.344.26-.344.26a9.5,9.5,0,0,1-1.211.586c-1.973.789-3.9.818-4.835.165a9.675,9.675,0,0,1-1.339-1.191c-.365-.464-1.526-.582-2.488.44a.871.871,0,0,1-.305.218V52.85a5.264,5.264,0,0,1,10.521-.26Z" transform="translate(-170.457 -47.588)" fill="#6e4848"/>
        </g>
      </g>
      <path id="Path_3883" data-name="Path 3883" d="M371.244,221.329l-4.775-3.737a.751.751,0,0,0-.925,0l-4.775,3.737a.751.751,0,0,1-1.213-.591v-26.8a.75.75,0,0,1,.751-.75h11.4a.75.75,0,0,1,.75.75v26.8A.751.751,0,0,1,371.244,221.329Z" transform="translate(-297.135 -158.206)" fill="#ff445c"/>
      <path id="Path_3884" data-name="Path 3884" d="M330.158,56.7c0,2.355-2.559,4.185-3.409,6.233-.881,2.123-.4,5.218-2,6.818s-4.7,1.116-6.819,2c-2.048.849-3.878,3.408-6.234,3.408s-4.185-2.559-6.234-3.408c-2.124-.88-5.219-.4-6.819-2s-1.119-4.7-2-6.818c-.85-2.048-3.409-3.878-3.409-6.233s2.559-4.185,3.409-6.233c.881-2.123.4-5.218,2-6.818s4.7-1.116,6.819-2c2.048-.849,3.878-3.408,6.234-3.408s4.185,2.559,6.234,3.408c2.124.88,5.219.4,6.819,2s1.119,4.7,2,6.818C327.6,52.512,330.158,54.341,330.158,56.7Z" transform="translate(-242.825 -31.316)" fill="#ff8b59"/>
      <path id="Path_3885" data-name="Path 3885" d="M355.359,89.007l2.965,4.427a.368.368,0,0,0,.206.149l5.128,1.451a.368.368,0,0,1,.189.582l-3.3,4.187a.367.367,0,0,0-.079.242l.2,5.323a.368.368,0,0,1-.5.36l-5-1.839a.367.367,0,0,0-.254,0l-5,1.839a.368.368,0,0,1-.5-.36l.2-5.323a.368.368,0,0,0-.079-.242l-3.3-4.187a.368.368,0,0,1,.189-.582l5.128-1.451a.367.367,0,0,0,.206-.149l2.965-4.427a.368.368,0,0,1,.612,0Z" transform="translate(-286.181 -72.754)" fill="#fee07d"/>
    </g>
  </g>
</svg>
