<svg xmlns="http://www.w3.org/2000/svg" xmlns:xlink="http://www.w3.org/1999/xlink" width="295.217" height="295.217" viewBox="0 0 295.217 295.217">
  <defs>
    <filter id="Rectangle_1822" x="0" y="0" width="295.217" height="295.217" filterUnits="userSpaceOnUse">
      <feOffset dx="-7" dy="16" input="SourceAlpha"/>
      <feGaussianBlur stdDeviation="14" result="blur"/>
      <feFlood flood-opacity="0.078"/>
      <feComposite operator="in" in2="blur"/>
      <feComposite in="SourceGraphic"/>
    </filter>
  </defs>
  <g id="Group_698" data-name="Group 698" transform="translate(-789.14 -1856.889)">
    <g transform="matrix(1, 0, 0, 1, 789.14, 1856.89)" filter="url(#Rectangle_1822)">
      <rect id="Rectangle_1822-2" data-name="Rectangle 1822" width="211.217" height="211.217" rx="16" transform="translate(49 26)" fill="#fff"/>
    </g>
    <rect id="Rectangle_1823" data-name="Rectangle 1823" width="190.269" height="190.269" rx="16" transform="translate(848.613 1893.363)" fill="#7a81ea" opacity="0.1"/>
    <g id="graph_1_" data-name="graph (1)" transform="translate(892.131 1936.689)">
      <path id="Path_3970" data-name="Path 3970" d="M51.147,330.7H33.02A2.991,2.991,0,0,0,30,333.717V364.13a2.991,2.991,0,0,0,3.021,3.021H51.147a2.991,2.991,0,0,0,3.021-3.021V333.717A2.991,2.991,0,0,0,51.147,330.7Z" transform="translate(-23.957 -263.84)" fill="#fd4e26"/>
      <path id="Path_3971" data-name="Path 3971" d="M201.341,240.7H183.013a2.991,2.991,0,0,0-3.021,3.021V292.26a2.991,2.991,0,0,0,3.021,3.021h18.328a2.991,2.991,0,0,0,3.021-3.021V243.721A2.991,2.991,0,0,0,201.341,240.7Z" transform="translate(-143.739 -191.971)" fill="#17ace8"/>
      <path id="Path_3972" data-name="Path 3972" d="M318.965,31.872,297.817,1.459a3.246,3.246,0,0,0-4.954,0L271.514,31.872a2.961,2.961,0,0,0-.181,3.142,2.881,2.881,0,0,0,2.658,1.632h9.063V100.29a2.991,2.991,0,0,0,3.021,3.021H304.4a2.991,2.991,0,0,0,3.021-3.021V36.645h9.063a2.88,2.88,0,0,0,2.659-1.632A2.96,2.96,0,0,0,318.965,31.872Z" transform="translate(-216.388)" fill="#19dec1"/>
      <path id="Path_3973" data-name="Path 3973" d="M415.789,35.014a2.881,2.881,0,0,1-2.658,1.632h-9.063v63.645a2.991,2.991,0,0,1-3.021,3.021h-9.063V.312A2.956,2.956,0,0,1,394.46,1.46l21.148,30.412A2.96,2.96,0,0,1,415.789,35.014Z" transform="translate(-313.031 -0.001)" fill="#17ceb4"/>
      <path id="Path_3974" data-name="Path 3974" d="M252.275,243.721V292.26a2.991,2.991,0,0,1-3.021,3.021h-9.265V240.7h9.265A2.991,2.991,0,0,1,252.275,243.721Z" transform="translate(-191.651 -191.971)" fill="#1689fc"/>
      <path id="Path_3975" data-name="Path 3975" d="M102.08,333.717V364.13a2.991,2.991,0,0,1-3.021,3.021H90V330.7h9.063A2.991,2.991,0,0,1,102.08,333.717Z" transform="translate(-71.869 -263.84)" fill="#fd3018"/>
      <path id="Path_3976" data-name="Path 3976" d="M103.121,484.71a2.991,2.991,0,0,1-3.021,3.021H3.021a3.021,3.021,0,1,1,0-6.042H100.1A2.992,2.992,0,0,1,103.121,484.71Z" transform="translate(0 -384.421)" fill="#787780"/>
      <path id="Path_3977" data-name="Path 3977" d="M294.772,484.709a2.991,2.991,0,0,1-3.021,3.021H239.989v-6.042h51.762A2.992,2.992,0,0,1,294.772,484.709Z" transform="translate(-191.651 -384.42)" fill="#57555c"/>
    </g>
  </g>
</svg>
