<svg xmlns="http://www.w3.org/2000/svg" xmlns:xlink="http://www.w3.org/1999/xlink" width="373.748" height="373.748" viewBox="0 0 373.748 373.748">
  <defs>
    <filter id="Rectangle_1818" x="0" y="0" width="373.748" height="373.748" filterUnits="userSpaceOnUse">
      <feOffset dy="7" input="SourceAlpha"/>
      <feGaussianBlur stdDeviation="19.5" result="blur"/>
      <feFlood flood-opacity="0.078"/>
      <feComposite operator="in" in2="blur"/>
      <feComposite in="SourceGraphic"/>
    </filter>
  </defs>
  <g id="Group_699" data-name="Group 699" transform="translate(-901.334 -1889)">
    <g transform="matrix(1, 0, 0, 1, 901.33, 1889)" filter="url(#Rectangle_1818)">
      <rect id="Rectangle_1818-2" data-name="Rectangle 1818" width="256.748" height="256.748" rx="16" transform="translate(58.5 51.5)" fill="#fff"/>
    </g>
    <rect id="Rectangle_1821" data-name="Rectangle 1821" width="230.148" height="230.148" rx="16" transform="translate(973.712 1954.378)" fill="#38bd5c" opacity="0.1"/>
    <g id="lawyer" transform="translate(1035.57 2009.651)">
      <path id="Path_3890" data-name="Path 3890" d="M149.72,231.307l-11.392-3.494-3.507,11.434-1.959-5.322a14.308,14.308,0,0,0-9.333-8.767L112.282,221.8H90.074l-11.248,3.359a14.308,14.308,0,0,0-9.333,8.767l-1.959,5.322-3.507-11.434-11.391,3.494L60.73,257.7l.017-.005-.005.015.152.739a7.154,7.154,0,0,0,13.629,1.271L79.24,248.18v37.859h43.876V248.18l4.717,11.535a7.154,7.154,0,0,0,13.629-1.271l.152-.739-.005-.015.017.005Z" transform="translate(-48.098 -170.125)" fill="#38bdba"/>
      <path id="Path_3891" data-name="Path 3891" d="M416.206,189.471a1.54,1.54,0,0,1,3.062-.317s.151,1.676.258,2.813a1.742,1.742,0,0,0,.034.205,1.711,1.711,0,0,0,.794,1.1l-3.633,2.592-.268-3.161Z" transform="translate(-324.967 -144.242)" fill="#ffd3b3"/>
      <path id="Path_3892" data-name="Path 3892" d="M370.2,86.094h19.077v26.23H370.2Z" transform="translate(-289.936 -66.779)" fill="#edeff1"/>
      <path id="Path_3893" data-name="Path 3893" d="M376.2,97.094h16.215v1.431H376.2Z" transform="translate(-294.505 -75.156)" fill="#d3d3d3"/>
      <path id="Path_3894" data-name="Path 3894" d="M376.2,112.094h16.215v1.431H376.2Z" transform="translate(-294.505 -86.579)" fill="#d3d3d3"/>
      <path id="Path_3895" data-name="Path 3895" d="M376.2,127.094h16.215v1.431H376.2Z" transform="translate(-294.505 -98.002)" fill="#d3d3d3"/>
      <path id="Path_3896" data-name="Path 3896" d="M376.2,142.094h16.215v1.431H376.2Z" transform="translate(-294.505 -109.425)" fill="#d3d3d3"/>
      <path id="Path_3897" data-name="Path 3897" d="M376.2,157.094h16.215v1.431H376.2Z" transform="translate(-294.505 -120.848)" fill="#d3d3d3"/>
      <path id="Path_3898" data-name="Path 3898" d="M418.745,185.887h0a1.709,1.709,0,0,1-.377-1.146l-.068-1.033,3.642-2.593a1.789,1.789,0,0,0,.225.112l.024.009a1.648,1.648,0,0,0,1.5-.12l1.551-.962a1.721,1.721,0,0,0,.784-1.741l-1.044-3.631-1.09-.082-.257.578a1.387,1.387,0,0,1-2.554-1.08l.411-1.024a2.12,2.12,0,0,1,2.047-1.329l2.254.085a2.121,2.121,0,0,1,1.9,1.358l.469,1.218,1.048,3.117,2.867,2.548a1.919,1.919,0,0,1,.561,2l-1.934,6.326a3.071,3.071,0,0,1-1.388,1.754l-1.247.728a1.921,1.921,0,0,0-.868,1.1l-.249.815-8.613-2.642.686-2.293A2.6,2.6,0,0,0,418.745,185.887Z" transform="translate(-326.566 -132.081)" fill="#ffd3b3"/>
      <path id="Path_3899" data-name="Path 3899" d="M440.985,202.943l-2.939-2.485a2.49,2.49,0,0,1-.807-2.495,1.644,1.644,0,0,0,.825-.244l1.551-.962a1.721,1.721,0,0,0,.784-1.741l-.394-1.37h3.384l.195.579,2.867,2.548a1.919,1.919,0,0,1,.561,2l-.445,1.457-1.4.351a.408.408,0,0,0-.293.285l-.433,1.416a1.684,1.684,0,0,1-1.565,1.235l-.217.02a2.5,2.5,0,0,1-.792-.109A2.452,2.452,0,0,1,440.985,202.943Z" transform="translate(-340.934 -148.685)" fill="#fcb98b"/>
      <path id="Path_3900" data-name="Path 3900" d="M448.81,200.621l-.275.9-1.609.378a.991.991,0,0,0-.72.675l-.433,1.416a1.151,1.151,0,0,1-1.072.814l-.261.006a1.918,1.918,0,0,1-1.286-.454l-2.943-2.485a1.919,1.919,0,0,1-.6-2.027l.732-2.393a1.917,1.917,0,0,1,1.684-1.352,1.139,1.139,0,0,1,.143-.007l3.209-.014,2.867,2.549a1.918,1.918,0,0,1,.56,2Z" transform="translate(-342.734 -150.535)" fill="#ffd3b3"/>
      <path id="Path_3901" data-name="Path 3901" d="M443.333,205.674l-.684-.209,1.279-4.184a1.514,1.514,0,0,1,1.365-1.066l1.438-.075.037.714-1.438.075a.8.8,0,0,0-.718.561Z" transform="translate(-345.109 -153.63)" fill="#fcb98b"/>
      <path id="Path_3902" data-name="Path 3902" d="M451.927,213.414l-.684-.209,1.251-4.091a1.5,1.5,0,0,1,1.193-1.047l.991-.167.119.705-.991.167a.79.79,0,0,0-.627.551Z" transform="translate(-351.653 -159.538)" fill="#fcb98b"/>
      <path id="Path_3903" data-name="Path 3903" d="M0,0H2.5V.715H0Z" transform="translate(94.988 59.198) rotate(-73.015)" fill="#fcb98b"/>
      <path id="Path_3904" data-name="Path 3904" d="M0,0H6.169V1.907H0Z" transform="translate(99.843 20.077) rotate(-45)" fill="#6e83b7"/>
      <path id="Path_3905" data-name="Path 3905" d="M463.731,73.625h-1.908V71H459.2V69.094h4.531Z" transform="translate(-357.713 -53.833)" fill="#6e83b7"/>
      <path id="Path_3906" data-name="Path 3906" d="M0,0H1.908V6.169H0Z" transform="translate(99.844 33.352) rotate(-45)" fill="#6e83b7"/>
      <path id="Path_3907" data-name="Path 3907" d="M463.731,150.625H459.2v-1.908h2.623v-2.623h1.908Z" transform="translate(-357.713 -112.471)" fill="#6e83b7"/>
      <path id="Path_3908" data-name="Path 3908" d="M0,0H1.907V6.169H0Z" transform="translate(74.025 17.066) rotate(-45)" fill="#6e83b7"/>
      <path id="Path_3909" data-name="Path 3909" d="M344.108,73.625H342.2V69.094h4.531V71h-2.623Z" transform="translate(-268.612 -53.833)" fill="#6e83b7"/>
      <path id="Path_3910" data-name="Path 3910" d="M0,0H6.169V1.908H0Z" transform="translate(74.021 36.356) rotate(-45)" fill="#6e83b7"/>
      <path id="Path_3911" data-name="Path 3911" d="M346.731,150.625H342.2v-4.531h1.908v2.623h2.623Z" transform="translate(-268.612 -112.471)" fill="#6e83b7"/>
      <path id="Path_3912" data-name="Path 3912" d="M208.953,221.8H186.745l-7.167,2.14c1.344,7.738,9.012,13.668,18.271,13.668s16.927-5.93,18.271-13.668Z" transform="translate(-144.769 -170.125)" fill="#edeff1"/>
      <path id="Path_3913" data-name="Path 3913" d="M82.934,189.471a1.54,1.54,0,0,0-3.062-.317s-.151,1.676-.258,2.813a1.735,1.735,0,0,1-.828,1.307l3.633,2.592.268-3.161Z" transform="translate(-68.012 -144.242)" fill="#ffd3b3"/>
      <path id="Path_3914" data-name="Path 3914" d="M62.2,86.094H81.277v26.23H62.2Z" transform="translate(-55.381 -66.779)" fill="#edeff1"/>
      <path id="Path_3915" data-name="Path 3915" d="M68.2,97.094H84.415v1.431H68.2Z" transform="translate(-59.95 -75.156)" fill="#d3d3d3"/>
      <path id="Path_3916" data-name="Path 3916" d="M68.2,112.094H84.415v1.431H68.2Z" transform="translate(-59.95 -86.579)" fill="#d3d3d3"/>
      <path id="Path_3917" data-name="Path 3917" d="M68.2,127.094H84.415v1.431H68.2Z" transform="translate(-59.95 -98.002)" fill="#d3d3d3"/>
      <path id="Path_3918" data-name="Path 3918" d="M68.2,142.094H84.415v1.431H68.2Z" transform="translate(-59.95 -109.425)" fill="#d3d3d3"/>
      <path id="Path_3919" data-name="Path 3919" d="M68.2,157.094H84.415v1.431H68.2Z" transform="translate(-59.95 -120.848)" fill="#d3d3d3"/>
      <path id="Path_3920" data-name="Path 3920" d="M47.584,185.887h0a1.709,1.709,0,0,0,.377-1.146l.068-1.033-3.642-2.593a1.792,1.792,0,0,1-.225.112l-.024.009a1.648,1.648,0,0,1-1.5-.12l-1.551-.962a1.721,1.721,0,0,1-.784-1.741l1.044-3.631,1.09-.082.257.578a1.387,1.387,0,0,0,2.554-1.08l-.411-1.024a2.121,2.121,0,0,0-2.047-1.329l-2.254.085a2.121,2.121,0,0,0-1.9,1.358l-.469,1.218-1.049,3.117-2.867,2.548a1.919,1.919,0,0,0-.561,2l1.934,6.326a3.071,3.071,0,0,0,1.388,1.754l1.247.728a1.921,1.921,0,0,1,.868,1.1l.249.815,8.613-2.642-.686-2.293A2.6,2.6,0,0,1,47.584,185.887Z" transform="translate(-33.604 -132.081)" fill="#ffd3b3"/>
      <path id="Path_3921" data-name="Path 3921" d="M39.713,202.943l2.939-2.485a2.49,2.49,0,0,0,.807-2.495,1.644,1.644,0,0,1-.825-.244l-1.551-.962a1.721,1.721,0,0,1-.784-1.741l.394-1.37H37.309l-.195.579-2.867,2.548a1.919,1.919,0,0,0-.561,2l.445,1.457,1.4.351a.408.408,0,0,1,.293.285l.433,1.416a1.684,1.684,0,0,0,1.565,1.235l.217.02a2.5,2.5,0,0,0,.792-.109A2.452,2.452,0,0,0,39.713,202.943Z" transform="translate(-33.603 -148.685)" fill="#fcb98b"/>
      <path id="Path_3922" data-name="Path 3922" d="M33.689,200.621l.274.9,1.609.378a.991.991,0,0,1,.72.675l.433,1.416a1.152,1.152,0,0,0,1.072.814l.261.006a1.918,1.918,0,0,0,1.286-.454l2.943-2.485a1.919,1.919,0,0,0,.6-2.027l-.732-2.393a1.917,1.917,0,0,0-1.684-1.352,1.139,1.139,0,0,0-.143-.007l-3.209-.014-2.867,2.549A1.918,1.918,0,0,0,33.689,200.621Z" transform="translate(-33.604 -150.535)" fill="#ffd3b3"/>
      <path id="Path_3923" data-name="Path 3923" d="M55.912,205.673l-1.279-4.184a.8.8,0,0,0-.718-.561l-1.438-.075.037-.714,1.438.075a1.514,1.514,0,0,1,1.365,1.066l1.279,4.184Z" transform="translate(-47.976 -153.629)" fill="#fcb98b"/>
      <path id="Path_3924" data-name="Path 3924" d="M49.125,213.414l-1.251-4.091a.789.789,0,0,0-.627-.551l-.991-.167.119-.705.991.167a1.5,1.5,0,0,1,1.193,1.047l1.251,4.091Z" transform="translate(-43.239 -159.538)" fill="#fcb98b"/>
      <path id="Path_3925" data-name="Path 3925" d="M0,0H.715V2.476H0Z" transform="translate(9.671 57.001) rotate(-16.985)" fill="#fcb98b"/>
      <path id="Path_3926" data-name="Path 3926" d="M115.113,287.888l4.742,15.446.008-4.115a4.766,4.766,0,0,0-.21-1.408l-3.724-12.142Z" transform="translate(-95.676 -218.763)" fill="#466089"/>
      <path id="Path_3927" data-name="Path 3927" d="M382.117,287.888l-4.742,15.446-.008-4.115a4.762,4.762,0,0,1,.21-1.408l3.724-12.142Z" transform="translate(-295.394 -218.763)" fill="#466089"/>
      <path id="Path_3928" data-name="Path 3928" d="M164.2,491.194v3.792h43.876v-3.792H164.2Z" transform="translate(-133.058 -375.279)" fill="#35a9a6"/>
      <path id="Path_3929" data-name="Path 3929" d="M245.434,491.194h5.134v3.792h-5.134Z" transform="translate(-194.921 -375.279)" fill="#ffe352"/>
      <path id="Path_3930" data-name="Path 3930" d="M277.775,221.8l-5.958,8.937-.813-1.1-1.054,1.307,1.934,2.624,7.476-11.3Z" transform="translate(-213.591 -170.125)" fill="#d3d3d3"/>
      <path id="Path_3931" data-name="Path 3931" d="M204.574,221.8l5.958,8.937.8-1.092,1,1.378-1.875,2.544-7.476-11.3Z" transform="translate(-162.597 -170.125)" fill="#d3d3d3"/>
      <path id="Path_3932" data-name="Path 3932" d="M246.158,272.07a20.878,20.878,0,0,0,4.548.024l-.258-4.863h-4.062Z" transform="translate(-195.473 -204.722)" fill="#80d6fb"/>
      <path id="Path_3933" data-name="Path 3933" d="M257.175,266.715H256.7c0-1.708-.914-2.2-.953-2.225l.215-.426A2.792,2.792,0,0,1,257.175,266.715Z" transform="translate(-202.773 -202.31)" fill="#46bee8"/>
      <path id="Path_3934" data-name="Path 3934" d="M251.134,266.715h-.477a2.792,2.792,0,0,1,1.215-2.651l.215.426C252.048,264.51,251.134,265.007,251.134,266.715Z" transform="translate(-198.899 -202.31)" fill="#46bee8"/>
      <path id="Path_3935" data-name="Path 3935" d="M214.239,208.171l-4.6,3.25,5.958,8.937,2.985-4.051a4.77,4.77,0,0,1,2.068-1.6l.092-.037Z" transform="translate(-167.659 -159.746)" fill="#edeff1"/>
      <path id="Path_3936" data-name="Path 3936" d="M262.7,208.171l4.6,3.25-5.958,8.937-2.985-4.051a4.77,4.77,0,0,0-2.068-1.6l-.092-.037Z" transform="translate(-203.121 -159.746)" fill="#edeff1"/>
      <path id="Path_3937" data-name="Path 3937" d="M236.219,187.163h-1.554a5.723,5.723,0,0,1-5.723-5.723v-9.391h13v9.391A5.723,5.723,0,0,1,236.219,187.163Z" transform="translate(-182.362 -132.237)" fill="#ffd3b3"/>
      <path id="Path_3938" data-name="Path 3938" d="M228.942,175.539a15.943,15.943,0,0,0,13,0v-3.49h-13Z" transform="translate(-182.362 -132.237)" fill="#fcb98b"/>
      <path id="Path_3939" data-name="Path 3939" d="M225.9,82.262a13.812,13.812,0,0,1-27.624,0V68.7H225.9Z" transform="translate(-159.009 -53.53)" fill="#ffd3b3"/>
      <path id="Path_3940" data-name="Path 3940" d="M246.2,156.094h4.769l-.025.1A2.385,2.385,0,0,1,248.631,158h-.092a2.384,2.384,0,0,1-2.313-1.806Z" transform="translate(-195.504 -120.087)" fill="#edeff1"/>
      <path id="Path_3941" data-name="Path 3941" d="M251.611,128.123H248.4l.336-4.025,1.426.119-.206,2.475h1.66Z" transform="translate(-197.177 -95.72)" fill="#fcb98b"/>
      <path id="Path_3942" data-name="Path 3942" d="M220.9,94.371a7.956,7.956,0,0,0-7.854,1.354s4.2-1.083,7.041.271Z" transform="translate(-170.253 -72.705)" fill="#6e83b7"/>
      <circle id="Ellipse_763" data-name="Ellipse 763" cx="1.354" cy="1.354" r="1.354" transform="translate(46.309 24.645)" fill="#6e83b7"/>
      <path id="Path_3943" data-name="Path 3943" d="M264.853,95.85a7.956,7.956,0,0,1,7.946-.616s-4.335-.019-6.759,1.992Z" transform="translate(-209.709 -73.121)" fill="#6e83b7"/>
      <path id="Path_3944" data-name="Path 3944" d="M271.311,108.161l-.718-.628a4.879,4.879,0,0,1,3.965-1.618l-.129.945A3.975,3.975,0,0,0,271.311,108.161Z" transform="translate(-214.081 -81.847)" fill="#fcb98b"/>
      <path id="Path_3945" data-name="Path 3945" d="M274.125,113.268a4.509,4.509,0,0,0-2.179-.3l-.14-.944a5.483,5.483,0,0,1,2.7.364Z" transform="translate(-215.004 -86.5)" fill="#fcb98b"/>
      <path id="Path_3946" data-name="Path 3946" d="M314.123,87.087h1.017a2.708,2.708,0,0,1,2.69,3.025l-.379,3.225a3.35,3.35,0,0,1-3.327,2.959Z" transform="translate(-247.231 -67.535)" fill="#ffd3b3"/>
      <path id="Path_3947" data-name="Path 3947" d="M186.379,87.087h-1.017a2.708,2.708,0,0,0-2.69,3.025l.379,3.225a3.35,3.35,0,0,0,3.327,2.959Z" transform="translate(-147.111 -67.535)" fill="#ffd3b3"/>
      <path id="Path_3948" data-name="Path 3948" d="M246.665,240.016l-2.437,3h-4.063l-2.175-2.988,2.182-2.959a4.778,4.778,0,0,1,2.067-1.6l.093-.036.093.036a4.779,4.779,0,0,1,2.067,1.6Z" transform="translate(-189.252 -180.504)" fill="#80d6fb"/>
      <path id="Path_3949" data-name="Path 3949" d="M242.414,255.477h-.306a3.815,3.815,0,0,1-3.085-1.57l-.734-1.008-.3.4,2.175,2.988h4.063l2.437-3-.315-.428-.977,1.2a3.816,3.816,0,0,1-2.961,1.408Z" transform="translate(-189.253 -193.783)" fill="#46bee8"/>
      <path id="Path_3950" data-name="Path 3950" d="M280.47,43.057v4.957a2.729,2.729,0,0,0,1,2.081l.672.542V35.029H272.1v8.028Z" transform="translate(-215.228 -27.891)" fill="#466089"/>
      <g id="Group_640" data-name="Group 640" transform="translate(0.142 0)">
        <path id="Path_3951" data-name="Path 3951" d="M218.67,20.26H196.823v4.957a2.73,2.73,0,0,1-1,2.081l-.672.542V24.648H194.2V13.679a4.292,4.292,0,0,1,4.292-4.292h.2a4.292,4.292,0,0,1,4.292-4.292h20.454a2.385,2.385,0,0,1,2.385,2.385v5.628A7.154,7.154,0,0,1,218.67,20.26Z" transform="translate(-156.047 -5.094)" fill="#6e83b7"/>
        <path id="Path_3952" data-name="Path 3952" d="M0,0H1.907V6.169H0Z" transform="translate(0.445 17.058) rotate(-45)" fill="#6e83b7"/>
        <path id="Path_3953" data-name="Path 3953" d="M36.108,73.625H34.2V69.094h4.531V71H36.108Z" transform="translate(-34.2 -53.833)" fill="#6e83b7"/>
        <path id="Path_3954" data-name="Path 3954" d="M0,0H6.169V1.908H0Z" transform="translate(0.445 36.351) rotate(-45)" fill="#6e83b7"/>
        <path id="Path_3955" data-name="Path 3955" d="M38.731,150.625H34.2v-4.531h1.908v2.623h2.623Z" transform="translate(-34.2 -112.471)" fill="#6e83b7"/>
        <path id="Path_3956" data-name="Path 3956" d="M0,0H6.169V1.907H0Z" transform="translate(26.265 20.071) rotate(-45)" fill="#6e83b7"/>
        <path id="Path_3957" data-name="Path 3957" d="M155.731,73.625h-1.908V71H151.2V69.094h4.531Z" transform="translate(-123.3 -53.833)" fill="#6e83b7"/>
        <path id="Path_3958" data-name="Path 3958" d="M0,0H1.908V6.169H0Z" transform="translate(26.264 33.344) rotate(-45)" fill="#6e83b7"/>
        <path id="Path_3959" data-name="Path 3959" d="M155.731,150.625H151.2v-1.908h2.623v-2.623h1.908Z" transform="translate(-123.3 -112.471)" fill="#6e83b7"/>
      </g>
    </g>
  </g>
</svg>
