<svg xmlns="http://www.w3.org/2000/svg" width="171.009" height="103" viewBox="0 0 171.009 103">
    <defs>
        <style>
            .prefix__cls-1{fill:#f29f5c}.prefix__cls-4{fill:#e59f6a}.prefix__cls-9{fill:#ebeef2}
        </style>
    </defs>
    <g id="prefix__handshake" transform="translate(0 -101.81)">
        <path id="prefix__Path_4079" d="M223.346 160.578L219 125.29l-8.14 1v-.006l-15.781-8.881a9.51 9.51 0 0 0-5.539-1.182l-24.918 2.3a9.508 9.508 0 0 0-7.346 4.691l-17.563 30.23a4.178 4.178 0 0 0 2.136 6.007l.718.271a15.582 15.582 0 0 0 4.222.943l-2.225 1.938-4.452 3.879-12.663 10.8a5.41 5.41 0 0 0-.525 7.635l1.285 1.471a6.953 6.953 0 0 0 9.808.67l4.84 5.551a6.94 6.94 0 0 0 9.808.67l4.834 5.551a6.956 6.956 0 0 0 9.814.674l2.627 2.271a6.956 6.956 0 0 0 9.814.674l3.571-3.116 30.025-23.384.032-.03 11.846-.012z" class="prefix__cls-1" data-name="Path 4079" transform="translate(-83.648 -9.573)"/>
        <path id="prefix__Path_4080" d="M210.486 264.709l-.032.03-30.025 23.384-3.571 3.116a6.956 6.956 0 0 1-9.814-.674l-2.627-2.271a6.956 6.956 0 0 1-9.814-.674l-4.834-5.551a6.94 6.94 0 0 1-9.808-.67l-4.84-5.551a6.952 6.952 0 0 1-8.611.41 5.408 5.408 0 0 0 .429 6.54l1.285 1.471a6.953 6.953 0 0 0 9.808.67l4.84 5.551a6.94 6.94 0 0 0 9.808.67l4.834 5.552a6.956 6.956 0 0 0 9.814.674l2.627 2.271a6.956 6.956 0 0 0 9.814.674l3.571-3.116 30.025-23.384.032-.03 11.846-.012-1.311-10.647z" data-name="Path 4080" transform="translate(-83.656 -107.447)" style="fill:#d37d42"/>
        <path id="prefix__Path_4081" d="M183.4 184.881l-16.089-13.871-4.474-3.854-3.2-2.757-13.763-11.864 1.59-13.53a9.338 9.338 0 0 0-6.784-10.089l-30-8.3a6.943 6.943 0 0 0-8.031 3.526l-3.776 7.358-16.195-1.1-4.148 35.317-1.8 15.346 15.764 1.048.033.03 32.933 28.388 3.589 3.1a6.956 6.956 0 0 0 9.81-.728l4.8-5.573a6.956 6.956 0 0 0 9.81-.728l4.8-5.578a6.941 6.941 0 0 0 9.8-.724l4.809-5.578a6.953 6.953 0 0 0 9.8-.724l1.277-1.479a5.41 5.41 0 0 0-.555-7.636z" data-name="Path 4081" transform="translate(-51.1 -12.356)" style="fill:#f9c295"/>
        <g id="prefix__Group_643" data-name="Group 643" transform="translate(75.775 168.3)">
            <path id="prefix__Path_4082" d="M283.395 305.108l-4.9-4.225a5.743 5.743 0 0 1-.237 7.2l-1.355 1.569a7.381 7.381 0 0 1-10.407.769l-5.1 5.921a7.368 7.368 0 0 1-10.407.769l-5.1 5.922a7.384 7.384 0 0 1-10.413.773l-5.1 5.916a7.332 7.332 0 0 1-3.5 2.255l2.171 1.873a6.956 6.956 0 0 0 9.81-.728l4.8-5.573a6.956 6.956 0 0 0 9.81-.728l4.8-5.578a6.941 6.941 0 0 0 9.8-.724l4.809-5.578a6.953 6.953 0 0 0 9.8-.724l1.277-1.479a5.41 5.41 0 0 0-.558-7.63z" class="prefix__cls-4" data-name="Path 4082" transform="translate(-226.872 -300.883)"/>
            <path id="prefix__Path_4083" d="M343.666 321.049l-8.815-7.6a2.505 2.505 0 1 0-3.272 3.795l8.8 7.587 1.659-1.924a6.934 6.934 0 0 0 2.178 1.266 2.507 2.507 0 0 0-.55-3.124z" class="prefix__cls-4" data-name="Path 4083" transform="translate(-296.028 -308.847)"/>
            <path id="prefix__Path_4084" d="M302.216 344.488a2.5 2.5 0 0 0-.522-3.166l-7.918-6.827a2.505 2.505 0 1 0-3.272 3.795l7.918 6.827.01.008 1.636-1.9a6.925 6.925 0 0 0 2.148 1.263z" class="prefix__cls-4" data-name="Path 4084" transform="translate(-268.672 -322.863)"/>
        </g>
        <g id="prefix__Group_644" data-name="Group 644" transform="translate(39.04 106.611)">
            <path id="prefix__Path_4085" d="M120.059 300.21l-1.908 2.52a6.232 6.232 0 0 0 1.206 8.731 6.232 6.232 0 0 0 8.731-1.206l1.908-2.52A6.232 6.232 0 0 0 128.79 299a6.232 6.232 0 0 0-8.731 1.21z" class="prefix__cls-1" data-name="Path 4085" transform="translate(-116.887 -237.1)"/>
            <path id="prefix__Path_4086" d="M151.495 316.077l-3.594 4.745a6.232 6.232 0 0 0 1.206 8.731 6.232 6.232 0 0 0 8.731-1.206l3.594-4.745a6.232 6.232 0 0 0-1.206-8.731 6.232 6.232 0 0 0-8.731 1.206z" class="prefix__cls-1" data-name="Path 4086" transform="translate(-136.701 -247.667)"/>
            <path id="prefix__Path_4087" d="M182.548 333.452l-4.9 6.467a6.232 6.232 0 0 0 1.206 8.731 6.232 6.232 0 0 0 8.731-1.206l4.9-6.467a6.232 6.232 0 0 0-1.206-8.731 6.232 6.232 0 0 0-8.731 1.206z" class="prefix__cls-1" data-name="Path 4087" transform="translate(-156.513 -259.239)"/>
            <path id="prefix__Path_4088" d="M212.582 354.858L207.4 361.7a6.232 6.232 0 0 0 1.206 8.731 6.232 6.232 0 0 0 8.731-1.206l5.182-6.842a6.232 6.232 0 0 0-1.206-8.731 6.232 6.232 0 0 0-8.731 1.206z" class="prefix__cls-1" data-name="Path 4088" transform="translate(-176.327 -273.496)"/>
            <path id="prefix__Path_4089" d="M237.891 126.287l-15.781-8.881a9.51 9.51 0 0 0-5.539-1.182l-24.918 2.3a9.508 9.508 0 0 0-7.346 4.691l-17.563 30.23a4.178 4.178 0 0 0 2.136 6.007l.718.271a15.617 15.617 0 0 0 17.9-5.094l6.729-8.757s16.175 18.728 33.984-3.143" class="prefix__cls-1" data-name="Path 4089" transform="translate(-149.714 -116.183)"/>
        </g>
        <path id="prefix__Path_4090" d="M435.4 171.061l-8.254-67.051a2.5 2.5 0 0 0-2.792-2.18l-19.3 2.376a9.17 9.17 0 0 0-7.972 10.21l6.628 53.841a9.155 9.155 0 0 0 10.21 7.972l19.3-2.376a2.506 2.506 0 0 0 2.18-2.792z" data-name="Path 4090" transform="translate(-264.408 -.001)" style="fill:#5c9cee"/>
        <path id="prefix__Path_4091" d="M447.4 292.616l-.906-7.36a2.617 2.617 0 0 1-1.848 1.13l-20.233 2.491a9.591 9.591 0 0 1-9.381-4.55l.675 5.486a9.155 9.155 0 0 0 10.21 7.972l19.3-2.376a2.505 2.505 0 0 0 2.183-2.793z" data-name="Path 4091" transform="translate(-276.415 -121.556)" style="fill:#3580d3"/>
        <path id="prefix__Path_4092" d="M30.367 104.2l-19.3-2.376a2.5 2.5 0 0 0-2.792 2.18L.019 171.06a2.505 2.505 0 0 0 2.18 2.792l19.3 2.376a9.155 9.155 0 0 0 10.21-7.972l6.628-53.841a9.17 9.17 0 0 0-7.97-10.215z" data-name="Path 4092" style="fill:#ed5575"/>
        <path id="prefix__Path_4093" d="M.019 292.616l.906-7.36a2.617 2.617 0 0 0 1.848 1.13l20.233 2.491a9.591 9.591 0 0 0 9.381-4.55l-.675 5.486a9.155 9.155 0 0 1-10.21 7.972L2.2 295.408a2.5 2.5 0 0 1-2.181-2.792z" data-name="Path 4093" transform="translate(0 -121.556)" style="fill:#cc3a60"/>
        <g id="prefix__Group_645" data-name="Group 645" transform="translate(10.919 155.481)">
            <circle id="prefix__Ellipse_784" cx="4.842" cy="4.842" r="4.842" class="prefix__cls-9" data-name="Ellipse 784" transform="translate(139.215)"/>
            <circle id="prefix__Ellipse_785" cx="4.842" cy="4.842" r="4.842" class="prefix__cls-9" data-name="Ellipse 785"/>
        </g>
    </g>
</svg>
