<svg xmlns="http://www.w3.org/2000/svg" width="104.721" height="103" viewBox="0 0 104.721 103">
    <defs>
        <style>
            .prefix__cls-1{fill:#ffe7cf}.prefix__cls-2{fill:#efd5bd}.prefix__cls-3{fill:#344a5d}.prefix__cls-6{fill:#fd715c}.prefix__cls-7{fill:#d83e3a}.prefix__cls-10{fill:#dbd9d1}
        </style>
    </defs>
    <g id="prefix__surface1" transform="translate(0 -.001)">
        <path id="prefix__Path_4052" d="M93.968 349.643l-8.119-1.664-4.7 4.866-16.014-12.64 10.68-7.289 11.357-12.428a4.274 4.274 0 0 1 6.771.606l13.455 15.43a4.96 4.96 0 0 1-1.2 7.52l-7.926 4.72a7.374 7.374 0 0 1-4.304.879zm0 0" class="prefix__cls-1" data-name="Path 4052" transform="translate(-51.814 -253.831)"/>
        <path id="prefix__Path_4053" d="M137.466 389.656l-3.283-3.765-13.691 8.159a7.375 7.375 0 0 1-4.3.878l-7.111-.765-6.142 5.276 8.284 6.539 4.7-4.866 8.119 1.665a7.379 7.379 0 0 0 4.3-.878l7.926-4.72a4.96 4.96 0 0 0 1.198-7.523zm0 0" class="prefix__cls-2" data-name="Path 4053" transform="translate(-81.881 -306.962)"/>
        <path id="prefix__Path_4054" d="M172.477 309.826c-1.585-2.458-3.516-1.214-5.1-3.674s.346-3.7-1.239-6.162-3.516-1.214-5.1-3.674.345-3.7-1.241-6.164c-.969-1.5-2.724-4.606-3.793-5.033l-8.556 4.227 14.889 23.483a4.855 4.855 0 0 0 6.711 1.45l2.849-1.836a1.9 1.9 0 0 0 .6-2.6zm0 0" class="prefix__cls-3" data-name="Path 4054" transform="translate(-117.288 -226.803)"/>
        <path id="prefix__Path_4055" d="M92.483 280.675l-6.722 4.147a2.714 2.714 0 0 1-3.734-.884l-3.8-6.159a2.714 2.714 0 0 1 .884-3.734l6.722-4.147a1.68 1.68 0 0 1 2.311.547l4.886 7.919a1.68 1.68 0 0 1-.547 2.311zm0 0" class="prefix__cls-3" data-name="Path 4055" transform="translate(-61.906 -214.495)"/>
        <path id="prefix__Path_4056" d="M109.545 82.386L95.9 90.8a3.819 3.819 0 0 0-1.246 5.256l6.728 10.9a3.82 3.82 0 0 0 5.257 1.245l13.643-8.418 43.156-9.383L137.3 48.031zm0 0" data-name="Path 4056" transform="translate(-74.843 -38.206)" style="fill:#fed066"/>
        <path id="prefix__Path_4057" d="M170.371 206.367l-42.93 9.755-16.894 10.424 3.931 6.37a3.819 3.819 0 0 0 5.256 1.245l13.644-8.418 43.152-9.393zm0 0" data-name="Path 4057" transform="translate(-87.936 -164.157)" style="fill:#f5b556"/>
        <path id="prefix__Path_4058" d="M120.283 233.4l-13.643 8.42a3.819 3.819 0 0 1-5.256-1.245l-6.728-10.9a3.819 3.819 0 0 1 1.245-5.256L109.544 216zm0 0" class="prefix__cls-6" data-name="Path 4058" transform="translate(-74.842 -171.817)"/>
        <path id="prefix__Path_4059" d="M127.441 254.059l-16.894 10.424 3.931 6.37a3.819 3.819 0 0 0 5.256 1.245l6.821-4.209 6.822-4.209zm0 0" class="prefix__cls-7" data-name="Path 4059" transform="translate(-87.936 -202.094)"/>
        <path id="prefix__Path_4060" d="M317.087 77.967l-1.862 1.149a2.054 2.054 0 0 1-2.826-.67L284.3 32.9a2.053 2.053 0 0 1 .67-2.827l1.862-1.149a2.053 2.053 0 0 1 2.826.67l28.1 45.545a2.055 2.055 0 0 1-.671 2.828zm0 0" class="prefix__cls-6" data-name="Path 4060" transform="translate(-225.904 -22.764)"/>
        <path id="prefix__Path_4061" d="M410.262 226.927l-4.623-7.493-5.359 3.307 4.624 7.492a2.054 2.054 0 0 0 2.826.67l1.862-1.149a2.054 2.054 0 0 0 .67-2.827zm0 0" class="prefix__cls-7" data-name="Path 4061" transform="translate(-318.41 -174.551)"/>
        <path id="prefix__Path_4062" d="M247.117 403.137a3.527 3.527 0 0 0 4.85 1.171l5.141-3.143a3.527 3.527 0 0 0-3.679-6.019l-5.142 3.143a3.527 3.527 0 0 0-1.17 4.848zm0 0" class="prefix__cls-1" data-name="Path 4062" transform="translate(-196.162 -313.913)"/>
        <path id="prefix__Path_4063" d="M258.411 397.291a3.5 3.5 0 0 0-1.718-1.439 3.527 3.527 0 0 1-1.655 3.482l-5.142 3.143a3.519 3.519 0 0 1-3.13.269 3.523 3.523 0 0 0 5.333 2.536l5.141-3.143a3.526 3.526 0 0 0 1.171-4.848zm0 0" class="prefix__cls-2" data-name="Path 4063" transform="translate(-196.294 -314.886)"/>
        <path id="prefix__Path_4064" d="M236.319 369.106a3.58 3.58 0 0 0 4.923 1.189l5.05-3.087a3.58 3.58 0 1 0-3.734-6.109l-5.051 3.087a3.579 3.579 0 0 0-1.188 4.92zm0 0" class="prefix__cls-1" data-name="Path 4064" transform="translate(-187.566 -286.823)"/>
        <path id="prefix__Path_4065" d="M247.6 363.363a3.562 3.562 0 0 0-1.685-1.437 3.577 3.577 0 0 1-1.682 3.506l-5.051 3.087a3.573 3.573 0 0 1-3.238.249 3.577 3.577 0 0 0 5.417 2.6l5.05-3.087a3.581 3.581 0 0 0 1.189-4.918zm0 0" class="prefix__cls-2" data-name="Path 4065" transform="translate(-187.686 -287.899)"/>
        <path id="prefix__Path_4066" d="M217.913 339.427a3.58 3.58 0 0 0 4.922 1.189l5.051-3.088a3.58 3.58 0 0 0-3.734-6.109l-5.051 3.087a3.58 3.58 0 0 0-1.188 4.921zm0 0" class="prefix__cls-1" data-name="Path 4066" transform="translate(-172.925 -263.214)"/>
        <path id="prefix__Path_4067" d="M229.177 333.749a3.561 3.561 0 0 0-1.643-1.421 3.578 3.578 0 0 1-1.688 3.453l-5.05 3.087a3.573 3.573 0 0 1-3.28.232 3.573 3.573 0 0 0 5.422 2.656l5.051-3.087a3.58 3.58 0 0 0 1.188-4.92zm0 0" class="prefix__cls-2" data-name="Path 4067" transform="translate(-173.027 -264.355)"/>
        <path id="prefix__Path_4068" d="M200.563 308.989a3.58 3.58 0 0 0 4.923 1.188l5.051-3.087a3.58 3.58 0 1 0-3.734-6.109l-5.051 3.087a3.581 3.581 0 0 0-1.189 4.921zm0 0" class="prefix__cls-1" data-name="Path 4068" transform="translate(-159.123 -239.001)"/>
        <path id="prefix__Path_4069" d="M212.045 302.8a3.56 3.56 0 0 0-2-1.552 3.578 3.578 0 0 1-1.631 3.8l-5.051 3.087a3.567 3.567 0 0 1-2.918.363 3.571 3.571 0 0 0 5.365 2.308l5.051-3.087a3.58 3.58 0 0 0 1.184-4.919zm0 0" class="prefix__cls-2" data-name="Path 4069" transform="translate(-159.444 -239.63)"/>
        <path id="prefix__Path_4070" d="M142.369 310.484l-.936.572a3.087 3.087 0 0 1-4.256-.964l-1.552-2.538a2.662 2.662 0 0 0-3.684-.822c-1.276 9.365-14.586 8.518-14.586 8.518l8.248-12.422a6.633 6.633 0 0 1 2.247-2.314l4.655-2.887a4.74 4.74 0 0 1 6.559 1.462l4.387 7.16a3.09 3.09 0 0 1-1.082 4.235zm0 0" class="prefix__cls-1" data-name="Path 4070" transform="translate(-93.352 -236.164)"/>
        <path id="prefix__Path_4071" d="M178.329 330.252l-.036-.059a3.182 3.182 0 0 1-1.044 1.036l-.937.573a3.086 3.086 0 0 1-4.255-.965L170.5 328.3a2.662 2.662 0 0 0-3.684-.823 18.528 18.528 0 0 1-5.618 10.27 8.761 8.761 0 0 0 5.618-7.013 2.662 2.662 0 0 1 3.684.822l1.552 2.538a3.087 3.087 0 0 0 4.255.965l.937-.573a3.089 3.089 0 0 0 1.085-4.234zm0 0" class="prefix__cls-2" data-name="Path 4071" transform="translate(-128.232 -260.167)"/>
        <path id="prefix__Path_4072" d="M93.674 410.529L80.555 394.94l4.32-3.635a.323.323 0 0 1 .454.039l12.7 15.1a.324.324 0 0 1-.039.454zm0 0" data-name="Path 4072" transform="translate(-64.079 -311.209)" style="fill:#cdd6df"/>
        <path id="prefix__Path_4073" d="M121.961 434.363l-6.758-8.031-4.567 3.843 6.966 8.278 4.319-3.635a.322.322 0 0 0 .04-.455zm0 0" data-name="Path 4073" transform="translate(-88.008 -339.132)" style="fill:#96a4aa"/>
        <path id="prefix__Path_4074" d="M403.238 95.824a1.557 1.557 0 0 1-.817-2.884l8.439-5.191a1.557 1.557 0 0 1 1.63 2.651l-8.439 5.191a1.542 1.542 0 0 1-.813.233zm0 0" class="prefix__cls-10" data-name="Path 4074" transform="translate(-319.522 -69.617)"/>
        <path id="prefix__Path_4075" d="M450.219 173.477c-.05 0-.1 0-.153-.007l-12.372-1.2a1.557 1.557 0 1 1 .3-3.1l12.372 1.2a1.557 1.557 0 0 1-.149 3.106zm0 0" class="prefix__cls-10" data-name="Path 4075" transform="translate(-347.052 -134.561)"/>
        <path id="prefix__Path_4076" d="M368.626 14.7a1.557 1.557 0 0 1-1.45-2.121L371.682.993a1.557 1.557 0 0 1 2.9 1.129l-4.506 11.584a1.558 1.558 0 0 1-1.45.994zm0 0" class="prefix__cls-10" data-name="Path 4076" transform="translate(-291.992)"/>
        <path id="prefix__Path_4077" d="M30.531 419.725l-14.179-16.633a.341.341 0 0 0-.452-.061L.8 414.952A2.1 2.1 0 0 0 0 416.6v4.85a2.1 2.1 0 0 0 2.1 2.1h24.7a2.1 2.1 0 0 0 1.638-.785l2.075-2.583a.342.342 0 0 0 .018-.457zm0 0" data-name="Path 4077" transform="translate(0 -320.55)" style="fill:#3c5666"/>
        <path id="prefix__Path_4078" d="M84.629 454.2l-6.723-7.887-9.9 11.714H80.9a2.1 2.1 0 0 0 1.638-.785l2.075-2.583a.342.342 0 0 0 .016-.459zm0 0" data-name="Path 4078" transform="translate(-54.098 -355.028)" style="fill:#194451"/>
    </g>
</svg>
