<svg xmlns="http://www.w3.org/2000/svg" xmlns:xlink="http://www.w3.org/1999/xlink" width="458.526" height="380.263" viewBox="0 0 458.526 380.263">
    <defs>
        <linearGradient id="prefix__linear-gradient" x1=".5" x2=".5" y1="1" gradientUnits="objectBoundingBox">
            <stop offset="0" stop-color="gray" stop-opacity=".251"/>
            <stop offset=".54" stop-color="gray" stop-opacity=".122"/>
            <stop offset="1" stop-color="gray" stop-opacity=".102"/>
        </linearGradient>
        <linearGradient id="prefix__linear-gradient-2" x1="6.341" x2="6.341" y1="1" y2="0" xlink:href="#prefix__linear-gradient"/>
        <style>
            .prefix__cls-5{fill:#38bdba}.prefix__cls-13{opacity:.1}.prefix__cls-2{fill:none;stroke:#535461;stroke-miterlimit:10;stroke-width:2px}.prefix__cls-3{fill:#444584}.prefix__cls-4{fill:#ffd037}.prefix__cls-8{fill:#e2e2ec}.prefix__cls-9{fill:#fff}.prefix__cls-10{fill:#fc6681}.prefix__cls-12{fill:#db8b8b}.prefix__cls-14{fill:#2e3037}.prefix__cls-15{fill:#474463}.prefix__cls-16{fill:#d38d1c}
        </style>
    </defs>
    <g id="prefix__Group_642" data-name="Group 642" transform="translate(.003 -.005)">
        <path id="prefix__Path_3990" d="M545.415 259.7c-17.611 28.49-14.311 67.3-6.576 97.9 2.588 10.247 5.57 21.063 3.357 32.53-2.707 14.022-12.573 25.033-22.559 31.339-18.2 11.467-38.993 11.149-54.13-.84-13.072-10.356-21.681-28.418-35.028-38.219-22.317-16.405-52.962-6.462-79.572 8.87-18.817 10.821-39.529 24.591-56.922 16.795-12.236-5.475-19.867-20.921-23.428-37.73-1.719-8.115-2.759-16.98-6.7-23.162a26 26 0 0 0-8.913-8.153c-30.508-18.395-71.784-3.015-101.2-23.846-19.872-14.064-31.168-43.114-34.881-74.177s-.66-64.3 3.162-97.026c2.721-23.267 6.4-48.157 18.613-67.079 12.92-20.014 33.285-28.964 50.987-27.065s33.072 13.115 46.319 26.823c16.556 17.14 31.487 39.019 52.916 44.546 14.6 3.765 30.536-.594 46.058-3.058 25.916-4.121 51.471-2.939 76.846-1.391 24.292 1.481 48.732 3.324 71.366 11.871 16.016 6.054 28.309 18.656 43.257 26.851 9.743 5.342 20.736 6.021 29.814 13.143 11.182 8.775 20.859 24.971 16.382 45.446-4.268 19.477-19.823 30.517-29.168 45.632z" data-name="Path 3990" transform="translate(-117.18 -49.59)" style="opacity:.1;fill:#38bdba"/>
        <path id="prefix__Path_3991" d="M781.67 247.9s47.958-40.185 58.622-60.445a289.446 289.446 0 0 1 24.24-37.72" class="prefix__cls-2" data-name="Path 3991" transform="translate(-466.154 -102.178)"/>
        <path id="prefix__Path_3992" d="M919.955 239.947l-20.745-4.677s4.895 21.88 20.745 4.677z" class="prefix__cls-3" data-name="Path 3992" transform="translate(-527.883 -147.101)"/>
        <path id="prefix__Path_3993" d="M872.67 198.08l11.937 17.877s-23.338 1.686-11.937-17.877z" class="prefix__cls-3" data-name="Path 3993" transform="translate(-512.297 -127.57)"/>
        <path id="prefix__Path_3994" d="M939.12 206.054l-18.96-3.324s11.909 18.115 18.96 3.324z" class="prefix__cls-3" data-name="Path 3994" transform="translate(-538.885 -130.012)"/>
        <path id="prefix__Path_3995" d="M898.995 176.08l9.34 12.232s-16.535 1.566-9.34-12.232z" class="prefix__cls-3" data-name="Path 3995" transform="translate(-526.818 -116.016)"/>
        <path id="prefix__Path_3996" d="M940.81 170.95s16.144.769 18.044 2.312-2.407 10.589-8.547 9.112-9.497-11.424-9.497-11.424z" class="prefix__cls-3" data-name="Path 3996" transform="translate(-549.73 -113.322)"/>
        <path id="prefix__Path_3997" d="M920.572 140.56s6.6 12.018 6.348 14.307-10.052 4.857-12.032-3.8 5.684-10.507 5.684-10.507z" class="prefix__cls-3" data-name="Path 3997" transform="translate(-535.945 -97.362)"/>
        <circle id="prefix__Ellipse_764" cx="4.489" cy="4.489" r="4.489" class="prefix__cls-4" data-name="Ellipse 764" transform="rotate(-72.474 234.42 -242.66)"/>
        <circle id="prefix__Ellipse_765" cx="4.489" cy="4.489" r="4.489" class="prefix__cls-4" data-name="Ellipse 765" transform="rotate(-72.474 227.756 -240.175)"/>
        <path id="prefix__Path_3998" d="M336.727 561.506s7.7-22.9-41.1-50.5c0 0-49.543-14.449-44.477-64.068 0 0-57.112 41.842-18.466 95.141s72 41.666 72 41.666z" class="prefix__cls-5" data-name="Path 3998" transform="translate(-170.795 -258.265)"/>
        <path id="prefix__Path_3999" d="M349.9 571.848s-23.808-25.731-46.628-35.679a45.447 45.447 0 0 1-12.4-8.257 56.735 56.735 0 0 1-17.141-52.706l5.484-28.266" class="prefix__cls-2" data-name="Path 3999" transform="translate(-198.842 -258.265)"/>
        <path id="prefix__Rectangle_1705" d="M0 0H270.941V314.587H0z" data-name="Rectangle 1705" transform="translate(91.673 15.767)"/>
        <path id="prefix__Rectangle_1706" d="M0 0H264.631V307.256H0z" data-name="Rectangle 1706" transform="translate(94.831 19.428)" style="fill:#f7ffff"/>
        <path id="prefix__Rectangle_1707" d="M0 0H66.898V5.328H0z" class="prefix__cls-8" data-name="Rectangle 1707" transform="translate(110.813 54.062)"/>
        <path id="prefix__Rectangle_1708" d="M0 0H114.258V5.328H0z" class="prefix__cls-8" data-name="Rectangle 1708" transform="translate(110.813 67.086)"/>
        <path id="prefix__Rectangle_1709" d="M0 0H47.478V40.968H0z" class="prefix__cls-9" data-name="Rectangle 1709" transform="translate(299.31 48.972)"/>
        <path id="prefix__Path_4000" d="M794.483 152.695v40.493h-47.008v-40.493h47.008m.475-.475H747v41.443h47.957z" class="prefix__cls-8" data-name="Path 4000" transform="translate(-447.946 -103.486)"/>
        <path id="prefix__Rectangle_1710" d="M0 0H47.478V40.968H0z" class="prefix__cls-9" data-name="Rectangle 1710" transform="translate(251.357 48.972)"/>
        <path id="prefix__Path_4001" d="M693.483 152.695v40.493h-47.008v-40.493h47.008m.475-.475H646v41.443h47.958z" class="prefix__cls-8" data-name="Path 4001" transform="translate(-394.904 -103.486)"/>
        <path id="prefix__Rectangle_1711" d="M0 0H47.478V40.968H0z" class="prefix__cls-9" data-name="Rectangle 1711" transform="translate(299.31 90.414)"/>
        <path id="prefix__Path_4002" d="M794.483 239.975v40.493h-47.008v-40.493h47.008m.475-.475H747v41.443h47.957z" class="prefix__cls-8" data-name="Path 4002" transform="translate(-447.946 -149.323)"/>
        <path id="prefix__Rectangle_1712" d="M0 0H47.478V40.968H0z" class="prefix__cls-9" data-name="Rectangle 1712" transform="translate(251.357 90.414)"/>
        <path id="prefix__Path_4003" d="M693.483 239.975v40.493h-47.008v-40.493h47.008m.475-.475H646v41.443h47.958z" class="prefix__cls-8" data-name="Path 4003" transform="translate(-394.904 -149.323)"/>
        <path id="prefix__Rectangle_1713" d="M0 0H47.478V40.968H0z" class="prefix__cls-9" data-name="Rectangle 1713" transform="translate(203.405 90.414)"/>
        <path id="prefix__Path_4004" d="M592.533 239.975v40.493h-47.008v-40.493h47.008m.475-.475H545.05v41.443h47.958z" class="prefix__cls-8" data-name="Path 4004" transform="translate(-341.888 -149.323)"/>
        <path id="prefix__Rectangle_1714" d="M0 0H47.478V40.968H0z" class="prefix__cls-9" data-name="Rectangle 1714" transform="translate(155.452 90.414)"/>
        <path id="prefix__Path_4005" d="M491.543 239.975v40.493h-47.008v-40.493h47.008m.475-.475H444.06v41.443h47.958z" class="prefix__cls-8" data-name="Path 4005" transform="translate(-288.85 -149.323)"/>
        <path id="prefix__Rectangle_1715" d="M0 0H47.478V40.968H0z" class="prefix__cls-9" data-name="Rectangle 1715" transform="translate(107.499 90.414)"/>
        <path id="prefix__Path_4006" d="M390.553 239.975v40.493h-47.008v-40.493h47.008m.475-.475H343.07v41.443h47.958z" class="prefix__cls-8" data-name="Path 4006" transform="translate(-235.813 -149.323)"/>
        <path id="prefix__Rectangle_1716" d="M0 0H47.478V40.968H0z" class="prefix__cls-9" data-name="Rectangle 1716" transform="translate(299.31 131.853)"/>
        <path id="prefix__Path_4007" d="M794.483 327.255v40.493h-47.008v-40.493h47.008m.475-.475H747v41.443h47.957z" class="prefix__cls-8" data-name="Path 4007" transform="translate(-447.946 -195.16)"/>
        <path id="prefix__Rectangle_1717" d="M0 0H47.478V40.968H0z" class="prefix__cls-9" data-name="Rectangle 1717" transform="translate(251.357 131.853)"/>
        <path id="prefix__Path_4008" d="M693.483 327.255v40.493h-47.008v-40.493h47.008m.475-.475H646v41.443h47.958z" class="prefix__cls-8" data-name="Path 4008" transform="translate(-394.904 -195.16)"/>
        <path id="prefix__Rectangle_1718" d="M0 0H47.478V40.968H0z" class="prefix__cls-9" data-name="Rectangle 1718" transform="translate(203.405 131.853)"/>
        <path id="prefix__Path_4009" d="M592.533 327.255v40.493h-47.008v-40.493h47.008m.475-.475H545.05v41.443h47.958z" class="prefix__cls-8" data-name="Path 4009" transform="translate(-341.888 -195.16)"/>
        <path id="prefix__Rectangle_1719" d="M0 0H47.478V40.968H0z" class="prefix__cls-9" data-name="Rectangle 1719" transform="translate(155.452 131.853)"/>
        <path id="prefix__Path_4010" d="M491.543 327.255v40.493h-47.008v-40.493h47.008m.475-.475H444.06v41.443h47.958z" class="prefix__cls-8" data-name="Path 4010" transform="translate(-288.85 -195.16)"/>
        <path id="prefix__Rectangle_1720" d="M0 0H47.478V40.968H0z" class="prefix__cls-9" data-name="Rectangle 1720" transform="translate(107.499 131.853)"/>
        <path id="prefix__Path_4011" d="M390.553 327.255v40.493h-47.008v-40.493h47.008m.475-.475H343.07v41.443h47.958z" class="prefix__cls-8" data-name="Path 4011" transform="translate(-235.813 -195.16)"/>
        <path id="prefix__Rectangle_1721" d="M0 0H47.478V40.968H0z" class="prefix__cls-9" data-name="Rectangle 1721" transform="translate(299.31 173.296)"/>
        <path id="prefix__Path_4012" d="M794.483 414.525v40.493h-47.008v-40.493h47.008m.475-.475H747v41.443h47.957z" class="prefix__cls-8" data-name="Path 4012" transform="translate(-447.946 -240.992)"/>
        <path id="prefix__Rectangle_1722" d="M0 0H47.478V40.968H0z" class="prefix__cls-9" data-name="Rectangle 1722" transform="translate(251.357 173.296)"/>
        <path id="prefix__Path_4013" d="M693.483 414.525v40.493h-47.008v-40.493h47.008m.475-.475H646v41.443h47.958z" class="prefix__cls-8" data-name="Path 4013" transform="translate(-394.904 -240.992)"/>
        <path id="prefix__Rectangle_1723" d="M0 0H47.478V40.968H0z" class="prefix__cls-9" data-name="Rectangle 1723" transform="translate(203.405 173.296)"/>
        <path id="prefix__Path_4014" d="M592.533 414.525v40.493h-47.008v-40.493h47.008m.475-.475H545.05v41.443h47.958z" class="prefix__cls-8" data-name="Path 4014" transform="translate(-341.888 -240.992)"/>
        <path id="prefix__Rectangle_1724" d="M0 0H47.478V40.968H0z" class="prefix__cls-9" data-name="Rectangle 1724" transform="translate(155.452 173.296)"/>
        <path id="prefix__Path_4015" d="M491.543 414.525v40.493h-47.008v-40.493h47.008m.475-.475H444.06v41.443h47.958z" class="prefix__cls-8" data-name="Path 4015" transform="translate(-288.85 -240.992)"/>
        <path id="prefix__Rectangle_1725" d="M0 0H47.478V40.968H0z" class="prefix__cls-9" data-name="Rectangle 1725" transform="translate(107.499 173.296)"/>
        <path id="prefix__Path_4016" d="M390.553 414.525v40.493h-47.008v-40.493h47.008m.475-.475H343.07v41.443h47.958z" class="prefix__cls-8" data-name="Path 4016" transform="translate(-235.813 -240.992)"/>
        <path id="prefix__Rectangle_1726" d="M0 0H47.478V40.968H0z" class="prefix__cls-9" data-name="Rectangle 1726" transform="translate(299.31 214.734)"/>
        <path id="prefix__Path_4017" d="M794.483 501.8v40.488h-47.008V501.8h47.008m.475-.475H747v41.438h47.957z" class="prefix__cls-8" data-name="Path 4017" transform="translate(-447.946 -286.829)"/>
        <path id="prefix__Rectangle_1727" d="M0 0H47.478V40.968H0z" class="prefix__cls-9" data-name="Rectangle 1727" transform="translate(251.357 214.734)"/>
        <path id="prefix__Path_4018" d="M693.483 501.8v40.488h-47.008V501.8h47.008m.475-.475H646v41.438h47.958z" class="prefix__cls-8" data-name="Path 4018" transform="translate(-394.904 -286.829)"/>
        <path id="prefix__Rectangle_1728" d="M0 0H47.478V40.968H0z" class="prefix__cls-9" data-name="Rectangle 1728" transform="translate(203.405 214.734)"/>
        <path id="prefix__Path_4019" d="M592.533 501.8v40.488h-47.008V501.8h47.008m.475-.475H545.05v41.438h47.958z" class="prefix__cls-8" data-name="Path 4019" transform="translate(-341.888 -286.829)"/>
        <path id="prefix__Rectangle_1729" d="M0 0H47.478V40.968H0z" class="prefix__cls-9" data-name="Rectangle 1729" transform="translate(155.452 214.734)"/>
        <path id="prefix__Path_4020" d="M491.543 501.8v40.488h-47.008V501.8h47.008m.475-.475H444.06v41.438h47.958z" class="prefix__cls-8" data-name="Path 4020" transform="translate(-288.85 -286.829)"/>
        <path id="prefix__Rectangle_1730" d="M0 0H47.478V40.968H0z" class="prefix__cls-9" data-name="Rectangle 1730" transform="translate(107.499 214.734)"/>
        <path id="prefix__Path_4021" d="M390.553 501.8v40.488h-47.008V501.8h47.008m.475-.475H343.07v41.438h47.958z" class="prefix__cls-8" data-name="Path 4021" transform="translate(-235.813 -286.829)"/>
        <path id="prefix__Rectangle_1731" d="M0 0H47.478V40.968H0z" class="prefix__cls-9" data-name="Rectangle 1731" transform="translate(299.31 256.177)"/>
        <path id="prefix__Path_4022" d="M794.483 589.075v40.493h-47.008v-40.493h47.008m.475-.475H747v41.443h47.957z" class="prefix__cls-8" data-name="Path 4022" transform="translate(-447.946 -332.661)"/>
        <path id="prefix__Rectangle_1732" d="M0 0H47.478V40.968H0z" class="prefix__cls-9" data-name="Rectangle 1732" transform="translate(251.357 256.177)"/>
        <path id="prefix__Path_4023" d="M693.483 589.075v40.493h-47.008v-40.493h47.008m.475-.475H646v41.443h47.958z" class="prefix__cls-8" data-name="Path 4023" transform="translate(-394.904 -332.661)"/>
        <path id="prefix__Rectangle_1733" d="M0 0H47.478V40.968H0z" class="prefix__cls-9" data-name="Rectangle 1733" transform="translate(203.405 256.177)"/>
        <path id="prefix__Path_4024" d="M592.533 589.075v40.493h-47.008v-40.493h47.008m.475-.475H545.05v41.443h47.958z" class="prefix__cls-8" data-name="Path 4024" transform="translate(-341.888 -332.661)"/>
        <path id="prefix__Rectangle_1734" d="M0 0H47.478V40.968H0z" class="prefix__cls-9" data-name="Rectangle 1734" transform="translate(155.452 256.177)"/>
        <path id="prefix__Path_4025" d="M491.543 589.075v40.493h-47.008v-40.493h47.008m.475-.475H444.06v41.443h47.958z" class="prefix__cls-8" data-name="Path 4025" transform="translate(-288.85 -332.661)"/>
        <path id="prefix__Rectangle_1735" d="M0 0H47.478V40.968H0z" class="prefix__cls-9" data-name="Rectangle 1735" transform="translate(107.499 256.177)"/>
        <path id="prefix__Path_4026" d="M390.553 589.075v40.493h-47.008v-40.493h47.008m.475-.475H343.07v41.443h47.958z" class="prefix__cls-8" data-name="Path 4026" transform="translate(-235.813 -332.661)"/>
        <path id="prefix__Path_4027" d="M521.1 741.276a7.631 7.631 0 0 0 3.029-3.727 3.153 3.153 0 0 0-2.118-3.8c-1.942-.608-4.017.475-5.593 1.6s-3.376 2.374-5.437 2.141a6.06 6.06 0 0 0 2.559-6.32 2.451 2.451 0 0 0-.712-1.282c-1.078-.95-3.034-.536-4.326.2-4.107 2.374-5.252 6.909-5.275 11.007-.413-1.477-.066-3.015-.076-4.535a4.313 4.313 0 0 0-2.084-4.012 7.46 7.46 0 0 0-3.181-.612c-1.847-.057-3.9.095-5.161 1.2-1.567 1.367-1.159 3.666.2 5.171s3.438 2.45 5.342 3.49a10.9 10.9 0 0 1 3.8 2.972 2.692 2.692 0 0 1 .285.532h11.572a33.271 33.271 0 0 0 7.175-4.026z" class="prefix__cls-5" data-name="Path 4027" transform="translate(-313.878 -406.572)"/>
        <circle id="prefix__Ellipse_766" cx="2.707" cy="2.707" r="2.707" class="prefix__cls-10" data-name="Ellipse 766" transform="translate(111.055 93.938)"/>
        <circle id="prefix__Ellipse_767" cx="2.707" cy="2.707" r="2.707" class="prefix__cls-4" data-name="Ellipse 767" transform="translate(117.817 93.938)"/>
        <circle id="prefix__Ellipse_768" cx="2.707" cy="2.707" r="2.707" class="prefix__cls-3" data-name="Ellipse 768" transform="translate(206.629 134.061)"/>
        <circle id="prefix__Ellipse_769" cx="2.707" cy="2.707" r="2.707" class="prefix__cls-3" data-name="Ellipse 769" transform="translate(213.395 134.061)"/>
        <circle id="prefix__Ellipse_770" cx="2.707" cy="2.707" r="2.707" class="prefix__cls-3" data-name="Ellipse 770" transform="translate(351.342 211.6)"/>
        <circle id="prefix__Ellipse_771" cx="2.707" cy="2.707" r="2.707" class="prefix__cls-3" data-name="Ellipse 771" transform="translate(352.695 208.447)"/>
        <circle id="prefix__Ellipse_772" cx="2.707" cy="2.707" r="2.707" class="prefix__cls-3" data-name="Ellipse 772" transform="translate(354.048 205.74)"/>
        <circle id="prefix__Ellipse_773" cx="2.707" cy="2.707" r="2.707" class="prefix__cls-3" data-name="Ellipse 773" transform="translate(303.555 93.938)"/>
        <circle id="prefix__Ellipse_774" cx="2.707" cy="2.707" r="2.707" class="prefix__cls-3" data-name="Ellipse 774" transform="translate(310.317 93.938)"/>
        <circle id="prefix__Ellipse_775" cx="2.707" cy="2.707" r="2.707" class="prefix__cls-3" data-name="Ellipse 775" transform="translate(317.083 93.938)"/>
        <circle id="prefix__Ellipse_776" cx="2.707" cy="2.707" r="2.707" class="prefix__cls-3" data-name="Ellipse 776" transform="translate(323.844 93.938)"/>
        <circle id="prefix__Ellipse_777" cx="2.707" cy="2.707" r="2.707" class="prefix__cls-3" data-name="Ellipse 777" transform="translate(303.555 177.787)"/>
        <circle id="prefix__Ellipse_778" cx="2.707" cy="2.707" r="2.707" class="prefix__cls-3" data-name="Ellipse 778" transform="translate(310.317 177.787)"/>
        <circle id="prefix__Ellipse_779" cx="2.707" cy="2.707" r="2.707" class="prefix__cls-3" data-name="Ellipse 779" transform="translate(317.083 177.787)"/>
        <circle id="prefix__Ellipse_780" cx="2.707" cy="2.707" r="2.707" class="prefix__cls-3" data-name="Ellipse 780" transform="translate(323.844 177.787)"/>
        <circle id="prefix__Ellipse_781" cx="2.707" cy="2.707" r="2.707" class="prefix__cls-4" data-name="Ellipse 781" transform="translate(158.842 134.061)"/>
        <circle id="prefix__Ellipse_782" cx="2.707" cy="2.707" r="2.707" class="prefix__cls-10" data-name="Ellipse 782" transform="translate(111.055 175.086)"/>
        <path id="prefix__Path_4028" d="M856.121 347.042c2.968 1.752 7.6 2.892 13.461-.874l-.057 8.338c.418 5.7 7.488 26.548 7.488 26.548L882 398.2a134.121 134.121 0 0 1 5.479 37.288c0 4.183.389 8.495 1.591 11.738 2.654 7.175-1.045 16.419-2.649 19.862a83.432 83.432 0 0 1-8.229 2.317 5.631 5.631 0 0 0-.736.223l-.033-.047s-7.483 2.968-10.807 2.559c-2.479-.3-4.031 2.787-2.089 5.062a15.194 15.194 0 0 1-4.981.655c-3.324-.408-4.991 5.309 1.249 6.942s41.59 0 41.59 0a5.014 5.014 0 0 0 2.659-5.536c2.716-.1 4.411-.185 4.411-.185s6.239-2.849 0-10.622l-.332.252-1.334-3.927v-5.3s7.9-37.986 5.408-42.478-3.742-27.364-3.742-27.364l.845-24.914c2.255-4.653 3.409-11.947 3.993-17.649a37.458 37.458 0 0 0 1.6-8.371c.1-1.339.18-2.744.233-4.2a28.171 28.171 0 0 0-1.548-9.4 93.249 93.249 0 0 1 9.421-11.828 12.137 12.137 0 0 0 3.742-10.622l-2.08-13.889-4.99-23.689c.627-6.572-.746-10.356-2.26-12.493.361-2.122.7-4.245.95-6.377a81.608 81.608 0 0 0-1.458-27.768c-.722-3.177-1.7-6.434-3.932-8.841-2.521-2.726-6.614-4.387-7.555-7.958a23.141 23.141 0 0 0-.579-2.688c-.912-2.336-3.8-3.186-6.325-3.49-4.5-.546-11.011-.95-15.337.807-3.02 1.235-7.179 4.634-8.832 8.281a6.226 6.226 0 0 0-.271 6.838 15.671 15.671 0 0 0-.969 5.456 15.935 15.935 0 0 0 10.171 14.781c.1.313.19.622.266.926a15.864 15.864 0 0 1 .408 2.227c-.081 1.424-.171 2.892-.237 4.34q-.071.3-.152.589a107.025 107.025 0 0 0-10.446 5.328c2.5 3.675-.418 19.2-.418 19.2-6.239 3.675-12.478 13.072-5.821 22.872s2.911 20.418 2.911 20.418l-1.04 15.968v.029l-.209 3.2h.081l-.081 1.211.18.033v1.3c-2.92 1.073-7.189 3.238-9.734 7.241a25.553 25.553 0 0 1-4.354 5.342 3.21 3.21 0 0 0 .5 5.209zm50.218-42.431a15.193 15.193 0 0 1 1.477-8.034q1.467.028 2.939.033c.1.688.218 1.344.361 1.942.845 3.6-2.531 5.323-4.781 6.054z" data-name="Path 4028" transform="translate(-504.409 -125.946)"/>
        <path id="prefix__Path_4029" d="M928.628 755.731l1.6 4.8-5.223 5.223-17.208 4-12.407-1.2.8-4.4a5.308 5.308 0 0 1 3.941-3.879c5.1-1.2 14.824-3.932 16.866-7.726z" class="prefix__cls-12" data-name="Path 4029" transform="translate(-525.877 -418.763)"/>
        <path id="prefix__Path_4030" d="M928.628 755.731l1.6 4.8-5.223 5.223-17.208 4-12.407-1.2.8-4.4a5.308 5.308 0 0 1 3.941-3.879c5.1-1.2 14.824-3.932 16.866-7.726z" class="prefix__cls-13" data-name="Path 4030" transform="translate(-525.877 -418.763)"/>
        <path id="prefix__Path_4031" d="M889.2 774.841l2.4-3.2-2.4-3.708s-7.2 2.906-10.4 2.507-4.8 5.223 1.2 6.8 40.018 0 40.018 0 6-2.8 0-10.4l-5.223 4s-8.8 4.8-13.2 4z" class="prefix__cls-14" data-name="Path 4031" transform="translate(-515.664 -426.268)"/>
        <path id="prefix__Path_4032" d="M881.1 780.281l12.407 1.2 17.208-4 5.223-5.223-.423-1.273-.6-1.785-.6-1.738-11.6-3.2a7.191 7.191 0 0 1-2.374 2.374c-3.77 2.578-10.541 4.44-14.515 5.37a4.166 4.166 0 0 0-.475.147 5.29 5.29 0 0 0-3.447 3.732z" class="prefix__cls-12" data-name="Path 4032" transform="translate(-518.372 -424.913)"/>
        <path id="prefix__Path_4033" d="M881.1 787.717l12.407 1.2 17.208-4 5.223-5.223-.423-1.273-4.777 3.675s-8.8 4.8-13.2 4H885.1l2.4-3.2-2.156-3.324a5.29 5.29 0 0 0-3.447 3.732z" class="prefix__cls-13" data-name="Path 4033" transform="translate(-518.372 -432.349)"/>
        <path id="prefix__Path_4034" d="M874.869 786.641l2.4-3.2-2.4-3.708s-7.2 2.906-10.4 2.507-4.8 5.223 1.2 6.8 40.018 0 40.018 0 6-2.8 0-10.4l-5.223 4s-8.8 4.8-13.2 4z" class="prefix__cls-14" data-name="Path 4034" transform="translate(-508.139 -432.465)"/>
        <path id="prefix__Path_4035" d="M910.6 283.206s19.211 2 16.41-6a14.405 14.405 0 0 1-.594-7.065 19.588 19.588 0 0 1 3.395-8.141l-18.01 2.8a22.554 22.554 0 0 1 2.441 5.783c2.146 8.487-3.642 12.623-3.642 12.623z" class="prefix__cls-12" data-name="Path 4035" transform="translate(-533.865 -161.139)"/>
        <path id="prefix__Path_4036" d="M954.013 498.82s-.4 17.208-4.4 25.612l-.8 24.411s1.2 22.412 3.6 26.813-5.223 41.619-5.223 41.619v6.405s-12.82 4.8-16.41-.8l3.6-47.625-1.6-66.029z" class="prefix__cls-15" data-name="Path 4036" transform="translate(-544.463 -285.511)"/>
        <path id="prefix__Path_4037" d="M954.013 498.82s-.4 17.208-4.4 25.612l-.8 24.411s1.2 22.412 3.6 26.813-5.223 41.619-5.223 41.619v6.405s-12.82 4.8-16.41-.8l3.6-47.625-1.6-66.029z" class="prefix__cls-13" data-name="Path 4037" transform="translate(-544.463 -285.511)"/>
        <path id="prefix__Path_4038" d="M976.655 382.51l2.4 6.405 2 13.609a12.037 12.037 0 0 1-3.6 10.4c-4.8 4.8-11.206 14.805-11.206 14.805l-7.6-22.792s7.6-1.2 6.405-6.405-.807-14.843-.807-14.843z" class="prefix__cls-16" data-name="Path 4038" transform="translate(-559.099 -224.428)"/>
        <path id="prefix__Path_4040" d="M921.66 766.639c5.133 8.072 13.124 3.5 14.539 2.588l-.579-1.766-11.6-3.2a7.189 7.189 0 0 1-2.36 2.378z" class="prefix__cls-13" data-name="Path 4040" transform="translate(-539.673 -424.913)"/>
        <path id="prefix__Path_4041" d="M887.85 482.539c.4 5.6 7.2 26.011 7.2 26.011l4.8 16.795a133.639 133.639 0 0 1 5.275 36.533 35.483 35.483 0 0 0 1.534 11.5c3.2 8.8-3.2 20.812-3.2 20.812 5.6 10 15.194 3.2 15.194 3.2v-6.4s7.6-34.819 5.6-41.619-2.8-25.213-2.8-25.213V490.92a37.692 37.692 0 0 0 10.983-23.893c.095-1.311.171-2.687.223-4.117.323-9.022-5.85-19.615-8.262-23.385-.579-.912-.95-1.424-.95-1.424l-35.337 14.017-.081.033v4.392z" class="prefix__cls-15" data-name="Path 4041" transform="translate(-521.917 -253.622)"/>
        <path id="prefix__Path_4042" d="M913.13 264.8a22.556 22.556 0 0 1 2.441 5.783 15.669 15.669 0 0 0 12.175-.446 19.586 19.586 0 0 1 3.4-8.134z" class="prefix__cls-13" data-name="Path 4042" transform="translate(-535.193 -161.139)"/>
        <circle id="prefix__Ellipse_783" cx="15.608" cy="15.608" r="15.608" class="prefix__cls-12" data-name="Ellipse 783" transform="translate(370.335 78.439)"/>
        <path id="prefix__Path_4043" d="M887.85 456.549l.171.033c16.78 3.452 37.849-14.041 37.849-14.041a20.746 20.746 0 0 1-1.458-2.977c-.579-.912-.95-1.424-.95-1.424l-35.337 14.017-.09 1.4z" class="prefix__cls-13" data-name="Path 4043" transform="translate(-521.917 -253.643)"/>
        <path id="prefix__Path_4044" d="M887.441 295.459s22.412-13.609 29.615-8.006l10 12.82s6.405 2 5.223 14.805l4.781 23.2-14.406 3.6s-8.4 8.006-1.6 19.61c0 0-21.211 17.607-38.019 14.007l1.2-18.808s3.6-10.4-2.8-20.009-.4-18.808 5.6-22.412c.007.006 2.804-15.203.406-18.807z" class="prefix__cls-16" data-name="Path 4044" transform="translate(-517.106 -173.796)"/>
        <path id="prefix__Path_4045" d="M875.082 477.75s-8.4 1.6-12.407 8.006a24.937 24.937 0 0 1-4.188 5.223 3.177 3.177 0 0 0 .475 5.062c3.177 1.9 8.357 3.082 14.9-2.293 11.225-9.194 1.22-15.998 1.22-15.998z" class="prefix__cls-12" data-name="Path 4045" transform="translate(-505.949 -274.445)"/>
        <path id="prefix__Path_4046" d="M905.695 321.5s8.006-.8 10 20.009 5.223 25.612 5.223 25.612 2 10.807-2.8 17.208-14.007 20.009-14.007 20.009-10 2.8-12-7.2l12.407-23.21s2-8.006-2.8-13.609-8.43-42.824 3.977-38.819z" class="prefix__cls-13" data-name="Path 4046" transform="translate(-524.154 -192.228)"/>
        <path id="prefix__Path_4047" d="M903.975 318.968s8.006-.8 10 20.009 5.223 25.612 5.223 25.612 2 10.807-2.8 17.208-14.007 20.009-14.007 20.009-10 2.8-12-7.2l12.407-23.21s2-8.006-2.8-13.609-8.416-42.822 3.977-38.819z" class="prefix__cls-16" data-name="Path 4047" transform="translate(-523.251 -190.899)"/>
        <path id="prefix__Path_4048" d="M905.036 350.9s-.8 12.393 2.792 19.212 3.6 15.608 0 20.418" class="prefix__cls-13" data-name="Path 4048" transform="translate(-530.903 -207.827)"/>
        <path id="prefix__Path_4049" d="M900.91 311.354s3.2-3.2 12.407-3.6 13.2-3.2 13.2-3.2" class="prefix__cls-13" data-name="Path 4049" transform="translate(-528.776 -183.485)"/>
        <path id="prefix__Path_4050" d="M921.364 204.671c2.431.3 5.223 1.135 6.087 3.419a23.413 23.413 0 0 1 .556 2.635c.907 3.495 4.843 5.123 7.27 7.8 2.142 2.374 3.086 5.551 3.8 8.661a81.388 81.388 0 0 1 1.424 27.189c-.779 6.648-2.374 13.172-2.821 19.838s.37 13.68 4.012 19.283c1.567 2.407 3.637 4.525 4.748 7.175-2.293 1.861-5.46 2.127-8.419 2.227q-5.161.176-10.328 0a11.014 11.014 0 0 1-5.247-1.092 8.1 8.1 0 0 1-2.754-2.958c-1.971-3.324-2.464-7.36-2.374-11.234s.7-7.73.769-11.61c.038-2.113-.128-4.359-1.344-6.087a19.83 19.83 0 0 0-3.352-3.1c-4.274-3.8-5.755-9.886-5.9-15.608s.8-11.453.318-17.155c-.19-2.232-1.026-4.914-3.219-5.347a11.329 11.329 0 0 1-2.089-.266c-1.762-.679-1.591-3.162-2.094-4.981-.565-2.042-2.308-3.618-2.8-5.7-1.154-4.843 5.009-10.622 9.05-12.308 4.114-1.722 10.377-1.313 14.707-.781z" class="prefix__cls-13" data-name="Path 4050" transform="translate(-526.97 -130.79)"/>
        <path id="prefix__Path_4051" d="M922.2 202.987c2.431.3 5.223 1.135 6.087 3.419a23.4 23.4 0 0 1 .556 2.635c.907 3.495 4.843 5.123 7.27 7.8 2.141 2.374 3.086 5.551 3.8 8.661a81.388 81.388 0 0 1 1.424 27.189c-.779 6.648-2.374 13.172-2.82 19.838s.37 13.68 4.012 19.283c1.567 2.407 3.637 4.525 4.748 7.175-2.293 1.861-5.461 2.127-8.419 2.227q-5.161.176-10.327 0a11.014 11.014 0 0 1-5.247-1.092 8.1 8.1 0 0 1-2.754-2.958c-1.97-3.324-2.464-7.36-2.374-11.234s.7-7.73.769-11.61c.038-2.113-.128-4.359-1.344-6.087a19.832 19.832 0 0 0-3.352-3.1c-4.273-3.8-5.755-9.886-5.9-15.608s.8-11.453.318-17.156c-.19-2.232-1.026-4.914-3.219-5.347a11.329 11.329 0 0 1-2.089-.266c-1.762-.679-1.591-3.162-2.094-4.981-.565-2.042-2.308-3.618-2.8-5.7-1.154-4.843 5.009-10.622 9.05-12.308 4.116-1.725 10.379-1.317 14.705-.78z" data-name="Path 4051" transform="translate(-527.411 -129.904)" style="fill:#472727"/>
    </g>
</svg>
