<svg id="Capa_1" enable-background="new 0 0 512 512" height="512" viewBox="0 0 512 512" width="512" xmlns="http://www.w3.org/2000/svg"><path d="m437.84 366.195c4.138 0 7.492-3.354 7.492-7.492v-290.444c0-22.308-18.148-40.456-40.456-40.456h-179.569c-14.163-17.862-39.247-27.803-72.743-27.803-35.443 0-62.397 11.405-75.897 32.114-2.26 3.466-1.282 8.107 2.185 10.368 3.466 2.258 8.107 1.282 10.367-2.185 10.641-16.323 33.138-25.313 63.345-25.313 21.272 0 38.966 4.477 51.169 12.947 13.101 9.095 19.744 22.757 19.744 40.607 0 14.542-4.434 26.261-13.18 34.831-1.716 1.682-2.522 4.085-2.165 6.462l3.367 22.452-24.94-13.455c-1.623-.875-3.511-1.122-5.305-.692-8.541 2.05-18.194 3.088-28.69 3.088-26.484 0-70.913-6.845-70.913-52.686 0-4.138-3.354-7.492-7.492-7.492s-7.492 3.354-7.492 7.492c0 22.706 9.077 40.869 26.248 52.526 11.961 8.12 27.979 13.096 46.815 14.63v335.85c0 22.308 18.149 40.456 40.456 40.456h224.689c22.308 0 40.456-18.148 40.456-40.456v-77.523c0-4.138-3.354-7.492-7.492-7.492s-7.492 3.354-7.492 7.492v77.523c0 14.045-11.427 25.473-25.473 25.473h-224.687c-14.045 0-25.473-11.427-25.473-25.473v-335.361c9.735-.123 18.866-1.067 27.2-2.836l29.424 15.874c1.654.893 3.454 1.334 5.247 1.334 2.221 0 4.431-.678 6.336-2.015 3.442-2.418 5.193-6.506 4.569-10.666l-3.996-26.64c7.356-8.243 12.016-18.249 13.944-29.875h155.535v359.541h-200.883v-277.077c0-4.138-3.354-7.492-7.492-7.492s-7.492 3.354-7.492 7.492v281.572c0 5.784 4.705 10.489 10.489 10.489h209.874c5.784 0 10.489-4.705 10.489-10.489v-368.533c0-5.784-4.705-10.489-10.489-10.489h-159.059c-.222-8.602-1.743-16.494-4.516-23.586h170.981c14.045 0 25.473 11.427 25.473 25.473v290.444c0 4.137 3.354 7.491 7.492 7.491z"/><path d="m233.531 155.236c-17.511 0-31.758 14.247-31.758 31.759s14.247 31.758 31.758 31.758c17.512 0 31.759-14.246 31.759-31.758s-14.247-31.759-31.759-31.759zm0 48.533c-9.249 0-16.774-7.525-16.774-16.774 0-9.25 7.525-16.775 16.774-16.775 9.25 0 16.775 7.525 16.775 16.775 0 9.249-7.525 16.774-16.775 16.774z"/><path d="m237.89 292.269c0 17.511 14.247 31.758 31.759 31.758s31.758-14.246 31.758-31.758c0-17.511-14.246-31.759-31.758-31.759s-31.759 14.248-31.759 31.759zm48.534 0c0 9.249-7.525 16.774-16.774 16.774-9.25 0-16.775-7.525-16.775-16.774 0-9.25 7.525-16.775 16.775-16.775 9.248 0 16.774 7.525 16.774 16.775z"/><path d="m364.237 291.328c0-4.138-3.354-7.492-7.492-7.492h-37.623c-4.138 0-7.492 3.354-7.492 7.492s3.354 7.492 7.492 7.492h37.623c4.138 0 7.492-3.354 7.492-7.492z"/><path d="m380.733 108.401c0-4.138-3.354-7.492-7.492-7.492h-54.118c-4.138 0-7.492 3.354-7.492 7.492s3.354 7.492 7.492 7.492h54.118c4.138 0 7.492-3.354 7.492-7.492z"/><path d="m319.123 140.071h19.302c4.138 0 7.492-3.354 7.492-7.492s-3.354-7.492-7.492-7.492h-19.302c-4.138 0-7.492 3.354-7.492 7.492s3.354 7.492 7.492 7.492z"/><path d="m273.256 175.52c0 4.138 3.354 7.492 7.492 7.492h58.949c4.138 0 7.492-3.354 7.492-7.492s-3.354-7.492-7.492-7.492h-58.949c-4.138 0-7.492 3.354-7.492 7.492z"/><path d="m280.748 207.842h58.949c4.138 0 7.492-3.354 7.492-7.492s-3.354-7.492-7.492-7.492h-58.949c-4.138 0-7.492 3.354-7.492 7.492 0 4.139 3.354 7.492 7.492 7.492z"/><path d="m280.748 233.294h37.623c4.138 0 7.492-3.354 7.492-7.492s-3.354-7.492-7.492-7.492h-37.623c-4.138 0-7.492 3.354-7.492 7.492s3.354 7.492 7.492 7.492z"/><path d="m233.531 414.551c17.512 0 31.759-14.247 31.759-31.759 0-17.511-14.247-31.759-31.759-31.759-17.511 0-31.758 14.247-31.758 31.759s14.247 31.759 31.758 31.759zm0-48.533c9.25 0 16.775 7.525 16.775 16.775s-7.525 16.775-16.775 16.775c-9.249 0-16.774-7.525-16.774-16.775s7.525-16.775 16.774-16.775z"/><path d="m318.371 363.826h-37.623c-4.138 0-7.492 3.354-7.492 7.492s3.354 7.492 7.492 7.492h37.623c4.138 0 7.492-3.354 7.492-7.492s-3.354-7.492-7.492-7.492z"/><path d="m318.371 388.656h-37.623c-4.138 0-7.492 3.354-7.492 7.492s3.354 7.492 7.492 7.492h37.623c4.138 0 7.492-3.354 7.492-7.492s-3.354-7.492-7.492-7.492z"/><circle cx="120.997" cy="70.757" r="8.99"/><circle cx="152.461" cy="70.757" r="8.99"/><circle cx="183.926" cy="70.757" r="8.99"/></svg>