<svg xmlns="http://www.w3.org/2000/svg" width="23.714" height="21.89" viewBox="0 0 23.714 21.89">
  <path id="Icon_ionic-ios-trophy" data-name="Icon ionic-ios-trophy" d="M26.291,6.552H22.529V5.412a.915.915,0,0,0-.912-.912H8.847a.915.915,0,0,0-.912.912v1.14H4.173a.8.8,0,0,0-.8.8h0A9.046,9.046,0,0,0,4.663,12.5a4.642,4.642,0,0,0,3.209,2.3.468.468,0,0,1,.353.279,6.2,6.2,0,0,0,2.913,2.976,10.992,10.992,0,0,0,2.947,1.231.458.458,0,0,1,.353.445v4.606a.457.457,0,0,1-.456.456h-3.74a.817.817,0,0,0-.821.758.8.8,0,0,0,.8.838h10.01a.817.817,0,0,0,.821-.758.8.8,0,0,0-.8-.838H16.492a.457.457,0,0,1-.456-.456v-4.6a.458.458,0,0,1,.353-.445,11.26,11.26,0,0,0,2.947-1.231,6.2,6.2,0,0,0,2.913-2.976.457.457,0,0,1,.353-.279,4.642,4.642,0,0,0,3.209-2.3A9.173,9.173,0,0,0,27.089,7.35h0A.8.8,0,0,0,26.291,6.552Zm-18.356,6.3a.229.229,0,0,1-.308.217,3.322,3.322,0,0,1-1.744-1.647,6,6,0,0,1-.861-2.782.457.457,0,0,1,.456-.5h2a.457.457,0,0,1,.456.456Zm16.646-1.431a3.322,3.322,0,0,1-1.744,1.647.229.229,0,0,1-.308-.217V8.6a.457.457,0,0,1,.456-.456h2a.457.457,0,0,1,.456.5A6.072,6.072,0,0,1,24.581,11.426Z" transform="translate(-3.375 -4.5)" opacity="0.8"/>
</svg>
