<svg xmlns="http://www.w3.org/2000/svg" width="19.093" height="21.82" viewBox="0 0 19.093 21.82">
  <path id="Icon_awesome-book" data-name="Icon awesome-book" d="M19.093,15.342V1.023A1.02,1.02,0,0,0,18.07,0H4.091A4.092,4.092,0,0,0,0,4.091V17.729A4.092,4.092,0,0,0,4.091,21.82H18.07A1.02,1.02,0,0,0,19.093,20.8v-.682a1.031,1.031,0,0,0-.379-.8,9.5,9.5,0,0,1,0-3.184A1.016,1.016,0,0,0,19.093,15.342ZM5.455,5.711a.256.256,0,0,1,.256-.256h9.035A.256.256,0,0,1,15,5.711v.852a.256.256,0,0,1-.256.256H5.711a.256.256,0,0,1-.256-.256Zm0,2.727a.256.256,0,0,1,.256-.256h9.035A.256.256,0,0,1,15,8.438v.852a.256.256,0,0,1-.256.256H5.711a.256.256,0,0,1-.256-.256Zm10.8,10.654H4.091a1.364,1.364,0,0,1,0-2.728H16.254A15.343,15.343,0,0,0,16.254,19.093Z" opacity="0.8"/>
</svg>
