<svg xmlns="http://www.w3.org/2000/svg" width="28.109" height="25.3" viewBox="0 0 28.109 25.3">
    <defs>
        <style>
            .cls-1{fill:#9b1773}
        </style>
    </defs>
    <g id="Page-1">
        <g id="_037---Book-Stack" data-name="037---Book-Stack">
            <path id="Shape" d="M25.914 15.93h.323a1.406 1.406 0 1 0 0-2.811h-.461c-.133-.047-.476-.614-.476-1.64a2.2 2.2 0 0 1 .469-1.64h.469a1.406 1.406 0 1 0 0-2.811H20.6A3.98 3.98 0 0 0 18.038 0H5.154a1.406 1.406 0 1 0 0 2.811h.183a1.891 1.891 0 0 1 .285 1.171 1.891 1.891 0 0 1-.285 1.171h-.183a1.406 1.406 0 1 0 0 2.811h.324a4.435 4.435 0 0 0 0 7.028H1.406A1.406 1.406 0 0 0 0 16.4a1.369 1.369 0 0 0 .409.988 1.379 1.379 0 0 0 1 .418h.515a6.5 6.5 0 0 1 .422 2.343 6.5 6.5 0 0 1-.422 2.343h-.518A1.406 1.406 0 0 0 0 23.894a1.369 1.369 0 0 0 .409.988 1.379 1.379 0 0 0 1 .418h21.403a5.236 5.236 0 0 0 5.288-4.783 5.146 5.146 0 0 0-1.5-4.017 5.2 5.2 0 0 0-.686-.57zm.792-1.406a.469.469 0 0 1-.469.469H15.461v-.937h10.776a.469.469 0 0 1 .468.468zm-12.182 6.091l-1.924-.963a.943.943 0 0 0-.839 0l-1.926.962v-8.433h4.685v8.433zm10.139-7.5h-9.2v-.937a.937.937 0 0 0-.937-.937H9.839a.937.937 0 0 0-.937.937v.937H8.2a1.64 1.64 0 0 1 0-3.28h16.463a4.634 4.634 0 0 0 0 3.284zM6.382 2.811h11.656a1.171 1.171 0 1 1 0 2.343H6.382a3.628 3.628 0 0 0 .177-1.171 3.628 3.628 0 0 0-.177-1.171zM5.154 7.028a.469.469 0 1 1 0-.937h12.884a2.108 2.108 0 1 0 0-4.217H5.154a.469.469 0 1 1 0-.937h12.884a3.045 3.045 0 1 1 0 6.091zm-.469 4.451A3.518 3.518 0 0 1 8.2 7.965h18.037a.469.469 0 1 1 0 .937H8.2a2.577 2.577 0 0 0 0 5.154h.7v.937h-.7a3.518 3.518 0 0 1-3.514-3.514zm-3.614 5.244a.452.452 0 0 1-.134-.323.469.469 0 0 1 .469-.469H8.9v.937H1.4a.458.458 0 0 1-.334-.143zM2.925 17.8H8.9v2.811a.937.937 0 0 0 1.359.838l1.921-.962 1.923.962a.937.937 0 0 0 1.356-.838V17.8h7.5a2.348 2.348 0 0 1 2.341 2.282 2.269 2.269 0 0 1-.667 1.644 2.525 2.525 0 0 1-1.793.762H2.925a7.652 7.652 0 0 0 .355-2.343 7.652 7.652 0 0 0-.355-2.345zm24.236 2.648a4.3 4.3 0 0 1-4.349 3.911H1.406a.458.458 0 0 1-.334-.143.452.452 0 0 1-.134-.325.469.469 0 0 1 .469-.469H22.84a3.467 3.467 0 0 0 2.46-1.041 3.2 3.2 0 0 0 .933-2.322 3.286 3.286 0 0 0-3.28-3.192h-7.5v-.937h7.5a4.217 4.217 0 0 1 4.2 4.522z" class="cls-1"/>
        </g>
    </g>
</svg>
