<svg xmlns="http://www.w3.org/2000/svg" width="29.534" height="25.958" viewBox="0 0 29.534 25.958">
    <defs>
        <style>
            .cls-1{fill:#1e76a9}
        </style>
    </defs>
    <path id="portfolio_2_" d="M28.674 3.461h-7.85V2.6a2.6 2.6 0 0 0-2.6-2.6h-6.918a2.6 2.6 0 0 0-2.6 2.6v.865H.865A.867.867 0 0 0 0 4.326v19.036a2.6 2.6 0 0 0 2.6 2.6h24.338a2.6 2.6 0 0 0 2.6-2.6V4.341a.84.84 0 0 0-.86-.88zM10.441 2.6a.866.866 0 0 1 .865-.865h6.922a.866.866 0 0 1 .865.865v.865h-8.652zm17.028 2.6l-2.687 8.061a.864.864 0 0 1-.821.592h-4.867v-.865a.865.865 0 0 0-.865-.865h-6.923a.865.865 0 0 0-.865.865v.865H5.574a.864.864 0 0 1-.821-.592L2.066 5.192zm-10.106 8.644v1.731h-5.192v-1.731zM27.8 23.362a.866.866 0 0 1-.865.865H2.6a.866.866 0 0 1-.865-.865V9.658L3.111 13.8a2.592 2.592 0 0 0 2.462 1.775h4.867v.865a.865.865 0 0 0 .865.865h6.922a.865.865 0 0 0 .865-.865v-.865h4.867a2.592 2.592 0 0 0 2.464-1.775L27.8 9.658zm0 0" class="cls-1" data-name="portfolio (2)"/>
</svg>
