<svg xmlns="http://www.w3.org/2000/svg" width="29.838" height="31.614" viewBox="0 0 29.838 31.614">
    <defs>
        <style>
            .cls-1{fill:#38a22c}
        </style>
    </defs>
    <g id="employee" transform="translate(-25.625)">
        <g id="Group_1272" data-name="Group 1272" transform="translate(25.625)">
            <g id="Group_1271" data-name="Group 1271">
                <path id="Path_1994" d="M137.37 102.4h-2.117a3.286 3.286 0 0 0-3.358 3.2v1.709a.707.707 0 0 1-.081.326l-.073.138a1.723 1.723 0 0 0-.2.8v1.189a1.729 1.729 0 0 0 .55 1.262.738.738 0 0 1 .212.386 5.333 5.333 0 0 0 1 2.053v.866l-3.811 2.176a2.858 2.858 0 0 0-1.464 2.458v.824a1.082 1.082 0 0 0 1.105 1.054H143.5a1.082 1.082 0 0 0 1.105-1.054v-.824a2.859 2.859 0 0 0-1.464-2.458l-3.81-2.175v-.866a5.323 5.323 0 0 0 1-2.054.742.742 0 0 1 .213-.385 1.728 1.728 0 0 0 .55-1.262v-1.189a1.719 1.719 0 0 0-.2-.8l-.072-.137a.7.7 0 0 1-.081-.327v-1.7a3.294 3.294 0 0 0-3.371-3.21zm-3.059 17.386h-5.179v-.824a1.785 1.785 0 0 1 .927-1.554l2.015-1.151 1.432 1.074a1.735 1.735 0 0 0 1.052.35c.044 0 .088-.008.132-.012l.4.577zm.647-3.307a.617.617 0 0 1-.765.026l-1.1-.827.869-.5c.025-.014.045-.034.068-.05l1.387.935zm.582 3.307l.536-1.054h.422l.569 1.054zm.18-2.544l.562-.508.562.508-.305.437h-.514zm6.851.166a1.785 1.785 0 0 1 .927 1.554v.824h-5.188l-.835-1.546.4-.57c.045 0 .089.012.134.012a1.73 1.73 0 0 0 1.048-.348l1.464-1.1zm-3.068-1.751l-1.135.851a.616.616 0 0 1-.761-.028l-.456-.412 1.421-.958a.859.859 0 0 0 .094.069zm.479-5.895a.708.708 0 0 1-.225.516 1.776 1.776 0 0 0-.515.921 4.38 4.38 0 0 1-.844 1.693.843.843 0 0 0-.174.506v.667a.547.547 0 0 0-.051.021l-1.891 1.276-1.876-1.265v-.7a.842.842 0 0 0-.175-.507 4.384 4.384 0 0 1-.843-1.692 1.778 1.778 0 0 0-.515-.923.707.707 0 0 1-.225-.516v-1.189a.705.705 0 0 1 .081-.326l.073-.138a1.728 1.728 0 0 0 .2-.8V105.6a2.2 2.2 0 0 1 2.253-2.148h2.117a2.212 2.212 0 0 1 2.26 2.155v1.7a1.726 1.726 0 0 0 .2.8l.072.138a.7.7 0 0 1 .081.326v1.189z" class="cls-1" data-name="Path 1994" transform="translate(-121.396 -96.078)"/>
                <path id="Path_1995" d="M39.277 54.016a.572.572 0 0 0-.778 0 .51.51 0 0 0 0 .742l.643.613a13.446 13.446 0 0 1-12.4-12.758 13.362 13.362 0 0 1 11.676-13.359.531.531 0 0 0 .462-.6.55.55 0 0 0-.631-.44 14.422 14.422 0 0 0-12.615 14.543A14.54 14.54 0 0 0 39.268 56.44l-.773.737a.51.51 0 0 0-.147.511.54.54 0 0 0 .393.374.571.571 0 0 0 .536-.14l1.657-1.58a.511.511 0 0 0 0-.746z" class="cls-1" data-name="Path 1995" transform="translate(-25.625 -26.465)"/>
                <path id="Path_1996" d="M262.97 15.319a14.54 14.54 0 0 0-13.635-13.683l.773-.736a.509.509 0 0 0 0-.745.572.572 0 0 0-.781 0l-1.657 1.58a.511.511 0 0 0 0 .746l1.657 1.58a.571.571 0 0 0 .536.14.54.54 0 0 0 .393-.374.511.511 0 0 0-.147-.511l-.643-.613a13.446 13.446 0 0 1 12.4 12.758 13.362 13.362 0 0 1-11.683 13.362.533.533 0 0 0-.467.561.542.542 0 0 0 .55.487.6.6 0 0 0 .085-.006 14.422 14.422 0 0 0 12.619-14.546z" class="cls-1" data-name="Path 1996" transform="translate(-233.141)"/>
            </g>
        </g>
    </g>
</svg>
