<svg xmlns="http://www.w3.org/2000/svg" width="16.005" height="16" viewBox="0 0 16.005 16">
    <g id="prefix__calendar_3_" data-name="calendar (3)" style="opacity:.5">
        <path id="prefix__Path_3856" d="M13.327 1.814c0-.009-.008-.017-.01-.025a.245.245 0 0 0-.018-.043.256.256 0 0 0-.03-.045.272.272 0 0 0-.03-.032.242.242 0 0 0-.039-.029.2.2 0 0 0-.1-.031l-.034-.009h-1.344c-.069-.928-.5-1.6-1.055-1.6s-.988.671-1.056 1.6h-.556C8.986.671 8.556 0 8 0s-.987.671-1.056 1.6h-.556C6.32.671 5.889 0 5.333 0s-.987.671-1.056 1.6h-.555C3.653.671 3.222 0 2.666 0S1.68.671 1.611 1.6H.266A.267.267 0 0 0 0 1.867v13.866A.267.267 0 0 0 .267 16h12.8a.267.267 0 0 0 .267-.267v-.8h2.4a.267.267 0 0 0 .261-.32zM10.666.533c.193 0 .461.408.52 1.066h-1.04c.054-.657.327-1.066.52-1.066zM8 .533c.193 0 .461.408.52 1.066H7.48C7.538.942 7.8.533 8 .533zm-2.667 0c.193 0 .461.408.52 1.066H4.814c.058-.657.327-1.066.519-1.066zm-2.667 0c.193 0 .461.408.52 1.066H2.147C2.2.942 2.474.533 2.666.533zM.533 2.134h1.078c.069.928.5 1.6 1.055 1.6a.267.267 0 1 0 0-.533c-.193 0-.461-.408-.52-1.066h2.131c.07.928.5 1.6 1.055 1.6a.267.267 0 1 0 0-.533c-.193 0-.461-.408-.52-1.066h2.132c.07.928.5 1.6 1.055 1.6A.268.268 0 1 0 8 3.2c-.193 0-.461-.408-.52-1.066h2.131c.07.928.5 1.6 1.055 1.6a.267.267 0 1 0 0-.533c-.193 0-.461-.408-.52-1.066H12.8V4.8H.533zM12.8 15.466H.533V5.333H12.8zm.533-1.066V4.453L15.4 14.4zm0 0" data-name="Path 3856"/>
        <path id="prefix__Path_3857" d="M5.865 9.6H4.8a.267.267 0 0 0-.267.267v1.066a.267.267 0 0 0 .267.267h1.065a.267.267 0 0 0 .267-.267v-1.07a.267.267 0 0 0-.267-.263zM5.6 10.662h-.535v-.533H5.6zm0 0" data-name="Path 3857" transform="translate(.001 .003)"/>
        <path id="prefix__Path_3858" d="M8.53 9.6H7.464a.267.267 0 0 0-.267.267v1.066a.267.267 0 0 0 .267.267H8.53a.267.267 0 0 0 .267-.267v-1.07A.267.267 0 0 0 8.53 9.6zm-.267 1.066H7.73v-.533h.533zm0 0" data-name="Path 3858" transform="translate(.002 .003)"/>
        <path id="prefix__Path_3859" d="M3.2 9.6H2.133a.267.267 0 0 0-.267.267v1.066a.267.267 0 0 0 .267.267H3.2a.267.267 0 0 0 .267-.267v-1.07A.267.267 0 0 0 3.2 9.6zm-.267 1.066H2.4v-.533h.533zm0 0" data-name="Path 3859" transform="translate(.001 .003)"/>
        <path id="prefix__Path_3860" d="M5.865 12.262H4.8a.267.267 0 0 0-.267.267V13.6a.267.267 0 0 0 .267.267h1.065a.267.267 0 0 0 .267-.267v-1.071a.267.267 0 0 0-.267-.267zM5.6 13.328h-.535V12.8H5.6zm0 0" data-name="Path 3860" transform="translate(.001 .004)"/>
        <path id="prefix__Path_3861" d="M8.53 12.262H7.464a.267.267 0 0 0-.267.267V13.6a.267.267 0 0 0 .267.267H8.53a.267.267 0 0 0 .27-.267v-1.071a.267.267 0 0 0-.267-.267zm-.267 1.066H7.73V12.8h.533zm0 0" data-name="Path 3861" transform="translate(.002 .004)"/>
        <path id="prefix__Path_3862" d="M3.2 12.262H2.133a.267.267 0 0 0-.267.267V13.6a.267.267 0 0 0 .267.267H3.2a.267.267 0 0 0 .267-.267v-1.071a.267.267 0 0 0-.267-.267zm-.267 1.066H2.4V12.8h.533zm0 0" data-name="Path 3862" transform="translate(.001 .004)"/>
        <path id="prefix__Path_3863" d="M5.865 6.931H4.8a.267.267 0 0 0-.267.267v1.066a.267.267 0 0 0 .267.267h1.065a.267.267 0 0 0 .267-.267V7.2a.267.267 0 0 0-.267-.267zM5.6 8h-.535v-.536H5.6zm0 0" data-name="Path 3863" transform="translate(.001 .002)"/>
        <path id="prefix__Path_3864" d="M8.53 6.931H7.464A.267.267 0 0 0 7.2 7.2v1.064a.267.267 0 0 0 .267.267H8.53a.267.267 0 0 0 .27-.267V7.2a.267.267 0 0 0-.267-.267zM8.263 8H7.73v-.536h.533zm0 0" data-name="Path 3864" transform="translate(.002 .002)"/>
        <path id="prefix__Path_3865" d="M11.2 9.6h-1.07a.267.267 0 0 0-.267.267v1.066a.267.267 0 0 0 .267.267h1.07a.267.267 0 0 0 .267-.267v-1.07A.267.267 0 0 0 11.2 9.6zm-.267 1.066H10.4v-.533h.533zm0 0" data-name="Path 3865" transform="translate(.003 .003)"/>
        <path id="prefix__Path_3866" d="M11.2 12.262h-1.07a.267.267 0 0 0-.267.267V13.6a.267.267 0 0 0 .267.267h1.07a.267.267 0 0 0 .267-.267v-1.071a.267.267 0 0 0-.267-.267zm-.267 1.066H10.4V12.8h.533zm0 0" data-name="Path 3866" transform="translate(.003 .004)"/>
        <path id="prefix__Path_3867" d="M11.2 6.931h-1.07a.267.267 0 0 0-.267.267v1.066a.267.267 0 0 0 .267.267h1.07a.267.267 0 0 0 .267-.267V7.2a.267.267 0 0 0-.267-.267zM10.929 8H10.4v-.536h.533zm0 0" data-name="Path 3867" transform="translate(.003 .002)"/>
        <path id="prefix__Path_3868" d="M3.2 6.931H2.133a.267.267 0 0 0-.267.267v1.066a.267.267 0 0 0 .267.267H3.2a.267.267 0 0 0 .267-.267V7.2a.267.267 0 0 0-.267-.269zM2.932 8H2.4v-.536h.533zm0 0" data-name="Path 3868" transform="translate(.001 .002)"/>
    </g>
</svg>
