<svg xmlns="http://www.w3.org/2000/svg" width="171.718" height="162.836" viewBox="0 0 171.718 162.836">
    <defs>
        <style>
            .prefix__cls-1{fill:#f4b12a}.prefix__cls-2{fill:#efbf6c}.prefix__cls-3{fill:#d38d1c}
        </style>
    </defs>
    <g id="prefix__coin" transform="translate(0 -.5)">
        <path id="prefix__Path_2920" d="M38.489 96.5C17.172 96.5 0 101.829 0 108.343v103.623c0 6.513 17.172 11.843 38.489 11.843s38.489-5.329 38.489-11.843V108.343C76.977 101.829 59.805 96.5 38.489 96.5zm0 0" class="prefix__cls-1" data-name="Path 2920" transform="translate(0 -60.472)"/>
        <path id="prefix__Path_2921" d="M278.489 256.5c-21.317 0-38.489 5.329-38.489 11.843v44.41c0 6.513 17.172 11.843 38.489 11.843s38.489-5.329 38.489-11.843v-44.41c-.001-6.514-17.173-11.843-38.489-11.843zm0 0" class="prefix__cls-1" data-name="Path 2921" transform="translate(-151.18 -161.259)"/>
        <path id="prefix__Path_2922" d="M316.977 268.343c0-6.54-17.233-11.843-38.489-11.843S240 261.8 240 268.343s17.233 11.843 38.489 11.843 38.488-5.304 38.488-11.843zm0 0" class="prefix__cls-2" data-name="Path 2922" transform="translate(-151.18 -161.259)"/>
        <path id="prefix__Path_2923" d="M332.977 188.343c0-6.54-17.233-11.843-38.489-11.843S256 181.8 256 188.343s17.233 11.843 38.489 11.843 38.488-5.304 38.488-11.843zm0 0" class="prefix__cls-2" data-name="Path 2923" transform="translate(-161.259 -110.865)"/>
        <path id="prefix__Path_2924" d="M294.489 220.343c-21.317 0-38.489-5.329-38.489-11.843v14.8c0 6.513 17.172 11.843 38.489 11.843s38.489-5.329 38.489-11.843v-14.8c-.001 6.513-17.173 11.843-38.489 11.843zm0 0" class="prefix__cls-1" data-name="Path 2924" transform="translate(-161.259 -131.023)"/>
        <path id="prefix__Path_2925" d="M332.977 38.989A38.489 38.489 0 1 1 294.489.5a38.489 38.489 0 0 1 38.489 38.489zm0 0" class="prefix__cls-1" data-name="Path 2925" transform="translate(-161.259)"/>
        <g id="prefix__Group_1657" data-name="Group 1657" transform="translate(0 12.343)">
            <path id="prefix__Path_2927" d="M307.209 332.228c-5.627 2.369-14.509 4.145-28.718 4.145-14.507 0-23.685-1.776-29.311-4.441A27.827 27.827 0 0 1 240 326.9v6.513c7.106 5.921 20.132 8.882 38.489 8.882s31.383-2.961 38.489-8.882V327.2a38.142 38.142 0 0 1-9.768 5.031zm0 0" class="prefix__cls-3" data-name="Path 2927" transform="translate(-151.18 -217.946)"/>
            <path id="prefix__Path_2928" d="M307.209 372.228c-5.627 2.369-14.509 4.145-28.718 4.145-14.507 0-23.685-1.776-29.311-4.441A27.826 27.826 0 0 1 240 366.9v6.513c7.106 5.921 20.132 8.882 38.489 8.882s31.383-2.961 38.489-8.882V367.2a38.139 38.139 0 0 1-9.769 5.028zm0 0" class="prefix__cls-3" data-name="Path 2928" transform="translate(-151.18 -243.143)"/>
            <path id="prefix__Path_2929" d="M67.209 172.228c-5.627 2.369-14.509 4.145-28.718 4.145-14.507 0-23.685-1.776-29.311-4.441A23.357 23.357 0 0 1 0 166.9v6.513c7.106 5.921 20.133 8.882 38.489 8.882s31.383-2.961 38.489-8.882V167.2a38.141 38.141 0 0 1-9.77 5.033zm0 0" class="prefix__cls-3" data-name="Path 2929" transform="translate(0 -117.159)"/>
            <path id="prefix__Path_2930" d="M67.209 212.228c-5.627 2.369-14.509 4.145-28.718 4.145-14.507 0-23.685-1.776-29.311-4.441A23.355 23.355 0 0 1 0 206.9v6.513c7.106 5.921 20.133 8.882 38.489 8.882s31.383-2.961 38.489-8.882V207.2a38.14 38.14 0 0 1-9.77 5.033zm0 0" class="prefix__cls-3" data-name="Path 2930" transform="translate(0 -142.356)"/>
            <path id="prefix__Path_2931" d="M67.209 252.228c-5.627 2.369-14.509 4.145-28.718 4.145-14.507 0-23.685-1.776-29.311-4.441A23.355 23.355 0 0 1 0 246.9v6.513c7.106 5.921 20.133 8.882 38.489 8.882s31.383-2.961 38.489-8.882V247.2a38.138 38.138 0 0 1-9.77 5.033zm0 0" class="prefix__cls-3" data-name="Path 2931" transform="translate(0 -167.553)"/>
            <path id="prefix__Path_2932" d="M67.209 292.228c-5.627 2.369-14.509 4.145-28.718 4.145-14.507 0-23.685-1.776-29.311-4.441A23.356 23.356 0 0 1 0 286.9v6.513c7.106 5.921 20.133 8.882 38.489 8.882s31.383-2.961 38.489-8.882V287.2a38.136 38.136 0 0 1-9.77 5.033zm0 0" class="prefix__cls-3" data-name="Path 2932" transform="translate(0 -192.749)"/>
            <path id="prefix__Path_2933" d="M67.209 332.228c-5.627 2.369-14.509 4.145-28.718 4.145-14.507 0-23.685-1.776-29.311-4.441A23.355 23.355 0 0 1 0 326.9v6.513c7.106 5.921 20.133 8.882 38.489 8.882s31.383-2.961 38.489-8.882V327.2a38.141 38.141 0 0 1-9.77 5.033zm0 0" class="prefix__cls-3" data-name="Path 2933" transform="translate(0 -217.946)"/>
            <path id="prefix__Path_2934" d="M67.209 372.228c-5.627 2.369-14.509 4.145-28.718 4.145-14.507 0-23.685-1.776-29.311-4.441A23.356 23.356 0 0 1 0 366.9v6.513c7.106 5.921 20.133 8.882 38.489 8.882s31.383-2.961 38.489-8.882V367.2a38.138 38.138 0 0 1-9.77 5.033zm0 0" class="prefix__cls-3" data-name="Path 2934" transform="translate(0 -243.143)"/>
            <g id="prefix__rupee-indian" transform="translate(47.253 8.994)">
                <path id="prefix__Path_362" d="M97.555 8.881a.866.866 0 0 0-.64-.25h-4.76a9.636 9.636 0 0 0-1.782-4.009h6.486a.856.856 0 0 0 .89-.89V.891a.856.856 0 0 0-.89-.891H73.7a.857.857 0 0 0-.891.891v3.7a.9.9 0 0 0 .891.891h4.037q5.874 0 7.461 3.146H73.7a.857.857 0 0 0-.891.891v2.84a.857.857 0 0 0 .891.89h11.885a5.44 5.44 0 0 1-2.854 3.48 12.563 12.563 0 0 1-5.916 1.2H73.7a.9.9 0 0 0-.891.891v3.536a.832.832 0 0 0 .25.613q5.345 5.679 13.864 15.9a.821.821 0 0 0 .7.334h5.429a.808.808 0 0 0 .807-.5.761.761 0 0 0-.111-.947Q85.62 27.789 80.97 22.834a14.119 14.119 0 0 0 7.684-3.062 10.408 10.408 0 0 0 3.591-6.515h4.677a.858.858 0 0 0 .891-.89V9.521a.867.867 0 0 0-.258-.64z" class="prefix__cls-3" data-name="Path 362"/>
            </g>
        </g>
        <path id="prefix__Path_2935" d="M76.977 108.343c0-6.54-17.233-11.843-38.489-11.843S0 101.8 0 108.343s17.233 11.843 38.489 11.843 38.488-5.304 38.488-11.843zm0 0" class="prefix__cls-2" data-name="Path 2935" transform="translate(0 -60.472)"/>
        <path id="prefix__Path_2936" d="M92.977 28.343c0-6.54-17.233-11.843-38.489-11.843S16 21.8 16 28.343s17.233 11.842 38.489 11.842 38.489-5.3 38.489-11.843zm0 0" class="prefix__cls-2" data-name="Path 2936" transform="translate(-10.079 -10.079)"/>
        <path id="prefix__Path_2937" d="M54.489 60.343C33.172 60.343 16 55.013 16 48.5v14.8c0 6.513 17.172 11.843 38.489 11.843S92.977 69.817 92.977 63.3V48.5c0 6.513-17.172 11.843-38.489 11.843zm0 0" class="prefix__cls-1" data-name="Path 2937" transform="translate(-10.079 -30.236)"/>
    </g>
</svg>
