<svg xmlns="http://www.w3.org/2000/svg" width="17.991" height="18" viewBox="0 0 17.991 18">
    <g id="prefix__future" transform="translate(-.013 -.001)" style="opacity:.5">
        <path id="prefix__Path_3850" d="M17.476 8.475a.528.528 0 0 0-.527.525A7.944 7.944 0 1 1 12.8 2.02l-.659.659a.528.528 0 0 0 .373.9h2.524a.528.528 0 0 0 .528-.528V.527a.528.528 0 0 0-.9-.373l-1.094 1.091A9 9 0 1 0 18 9a.528.528 0 0 0-.528-.528z" data-name="Path 3850"/>
        <path id="prefix__Path_3851" d="M11.051 7.67H8.188V4.808a.528.528 0 1 0-1.055 0V8.2a.528.528 0 0 0 .528.528h3.39a.528.528 0 1 0 0-1.055z" data-name="Path 3851" transform="translate(1.34 .805)"/>
    </g>
</svg>
