<svg xmlns="http://www.w3.org/2000/svg" width="353.175" height="300.315" viewBox="0 0 353.175 300.315">
    <defs>
        <style>
            .prefix__cls-1,.prefix__cls-2{fill:#38bd7f}.prefix__cls-2{opacity:.18}.prefix__cls-4{opacity:.1}.prefix__cls-5{fill:#3f3d56}.prefix__cls-7{fill:#656380}.prefix__cls-9{fill:#ffc0c6}.prefix__cls-10{fill:#575a88}.prefix__cls-12{fill:#444584}
        </style>
    </defs>
    <g id="prefix__Group_393" data-name="Group 393" transform="translate(.009)">
        <ellipse id="prefix__Ellipse_588" cx="114.583" cy="22.337" class="prefix__cls-1" data-name="Ellipse 588" rx="114.583" ry="22.337" transform="translate(3.296 255.64)"/>
        <path id="prefix__Path_2773" d="M199.269 687.368s-21.245-5.713-25.254-5.291 6.072-19.591 12.786-17.15 15.665 8.861 20.782-.207 7.988-13.948 14.222-13.46 14.867-3.9 21.1 0 10.606 8.712 19.21 8.5 16.761-19.727 23.463-11.917 14.735 14.957 21.035 12.357 13.489 1.307 19.243 5.7 15.827 2.441 19.661-.976 6.718-5.857 14.867-5.378 34.048 6.346 43.641 13.651S391.557 689.8 381 689.8s-12.468 2.929-21.581 7.322-23.987-2.445-34.519 4.878-23.992-3.9-42.193 0-14.387 9.27-24.939 5.378-6.718-5.378-22.068-6.347-32.129 2.441-33.568-3.9-11.02-7.81-16.778-9.762 13.915-.001 13.915-.001z" class="prefix__cls-1" data-name="Path 2773" transform="translate(-173.11 -414.768)"/>
        <path id="prefix__Path_2774" d="M862.434 551.6l.827-.53.244-.157a8.087 8.087 0 0 1-.827-15.76l-.041 3.334 1.832-3.628a8.091 8.091 0 0 1 8.459 7.706v.459a9.637 9.637 0 0 0 1.6-2.358c.778-1.733.79-3.69.732-6.072-.124-4.716-.327-9.469-.591-14.209a8.083 8.083 0 0 1-7.185-7.657 7.182 7.182 0 0 1 0-.732v-.182a4.39 4.39 0 0 1 .075-.7.976.976 0 0 1 0-.112c.029-.194.07-.385.116-.575a.987.987 0 0 1 .054-.211c.058-.207.12-.414.194-.612.025-.066.05-.128.078-.194.058-.149.12-.294.186-.439.033-.074.066-.153.1-.227l.029-.058a8.1 8.1 0 0 1 9.514-4.1l-.054 4.339 1.812-3.582a8.079 8.079 0 0 1 4.037 6.618 7.931 7.931 0 0 1-.178 2.089.86.86 0 0 1-.045.169c-.012.058-.054.215-.083.318s-.079.269-.124.414-.066.2-.1.3-.12.281-.182.414c-.037.079-.07.161-.108.244-.1.207-.215.414-.335.612-.041.07-.091.137-.132.2-.087.132-.173.269-.269.414a1.607 1.607 0 0 1-.182.232c-.062.074-.178.223-.273.331s-.136.149-.207.223-.2.207-.306.306l-.211.2-.368.306-.19.149c-.194.141-.389.273-.6.414l-.116.066a5.844 5.844 0 0 1-.525.285l-.232.1c-.145.066-.294.132-.447.186l-.265.1c-.149.054-.3.1-.451.141l-.273.07c-.165.041-.335.075-.5.1h-.033q.165 3 .3 6a8.083 8.083 0 0 1 11.227-3.512l-1.427 3.922 2.941-2.825a8.062 8.062 0 0 1 2.614 5.584 7.949 7.949 0 0 1-.207 2.23 8.087 8.087 0 0 1-14.892 2.2v.608a15.954 15.954 0 0 1-.927 7.032 14.29 14.29 0 0 1-2.978 4.021c-.736.749-1.5 1.473-2.275 2.176a8.13 8.13 0 0 1-2.925 2.428q-1.923 1.481-3.979 2.776l-.716.521c-.769.48-1.56.968-2.333 1.477l.414-.033a8.091 8.091 0 0 1 7.963 5.266l-5.055 4.136 5.564-1.291a8.1 8.1 0 0 1-11.582 7.289c.128.153.252.31.376.467l.736.918c3.309 4.17 4.207 8.124 2.577 11.14l-1.981-1.071c1.584-2.937-.8-6.693-2.362-8.687-.236-.3-.48-.6-.724-.906-2.1-2.61-4.484-5.572-4.426-9.2.037-5.469 5.352-8.762 9.621-11.41z" class="prefix__cls-2" data-name="Path 2774" transform="translate(-571.651 -331.655)"/>
        <path id="prefix__Path_2775" d="M715.445 504.891l-1.27-.794c-.124-.074-.244-.153-.364-.232a12.116 12.116 0 0 0 1.241-23.6l.062 4.993-2.742-5.431h-.033a12.116 12.116 0 0 0-12.666 11.541v.687a14.477 14.477 0 0 1-2.4-3.537c-1.162-2.59-1.183-5.522-1.092-9.1.182-7.065.488-14.184.885-21.279a12.108 12.108 0 0 0 10.755-11.463V445.3c-.025-.352-.058-.7-.112-1.042a.351.351 0 0 0-.029-.17c-.05-.29-.112-.575-.182-.86-.025-.107-.05-.211-.079-.318-.087-.31-.178-.612-.29-.914-.033-.1-.074-.194-.116-.294-.087-.223-.178-.438-.277-.654-.054-.116-.1-.228-.157-.339a.823.823 0 0 1-.041-.087A12.108 12.108 0 0 0 696.3 434a12.249 12.249 0 0 0-3.988.48l.079 6.5-2.709-5.378a12.042 12.042 0 0 0-5.791 13.055 1.2 1.2 0 0 0 .066.252c.037.161.078.319.12.476s.124.414.19.6.1.3.157.443c.079.215.174.414.269.633.054.124.1.248.161.368.153.31.318.616.5.914.062.108.132.207.2.306a6.09 6.09 0 0 0 .414.6c.087.12.182.232.273.348s.269.335.414.5l.306.335q.223.236.459.459l.319.294c.178.157.364.31.554.455.095.074.186.153.285.227.285.211.579.414.885.6.058.037.12.066.178.1.256.149.517.294.782.414l.352.157c.219.1.439.194.666.277.132.054.265.1.414.145.223.074.451.145.678.207l.414.108c.252.058.5.108.757.153h.05q-.257 4.492-.447 8.985a12.108 12.108 0 0 0-16.815-5.253l2.143 5.866-4.405-4.228a12.049 12.049 0 0 0-3.913 8.364 11.894 11.894 0 0 0 .306 3.338 12.108 12.108 0 0 0 22.277 3.3c0 .306 0 .612-.029.914-.078 3.148-.182 7.061 1.386 10.557a21.264 21.264 0 0 0 4.463 6.015q1.655 1.688 3.409 3.26a12.125 12.125 0 0 0 4.372 3.64q2.9 2.213 5.965 4.137l1.282.794c1.15.716 2.333 1.452 3.491 2.213-.2 0-.414-.041-.612-.05a12.112 12.112 0 0 0-11.927 7.88l7.566 6.159-8.327-1.928a12.128 12.128 0 0 0 17.375 10.909c-.19.232-.376.463-.563.7-.372.463-.745.922-1.1 1.378-4.927 6.242-6.3 12.161-3.859 16.679l2.97-1.6c-2.374-4.4 1.2-10.023 3.537-12.985.352-.451.716-.9 1.084-1.357 3.148-3.909 6.713-8.343 6.618-13.779-.206-8.152-8.161-13.07-14.556-17.045z" class="prefix__cls-2" data-name="Path 2775" transform="translate(-464.641 -290.455)"/>
        <path id="prefix__Path_2776" d="M606.093 717.734s-14.317-3.789-17.014-3.512 4.091-12.964 8.612-11.351 10.557 5.865 14-.136 5.378-9.233 9.584-8.91 10.015-2.585 14.213 0 7.144 5.766 12.943 5.63 11.289-13.059 15.81-7.892 9.928 9.9 14.172 8.182 9.1.865 12.968 3.773 10.66 1.617 13.237-.645 4.525-3.876 10.019-3.553 22.937 4.2 29.4 9.047-8.4 10.983-15.508 10.983-8.4 1.94-14.54 4.848-16.153-1.618-23.26 3.231-16.153-2.585-28.431 0-9.692 6.139-16.8 3.553-4.521-3.553-14.859-4.2-21.647 1.613-22.619-2.585-7.446-5.171-11.305-6.461 9.378-.002 9.378-.002z" class="prefix__cls-1" data-name="Path 2776" transform="translate(-416.656 -440.766)"/>
        <path id="prefix__Path_2777" d="M591.41 525.473l-5.543 16.989-.24.74-9.278 28.443-15.884 10.735-77.135-32.435 7.309-29.56.389-1.555 3.913-15.822.008-.037L518.693 500z" data-name="Path 2777" transform="translate(-283.402 -293.172)" style="fill:#f8ce6d"/>
        <path id="prefix__Path_2778" d="M607.869 525.473l-15.061 46.172-15.885 10.735 14.577-50.388-80.1-28.985.008-.037 23.744-2.97z" class="prefix__cls-4" data-name="Path 2778" transform="translate(-299.861 -293.172)"/>
        <path id="prefix__Path_2779" d="M551.428 511.922l-1.278-.778 12.815-1.344 54.9 19.409-1.547.811-54.16-19.1z" class="prefix__cls-4" data-name="Path 2779" transform="translate(-322.582 -298.918)"/>
        <path id="prefix__Path_2780" d="M596.228 569.152l-16.033 7.541-78.806-31.173-.389 1.555 78.876 30.725 16.112-7.909" class="prefix__cls-4" data-name="Path 2780" transform="translate(-293.763 -319.862)"/>
        <ellipse id="prefix__Ellipse_589" cx="2.759" cy="2.978" class="prefix__cls-5" data-name="Ellipse 589" rx="2.759" ry="2.978" transform="rotate(-72.75 255.92 -32.048)"/>
        <ellipse id="prefix__Ellipse_590" cx="2.759" cy="2.978" class="prefix__cls-5" data-name="Ellipse 590" rx="2.759" ry="2.978" transform="rotate(-72.75 308.905 -65.75)"/>
        <ellipse id="prefix__Ellipse_591" cx="2.759" cy="2.978" class="prefix__cls-5" data-name="Ellipse 591" rx="2.759" ry="2.978" transform="rotate(-72.75 326.088 -41.599)"/>
        <ellipse id="prefix__Ellipse_592" cx="2.759" cy="2.978" class="prefix__cls-5" data-name="Ellipse 592" rx="2.759" ry="2.978" transform="rotate(-72.75 273.577 -10.146)"/>
        <path id="prefix__Path_2781" d="M698.669 594.46c-.165.538-1.493 0-3.181-.53s-3-1.109-2.838-1.655 1.754-.827 3.442-.3 2.746 1.947 2.577 2.485z" class="prefix__cls-5" data-name="Path 2781" transform="translate(-477.736 -382.924)"/>
        <ellipse id="prefix__Ellipse_593" cx="1.018" cy="2.904" class="prefix__cls-5" data-name="Ellipse 593" rx="1.018" ry="2.904" transform="rotate(-72.75 253.557 -47.345)"/>
        <path id="prefix__Path_2782" d="M784.87 626.25c-.165.538-1.824.041-3.433-.459s-2.862-1.059-2.7-1.6 1.692-.827 3.309-.343 2.998 1.852 2.824 2.402z" class="prefix__cls-5" data-name="Path 2782" transform="translate(-528.213 -401.634)"/>
        <path id="prefix__Path_2783" d="M867.292 655.694c-.186.6-1.948.079-3.657-.451s-3.036-1.138-2.85-1.741 1.82-.972 3.529-.443 3.168 2.031 2.978 2.635z" class="prefix__cls-5" data-name="Path 2783" transform="translate(-576.318 -418.755)"/>
        <path id="prefix__Path_2784" d="M891.551 652.194c-.19.6-1.948.079-3.657-.451s-3.041-1.138-2.85-1.741 1.82-.972 3.528-.443 3.165 2.031 2.979 2.635z" class="prefix__cls-5" data-name="Path 2784" transform="translate(-590.542 -416.703)"/>
        <path id="prefix__Path_2785" d="M905.13 645.439c-.19.6-1.655.174-3.053-.265s-2.482-.968-2.312-1.572 1.58-1.051 2.991-.612 2.56 1.845 2.374 2.449z" class="prefix__cls-5" data-name="Path 2785" transform="translate(-599.174 -412.898)"/>
        <path id="prefix__Path_2786" d="M824.82 616.56c-.149.48-1.655.037-3.086-.414s-2.577-.956-2.424-1.435 1.518-.757 2.966-.31 2.689 1.675 2.544 2.159z" class="prefix__cls-5" data-name="Path 2786" transform="translate(-552.002 -396.106)"/>
        <ellipse id="prefix__Ellipse_594" cx="1.018" cy="2.507" class="prefix__cls-5" data-name="Ellipse 594" rx="1.018" ry="2.507" transform="rotate(-72.75 259.359 -55.574)"/>
        <path id="prefix__Path_2787" d="M767.089 654.091a2.614 2.614 0 0 0-1.2-3.044 2.663 2.663 0 0 0 .542-.964 13.066 13.066 0 0 1-4.407-6.444 6.821 6.821 0 0 1-5.638.568 2.615 2.615 0 0 0-1.67 1.706.742.742 0 0 1-.041.166l-.091.046a2.614 2.614 0 1 0-2.527 4.439 2.346 2.346 0 0 0 .414.091l.033.96 12.517 5.117-.083-.827a2.622 2.622 0 0 0 2.151-1.814z" class="prefix__cls-4" data-name="Path 2787" transform="translate(-511.5 -413.239)"/>
        <path id="prefix__Path_2788" d="M759.719 677.26a2.618 2.618 0 0 1-2.978 1.361 2.557 2.557 0 0 1-.277 1.067 2.614 2.614 0 0 1-3.512 1.162 2.661 2.661 0 0 1-.964-.827 2.614 2.614 0 0 1-4.881-1.692 2.66 2.66 0 0 1-.827-.256 2.614 2.614 0 0 1-1.162-3.508l.083-.153-.033-.1a2.584 2.584 0 0 1-1.088-.277 2.627 2.627 0 0 1 2.374-4.687 2.733 2.733 0 0 1 .352.211l.687-.666 12.592 5.034-.633.538a2.614 2.614 0 0 1 .267 2.793z" class="prefix__cls-4" data-name="Path 2788" transform="translate(-507.054 -428.193)"/>
        <path id="prefix__Path_2789" d="M760.851 652.718l-3.04 9.853a2.962 2.962 0 0 0 1.791 3.652 2.958 2.958 0 0 0 3.855-1.895l3.04-9.858a2.953 2.953 0 0 0-2.1-3.723 2.953 2.953 0 0 0-3.546 1.971z" class="prefix__cls-4" data-name="Path 2789" transform="translate(-515.871 -417.497)"/>
        <path id="prefix__Path_2790" d="M761.588 654.445l-2.759 8.836a2.648 2.648 0 0 0 1.609 3.272 2.651 2.651 0 0 0 3.454-1.7l2.742-8.84a2.655 2.655 0 0 0-1.886-3.359 2.656 2.656 0 0 0-3.16 1.791z" class="prefix__cls-5" data-name="Path 2790" transform="translate(-516.476 -418.623)"/>
        <path id="prefix__Path_2791" d="M653.733 728.668s-14.317-3.789-17.014-3.508 4.091-12.968 8.612-11.351 10.557 5.862 14-.141 5.378-9.229 9.584-8.906 10.015-2.585 14.213 0 7.144 5.762 12.943 5.626 11.289-13.059 15.814-7.888 9.928 9.9 14.172 8.182 9.1.865 12.964 3.773 10.664 1.613 13.237-.645 4.521-3.88 10.015-3.557 22.937 4.2 29.4 9.047-8.4 10.987-15.508 10.987-8.4 1.936-14.536 4.844-16.157-1.613-23.264 3.231-16.153-2.581-28.431 0-9.692 6.139-16.8 3.558-4.525-3.558-14.863-4.2-21.647 1.617-22.615-2.585-7.425-5.166-11.305-6.461 9.382-.006 9.382-.006z" class="prefix__cls-1" data-name="Path 2791" transform="translate(-444.589 -447.178)"/>
        <path id="prefix__Path_2792" d="M964.984 670.029c1.241-2.279-.166-5.076-1.77-7.107s-3.566-4.137-3.524-6.738c.062-3.723 4.013-5.92 7.169-7.9a34.74 34.74 0 0 0 6.437-5.175 9.349 9.349 0 0 0 1.977-2.647 10.734 10.734 0 0 0 .6-4.7q-.2-7.967-.79-15.922" data-name="Path 2792" transform="translate(-634.32 -399.427)" style="fill:none;stroke:#3f3d56;stroke-miterlimit:10;stroke-width:4px"/>
        <path id="prefix__Path_2793" d="M995 611.292a5.791 5.791 0 0 0-2.9-4.757l-1.3 2.573.041-3.115a5.872 5.872 0 0 0-1.915-.232 5.791 5.791 0 1 0 6.074 5.531z" class="prefix__cls-1" data-name="Path 2793" transform="translate(-648.237 -391.169)"/>
        <path id="prefix__Path_2794" d="M970.866 702.157a5.791 5.791 0 1 1 .281-4.674l-3.628 2.966 3.992-.922a5.788 5.788 0 0 1-.645 2.63z" class="prefix__cls-1" data-name="Path 2794" transform="translate(-634.46 -442.74)"/>
        <path id="prefix__Path_2795" d="M970.66 670.428a5.791 5.791 0 0 1-1.837-11.388l-.029 2.391 1.311-2.6a5.791 5.791 0 0 1 6.081 5.527 5.722 5.722 0 0 1-.248 1.981 5.791 5.791 0 0 1-5.278 4.089z" class="prefix__cls-1" data-name="Path 2795" transform="translate(-637.121 -422.284)"/>
        <path id="prefix__Path_2796" d="M1005 647.8a5.791 5.791 0 1 1 2.569-10.867l-1.026 2.813 2.11-2.027a5.79 5.79 0 0 1 1.874 4.008 5.705 5.705 0 0 1-.145 1.6A5.791 5.791 0 0 1 1005 647.8z" class="prefix__cls-1" data-name="Path 2796" transform="translate(-657.367 -409.031)"/>
        <path id="prefix__Path_2797" d="M994.253 617.345c-1.34.145-2.643.563-3.988.645a4.323 4.323 0 0 1-3.669-1.282 17.288 17.288 0 0 1-1.075-1.89 4.136 4.136 0 0 0-1.464-1.378 5.791 5.791 0 1 0 10.854 3.855q-.327.013-.658.05z" class="prefix__cls-4" data-name="Path 2797" transform="translate(-648.275 -395.675)"/>
        <path id="prefix__Path_2798" d="M1004.9 652.483a5.812 5.812 0 0 1-5.522-8.273 4.291 4.291 0 0 1 1.175 1.154 18.253 18.253 0 0 0 1.154 1.919 4.742 4.742 0 0 0 3.847 1.349c1.4-.062 2.755-.463 4.137-.592.194 0 .414-.029.587-.033a5.791 5.791 0 0 1-5.378 4.476z" class="prefix__cls-4" data-name="Path 2798" transform="translate(-657.271 -413.716)"/>
        <path id="prefix__Path_2799" d="M970.828 675.294a5.791 5.791 0 0 1-5.56-8.174 4.686 4.686 0 0 1 1.241 1.179c.451.637.732 1.373 1.241 1.961a5.393 5.393 0 0 0 4.112 1.44c1.485-.033 2.821-.385 4.248-.5a5.791 5.791 0 0 1-5.282 4.094z" class="prefix__cls-4" data-name="Path 2799" transform="translate(-637.289 -427.149)"/>
        <path id="prefix__Path_2800" d="M970.652 707.416a16.383 16.383 0 1 0-9.311-3.6 25.2 25.2 0 0 0 1.555 2.068 7.232 7.232 0 0 0 4.811 1.692 24.837 24.837 0 0 0 2.945-.161z" class="prefix__cls-4" data-name="Path 2800" transform="translate(-634.247 -448)"/>
        <path id="prefix__Path_2801" d="M951.32 731.311s4.583-.141 5.965-1.125 7.032-2.155 7.392-.579 6.883 7.859 1.713 7.884-12.021-.8-13.4-1.655-1.67-4.525-1.67-4.525z" class="prefix__cls-7" data-name="Path 2801" transform="translate(-629.413 -463.336)"/>
        <path id="prefix__Path_2802" d="M966.51 740.437c-5.175.041-12.021-.827-13.4-1.655-1.051-.641-1.468-2.933-1.609-3.992h-.153s.29 3.7 1.655 4.55 8.224 1.683 13.4 1.655c1.493 0 2.006-.542 1.981-1.328-.219.463-.773.757-1.874.77z" data-name="Path 2802" transform="translate(-629.431 -466.827)" style="opacity:.2"/>
        <path id="prefix__Path_2803" d="M367.15 243.085a1.866 1.866 0 0 1 .128-.885c.335-.6 1.212-.434 1.874-.265 2.664.67 5.469.062 8.207.219s5.828 1.526 6.379 4.215a19.959 19.959 0 0 0 5.059-5.2 6.233 6.233 0 0 0 1.32-3.806c-.149-1.969-1.8-3.442-3.33-4.691l-4.55-3.723a6.828 6.828 0 0 0-2.043-1.3 10.167 10.167 0 0 0-3.309-.19c-3.309 0-6.854-1.506-9.808 0a10.44 10.44 0 0 0-3.053 2.776l-4.07 4.819a2.536 2.536 0 0 0-.649 1.1 4.95 4.95 0 0 0 .29 1.758c.194 1.075-.273 2.221.087 3.256.591 1.717 2.672 1.961 3.946 2.941.476.368 1.22 1.609 1.783 1.6 1.007-.009 1.71-1.834 1.739-2.624z" class="prefix__cls-5" data-name="Path 2803" transform="translate(-282.273 -168.966)"/>
        <path id="prefix__Path_2804" d="M372.507 285.2a7.25 7.25 0 0 1-1.58 3.644 10.919 10.919 0 0 1-3.657 3.847 35.135 35.135 0 0 0 25.969 2.738c1.394-.414 3.04-1.274 2.958-2.726a14.828 14.828 0 0 1-4.774-1.915 10.419 10.419 0 0 1-3.5-4.964 55.76 55.76 0 0 1-1.58-5.969 1.126 1.126 0 0 0-.257-.554 1.142 1.142 0 0 0-.786-.207l-5.51-.1c-2.263 0-4.72-.054-6.821.906-2.617 1.2-.388 3.079-.462 5.3z" class="prefix__cls-9" data-name="Path 2804" transform="translate(-286.959 -199.577)"/>
        <path id="prefix__Path_2805" d="M372.507 285.2a7.25 7.25 0 0 1-1.58 3.644 10.919 10.919 0 0 1-3.657 3.847 35.135 35.135 0 0 0 25.969 2.738c1.394-.414 3.04-1.274 2.958-2.726a14.828 14.828 0 0 1-4.774-1.915 10.419 10.419 0 0 1-3.5-4.964 55.76 55.76 0 0 1-1.58-5.969 1.126 1.126 0 0 0-.257-.554 1.142 1.142 0 0 0-.786-.207l-5.51-.1c-2.263 0-4.72-.054-6.821.906-2.617 1.2-.388 3.079-.462 5.3z" class="prefix__cls-4" data-name="Path 2805" transform="translate(-286.959 -199.577)"/>
        <path id="prefix__Path_2806" d="M357.88 742.08c-1.357 2.068-3.131 3.818-4.621 5.791a11.686 11.686 0 0 0-2.751 6.742 1.068 1.068 0 0 0 .285.869 1.119 1.119 0 0 0 .567.178l5.75.736a9.656 9.656 0 0 0 2.647.091 9.394 9.394 0 0 0 2.714-.989 3.744 3.744 0 0 0 1.63-1.241c.277-.455.352-1.014.616-1.477.8-1.4 2.809-1.34 4.405-1.1.459-4.265-.72-8.517-1.89-12.645a1.294 1.294 0 0 0-1.067-1.109c-1.378-.451-4.707-2.217-5.866-1.39-.848.618-1.733 4.448-2.419 5.544z" class="prefix__cls-10" data-name="Path 2806" transform="translate(-277.126 -467.727)"/>
        <path id="prefix__Path_2807" d="M429.157 749.695c1.1-.517 2.283-1.183 3.475-.91 1.679.376 2.428 2.362 3.855 3.309a6.87 6.87 0 0 0 3.007.9 70.089 70.089 0 0 0 9.721.575c1.038 0 2.345-.248 2.6-1.241s-.7-1.783-1.551-2.3a45.509 45.509 0 0 0-5.742-2.982 11.509 11.509 0 0 1-2.738-1.456 10.268 10.268 0 0 1-2.742-4.65c-.509-1.373-.976-4.339-2.019-5.378-1.142-1.121-2.676-.376-4.108-.062-2.226.488-4.832.827-6.263 2.825-2.095 2.927-3.704 14.245 2.505 11.37z" class="prefix__cls-10" data-name="Path 2807" transform="translate(-320.681 -466.931)"/>
        <path id="prefix__Path_2808" d="M351.454 449.523a42.169 42.169 0 0 0-3.086 14.7 83.633 83.633 0 0 0 .716 11.272q.98 9.1 1.969 18.2a51.355 51.355 0 0 0 1.187 7.491c.716 2.751 1.878 5.377 2.709 8.083 2.573 8.43 1.841 17.522.141 26.172a13.073 13.073 0 0 0-.356 2.9 20.211 20.211 0 0 0 .976 4.265c2.226 8.625-2.9 18.2.447 26.474a1.312 1.312 0 0 0 .525.724 1.332 1.332 0 0 0 1.042-.045 14.1 14.1 0 0 0 2.726-1.291 16.633 16.633 0 0 0 6.759 4.894c1.961-.484 2.329-2.867 2.97-4.782a32.7 32.7 0 0 0 1.191-4.166 33.162 33.162 0 0 0 .434-5.245l1.7-59.711-.124 18.222a21.515 21.515 0 0 0 .277 4.41c.248 1.212.7 2.374.964 3.586a24.409 24.409 0 0 1 .306 5.3 155.859 155.859 0 0 0 2.875 31.363 32.36 32.36 0 0 0 3.148 9.8 1.08 1.08 0 0 0 .616.6c.36.079.691-.207.964-.459a10.544 10.544 0 0 1 12.108-1.315c-.364-1.754 1.307-3.793.112-5.125a12.219 12.219 0 0 0-1.241-.906 4.039 4.039 0 0 1-1.051-2.738 63.436 63.436 0 0 1 0-13.349c.583-5.547 1.895-11.14.927-16.629-.7-3.983-2.6-7.859-2.221-11.868.248-2.689 1.5-5.167 2.358-7.727 3.756-11.194 0-23.669 2.718-35.161.625-2.639 1.568-5.493.434-7.955l1.725-.525-3.582-8.178a15.368 15.368 0 0 0-2.9-4.873c-2.25-2.238-5.613-2.838-8.753-3.309l-25.539-3.984c-2.262-.364-5.314-1.216-6.171.885z" data-name="Path 2808" transform="translate(-275.868 -298.761)" style="fill:#3c354c"/>
        <circle id="prefix__Ellipse_595" cx="10.933" cy="10.933" r="10.933" class="prefix__cls-9" data-name="Ellipse 595" transform="translate(80.732 63.703)"/>
        <path id="prefix__Path_2809" d="M365.043 296.951a2.54 2.54 0 0 0-1.762-.31 3.01 3.01 0 0 0-.827.451l-5.171 3.624a8 8 0 0 0-1.957 1.713 6.377 6.377 0 0 0-.91 4.294c.256 3.359 1.613 6.528 2.35 9.812s.736 7.032-1.382 9.663a5.122 5.122 0 0 0-.9 1.278 3.726 3.726 0 0 0-.17 1.241 33.841 33.841 0 0 0 .1 4.716c.232 2.023.827 3.988 1.15 5.994.567 3.417.414 6.921.852 10.341a1.655 1.655 0 0 0 1.655 1.8 48.721 48.721 0 0 0 7.723.509c2.991 0 5.977-.165 8.964-.323l13.593-.716a1.34 1.34 0 0 0 1.51-1.386c1.191-5.717 2.391-11.537 1.828-17.345a63.164 63.164 0 0 0-2.482-11.012c-.827-2.937-1.622-6.019-1-9.009.414-1.973 1.419-3.8 1.679-5.791a6.83 6.83 0 0 0-1.87-5.75c-1.522-1.46-3.744-2.014-5.262-3.479a11.972 11.972 0 0 0-1.357-1.315 1.7 1.7 0 0 0-1.783-.207 2.3 2.3 0 0 0-.678.757c-1.324 2.01-3.309 5.324-6.1 4.8-3.023-.544-5.136-3.068-7.793-4.35z" class="prefix__cls-12" data-name="Path 2809" transform="translate(-279.339 -209.297)"/>
        <path id="prefix__Path_2810" d="M444.4 472.477a2.859 2.859 0 0 0-1.241 3.131 6.317 6.317 0 0 0 3.872-.538c.773-.376 1.737-.906 2.407-.36a2.041 2.041 0 0 1 .492.745 25.152 25.152 0 0 0 2.623 4.356 4.443 4.443 0 0 0 1.947-1.411 4.084 4.084 0 0 0 .509-1.51 40.1 40.1 0 0 0 .575-4.025 3.572 3.572 0 0 0-.567-2.8c-2.87-3.098-8.231.629-10.617 2.412z" class="prefix__cls-9" data-name="Path 2810" transform="translate(-331.376 -310.911)"/>
        <path id="prefix__Path_2811" d="M365.5 233.177a1.853 1.853 0 0 1 .128-.881c.335-.6 1.212-.414 1.874-.269 2.664.674 5.469.066 8.207.223s5.828 1.526 6.379 4.215a20.024 20.024 0 0 0 5.063-5.2 6.234 6.234 0 0 0 1.32-3.806c-.149-1.969-1.8-3.442-3.33-4.691l-4.55-3.723a6.818 6.818 0 0 0-2.043-1.295 10.167 10.167 0 0 0-3.309-.19c-3.309 0-6.854-1.506-9.808 0a10.58 10.58 0 0 0-3.057 2.78l-4.066 4.819a2.569 2.569 0 0 0-.654 1.1 4.846 4.846 0 0 0 .294 1.758c.19 1.076-.273 2.225.083 3.26.592 1.717 2.676 1.957 3.95 2.941.476.368 1.216 1.609 1.783 1.593 1.004-.011 1.707-1.84 1.736-2.634z" class="prefix__cls-5" data-name="Path 2811" transform="translate(-281.305 -163.161)"/>
        <path id="prefix__Path_2812" d="M441.728 309.548a8.48 8.48 0 0 1 6.718 1.241c3.127 2.143 4.414 6.056 5.5 9.688l2.437 8.145a49.979 49.979 0 0 1 2.391 10.892 49.763 49.763 0 0 1-.7 10.118c-.641 4.645.869 9.737.889 14.424 0 5.378-.033 11.082-2.771 15.719a2.623 2.623 0 0 0-1.655-1.766 7.711 7.711 0 0 0-2.461-.414l-7.28-.467a22.452 22.452 0 0 0 1.6-3.28c2.792-7.173 1.721-15.19.608-22.8a15.7 15.7 0 0 0-.414-2.151 20.51 20.51 0 0 1-.492-8.335 19.445 19.445 0 0 0 .128-3.8 4.244 4.244 0 0 0-.335-1.555 4.89 4.89 0 0 0-.8-1.109l-1.473-1.655a115.094 115.094 0 0 0-1.684-15 33.678 33.678 0 0 1-.206-7.895z" class="prefix__cls-12" data-name="Path 2812" transform="translate(-330.534 -217.356)"/>
        <path id="prefix__Path_2813" d="M373.56 324.471a35.136 35.136 0 0 1-13.171-22.309c-.24-1.568-.865-3.615-2.449-3.562a3.122 3.122 0 0 0-1.349.472l-5.741 3.078a2.163 2.163 0 0 0-1 .827c-.376.736.157 1.584.616 2.271 3.09 4.674 3.309 10.61 3.433 16.211a9.5 9.5 0 0 1-.749 4.844c-.649 1.171-1.779 2.031-2.374 3.235a8.516 8.516 0 0 0-.6 3.7c-.116 9-.232 18.015.24 27.008a8.058 8.058 0 0 0 .9 3.93 8.2 8.2 0 0 0 2.863 2.4l8.707 5.262a15.45 15.45 0 0 0 5.291 2.35 5.251 5.251 0 0 0 5.2-1.824c.534-.778.769-1.725 1.282-2.515a2.118 2.118 0 0 1 2.366-1.08 2.687 2.687 0 0 1 1.241 1.5 11.336 11.336 0 0 0 2.039 3.218 3.968 3.968 0 0 0 3.462 1.241 5.819 5.819 0 0 0 2.689-1.828 42.478 42.478 0 0 0 6.565-7.723A1.861 1.861 0 0 0 393.4 364a2.358 2.358 0 0 0-.641-1.076 10.623 10.623 0 0 1-1.859-4.824c-3.272-17.208 1.349-35.095-1.2-52.427a8.205 8.205 0 0 0-2.416-5.154 19.789 19.789 0 0 0-5.167-3.036 2.482 2.482 0 0 0-1.9-.306c-1.013.414-1.018 1.808-.943 2.9a37.942 37.942 0 0 1-.331 6.672l-.889 8.186a15.822 15.822 0 0 1-.695 3.682 14.826 14.826 0 0 1-3.799 5.854z" class="prefix__cls-10" data-name="Path 2813" transform="translate(-276.67 -210.178)"/>
        <path id="prefix__Path_2814" d="M243.8 136.254s-3.156 2.565-6.883-4.161-21.73-22.893-21.73-22.893-2.329-2.13 6.519-5.679S242.638 87 242.638 87s20.162 17.924 22.135 26.8-2.345 10.383-9.758 15.1-11.215 7.354-11.215 7.354z" data-name="Path 2814" transform="translate(-197.624 -87)" style="fill:#dedcd8"/>
        <path id="prefix__Path_2815" d="M352.31 281.487l-50.88-91.7 4.319-1.5 50.019 91.3a1.981 1.981 0 0 1-.827 2.705 1.973 1.973 0 0 1-2.631-.805z" class="prefix__cls-7" data-name="Path 2815" transform="translate(-248.355 -146.391)"/>
        <path id="prefix__Path_2816" d="M369.075 328.375c1.332-2.85-.033-6.139-.943-9.15a30.916 30.916 0 0 1-1.286-7.363 5.377 5.377 0 0 1 .257-2.329 2.068 2.068 0 0 1 1.77-1.353 8.492 8.492 0 0 1 1.328 6.048 20.374 20.374 0 0 1 2.341-.459 4.381 4.381 0 0 1 4.761 3.024c1.311 4.2 1.758 8.687-.07 12.617a23.979 23.979 0 0 1-2.023 3.33l-3.988 5.824a1.746 1.746 0 0 1-1.088.9c-.48.07-.98-.364-1.332-.765-1.212-1.369-3.363-3.363-3.127-5.249s2.606-3.4 3.4-5.075z" class="prefix__cls-9" data-name="Path 2816" transform="translate(-286.014 -216.687)"/>
        <path id="prefix__Path_2817" d="M331.93 314.39c-4.05-.459-8.687.637-10.8 4.137a13.764 13.764 0 0 0-1.514 5.936c-.261 2.875-.414 5.758-.558 8.637l-.782 15.156c-.1 1.812-.186 3.628-.219 5.44a12.257 12.257 0 0 0 .451 4.2 13.093 13.093 0 0 0 2.482 3.917c.989 1.208 2.225 2.453 3.677 2.1a4 4 0 0 0 1.576-.972l3.309-2.863a36.194 36.194 0 0 0 6.238-6.316c.827-1.167 1.506-2.428 2.341-3.586 2.457-3.409 6.238-5.994 7.533-9.99-1.241-.066-3.045-.476-3.615-1.576-.3-.583-.343-1.278-.678-1.837-.509-.852-1.655-1.315-1.824-2.292a55.736 55.736 0 0 0-8.571 8.923l1.055-4.1a2.605 2.605 0 0 1 .467-1.063 4.684 4.684 0 0 1 1.241-.782c1.287-.778 1.775-2.387 2.035-3.868a27.066 27.066 0 0 0-3.844-19.201z" class="prefix__cls-12" data-name="Path 2817" transform="translate(-258.085 -220.27)"/>
    </g>
</svg>
