<svg xmlns="http://www.w3.org/2000/svg" width="220.51" height="156.573" viewBox="0 0 220.51 156.573">
    <defs>
        <style>
            .prefix__cls-1,.prefix__cls-8{fill:#6c63ff}.prefix__cls-1,.prefix__cls-2{opacity:.1}.prefix__cls-5{fill:#444053}.prefix__cls-9{fill:#ffd037}
        </style>
    </defs>
    <g id="prefix__Group_479" data-name="Group 479" transform="translate(-60 -313)">
        <path id="prefix__Path_3478" d="M61.83 433.31c3.482 13.457 10.847 25.089 22.485 30.728 24.2 11.719 78.762 5.675 119.487-1.263 21.066-3.588 39.583-13.491 53.033-27.427z" class="prefix__cls-1" data-name="Path 3478" transform="translate(.545 -42.329)"/>
        <path id="prefix__Path_3479" d="M297.833 58.933h-22.345a1.756 1.756 0 1 1 0-3.494h3.865a1.756 1.756 0 1 1 0-3.494h-2.758a1.756 1.756 0 1 1 0-3.494h11.663a33.422 33.422 0 0 0-9.1-2.269C247.356 42.487 236 44.931 232 47.443a47.011 47.011 0 0 1-16.345 6.483c-19.621 3.662-56.315 8.068-89.573-1.4-16.53-4.717-28.816 3.243-36.179 16.55h211.811a28.753 28.753 0 0 0-2.624-10.564 2.039 2.039 0 0 1-1.257.421z" class="prefix__cls-1" data-name="Path 3479" transform="translate(-21.898 268.706)"/>
        <path id="prefix__Path_3480" d="M50.462 293.19a80.691 80.691 0 0 0 .866 23.478l196.185 6.493a83.233 83.233 0 0 0 13.631-18.807zm77.593 16.748h-3.863a1.756 1.756 0 1 1 0 3.494h-22.344a1.756 1.756 0 1 1 0-3.494h3.865a1.756 1.756 0 1 1 0-3.494h-2.76a1.756 1.756 0 1 1 0-3.494H125.3a1.756 1.756 0 1 1 0 3.494h2.758a1.756 1.756 0 1 1 0 3.494z" class="prefix__cls-1" data-name="Path 3480" transform="translate(10.019 69.703)"/>
        <path id="prefix__Path_3481" d="M271.836 168.5L57.65 173.211a71.063 71.063 0 0 0-5.13 20.012h215.563a76.024 76.024 0 0 0 3.111-12.755 54.6 54.6 0 0 0 .642-11.968zM96.007 183.945h-3.862a1.757 1.757 0 1 1 0 3.5H69.8a1.757 1.757 0 1 1 0-3.5h3.865a1.756 1.756 0 1 1 0-3.494H70.9a1.756 1.756 0 1 1 0-3.494h22.349a1.756 1.756 0 1 1 0 3.494h2.758a1.756 1.756 0 1 1 0 3.494z" class="prefix__cls-1" data-name="Path 3481" transform="translate(7.989 169.398)"/>
        <ellipse id="prefix__Ellipse_600" cx="89.601" cy="8.243" class="prefix__cls-1" data-name="Ellipse 600" rx="89.601" ry="8.243" transform="translate(79.667 453.087)"/>
        <path id="prefix__Path_3506" d="M888.6 800.146c-.583.022-3.9 0-3.9 0a1.777 1.777 0 0 1-.136-.16 4.9 4.9 0 0 1 4.036.16z" class="prefix__cls-2" data-name="Path 3506" transform="translate(-657.262 -335.21)"/>
        <path id="prefix__Path_3509" d="M888.905 495.23c-.014.07-.257 1.137-.625 2.782a7.1 7.1 0 0 1 .625-2.782z" class="prefix__cls-2" data-name="Path 3509" transform="translate(-660.236 -91.836)"/>
        <ellipse id="prefix__Ellipse_603" cx="1.804" cy="1.223" fill="#575a89" data-name="Ellipse 603" rx="1.804" ry="1.223" transform="translate(221.04 396.719)"/>
        <circle id="prefix__Ellipse_604" cx="61.841" cy="61.841" r="61.841" fill="#7a81ea" data-name="Ellipse 604" transform="translate(102.196 342.324)"/>
        <path id="prefix__Path_3527" d="M472.006 548.123c0 9.762-15.347.834-31.8.834s-33.1 8.56-33.1-1.2c0-5.567 5.3-13.309 12.914-18.931 5.733-4.238 12.773-7.273 19.845-7.273 7.273 0 14.4 3.286 20.08 7.8 7.176 5.68 12.061 13.321 12.061 18.77z" class="prefix__cls-5" data-name="Path 3527" transform="translate(-275.52 -112.88)"/>
        <path id="prefix__Path_3528" fill="#f6f8fb" d="M511.453 529.326c-8.746-1.317-24.564-2.923-39.923-.523 5.733-4.238 12.773-7.273 19.845-7.273 7.271 0 14.395 3.286 20.078 7.796z" data-name="Path 3528" transform="translate(-327.027 -112.864)"/>
        <path id="prefix__Path_3529" d="M333.413 281.31s-18.629 11.909-18.476 30.538 18.476-30.538 18.476-30.538z" data-name="Path 3529" opacity="0.05" transform="translate(-201.823 79.202)"/>
        <path id="prefix__Path_3530" d="M817.327 113.433s-16.879-1.016-14.888 10.811a2.875 2.875 0 0 0 1.5 3.039s.03-.876 1.73-.579a7.817 7.817 0 0 0 1.834.088 3.809 3.809 0 0 0 2.241-.926s4.745-1.958 6.591-9.714c0 0 1.365-1.692 1.311-2.125l-2.849 1.215A5.09 5.09 0 0 1 815 119s-.092-3.686-.639-3.608c-.11.018-1.479.712-1.479.712s1.674 3.58.4 6.18c0 0 .479-4.41-.934-5.922l-2 1.171s1.956 3.7.629 6.713c0 0 .341-4.627-1.05-6.429l-1.818 1.417s1.838 3.644.718 6.146c0 0-.146-5.386-1.111-5.793a11.122 11.122 0 0 0-1.832 1.979s1.259 2.644.479 4.039c0 0-.479-3.588-.872-3.608a11.945 11.945 0 0 0-1.75 4.009 8.666 8.666 0 0 1 1.365-4.236 4.755 4.755 0 0 0-2.424 1.257s.247-1.682 2.806-1.828a10.959 10.959 0 0 1 1.66-1.912 10.4 10.4 0 0 0-4.105.473s1.363-1.586 4.572-.866l1.8-1.463s-3.364-.461-4.791.048c0 0 1.642-1.4 5.274-.381l1.954-1.169a17.92 17.92 0 0 0-4.578-.4s1.8-.972 5.15.082l1.4-.627s-2.1-.413-2.718-.477-.648-.237-.648-.237a7.287 7.287 0 0 1 3.955.459 17.819 17.819 0 0 0 2.914-1.296z" class="prefix__cls-8" data-name="Path 3530" transform="translate(-591.472 213.444)"/>
        <path id="prefix__Path_3531" d="M763.879 87.25s-7.617-.461-6.727 4.883a1.3 1.3 0 0 0 .677 1.373s.012-.4.782-.261a3.621 3.621 0 0 0 .828.04 1.742 1.742 0 0 0 1.014-.419s2.143-.886 2.977-4.39c0 0 .617-.764.6-.96l-1.287.549a2.3 2.3 0 0 1 .094 1.7s-.042-1.666-.289-1.626c-.05 0-.669.321-.669.321a3.8 3.8 0 0 1 .186 2.792s.216-1.993-.421-2.676l-.906.529a4 4 0 0 1 .285 3.035s.152-2.091-.475-2.9l-.822.639a3.918 3.918 0 0 1 .325 2.776s-.066-2.434-.5-2.618a5.03 5.03 0 0 0-.828.894s.569 1.2.217 1.826c0 0-.217-1.622-.4-1.628a5.375 5.375 0 0 0-.79 1.8 3.906 3.906 0 0 1 .615-1.914 2.147 2.147 0 0 0-1.094.567s.11-.76 1.271-.826a5 5 0 0 1 .75-.864 4.7 4.7 0 0 0-1.854.214 2.1 2.1 0 0 1 2.067-.4l.8-.66a6.962 6.962 0 0 0-2.165.02 2.632 2.632 0 0 1 2.383-.17l.882-.529a8.02 8.02 0 0 0-2.069-.178 3.173 3.173 0 0 1 2.327.038l.631-.285s-.95-.186-1.227-.214-.295-.106-.295-.106a3.286 3.286 0 0 1 1.784.2 8.073 8.073 0 0 0 1.323-.572z" class="prefix__cls-8" data-name="Path 3531" transform="translate(-555.336 234.369)"/>
        <ellipse id="prefix__Ellipse_605" cx="5.398" cy=".912" class="prefix__cls-1" data-name="Ellipse 605" rx="5.398" ry=".912" transform="translate(269.713 457.512)"/>
        <ellipse id="prefix__Ellipse_608" cx="8.06" cy="1.363" class="prefix__cls-8" data-name="Ellipse 608" rx="8.06" ry="1.363" transform="translate(255.236 466.835)"/>
        <path id="prefix__Path_3532" d="M1051.03 792.581a2.352 2.352 0 0 0 .77-1.161 1.034 1.034 0 0 0-.537-1.181c-.493-.188-1.02.154-1.419.5a1.9 1.9 0 0 1-1.381.666 2.1 2.1 0 0 0 .649-1.966.826.826 0 0 0-.18-.4c-.275-.293-.77-.168-1.1.062a4.091 4.091 0 0 0-1.339 3.424 6.439 6.439 0 0 1-.018-1.4 1.449 1.449 0 0 0-.529-1.249 1.6 1.6 0 0 0-.8-.188 1.668 1.668 0 0 0-1.311.371 1.289 1.289 0 0 0 .052 1.6 5.2 5.2 0 0 0 1.355 1.086 3.005 3.005 0 0 1 .97.924.969.969 0 0 1 .072.166h2.937a8.173 8.173 0 0 0 1.809-1.254z" class="prefix__cls-8" data-name="Path 3532" transform="translate(-784.401 -326.61)"/>
        <path id="prefix__Path_3533" d="M97.23 723.55s1.1 1.439-.509 3.608-2.937 4.009-2.406 5.364c0 0 2.428-4.037 4.41-4.1s.675-2.444-1.495-4.872z" class="prefix__cls-8" data-name="Path 3533" transform="translate(-25.333 -274.387)"/>
        <path id="prefix__Path_3534" d="M97.489 723.55a1.807 1.807 0 0 1 .225.451c1.928 2.265 2.955 4.38 1.1 4.432-1.728.05-3.809 3.137-4.3 3.917a1.869 1.869 0 0 0 .06.178s2.428-4.037 4.41-4.1.678-2.45-1.495-4.878z" class="prefix__cls-2" data-name="Path 3534" transform="translate(-25.592 -274.387)"/>
        <path id="prefix__Path_3535" d="M118.525 731.391c0 .507-.058.918-.128.918s-.126-.4-.126-.918.07-.269.142-.269.112-.239.112.269z" class="prefix__cls-9" data-name="Path 3535" transform="translate(-44.581 -280.394)"/>
        <path id="prefix__Path_3536" d="M119.536 734.338c-.445.243-.832.389-.866.327s.3-.307.746-.549.269-.066.3 0 .274-.016-.18.222z" class="prefix__cls-9" data-name="Path 3536" transform="translate(-44.899 -282.736)"/>
        <path id="prefix__Path_3537" d="M70.443 723.55s-1.1 1.439.507 3.608 2.937 4.009 2.406 5.364c0 0-2.43-4.037-4.41-4.1s-.678-2.444 1.497-4.872z" class="prefix__cls-8" data-name="Path 3537" transform="translate(-4.363 -274.387)"/>
        <path id="prefix__Path_3538" d="M70.431 723.55a1.731 1.731 0 0 0-.225.451c-1.928 2.265-2.957 4.38-1.1 4.432 1.726.05 3.809 3.137 4.294 3.917a1.875 1.875 0 0 1-.058.178s-2.43-4.037-4.41-4.1-.676-2.45 1.499-4.878z" class="prefix__cls-2" data-name="Path 3538" transform="translate(-4.352 -274.387)"/>
        <path id="prefix__Path_3539" d="M70.1 731.391c0 .507.056.918.126.918s.126-.4.126-.918-.07-.269-.14-.269-.112-.239-.112.269z" class="prefix__cls-9" data-name="Path 3539" transform="translate(-6.067 -280.394)"/>
        <path id="prefix__Path_3540" d="M65.515 734.338c.445.243.834.389.868.327s-.3-.307-.746-.549-.271-.066-.3 0-.267-.016.178.222z" class="prefix__cls-9" data-name="Path 3540" transform="translate(-2.185 -282.736)"/>
        <path id="prefix__Path_3541" fill="#a8a8a8" d="M71.85 760.752s3.079-.094 4.009-.756 4.737-1.449 4.967-.4 4.627 5.272 1.151 5.3-8.076-.543-9-1.107-1.127-3.037-1.127-3.037z" data-name="Path 3541" transform="translate(-7.466 -302.799)"/>
        <path id="prefix__Path_3542" d="M82.035 771.169c-3.476.028-8.076-.543-9-1.107-.706-.429-.986-1.971-1.08-2.682h-.1s.2 2.484 1.121 3.047 5.527 1.135 9 1.107c1 0 1.349-.367 1.331-.894-.143.322-.524.523-1.272.529z" data-name="Path 3542" opacity="0.2" transform="translate(-7.466 -309.431)"/>
        <path id="prefix__Path_3543" d="M401.621 443.226c1.177-.066 6.715-.483 10.233-2.49a3.987 3.987 0 0 1 1.858-.547c1.119-.032 2.405.435 1.582 3.049-1.335 4.276-9.087 9.087-13.9 8.82a15.942 15.942 0 0 1-13.739-8.676 4.01 4.01 0 0 1-.5-2.063c.042-1.323.523-2.981 3.007-1.133 3.356 2.5 9.722 2.969 11 3.039a4.218 4.218 0 0 0 .453 0z" class="prefix__cls-5" data-name="Path 3543" transform="translate(-259.569 -47.169)"/>
        <path id="prefix__Path_3544" d="M623.621 443.226c1.177-.066 6.715-.483 10.233-2.49a3.987 3.987 0 0 1 1.858-.547c1.118-.032 2.405.435 1.582 3.049-1.335 4.276-9.087 9.087-13.9 8.82a15.942 15.942 0 0 1-13.739-8.676 4.011 4.011 0 0 1-.5-2.063c.042-1.323.523-2.981 3.007-1.133 3.356 2.5 9.722 2.969 11 3.039a4.216 4.216 0 0 0 .459.001z" class="prefix__cls-5" data-name="Path 3544" transform="translate(-437.068 -47.169)"/>
    </g>
</svg>
