<svg xmlns="http://www.w3.org/2000/svg" width="28.606" height="28.606" viewBox="0 0 28.606 28.606">
    <path d="M14.3 0a14.3 14.3 0 1 0 14.3 14.3A14.319 14.319 0 0 0 14.3 0zM24 23.189l-1.246-1.246a.572.572 0 1 0-.809.809L23.189 24a13.107 13.107 0 0 1-8.314 3.449V25.68a.572.572 0 1 0-1.144 0v1.768A13.106 13.106 0 0 1 5.417 24l1.246-1.246a.572.572 0 0 0-.809-.809l-1.246 1.244a13.108 13.108 0 0 1-3.449-8.314h1.768a.572.572 0 0 0 0-1.144H1.159a13.106 13.106 0 0 1 3.449-8.314l1.246 1.246a.572.572 0 0 0 .809-.809L5.417 4.608a13.106 13.106 0 0 1 8.314-3.449v1.768a.572.572 0 0 0 1.144 0V1.159a13.108 13.108 0 0 1 8.314 3.449l-1.246 1.246a.572.572 0 1 0 .809.809L24 5.417a13.106 13.106 0 0 1 3.449 8.314H25.68a.572.572 0 1 0 0 1.144h1.768A13.107 13.107 0 0 1 24 23.189zm0 0" data-name="Path 3872"/>
    <path d="M14.873 12.393v-7.55a.572.572 0 1 0-1.144 0v7.552a2 2 0 0 0-1.428 1.908 1.976 1.976 0 0 0 .246.942l-3.794 3.8a.572.572 0 1 0 .81.809l3.793-3.8a1.977 1.977 0 0 0 .948.25 2 2 0 0 0 .57-3.912zm-.57 2.768a.858.858 0 1 1 .858-.858.859.859 0 0 1-.858.858zm0 0" data-name="Path 3873"/>
</svg>
