<svg xmlns="http://www.w3.org/2000/svg" width="22" height="22" viewBox="0 0 22 22">
    <defs>
        <style>
            .prefix__cls-1{fill:#ff7816}.prefix__cls-2{fill:#ff9f00}
        </style>
    </defs>
    <g id="prefix__award_2_" data-name="award (2)">
        <path id="prefix__Path_260" d="M363.828 0h-1.858l-1.319 1.289h3.177a.645.645 0 0 1 .644.645v.982a5.744 5.744 0 0 1-3.927 5.448l-.909.3a.645.645 0 0 0 .2 1.256.662.662 0 0 0 .2-.033l.909-.3a7.031 7.031 0 0 0 4.808-6.671v-.982A1.936 1.936 0 0 0 363.828 0zm0 0" class="prefix__cls-1" data-name="Path 260" transform="translate(-343.762)"/>
        <path id="prefix__Path_261" d="M6.125 8.666l-.909-.3a5.746 5.746 0 0 1-3.927-5.451v-.982a.645.645 0 0 1 .645-.645h3.33L3.791 0H1.934A1.936 1.936 0 0 0 0 1.933v.982a7.032 7.032 0 0 0 4.808 6.672l.909.3a.662.662 0 0 0 .2.033.645.645 0 0 0 .2-1.256zm0 0" class="prefix__cls-2" data-name="Path 261"/>
        <path id="prefix__Path_262" d="M97.386 12.582v.954a.638.638 0 0 0 .645.645 1.931 1.931 0 0 1 1.934 1.934V17.4a.638.638 0 0 1-.645.645H91.5a.638.638 0 0 1-.645-.645v-1.286a1.931 1.931 0 0 1 1.934-1.934.638.638 0 0 0 .645-.645v-.954A6.426 6.426 0 0 1 89 7.194L88.2 0h14.42l-.8 7.193a6.426 6.426 0 0 1-4.434 5.388zm0 0" data-name="Path 262" transform="translate(-84.41 -.001)" style="fill:#ffd400"/>
        <path id="prefix__Path_263" d="M259.91 18.047H256V0h7.21l-.8 7.193a6.426 6.426 0 0 1-4.434 5.388v.954a.638.638 0 0 0 .645.645 1.931 1.931 0 0 1 1.934 1.934V17.4a.638.638 0 0 1-.645.645zm0 0" class="prefix__cls-2" data-name="Path 263" transform="translate(-245)"/>
        <path id="prefix__Path_264" d="M187.452 62.854a.655.655 0 0 0-.528-.451l-1.444-.203-.645-1.276a.683.683 0 0 0-1.16 0l-.645 1.276-1.444.206a.642.642 0 0 0-.348 1.109l1.031.993-.245 1.392a.654.654 0 0 0 .258.632.632.632 0 0 0 .67.052l1.3-.67 1.3.67a.631.631 0 0 0 .67-.052.654.654 0 0 0 .258-.632l-.24-1.4 1.031-.993a.659.659 0 0 0 .18-.657zm0 0" class="prefix__cls-2" data-name="Path 264" transform="translate(-173.255 -57.995)"/>
        <path id="prefix__Path_265" d="M131.687 390.645v3.9H120v-3.9a.638.638 0 0 1 .645-.645h10.4a.638.638 0 0 1 .642.645zm0 0" data-name="Path 265" transform="translate(-114.844 -373.243)" style="fill:#ec5569"/>
        <path id="prefix__Path_266" d="M257.3 66.579l-1.3-.67V60.6a.639.639 0 0 1 .58.322l.645 1.276 1.444.206a.642.642 0 0 1 .348 1.108l-1.031.993.245 1.392a.654.654 0 0 1-.258.632.63.63 0 0 1-.67.052zm0 0" class="prefix__cls-1" data-name="Path 266" transform="translate(-245 -57.994)"/>
        <path id="prefix__Path_267" d="M261.844 390.644v3.9H256V390h5.2a.638.638 0 0 1 .645.645zm0 0" data-name="Path 267" transform="translate(-245 -373.242)" style="fill:#cc2e43"/>
        <path id="prefix__Path_268" d="M104.266 482.645a.638.638 0 0 1-.645.645H90.645a.645.645 0 0 1 0-1.289h12.977a.638.638 0 0 1 .644.644zm0 0" data-name="Path 268" transform="translate(-86.133 -461.29)" style="fill:#697c86"/>
        <path id="prefix__Path_269" d="M263.133 482.645a.638.638 0 0 1-.645.645H256V482h6.488a.638.638 0 0 1 .645.645zm0 0" data-name="Path 269" transform="translate(-245 -461.29)" style="fill:#465a61"/>
    </g>
</svg>
