<svg xmlns="http://www.w3.org/2000/svg" id="prefix__calendar" width="18.129" height="19.146" viewBox="0 0 18.129 19.146">
    <defs>
        <style>
            .prefix__cls-5{fill:#554e56}.prefix__cls-6{fill:#433f43}
        </style>
    </defs>
    <path id="prefix__Path_292" d="M31.729 133.479H13.6v13.134a1.021 1.021 0 0 0 1.021 1.021h16.087a1.021 1.021 0 0 0 1.021-1.021v-13.134z" data-name="Path 292" transform="translate(-13.6 -128.487)" style="fill:#fef1da"/>
    <path id="prefix__Path_293" d="M31.729 44.459H13.6v-3.152a1.021 1.021 0 0 1 1.021-1.021h16.087a1.021 1.021 0 0 1 1.021 1.021v3.152z" data-name="Path 293" transform="translate(-13.6 -38.779)" style="fill:#fd6930"/>
    <path id="prefix__Path_294" d="M451.354 151.879v12.412a1.055 1.055 0 0 1-1.055 1.055h-.773a1.055 1.055 0 0 0 1.055-1.055v-12.412z" data-name="Path 294" transform="translate(-433.224 -146.199)" style="fill:#fddeb0"/>
    <path id="prefix__Path_295" d="M451.354 41.337v3.118h-.773v-3.118a1.055 1.055 0 0 0-1.055-1.055h.773a1.055 1.055 0 0 1 1.055 1.055z" data-name="Path 295" transform="translate(-433.224 -38.776)" style="fill:#fd5426"/>
    <g id="prefix__Group_141" data-name="Group 141" transform="translate(3.51)">
        <path id="prefix__Path_296" d="M108.193 3.362h-.046a.689.689 0 0 1-.689-.689V.689a.689.689 0 0 1 .69-.689h.046a.689.689 0 0 1 .689.689v1.985a.689.689 0 0 1-.69.688z" class="prefix__cls-5" data-name="Path 296" transform="translate(-107.459)"/>
        <path id="prefix__Path_297" d="M367.223 3.362h-.046a.689.689 0 0 1-.689-.689V.689a.689.689 0 0 1 .69-.689h.046a.689.689 0 0 1 .689.689v1.985a.689.689 0 0 1-.69.688z" class="prefix__cls-5" data-name="Path 297" transform="translate(-356.802)"/>
    </g>
    <g id="prefix__Group_142" data-name="Group 142" transform="translate(3.891)">
        <path id="prefix__Path_298" d="M118.689.716v1.94a.712.712 0 0 1-1.042.63.711.711 0 0 0 .381-.63V.716a.712.712 0 0 0-.381-.63.711.711 0 0 1 1.042.63z" class="prefix__cls-6" data-name="Path 298" transform="translate(-117.647 -.005)"/>
        <path id="prefix__Path_299" d="M377.718.716v1.94a.712.712 0 0 1-1.042.63.712.712 0 0 0 .381-.63V.716a.709.709 0 0 0-.208-.5.717.717 0 0 0-.173-.127.711.711 0 0 1 1.042.63z" class="prefix__cls-6" data-name="Path 299" transform="translate(-366.99 -.005)"/>
    </g>
    <g id="prefix__Group_147" data-name="Group 147" transform="translate(3.373 7.685)">
        <g id="prefix__Group_144" data-name="Group 144" transform="translate(0 .074)">
            <g id="prefix__Group_143" data-name="Group 143">
                <path id="prefix__Path_300" d="M106.321 216.869a.892.892 0 0 1-.892-.892v-6.7h-.729a.892.892 0 1 1 0-1.784h1.624a.892.892 0 0 1 .892.892v7.6a.892.892 0 0 1-.895.884z" class="prefix__cls-5" data-name="Path 300" transform="translate(-103.805 -207.487)"/>
            </g>
        </g>
        <g id="prefix__Group_146" data-name="Group 146" transform="translate(5.419)">
            <g id="prefix__Group_145" data-name="Group 145">
                <path id="prefix__Path_301" d="M250.445 214.9a.893.893 0 0 1-.816-1.251l2.79-6.346h-2.813a.892.892 0 0 1 0-1.784h4.179a.892.892 0 0 1 .817 1.251l-3.34 7.6a.892.892 0 0 1-.817.53z" class="prefix__cls-5" data-name="Path 301" transform="translate(-248.714 -205.515)"/>
            </g>
        </g>
    </g>
    <g id="prefix__Group_152" data-name="Group 152" transform="translate(5.041 7.685)">
        <g id="prefix__Group_149" data-name="Group 149" transform="translate(0 .074)">
            <g id="prefix__Group_148" data-name="Group 148">
                <path id="prefix__Path_302" d="M150.152 208.379v7.6a.893.893 0 0 1-1.316.786.894.894 0 0 0 .468-.786v-7.6a.892.892 0 0 0-.892-.892h.848a.892.892 0 0 1 .892.892z" class="prefix__cls-6" data-name="Path 302" transform="translate(-148.412 -207.487)"/>
            </g>
        </g>
        <g id="prefix__Group_151" data-name="Group 151" transform="translate(5.059)">
            <g id="prefix__Group_150" data-name="Group 150">
                <path id="prefix__Path_303" d="M288.276 206.764l-3.34 7.6a.892.892 0 0 1-1.176.457c-.022-.01-.044-.02-.065-.032a.888.888 0 0 0 .392-.426l3.34-7.6a.892.892 0 0 0-.817-1.251h.848a.892.892 0 0 1 .817 1.251z" class="prefix__cls-6" data-name="Path 303" transform="translate(-283.696 -205.513)"/>
            </g>
        </g>
    </g>
</svg>
