<svg xmlns="http://www.w3.org/2000/svg" id="prefix__placeholder" width="13.462" height="19.146" viewBox="0 0 13.462 19.146">
    <path id="prefix__Path_304" d="M82.731 0A6.736 6.736 0 0 0 76 6.731a6.638 6.638 0 0 0 1.01 3.534l5.265 8.616a.532.532 0 0 0 .382.258.558.558 0 0 0 .572-.269l5.28-8.7a6.639 6.639 0 0 0 .954-3.444A6.736 6.736 0 0 0 82.731 0zm0 10.1A3.366 3.366 0 1 1 86.1 6.731a3.361 3.361 0 0 1-3.369 3.369z" data-name="Path 304" transform="translate(-76)" style="fill:#fd003a"/>
    <path id="prefix__Path_305" d="M256 0v3.366a3.366 3.366 0 1 1 0 6.731v9.049a.555.555 0 0 0 .5-.276l5.28-8.7a6.638 6.638 0 0 0 .954-3.444A6.736 6.736 0 0 0 256 0z" data-name="Path 305" transform="translate(-249.269)" style="fill:#e50027"/>
</svg>
