<svg xmlns="http://www.w3.org/2000/svg" id="prefix__employee" width="17.678" height="22.525" viewBox="0 0 17.678 22.525">
    <defs>
        <style>
            .prefix__cls-1{fill:#efc984}.prefix__cls-2{fill:#e8ae4d}.prefix__cls-3{fill:#faefdb}.prefix__cls-5{fill:#665e66}.prefix__cls-7{fill:#89808c}.prefix__cls-8{fill:#f6e2bf}
        </style>
    </defs>
    <g id="prefix__Group_438" data-name="Group 438" transform="translate(3.66)">
        <g id="prefix__Group_437" data-name="Group 437">
            <path id="prefix__Path_2818" d="M146.025 4.841a4.517 4.517 0 0 0-3.592-4.424L142.37.4a4.5 4.5 0 0 0-4.1 4.483V6.42h.064v.84h-.064v2.2a5.18 5.18 0 0 0 7.178 4.776 2.628 2.628 0 0 0 .573 1.387V4.841z" class="prefix__cls-1" data-name="Path 2818" transform="translate(-138.272 -.386)"/>
            <path id="prefix__Path_2819" d="M231.17 6.874v-.84l.038-.05V4.5a4.5 4.5 0 0 0-4.5-4.5h-1.389a4.53 4.53 0 0 0-.672.054q.086.021.184.04a4.5 4.5 0 0 1 3.581 4.406v10.467a2.638 2.638 0 0 0 2.244 1.249.553.553 0 0 0 .553-.553V6.874z" class="prefix__cls-2" data-name="Path 2819" transform="translate(-220.85)"/>
        </g>
    </g>
    <g id="prefix__Group_461" data-name="Group 461" transform="translate(0 3.082)">
        <path id="prefix__Path_2820" d="M185.247 219.7c-.449-.074-.858-.131-1.169-.172a.7.7 0 0 1-.606-.689v-3.177H179.5v3.177a.7.7 0 0 1-.606.689c-.233.03-.52.07-.837.119v4.122h7.191V219.7z" class="prefix__cls-3" data-name="Path 2820" transform="translate(-172.647 -209.257)"/>
        <g id="prefix__Group_460" data-name="Group 460">
            <path id="prefix__Path_2821" d="M68.248 290.568a6.8 6.8 0 0 0-.879-.308 1.384 1.384 0 0 1-.988-1.141v-.01q-.042-.3-.068-.595a.694.694 0 0 1-.4-.629 11.3 11.3 0 0 0 .112 1.586 9.863 9.863 0 0 1-1.025 6.06l-1.079 2.215-1.079-2.215a9.864 9.864 0 0 1-1.02-6.059 11.29 11.29 0 0 0 .112-1.586.7.7 0 0 1-.606.689 18.861 18.861 0 0 0-4.242.947 3.38 3.38 0 0 0-2.005 3.088v4.159a.977.977 0 0 0 .977.977h1.6l.1-.232h.484l.1.232h11.169l.089-.232h.422l.232-.426v-3.432a3.38 3.38 0 0 0-2.006-3.088z" data-name="Path 2821" transform="translate(-55.084 -278.302)" style="fill:#756e78"/>
            <g id="prefix__Group_449" data-name="Group 449" transform="translate(2.572 9.584)">
                <g id="prefix__Group_447" data-name="Group 447" transform="translate(8.253)">
                    <g id="prefix__Group_446" data-name="Group 446">
                        <g id="prefix__Group_445" data-name="Group 445">
                            <g id="prefix__Group_444" data-name="Group 444">
                                <g id="prefix__Group_443" data-name="Group 443">
                                    <g id="prefix__Group_442" data-name="Group 442">
                                        <g id="prefix__Group_441" data-name="Group 441">
                                            <g id="prefix__Group_440" data-name="Group 440">
                                                <g id="prefix__Group_439" data-name="Group 439">
                                                    <path id="prefix__Path_2822" d="M306 289.522a18.858 18.858 0 0 0-4.242-.947.7.7 0 0 1-.606-.689 11.3 11.3 0 0 0 .112 1.586q.067.475.094.928a9.766 9.766 0 0 1 1.775.53 3.38 3.38 0 0 1 2.005 3.088v3.728h1.89a.977.977 0 0 0 .977-.977v-4.159a3.38 3.38 0 0 0-2.005-3.088z" class="prefix__cls-5" data-name="Path 2822" transform="translate(-301.148 -287.886)"/>
                                                </g>
                                            </g>
                                        </g>
                                    </g>
                                </g>
                            </g>
                        </g>
                    </g>
                </g>
                <g id="prefix__Group_448" data-name="Group 448" transform="translate(0 7.841)">
                    <path id="prefix__Path_2823" d="M114.229 468.141v-1.678a.34.34 0 1 0-.68 0v1.678z" class="prefix__cls-5" data-name="Path 2823" transform="translate(-113.549 -466.123)"/>
                    <path id="prefix__Path_2824" d="M383.678 468.141v-1.678a.34.34 0 1 0-.68 0v1.678z" class="prefix__cls-5" data-name="Path 2824" transform="translate(-371.144 -466.123)"/>
                </g>
            </g>
            <path id="prefix__Path_2825" d="M204.762 357.4l.306.346.333-.363.868-1.782a10.185 10.185 0 0 0 1.138-4.942 5.624 5.624 0 0 1-4.677 0 10.185 10.185 0 0 0 1.138 4.943z" data-name="Path 2825" transform="translate(-196.228 -338.309)" style="fill:#e07f84"/>
            <path id="prefix__Path_2826" d="M149.811 295.531a9.864 9.864 0 0 1-1.02-6.059 11.291 11.291 0 0 0 .112-1.586l-1.81.694a.819.819 0 0 0-.438 1.134l.272.54a.82.82 0 0 1-.026.785l-.736 1.247a.819.819 0 0 0 .109.978l4.614 4.481z" class="prefix__cls-7" data-name="Path 2826" transform="translate(-142.05 -278.302)"/>
            <g id="prefix__Group_450" data-name="Group 450" transform="translate(8.839 9.584)">
                <path id="prefix__Path_2827" d="M257.079 295.531a9.864 9.864 0 0 0 1.02-6.059 11.293 11.293 0 0 1-.112-1.586l1.81.694a.819.819 0 0 1 .438 1.134l-.272.54a.819.819 0 0 0 .026.785l.736 1.247a.819.819 0 0 1-.109.978L256 297.746z" class="prefix__cls-7" data-name="Path 2827" transform="translate(-256 -287.886)"/>
            </g>
            <g id="prefix__Group_451" data-name="Group 451" transform="translate(10.787 3.372)">
                <path id="prefix__Path_2828" d="M300.274 146.7v6.782a3.791 3.791 0 0 0 .171 1.168 2.634 2.634 0 0 0 2.508 1.812.553.553 0 0 0 .553-.553V146.7z" class="prefix__cls-1" data-name="Path 2828" transform="translate(-300.274 -146.696)"/>
                <path id="prefix__Path_2829" d="M312.955 155.905V146.7h-2.8v8.5a2.53 2.53 0 0 0 2.244 1.255.553.553 0 0 0 .556-.55z" class="prefix__cls-2" data-name="Path 2829" transform="translate(-309.723 -146.696)"/>
            </g>
            <g id="prefix__Group_458" data-name="Group 458" transform="translate(3.66 2.241)">
                <g id="prefix__Group_457" data-name="Group 457">
                    <g id="prefix__Group_456" data-name="Group 456">
                        <g id="prefix__Group_455" data-name="Group 455">
                            <g id="prefix__Group_454" data-name="Group 454">
                                <g id="prefix__Group_453" data-name="Group 453">
                                    <g id="prefix__Group_452" data-name="Group 452">
                                        <path id="prefix__Path_2830" d="M139.781 120.988h-.8a.711.711 0 0 0-.711.711v.84a.711.711 0 0 0 .711.711h.8z" class="prefix__cls-8" data-name="Path 2830" transform="translate(-138.272 -120.988)"/>
                                    </g>
                                </g>
                            </g>
                        </g>
                    </g>
                </g>
            </g>
            <path id="prefix__Path_2831" d="M339.42 120.988h.8a.711.711 0 0 1 .711.711v.84a.711.711 0 0 1-.711.711h-.8z" class="prefix__cls-8" data-name="Path 2831" transform="translate(-326.911 -118.747)"/>
            <path id="prefix__Path_2832" d="M174.042 72.289a3.883 3.883 0 0 1-3.511-2.222.033.033 0 0 0-.063.014v.119a1.339 1.339 0 0 1-1.357 1.326.718.718 0 0 0-.712.722l.009 2.006c0 2.556 2.683 3.983 3.845 4.008 1.162-.025 3.845-1.452 3.845-4.008v-1.967h-2.062z" class="prefix__cls-3" data-name="Path 2832" transform="translate(-163.415 -70.048)"/>
            <g id="prefix__Group_459" data-name="Group 459" transform="translate(8.106 2.241)">
                <path id="prefix__Path_2833" d="M242.444 120.988v1.967a4.353 4.353 0 0 1-3.116 3.866 2.633 2.633 0 0 0 .733.143c1.162-.025 3.845-1.452 3.845-4.008v-1.967z" class="prefix__cls-8" data-name="Path 2833" transform="translate(-239.328 -120.988)"/>
            </g>
        </g>
    </g>
</svg>
