<svg xmlns="http://www.w3.org/2000/svg" id="prefix__rupee_1" width="22.807" height="22.807" viewBox="0 0 22.807 22.807">
    <defs>
        <style>
            .prefix__cls-3{fill:#ffea94}.prefix__cls-6{fill:#f68e00}
        </style>
    </defs>
    <g id="prefix__Group_1434" data-name="Group 1434">
        <path id="prefix__Path_2296" d="M22.773 11.385A11.4 11.4 0 1 1 19.1 3a11.4 11.4 0 0 1 3.677 8.383z" data-name="Path 2296" transform="translate(.034 .014)" style="fill:#f0cd00"/>
        <path id="prefix__Path_2297" d="M40.17 11.548a11.382 11.382 0 0 1-10.96 11.375 11.382 11.382 0 0 1 0-22.753 11.382 11.382 0 0 1 10.96 11.378z" data-name="Path 2297" transform="translate(-17.364 -.146)" style="fill:#ffde50"/>
        <path id="prefix__Path_2298" d="M51.185 35.111L35.1 51.2a11.431 11.431 0 0 1-1.441-1.944L49.242 33.67a11.378 11.378 0 0 1 1.943 1.441z" class="prefix__cls-3" data-name="Path 2298" transform="translate(-32.054 -32.089)"/>
        <path id="prefix__Path_2299" d="M111.031 96.272l-14.759 14.759a11.366 11.366 0 0 1-2.882-1.656l15.985-15.985a11.342 11.342 0 0 1 1.656 2.882z" class="prefix__cls-3" data-name="Path 2299" transform="translate(-89.009 -89.034)"/>
        <path id="prefix__Path_2300" d="M72.31 63.465a8.845 8.845 0 1 1-17.689.108v-.108a8.845 8.845 0 0 1 8.845-8.845h.11a8.8 8.8 0 0 1 4.987 1.614A8.9 8.9 0 0 1 71 58.823a8.8 8.8 0 0 1 1.31 4.642z" data-name="Path 2300" transform="translate(-52.041 -52.066)" style="fill:#faa300"/>
        <path id="prefix__Path_2301" d="M69.719 57.21L57.21 69.719a8.813 8.813 0 0 1-2.589-6.145v-.108a8.845 8.845 0 0 1 8.845-8.845h.11a8.8 8.8 0 0 1 4.987 1.614 8.927 8.927 0 0 1 1.156.976z" data-name="Path 2301" transform="translate(-52.041 -52.066)" style="fill:#ffbd00"/>
        <path id="prefix__Path_2302" d="M243.589 63.465a8.845 8.845 0 0 1-8.845 8.845q-.247 0-.5-.014a8.845 8.845 0 0 0 0-17.662q.246-.014.5-.014a8.845 8.845 0 0 1 8.845 8.844z" class="prefix__cls-6" data-name="Path 2302" transform="translate(-223.32 -52.066)"/>
    </g>
    <path id="prefix__Path_2303" d="M121.394 128.6h-1.547a3.736 3.736 0 0 0-.4-.973h1.95a.929.929 0 1 0 0-1.859h-8.779a.929.929 0 1 0 0 1.859h3.582a1.9 1.9 0 0 1 1.658.973h-5.244a.93.93 0 1 0 0 1.858h5.244a1.9 1.9 0 0 1-1.658.973h-3.586a.93.93 0 0 0-.674 1.569l5.054 5.364a.931.931 0 1 0 1.356-1.275l-3.575-3.8h1.434a3.766 3.766 0 0 0 3.644-2.835h1.547a.929.929 0 1 0 0-1.858z" class="prefix__cls-6" data-name="Path 2303" transform="translate(-106.456 -119.909)"/>
    <path id="prefix__Path_2304" d="M146.39 128.6h-1.55a3.74 3.74 0 0 0-.4-.973h1.95a.929.929 0 1 0 0-1.859h-8.779a.929.929 0 0 0 0 1.859h3.589a1.9 1.9 0 0 1 1.658.973h-5.244a.93.93 0 0 0 0 1.858h5.244a1.9 1.9 0 0 1-1.658.973h-3.586a.93.93 0 0 0-.677 1.567l5.054 5.364a.931.931 0 1 0 1.356-1.275l-3.575-3.8h1.428a3.766 3.766 0 0 0 3.644-2.835h1.556a.929.929 0 1 0 0-1.858z" class="prefix__cls-3" data-name="Path 2304" transform="translate(-130.291 -119.909)"/>
</svg>
