<svg xmlns="http://www.w3.org/2000/svg" id="prefix__user_1_" width="22" height="22" data-name="user (1)" viewBox="0 0 22 22">
    <path id="prefix__Path_278" d="M22 13.285v-4.57L19.885 8c-.127-.381-.3-.762-.465-1.142l.973-1.988-3.258-3.262-1.988.973A4.616 4.616 0 0 0 14 2.115L13.285 0h-4.57L8 2.115c-.381.127-.762.3-1.142.465l-1.993-.972-3.257 3.257.973 1.988A4.616 4.616 0 0 0 2.115 8L0 8.715v4.569L2.115 14c.127.381.3.762.465 1.142l-.973 1.988 3.258 3.258 1.988-.973c.381.169.762.338 1.142.465l.72 2.12h4.569L14 19.885c.381-.127.762-.3 1.142-.465l1.988.973 3.258-3.258-.973-1.988c.169-.381.338-.762.465-1.142zm-11 3.977A6.262 6.262 0 1 1 17.262 11 6.247 6.247 0 0 1 11 17.262z" data-name="Path 278" style="fill:#314a5e"/>
    <circle id="prefix__Ellipse_44" cx="2.877" cy="2.877" r="2.877" data-name="Ellipse 44" transform="translate(8.123 7.192)" style="fill:#ff7058"/>
    <path id="prefix__Path_279" d="M154.674 300.308a3.7 3.7 0 0 1-4.7 0 5.41 5.41 0 0 0-2.285 2.285 6.168 6.168 0 0 0 4.612 2.031 6.324 6.324 0 0 0 4.612-2.031 5.091 5.091 0 0 0-2.239-2.285z" data-name="Path 279" transform="translate(-141.347 -287.404)" style="fill:#ffd05c"/>
</svg>
