<svg xmlns="http://www.w3.org/2000/svg" width="14.665" height="20" viewBox="0 0 14.665 20">
    <defs>
        <style>
            .prefix__cls-1{fill:#137efc}
        </style>
    </defs>
    <g id="prefix__Group_1337" data-name="Group 1337">
        <path id="prefix__Path_2110" d="M24.118 15.2a3.053 3.053 0 0 0 2.03-.684 2.419 2.419 0 0 0 .762-1.816v-2.03c-.026-1.044.03-2.093-.055-3.135a14.538 14.538 0 0 0-1.642-6 5.408 5.408 0 0 0-.931-1.226.94.94 0 0 0-.631-.309h-7.514a.756.756 0 0 0-.52.2 4.455 4.455 0 0 0-.945 1.134 14.107 14.107 0 0 0-1.751 6.109c-.057.958-.012 1.907-.034 2.86-.016.821 0 1.642-.01 2.462a2.269 2.269 0 0 0 .343 1.279 2.8 2.8 0 0 0 2.431 1.156c-.995 1.473-2.118 3.03-3.123 4.5v.3h1.528c.327-.41.6-.86.911-1.283h9.819L25.7 20h1.492v-.294zm-.17-1.763a1.083 1.083 0 1 1 .844-.29 1.074 1.074 0 0 1-.844.29zM14.1 8.308c-.031-.337-.007-.673-.019-1.01a9.826 9.826 0 0 1 .778-4.213 5.85 5.85 0 0 1 1.146-1.765 1.137 1.137 0 0 1 .8-.41h6.182a.937.937 0 0 1 .632.274 4.763 4.763 0 0 1 .958 1.211 9.973 9.973 0 0 1 1.133 5.19 2.242 2.242 0 0 1-.12 1 1.094 1.094 0 0 1-.969.657h-9.435a1.119 1.119 0 0 1-1.094-.93zm8.755 7.609h-6.07l.457-.7h5.19zm-7.373-2.5a1.074 1.074 0 1 1 1.119-.47 1.074 1.074 0 0 1-1.121.472zm.126 4.412c.294-.468.625-.926.932-1.384h6.65c.334.449.642.915.958 1.368z" class="prefix__cls-1" data-name="Path 2110" transform="translate(-12.528)"/>
        <path id="prefix__Path_2111" d="M40.691 15.853h-1.106l-1.326 1.569-1.347-1.568h-1.125v4.181h1.231v-2.421l1.2 1.416 1.209-1.4v2.4H40.7z" class="prefix__cls-1" data-name="Path 2111" transform="translate(-30.829 -12.473)"/>
    </g>
</svg>
