<svg xmlns="http://www.w3.org/2000/svg" width="66.957" height="70" viewBox="0 0 66.957 70">
    <defs>
        <style>
            .prefix__cls-1{fill:#665364}.prefix__cls-2{fill:#543e5b}.prefix__cls-3{fill:#fcad6d}.prefix__cls-4{fill:#fd995b}.prefix__cls-6{fill:#422953}.prefix__cls-7{fill:#e9efff}
        </style>
    </defs>
    <g id="prefix__man" transform="translate(-11.05)">
        <g id="prefix__Group_477" data-name="Group 477" transform="translate(30.868)">
            <path id="prefix__Path_3452" d="M167.426.156c-7.542 1.028-8.259 5.3-8.262 6.873a.863.863 0 0 1-.479.778c-3.923 1.908-1.808 11.106-1.808 11.106a3.188 3.188 0 0 1 1.114.335 6.741 6.741 0 0 1 .372-1.376 5.768 5.768 0 0 1 .5-1.008 3.1 3.1 0 0 0 .473-1.891c-.141-1.919-.073-5.7 2.46-6.839 2.146-.966 4.778-.406 6.457.152a5.331 5.331 0 0 0 3.361 0c1.678-.558 4.311-1.117 6.457-.152 2.526 1.136 2.6 4.9 2.461 6.823a3.126 3.126 0 0 0 .472 1.907 5.8 5.8 0 0 1 .517 1.04 6.733 6.733 0 0 1 .359 1.343 2.677 2.677 0 0 1 1.416-.325c.058-2.011.244-4.179.244-4.179C185.779 3.8 175.547-.95 167.426.156z" class="prefix__cls-1" data-name="Path 3452" transform="translate(-156.308)"/>
        </g>
        <path id="prefix__Path_3453" d="M167.426.16c-7.542 1.028-8.259 5.3-8.262 6.872a.863.863 0 0 1-.479.778c-3.923 1.908-1.808 11.106-1.808 11.106a3.189 3.189 0 0 1 1.114.335 6.74 6.74 0 0 1 .372-1.376 5.778 5.778 0 0 1 .5-1.008 3.1 3.1 0 0 0 .473-1.891c-.141-1.919-.073-5.7 2.46-6.839 2.042-.919 4.523-.457 6.2.071l-.044-.084c-2.799-4.91 1.948-8.008 2.125-8.118a17.466 17.466 0 0 0-2.65.153z" class="prefix__cls-2" data-name="Path 3453" transform="translate(-125.44 -.003)"/>
        <path id="prefix__Path_3454" d="M341.811 138.389a2.127 2.127 0 0 0-2.263.064 7.1 7.1 0 0 1 .021 2.094l-.6 4.348c0 .351-.011.694-.031 1.032 1.456.439 2.179-.868 2.3-1.765a6.666 6.666 0 0 1 .257-1.138c.391-1.208 1.788-3.286.316-4.635z" class="prefix__cls-3" data-name="Path 3454" transform="translate(-283.104 -119.206)"/>
        <path id="prefix__Path_3455" d="M340.547 162.37a2.159 2.159 0 0 1-1.14-.325l-.435 3.171q0 .526-.031 1.032c1.456.439 2.179-.868 2.3-1.765a6.671 6.671 0 0 1 .257-1.138c.151-.473.457-1.079.686-1.722a2.165 2.165 0 0 1-1.637.747z" class="prefix__cls-4" data-name="Path 3455" transform="translate(-283.104 -139.526)"/>
        <path id="prefix__Path_3456" d="M147.9 138.389a2.127 2.127 0 0 1 2.263.064 7.1 7.1 0 0 0-.021 2.094l.6 4.348c0 .351.011.694.031 1.032-1.456.439-2.179-.868-2.3-1.765a6.665 6.665 0 0 0-.257-1.138c-.389-1.208-1.786-3.286-.316-4.635z" class="prefix__cls-3" data-name="Path 3456" transform="translate(-117.614 -119.206)"/>
        <path id="prefix__Path_3457" d="M152.894 163.572a2.165 2.165 0 0 1-2.628.071c.2.516.434 1 .558 1.385a6.665 6.665 0 0 1 .257 1.138c.122.9.845 2.2 2.3 1.765-.02-.338-.031-.682-.031-1.032z" class="prefix__cls-4" data-name="Path 3457" transform="translate(-120.224 -141.209)"/>
        <path id="prefix__Path_3458" d="M197.128 269.028a14.236 14.236 0 0 0 4.217 5.422 1.121 1.121 0 0 1 .4.821l.007.192h5.6l.007-.192a1.122 1.122 0 0 1 .4-.821 14.236 14.236 0 0 0 4.217-5.422 9.083 9.083 0 0 0 .72-3.316 14.345 14.345 0 0 1-.638-3.972 16.057 16.057 0 0 1-2.315 2.213 8.484 8.484 0 0 1-10.388 0 16.043 16.043 0 0 1-2.315-2.213 14.351 14.351 0 0 1-.638 3.972 9.083 9.083 0 0 0 .726 3.316z" class="prefix__cls-3" data-name="Path 3458" transform="translate(-160.058 -225.956)"/>
        <path id="prefix__Path_3459" d="M204.554 265.73a8.47 8.47 0 0 1-5.194-1.776 16.043 16.043 0 0 1-2.315-2.213 14.356 14.356 0 0 1-.638 3.972 9.089 9.089 0 0 0 .72 3.316 14.236 14.236 0 0 0 4.217 5.422c.018.015.035.032.052.048 2.975-2.785 3.158-8.769 3.158-8.769z" class="prefix__cls-4" data-name="Path 3459" transform="translate(-160.057 -225.956)"/>
        <path id="prefix__Path_3460" d="M204.526 392.4a61.307 61.307 0 0 0 5.879-14.556c-.443.682-.864 1.3-1.226 1.81a1.023 1.023 0 0 1-.825.438 1.035 1.035 0 0 1-.844-.407l-1.176-1.539-1.2 2.143a1.815 1.815 0 0 1-1.634 1.011h-3.323a1.814 1.814 0 0 1-1.632-1.009l-1.213-2.16-1.189 1.556a1.039 1.039 0 0 1-.844.407 1.023 1.023 0 0 1-.825-.438c-.362-.514-.783-1.129-1.226-1.81a61.308 61.308 0 0 0 5.88 14.555h5.4z" data-name="Path 3460" transform="translate(-157.328 -326.184)" style="fill:#bec8f7"/>
        <path id="prefix__Path_3461" d="M232.707 402.448h-3.324a1.844 1.844 0 0 1-.466-.061 43.588 43.588 0 0 0-1.836 8.823 57.812 57.812 0 0 0 3.591 6.121h.725a57.838 57.838 0 0 0 3.735-6.405 42.511 42.511 0 0 0-1.816-8.582 1.832 1.832 0 0 1-.609.104z" class="prefix__cls-2" data-name="Path 3461" transform="translate(-186.537 -347.336)"/>
        <path id="prefix__Path_3462" d="M232.707 402.448h-3.324a1.844 1.844 0 0 1-.466-.061 43.588 43.588 0 0 0-1.836 8.823 57.812 57.812 0 0 0 3.591 6.121h.725a57.838 57.838 0 0 0 3.735-6.405 42.511 42.511 0 0 0-1.816-8.582 1.832 1.832 0 0 1-.609.104z" class="prefix__cls-2" data-name="Path 3462" transform="translate(-186.537 -347.336)"/>
        <path id="prefix__Path_3463" d="M231.048 439.11a4.081 4.081 0 0 1-3.373-1.78c-.238 1.315-.434 2.663-.593 3.923a57.81 57.81 0 0 0 3.591 6.121h.725a57.838 57.838 0 0 0 3.735-6.405c-.16-1.233-.356-2.546-.592-3.824a4.084 4.084 0 0 1-3.493 1.965z" class="prefix__cls-6" data-name="Path 3463" transform="translate(-186.538 -377.378)"/>
        <path id="prefix__Path_3464" d="M229.9 360.656h-5.7l-1.824 2.878 1.136 2.272a2.024 2.024 0 0 0 1.81 1.119h3.324a2.024 2.024 0 0 0 1.81-1.119l1.136-2.272z" class="prefix__cls-1" data-name="Path 3464" transform="translate(-182.474 -311.348)"/>
        <path id="prefix__Path_3465" d="M227.458 365.779a4.6 4.6 0 0 1 .229-4.522l.381-.6H224.2l-1.824 2.878 1.136 2.272a2.024 2.024 0 0 0 1.81 1.119h3.323a2.031 2.031 0 0 0 .331-.028 2.071 2.071 0 0 1-1.518-1.117z" class="prefix__cls-2" data-name="Path 3465" transform="translate(-182.474 -311.348)"/>
        <path id="prefix__Path_3466" d="M277.98 299.84a1.235 1.235 0 0 0 1.99-.037c.407-.578.908-1.313 1.439-2.143a64.545 64.545 0 0 0 1.753-10.4l-2.262-1.97a.3.3 0 0 0-.5.244c.073 1.554-.318 5.256-4.86 9.027a1.316 1.316 0 0 0-.207 1.811z" class="prefix__cls-7" data-name="Path 3466" transform="translate(-227.956 -246.22)"/>
        <path id="prefix__Path_3467" d="M179.421 297.661c.53.829 1.031 1.564 1.438 2.141a1.235 1.235 0 0 0 1.99.037l2.651-3.468a1.316 1.316 0 0 0-.207-1.811c-4.542-3.771-4.932-7.473-4.86-9.027a.3.3 0 0 0-.5-.244l-2.263 1.973a64.579 64.579 0 0 0 1.751 10.399z" class="prefix__cls-7" data-name="Path 3467" transform="translate(-143.878 -246.22)"/>
        <path id="prefix__Path_3468" d="M183.78 293.155c-3.118-3.256-3.409-6.261-3.345-7.621a.3.3 0 0 0-.5-.244l-2.263 1.973a63.663 63.663 0 0 0 1.294 8.449 2 2 0 0 0 1.279-.835c1.712-2.503 3.535-1.722 3.535-1.722z" data-name="Path 3468" transform="translate(-143.88 -246.22)" style="fill:#dae2fe"/>
        <path id="prefix__Path_3469" d="M54.8 339.021a.579.579 0 0 1-.043-.7l2.364-3.521a.978.978 0 0 0-.493-1.469l-3.952-1.364a.583.583 0 0 1-.388-.494 45.942 45.942 0 0 1 .059-9.2 1.952 1.952 0 0 1 .3-.832c-1 .453-1.99.956-2.971 1.509a5.977 5.977 0 0 1-2.627 1.1c-4.411.361-12.481 23.144-12.481 23.144h28.947s-7.647-6.94-8.715-8.173z" class="prefix__cls-6" data-name="Path 3469" transform="translate(-23.51 -277.494)"/>
        <path id="prefix__Path_3470" d="M42.5 347.123s1.491-4.132 2.674-8.625 6.706-9.345 6.706-9.345c.077-.077.154-.151.23-.222a46.4 46.4 0 0 1 .23-6.656 1.952 1.952 0 0 1 .3-.832c-1 .453-1.99.956-2.971 1.509a5.977 5.977 0 0 1-2.627 1.1c-4.411.361-12.438 23.073-12.438 23.073h7.9z" data-name="Path 3470" transform="translate(-23.51 -277.495)" style="fill:#30144a"/>
        <path id="prefix__Path_3471" d="M143.924 294.549a.577.577 0 0 0-.928-.411l-3.852 2.97a2.151 2.151 0 0 0-.825 1.469 46.382 46.382 0 0 0-.06 9.239.78.78 0 0 0 .521.663l3.952 1.364a.778.778 0 0 1 .392 1.169l-2.364 3.521a.777.777 0 0 0 .058.944 61.8 61.8 0 0 0 8.465 7.985 33.766 33.766 0 0 0 4.776.356 62.311 62.311 0 0 1-10.135-29.269z" class="prefix__cls-2" data-name="Path 3471" transform="translate(-109.684 -253.82)"/>
        <path id="prefix__Path_3472" d="M143.926 294.549a.577.577 0 0 0-.928-.411l-3.852 2.97a2.151 2.151 0 0 0-.825 1.469 46.923 46.923 0 0 0-.224 6.863 6.8 6.8 0 0 1 6.006-2.119 1.956 1.956 0 0 0 1.145-.165 60.83 60.83 0 0 1-1.322-8.607z" class="prefix__cls-6" data-name="Path 3472" transform="translate(-109.686 -253.82)"/>
        <path id="prefix__Path_3473" d="M289.054 347.19l28.99.059s-8.132-22.838-12.543-23.2a5.978 5.978 0 0 1-2.627-1.1c-.981-.553-1.969-1.057-2.971-1.509a1.952 1.952 0 0 1 .3.832 45.951 45.951 0 0 1 .059 9.2.583.583 0 0 1-.388.494l-3.952 1.364a.978.978 0 0 0-.493 1.469l2.364 3.521a.579.579 0 0 1-.043.7 94.414 94.414 0 0 1-8.696 8.17z" class="prefix__cls-2" data-name="Path 3473" transform="translate(-240.037 -277.495)"/>
        <path id="prefix__Path_3474" d="M271.815 297.109l-3.852-2.97a.577.577 0 0 0-.928.411 62.307 62.307 0 0 1-10.135 29.268 33.761 33.761 0 0 0 4.775-.356 61.807 61.807 0 0 0 8.464-7.985.777.777 0 0 0 .058-.944l-2.364-3.521a.778.778 0 0 1 .392-1.169l3.952-1.364a.781.781 0 0 0 .521-.663 46.385 46.385 0 0 0-.06-9.239 2.15 2.15 0 0 0-.823-1.468z" class="prefix__cls-1" data-name="Path 3474" transform="translate(-212.28 -253.82)"/>
        <path id="prefix__Path_3475" d="M191.236 65.495c-.425-1.108-1.083-1.567-.985-2.919.352-4.857-1.415-6.4-2.5-6.889-2.127-.957-4.711-.447-6.5.149a5.292 5.292 0 0 1-3.32 0c-1.793-.6-4.377-1.106-6.5-.149-1.087.489-2.856 2.036-2.5 6.905.1 1.325-.551 1.783-.973 2.869a7.037 7.037 0 0 0-.4 3.5l.6 4.34a16.08 16.08 0 0 0 6.2 12.76 8.555 8.555 0 0 0 10.47 0 16.073 16.073 0 0 0 6.2-12.75l.6-4.348a7.04 7.04 0 0 0-.392-3.468z" data-name="Path 3475" transform="translate(-135.089 -47.614)" style="fill:#f9ba8f"/>
        <g id="prefix__Group_478" data-name="Group 478" transform="translate(32.396 7.541)">
            <path id="prefix__Path_3476" d="M180.641 86.065a16.08 16.08 0 0 1-6.2-12.76l-.6-4.34a7.037 7.037 0 0 1 .4-3.5c.422-1.086 1.071-1.544.973-2.869-.347-4.721 1.306-6.319 2.4-6.857a9.056 9.056 0 0 0-6.188-.048c-1.087.489-2.856 2.036-2.5 6.905.1 1.325-.551 1.783-.973 2.869a7.039 7.039 0 0 0-.4 3.5l.6 4.34a16.08 16.08 0 0 0 6.2 12.76 8.562 8.562 0 0 0 8.38 1.19 8.467 8.467 0 0 1-2.091-1.19z" class="prefix__cls-3" data-name="Path 3476" transform="translate(-167.486 -55.156)"/>
        </g>
        <path id="prefix__Path_3477" d="M396.346 435.064a13.556 13.556 0 0 0-1.311-1.336 1.75 1.75 0 0 0-2.9 1.319v3.353a33.648 33.648 0 0 0 4.211-3.336z" class="prefix__cls-6" data-name="Path 3477" transform="translate(-329.022 -374.05)"/>
    </g>
</svg>
