<svg xmlns="http://www.w3.org/2000/svg" width="59.698" height="70" viewBox="0 0 59.698 70">
    <defs>
        <style>
            .prefix__cls-1{fill:#707487}.prefix__cls-2{fill:#5b5d6e}.prefix__cls-3{fill:#f0a479}.prefix__cls-4{fill:#e59770}.prefix__cls-5{fill:#e4eaf8}.prefix__cls-6{fill:#d8dce5}.prefix__cls-8{fill:#ed3a3a}
        </style>
    </defs>
    <g id="prefix__employee_1_" data-name="employee (1)" transform="translate(-37.675)">
        <path id="prefix__Path_3367" d="M193.977 0a9.672 9.672 0 0 0-9.677 9.672v3.911a3.083 3.083 0 0 1 2.464-.805V12.3a.659.659 0 0 1 .706-.657A17.317 17.317 0 0 0 197.9 8.84a.659.659 0 0 1 .843.1c2.46 2.644 2.445 2.542 2.445 2.887v.947a2.926 2.926 0 0 1 2.463.721V9.672A9.672 9.672 0 0 0 193.977 0z" class="prefix__cls-1" data-name="Path 3367" transform="translate(-126.583)"/>
        <path id="prefix__Path_3368" d="M187.347 9.672A9.674 9.674 0 0 1 195.5.12a9.674 9.674 0 0 0-11.2 9.552v3.911a3.083 3.083 0 0 1 2.464-.805V12.3a.659.659 0 0 1 .578-.653V9.672z" class="prefix__cls-2" data-name="Path 3368" transform="translate(-126.583)"/>
        <path id="prefix__Path_3369" d="M307.657 90.653v5.491a2.8 2.8 0 1 0 0-5.491z" class="prefix__cls-3" data-name="Path 3369" transform="translate(-233.067 -78.227)"/>
        <path id="prefix__Path_3370" d="M310.137 91.383a2.936 2.936 0 0 0-2.481-.73v5.491a2.934 2.934 0 0 0 2.485-.73z" class="prefix__cls-4" data-name="Path 3370" transform="translate(-233.066 -78.227)"/>
        <path id="prefix__Path_3371" d="M181.262 96.025v-5.331a2.957 2.957 0 0 0-3.361 2.751 2.829 2.829 0 0 0 3.365 2.752c-.001-.057-.004-.114-.004-.172z" class="prefix__cls-3" data-name="Path 3371" transform="translate(-121.054 -78.273)"/>
        <path id="prefix__Path_3372" d="M181.262 95.2a2.759 2.759 0 0 1-.624-1.753 2.588 2.588 0 0 1 .624-1.672V90.7a2.957 2.957 0 0 0-3.361 2.751 2.829 2.829 0 0 0 3.365 2.752V95.2z" class="prefix__cls-4" data-name="Path 3372" transform="translate(-121.054 -78.274)"/>
        <path id="prefix__Path_3373" d="M230.175 171.295a7.461 7.461 0 0 1-4.059-1.147v3.963l4.042 4.989 4.042-4.989v-4.07a7.065 7.065 0 0 1-4.025 1.254z" class="prefix__cls-3" data-name="Path 3373" transform="translate(-162.678 -146.793)"/>
        <path id="prefix__Path_3374" d="M229.123 171.9a7.3 7.3 0 0 1-3.007-1.079v3.963l3.007 3.712z" class="prefix__cls-4" data-name="Path 3374" transform="translate(-162.678 -147.469)"/>
        <path id="prefix__Path_3375" d="M152.478 201.465l-10.692-4.141-4.042 4.989-4.042-4.989-10.681 4.141a6.775 6.775 0 0 0-3.955 6.134v17.686a1.318 1.318 0 0 0 1.318 1.318h34.73a1.318 1.318 0 0 0 1.318-1.318V207.6a6.775 6.775 0 0 0-3.954-6.135z" class="prefix__cls-5" data-name="Path 3375" transform="translate(-70.264 -170.346)"/>
        <path id="prefix__Path_3376" d="M122.075 247.575v-19.189a6.537 6.537 0 0 1 2.522-5.241l-1.575.611a6.775 6.775 0 0 0-3.955 6.134v17.686a1.318 1.318 0 0 0 1.318 1.318h3.007a1.318 1.318 0 0 1-1.317-1.319z" class="prefix__cls-6" data-name="Path 3376" transform="translate(-70.265 -192.637)"/>
        <path id="prefix__Path_3377" d="M214.3 61.6a.659.659 0 0 0-.843-.1 17.317 17.317 0 0 1-10.423 2.8.659.659 0 0 0-.707.657v5.778a7.21 7.21 0 0 0 14.418 0v-6.249c-.002-.345.012-.243-2.445-2.886z" class="prefix__cls-3" data-name="Path 3377" transform="translate(-142.139 -52.996)"/>
        <path id="prefix__Path_3378" d="M205.338 89v-6.447a15.236 15.236 0 0 1-2.306.013.659.659 0 0 0-.706.657V89a7.3 7.3 0 0 0 8.715 6.966A7.117 7.117 0 0 1 205.338 89z" class="prefix__cls-4" data-name="Path 3378" transform="translate(-142.14 -71.266)"/>
        <g id="prefix__Group_465" data-name="Group 465" transform="translate(59.583 26.978)">
            <path id="prefix__Path_3379" d="M260.557 204.876l3.022-6.057-3.861-1.5-4.042 4.989 3.941 2.8a.637.637 0 0 0 .94-.232z" class="prefix__cls-6" data-name="Path 3379" transform="translate(-247.78 -197.324)"/>
            <path id="prefix__Path_3380" d="M200.941 204.876l-3.022-6.057 3.861-1.5 4.042 4.989-3.941 2.8a.637.637 0 0 1-.94-.232z" class="prefix__cls-6" data-name="Path 3380" transform="translate(-197.919 -197.324)"/>
        </g>
        <path id="prefix__Path_3381" d="M233.827 278.754l-2.594-15.354h-3.027l-2.594 15.351a.668.668 0 0 0 .154.535l3.581 3.946a.5.5 0 0 0 .744 0l3.581-3.946a.668.668 0 0 0 .155-.532z" data-name="Path 3381" transform="translate(-162.236 -227.391)" style="fill:#ff5050"/>
        <g id="prefix__Group_466" data-name="Group 466" transform="translate(63.368 31.967)">
            <path id="prefix__Path_3382" d="M228.777 279.29a.668.668 0 0 1-.154-.535l2.594-15.351H228.2l-2.594 15.351a.667.667 0 0 0 .154.535l3.581 3.946a.5.5 0 0 0 .744 0l1.134-1.25z" class="prefix__cls-8" data-name="Path 3382" transform="translate(-225.603 -259.359)"/>
            <path id="prefix__Path_3383" d="M237.588 233.817l-2.866 2.035 1.355 2.039h3.023l1.355-2.039z" class="prefix__cls-8" data-name="Path 3383" transform="translate(-233.471 -233.814)"/>
        </g>
        <path id="prefix__Path_3384" d="M239.089 234.884l-1.5-1.066-2.866 2.035 1.355 2.039h3.008l-1.163-1.75a.357.357 0 0 1 .091-.489z" data-name="Path 3384" transform="translate(-170.103 -201.847)" style="fill:#db2a2a"/>
        <g id="prefix__Group_467" data-name="Group 467" transform="translate(54.242 38.166)">
            <path id="prefix__Path_3385" d="M161.1 297.248v-16.962a1.128 1.128 0 0 0-2.256 0v16.962z" class="prefix__cls-6" data-name="Path 3385" transform="translate(-158.848 -279.158)"/>
            <path id="prefix__Path_3386" d="M337.012 297.248v-16.962a1.128 1.128 0 0 0-2.256 0v16.962z" class="prefix__cls-6" data-name="Path 3386" transform="translate(-310.706 -279.158)"/>
        </g>
        <g id="prefix__Group_468" data-name="Group 468" transform="translate(40.72 24.639)">
            <path id="prefix__Path_3387" d="M61 205.689a1.056 1.056 0 0 1-1.056-1.056v-15.957a1.057 1.057 0 0 1 .216-.641l5.645-7.4a1.056 1.056 0 1 1 1.68 1.281l-5.429 7.118v15.6A1.056 1.056 0 0 1 61 205.689z" class="prefix__cls-5" data-name="Path 3387" transform="translate(-59.947 -180.217)"/>
            <path id="prefix__Path_3388" d="M402.009 205.688a1.056 1.056 0 0 1-1.056-1.056v-15.6l-5.429-7.118a1.056 1.056 0 1 1 1.68-1.281l5.645 7.4a1.056 1.056 0 0 1 .216.641v15.957a1.057 1.057 0 0 1-1.056 1.057z" class="prefix__cls-5" data-name="Path 3388" transform="translate(-349.458 -180.216)"/>
        </g>
        <g id="prefix__Group_469" data-name="Group 469" transform="translate(46.282 20.658)">
            <circle id="prefix__Ellipse_597" cx="2.807" cy="2.807" r="2.807" class="prefix__cls-1" data-name="Ellipse 597"/>
            <circle id="prefix__Ellipse_598" cx="2.807" cy="2.807" r="2.807" class="prefix__cls-1" data-name="Ellipse 598" transform="translate(36.87)"/>
        </g>
        <g id="prefix__Group_470" data-name="Group 470" transform="translate(46.283 20.658)">
            <path id="prefix__Path_3389" d="M103.462 153.906a2.8 2.8 0 0 1 1.393-2.422 2.807 2.807 0 1 0 0 4.844 2.8 2.8 0 0 1-1.393-2.422z" class="prefix__cls-2" data-name="Path 3389" transform="translate(-100.635 -151.099)"/>
            <path id="prefix__Path_3390" d="M373.133 153.906a2.8 2.8 0 0 1 1.393-2.422 2.807 2.807 0 1 0 0 4.844 2.8 2.8 0 0 1-1.393-2.422z" class="prefix__cls-2" data-name="Path 3390" transform="translate(-333.437 -151.099)"/>
        </g>
        <path id="prefix__Path_3391" d="M54.74 402.123V416a1.144 1.144 0 0 0 1.144 1.144h52.745a1.143 1.143 0 0 0 1.143-1.144v-13.877z" data-name="Path 3391" transform="translate(-14.732 -347.145)" style="fill:#868b9b"/>
        <g id="prefix__Group_471" data-name="Group 471" transform="translate(37.675 47.927)">
            <path id="prefix__Path_3392" d="M57.557 416v-13.877H54.74V416a1.144 1.144 0 0 0 1.144 1.144H58.7A1.144 1.144 0 0 1 57.557 416z" class="prefix__cls-1" data-name="Path 3392" transform="translate(-52.407 -395.073)"/>
            <path id="prefix__Path_3393" d="M96.131 358.59H38.917a1.242 1.242 0 0 1-1.242-1.242V351.8a1.242 1.242 0 0 1 1.242-1.242h57.214a1.242 1.242 0 0 1 1.242 1.242v5.552a1.242 1.242 0 0 1-1.242 1.238z" class="prefix__cls-1" data-name="Path 3393" transform="translate(-37.675 -350.554)"/>
        </g>
        <path id="prefix__Path_3394" d="M96.094 380.649H38.955a1.28 1.28 0 0 1-1.28-1.28v2.817a1.28 1.28 0 0 0 1.28 1.28h57.139a1.28 1.28 0 0 0 1.28-1.28v-2.817a1.28 1.28 0 0 1-1.28 1.28z" class="prefix__cls-2" data-name="Path 3394" transform="translate(0 -327.502)"/>
    </g>
</svg>
