<svg xmlns="http://www.w3.org/2000/svg" id="prefix__online-learning" width="70" height="70" viewBox="0 0 70 70">
    <defs>
        <style>
            .prefix__cls-6{fill:#6c6c6c}.prefix__cls-7{fill:#404040}
        </style>
    </defs>
    <path id="prefix__Path_3334" d="M159.553 214.56a15.071 15.071 0 0 0-12.1-5.56h-2.183a15.071 15.071 0 0 0-12.1 5.56 20.366 20.366 0 0 0-4.173 12.9 2.051 2.051 0 0 0 2.051 2.051h30.625a2.051 2.051 0 0 0 2.051-2.051 20.366 20.366 0 0 0-4.171-12.9z" data-name="Path 3334" transform="translate(-111.363 -180.426)" style="fill:#b9dd39"/>
    <path id="prefix__Path_3336" d="M124.75 305H85.1a4.106 4.106 0 0 0-4.1 4.1v22.15a2.051 2.051 0 0 0 2.051 2.051H126.8a2.051 2.051 0 0 0 2.051-2.051V309.1a4.106 4.106 0 0 0-4.101-4.1z" data-name="Path 3336" transform="translate(-69.926 -263.301)" style="fill:#f5f0eb"/>
    <path id="prefix__Path_3337" d="M275.824 305H256v28.3h21.875a2.051 2.051 0 0 0 2.051-2.051V309.1a4.106 4.106 0 0 0-4.102-4.1z" data-name="Path 3337" transform="translate(-221 -263.301)" style="fill:#dad0cb"/>
    <path id="prefix__Path_3338" d="M179.223 3.676a14.587 14.587 0 0 0-19.362 0c-2.662 2.658-4.011 6.466-4.011 11.318 0 8.126 5.981 17.573 13.693 17.573s13.692-9.447 13.692-17.573c0-4.852-1.35-8.66-4.011-11.318z" data-name="Path 3338" transform="translate(-134.542)" style="fill:#fed2a4"/>
    <path id="prefix__Path_3340" d="M183.235 14.993q0-.982-.075-1.906v-.007c-.345-4.26-1.846-7.591-4.46-9.9A13.558 13.558 0 0 0 169.542 0a13.329 13.329 0 0 0-9.681 3.676c-2.635 2.63-3.983 6.386-4.01 11.167v.583a.024.024 0 0 0 0 .014 17.839 17.839 0 0 0 .161 1.967h1.888c8.68 0 11.654-2.349 13.431-3.752.234-.185.536-.422.722-.536.165.07.407.19.614.293a17 17 0 0 0 8.269 1.883h2.286c.009-.095.013-.201.013-.302z" data-name="Path 3340" transform="translate(-134.542)" style="fill:#ff712f"/>
    <path id="prefix__Path_3342" d="M67.949 486.1H2.051a2.051 2.051 0 0 1 0-4.1h65.9a2.051 2.051 0 0 1 0 4.1z" class="prefix__cls-6" data-name="Path 3342" transform="translate(0 -416.102)"/>
    <path id="prefix__Path_3343" d="M288.949 482H256v4.1h32.949a2.051 2.051 0 0 0 0-4.1z" class="prefix__cls-7" data-name="Path 3343" transform="translate(-221 -416.102)"/>
    <circle id="prefix__Ellipse_596" cx="2.051" cy="2.051" r="2.051" class="prefix__cls-6" data-name="Ellipse 596" transform="translate(32.949 52.637)"/>
    <path id="prefix__Path_3344" d="M258.051 387.051A2.051 2.051 0 0 0 256 385v4.1a2.051 2.051 0 0 0 2.051-2.049z" class="prefix__cls-7" data-name="Path 3344" transform="translate(-221 -332.363)"/>
</svg>
