<svg xmlns="http://www.w3.org/2000/svg" width="44.23" height="70" viewBox="0 0 44.23 70">
    <defs>
        <style>
            .prefix__cls-6{fill:#e6485d}.prefix__cls-9{fill:#ffc4ad}.prefix__cls-10{fill:#ffb69f}.prefix__cls-14{fill:#253847}.prefix__cls-15{fill:#4ea1f4}.prefix__cls-16{fill:#3292e0}
        </style>
    </defs>
    <g id="prefix__student" transform="translate(-94.246 -.002)">
        <g id="prefix__Group_464" data-name="Group 464" transform="translate(94.246 .002)">
            <path id="prefix__Path_3345" d="M137.158 356.567H95.564l-1.318-1.318v-9.141a17.011 17.011 0 0 1 5.594-12.63h33.041a17.011 17.011 0 0 1 5.594 12.63v9.141z" data-name="Path 3345" transform="translate(-94.246 -287.885)" style="fill:#86dcff"/>
            <path id="prefix__Path_3346" d="M94.978 495.356h6.975l1.025-1.23 1.025 1.23h24.713l1.025-1.23 1.025 1.23h6.975a.732.732 0 0 0 .732-.732v-1.9H94.246v1.9a.732.732 0 0 0 .732.732z" data-name="Path 3346" transform="translate(-94.246 -425.356)" style="fill:#56caed"/>
            <path id="prefix__Path_3347" d="M187.169 315.531l11.025-12.131-.073-1.238a17.012 17.012 0 0 0-5.892-1.046h-10.12a17.014 17.014 0 0 0-5.841 1.027l.057 1.457z" data-name="Path 3347" transform="translate(-165.054 -259.947)" style="fill:#e4eef9"/>
            <path id="prefix__Path_3348" d="M165.032 308.773a17.008 17.008 0 0 0-1.72.743l.453 1.949 12.219 13.313 12.343-13.449.329-1.812a16.972 16.972 0 0 0-1.72-.743l-10.41 11.455a.732.732 0 0 1-1.084 0z" data-name="Path 3348" transform="translate(-153.869 -266.558)" style="fill:#d5e0f2"/>
            <path id="prefix__Path_3349" d="M234.7 338.513l3.1-3.413.272-1.617-.808-4.428-2.566-1.318-2.566 1.318-.808 4.428.272 1.617z" data-name="Path 3349" transform="translate(-212.584 -282.929)" style="fill:#ff5876"/>
            <path id="prefix__Path_3350" d="M235.3 306.074h-5.131l-1.119-4.958h7.37z" class="prefix__cls-6" data-name="Path 3350" transform="translate(-210.618 -259.948)"/>
            <path id="prefix__Path_3351" d="M235.942 371.961l-.4-2.2-2.832 3.116a.732.732 0 0 1-1.084 0l-2.832-3.116-.4 2.2 3.774 6.789z" class="prefix__cls-6" data-name="Path 3351" transform="translate(-210.053 -319.212)"/>
            <path id="prefix__Path_3352" d="M147.693 314.21a17.083 17.083 0 0 0-2.474 1.511l.168 1.5 13.352 14.692a2.2 2.2 0 0 0 3.251 0l13.5-14.851.024-1.344a17.086 17.086 0 0 0-2.474-1.511L160.871 327.6a.684.684 0 0 1-1.012 0z" data-name="Path 3352" transform="translate(-138.25 -271.252)" style="fill:#ffcf4d"/>
            <path id="prefix__Path_3353" d="M153.31 340.139a2.2 2.2 0 0 1-3.251 0l-13.52-14.877a17.072 17.072 0 0 0-1.375 1.123l14.9 16.389a2.2 2.2 0 0 0 3.251 0l14.895-16.389a17.1 17.1 0 0 0-1.375-1.123z" data-name="Path 3353" transform="translate(-129.57 -280.793)" style="fill:#ffb629"/>
            <path id="prefix__Path_3354" d="M125.035 172.328l-1.318-3.548a4.667 4.667 0 0 0-.477-.024 4.617 4.617 0 0 0-4.408 3.244 4.212 4.212 0 0 0 4.408 4.67l.513-1.347z" class="prefix__cls-9" data-name="Path 3354" transform="translate(-115.444 -145.684)"/>
            <path id="prefix__Path_3355" d="M122.122 196.172a4.617 4.617 0 0 1-4.423-3.3 4.618 4.618 0 0 0 5.364 5.837l1.053-1.222-1.48-1.347a4.617 4.617 0 0 1-.514.032z" class="prefix__cls-10" data-name="Path 3355" transform="translate(-114.326 -166.505)"/>
            <path id="prefix__Path_3356" d="M347.6 172.328l1.318-3.548a4.667 4.667 0 0 1 .477-.024 4.617 4.617 0 0 1 4.412 3.244 4.212 4.212 0 0 1-4.408 4.67l-.513-1.347z" class="prefix__cls-9" data-name="Path 3356" transform="translate(-312.965 -145.684)"/>
            <path id="prefix__Path_3357" d="M348.147 196.172a4.617 4.617 0 0 0 4.423-3.3 4.618 4.618 0 0 1-5.364 5.837l-1.053-1.222 1.48-1.347a4.617 4.617 0 0 0 .514.032z" class="prefix__cls-10" data-name="Path 3357" transform="translate(-311.712 -166.505)"/>
            <path id="prefix__Path_3358" d="M154.756 64.99v18.441a13.842 13.842 0 1 0 27.684 0V64.99z" data-name="Path 3358" transform="translate(-146.483 -56.105)" style="fill:#ffe0cc"/>
            <path id="prefix__Path_3359" d="M168.6 204.073a13.842 13.842 0 0 1-13.842-13.842v2.636a13.842 13.842 0 0 0 27.684 0v-2.636a13.842 13.842 0 0 1-13.842 13.842z" data-name="Path 3359" transform="translate(-146.483 -164.223)" style="fill:#ffceb3"/>
            <path id="prefix__Path_3360" d="M144.442 18.684a62.556 62.556 0 0 1-4.65-4.457c-3.952 3.177-6.923 3.456-6.923 3.456l-2.9-2.835a22.488 22.488 0 0 1-12.2 4.417 2.6 2.6 0 0 1-.7-.114 9.111 9.111 0 0 1-4.992-3.306s-.423-.962.245-1.091a6.745 6.745 0 0 0 4.729-3.071 5.28 5.28 0 0 1-5.551-4.357.734.734 0 0 1 .772-.911c7.273.572 9.038-3.91 15.877-5.93 7.127-2.1 12.173 3.331 12.173 3.331s7.223-.7 7.843 6.666c.594 7.039-3.723 8.202-3.723 8.202z" data-name="Path 3360" transform="translate(-109.123 -.002)" style="fill:#2d4456"/>
            <g id="prefix__Group_463" data-name="Group 463" transform="translate(1.738 10.64)">
                <path id="prefix__Path_3361" d="M261.291 84.6a18.451 18.451 0 0 1-4.18-4.829.733.733 0 0 0-1.2-.045c-2.993 3.865-9.223 2.313-9.223 2.313a7.3 7.3 0 0 1 1.527 4.074.732.732 0 0 0 .894.721 11.048 11.048 0 0 0 7.407-5.416s2.236 4.02 4.776 5.817a.731.731 0 0 0 .956-.1c.951-1.015 3.061-3.911 2.653-9.3a10.9 10.9 0 0 1-2.652 6.667.731.731 0 0 1-.958.098z" class="prefix__cls-14" data-name="Path 3361" transform="translate(-227.583 -77.829)"/>
                <path id="prefix__Path_3362" d="M126.217 96.93a.729.729 0 0 0-1.225-.634 16.28 16.28 0 0 1-11.127 4.6 2.6 2.6 0 0 1-.7-.114 13.046 13.046 0 0 1-4.747-3.08c-.255.049-.522.089-.8.119a.732.732 0 0 0-.469 1.218c1.267 1.4 3.589 3.636 6.018 4.38a2.6 2.6 0 0 0 .7.114 16.333 16.333 0 0 0 12.2-5.735c.068-.329.118-.616.155-.868z" class="prefix__cls-14" data-name="Path 3362" transform="translate(-106.959 -93.593)"/>
            </g>
            <path id="prefix__Path_3363" d="M152.671 431.505v7.484l-1.025 1.318-1.025-1.318v-7.484a1.025 1.025 0 0 1 2.051 0z" class="prefix__cls-15" data-name="Path 3363" transform="translate(-142.913 -371.625)"/>
            <path id="prefix__Path_3364" d="M150.62 492.72h2.051v2.636h-2.051z" class="prefix__cls-16" data-name="Path 3364" transform="translate(-142.913 -425.356)"/>
            <path id="prefix__Path_3365" d="M348.431 431.505v7.484l-1.025 1.318-1.025-1.318v-7.484a1.025 1.025 0 0 1 2.051 0z" class="prefix__cls-15" data-name="Path 3365" transform="translate(-311.908 -371.625)"/>
            <path id="prefix__Path_3366" d="M346.38 492.72h2.051v2.636h-2.051z" class="prefix__cls-16" data-name="Path 3366" transform="translate(-311.908 -425.356)"/>
        </g>
    </g>
</svg>
