<svg xmlns="http://www.w3.org/2000/svg" width="36.863" height="48.394" viewBox="0 0 36.863 48.394">
    <defs>
        <style>
            .cls-1{fill:#896748}.cls-2{fill:#73553a}.cls-3{fill:#e5e5e5}.cls-4{fill:#d9d9d9}.cls-5{fill:#fea832}.cls-6{fill:#fe9923}.cls-7{fill:#13c37b}.cls-8{fill:#97a1ed}
        </style>
    </defs>
    <g id="clipboard_1_" data-name="clipboard (1)" transform="translate(-61)">
        <path id="Path_2313" d="M93.61 60H65.253A4.248 4.248 0 0 0 61 64.253V98.47a4.248 4.248 0 0 0 4.253 4.253H93.61a4.248 4.248 0 0 0 4.253-4.253V64.253A4.248 4.248 0 0 0 93.61 60z" class="cls-1" data-name="Path 2313" transform="translate(0 -54.329)"/>
        <path id="Path_2314" d="M274.431 64.253V98.47a4.248 4.248 0 0 1-4.253 4.253H256V60h14.178a4.248 4.248 0 0 1 4.253 4.253z" class="cls-2" data-name="Path 2314" transform="translate(-176.568 -54.329)"/>
        <path id="Path_2315" d="M120.774 90H92.418A1.4 1.4 0 0 0 91 91.418v34.216a1.4 1.4 0 0 0 1.418 1.418h28.356a1.4 1.4 0 0 0 1.418-1.418V91.418A1.4 1.4 0 0 0 120.774 90z" class="cls-3" data-name="Path 2315" transform="translate(-27.164 -81.493)"/>
        <path id="Path_2316" d="M271.6 91.418v34.216a1.4 1.4 0 0 1-1.418 1.418H256V90h14.178a1.4 1.4 0 0 1 1.422 1.418z" class="cls-4" data-name="Path 2316" transform="translate(-176.568 -81.493)"/>
        <path id="Path_2317" d="M183.014 5.671v2.836H166V5.671a2.844 2.844 0 0 1 2.836-2.836h2.836a2.836 2.836 0 1 1 5.671 0h2.836a2.844 2.844 0 0 1 2.835 2.836z" class="cls-5" data-name="Path 2317" transform="translate(-95.075)"/>
        <path id="Path_2318" d="M264.507 5.671v2.836H256V0a2.844 2.844 0 0 1 2.836 2.836h2.836a2.844 2.844 0 0 1 2.835 2.835z" class="cls-6" data-name="Path 2318" transform="translate(-176.568)"/>
        <g id="Group_1436" data-name="Group 1436" transform="translate(66.671 14.367)">
            <path id="Path_2319" d="M125.254 265.507a1.413 1.413 0 0 1-1-.415l-2.836-2.836a1.418 1.418 0 1 1 2-2l1.833 1.833 4.669-4.669a1.418 1.418 0 0 1 2 2.005l-5.671 5.671a1.413 1.413 0 0 1-.995.411z" class="cls-7" data-name="Path 2319" transform="translate(-121.001 -247.075)"/>
            <path id="Path_2320" d="M125.254 160.507a1.413 1.413 0 0 1-1-.415l-2.836-2.836a1.418 1.418 0 0 1 2-2l1.833 1.833 4.669-4.669a1.418 1.418 0 0 1 2 2l-5.671 5.671a1.413 1.413 0 0 1-.995.416z" class="cls-7" data-name="Path 2320" transform="translate(-121.001 -152)"/>
            <path id="Path_2321" d="M125.254 370.507a1.413 1.413 0 0 1-1-.415l-2.836-2.836a1.418 1.418 0 0 1 2-2l1.833 1.833 4.669-4.669a1.418 1.418 0 0 1 2 2.005l-5.671 5.671a1.414 1.414 0 0 1-.995.411z" class="cls-7" data-name="Path 2321" transform="translate(-121.001 -342.15)"/>
        </g>
        <g id="Group_1437" data-name="Group 1437" transform="translate(80.849 17.203)">
            <path id="Path_2322" d="M280.925 184.836h-8.507a1.418 1.418 0 1 1 0-2.836h8.507a1.418 1.418 0 1 1 0 2.836z" class="cls-8" data-name="Path 2322" transform="translate(-271 -182)"/>
            <path id="Path_2323" d="M280.925 394.836h-8.507a1.418 1.418 0 1 1 0-2.836h8.507a1.418 1.418 0 1 1 0 2.836z" class="cls-8" data-name="Path 2323" transform="translate(-271 -372.151)"/>
            <path id="Path_2324" d="M280.925 289.836h-8.507a1.418 1.418 0 1 1 0-2.836h8.507a1.418 1.418 0 1 1 0 2.836z" class="cls-8" data-name="Path 2324" transform="translate(-271 -277.075)"/>
        </g>
    </g>
</svg>
