<svg xmlns="http://www.w3.org/2000/svg" width="61" height="55" viewBox="0 0 61 55">
    <path id="prefix__Polygon_3" d="M28.57 7.1a2 2 0 0 1 3.86 0l3.744 13.775a2 2 0 0 0 2.047 1.472l14.685-.864a2 2 0 0 1 1.15 3.709l-12.209 7.36a2 2 0 0 0-.814 2.482l5.378 12.909a2 2 0 0 1-3.079 2.344l-11.6-9.081a2 2 0 0 0-2.466 0l-11.6 9.081a2 2 0 0 1-3.079-2.344l5.378-12.909a2 2 0 0 0-.814-2.482L6.944 25.194a2 2 0 0 1 1.15-3.709l14.685.864a2 2 0 0 0 2.047-1.472z" data-name="Polygon 3" style="fill:#38bdba"/>
</svg>
