<svg xmlns="http://www.w3.org/2000/svg" width="9.288" height="13" viewBox="0 0 9.288 13">
    <path id="prefix__Icon_ionic-md-keypad" d="M11.394 12.887a1.181 1.181 0 1 0 1.175 1.181 1.181 1.181 0 0 0-1.175-1.181zM7.925 2.25A1.181 1.181 0 1 0 9.1 3.431 1.181 1.181 0 0 0 7.925 2.25zm0 3.547A1.181 1.181 0 1 0 9.1 6.978 1.181 1.181 0 0 0 7.925 5.8zm0 3.547A1.181 1.181 0 1 0 9.1 10.525a1.181 1.181 0 0 0-1.175-1.181zm6.937-4.728a1.183 1.183 0 1 0-1.175-1.184 1.181 1.181 0 0 0 1.175 1.183zm-3.468 4.728a1.181 1.181 0 1 0 1.175 1.181 1.181 1.181 0 0 0-1.175-1.181zm3.468 0a1.181 1.181 0 1 0 1.175 1.181 1.181 1.181 0 0 0-1.175-1.181zm0-3.547a1.181 1.181 0 1 0 1.175 1.181A1.181 1.181 0 0 0 14.862 5.8zm-3.468 0a1.181 1.181 0 1 0 1.175 1.181A1.181 1.181 0 0 0 11.394 5.8zm0-3.547a1.181 1.181 0 1 0 1.175 1.181 1.181 1.181 0 0 0-1.175-1.181z" data-name="Icon ionic-md-keypad" transform="translate(-6.75 -2.25)" style="opacity:.4"/>
</svg>
