<svg xmlns="http://www.w3.org/2000/svg" width="41.995" height="41.98" viewBox="0 0 41.995 41.98">
    <defs>
        <style>
            .cls-1{fill:#e64c3c}.cls-2{fill:#4482c3}.cls-3{fill:#fdd7ad}.cls-4{fill:#c03a2b}.cls-5{fill:#f0c419}.cls-6{fill:#b19046}.cls-7{fill:#e6e7e8}.cls-8{fill:#2c2f38}.cls-9{fill:#95a5a5}.cls-10{fill:#805333}.cls-11{fill:#603e26}.cls-12{fill:#bdc3c7}.cls-13{fill:#f3d55b}.cls-14{fill:#e57e25}
        </style>
    </defs>
    <g id="Page-1" transform="translate(0 -.02)">
        <g id="_035---Creative-Thinking" data-name="035---Creative-Thinking" transform="translate(0 .02)">
            <path id="Shape" d="M51.89 24.734q-.145.3-.282.652l-3.4 8.2-3.932-5.64 1.977-4.779c.087-.217.174-.427.246-.623z" class="cls-1" transform="translate(-12.219 -6.234)"/>
            <path id="Shape-2" d="M37.6 21.96a43.66 43.66 0 0 1-.442 4.344l-5.054.818a35.746 35.746 0 0 1 .1-5.5v-.002z" class="cls-2" data-name="Shape" transform="translate(-8.843 -5.98)"/>
            <path id="Shape-3" d="M20.64 8.014s.637 5.635-1.477 6.127S15 9.339 15 9.339l.138-3.707c.6.217.668-2.268 1.341-2.427s1.953 2.014 2.4 1.551z" class="cls-3" data-name="Shape" transform="translate(-4.139 -.897)"/>
            <path id="Shape-4" d="M24.449 26.134l-1.484 4.822-.405-.348-3.772-3.273L15 11.175a3.224 3.224 0 0 0 3.316 1.448A3.231 3.231 0 0 0 20.64 9.85z" class="cls-1" data-name="Shape" transform="translate(-4.139 -2.733)"/>
            <path id="Shape-5" d="M22.559 31.114l-3.772-3.273L15 11.68a3.224 3.224 0 0 0 3.316 1.448z" class="cls-4" data-name="Shape" transform="translate(-4.139 -3.238)"/>
            <path id="Shape-6" d="M11.657 30.551l-.058 9-5.712-2.115L.109 23.5a.724.724 0 0 1 .391-.95l6.024-2.491a.73.73 0 0 1 .949.391l.55 1.339.275.666.275.666.558 1.339.275.666.282.673.55 1.339.275.666.275.666.84 2.013z" class="cls-5" data-name="Shape" transform="translate(-.014 -5.535)"/>
            <path id="Shape-7" d="M10.168 23.8L6.83 25.192a.776.776 0 0 1-.282.051.724.724 0 0 1-.275-1.39l3.344-1.383.275.666z" class="cls-6" data-name="Shape" transform="translate(-1.609 -6.215)"/>
            <path id="Shape-8" d="M12.215 27.5l-2.013.833a.713.713 0 0 1-.275.051.724.724 0 0 1-.275-1.39l2.006-.833.275.666z" class="cls-6" data-name="Shape" transform="translate(-2.542 -7.233)"/>
            <path id="Shape-9" d="M13.228 31.192l-3.338 1.39a.765.765 0 0 1-.275.051.724.724 0 0 1-.282-1.39l3.345-1.383.275.666z" class="cls-6" data-name="Shape" transform="translate(-2.454 -8.254)"/>
            <path id="Shape-10" d="M41.995 44.653a5.068 5.068 0 0 1-5.068 5.068H5.068a5.068 5.068 0 0 1 0-10.137 5 5 0 0 1 1.448.21 7.6 7.6 0 0 1 12.164-5.93A9.051 9.051 0 0 1 36.2 37.05a8.939 8.939 0 0 1-.4 2.657 5.223 5.223 0 0 1 1.122-.123 5.068 5.068 0 0 1 5.068 5.068z" class="cls-7" data-name="Shape" transform="translate(0 -7.741)"/>
            <path id="Shape-11" d="M18.926 3.879a3.67 3.67 0 0 1-1.716 1.1 3.675 3.675 0 0 1-2.02-.224l.138-3.823a.95.95 0 0 1 .724-.891 1.034 1.034 0 0 1 .21-.022.951.951 0 0 1 .84.5z" class="cls-8" data-name="Shape" transform="translate(-4.192 -.02)"/>
            <path id="Shape-12" d="M37.664 20.622a23.879 23.879 0 0 1-5.394-.34 52.18 52.18 0 0 1 .456-3.512c1.629.1 3.273.2 4.945.3a32.218 32.218 0 0 1-.007 3.552z" class="cls-9" data-name="Shape" transform="translate(-8.905 -4.642)"/>
            <path id="Shape-13" d="M32.375 12.362s-2.913-2.641-.275-5.554c2.2-2.421 3.068-4.074 3.012-5.641A.358.358 0 0 1 35.724.9c1.783 1.746 5.806 6.619 1.553 11.766" class="cls-10" data-name="Shape" transform="translate(-8.553 -.234)"/>
            <path id="Shape-14" d="M37.409 12.755a.724.724 0 0 1-.579-1.155 4.022 4.022 0 0 0 .72-3.019.724.724 0 1 1 1.4-.373 5.431 5.431 0 0 1-.963 4.263.724.724 0 0 1-.578.284z" class="cls-11" data-name="Shape" transform="translate(-10.123 -2.126)"/>
            <path id="Shape-15" d="M24.391 49.515a.724.724 0 0 1-.666-.44 4.4 4.4 0 0 1-.355-1.732 4.344 4.344 0 0 1 8.276-1.851.724.724 0 1 1-1.311.617 2.867 2.867 0 0 0-2.621-1.662 2.9 2.9 0 0 0-2.9 2.9 2.95 2.95 0 0 0 .239 1.164.724.724 0 0 1-.382.95.716.716 0 0 1-.28.054z" class="cls-12" data-name="Shape" transform="translate(-6.449 -11.879)"/>
            <path id="Shape-16" d="M38.038 48.135a.724.724 0 0 1-.659-.424 2.172 2.172 0 0 0-1.969-1.263 2.135 2.135 0 0 0-1.344.472.724.724 0 0 1-.9-1.132A3.567 3.567 0 0 1 35.41 45a3.62 3.62 0 0 1 3.29 2.111.724.724 0 0 1-.659 1.025z" class="cls-12" data-name="Shape" transform="translate(-9.076 -12.432)"/>
            <path id="Shape-17" d="M13.724 42.344A.724.724 0 0 1 13 41.62a3.929 3.929 0 0 1 2.667-3.583.726.726 0 0 1 .462 1.376 2.489 2.489 0 0 0-1.681 2.208.724.724 0 0 1-.724.723z" class="cls-12" data-name="Shape" transform="translate(-3.587 -10.5)"/>
            <path id="Shape-18" d="M30.724 35.344a.709.709 0 0 1-.177-.022.724.724 0 0 1-.526-.878A4.51 4.51 0 0 1 34.344 31a.724.724 0 1 1 0 1.448 3.088 3.088 0 0 0-2.918 2.352.724.724 0 0 1-.702.544z" class="cls-12" data-name="Shape" transform="translate(-8.278 -8.569)"/>
            <path id="Shape-19" d="M55.018 17.872a.379.379 0 0 1-.087.326 12.943 12.943 0 0 0-2.194 3.627 2.5 2.5 0 0 1-.854.413 3.566 3.566 0 0 1-2.375-.2c-.007 0-.007-.007-.014-.007a3.548 3.548 0 0 1-1.832-1.549 2.561 2.561 0 0 1-.311-.854 13.262 13.262 0 0 0 1.021-4.149.358.358 0 0 1 .174-.29l4.062-2.534L53.656 12l.282 1.209z" class="cls-5" data-name="Shape" transform="translate(-13.066 -3.326)"/>
            <path id="Shape-20" d="M53.656 12l-2.208 5.351h-.007l-1.933 4.692c-.007 0-.007-.007-.014-.007a3.548 3.548 0 0 1-1.832-1.549 2.561 2.561 0 0 1-.311-.854 13.262 13.262 0 0 0 1.021-4.149.358.358 0 0 1 .174-.29l4.062-2.534z" class="cls-13" data-name="Shape" transform="translate(-13.066 -3.326)"/>
            <path id="Shape-21" d="M55.327 13.209L53.77 16.96a.724.724 0 0 1-.666.449.686.686 0 0 1-.268-.058h-.007a.718.718 0 0 1-.449-.666.786.786 0 0 1 .058-.282l1.557-3.743 1.05-.66z" class="cls-14" data-name="Shape" transform="translate(-14.454 -3.326)"/>
        </g>
    </g>
</svg>
