<svg xmlns="http://www.w3.org/2000/svg" id="business-and-finance_1_" width="45.041" height="42.011" data-name="business-and-finance (1)" viewBox="0 0 45.041 42.011">
    <defs>
        <style>
            .cls-1{fill:#ffe773}.cls-2{fill:#4d4e59}.cls-3{fill:#fadf5a}.cls-4{fill:#ffec8f}
        </style>
    </defs>
    <g id="Group_2372" data-name="Group 2372" transform="translate(1.501 13.595)">
        <path id="Path_3478" d="M26.344 337.613v1.53a2.251 2.251 0 0 1-2.251 2.251h-5.841A2.251 2.251 0 0 1 16 339.143v-1.53a2.251 2.251 0 0 1 2.251-2.251h5.841a2.251 2.251 0 0 1 2.252 2.251z" class="cls-1" data-name="Path 3478" transform="translate(-16.001 -319.012)"/>
        <path id="Path_3479" d="M26.344 401.923v1.531a2.251 2.251 0 0 1-2.251 2.251h-5.841A2.251 2.251 0 0 1 16 403.454v-1.531a2.252 2.252 0 0 1 2.251-2.251h5.841a2.252 2.252 0 0 1 2.252 2.251z" class="cls-1" data-name="Path 3479" transform="translate(-16.001 -377.289)"/>
        <path id="Path_3480" d="M203.214 401.923v1.531a2.251 2.251 0 0 1-2.251 2.251h-5.841a2.251 2.251 0 0 1-2.251-2.251v-1.531a2.252 2.252 0 0 1 2.251-2.251h5.841a2.252 2.252 0 0 1 2.251 2.251z" class="cls-1" data-name="Path 3480" transform="translate(-176.279 -377.289)"/>
        <path id="Path_3481" d="M203.214 337.613v1.53a2.251 2.251 0 0 1-2.251 2.251h-5.841a2.251 2.251 0 0 1-2.251-2.251v-1.53a2.251 2.251 0 0 1 2.251-2.251h5.841a2.251 2.251 0 0 1 2.251 2.251z" class="cls-1" data-name="Path 3481" transform="translate(-176.279 -319.012)"/>
        <path id="Path_3482" d="M203.214 273.293v1.531a2.252 2.252 0 0 1-2.251 2.251h-5.841a2.252 2.252 0 0 1-2.251-2.251v-1.531a2.252 2.252 0 0 1 2.251-2.251h5.841a2.252 2.252 0 0 1 2.251 2.251z" class="cls-1" data-name="Path 3482" transform="translate(-176.279 -260.726)"/>
        <path id="Path_3483" d="M375.16 161.072a5.159 5.159 0 1 1-5.16 5.159 5.159 5.159 0 0 1 5.16-5.159z" class="cls-1" data-name="Path 3483" transform="translate(-336.793 -161.072)"/>
        <path id="Path_3484" d="M380.084 273.293v1.531a2.252 2.252 0 0 1-2.251 2.251h-5.84a2.252 2.252 0 0 1-2.251-2.251v-1.531a2.252 2.252 0 0 1 2.251-2.251h5.84a2.252 2.252 0 0 1 2.251 2.251z" class="cls-1" data-name="Path 3484" transform="translate(-336.557 -260.726)"/>
        <path id="Path_3485" d="M380.084 337.613v1.53a2.251 2.251 0 0 1-2.251 2.251h-5.84a2.251 2.251 0 0 1-2.251-2.251v-1.53a2.251 2.251 0 0 1 2.251-2.251h5.84a2.251 2.251 0 0 1 2.251 2.251z" class="cls-1" data-name="Path 3485" transform="translate(-336.557 -319.012)"/>
        <path id="Path_3486" d="M380.084 401.923v1.531a2.251 2.251 0 0 1-2.251 2.251h-5.84a2.251 2.251 0 0 1-2.251-2.251v-1.531a2.252 2.252 0 0 1 2.251-2.251h5.84a2.252 2.252 0 0 1 2.251 2.251z" class="cls-1" data-name="Path 3486" transform="translate(-336.557 -377.289)"/>
    </g>
    <path id="Path_3487" d="M41.792 16.165l-6.572.97a1.5 1.5 0 1 0 .438 2.97l2.4-.354A64.976 64.976 0 0 1 1.385 34.684a1.5 1.5 0 1 0 .232 2.993A67.984 67.984 0 0 0 39.85 22.165l-.187 1.306a1.5 1.5 0 1 0 2.972.425l.862-6.034a1.5 1.5 0 0 0-1.705-1.7z" class="cls-2" data-name="Path 3487" transform="translate(0 -16.148)"/>
    <path id="Path_3488" d="M42.884 355.007a2.251 2.251 0 0 1-2.251 2.251h-5.948a.464.464 0 0 1 .035-.927c.935.006 2.439-.009 4.974-.009a2.253 2.253 0 0 0 2.252-2.253v-.739a.464.464 0 0 1 .927-.029c.015.144.011 1.799.011 1.706z" class="cls-3" data-name="Path 3488" transform="translate(-31.04 -321.281)"/>
    <path id="Path_3489" d="M24.163 336.29c-.935-.006-2.439.009-4.975.009a2.251 2.251 0 0 0-2.251 2.251v.742a.464.464 0 0 1-.927.028c-.01-.12-.01-.03-.01-1.708a2.251 2.251 0 0 1 2.251-2.251h5.839a.468.468 0 1 1 .073.929z" class="cls-4" data-name="Path 3489" transform="translate(-14.497 -305.416)"/>
    <path id="Path_3490" d="M42.859 419.322a2.251 2.251 0 0 1-2.251 2.251h-5.841a.468.468 0 1 1-.072-.929c.935.006 2.439-.009 4.974-.009a2.253 2.253 0 0 0 2.252-2.253v-.739a.464.464 0 0 1 .927-.029c.016.146.011 1.802.011 1.708z" class="cls-3" data-name="Path 3490" transform="translate(-31.015 -379.563)"/>
    <path id="Path_3491" d="M24.163 400.605c-.935-.006-2.439.009-4.975.009a2.251 2.251 0 0 0-2.251 2.251v.742a.464.464 0 0 1-.927.028c-.01-.121-.01-.035-.01-1.708a2.251 2.251 0 0 1 2.251-2.251h5.839a.468.468 0 1 1 .073.929z" class="cls-4" data-name="Path 3491" transform="translate(-14.497 -363.698)"/>
    <path id="Path_3492" d="M219.729 419.322a2.251 2.251 0 0 1-2.251 2.251h-5.84a.468.468 0 1 1-.072-.929c.935.006 2.439-.009 4.974-.009a2.253 2.253 0 0 0 2.252-2.253v-.739a.464.464 0 0 1 .927-.029c.015.146.01 1.802.01 1.708z" class="cls-3" data-name="Path 3492" transform="translate(-191.293 -379.563)"/>
    <path id="Path_3493" d="M201.033 400.605c-.935-.006-2.439.009-4.975.009a2.251 2.251 0 0 0-2.251 2.251v.742a.464.464 0 0 1-.927.028c-.009-.121-.007-.031-.007-1.708a2.251 2.251 0 0 1 2.251-2.251h5.841a.468.468 0 1 1 .068.929z" class="cls-4" data-name="Path 3493" transform="translate(-174.775 -363.698)"/>
    <path id="Path_3494" d="M219.729 355.007a2.251 2.251 0 0 1-2.251 2.251h-5.84a.468.468 0 1 1-.072-.929c.935.006 2.439-.009 4.974-.009a2.253 2.253 0 0 0 2.252-2.253v-.739a.464.464 0 0 1 .927-.029c.015.145.01 1.801.01 1.708z" class="cls-3" data-name="Path 3494" transform="translate(-191.293 -321.281)"/>
    <path id="Path_3495" d="M201.033 336.29c-.935-.006-2.439.009-4.975.009a2.251 2.251 0 0 0-2.251 2.251v.742a.464.464 0 0 1-.927.028c-.009-.121-.007-.031-.007-1.708a2.251 2.251 0 0 1 2.251-2.251h5.841a.468.468 0 1 1 .068.929z" class="cls-4" data-name="Path 3495" transform="translate(-174.775 -305.416)"/>
    <path id="Path_3496" d="M219.729 290.692a2.251 2.251 0 0 1-2.251 2.251h-5.84a.468.468 0 1 1-.072-.929c.935.006 2.439-.009 4.974-.009a2.253 2.253 0 0 0 2.252-2.253v-.739a.464.464 0 0 1 .927-.029c.015.145.01 1.802.01 1.708z" class="cls-3" data-name="Path 3496" transform="translate(-191.293 -262.999)"/>
    <path id="Path_3497" d="M201.033 271.975c-.935-.006-2.439.009-4.975.009a2.251 2.251 0 0 0-2.251 2.251v.742a.464.464 0 0 1-.927.028c-.009-.121-.007-.031-.007-1.708a2.251 2.251 0 0 1 2.251-2.251h5.841a.468.468 0 1 1 .068.929z" class="cls-4" data-name="Path 3497" transform="translate(-174.775 -247.134)"/>
    <path id="Path_3498" d="M396.754 419.322a2.251 2.251 0 0 1-2.251 2.251h-5.948a.464.464 0 0 1 .035-.927c.935.006 2.439-.009 4.974-.009a2.253 2.253 0 0 0 2.252-2.253v-.739a.464.464 0 0 1 .927-.029c.015.144.011 1.8.011 1.706z" class="cls-3" data-name="Path 3498" transform="translate(-351.714 -379.563)"/>
    <path id="Path_3499" d="M378.033 400.605c-.935-.006-2.439.009-4.975.009a2.251 2.251 0 0 0-2.251 2.251v.742a.464.464 0 0 1-.927.028c-.009-.121-.007-.031-.007-1.708a2.251 2.251 0 0 1 2.251-2.251h5.841a.468.468 0 1 1 .068.929z" class="cls-4" data-name="Path 3499" transform="translate(-335.171 -363.698)"/>
    <path id="Path_3500" d="M396.73 355.007a2.251 2.251 0 0 1-2.251 2.251h-5.841a.468.468 0 1 1-.072-.929c.935.006 2.44-.009 4.974-.009a2.253 2.253 0 0 0 2.252-2.253v-.739a.464.464 0 0 1 .927-.029c.015.145.011 1.801.011 1.708z" class="cls-3" data-name="Path 3500" transform="translate(-351.689 -321.281)"/>
    <path id="Path_3501" d="M378.033 336.29c-.935-.006-2.439.009-4.975.009a2.251 2.251 0 0 0-2.251 2.251v.742a.464.464 0 0 1-.927.028c-.009-.121-.007-.031-.007-1.708a2.251 2.251 0 0 1 2.251-2.251h5.841a.468.468 0 1 1 .068.929z" class="cls-4" data-name="Path 3501" transform="translate(-335.171 -305.416)"/>
    <path id="Path_3502" d="M396.73 290.692a2.251 2.251 0 0 1-2.251 2.251h-5.841a.468.468 0 1 1-.072-.929c.935.006 2.44-.009 4.974-.009a2.253 2.253 0 0 0 2.252-2.253v-.739a.464.464 0 0 1 .927-.029c.015.145.011 1.802.011 1.708z" class="cls-3" data-name="Path 3502" transform="translate(-351.689 -262.999)"/>
    <path id="Path_3503" d="M378.033 271.975c-.935-.006-2.439.009-4.975.009a2.251 2.251 0 0 0-2.251 2.251v.742a.464.464 0 0 1-.927.028c-.009-.121-.007-.031-.007-1.708a2.251 2.251 0 0 1 2.251-2.251h5.841a.468.468 0 1 1 .068.929z" class="cls-4" data-name="Path 3503" transform="translate(-335.171 -247.134)"/>
    <path id="Path_3504" d="M377.531 161.672a.683.683 0 0 1-.363 1.28 5.167 5.167 0 0 0-5.337 5.336.682.682 0 0 1-1.279.353 5.161 5.161 0 0 1 6.98-6.969z" class="cls-4" data-name="Path 3504" transform="translate(-335.247 -147.478)"/>
    <path id="Path_3505" d="M410.266 207.588a.419.419 0 0 1 .084-.828 5.163 5.163 0 0 0 5.219-5.16.419.419 0 0 1 .827-.133 5.166 5.166 0 0 1-6.13 6.121z" class="cls-3" data-name="Path 3505" transform="translate(-371.479 -183.783)"/>
</svg>
