<svg xmlns="http://www.w3.org/2000/svg" id="settings_1_" width="42" height="42" data-name="settings (1)" viewBox="0 0 42 42">
    <defs>
        <style>
            .cls-1{fill:#e7eced}.cls-2{fill:#c7cac7}
        </style>
    </defs>
    <path id="Path_3530" d="M40.562 16.962H38.3a17.647 17.647 0 0 0-2.21-5.342l1.6-1.6a1.439 1.439 0 0 0 0-2.034l-3.68-3.675a1.439 1.439 0 0 0-2.034 0l-1.6 1.6A17.652 17.652 0 0 0 25.038 3.7V1.438A1.438 1.438 0 0 0 23.6 0h-5.2a1.438 1.438 0 0 0-1.438 1.438V3.7a17.647 17.647 0 0 0-5.342 2.21l-1.6-1.6a1.439 1.439 0 0 0-2.034 0L4.312 7.99a1.439 1.439 0 0 0 0 2.034l1.6 1.6A17.634 17.634 0 0 0 3.7 16.962H1.438A1.438 1.438 0 0 0 0 18.4v5.2a1.438 1.438 0 0 0 1.438 1.438H3.7a17.647 17.647 0 0 0 2.21 5.342l-1.6 1.6a1.439 1.439 0 0 0 0 2.034l3.68 3.674a1.439 1.439 0 0 0 2.034 0l1.6-1.6a17.667 17.667 0 0 0 5.338 2.212v2.259A1.437 1.437 0 0 0 18.4 42h5.2a1.438 1.438 0 0 0 1.438-1.438V38.3a17.647 17.647 0 0 0 5.342-2.21l1.6 1.6a1.439 1.439 0 0 0 2.034 0l3.677-3.677a1.439 1.439 0 0 0 0-2.034l-1.6-1.6a17.679 17.679 0 0 0 2.209-5.341h2.259A1.437 1.437 0 0 0 42 23.6v-5.2a1.438 1.438 0 0 0-1.438-1.438zM21 28.269A7.269 7.269 0 1 1 28.269 21 7.269 7.269 0 0 1 21 28.269z" class="cls-1" data-name="Path 3530"/>
    <path id="Path_3531" d="M23.5 13A10.5 10.5 0 1 0 34 23.5 10.5 10.5 0 0 0 23.5 13zm0 17.769a7.269 7.269 0 1 1 7.269-7.269 7.269 7.269 0 0 1-7.269 7.269z" class="cls-2" data-name="Path 3531" transform="translate(-2.5 -2.5)"/>
</svg>
