<svg xmlns="http://www.w3.org/2000/svg" id="technical-support" width="41.527" height="41.527" viewBox="0 0 41.527 41.527">
    <defs>
        <style>
            .cls-1{fill:#d5e8fd}.cls-2{fill:#b6dbfe}.cls-3{fill:#fcbe29}.cls-4{fill:#fe9022}.cls-5{fill:#ffda2d}
        </style>
    </defs>
    <path id="Path_3538" d="M27.975 26.464l-1.72 1.72-17.6-17.6h-3.07a1.217 1.217 0 0 1-.86-.356l-3.7-3.7a1.216 1.216 0 0 1 0-1.72L4.55 1.271a1.216 1.216 0 0 1 1.72 0l3.785 3.785a1.217 1.217 0 0 1 .356.86V8.9z" class="cls-1" data-name="Path 3538" transform="translate(-.611 -.841)"/>
    <path id="Path_3539" d="M52.118 26.464l-.87.87L26.94 3.026l1.754-1.754a1.216 1.216 0 0 1 1.72 0L34.2 5.057a1.217 1.217 0 0 1 .356.86V8.9z" class="cls-2" data-name="Path 3539" transform="translate(-24.755 -.841)"/>
    <path id="Path_3540" d="M293.651 284.848l-8.314-8.3a1.217 1.217 0 0 0-1.72 0l-6.882 6.882a1.217 1.217 0 0 0 0 1.721l8.31 8.31a6.087 6.087 0 1 0 8.606-8.609z" class="cls-3" data-name="Path 3540" transform="translate(-253.962 -253.787)"/>
    <path id="Path_3541" d="M336.574 293.467L323.1 279.993l3.449-3.449a1.217 1.217 0 0 1 1.72 0l8.314 8.3a6.093 6.093 0 0 1-.009 8.623z" class="cls-4" data-name="Path 3541" transform="translate(-296.894 -253.786)"/>
    <path id="Path_3542" d="M368.2 366.225l-4.785-4.785a1.217 1.217 0 0 0-1.721 1.721l4.785 4.785a1.217 1.217 0 0 0 1.721-1.721z" class="cls-5" data-name="Path 3542" transform="translate(-332.026 -331.797)"/>
    <path id="Path_3543" d="M372.115 367.957l-6.5-6.5.01-.011a1.216 1.216 0 0 1 1.72 0l4.785 4.785a1.215 1.215 0 0 1-.015 1.726z" class="cls-3" data-name="Path 3543" transform="translate(-335.956 -331.798)"/>
    <path id="Path_3544" d="M40.986 4.886a1.217 1.217 0 0 0-2.009-.46l-3.488 3.488h-1.283l-.562-.562c.011-.42.034-.77.045-1.226l3.534-3.534a1.217 1.217 0 0 0-.443-2A9.728 9.728 0 0 0 33.432 0c-6.529 0-9.526 4.655-7.7 10.639L10.639 25.734C4.648 23.9 0 26.909 0 33.432a9.728 9.728 0 0 0 .589 3.347 1.217 1.217 0 0 0 2 .443l3.531-3.528H7.4l.511.511v1.283l-3.485 3.489a1.217 1.217 0 0 0 .46 2.009 9.724 9.724 0 0 0 3.21.541c6.437 0 9.471-4.521 7.732-10.511l15.189-15.189c5.976 1.735 10.511-1.282 10.511-7.732a9.724 9.724 0 0 0-.541-3.21z" class="cls-1" data-name="Path 3544"/>
    <path id="Path_3545" d="M87.634 54.2c0 6.45-4.535 9.467-10.511 7.732L61.934 77.123c1.739 5.99-1.3 10.511-7.732 10.511a9.72 9.72 0 0 1-3.21-.541 1.217 1.217 0 0 1-.459-2.009l3.488-3.484v-1.287l-.3-.3 26.296-26.288.3.3H81.6l3.488-3.488a1.217 1.217 0 0 1 2.009.459 9.72 9.72 0 0 1 .537 3.204z" class="cls-2" data-name="Path 3545" transform="translate(-46.107 -46.107)"/>
</svg>
