<svg xmlns="http://www.w3.org/2000/svg" width="24.484" height="28.593" viewBox="0 0 24.484 28.593">
    <defs>
        <style>
            .cls-1{fill:#c726d2}
        </style>
    </defs>
    <g id="trophy" transform="translate(-36.785)">
        <g id="Group_1288" data-name="Group 1288" transform="translate(36.785)">
            <g id="Group_1287" data-name="Group 1287">
                <path id="Path_2004" d="M60.78 2.757a2.069 2.069 0 0 0-1.579-.73h-2V1.4A1.4 1.4 0 0 0 55.8 0H42.253a1.4 1.4 0 0 0-1.4 1.4v.625h-2a2.069 2.069 0 0 0-1.579.73 2.044 2.044 0 0 0-.463 1.654 10.707 10.707 0 0 0 5.439 7.644 14.118 14.118 0 0 0 .894 1.792 8.338 8.338 0 0 0 3.832 3.617 3.022 3.022 0 0 1-2.333 3.238h-.009a.661.661 0 0 0-.508.643v3.036H42.9a1.987 1.987 0 0 0-1.985 1.985v1.567a.662.662 0 0 0 .662.662h14.965a.662.662 0 0 0 .662-.662v-1.567a1.987 1.987 0 0 0-1.985-1.985H53.99v-3.036a.661.661 0 0 0-.509-.643h-.008a3.02 3.02 0 0 1-2.332-3.261 8.385 8.385 0 0 0 3.768-3.589 14.123 14.123 0 0 0 .894-1.792 10.707 10.707 0 0 0 5.439-7.644 2.044 2.044 0 0 0-.462-1.657zM38.118 4.2a.713.713 0 0 1 .165-.584.748.748 0 0 1 .57-.264h2v1.216a20.794 20.794 0 0 0 .705 5.45 9.371 9.371 0 0 1-3.44-5.818zm17.1 21.5a.663.663 0 0 1 .662.662v.905H42.238v-.905a.663.663 0 0 1 .662-.662zM52.667 22v2.374h-7.216V22zm-5.48-1.323a4.382 4.382 0 0 0 .447-.584 4.3 4.3 0 0 0 .683-2.271 5.188 5.188 0 0 0 1.485-.009 4.356 4.356 0 0 0 1.136 2.864h-3.752zM55.88 4.568a17.1 17.1 0 0 1-2.108 8.6c-1.3 2.18-2.98 3.38-4.744 3.38s-3.45-1.2-4.745-3.38a17.1 17.1 0 0 1-2.108-8.6V1.4a.079.079 0 0 1 .079-.079H55.8a.079.079 0 0 1 .079.079zm4.056-.368a9.372 9.372 0 0 1-3.436 5.818 20.8 20.8 0 0 0 .7-5.45V3.351h2a.748.748 0 0 1 .57.264.713.713 0 0 1 .166.585z" class="cls-1" data-name="Path 2004" transform="translate(-36.785)"/>
            </g>
        </g>
        <g id="Group_1290" data-name="Group 1290" transform="translate(44.977 3.875)">
            <g id="Group_1289" data-name="Group 1289">
                <path id="Path_2005" d="M191.547 72.31a.662.662 0 0 0-.534-.45l-2-.29-.893-1.81a.662.662 0 0 0-1.187 0l-.893 1.81-2 .29a.662.662 0 0 0-.367 1.129l1.445 1.408-.341 1.989a.662.662 0 0 0 .96.7l1.786-.939 1.786.939a.662.662 0 0 0 .96-.7l-.341-1.989 1.445-1.408a.662.662 0 0 0 .174-.679zm-2.785 1.382a.662.662 0 0 0-.19.586l.173 1.01-.907-.477a.662.662 0 0 0-.616 0l-.907.477.173-1.01a.662.662 0 0 0-.19-.586l-.734-.715 1.014-.147a.662.662 0 0 0 .5-.362l.454-.919.454.919a.662.662 0 0 0 .5.362l1.014.147z" class="cls-1" data-name="Path 2005" transform="translate(-183.479 -69.391)"/>
            </g>
        </g>
    </g>
</svg>
