<svg xmlns="http://www.w3.org/2000/svg" width="35.32" height="25.929" viewBox="0 0 35.32 25.929">
    <defs>
        <style>
            .cls-1{fill:#ffc400}
        </style>
    </defs>
    <g id="team" transform="translate(0 -68.066)">
        <g id="Group_1274" data-name="Group 1274" transform="translate(27.093 79.13)">
            <g id="Group_1273" data-name="Group 1273">
                <path id="Path_1997" d="M396.819 229.057a10.094 10.094 0 0 0-3.551-.608.517.517 0 0 0 0 1.035 8.935 8.935 0 0 1 3.088.5.517.517 0 0 0 .463-.926z" class="cls-1" data-name="Path 1997" transform="translate(-392.751 -228.449)"/>
            </g>
        </g>
        <g id="Group_1276" data-name="Group 1276" transform="translate(0 68.066)">
            <g id="Group_1275" data-name="Group 1275">
                <path id="Path_1998" d="M33.741 87.1l-2.141-.607a.217.217 0 0 1-.157-.208v-.713a3.891 3.891 0 0 0 .495-.406 3.806 3.806 0 0 0 1.165-2.753v-.984l.207-.413a3.3 3.3 0 0 0 .347-1.468v-2.667a.517.517 0 0 0-.517-.517h-4.976a3.287 3.287 0 0 0-3.283 3.283v.031a2.744 2.744 0 0 0 .288 1.221l.265.53v.845a4.037 4.037 0 0 0 1.66 3.264v.748c0 .115 0 .163-.427.285l-1.043.3-3.016-1.1a.517.517 0 0 0-.141-.4l-.967-1.008v-1.7c.1-.084.2-.17.3-.261a6.072 6.072 0 0 0 1.913-4.414V76.63a5.98 5.98 0 0 0 .553-2.515v-5.532a.517.517 0 0 0-.517-.517h-7.742a4.949 4.949 0 0 0-4.943 4.943v1.106a5.981 5.981 0 0 0 .553 2.515v1.17a6.322 6.322 0 0 0 2.213 4.825v1.74l-.964 1.013a.517.517 0 0 0-.141.4l-3.183 1.151a2.714 2.714 0 0 0-.64.335l-.5-.25a3.952 3.952 0 0 0 1.982-1.6.517.517 0 0 0 0-.463 9.192 9.192 0 0 1-.454-3.212 29.974 29.974 0 0 0-.045-1.019A4.5 4.5 0 0 0 5.5 76.364a4.5 4.5 0 0 0-4.388 4.353c-.022.308-.033.653-.045 1.019a9.192 9.192 0 0 1-.454 3.212.517.517 0 0 0 0 .463 3.951 3.951 0 0 0 1.984 1.6l-1.397.696A2.166 2.166 0 0 0 0 89.655v3.822a.517.517 0 1 0 1.035 0v-3.822a1.136 1.136 0 0 1 .631-1.022l1.734-.864.6.572a2.176 2.176 0 0 0 3 0l.6-.571.564.282a2.725 2.725 0 0 0-.419 1.448v3.982a.517.517 0 0 0 1.035 0V89.5a1.7 1.7 0 0 1 1.12-1.6l3.356-1.22 1.4 2.1a1.067 1.067 0 0 0 .785.472q.054.005.107.005a1.066 1.066 0 0 0 .756-.314l.852-.852v5.389a.517.517 0 0 0 1.035 0v-5.392l.852.852a1.066 1.066 0 0 0 .756.314q.053 0 .107-.005a1.067 1.067 0 0 0 .785-.471l1.4-2.1 3.356 1.22a1.7 1.7 0 0 1 1.106 1.602v3.982a.517.517 0 1 0 1.035 0V89.5a2.735 2.735 0 0 0-.765-1.893l.128-.037a2.839 2.839 0 0 0 .481-.174l1.321 1.321v4.764a.517.517 0 1 0 1.035 0v-4.768L31.1 87.4a1.233 1.233 0 0 0 .22.087l2.137.61a1.147 1.147 0 0 1 .828 1.1v4.28a.517.517 0 1 0 1.035 0V89.2a2.186 2.186 0 0 0-1.579-2.1zm-30.422-.91a3.719 3.719 0 0 1-1.66-1.066 5.7 5.7 0 0 0 .295-1.239 3.858 3.858 0 0 0 1.365 1.685zm2.964 1.4a1.142 1.142 0 0 1-1.574 0l-.481-.457a1.07 1.07 0 0 0 .126-.505v-.551a3.847 3.847 0 0 0 2.284 0v.551a1.07 1.07 0 0 0 .126.505zM5.5 85.215a2.8 2.8 0 0 1-2.8-2.8.514.514 0 0 0-.6-.51v-.133c.012-.356.023-.692.043-.98a3.841 3.841 0 0 1 1.046-2.412 3.215 3.215 0 0 1 4.621 0 3.841 3.841 0 0 1 1.043 2.41c.02.288.032.624.043.98v.092A4.649 4.649 0 0 0 6.343 80a6.492 6.492 0 0 0-1.968-.312.517.517 0 0 0-.358.158l-.933.968a.517.517 0 0 0 .745.718l.777-.806c.669.033 2.821.283 3.658 2.126A2.8 2.8 0 0 1 5.5 85.215zm2.177.977v-.617a3.827 3.827 0 0 0 1.366-1.687 5.7 5.7 0 0 0 .295 1.236 3.737 3.737 0 0 1-1.665 1.068zm4.975-8.392v-1.286a.517.517 0 0 0-.051-.225 4.963 4.963 0 0 1-.5-2.174v-1.106a3.913 3.913 0 0 1 3.906-3.909h7.227v5.015a4.963 4.963 0 0 1-.5 2.174.518.518 0 0 0-.051.225v1.473a4.967 4.967 0 0 1-1.586 3.659 5.145 5.145 0 0 1-.4.336l-.009.006a4.975 4.975 0 0 1-3.357 1 5.124 5.124 0 0 1-4.679-5.188zm2.913 10.41a.033.033 0 0 1-.029.01.033.033 0 0 1-.026-.016l-1.61-2.415.518-.544 2.441 1.669zm2.1-2l-2.8-1.915v-.966a5.825 5.825 0 0 0 2.4.693q.2.013.407.013a5.993 5.993 0 0 0 2.8-.685v.95zm2.158 1.99a.033.033 0 0 1-.026.016.032.032 0 0 1-.029-.01l-1.295-1.295 2.441-1.669.518.544zm9.447-.437l-1.17-1.17a1.419 1.419 0 0 0 .032-.307v-.218a3.627 3.627 0 0 0 1.025.181h.119a3.844 3.844 0 0 0 1.141-.173v.208a1.237 1.237 0 0 0 .037.3zm1.951-3.343a2.781 2.781 0 0 1-2.038.79 2.9 2.9 0 0 1-2.715-2.94v-.967a.517.517 0 0 0-.055-.231l-.32-.639a1.7 1.7 0 0 1-.179-.758v-.031a2.251 2.251 0 0 1 2.25-2.244h4.461v2.149a2.261 2.261 0 0 1-.237 1.006l-.261.522a.517.517 0 0 0-.055.231v1.106a2.78 2.78 0 0 1-.851 2.01z" class="cls-1" data-name="Path 1998" transform="translate(0 -68.066)"/>
            </g>
        </g>
        <g id="Group_1278" data-name="Group 1278" transform="translate(32.072 89.641)">
            <g id="Group_1277" data-name="Group 1277">
                <path id="Path_1999" d="M465.44 380.814a.517.517 0 0 0-.517.517v3.319a.517.517 0 0 0 1.035 0v-3.319a.517.517 0 0 0-.518-.517z" class="cls-1" data-name="Path 1999" transform="translate(-464.923 -380.814)"/>
            </g>
        </g>
        <g id="Group_1280" data-name="Group 1280" transform="translate(2.213 90.324)">
            <g id="Group_1279" data-name="Group 1279">
                <path id="Path_2000" d="M32.594 390.728a.517.517 0 0 0-.517.517v2.635a.517.517 0 0 0 1.035 0v-2.635a.517.517 0 0 0-.518-.517z" class="cls-1" data-name="Path 2000" transform="translate(-32.077 -390.728)"/>
            </g>
        </g>
        <g id="Group_1282" data-name="Group 1282" transform="translate(13.277 72.766)">
            <g id="Group_1281" data-name="Group 1281">
                <path id="Path_2001" d="M201.088 137.739c-1.957-1.957-6.051-1.583-7.72-1.331a1.062 1.062 0 0 0-.907 1.058v1.192a.517.517 0 1 0 1.035 0v-1.192a.034.034 0 0 1 .027-.035 16.344 16.344 0 0 1 3.361-.164 5.34 5.34 0 0 1 3.473 1.2.517.517 0 1 0 .732-.732z" class="cls-1" data-name="Path 2001" transform="translate(-192.46 -136.203)"/>
            </g>
        </g>
        <g id="Group_1284" data-name="Group 1284" transform="translate(11.064 90.747)">
            <g id="Group_1283" data-name="Group 1283">
                <path id="Path_2002" d="M160.9 396.853a.517.517 0 0 0-.517.517v2.213a.517.517 0 0 0 1.035 0v-2.213a.517.517 0 0 0-.518-.517z" class="cls-1" data-name="Path 2002" transform="translate(-160.384 -396.853)"/>
            </g>
        </g>
        <g id="Group_1286" data-name="Group 1286" transform="translate(23.234 90.747)">
            <g id="Group_1285" data-name="Group 1285">
                <path id="Path_2003" d="M337.323 396.853a.517.517 0 0 0-.517.517v2.213a.517.517 0 0 0 1.035 0v-2.213a.517.517 0 0 0-.518-.517z" class="cls-1" data-name="Path 2003" transform="translate(-336.806 -396.853)"/>
            </g>
        </g>
    </g>
</svg>
