<svg xmlns="http://www.w3.org/2000/svg" width="31.392" height="27.929" viewBox="0 0 31.392 27.929">
    <defs>
        <style>
            .cls-1{fill:red}
        </style>
    </defs>
    <path id="heart" d="M15.7 27.929a1.841 1.841 0 0 1-1.214-.456 354.163 354.163 0 0 0-3.57-3.07h-.006a66.385 66.385 0 0 1-7.794-7.315A11.684 11.684 0 0 1 0 9.434a9.812 9.812 0 0 1 2.49-6.7A8.441 8.441 0 0 1 8.77 0a7.9 7.9 0 0 1 4.93 1.7 10.091 10.091 0 0 1 2 2.085A10.092 10.092 0 0 1 17.69 1.7 7.9 7.9 0 0 1 22.623 0 8.442 8.442 0 0 1 28.9 2.733a9.811 9.811 0 0 1 2.49 6.7 11.683 11.683 0 0 1-3.113 7.648 66.378 66.378 0 0 1-7.791 7.319 354.243 354.243 0 0 0-3.576 3.076 1.842 1.842 0 0 1-1.213.456zM8.77 1.839A6.623 6.623 0 0 0 3.842 3.98a7.981 7.981 0 0 0-2 5.455 9.831 9.831 0 0 0 2.691 6.475A65.327 65.327 0 0 0 12.1 23h.006c1.083.923 2.31 1.969 3.588 3.086a424.113 424.113 0 0 1 3.6-3.091 65.343 65.343 0 0 0 7.57-7.089 9.832 9.832 0 0 0 2.69-6.475 7.981 7.981 0 0 0-2-5.455 6.622 6.622 0 0 0-4.927-2.141 6.1 6.1 0 0 0-3.808 1.318 8.923 8.923 0 0 0-2.122 2.455 1.161 1.161 0 0 1-1.994 0 8.915 8.915 0 0 0-2.122-2.455A6.1 6.1 0 0 0 8.77 1.839zm0 0" class="cls-1"/>
</svg>
