<svg id="Flat" xmlns="http://www.w3.org/2000/svg" width="73.729" height="78.813" viewBox="0 0 73.729 78.813">
  <path id="Path_3549" data-name="Path 3549" d="M124.636,248.38V242.84l-4.961-1.764c-.668-1.609-1-2.422-1.669-4.034l2.261-4.756-3.917-3.917-4.755,2.261-4.034-1.669L105.8,224h-5.541l-1.764,4.961-4.034,1.669L89.7,228.369l-3.917,3.917,2.261,4.756-1.669,4.034-4.961,1.764v5.541l4.961,1.764c.668,1.609,1,2.422,1.669,4.034l-2.261,4.756,3.917,3.917,4.755-2.261,4.034,1.669,1.765,4.961H105.8l1.764-4.961,4.034-1.669,4.756,2.261,3.917-3.917-2.261-4.756,1.669-4.034Zm-21.611,7.4a10.169,10.169,0,1,1,10.169-10.169A10.169,10.169,0,0,1,103.026,255.78Z" transform="translate(-72.294 -189.679)" fill="#ef5249"/>
  <path id="Path_3550" data-name="Path 3550" d="M259.221,56.38V50.84l-4.965-1.764-1.669-4.034,2.261-4.756-3.917-3.917-4.756,2.261-4.034-1.669L240.382,32h-5.541l-1.764,4.961-4.034,1.669-4.756-2.261-3.917,3.917,2.26,4.756-1.669,4.034-2.226,1.632c0,2.767-2.738,2.906-2.738,5.673l4.961,1.764,1.669,4.034-2.261,4.756,3.917,3.917,4.756-2.261,4.034,1.669,1.764,4.961h5.541l1.764-4.961,4.034-1.669,4.756,2.261,3.917-3.917-2.263-4.76,1.669-4.034Zm-21.609,7.4a10.169,10.169,0,1,1,10.169-10.169A10.169,10.169,0,0,1,237.612,63.78Z" transform="translate(-185.493 -28.187)" fill="#88bf40"/>
  <path id="Path_3551" data-name="Path 3551" d="M67.22,32.38V26.84l-4.965-1.764-1.669-4.034,2.261-4.756-3.917-3.917-4.756,2.261-4.034-1.669L48.38,8H42.84l-1.764,4.961L37.042,14.63l-4.756-2.261-3.917,3.917,2.261,4.756-1.669,4.034L24,26.84V32.38l4.961,1.764,1.669,4.034-2.261,4.756,3.917,3.917,4.756-2.266,4.034,1.669,1.764,4.961h5.541l1.763-4.961,4.034-1.669,4.756,2.261,3.917-3.917-2.266-4.753,1.669-4.034Zm-21.611,7.4A10.169,10.169,0,1,1,55.778,29.611,10.169,10.169,0,0,1,45.609,39.78Z" transform="translate(-24 -8)" fill="#ffc119"/>
  <path id="Path_3552" data-name="Path 3552" d="M335.627,287.763v-7.627L328.79,273.3a2.7,2.7,0,0,1,3.813-3.813l3.024,3.024V258.526a2.543,2.543,0,0,1,5.084,0v6.36h5.521a7.191,7.191,0,0,1,5.085,12.275l-2.978,2.978v7.627Z" transform="translate(-279.695 -216.576)" fill="#f5be9a"/>
  <path id="Path_3553" data-name="Path 3553" d="M360,432h17.8v11.44H360Z" transform="translate(-306.611 -364.628)" fill="#0093ba"/>
  <path id="Path_3554" data-name="Path 3554" d="M432,456h2.543v2.543H432Z" transform="translate(-367.171 -384.815)" fill="#7ecce6"/>
</svg>
